<?xml version="1.0" standalone="no"?>
<!DOCTYPE svg PUBLIC "-//W3C//DTD SVG 1.1//EN" "http://www.w3.org/Graphics/SVG/1.1/DTD/svg11.dtd" >
<svg xmlns="http://www.w3.org/2000/svg">
<metadata>Generated by IcoMoon</metadata>
<defs>
<font id="folksam-icons" horiz-adv-x="1024">
<font-face units-per-em="1024" ascent="960" descent="-64" />
<missing-glyph horiz-adv-x="1024" />
<glyph unicode="&#x20;" horiz-adv-x="512" d="" />
<glyph unicode="&#xe900;" glyph-name="arrow-down" d="M0.192 857.408l532.32-818.816 491.296 818.816z" />
<glyph unicode="&#xe901;" glyph-name="arrow-left" d="M921.408 959.808l-818.816-532.32 818.816-491.296z" />
<glyph unicode="&#xe902;" glyph-name="arrow-right" d="M102.592-63.808l818.816 532.32-818.816 491.296z" />
<glyph unicode="&#xe903;" glyph-name="arrow-up" d="M1023.808 38.592l-532.32 818.816-491.296-818.816z" />
<glyph unicode="&#xe904;" glyph-name="box" d="M908.8 851.2c-3.2 12.8-16 22.4-28.8 22.4h-736c-16 0-32-9.6-35.2-22.4l-102.4-380.8c0-3.2 0-16 0-16s0-16 0-22.4v-345.6c0-32 28.8-64 64-64h886.4c32 0 64 28.8 64 64v384l-112 380.8zM163.2 812.8h694.4l83.2-316.8h-297.6c0-76.8-57.6-128-131.2-128-76.8 0-131.2 54.4-131.2 128h-304l86.4 316.8zM67.2 83.2v348.8h259.2c25.6-80 92.8-128 182.4-128s156.8 51.2 182.4 128h259.2v-345.6h-883.2z" />
<glyph unicode="&#xe905;" glyph-name="briefcase" d="M947.2 755.2h-246.4v60.8c0 51.2-44.8 92.8-92.8 92.8h-185.6c-51.2 0-92.8-38.4-92.8-92.8v-60.8h-249.6c-32 0-64-25.6-64-64v-646.4c0-32 25.6-64 64-64h867.2c32 0 64 25.6 64 64v646.4c0 38.4-32 64-64 64zM390.4 816c0 16 12.8 28.8 28.8 28.8h188.8c16 0 28.8-12.8 28.8-28.8v-60.8h-246.4v60.8zM80 691.2h867.2v-217.6h-339.2v32c0 32-25.6 64-64 64h-64c-32 0-64-25.6-64-64v-32h-336v217.6zM544 508.8v-156.8h-64v156.8h64zM947.2 44.8h-867.2v371.2h339.2v-64c0-32 25.6-64 64-64h64c32 0 64 25.6 64 64v64h336v-371.2z" />
<glyph unicode="&#xe906;" glyph-name="calculate" d="M608 608h192c19.2 0 32 12.8 32 32s-12.8 32-32 32h-192c-19.2 0-32-12.8-32-32s12.8-32 32-32zM608 288h192c19.2 0 32 12.8 32 32s-12.8 32-32 32h-192c-19.2 0-32-12.8-32-32s12.8-32 32-32zM432 368c-12.8 12.8-32 12.8-44.8 0l-67.2-67.2-67.2 67.2c-12.8 12.8-32 12.8-44.8 0s-12.8-32 0-44.8l67.2-67.2-67.2-67.2c-12.8-12.8-12.8-32 0-44.8s32-12.8 44.8 0l67.2 67.2 67.2-67.2c12.8-12.8 32-12.8 44.8 0s12.8 32 0 44.8l-67.2 67.2 67.2 67.2c12.8 12.8 12.8 32 0 44.8zM224 608h64v-64c0-19.2 12.8-32 32-32s32 12.8 32 32v64h64c19.2 0 32 12.8 32 32s-12.8 32-32 32h-64v64c0 19.2-12.8 32-32 32s-32-12.8-32-32v-64h-64c-19.2 0-32-12.8-32-32s12.8-32 32-32zM608 160h192c19.2 0 32 12.8 32 32s-12.8 32-32 32h-192c-19.2 0-32-12.8-32-32s12.8-32 32-32zM960 960h-896c-35.2 0-64-28.8-64-64v-896c0-35.2 28.8-64 64-64h896c35.2 0 64 28.8 64 64v896c0 35.2-28.8 64-64 64zM960 0h-896v896h896v-896z" />
<glyph unicode="&#xe907;" glyph-name="car" d="M903.98 781.247c-17.875 56.18-63.84 68.948-117.466 68.948h-554.135c-53.626 0-91.93-20.429-112.359-68.948l-117.466-349.845v-326.863c0-38.304 30.643-56.18 58.733-56.18h84.269c38.304 0 63.84 28.090 63.84 56.18v89.377h607.761v-79.162c0-38.304 22.983-66.394 61.287-66.394h84.269c38.304 0 61.287 25.536 61.287 66.394v316.648l-120.020 349.845zM972.928 119.86c0-12.768-10.214-22.983-22.983-22.983h-61.287c-12.768 0-20.429 10.214-20.429 22.983v89.377c0 20.429-10.214 33.197-30.643 33.197h-653.726c-12.768 0-25.536-12.768-25.536-25.536v-102.145c0-12.768-5.107-20.429-17.875-20.429h-68.948c-12.768 0-17.875 7.661-17.875 17.875v311.541l114.913 337.077c10.214 28.090 33.197 38.304 56.18 38.304h559.242c35.751 0 61.287-10.214 71.501-40.858l114.913-334.524v-303.88zM753.317 735.282h-482.633c-22.983 0-51.072 0-61.287-30.643l-79.162-229.825h766.085l-79.162 229.825c-12.768 30.643-43.411 30.643-63.84 30.643zM201.736 525.885l53.626 153.217c2.554 5.107 7.661 2.554 7.661 2.554h497.955c0 0 5.107 0 7.661-7.661l51.072-150.663c0 2.554-617.975 2.554-617.975 2.554zM176.2 413.526c-30.643 0-61.287-25.536-61.287-61.287s25.536-61.287 61.287-61.287 56.18 28.090 56.18 61.287-22.983 61.287-56.18 61.287zM847.8 413.526c-30.643 0-61.287-25.536-61.287-61.287s25.536-61.287 61.287-61.287 61.287 25.536 61.287 61.287c0 35.751-28.090 61.287-61.287 61.287z" />
<glyph unicode="&#xe908;" glyph-name="caret-down" d="M511.936 83.584c-24.896 0-49.76 11.36-68.672 34.272l-412.736 495.264c-38.112 45.632-38.112 119.552 0 165.056 37.824 45.632 99.52 45.632 137.472 0l343.904-412.672 344.064 412.672c37.952 45.632 99.648 45.632 137.472 0 38.080-45.504 38.080-119.424 0-165.056l-412.736-495.264c-18.912-22.88-43.808-34.272-68.832-34.272z" />
<glyph unicode="&#xe909;" glyph-name="caret-left" d="M147.584 448.064c0 24.896 11.36 49.76 34.272 68.672l495.264 412.736c45.632 38.112 119.552 38.112 165.056 0 45.632-37.824 45.632-99.52 0-137.472l-412.672-343.904 412.672-344.064c45.632-37.952 45.632-99.648 0-137.472-45.504-38.080-119.424-38.080-165.056 0l-495.264 412.736c-22.88 18.912-34.272 43.808-34.272 68.832z" />
<glyph unicode="&#xe90a;" glyph-name="caret-right" d="M876.416 447.936c0-24.896-11.36-49.76-34.272-68.672l-495.264-412.736c-45.632-38.112-119.552-38.112-165.056 0-45.632 37.824-45.632 99.52 0 137.472l412.672 343.904-412.672 344.064c-45.632 37.952-45.632 99.648 0 137.472 45.504 38.080 119.424 38.080 165.056 0l495.264-412.736c22.88-18.912 34.272-43.808 34.272-68.832z" />
<glyph unicode="&#xe90b;" glyph-name="caret-up" d="M512.064 812.416c24.896 0 49.76-11.392 68.672-34.272l412.736-495.264c38.112-45.632 38.112-119.552 0-165.056-37.824-45.632-99.52-45.632-137.472 0l-343.904 412.672-344.064-412.672c-37.952-45.632-99.648-45.632-137.472 0-38.080 45.504-38.080 119.424 0 165.056l412.736 495.264c18.912 22.88 43.776 34.272 68.8 34.272z" />
<glyph unicode="&#xe90c;" glyph-name="cell-phone" d="M700.171 936.661h-379.259c-46.678 0-81.687-37.926-81.687-81.687v-813.949c0-46.678 37.926-81.687 81.687-81.687h382.177c46.678 0 81.687 37.926 81.687 81.687v813.949c-2.917 43.761-37.926 81.687-84.604 81.687zM294.655 854.974c0 14.587 11.67 26.256 26.256 26.256h382.177c14.587 0 26.256-11.67 26.256-26.256v-55.43h-434.689v55.43zM726.427 43.943c0-14.587-11.67-26.256-26.256-26.256h-379.259c-14.587 0-26.256 11.67-26.256 26.256v110.86h431.772v-110.86zM726.427 204.399h-431.772v542.632h431.772v-542.632zM510.541 43.943c20.422 0 40.843 17.504 40.843 40.843 0 20.422-17.504 40.843-40.843 40.843s-40.843-17.504-40.843-40.843c2.917-23.339 20.422-40.843 40.843-40.843z" />
<glyph unicode="&#xe90d;" glyph-name="checkmark" d="M393.344-7.328c-24.128 0-48.352 11.040-66.72 33.12l-298.816 379.008c-36.896 44.288-36.896 116.032 0 160.192 36.768 44.288 96.64 44.288 133.408 0l232.128-298.688 469.376 603.872c36.96 44.288 96.864 44.288 133.536 0 36.832-44.16 36.832-115.904 0-160.192l-536.128-684.16c-18.496-22.080-42.624-33.12-66.784-33.12z" />
<glyph unicode="&#xe90e;" glyph-name="close" d="M656.672 448.48l336.096 336.096c39.84 39.84 39.84 104.384 0 144.256-39.84 39.776-104.288 39.776-144.128-0.064l-336.16-336.128-336.256 336.192c-39.776 39.776-104.288 39.776-144 0-39.84-39.84-39.84-104.288-0.064-144.128l336.192-336.16-337.088-337.088c-39.84-39.84-39.84-104.416 0-144.256s104.352-39.84 144.192 0l337.12 337.152 336.064-336.032c39.84-39.84 104.288-39.84 144.128 0 39.712 39.84 39.712 104.288 0 144.128l-336.064 336z" />
<glyph unicode="&#xe90f;" glyph-name="credit-card" d="M918.974 755.783h-819.783c-29.174 0-52.513-23.339-52.513-55.43v-501.789c0-29.174 20.422-58.348 52.513-58.348h819.783c29.174 0 61.265 26.256 61.265 58.348v501.789c0 32.091-32.091 55.43-61.265 55.43zM924.809 691.601v-64.182h-822.701v64.182h822.701zM102.108 201.481v294.655h819.783v-297.573h-819.783v2.917zM256.729 429.037h-64.182c-23.339 0-43.761-17.504-43.761-43.761v-17.504c0-23.339 17.504-43.761 43.761-43.761h61.265c23.339 0 46.678 14.587 46.678 40.843v23.339c0 23.339-20.422 40.843-43.761 40.843z" />
<glyph unicode="&#xe910;" glyph-name="date" d="M926.326 830.818h-236.308v59.865c0 15.754-12.603 28.357-28.357 28.357s-31.508-12.603-31.508-28.357v-59.865h-236.308v59.865c0 15.754-12.603 28.357-28.357 28.357s-28.357-12.603-28.357-28.357v-59.865h-239.458c-31.508 0-59.865-25.206-59.865-59.865v-737.28c0-31.508 25.206-59.865 59.865-59.865h828.652c31.508 0 59.865 25.206 59.865 59.865v740.431c0 31.508-28.357 56.714-59.865 56.714v0zM926.326 33.674h-828.652v740.431h236.308v-28.357c0-15.754 12.603-28.357 28.357-28.357s28.357 12.603 28.357 28.357v28.357h239.458v-28.357c0-15.754 12.603-28.357 28.357-28.357s28.357 12.603 28.357 28.357v28.357h236.308l3.151-740.431zM718.375 449.575h59.865c15.754 0 28.357 12.603 28.357 28.357v59.865c0 15.754-12.603 28.357-28.357 28.357h-59.865c-15.754 0-28.357-12.603-28.357-28.357v-59.865c0-15.754 12.603-28.357 28.357-28.357zM718.375 213.268h59.865c15.754 0 28.357 12.603 28.357 28.357v59.865c0 15.754-12.603 28.357-28.357 28.357h-59.865c-15.754 0-28.357-12.603-28.357-28.357v-59.865c0-15.754 12.603-28.357 28.357-28.357zM541.932 329.846h-59.865c-15.754 0-28.357-12.603-28.357-28.357v-59.865c0-15.754 12.603-28.357 28.357-28.357h59.865c15.754 0 28.357 12.603 28.357 28.357v59.865c0 15.754-12.603 28.357-28.357 28.357zM541.932 566.154h-59.865c-15.754 0-28.357-12.603-28.357-28.357v-59.865c0-15.754 12.603-28.357 28.357-28.357h59.865c15.754 0 28.357 12.603 28.357 28.357v59.865c0 15.754-12.603 28.357-28.357 28.357zM305.625 566.154h-59.865c-15.754 0-28.357-12.603-28.357-28.357v-59.865c0-15.754 12.603-28.357 28.357-28.357h59.865c15.754 0 28.357 12.603 28.357 28.357v59.865c0 15.754-12.603 28.357-28.357 28.357zM305.625 329.846h-59.865c-15.754 0-28.357-12.603-28.357-28.357v-59.865c0-15.754 12.603-28.357 28.357-28.357h59.865c15.754 0 28.357 12.603 28.357 28.357v59.865c0 15.754-12.603 28.357-28.357 28.357z" />
<glyph unicode="&#xe911;" glyph-name="diamant" d="M971.487 644.923l-128.365 242.142c-5.835 11.67-26.256 26.256-40.843 26.256h-580.558c-14.587 0-35.009-11.67-40.843-26.256l-128.365-239.225c-5.835-11.67-5.835-35.009 2.917-46.678l437.607-609.732c2.917-5.835 11.67-8.752 14.587-8.752 5.835 0 11.67 2.917 14.587 8.752l443.442 603.897c8.752 11.67 11.67 35.009 5.835 49.595zM901.47 650.758h-157.538l64.182 177.96 93.356-177.96zM565.972 854.974h186.712l-58.348-166.291-128.365 166.291zM653.493 650.758h-271.316l128.365 183.795 142.952-183.795zM332.581 679.932l-61.265 175.043h180.877l-119.613-175.043zM662.245 592.41l-154.621-449.276-148.786 449.276h303.407zM440.524 157.721l-309.242 434.689h169.208l140.034-434.689zM723.51 592.41h169.208l-317.994-437.607 148.786 437.607zM215.886 837.47l61.265-186.712h-160.456l99.191 186.712z" />
<glyph unicode="&#xe912;" glyph-name="doc" d="M550.4 902.4h-323.2c-32 0-48-22.4-48-57.6v-806.4c0-28.8 12.8-48 48-48h556.8c32 0 57.6 22.4 57.6 57.6v579.2l-291.2 275.2zM531.2 848l259.2-240h-259.2v240zM233.6 41.6v806.4h243.2c0 0 0-208 0-243.2s22.4-51.2 57.6-51.2c32 0 259.2 0 259.2 0v-512h-560zM675.2 467.2h-336c-12.8 0-22.4-12.8-22.4-25.6s9.6-25.6 22.4-25.6h339.2c12.8 0 22.4 12.8 22.4 25.6-3.2 12.8-12.8 25.6-25.6 25.6zM675.2 329.6h-336c-12.8 0-22.4-12.8-22.4-25.6s9.6-25.6 22.4-25.6h339.2c12.8 0 22.4 12.8 22.4 25.6s-12.8 25.6-25.6 25.6zM675.2 195.2h-336c-12.8 0-22.4-12.8-22.4-25.6s9.6-25.6 22.4-25.6h339.2c12.8 0 22.4 12.8 22.4 25.6-3.2 12.8-12.8 25.6-25.6 25.6z" />
<glyph unicode="&#xe913;" glyph-name="doc-attention" d="M668.8 902.4h-336c-32 0-44.8-22.4-44.8-54.4v-156.8c-6.4 0-16-3.2-22.4-3.2-64-12.8-121.6-51.2-156.8-105.6s-51.2-121.6-38.4-185.6c22.4-108.8 112-188.8 217.6-198.4v-160c0-28.8 12.8-48 48-48h566.4c32 0 54.4 22.4 54.4 54.4v579.2l-288 278.4zM652.8 848l252.8-246.4h-252.8v246.4zM118.4 409.6c-19.2 105.6 48 211.2 153.6 230.4 12.8 3.2 25.6 3.2 38.4 3.2 92.8 0 176-64 192-160 6.4-28.8 3.2-57.6-3.2-83.2l51.2-102.4h-115.2c-25.6-22.4-57.6-38.4-89.6-44.8-12.8-3.2-25.6-3.2-38.4-3.2-89.6 0-172.8 67.2-188.8 160zM905.6 48h-566.4v156.8c6.4 0 12.8 3.2 19.2 3.2 35.2 6.4 70.4 22.4 99.2 44.8h99.2c28.8 0 48 12.8 48 35.2h188.8c12.8 0 22.4 12.8 22.4 25.6s-9.6 25.6-22.4 25.6h-201.6l-38.4 73.6c0 3.2 0 12.8 0 12.8h240c12.8 0 22.4 12.8 22.4 25.6s-9.6 25.6-22.4 25.6h-240c0 6.4-3.2 16-3.2 19.2-25.6 112-112 188.8-217.6 201.6v160h262.4c0 0 0-214.4 0-249.6s22.4-51.2 54.4-51.2 252.8 0 252.8 0v-508.8zM793.6 198.4h-352c-12.8 0-22.4-12.8-22.4-25.6s9.6-25.6 22.4-25.6h355.2c12.8 0 22.4 12.8 22.4 25.6-3.2 9.6-12.8 25.6-25.6 25.6zM339.2 339.2c0 12.8-12.8 25.6-25.6 25.6s-25.6-12.8-25.6-25.6c0-12.8 12.8-25.6 25.6-25.6 12.8 3.2 25.6 12.8 25.6 25.6zM300.8 400h25.6c3.2 0 3.2 0 3.2 3.2l3.2 166.4c0 3.2 0 3.2-3.2 3.2h-32c-3.2 0-6.4 0-6.4-3.2l3.2-166.4c0-3.2 3.2-3.2 6.4-3.2z" />
<glyph unicode="&#xe914;" glyph-name="doc-blank" d="M556.8 908.8h-323.2c-32 0-44.8-22.4-44.8-57.6v-809.6c0-28.8 12.8-48 48-48h560c32 0 57.6 22.4 57.6 57.6v579.2l-297.6 278.4zM540.8 851.2l259.2-240h-259.2v240zM240 44.8v812.8h243.2c0 0 0-208 0-243.2s22.4-51.2 57.6-51.2 259.2 0 259.2 0v-515.2h-560z" />
<glyph unicode="&#xe915;" glyph-name="doc-search" d="M688 912h-313.6c-32 0-54.4-25.6-54.4-57.6v-211.2c-96-25.6-169.6-112-169.6-214.4 0-51.2 19.2-102.4 48-144l-128-128c-3.2-3.2-6.4-12.8-6.4-19.2s3.2-12.8 6.4-16c3.2-3.2 12.8-6.4 19.2-6.4s12.8 3.2 19.2 6.4l128 124.8c25.6-19.2 51.2-35.2 83.2-38.4v-176c0-28.8 12.8-44.8 44.8-44.8h547.2c32 0 51.2 22.4 51.2 51.2v601.6l-275.2 272zM672 854.4l243.2-236.8h-243.2v236.8zM374.4 249.6c-96 0-176 76.8-176 176 0 96 76.8 176 176 176 96 0 176-76.8 176-176 0-96-80-176-176-176zM915.2 38.4h-544c0 0 0 163.2 0 163.2 67.2 0 131.2 28.8 176 80h265.6c12.8 0 22.4 12.8 22.4 25.6s-9.6 25.6-22.4 25.6h-236.8c12.8 25.6 19.2 54.4 22.4 83.2h217.6c12.8 0 22.4 12.8 22.4 25.6s-9.6 25.6-22.4 25.6h-220.8c-19.2 105.6-108.8 185.6-217.6 185.6v208h243.2c0 0 0-204.8 0-240s22.4-51.2 51.2-51.2c32 0 246.4 0 246.4 0v-531.2zM809.6 198.4h-342.4c-12.8 0-22.4-12.8-22.4-25.6s9.6-25.6 22.4-25.6h342.4c12.8 0 22.4 12.8 22.4 25.6s-9.6 25.6-22.4 25.6z" />
<glyph unicode="&#xe916;" glyph-name="download" d="M547.2 960h-320c-35.2 0-51.2-16-51.2-51.2v-800c0-32 19.2-51.2 51.2-51.2h70.4c12.8 0 25.6 12.8 25.6 25.6s-12.8 25.6-25.6 25.6h-70.4v800h272c0 0 0-220.8 0-249.6s16-48 51.2-48 249.6 0 249.6 0v-499.2h-70.4c-12.8 0-25.6-12.8-25.6-25.6s12.8-25.6 25.6-25.6h70.4c35.2 0 51.2 19.2 51.2 51.2v547.2l-304 300.8zM547.2 659.2v224l224-224h-224zM611.2 102.4l-76.8-76.8v320c0 12.8-12.8 25.6-25.6 25.6s-25.6-12.8-25.6-25.6v-320l-76.8 76.8c-9.6 9.6-25.6 9.6-35.2 0s-9.6-25.6 0-35.2l118.4-118.4c6.4-6.4 12.8-6.4 19.2-6.4s12.8 3.2 19.2 6.4l118.4 118.4c9.6 9.6 9.6 25.6 0 35.2s-25.6 9.6-35.2 0v0z" />
<glyph unicode="&#xe917;" glyph-name="dummy" d="M759.049 437.259c60.867 0 125.315 28.643 175.441 82.35 46.545 46.545 71.608 110.993 71.608 179.021s-28.643 132.476-71.608 179.021c-46.545 46.545-107.413 71.608-175.441 71.608s-132.476-28.643-179.021-71.608c-53.706-53.706-78.769-110.993-78.769-175.441v-14.322l239.888-247.049h17.902zM587.189 716.531c10.741 89.51 85.93 157.538 175.441 157.538 96.671 0 175.441-78.769 175.441-175.441 0-46.545-17.902-89.51-50.126-125.315-28.643-28.643-64.448-46.545-107.413-50.126h-3.58l-189.762 193.343zM182.601 816.783l264.951-264.951-60.867-60.867c-35.804-35.804-78.769-50.126-125.315-50.126-60.867 0-125.315-25.063-171.86-71.608s-71.608-107.413-71.608-175.441c0-136.056 107.413-247.049 247.049-247.049s247.049 107.413 247.049 247.049c0 46.545 17.902 89.51 53.706 125.315l60.867 60.867 264.951-264.951 53.706 53.706-708.923 698.182-53.706-50.126zM569.287 430.098l-57.287-60.867c-46.545-46.545-71.608-107.413-71.608-175.441 0-96.671-78.769-175.441-175.441-175.441s-175.441 78.769-175.441 175.441c0 46.545 17.902 89.51 50.126 125.315 35.804 35.804 78.769 50.126 125.315 50.126 64.448 0 128.895 25.063 175.441 71.608l60.867 60.867 68.028-71.608z" />
<glyph unicode="&#xe918;" glyph-name="earth" d="M1007.213 449.679c0 261.875-204.8 476.748-466.675 493.534-6.715 0-10.072 0-16.787 0-3.357 0-3.357 0-6.715 0s-6.715 0-10.072 0c-268.59 3.357-490.177-221.587-490.177-493.534s221.587-496.892 493.534-496.892c3.357 0 6.715 0 10.072 0s3.357 0 6.715 0c6.715 0 13.43 0 16.787 0 255.161 20.144 463.318 231.659 463.318 496.892zM916.564 291.882c-16.787 6.715-60.433 16.787-137.652 23.502 6.715 43.646 10.072 87.292 10.072 137.652 0 36.931-3.357 73.862-6.715 107.436 97.364 13.43 137.652 23.502 141.010 26.859l-13.43 33.574c20.144-53.718 33.574-107.436 33.574-167.869 3.357-60.433-6.715-110.793-26.859-161.154zM292.092 449.679c0 33.574 3.357 67.148 6.715 100.721 50.361-3.357 110.793-6.715 184.656-6.715v-214.872c-70.505 0-127.58-3.357-177.941-6.715-6.715 40.289-13.43 83.934-13.43 127.58zM543.895 876.066c80.577-20.144 141.010-127.58 171.226-265.233-50.361-3.357-100.721-6.715-171.226-6.715v271.948zM480.105 876.066v-271.948c-70.505 0-120.866 3.357-171.226 6.715 33.574 141.010 94.007 245.089 171.226 265.233zM480.105 265.023v-245.089c-70.505 20.144-134.295 114.151-164.511 238.374 50.361 6.715 107.436 6.715 164.511 6.715zM543.895 19.934v245.089c70.505 0 117.508-3.357 164.511-6.715-36.931-124.223-97.364-218.23-164.511-238.374zM543.895 328.813v214.872c70.505 0 130.938 3.357 181.298 10.072 3.357-33.574 6.715-67.148 6.715-100.721 0-43.646-3.357-87.292-10.072-130.938-50.361 3.357-110.793 6.715-177.941 6.715zM903.134 641.049c-10.072-3.357-50.361-16.787-127.58-20.144-20.144 94.007-50.361 171.226-90.649 228.302 94.007-43.646 171.226-117.508 218.23-208.157zM362.597 859.279c-50.361-60.433-94.007-144.367-114.151-238.374-70.505 10.072-110.793 13.43-130.938 20.144 53.718 97.364 141.010 177.941 245.089 218.23zM97.364 580.616c13.43-3.357 57.075-16.787 141.010-23.502-3.357-33.574-6.715-67.148-6.715-104.079 0-47.003 3.357-90.649 13.43-134.295-70.505-10.072-114.151-16.787-137.652-20.144-20.144 47.003-26.859 100.721-26.859 154.439-3.357 43.646 3.357 87.292 16.787 127.58zM134.295 234.807c20.144 6.715 60.433 13.43 120.866 20.144 23.502-87.292 60.433-161.154 107.436-214.872-97.364 36.931-177.941 107.436-228.302 194.728zM684.905 53.508c36.931 53.718 63.79 120.866 83.934 201.443 60.433-6.715 100.721-16.787 117.508-20.144-47.003-83.934-117.508-144.367-201.443-181.298z" />
<glyph unicode="&#xe919;" glyph-name="edit" d="M960.21 906.282c-33.574 33.574-73.862 50.361-114.151 50.361-63.79 0-110.793-40.289-124.223-53.718-16.787-20.144-624.472-627.83-624.472-627.83-3.357-3.357-6.715-10.072-6.715-13.43-13.43-50.361-83.934-275.305-83.934-278.662-3.357-10.072 0-23.502 6.715-33.574 6.715-6.715 13.43-10.072 23.502-10.072 3.357 0 6.715 0 10.072 0s235.016 77.22 271.948 87.292c6.715 0 10.072 3.357 13.43 6.715 23.502 26.859 590.898 590.898 631.187 627.83 40.289 40.289 57.075 80.577 57.075 124.223s-20.144 83.934-60.433 120.866v0zM715.121 802.203c16.787-3.357 53.718-16.787 94.007-57.075s50.361-83.934 50.361-94.007c-124.223-124.223-412.957-409.6-523.751-520.393-10.072 23.502-26.859 53.718-53.718 80.577-33.574 33.574-67.148 53.718-94.007 63.79 110.793 110.793 402.885 402.885 527.108 527.108v0zM144.367 221.377c16.787-3.357 53.718-16.787 90.649-53.718 26.859-30.216 40.289-60.433 47.003-80.577-43.646-13.43-141.010-47.003-201.443-67.148 16.787 57.075 50.361 151.082 63.79 201.443zM916.564 708.197c0 0-3.357-3.357-6.715-6.715-10.072 26.859-26.859 57.075-57.075 90.649-30.216 30.216-63.79 50.361-87.292 60.433 3.357 3.357 3.357 3.357 3.357 3.357 3.357 3.357 36.931 33.574 77.22 33.574 23.502 0 47.003-10.072 70.505-33.574 26.859-23.502 40.289-50.361 40.289-73.862 0-20.144-13.43-47.003-40.289-73.862v0z" />
<glyph unicode="&#xe91a;" glyph-name="envelope" d="M907.422 793.009h-787.692c-75.618 0-110.277-50.412-110.277-110.277v-472.615c0-56.714 47.262-110.277 110.277-110.277h787.692c56.714 0 110.277 50.412 110.277 110.277v472.615c0 66.166-40.96 110.277-110.277 110.277zM110.277 729.994h797.145c0 0-28.357 0 0 0l-396.997-302.474-400.148 302.474zM907.422 162.855h-787.692c-25.206 0-47.262 22.055-47.262 47.262v472.615l419.052-321.378c6.302-6.302 12.603-6.302 22.055-6.302s15.754 3.151 22.055 6.302l419.052 327.68v-475.766c0-28.357-18.905-50.412-47.262-50.412z" />
<glyph unicode="&#xe91b;" glyph-name="external-link" d="M834.88 247.68v-178.112h-701.312v698.624h222.624v133.568h-356.16v-965.76h968.448v311.68zM1024 924.448l-631.552-178.56 165.504-165.536-296.064-296.064 95.712-78.88 287.648 287.648 200.128-200.16z" />
<glyph unicode="&#xe91c;" glyph-name="first-aid" d="M617.551 862.326v-308.775h299.323v-217.403h-299.323v-299.323h-195.348v299.323h-315.077v217.403h308.775v308.775h201.649zM620.702 925.342h-204.8c-37.809 0-59.865-28.357-59.865-59.865v-252.062h-245.76c-34.658 0-66.166-28.357-66.166-63.015v-214.252c0-34.658 28.357-66.166 66.166-66.166h245.76v-239.458c0-34.658 25.206-63.015 56.714-63.015h204.8c34.658 0 59.865 28.357 59.865 63.015v239.458h236.308c34.658 0 66.166 28.357 66.166 66.166v214.252c0 34.658-28.357 63.015-66.166 63.015h-236.308v252.062c0 31.508-22.055 59.865-56.714 59.865v0z" />
<glyph unicode="&#xe91d;" glyph-name="folksam" horiz-adv-x="4832" d="M3695.232 27.904c-30.272 0-40.16 36.288-40.16 84.736v352.032c0 116.8-79.808 185.728-239.968 185.728-161.632 0-302.016-89.408-302.016-198.848 0-54.080 43.456-90.464 104.192-90.464 56.352 0 93.888 32.096 93.888 78.848 0 52.416-44.864 69.952-44.864 99.52 0 33.344 43.456 59.744 98.24 59.744 65.056 0 97.216-38.72 97.216-91.2v-127.36l-143.488-69.28c-144.448-70.272-213.696-152.192-213.696-235.36 0-78.624 57.76-140 132.768-140 49.312 0 106.976 20.48 153.184 56.736l71.232 55.968c8.544-70.048 48.64-112.736 123.68-112.736 71.008 0 131.584 40.672 160.704 107.744l-13.44 13.344c-12.768-22.048-21.536-29.184-37.472-29.184zM3461.76 99.936l-91.296-39.904c-40.512 0-76.224 32.16-76.608 79.008-0.288 79.968 63.872 136.416 167.904 190.496v-229.6zM2710.496 475.008c-14.4 14.56-25.792 34.912-25.792 54.080 0 39.328 38.784 70.112 89.504 70.112 95.232 0 174.624-68.64 216.608-178.304h17.472v229.504h-16.064c-18.88-29.184-36.16-42.464-59.264-42.464-33.248 0-89.6 42.464-170.336 42.464-120.096 0-213.76-90.688-213.76-207.552 0-57.056 17.248-100.832 63.264-147.424 68.032-68.864 206.592-98.048 271.616-163.84 15.968-15.968 24.704-32.032 24.704-58.528 0-48.128-44.864-85.952-104-85.952-96.672 0-174.016 69.952-223.168 191.392h-15.968v-241.12h12.8c13.28 31.936 27.776 45.024 47.744 45.024 31.904 0 109.12-46.432 196.256-46.432 132.288 0 232.416 93.376 232.416 219.104 0 55.36-20.448 105.024-60.768 146.144-82.56 83.104-222.688 112.32-283.296 173.76zM4764.992 63.008v397.376c0 116.864-66.496 190.016-174.816 190.016-79.424 0-155.936-45.44-209.44-124.256-17.376 77.344-79.392 124.256-167.744 124.256-72.064 0-131.264-35.328-190.528-110.944h-2.784v94.88h-264.32v-26.432c50.528-4.448 66.4-36.608 66.4-103.744v-422.24c0-60.064-10.176-93.568-66.4-99.52v-25.952h327.84v25.952c-41.856 5.952-63.52 32.16-63.52 93.568v390.176c38.976 61.408 73.632 87.616 112.416 87.616 42.080 0 62.304-30.336 62.304-84.704v-390.016c0-61.504-17.28-90.688-60.512-96.64v-25.952h320.544v25.952c-44.864 7.488-62.4 36.704-62.4 92.096v391.648c47.84 67.168 76.768 89.088 117.312 89.088 40.32 0 57.632-39.296 57.632-77.344v-394.432c0-64.32-15.808-96.352-62.016-100.992v-25.952h323.264v25.952c-40.16 1.664-63.264 36.704-63.264 80.576zM2392.768 125.728l-179.008 277.792 59.296 68.48c92.256 106.72 131.392 127.2 194.752 135.936v26.432h-288.896v-26.432c52.128 0 76.768-14.56 76.768-51.136 0-29.248-11.488-46.88-59.168-103.744l-137.28-160.64v667.552h-286.080v-26.208c66.336 4.192 87.968-23.296 87.968-97.888v-753.952c0-67.36-15.712-102.272-87.968-99.52v-25.952h366.88v25.952c-62.016 1.664-80.832 32.16-80.832 93.568v147.52l31.616 36.608 128.736-204.576c10.048-15.872 18.88-35.136 18.88-45.056 0-17.76-10.24-23.424-41.92-28.096v-25.952h332.128v25.952c-34.752 2.976-67.904 37.952-135.84 143.296zM1046.624 650.4c-183.328 0-316.416-149.216-316.416-355.008 0-241.344 170.496-359.392 322.336-359.392 125.408 0 316.16 94.848 316.16 354.912 0 232.512-150.144 359.488-322.080 359.488zM1049.504-12.896c-93.952 0-111.392 91.968-111.392 341.664 0 198.816 33.472 270.464 109.76 270.464 105.6 0 112.832-112.576 112.832-347.808-0.032-205.984-34.624-264.352-111.168-264.352zM416.128 488.128h-44.768v417.76h170.368c160.32 0 236.928-58.272 255.68-220.352h25.952v274.464h-823.36v-26.208c109.952 2.944 141.568-19.040 141.568-134.432v-683.744c0-100.992-18.624-138.944-141.568-133.152v-25.952h522.912v25.952c-122.72-5.76-150.144 24.992-150.144 133.152v326.56h27.424c134.368 0 203.616-72.96 210.944-223.552h28.864v481.408h-28.864c-2.88-140.288-80.928-211.904-194.976-211.904zM1664.032 57.056v902.944h-285.92v-26.208c63.36 1.472 88.192-19.040 88.192-93.408v-773.024c0-58.56-26.048-84.928-88.192-84.928v-25.952h358.080v25.952c-50.368-0.032-72.16 22.24-72.16 74.624z" />
<glyph unicode="&#xe91e;" glyph-name="ghost" d="M131.2-54.4c-3.2 0-6.4 0-9.6 0-12.8 3.2-19.2 16-19.2 28.8v540.8c0 240 185.6 438.4 409.6 438.4s409.6-195.2 409.6-438.4v-537.6c0-12.8-6.4-25.6-19.2-28.8s-25.6 0-35.2 6.4l-115.2 131.2-96-128c-6.4-6.4-16-12.8-25.6-12.8v0c-9.6 0-19.2 3.2-25.6 12.8l-92.8 124.8-92.8-124.8c-6.4-6.4-16-12.8-25.6-12.8v0c-9.6 0-19.2 3.2-25.6 12.8l-96 128-118.4-131.2c-6.4-6.4-12.8-9.6-22.4-9.6zM275.2 166.4v0c9.6 0 19.2-3.2 25.6-12.8l92.8-124.8 92.8 124.8c6.4 6.4 16 12.8 25.6 12.8v0c9.6 0 19.2-3.2 25.6-12.8l92.8-124.8 92.8 124.8c6.4 6.4 12.8 12.8 22.4 12.8s19.2-3.2 25.6-9.6l86.4-99.2v457.6c0 204.8-153.6 374.4-345.6 374.4s-348.8-169.6-348.8-374.4v-457.6l89.6 99.2c6.4 6.4 12.8 9.6 22.4 9.6zM601.6 540.8c0-35.2 28.8-64 64-64s64 28.8 64 64-28.8 64-64 64c-35.2 0-64-28.8-64-64zM288 540.8c0-35.2 28.8-64 64-64s64 28.8 64 64-28.8 64-64 64-64-28.8-64-64z" />
<glyph unicode="&#xe91f;" glyph-name="globe" d="M910.572 540.948c0 160.689-85.071 308.775-223.705 390.695-15.754 9.452-34.658 3.151-44.111-12.603s-3.151-34.658 12.603-44.111c122.88-72.468 198.498-198.498 198.498-337.132-3.151-226.855-170.142-396.997-403.298-396.997-50.412 0-100.825 9.452-148.086 28.357-15.754 6.302-34.658 0-40.96-15.754s0-34.658 18.905-40.96c50.412-25.206 110.277-34.658 170.142-34.658v0-59.865h-88.222c-18.905 0-34.658-12.603-34.658-31.508 0-15.754 15.754-31.508 34.658-31.508h239.458c18.905 0 31.508 12.603 31.508 31.508 0 15.754-15.754 31.508-31.508 31.508h-91.372v63.015c236.308 31.508 400.148 214.252 400.148 460.012zM784.542 537.797c0 182.745-148.086 333.982-333.982 333.982s-337.132-151.237-337.132-333.982 148.086-333.982 333.982-333.982c189.046 0 337.132 148.086 337.132 333.982zM173.292 537.797c0 151.237 122.88 274.117 274.117 274.117s274.117-126.031 274.117-274.117c0-151.237-122.88-274.117-274.117-274.117-148.086 0-274.117 122.88-274.117 274.117z" />
<glyph unicode="&#xe920;" glyph-name="group" d="M993.28 296.96l-130.56 61.44c40.96 38.4 53.76 104.96 53.76 135.68v76.8c0 53.76-71.68 110.080-143.36 110.080s-143.36-56.32-143.36-110.080v-76.8c0-35.84 15.36-97.28 53.76-135.68l-104.96-51.2-69.12 35.84c66.56 51.2 89.6 151.040 89.6 209.92v112.64c0 79.36-107.52 163.84-212.48 163.84s-212.48-84.48-212.48-163.84v-117.76c0-51.2 23.040-156.16 89.6-209.92l-204.8-97.28c0 0-48.64-17.92-48.64-56.32v-61.44c0-25.6 23.040-48.64 48.64-48.64h655.36c25.6 0 48.64 23.040 48.64 48.64v56.32h227.84c17.92 0 35.84 15.36 35.84 35.84v43.52c-2.56 25.6-33.28 38.4-33.28 38.4zM714.24 125.44h-657.92v51.2c0 17.92 12.8 25.6 17.92 28.16l202.24 99.84c15.36 5.12 35.84 20.48 35.84 38.4 0 15.36-2.56 25.6-23.040 40.96-48.64 38.4-69.12 122.88-69.12 171.52v112.64c0 51.2 89.6 117.76 168.96 117.76s166.4-69.12 166.4-120.32v-117.76c0-43.52-15.36-130.56-66.56-168.96-20.48-15.36-28.16-25.6-28.16-43.52s12.8-30.72 30.72-35.84l199.68-94.72c0 0 20.48-7.68 20.48-33.28l2.56-46.080zM985.6 220.16h-235.52c-12.8 15.36-35.84 25.6-35.84 25.6l-89.6 40.96 81.92 38.4c17.92 7.68 23.040 17.92 23.040 28.16 0 12.8-5.12 20.48-17.92 30.72-30.72 25.6-43.52 79.36-43.52 107.52v76.8c0 28.16 53.76 71.68 104.96 71.68s102.4-43.52 102.4-74.24v-76.8c0-28.16-12.8-79.36-40.96-104.96-15.36-12.8-20.48-20.48-20.48-33.28s12.8-20.48 30.72-30.72l130.56-61.44c2.56-2.56 10.24-2.56 10.24-15.36v-23.040z" />
<glyph unicode="&#xe921;" glyph-name="hamburger" d="M75.456 730.4h872.992c42.624 0 77.12 34.464 77.12 77.056 0 42.464-34.464 77.056-77.12 77.056h-872.992c-42.528 0-76.992-34.592-76.992-77.056 0-42.56 34.464-77.056 76.992-77.056zM948.448 524.992h-872.992c-42.528 0-76.992-34.464-76.992-76.992 0-42.624 34.464-77.088 76.992-77.088h872.992c42.624 0 77.12 34.464 77.12 77.088 0 42.528-34.464 76.992-77.12 76.992zM948.448 165.504h-872.992c-42.528 0-76.992-34.464-76.992-76.992s34.464-76.992 76.992-76.992h872.992c42.624 0 77.12 34.464 77.12 76.992s-34.464 76.992-77.12 76.992z" />
<glyph unicode="&#xe922;" glyph-name="headphones" d="M9.452 377.108v18.905c0 25.206 3.151 69.317 3.151 72.468 15.754 274.117 233.157 482.068 500.972 482.068 258.363 0 466.314-185.895 494.671-441.108 3.151-22.055 6.302-100.825 6.302-119.729 0-132.332-15.754-31.508-31.508-31.508 0 0 0 0 0 0-18.905 0-31.508 15.754-31.508 31.508 0 18.905-3.151 94.523-6.302 113.428-22.055 220.554-204.8 384.394-431.655 384.394-233.157 0-425.354-182.745-437.957-422.203 0-6.302-3.151-47.262-3.151-69.317 0-3.151-63.015-85.071-63.015-18.905zM932.628 68.332h-85.071c-47.262 0-85.071 37.809-85.071 85.071v207.951c0 47.262 37.809 85.071 85.071 85.071h85.071c47.262 0 85.071-37.809 85.071-85.071v-211.102c-3.151-44.111-37.809-81.92-85.071-81.92zM847.557 383.409c-12.603 0-22.055-9.452-22.055-22.055v-211.102c0-12.603 9.452-22.055 22.055-22.055h85.071c12.603 0 22.055 9.452 22.055 22.055v211.102c0 12.603-9.452 22.055-22.055 22.055h-85.071zM179.594 68.332h-85.071c-47.262 0-85.071 37.809-85.071 85.071v207.951c0 47.262 37.809 85.071 85.071 85.071h85.071c47.262 0 85.071-37.809 85.071-85.071v-211.102c-3.151-44.111-40.96-81.92-85.071-81.92zM94.523 383.409c-12.603 0-22.055-9.452-22.055-22.055v-211.102c0-12.603 9.452-22.055 22.055-22.055h85.071c12.603 0 22.055 9.452 22.055 22.055v211.102c0 12.603-9.452 22.055-22.055 22.055h-85.071zM507.274 39.975h94.523c18.905 0 31.508-12.603 31.508-31.508v-31.508c0-18.905-12.603-31.508-31.508-31.508h-94.523c-18.905 0-31.508 12.603-31.508 31.508v31.508c0 18.905 15.754 31.508 31.508 31.508zM563.988-13.588l371.791 144.935c15.754 6.302 34.658 0 40.96-15.754s0-34.658-15.754-40.96l-324.529-126.031h-75.618c0-3.151-34.658 22.055 3.151 37.809z" />
<glyph unicode="&#xe923;" glyph-name="home" horiz-adv-x="928" d="M462.464 960l-462.464-279.296v-744.704h264.256v396.384h198.208v-396.384h462.464v744.704l-462.464 279.296zM759.744 431.488c-33.024 0-99.104 0-132.128 0 0 33.024 0 99.104 0 132.128 33.024 0 99.104 0 132.128 0 0-33.024 0-99.104 0-132.128z" />
<glyph unicode="&#xe924;" glyph-name="laptop" d="M157.751 257.038h719.568c33.211 0 52.584 19.373 52.584 49.816v464.951c0 27.676-13.838 52.584-52.584 52.584-2.768 0-719.568 0-719.568 0-35.978 0-55.351-16.605-55.351-52.584v-462.184c0-30.443 24.908-52.584 55.351-52.584zM517.535 816.086c8.303 0 16.605-8.303 16.605-16.605s-8.303-16.605-16.605-16.605-19.373 8.303-19.373 16.605c0 11.070 8.303 16.605 19.373 16.605zM154.984 771.805h725.103v-464.951h-725.103v464.951zM957.578 82.681h-885.622c-13.838 0-33.211 0-41.514 16.605-8.303 13.838-5.535 30.443 2.768 41.514l33.211 58.119c13.838 22.141 30.443 35.978 60.886 35.978h780.454c30.443 0 47.049-16.605 58.119-35.978l30.443-58.119c8.303-19.373 13.838-33.211 5.535-44.281-11.070-11.070-33.211-13.838-44.281-13.838zM91.33 138.032h844.108l-27.676 49.816h-788.757l-27.676-49.816z" />
<glyph unicode="&#xe925;" glyph-name="legible" horiz-adv-x="1018" d="M702.439 35.902h-505.756v708.683h-81.171v-711.805c0-46.829 34.341-84.293 84.293-84.293h505.756v87.415h-3.122zM902.244 238.829h-505.756v705.561h-84.293v-711.805c0-46.829 34.341-84.293 84.293-84.293h505.756v90.537z" />
<glyph unicode="&#xe926;" glyph-name="lock" d="M464.048 260.834v-86.622c0-12.375 6.187-24.749 15.468-37.124 9.281-9.281 21.656-15.468 37.124-15.468 12.375 0 24.749 6.187 37.124 15.468 9.281 9.281 15.468 21.656 15.468 37.124v86.622c6.187 6.187 12.375 12.375 18.562 21.656 9.281 12.375 12.375 27.843 12.375 43.311 0 21.656-9.281 40.218-24.749 55.686-30.937 30.937-86.622 30.937-117.559 0-15.468-15.468-24.749-34.030-24.749-55.686s9.281-37.124 15.468-46.405c3.094-9.281 15.468-18.562 15.468-18.562zM925.003 446.453c0 40.218-9.281 74.248-37.124 102.091s-61.873 40.218-102.091 40.218h-6.187v95.903c0 37.124-6.187 74.248-18.562 105.184s-30.937 61.873-52.592 86.622c-21.656 24.749-49.498 43.311-83.529 58.779-64.967 27.843-148.495 27.843-216.556 0-30.937-12.375-61.873-34.030-83.529-58.779s-40.218-55.686-55.686-86.622c-12.375-30.937-18.562-68.060-18.562-105.184v-95.903h-9.281c-37.124 0-77.341-12.375-105.184-40.218-24.749-27.843-37.124-61.873-37.124-102.091v-365.051c0-37.124 12.375-74.248 40.218-102.091 24.749-24.749 61.873-37.124 98.997-37.124h544.483c37.124 0 74.248 12.375 102.091 40.218s40.218 61.873 40.218 102.091v361.958zM365.051 591.855v86.622c0 46.405 9.281 83.529 40.218 114.465 27.843 30.937 64.967 46.405 111.372 46.405s86.622-15.468 114.465-46.405c30.937-30.937 37.124-68.060 37.124-114.465v-86.622h-303.178zM207.275 434.079c0 9.281 3.094 18.562 12.375 27.843 6.187 6.187 18.562 12.375 30.937 12.375h529.015c9.281 0 18.562-3.094 27.843-12.375 6.187-6.187 12.375-15.468 12.375-27.843v-346.489c0-9.281-3.094-18.562-9.281-24.749s-15.468-9.281-27.843-9.281h-535.202c-12.375 0-21.656 3.094-30.937 9.281-6.187 6.187-9.281 15.468-9.281 27.843v343.396z" />
<glyph unicode="&#xe927;" glyph-name="minus" d="M80 541.92h864v-187.84h-864v187.84z" />
<glyph unicode="&#xe928;" glyph-name="person" d="M506.149 822.491c90.697 0 187.246-78.994 187.246-134.583v-134.583c0-49.737-23.406-149.211-81.92-198.949-17.554-11.703-26.331-23.406-26.331-46.811 2.926-23.406 26.331-35.109 43.886-43.886l231.131-108.251c5.851-2.926 20.48-5.851 20.48-32.183v-55.589h-751.909v52.663c0 20.48 17.554 26.331 20.48 29.257l236.983 111.177c17.554 8.777 38.034 20.48 40.96 46.811 2.926 20.48-14.629 35.109-29.257 46.811-52.663 49.737-81.92 146.286-81.92 198.949v134.583c0 52.663 96.549 134.583 190.171 134.583zM506.149 875.154c-119.954 0-242.834-99.474-242.834-187.246v-134.583c0-58.514 26.331-178.469 102.4-236.983 0 0-213.577-102.4-236.983-114.103s-52.663-23.406-52.663-52.663v-81.92c0-29.257 23.406-52.663 52.663-52.663h757.76c29.257 0 52.663 23.406 52.663 52.663v76.069c0 35.109-32.183 49.737-52.663 58.514-23.406 11.703-234.057 111.177-234.057 111.177 76.069 58.514 99.474 175.543 99.474 239.909v134.583c-5.851 87.771-128.731 187.246-245.76 187.246v0z" />
<glyph unicode="&#xe929;" glyph-name="phone" d="M-1.184 149.312l4.672 27.552 23.072 15.84c25.824 17.728 175.584 117.312 202.144 133.984l9.952 6.272 18.272 3.872 7.744 0.064c11.392 0 29.472-2.4 51.040-13.792 16.512-8.672 67.104-37.504 89.408-50.272 23.264 16.48 72.928 55.168 150.080 132.416 76.672 76.704 115.52 126.688 132.224 150.24-15.52 27.2-41.984 73.856-50.272 89.664-9.44 17.888-14.304 36.192-13.92 52.736l0.416 18.528 9.984 15.616c17.632 27.52 115.008 175.040 133.088 201.344l15.488 22.496 26.88 4.96c4.768 0.896 9.728 1.344 14.72 1.344 18.048 0 36.32-5.76 51.488-16.192l0.608-0.416 0.576-0.416c34.272-24.8 127.328-100.416 145.76-152l4.384-12.288-0.608-13.024c-8.096-174.176-176.384-377.472-316.096-517.312s-342.912-308.256-517.504-316.448l-13.504-0.64-12.64 4.704c-50.912 18.976-126.304 112.128-151.040 146.4l-0.672 0.928c-13.76 19.776-19.328 42.464-15.712 63.872z" />
<glyph unicode="&#xe92a;" glyph-name="phone-call" horiz-adv-x="1018" d="M206.049 885.073c3.122 0 3.122 0 0 0 18.732-24.976 115.512-168.585 131.122-193.561 0-3.122 0-9.366-6.244-18.732s-21.854-43.707-49.951-87.415l-18.732-34.341 21.854-31.22c15.61-24.976 56.195-74.927 137.366-156.098s131.122-121.756 156.098-137.366l31.22-21.854 34.341 18.732c34.341 18.732 74.927 40.585 87.415 49.951 9.366 6.244 18.732 6.244 18.732 6.244s0 0 0 0c24.976-15.61 168.585-112.39 193.561-128 0-3.122 0-9.366-3.122-15.61-40.585-56.195-96.78-112.39-118.634-118.634-115.512 6.244-280.976 109.268-462.049 290.341-177.951 174.829-280.976 340.293-284.098 455.805 9.366 21.854 65.561 78.049 118.634 118.634 3.122 3.122 9.366 3.122 12.488 3.122zM206.049 947.512c-15.61 0-34.341-6.244-49.951-15.61 0 0-146.732-106.146-146.732-168.585 6.244-168.585 171.707-368.39 309.073-505.756s337.171-302.829 508.878-309.073v0c59.317 0 165.463 143.61 165.463 146.732 28.098 40.585 18.732 81.171-6.244 99.902-15.61 9.366-181.073 121.756-202.927 134.244-9.366 6.244-18.732 9.366-31.22 9.366-15.61 0-31.22-3.122-49.951-12.488-15.61-9.366-65.561-37.463-87.415-49.951-21.854 15.61-68.683 53.073-146.732 131.122s-115.512 128-131.122 146.732c12.488 24.976 40.585 71.805 49.951 87.415 15.61 31.22 18.732 59.317 6.244 81.171-12.488 18.732-121.756 187.317-134.244 202.927s-31.22 21.854-53.073 21.854v0zM649.366 588.488c-12.488 12.488-12.488 31.22 0 43.707l302.829 302.829c12.488 12.488 31.22 12.488 43.707 0s12.488-31.22 0-43.707l-302.829-302.829c-12.488-12.488-34.341-12.488-43.707 0zM696.195 638.439h193.561c12.488 0 24.976-9.366 24.976-21.854v-15.61c0-12.488-9.366-21.854-21.854-21.854h-224.78c0 0 0 0 0 0h-12.488c-6.244 0-12.488 3.122-15.61 6.244s-6.244 9.366-6.244 15.61v12.488c0 0 0 0 0 0v224.78c0 12.488 9.366 18.732 21.854 21.854h15.61c12.488 0 21.854-9.366 21.854-21.854l3.122-199.805z" />
<glyph unicode="&#xe92b;" glyph-name="phone-outlined" horiz-adv-x="1018" d="M814.829 885.073c-3.122 0-3.122 0 0 0-18.732-24.976-115.512-168.585-131.122-193.561 0-3.122 0-9.366 6.244-18.732s21.854-43.707 49.951-87.415l18.732-34.341-21.854-31.22c-15.61-24.976-56.195-74.927-137.366-156.098s-131.122-121.756-156.098-137.366l-31.22-21.854-37.463 15.61c-34.341 18.732-74.927 40.585-87.415 49.951-9.366 6.244-18.732 6.244-18.732 6.244s0 0 0 0c-24.976-15.61-168.585-112.39-193.561-128 0-3.122 0-9.366 6.244-15.61 40.585-56.195 96.78-112.39 118.634-118.634 115.512 6.244 280.976 109.268 462.049 290.341s277.854 343.415 284.098 458.927c-9.366 21.854-65.561 78.049-118.634 118.634-3.122 3.122-9.366 3.122-12.488 3.122v0zM814.829 947.512c15.61 0 34.341-6.244 49.951-15.61 0 0 146.732-106.146 146.732-168.585-6.244-168.585-171.707-368.39-309.073-508.878-137.366-137.366-337.171-302.829-508.878-309.073v0c-59.317 0-165.463 143.61-165.463 146.732-28.098 40.585-18.732 81.171 6.244 99.902 15.61 9.366 181.073 121.756 202.927 134.244 9.366 6.244 18.732 9.366 31.22 9.366 15.61 0 31.22-3.122 49.951-12.488 15.61-9.366 65.561-37.463 87.415-49.951 21.854 15.61 68.683 53.073 146.732 131.122s115.512 128 131.122 146.732c-12.488 24.976-40.585 71.805-49.951 87.415-15.61 31.22-18.732 59.317-6.244 81.171 12.488 18.732 121.756 187.317 134.244 202.927s31.22 24.976 53.073 24.976v0 0z" />
<glyph unicode="&#xe92c;" glyph-name="plus" d="M944 541.92h-338.080v338.080h-187.84v-338.080h-338.080v-187.84h338.080v-338.080h187.84v338.080h338.080z" />
<glyph unicode="&#xe92d;" glyph-name="print" d="M835.936 854.4c0 31.808-25.664 57.6-57.312 57.6h-533.888c-31.648 0-57.312-25.76-57.312-57.6v-80.672h648.544v80.672zM966.688 706.208h-909.376c-31.648 0-57.312-25.792-57.312-57.6v-437.792c0-31.808 25.664-57.6 57.312-57.6h98.080v-79.552c0-49.504 40.064-89.728 89.312-89.728h533.888c49.248 0 89.312 40.256 89.312 89.728v79.552h98.752c31.648 0 57.312 25.76 57.312 57.6v437.792c0 31.808-25.664 57.6-57.312 57.6zM803.936 73.728c0-14.048-11.36-25.408-25.312-25.408h-533.888c-13.952 0-25.312 11.424-25.312 25.408v255.456h584.544v-255.456z" />
<glyph unicode="&#xe92e;" glyph-name="qa" horiz-adv-x="1018" d="M418.341 847.61c190.439 0 340.293-106.146 340.293-240.39 0-149.854-143.61-259.122-334.049-259.122 0 0-28.098 0-59.317 3.122l-34.341 3.122-40.585-34.341c-9.366-9.366-49.951-43.707-84.293-65.561 21.854 59.317 18.732 78.049 18.732 78.049l3.122 37.463-34.341 18.732c-87.415 43.707-124.878 137.366-124.878 218.537 3.122 131.122 159.22 240.39 349.659 240.39v0zM418.341 910.049c-224.78 0-408.976-137.366-408.976-305.951 0-106.146 53.073-218.537 159.22-271.61 0 0 0 0 0-3.122 0-46.829-37.463-109.268-53.073-134.244v0c0-3.122-3.122-6.244-3.122-9.366 0-12.488 9.366-21.854 21.854-21.854 3.122 0 6.244 0 6.244 0s0 0 0 0c81.171 12.488 196.683 103.024 215.415 124.878 18.732-3.122 31.22-3.122 43.707-3.122 6.244 0 12.488 0 21.854 0 224.78 0 399.61 128 396.488 318.439 3.122 168.585-174.829 305.951-399.61 305.951v0 0zM1008.39 351.22c0 84.293-34.341 149.854-115.512 196.683-3.122-21.854-9.366-46.829-15.61-68.683 53.073-37.463 68.683-74.927 68.683-131.122 0-68.683-31.22-115.512-103.024-152.976l-31.22-15.61c0 0 3.122-81.171 9.366-99.902-62.439 43.707-81.171 81.171-81.171 81.171l-34.341-6.244c-12.488-3.122-46.829-3.122-46.829-3.122-84.293 0-146.732 18.732-199.805 62.439 15.61 0-87.415 0-90.537 0 62.439-74.927 162.341-124.878 290.341-124.878 6.244 0 12.488 0 18.732 0 12.488 0 24.976 0 37.463 3.122 15.61-18.732 99.902-99.902 168.585-109.268 0 0 0 0 0 0s3.122 0 6.244 0c12.488 0 18.732 9.366 18.732 18.732 0 3.122 0 6.244-3.122 9.366v0c-12.488 21.854-34.341 87.415-34.341 128 0 0 0 0 0 3.122 93.659 49.951 137.366 118.634 137.366 209.171v0z" />
<glyph unicode="&#xe92f;" glyph-name="search" d="M997.856 72.832l-261.376 261.376c43.040 64.576 67.648 141.44 67.648 224.48 0 221.408-178.368 399.744-399.744 399.744s-399.744-178.368-399.744-399.744 178.368-399.744 399.744-399.744c83.040 0 159.904 24.608 224.48 67.648l261.376-261.376c30.752-30.752 76.864-30.752 107.616 0 27.68 27.68 27.68 76.864 0 107.616zM158.368 555.616c0 135.296 110.688 246.016 246.016 246.016s246.016-110.688 246.016-246.016c0-135.296-110.688-246.016-246.016-246.016s-246.016 110.688-246.016 246.016z" />
<glyph unicode="&#xe930;" glyph-name="share" d="M800 304c-42.24 0-81.216-17.952-108.64-49.664l-326.112 166.208c1.792 9.216 2.72 18.432 2.72 27.488 0 12.032-1.568 24-4.608 35.776l327.232 158.784c27.264-31.84 67.36-50.56 109.376-50.56 79.392 0 144 64.576 144 144s-64.576 144-144 144c-79.424 0-144-64.576-144-144 0-7.264 0.608-14.656 1.76-22.112l-334.112-162.144c-26.752 25.696-62.528 40.256-99.648 40.256-79.424 0-144-64.576-144-144s64.576-144 144-144c40.576 0 78.624 16.832 105.888 46.528l328.096-167.232c-1.312-7.84-1.984-15.648-1.984-23.328 0-79.424 64.576-144 144-144s144 64.576 144 144-64.576 144-144 144z" />
<glyph unicode="&#xe932;" glyph-name="sign-language" d="M313.6-64c-25.6 0-44.8 12.8-51.2 32-9.6 25.6 6.4 51.2 41.6 64 3.2 0 25.6 9.6 54.4 19.2-57.6-3.2-115.2-9.6-118.4-9.6v0c-44.8-3.2-57.6 22.4-60.8 38.4-6.4 28.8 12.8 51.2 44.8 57.6 3.2 0 35.2 6.4 76.8 16-57.6 0-102.4 0-105.6 0-28.8 0-54.4 16-57.6 48-3.2 28.8 16 51.2 48 54.4 6.4 0 54.4 6.4 108.8 12.8-38.4 9.6-67.2 9.6-70.4 9.6-25.6 3.2-60.8 19.2-60.8 54.4 0 32 22.4 54.4 60.8 57.6 12.8 0 281.6 0 316.8 0 0 0 0 0 3.2 0-3.2 3.2-3.2 3.2-6.4 6.4-6.4 6.4-73.6 64-89.6 99.2-16 38.4 9.6 70.4 25.6 80 6.4 6.4 16 3.2 22.4 0l294.4-204.8h147.2c9.6 0 19.2-9.6 19.2-19.2s-9.6-19.2-19.2-19.2h-153.6c-3.2 0-9.6 3.2-12.8 3.2l-284.8 198.4c-3.2-6.4-6.4-12.8-3.2-22.4 9.6-19.2 54.4-60.8 80-83.2 16-12.8 32-35.2 19.2-54.4s-35.2-22.4-38.4-22.4c0 0 0 0 0 0-121.6 0-307.2 0-316.8 0-22.4 0-22.4-12.8-22.4-16 0-12.8 22.4-16 22.4-16 6.4 0 240-22.4 252.8-22.4 9.6 0 19.2-9.6 19.2-19.2s-6.4-19.2-16-19.2c0 0-275.2-35.2-288-38.4s-12.8-6.4-12.8-12.8c0 0 0 0 0 0 0-9.6 12.8-9.6 16-9.6 6.4 0 249.6 0 297.6 0 9.6 0 19.2-6.4 19.2-19.2 0-9.6-6.4-19.2-16-22.4-3.2 0-252.8-54.4-262.4-57.6-16-3.2-16-9.6-12.8-12.8 0-3.2 0-6.4 16-6.4v0c9.6 0 259.2 19.2 259.2 19.2 9.6 0 19.2-6.4 22.4-16s-3.2-19.2-12.8-22.4c-6.4-3.2-179.2-67.2-185.6-70.4-3.2 0-16-6.4-16-12.8 3.2-6.4 22.4-3.2 22.4-3.2 3.2 0 195.2 38.4 297.6 57.6 0 0 0 0 0 0 54.4 6.4 147.2 32 163.2 67.2 3.2 3.2 6.4 9.6 9.6 9.6 3.2 3.2 12.8 3.2 12.8 3.2 12.8 0 86.4-3.2 131.2-3.2 9.6 0 19.2-9.6 19.2-22.4 0-9.6-9.6-19.2-22.4-19.2 0 0 0 0 0 0s-118.4 3.2-121.6 3.2c-41.6-57.6-169.6-76.8-185.6-80-19.2-3.2-294.4-54.4-297.6-57.6-9.6 3.2-16 3.2-22.4 3.2zM316.8 409.6c-3.2 0-3.2 0-6.4 0-6.4 3.2-166.4 57.6-182.4 64-41.6 16-57.6 41.6-48 70.4 9.6 32 44.8 35.2 76.8 28.8l41.6-9.6-86.4 48c-19.2 9.6-48 35.2-35.2 70.4 0 0 0 0 0 0 19.2 41.6 57.6 28.8 70.4 25.6 3.2 0 19.2-6.4 41.6-16l-57.6 41.6c-12.8 6.4-22.4 16-28.8 28.8-12.8 19.2-12.8 38.4 0 57.6 19.2 32 64 19.2 96 0l64-32c-22.4 19.2-38.4 35.2-44.8 38.4-32 25.6-38.4 57.6-19.2 83.2 22.4 28.8 54.4 25.6 80 9.6 0 0 9.6-6.4 25.6-16 140.8-96 220.8-147.2 240-156.8 0 0 3.2 0 3.2 3.2 0 6.4-3.2 22.4-6.4 38.4-3.2 25.6-9.6 57.6-12.8 89.6-3.2 28.8 6.4 48 12.8 57.6 16 22.4 48 25.6 51.2 25.6 9.6 0 16-3.2 19.2-12.8l144-345.6 92.8-60.8c9.6-6.4 12.8-19.2 6.4-28.8s-19.2-12.8-28.8-6.4l-96 64c-3.2 3.2-6.4 6.4-6.4 9.6l-140.8 336c-3.2-3.2-9.6-6.4-12.8-9.6-6.4-6.4-6.4-16-6.4-25.6 3.2-28.8 9.6-60.8 12.8-86.4 6.4-28.8 6.4-41.6 6.4-48 0-12.8-6.4-25.6-19.2-32-6.4-9.6-19.2-12.8-32-6.4-6.4 3.2-32 16-249.6 163.2-16 6.4-25.6 12.8-25.6 16 0 0-16 9.6-25.6 0-6.4-9.6 6.4-22.4 12.8-28.8 16-12.8 188.8-156.8 192-156.8 6.4-6.4 9.6-19.2 3.2-25.6-6.4-9.6-16-12.8-25.6-6.4l-233.6 115.2c0 0 0 0 0 0-16 12.8-38.4 19.2-41.6 12.8s-3.2-9.6 0-16c3.2-3.2 6.4-9.6 19.2-16l230.4-150.4c9.6-6.4 12.8-16 6.4-25.6s-16-12.8-25.6-9.6c-86.4 35.2-224 89.6-233.6 92.8-19.2 6.4-19.2 3.2-22.4 0-3.2-9.6 16-19.2 19.2-22.4 0 0 0 0 0 0l214.4-121.6c9.6-6.4 12.8-16 9.6-25.6s-12.8-16-22.4-12.8l-182.4 44.8c0 0 0 0 0 0-9.6 3.2-25.6 3.2-25.6 0s-3.2-9.6 25.6-22.4c12.8-6.4 134.4-48 179.2-64 9.6-3.2 16-16 12.8-25.6-9.6-6.4-16-12.8-25.6-12.8z" />
<glyph unicode="&#xe933;" glyph-name="speech" horiz-adv-x="1018" d="M945.951 885.073h-874.146c-34.341 0-62.439-28.098-62.439-62.439v-561.951c0-34.341 28.098-62.439 62.439-62.439h124.878v-156.098c0-12.488 6.244-24.976 18.732-28.098 3.122-3.122 9.366-3.122 12.488-3.122 9.366 0 15.61 3.122 21.854 9.366l181.073 177.951h515.122c34.341 0 62.439 28.098 62.439 62.439v561.951c0 34.341-28.098 62.439-62.439 62.439zM945.951 260.683h-543.22l-143.61-143.61v143.61h-187.317v561.951h874.146v-561.951zM227.902 572.878h561.951c18.732 0 31.22-12.488 31.22-31.22s-12.488-31.22-31.22-31.22h-561.951c-18.732 0-31.22 12.488-31.22 31.22s12.488 31.22 31.22 31.22zM227.902 697.756h561.951c18.732 0 31.22-12.488 31.22-31.22s-12.488-31.22-31.22-31.22h-561.951c-18.732 0-31.22 12.488-31.22 31.22s12.488 31.22 31.22 31.22zM227.902 448h374.634c18.732 0 31.22-12.488 31.22-31.22s-12.488-31.22-31.22-31.22h-374.634c-18.732 0-31.22 12.488-31.22 31.22 0 15.61 12.488 31.22 31.22 31.22z" />
<glyph unicode="&#xe934;" glyph-name="wallet" horiz-adv-x="1018" d="M1005.268 663.415c0 21.854-6.244 78.049-74.927 96.78l-696.195 140.488h-6.244c-49.951 0-93.659-40.585-93.659-93.659v-124.878h-31.22c-49.951 0-93.659-43.707-93.659-93.659v-499.512c0-49.951 40.585-93.659 93.659-93.659h811.707c49.951 0 93.659 40.585 93.659 93.659l-3.122 574.439zM193.561 807.024c0 15.61 12.488 28.098 28.098 31.22l689.951-140.488c0 0-6.244-18.732-31.22-15.61h-686.829v124.878zM945.951 88.976c0-18.732-12.488-31.22-31.22-31.22h-811.707c-18.732 0-31.22 12.488-31.22 31.22v499.512c0 15.61 12.488 31.22 31.22 31.22h780.488c31.22 0 62.439 9.366 62.439 31.22v-561.951zM259.122 338.732c0-34.484-27.955-62.439-62.439-62.439s-62.439 27.955-62.439 62.439c0 34.484 27.955 62.439 62.439 62.439s62.439-27.955 62.439-62.439z" />
<glyph unicode="&#xe935;" glyph-name="reload" d="M57.867 497.061c0-148.442 65.415-281.789 181.15-364.816 10.064-10.064 25.16-12.58 37.74-10.064s25.16 7.548 32.708 20.128c15.096 25.16 10.064 55.351-12.58 70.447-90.575 65.415-143.41 168.57-143.41 281.789 0 193.73 163.538 354.752 357.268 354.752 196.246 0 354.752-158.506 354.752-354.752 0-168.57-120.767-314.496-286.821-349.72l47.803 67.931c15.096 25.16 12.58 45.287-7.548 60.383-17.612 15.096-45.287 15.096-65.415-12.58l-103.155-145.926c-20.128-27.676-12.58-60.383 15.096-75.479 22.644-12.58 155.99-88.059 166.054-93.091 12.58-7.548 42.771-5.032 55.351 17.612 15.096 22.644 0 50.319-15.096 60.383-22.644 15.096-55.351 32.708-55.351 32.708 203.794 47.803 349.72 228.953 349.72 440.295 0 249.081-203.794 452.875-455.391 457.907-120.767 0-236.501-50.319-324.56-138.378v0c-88.059-90.575-130.83-201.278-128.314-319.528z" />
<glyph unicode="&#xe936;" glyph-name="recycle-bin" d="M499.953 71.529c15.059 0 30.118 12.047 30.118 27.106v439.718c0 15.059-15.059 27.106-30.118 27.106s-30.118-12.047-30.118-27.106v-439.718c0-15.059 15.059-27.106 30.118-27.106zM638.494 71.529c15.059 0 30.118 12.047 30.118 27.106l18.071 439.718c0 15.059-15.059 27.106-30.118 27.106s-30.118-12.047-30.118-27.106l-15.059-439.718c0-15.059 15.059-27.106 27.106-27.106zM361.412 71.529c15.059 0 30.118 12.047 27.106 27.106l-15.059 439.718c0 15.059-15.059 27.106-30.118 27.106s-30.118-12.047-27.106-27.106l18.071-439.718c0-15.059 15.059-27.106 27.106-27.106zM858.353 833.506h-150.588v45.176c0 45.176-33.129 75.294-78.306 75.294h-256c-45.176 0-78.306-27.106-78.306-72.282v-45.176h-147.576c-45.176 0-81.318-36.141-81.318-81.318v-12.047c0-45.176 30.118-84.329 75.294-84.329h3.012l30.118-581.271c3.012-72.282 66.259-129.506 138.541-129.506h373.459c72.282 0 135.529 54.212 138.541 129.506l30.118 581.271h3.012c54.212 0 84.329 33.129 84.329 78.306v15.059c3.012 45.176-39.153 81.318-84.329 81.318zM352.376 866.635c0 15.059 9.035 24.094 24.094 24.094h249.976c15.059 0 21.082-12.047 21.082-27.106v-33.129h-295.153v36.141zM771.012 80.565c-3.012-45.176-39.153-75.294-84.329-75.294h-373.459c-45.176 0-81.318 30.118-84.329 75.294l-30.118 575.247h602.353l-30.118-575.247zM885.459 743.153c0-15.059-12.047-27.106-27.106-27.106h-704.753c-15.059 0-27.106 12.047-27.106 27.106v3.012c0 15.059 12.047 27.106 27.106 27.106h704.753c15.059 0 27.106-12.047 27.106-27.106v-3.012z" />
<glyph unicode="&#xe937;" glyph-name="map-pin" d="M512 960c-192.512 0-348.608-157.184-348.608-351.072 0-193.92 348.608-672.928 348.608-672.928s348.608 479.008 348.608 672.928c0 193.888-156.096 351.072-348.608 351.072zM512 546.048c-36.096 0-65.376 29.28-65.376 65.376s29.248 65.376 65.376 65.376 65.376-29.248 65.376-65.376c0-36.128-29.28-65.376-65.376-65.376z" />
<glyph unicode="&#xe938;" glyph-name="eu" d="M102.4 185.976l12.047 39.153-33.129 24.094c-3.012 3.012-6.024 9.035-3.012 12.047 0 6.024 6.024 9.035 12.047 9.035h39.153l12.047 36.141c3.012 6.024 6.024 9.035 12.047 9.035s9.035-3.012 12.047-9.035l12.047-36.141h39.153c3.012 0 9.035-3.012 9.035-9.035s0-9.035-3.012-12.047l-33.129-24.094 12.047-39.153c0-6.024 0-9.035-3.012-12.047s-9.035-3.012-12.047 0l-33.129 24.094-33.129-24.094c-3.012-3.012-9.035-3.012-12.047 0-6.024 3.012-6.024 9.035-6.024 12.047zM376.471 113.694c3.012-6.024 0-9.035-3.012-12.047l-33.129-24.094 12.047-39.153c0-6.024 0-9.035-3.012-12.047s-9.035-3.012-12.047 0l-33.129 24.094-36.141-24.094c-3.012-3.012-9.035-3.012-12.047 0s-6.024 9.035-3.012 12.047l12.047 39.153-33.129 24.094c-3.012 3.012-6.024 9.035-3.012 12.047 0 6.024 6.024 9.035 12.047 9.035h39.153l12.047 36.141c3.012 6.024 6.024 9.035 12.047 9.035s9.035-3.012 12.047-9.035l12.047-36.141h39.153c3.012-3.012 6.024-6.024 9.035-9.035zM505.976-3.765l-33.129-24.094c-3.012-3.012-9.035-3.012-12.047 0s-6.024 9.035-3.012 12.047l12.047 39.153-33.129 24.094c-3.012 3.012-6.024 9.035-3.012 12.047 0 6.024 6.024 9.035 12.047 9.035h39.153l12.047 36.141c3.012 6.024 6.024 9.035 12.047 9.035s9.035-3.012 12.047-9.035l12.047-36.141h39.153c6.024 0 9.035-3.012 12.047-9.035 0-6.024 0-9.035-3.012-12.047l-33.129-24.094 12.047-39.153c0-6.024 0-9.035-3.012-12.047s-9.035-3.012-12.047 0l-39.153 24.094zM671.624 77.553l-33.129 24.094c-3.012 3.012-6.024 9.035-3.012 12.047 0 6.024 6.024 9.035 12.047 9.035h39.153l12.047 36.141c3.012 6.024 6.024 9.035 12.047 9.035s9.035-3.012 12.047-9.035l12.047-36.141h39.153c6.024 0 9.035-3.012 12.047-9.035 0-6.024 0-9.035-3.012-12.047l-33.129-24.094 12.047-39.153c0-6.024 0-9.035-3.012-12.047s-9.035-3.012-12.047 0l-33.129 24.094-36.141-24.094c-3.012-3.012-9.035-3.012-12.047 0s-6.024 9.035-3.012 12.047l9.035 39.153zM819.2 225.129l-33.129 24.094c-3.012 3.012-6.024 9.035-3.012 12.047 0 6.024 6.024 9.035 12.047 9.035h39.153l12.047 36.141c3.012 6.024 6.024 9.035 12.047 9.035s9.035-3.012 12.047-9.035l12.047-36.141h39.153c6.024 0 9.035-3.012 12.047-9.035s0-9.035-3.012-12.047l-33.129-24.094 12.047-39.153c0-6.024 0-9.035-3.012-12.047s-9.035-3.012-12.047 0l-36.141 24.094-33.129-24.094c-3.012-3.012-9.035-3.012-12.047 0s-6.024 9.035-3.012 12.047l9.035 39.153zM873.412 429.929l-33.129 24.094c-3.012 3.012-6.024 9.035-3.012 12.047 3.012 6.024 6.024 9.035 12.047 9.035h39.153l12.047 36.141c3.012 6.024 6.024 9.035 12.047 9.035s9.035-3.012 12.047-9.035l12.047-36.141h39.153c6.024 0 9.035-3.012 12.047-9.035 0-6.024 0-9.035-3.012-12.047l-33.129-24.094 12.047-39.153c0-6.024 0-9.035-3.012-12.047s-9.035-3.012-12.047 0l-33.129 24.094-33.129-24.094c-3.012-3.012-9.035-3.012-12.047 0s-6.024 9.035-3.012 12.047l6.024 39.153zM819.2 634.729l-30.118 24.094c-3.012 3.012-6.024 9.035-3.012 12.047 0 6.024 6.024 9.035 12.047 9.035h39.153l12.047 39.153c3.012 6.024 6.024 9.035 12.047 9.035s9.035-3.012 12.047-9.035l12.047-36.141h39.153c6.024 0 9.035-3.012 12.047-9.035s0-9.035-3.012-12.047l-33.129-24.094 12.047-39.153c0-6.024 0-9.035-3.012-12.047s-9.035-3.012-12.047 0l-39.153 21.082-33.129-24.094c-3.012-3.012-9.035-3.012-12.047 0s-6.024 9.035-3.012 12.047l9.035 39.153zM671.624 782.306l-33.129 24.094c-3.012 3.012-6.024 9.035-3.012 12.047 0 6.024 6.024 9.035 12.047 9.035h39.153l12.047 36.141c3.012 6.024 6.024 9.035 12.047 9.035s9.035-3.012 12.047-9.035l12.047-36.141h39.153c6.024 0 9.035-3.012 12.047-9.035s0-9.035-3.012-12.047l-33.129-24.094 12.047-39.153c0-6.024 0-9.035-3.012-12.047s-9.035-3.012-12.047 0l-33.129 24.094-36.141-24.094c-3.012-3.012-9.035-3.012-12.047 0s-6.024 9.035-3.012 12.047l9.035 39.153zM436.706 860.612c-3.012 3.012-6.024 9.035-3.012 12.047 0 6.024 6.024 9.035 12.047 9.035h39.153l12.047 36.141c3.012 6.024 6.024 9.035 12.047 9.035s9.035-3.012 12.047-9.035l12.047-36.141h39.153c6.024 0 9.035-3.012 12.047-9.035 0-6.024 0-9.035-3.012-12.047l-33.129-24.094 9.035-36.141c0-6.024 0-9.035-3.012-12.047s-9.035-3.012-12.047 0l-36.141 21.082-33.129-24.094c-3.012-3.012-9.035-3.012-12.047 0s-6.024 9.035-3.012 12.047l9.035 39.153-30.118 24.094zM376.471 818.447c0-3.012 0-9.035-3.012-12.047l-33.129-24.094 12.047-39.153c0-6.024 0-9.035-3.012-12.047s-9.035-3.012-12.047 0l-36.141 24.094-33.129-24.094c-3.012 0-9.035 0-12.047 0-3.012 3.012-6.024 9.035-3.012 15.059l12.047 39.153-33.129 21.082c-3.012 3.012-6.024 9.035-3.012 12.047 0 6.024 6.024 9.035 12.047 9.035h39.153l12.047 36.141c0 6.024 6.024 9.035 9.035 9.035s9.035-3.012 12.047-6.024l12.047-36.141h39.153c6.024-3.012 9.035-6.024 12.047-12.047zM102.4 595.576l12.047 39.153-33.129 24.094c-3.012 3.012-3.012 9.035-3.012 12.047 0 6.024 6.024 9.035 12.047 9.035h39.153l12.047 39.153c3.012 6.024 6.024 9.035 12.047 9.035s9.035-3.012 12.047-9.035l12.047-36.141h39.153c3.012-3.012 9.035-6.024 9.035-12.047s0-9.035-3.012-12.047l-33.129-24.094 12.047-39.153c0-6.024 0-9.035-3.012-12.047s-9.035-3.012-12.047 0l-33.129 24.094-33.129-24.094c-3.012-3.012-9.035-3.012-12.047 0-6.024 3.012-6.024 9.035-6.024 12.047zM60.235 429.929l-33.129 24.094c-3.012 3.012-6.024 9.035-3.012 12.047 0 6.024 6.024 9.035 12.047 9.035h39.153l12.047 36.141c0 6.024 6.024 9.035 12.047 9.035s9.035-3.012 12.047-9.035l12.047-36.141h39.153c6.024 0 9.035-3.012 12.047-9.035s0-9.035-3.012-12.047l-33.129-24.094 12.047-39.153c0-6.024 0-9.035-3.012-12.047s-9.035-3.012-12.047 0l-33.129 24.094-33.129-24.094c-3.012-3.012-9.035-3.012-12.047 0s-6.024 9.035-3.012 12.047l6.024 39.153z" />
</font>
</defs>
</svg>
