<?xml version="1.0" encoding="utf-8"?>
<!-- Generator: Adobe Illustrator 16.0.0, SVG Export Plug-In . SVG Version: 6.00 Build 0)  -->
<!DOCTYPE svg PUBLIC "-//W3C//DTD SVG 1.1//EN" "http://www.w3.org/Graphics/SVG/1.1/DTD/svg11.dtd">
<svg version="1.1" id="Lager_1" xmlns="http://www.w3.org/2000/svg" xmlns:xlink="http://www.w3.org/1999/xlink" x="0px" y="0px"
	 viewBox="0 0 71.518 71.518" enable-background="new 0 0 71.518 71.518" xml:space="preserve">
<g>
	<circle fill="#E6007E" cx="22.207" cy="68.244" r="2.865"/>
	<path fill="#B0CB0B" d="M59.182,26.149c1.294-2.013,2.003-4.425,2.003-6.994c0-7.303-5.92-13.224-13.225-13.224
		c-1.799,0-3.508,0.371-5.074,1.012c-0.673,0.275-1.12-0.086-1.29-0.305c-3.146-4.041-8.052-6.642-13.569-6.642
		c-9.494,0-17.19,7.696-17.19,17.191c0,3.08,0.813,5.97,2.232,8.47c0.111,0.196,0.295,0.655-0.16,1.149
		c-2.401,2.602-3.677,6.191-3.678,10.008c0,8.544,6.927,15.47,15.471,15.47c4.036,0,7.691-1.566,10.463-4.078
		c0.546-0.494,1.027-0.145,1.253,0.061c2.748,2.496,6.394,4.018,10.397,4.018c8.545,0,15.471-6.926,15.471-15.47
		c0-3.48-1.149-6.69-3.089-9.275C59.032,27.32,58.751,26.819,59.182,26.149z"/>
	<g>
		<path fill="#994916" d="M50.328,54.273h-3.801l-0.446-2.005c-0.289-0.014-0.575-0.037-0.86-0.066l4.225,18.997
			c0.043,0.192,0.213,0.323,0.402,0.323c0.029,0,0.06-0.004,0.09-0.01c0.223-0.05,0.363-0.27,0.313-0.492l-0.576-2.596h3.801
			l0.617,2.774c0.042,0.192,0.213,0.323,0.402,0.323c0.029,0,0.06-0.004,0.09-0.01c0.223-0.05,0.363-0.27,0.313-0.492l-4.271-19.208
			c-0.266,0.067-0.534,0.126-0.806,0.18L50.328,54.273z M53.291,67.599H49.49l-0.557-2.506h3.801L53.291,67.599z M52.55,64.268
			h-3.802l-0.558-2.506h3.802L52.55,64.268z M51.808,60.936h-3.8l-0.558-2.506h3.801L51.808,60.936z M51.068,57.604h-3.801
			l-0.557-2.506h3.801L51.068,57.604z"/>
		<path fill="#994916" d="M35.166,48.208c-0.956,0.867-2.02,1.617-3.166,2.233c0,1.913,0,3.724,0,3.966
			c0,0.537-0.412,0.559-0.792,0.179c-0.961-0.962-1.88-1.892-2.738-2.77c-0.851,0.216-1.73,0.357-2.631,0.424
			c1.461,1.503,3.106,3.179,4.78,4.853C31.801,58.274,32,59.375,32,61.399c0,0,0,8.951,0,9.265s0.174,0.445,0.467,0.445
			s7.615,0,8.04,0s0.467-0.26,0.467-0.495c0-0.234,0-4.612,0-4.612c0-2.022,0.205-2.703,1.38-3.892
			c1.541-1.557,2.642-2.613,3.115-3.064c0.167-0.158,0.182-0.326,0.062-0.446c-0.345-0.349-1.023-1.036-1.115-1.144
			c-0.122-0.143-0.292-0.127-0.433,0.008c-0.429,0.412-1.393,1.342-2.218,2.141c-0.386,0.373-0.792,0.357-0.792-0.18
			c0-0.3,0-4.572,0-8.284c-1.687-0.69-3.226-1.666-4.554-2.872C36.192,48.063,35.711,47.713,35.166,48.208z"/>
	</g>
	<circle fill="#E6007E" cx="52.583" cy="43.563" r="2.865"/>
	<circle fill="#E6007E" cx="20.433" cy="41.969" r="2.865"/>
	<circle fill="#E6007E" cx="19.329" cy="18.854" r="2.865"/>
	<circle fill="#E6007E" cx="37.039" cy="22.082" r="2.865"/>
	<circle fill="#E6007E" cx="50.48" cy="15.539" r="2.866"/>
	<circle fill="#E6007E" cx="28.523" cy="8.798" r="2.865"/>
	<circle fill="#E6007E" cx="25.75" cy="30.526" r="2.865"/>
	<circle fill="#E6007E" cx="48.595" cy="30.758" r="2.865"/>
	<circle fill="#E6007E" cx="38.34" cy="39.166" r="2.865"/>
</g>
</svg>
