<?xml version="1.0" encoding="utf-8"?>
<!-- Generator: Adobe Illustrator 16.0.0, SVG Export Plug-In . SVG Version: 6.00 Build 0)  -->
<!DOCTYPE svg PUBLIC "-//W3C//DTD SVG 1.1//EN" "http://www.w3.org/Graphics/SVG/1.1/DTD/svg11.dtd">
<svg version="1.1" id="Lager_1" xmlns="http://www.w3.org/2000/svg" xmlns:xlink="http://www.w3.org/1999/xlink" x="0px" y="0px"
	 viewBox="0 0 71.121 71.121" enable-background="new 0 0 71.121 71.121" xml:space="preserve">
<g>
	<circle fill="#E6007E" cx="22.008" cy="68.252" r="2.865"/>
	<path fill="#B0CB0B" d="M58.983,26.157c1.294-2.013,2.004-4.425,2.004-6.994c0-7.304-5.922-13.224-13.225-13.224
		c-1.799,0-3.508,0.371-5.074,1.011c-0.674,0.276-1.121-0.086-1.291-0.304c-3.145-4.041-8.052-6.642-13.569-6.642
		c-9.493,0-17.19,7.696-17.19,17.191c0,3.081,0.812,5.97,2.232,8.47c0.111,0.197,0.295,0.656-0.161,1.15
		c-2.401,2.602-3.677,6.19-3.677,10.008c0,8.544,6.927,15.47,15.471,15.47c4.037,0,7.691-1.566,10.463-4.078
		c0.546-0.494,1.026-0.145,1.253,0.061c2.747,2.496,6.394,4.018,10.397,4.018c8.544,0,15.472-6.926,15.472-15.47
		c0-3.479-1.15-6.689-3.09-9.274C58.833,27.328,58.553,26.827,58.983,26.157z"/>
	<g>
		<path fill="#994916" d="M34.967,48.215c-0.956,0.867-2.02,1.617-3.167,2.234c0,1.913,0,3.723,0,3.965
			c0,0.537-0.412,0.559-0.791,0.18c-0.961-0.963-1.88-1.893-2.738-2.77c-0.851,0.215-1.73,0.357-2.631,0.424
			c1.461,1.502,3.107,3.178,4.78,4.852c1.182,1.183,1.381,2.283,1.381,4.307c0,0,0,8.951,0,9.265s0.174,0.446,0.467,0.446
			c0.293,0,7.614,0,8.039,0s0.468-0.26,0.468-0.496c0-0.234,0-4.611,0-4.611c0-2.023,0.204-2.703,1.381-3.893
			c1.54-1.557,2.641-2.613,3.115-3.064c0.166-0.158,0.18-0.325,0.061-0.446c-0.344-0.348-1.023-1.036-1.115-1.143
			c-0.123-0.144-0.293-0.128-0.433,0.007c-0.429,0.413-1.392,1.342-2.218,2.141c-0.387,0.374-0.791,0.357-0.791-0.18
			c0-0.299,0-4.572,0-8.284c-1.688-0.689-3.227-1.665-4.555-2.872C35.993,48.07,35.513,47.721,34.967,48.215z"/>
	</g>
	<circle fill="#E6007E" cx="20.234" cy="41.977" r="2.865"/>
	<circle fill="#E6007E" cx="19.13" cy="18.861" r="2.865"/>
	<circle fill="#E6007E" cx="52.384" cy="43.57" r="2.865"/>
	<circle fill="#E6007E" cx="36.841" cy="22.089" r="2.865"/>
	<circle fill="#E6007E" cx="50.282" cy="15.546" r="2.865"/>
	<circle fill="#E6007E" cx="28.325" cy="8.806" r="2.865"/>
	<circle fill="#E6007E" cx="25.551" cy="30.534" r="2.866"/>
	<circle fill="#E6007E" cx="48.396" cy="30.766" r="2.865"/>
	<circle fill="#E6007E" cx="38.142" cy="39.173" r="2.865"/>
</g>
</svg>
