<?xml version="1.0" encoding="utf-8"?>
<!-- Generator: Adobe Illustrator 16.0.0, SVG Export Plug-In . SVG Version: 6.00 Build 0)  -->
<!DOCTYPE svg PUBLIC "-//W3C//DTD SVG 1.1//EN" "http://www.w3.org/Graphics/SVG/1.1/DTD/svg11.dtd">
<svg version="1.1" id="Lager_1" xmlns="http://www.w3.org/2000/svg" xmlns:xlink="http://www.w3.org/1999/xlink" x="0px" y="0px"
	 viewBox="0 0 71.121 71.122" enable-background="new 0 0 71.121 71.122" xml:space="preserve">
<g>
	<circle fill="#E6007E" cx="22.008" cy="68.251" r="2.865"/>
	<path fill="#B0CB0B" d="M58.983,26.157c1.293-2.013,2.004-4.425,2.004-6.994c0-7.304-5.922-13.224-13.225-13.224
		c-1.799,0-3.508,0.371-5.074,1.011c-0.674,0.276-1.121-0.086-1.291-0.304c-3.146-4.041-8.052-6.642-13.568-6.642
		c-9.494,0-17.19,7.696-17.19,17.191c0,3.081,0.813,5.97,2.231,8.47c0.112,0.197,0.296,0.656-0.16,1.15
		c-2.401,2.602-3.677,6.19-3.678,10.008c0,8.543,6.928,15.47,15.472,15.47c4.036,0,7.691-1.567,10.463-4.078
		c0.546-0.495,1.026-0.146,1.253,0.06c2.747,2.496,6.394,4.019,10.398,4.019c8.543,0,15.471-6.927,15.471-15.47
		c0-3.48-1.15-6.69-3.09-9.275C58.833,27.328,58.554,26.827,58.983,26.157z"/>
	<circle fill="#E6007E" cx="52.385" cy="43.57" r="2.866"/>
	<circle fill="#E6007E" cx="20.235" cy="41.976" r="2.865"/>
	<circle fill="#E6007E" cx="19.13" cy="18.861" r="2.865"/>
	<circle fill="#E6007E" cx="36.84" cy="22.09" r="2.865"/>
	<circle fill="#E6007E" cx="50.282" cy="15.547" r="2.865"/>
	<circle fill="#E6007E" cx="28.325" cy="8.807" r="2.866"/>
	<circle fill="#E6007E" cx="25.551" cy="30.535" r="2.865"/>
	<circle fill="#E6007E" cx="48.396" cy="30.766" r="2.865"/>
	<circle fill="#E6007E" cx="38.142" cy="39.173" r="2.865"/>
	<g>
		<path fill="#994916" d="M50.772,51.725V66.55h-3.66v-14.27c-0.164,0.006-0.328,0.014-0.494,0.014
			c-0.043,0-0.084-0.003-0.127-0.004v14.26h-0.52c-0.342,0-0.619,0.277-0.619,0.619c0,0.343,0.277,0.619,0.619,0.619h5.811
			c0.342,0,0.619-0.276,0.619-0.619c0-0.342-0.277-0.619-0.619-0.619h-0.389V51.539C51.188,51.605,50.981,51.667,50.772,51.725z"/>
		<path fill="#994916" d="M34.967,48.216c-0.956,0.866-2.021,1.617-3.167,2.232c0,1.914,0,3.724,0,3.966
			c0,0.537-0.411,0.559-0.791,0.179c-0.961-0.961-1.88-1.893-2.737-2.77c-0.852,0.216-1.73,0.357-2.632,0.424
			c1.461,1.502,3.106,3.18,4.779,4.853c1.183,1.183,1.381,2.284,1.381,4.308c0,0,0,8.951,0,9.264c0,0.313,0.174,0.445,0.468,0.445
			c0.293,0,7.614,0,8.039,0s0.468-0.26,0.468-0.494c0-0.235,0-4.613,0-4.613c0-2.022,0.204-2.703,1.38-3.891
			c1.539-1.557,2.641-2.614,3.115-3.064c0.166-0.158,0.18-0.326,0.061-0.447c-0.344-0.348-1.023-1.036-1.115-1.143
			c-0.123-0.144-0.293-0.128-0.432,0.006c-0.43,0.414-1.393,1.343-2.219,2.142c-0.385,0.374-0.791,0.357-0.791-0.18
			c0-0.3,0-4.571,0-8.284c-1.688-0.689-3.227-1.666-4.555-2.872C35.994,48.071,35.513,47.721,34.967,48.216z"/>
	</g>
</g>
</svg>
