<?xml version="1.0" encoding="utf-8"?>
<!-- Generator: Adobe Illustrator 16.0.0, SVG Export Plug-In . SVG Version: 6.00 Build 0)  -->
<!DOCTYPE svg PUBLIC "-//W3C//DTD SVG 1.1//EN" "http://www.w3.org/Graphics/SVG/1.1/DTD/svg11.dtd">
<svg version="1.1" id="Lager_1" xmlns="http://www.w3.org/2000/svg" xmlns:xlink="http://www.w3.org/1999/xlink" x="0px" y="0px"
	 viewBox="0 0 800 800" enable-background="new 0 0 800 800" xml:space="preserve">
<g>
	<path fill="#E6007E" d="M777.747,353.041c-3.312-8.191-12.896-26.141-22.208-38.166c-8.863-11.427-20.838-15.211-31.245-15.211
		c-10.456,0-20.265,3.286-27.733,9.485c-6.598,5.452-13.295,14.913-15.138,16.954c-13.792,15.336-36.148,26.988-89.028,26.988
		c-18.946,0-50.29,0-85.17,0c-7.618,0-18.273-4.357-10.481-21.585c12.598-27.834,21.71-58.064,21.71-90.716
		c0-110.489-89.552-200.066-200.06-200.066c-110.501,0-200.066,89.577-200.066,200.066c0,42.983,13.55,82.799,36.647,115.388
		c6.747,9.56,18.305,25.668-4.289,34.954c-67.039,27.561-115.126,92.315-115.126,169.17c0,56.341,26.085,106.133,65.844,140.017
		c22.923,19.544,64.157,37.345,83.62,41.851c45.921,10.605,95.626,16.605,166.904,16.605c81.777,0,150.342,3.485,205.038-7.917
		c137.478-24.124,241.967-144.024,241.967-288.422C798.934,423.746,791.415,386.825,777.747,353.041z"/>
	<g>
		<path fill="#009FE4" d="M129.992,173.434c-1.208,3.037-2.415,6.261-3.591,9.709c-14.645,42.934-65.863,45.373-96.037,37.431
			c-4.413-1.182-11.191-3.896-17.95-1.307c-10.357,3.971-14.296,17.826-8.994,31.73c7.183,18.822,25.176,41.626,62.987,54.566
			c45.84,15.709,64.462,14.664,76.282,30.672c-15.467-28.381-24.361-60.853-24.361-95.446
			C118.328,217.151,122.46,194.483,129.992,173.434z"/>
	</g>
	<path fill="#0A4682" d="M252.556,223.089c0,17.614-14.272,31.88-31.898,31.88c-17.614,0-31.892-14.266-31.892-31.88
		c0-17.626,14.278-31.892,31.892-31.892C238.284,191.197,252.556,205.462,252.556,223.089z"/>
</g>
</svg>
