<?xml version="1.0" encoding="utf-8"?>
<!-- Generator: Adobe Illustrator 16.0.0, SVG Export Plug-In . SVG Version: 6.00 Build 0)  -->
<!DOCTYPE svg PUBLIC "-//W3C//DTD SVG 1.1//EN" "http://www.w3.org/Graphics/SVG/1.1/DTD/svg11.dtd">
<svg version="1.1" id="Lager_1" xmlns="http://www.w3.org/2000/svg" xmlns:xlink="http://www.w3.org/1999/xlink" x="0px" y="0px"
	 viewBox="0 0 119.055 119.055" enable-background="new 0 0 119.055 119.055"
	 xml:space="preserve">
<path fill="#B0CB0B" d="M102.336,46.736c-0.109-4.446-0.706-8.64-1.951-12.646c-2.804-9.029-8.522-16.774-16.056-22.136
	C77.35,6.986,68.813,4.065,59.594,4.065c-9.244,0-17.795,2.947-24.785,7.938c-7.425,5.303-13.082,12.917-15.91,21.799
	c-0.783,2.458-1.342,5.014-1.669,7.642c-0.337,2.443-0.518,4.961-0.518,7.548c0,31.052,28.476,54.814,40.192,59.853
	c0.47,0.236,0.463,0.824,0.198,1.09l-1.635,1.762c-1.215,1.215-0.354,3.293,1.363,3.293h5.781c1.693,0,2.542-2.049,1.345-3.246
	l-1.616-1.809c-0.326-0.336-0.226-0.889,0.204-1.076l0,0c0.07-0.041,0.343-0.15,0.349-0.154
	c11.166-4.537,39.044-29.018,39.446-60.053C102.348,48.033,102.336,46.744,102.336,46.736z"/>
</svg>
