<?xml version="1.0" encoding="utf-8"?>
<!-- Generator: Adobe Illustrator 16.0.0, SVG Export Plug-In . SVG Version: 6.00 Build 0)  -->
<!DOCTYPE svg PUBLIC "-//W3C//DTD SVG 1.1//EN" "http://www.w3.org/Graphics/SVG/1.1/DTD/svg11.dtd">
<svg version="1.1" id="Lager_1" xmlns="http://www.w3.org/2000/svg" xmlns:xlink="http://www.w3.org/1999/xlink" x="0px" y="0px"
	 viewBox="0 0 100.091 100.091" enable-background="new 0 0 100.091 100.091"
	 xml:space="preserve">
<g>
	<path fill="#1E6E32" d="M97.611,46.475H86.753c-1.361,0-2.717,1.087-3.014,2.416l-1.402,6.291L2.427,50.153
		c0.712,1.075,1.44,2.092,2.183,3.053l77.527,4.878c0.236,0.863,0.754,1.675,1.439,2.137l2.277,1.534
		c1.129,0.761,3.102,1.012,4.387,0.559l7.512-2.652c1.285-0.453,2.334-1.938,2.334-3.299V48.95
		C100.085,47.589,98.972,46.475,97.611,46.475z"/>
	<path fill="#7DC8F0" d="M88.255,51.924c0,0-15.475-1.193-33.388-2.576l0.146-4.347l2.885-1.134l0.725,1.845
		c0.146,0.372,0.496,0.603,0.871,0.615c0.129,0.004,0.26-0.018,0.387-0.067c0.498-0.195,0.744-0.759,0.549-1.257l-2.16-5.496
		c-0.195-0.498-0.758-0.744-1.258-0.548c-0.498,0.196-0.744,0.759-0.547,1.257l0.725,1.846l-2.106,0.828l0.37-11.048
		c0.037-1.097-0.61-1.403-1.435-0.68l-8.874,7.768c-0.826,0.724-1.532,2.212-1.569,3.31l-0.207,6.22
		c-1.221-0.094-2.439-0.188-3.653-0.282c-0.365-0.028-0.604-0.036-1.096-0.085c-2.048-0.204-2.565-1.319-3.04-2.233
		c-0.553-1.064-1.704-3.278-4.896-3.644c0,0-14.087-1.055-14.578-1.119s-0.605-0.381-0.691-0.555
		c-1.486-3.01-3.037-6.147-3.672-7.418c-0.862-1.725-2.465-2.642-3.987-2.282c-1.787,0.422-2.425,2.279-2.425,3.877v10.796
		c-2.574-0.2-4.127-0.322-4.297-0.338c-1.33-0.123-1.083,0.887-0.807,1.378c0.714,1.268,1.449,2.466,2.202,3.6l88.514,5.569
		l0.012-0.839C90.976,53.372,89.763,52.04,88.255,51.924z M15.568,46.31l-7.753-0.602c-0.301-0.023-0.548-0.29-0.548-0.593v-9.847
		v-0.551c0-1.091,0.357-1.854,0.932-1.989c0.505-0.119,1.287,0.224,1.806,1.262c0.022,0.044,0.047,0.094,0.07,0.142
		c1.158,2.321,5.799,11.727,5.799,11.727C16.008,46.13,15.87,46.332,15.568,46.31z M24.804,47.024l-5.891-0.456
		c-0.301-0.023-0.657-0.265-0.791-0.535l-1.211-2.455c-0.134-0.271,0.003-0.475,0.305-0.452l5.887,0.452
		c0.302,0.022,0.658,0.264,0.792,0.534l1.215,2.461C25.242,46.845,25.105,47.048,24.804,47.024z M33.911,47.729L33.911,47.729
		l-5.762-0.445h-0.001c-0.302-0.024-0.657-0.265-0.791-0.536l-1.119-2.267l-0.096-0.195c-0.134-0.271,0.003-0.474,0.305-0.451
		l1.742,0.134l1.741,0.134l0.548,0.042c1.988,0.233,2.759,1.417,3.378,2.609c0.035,0.066,0.066,0.127,0.098,0.182
		c0.056,0.104,0.114,0.205,0.174,0.307c0.024,0.042,0.038,0.064,0.038,0.064c0.011,0.016,0.017,0.03,0.024,0.046
		C34.31,47.583,34.194,47.75,33.911,47.729z"/>
	<path fill="#7DC8F0" d="M37.606,69.327c10.628,0,50.37,0,50.37,0c1.514,0,2.77-1.238,2.793-2.749l0.125-7.943L4.609,53.206
		C15.214,66.938,28.541,69.327,37.606,69.327z"/>
</g>
</svg>
