<?xml version="1.0" encoding="utf-8"?>
<!-- Generator: Adobe Illustrator 16.0.0, SVG Export Plug-In . SVG Version: 6.00 Build 0)  -->
<!DOCTYPE svg PUBLIC "-//W3C//DTD SVG 1.1//EN" "http://www.w3.org/Graphics/SVG/1.1/DTD/svg11.dtd">
<svg version="1.1" id="Lager_1" xmlns="http://www.w3.org/2000/svg" xmlns:xlink="http://www.w3.org/1999/xlink" x="0px" y="0px"
	 viewBox="0 0 62.362 62.362" enable-background="new 0 0 62.362 62.362" xml:space="preserve">
<g>
	<path fill="#009FE4" d="M48.705,6.67H35.008h-2.064c-1.707,0-4.209,0.849-5.56,1.889l-7.529,5.781l-5.889,4.524
		c0,0.001-0.002,0.002-0.002,0.002l-1.638,1.257c-1.354,1.038-2.459,3.285-2.459,4.989v2.064v13.429c0,0.617,0,1.32,0,2.068
		c0,1.956,0,4.24,0,6.199c0,0.747,0,1.451,0,2.066v2.428c0,2.84,2.325,5.166,5.166,5.166h33.671c2.841,0,5.167-2.326,5.167-5.166
		v-2.428c0-0.615,0-1.319,0-2.066c0-1.959,0-4.243,0-6.199c0-0.748,0-1.451,0-2.068v-16.01c0-0.616,0-1.317,0-2.065
		c0-1.958,0-4.242,0-6.2c0-0.75,0-1.453,0-2.067v-2.426C53.872,8.994,51.545,6.67,48.705,6.67z"/>
	<g>
		<path fill="#009FE4" d="M17.713,4.297l-8.337,6.404c-0.992,0.762-1.18,2.197-0.418,3.188l1.627,2.12
			c0.762,0.991,2.195,1.18,3.188,0.418l8.338-6.404c0.989-0.763,1.179-2.197,0.417-3.188l-1.628-2.12
			C20.14,3.725,18.705,3.536,17.713,4.297z"/>
	</g>
	<path fill="#FFFFFF" d="M47.979,12.31c0-1.272-1.223-1.778-2.443-1.778H35.22c-2.813,0-4.483,0.755-4.483,3.426
		c0,0.878,0,1.396,0,2.048c0,2.391,1.592,3.338,3.635,2.763c4.403-1.235,9.517-3.242,11.735-4.189
		C47.805,13.856,47.979,13.132,47.979,12.31z"/>
	<path fill="#7DC8F0" d="M44.502,47.198c-0.002,0-0.002,0-0.002,0l-3.336-3.338l-0.26-0.259c-0.202-0.203-0.365-0.599-0.365-0.882
		v-1.236v-0.518v-0.517v-6.513v-0.518v-0.518v-1.234c0-0.284,0.163-0.682,0.365-0.883l0.26-0.26l3.336-3.335
		c0,0,0-0.001,0.002-0.001l0.364-0.363c0.661-0.662,0.7-1.703,0.132-2.418c-0.039-0.055-0.081-0.111-0.132-0.16
		c-0.052-0.051-0.105-0.093-0.163-0.132c-0.714-0.568-1.753-0.529-2.415,0.132l-2.126,2.124l-1.759,1.76
		c-0.201,0.201-0.6,0.364-0.885,0.364h-1.388h-0.514h-0.519h-6.514h-0.514h-0.52h-1.389c-0.283,0-0.681-0.164-0.881-0.364
		l-1.762-1.76l-2.125-2.124c-0.66-0.661-1.701-0.7-2.417-0.132c-0.055,0.039-0.109,0.081-0.16,0.132
		c-0.05,0.049-0.093,0.105-0.132,0.16c-0.568,0.715-0.528,1.756,0.132,2.418l0.366,0.363c0,0,0,0.001,0.001,0.001l3.335,3.335
		l0.262,0.26c0.2,0.201,0.363,0.599,0.363,0.883v1.234v0.518v0.518v6.513v0.517v0.518v1.236c0,0.283-0.163,0.679-0.363,0.882
		l-0.262,0.259l-3.335,3.338c-0.001,0-0.001,0-0.001,0l-0.366,0.365c-0.66,0.66-0.7,1.699-0.132,2.416
		c0.039,0.055,0.082,0.109,0.132,0.161c0.356,0.356,0.823,0.532,1.289,0.532c0.083,0,0.16-0.009,0.237-0.021
		c0.384-0.049,0.757-0.215,1.051-0.511l2.125-2.126l1.762-1.76c0.2-0.203,0.598-0.367,0.881-0.367h1.389h0.52h0.514h6.514h0.519
		h0.514h1.388c0.285,0,0.684,0.164,0.885,0.367l1.759,1.76l2.126,2.126c0.295,0.296,0.665,0.462,1.053,0.511
		c0.076,0.013,0.153,0.021,0.237,0.021c0.465,0,0.933-0.176,1.288-0.532c0.051-0.052,0.093-0.106,0.132-0.161
		c0.568-0.717,0.529-1.756-0.132-2.416L44.502,47.198z M36.893,40.966c0,0.705-0.573,1.277-1.275,1.277h-7.546
		c-0.708,0-1.282-0.572-1.282-1.277v-7.547c0-0.705,0.574-1.278,1.282-1.278h7.546c0.702,0,1.275,0.573,1.275,1.278V40.966z"/>
</g>
</svg>
