<?xml version="1.0" encoding="utf-8"?>
<!-- Generator: Adobe Illustrator 16.0.0, SVG Export Plug-In . SVG Version: 6.00 Build 0)  -->
<!DOCTYPE svg PUBLIC "-//W3C//DTD SVG 1.1//EN" "http://www.w3.org/Graphics/SVG/1.1/DTD/svg11.dtd">
<svg version="1.1" id="Lager_1" xmlns="http://www.w3.org/2000/svg" xmlns:xlink="http://www.w3.org/1999/xlink" x="0px" y="0px"
	 viewBox="0 0 70.923 70.923" enable-background="new 0 0 70.923 70.923" xml:space="preserve">
<g>
	<g>
		<g>
			<path fill="#1E6E32" d="M56.392,15.14c-0.188-0.407-0.234-1.09-0.106-1.52l0.237-0.792c0.129-0.429-0.023-1.041-0.338-1.359
				l-4.887-4.951c-0.315-0.318-0.747-0.579-1.387-0.579h-2.854c-0.447,0-0.93-0.244-1.264-0.542l-3.393-3.114
				C42.141,2.05,41.621,2.039,41.32,2.52c-0.168,0.271-1.965,3.496-2.01,3.628c-0.09,0.268-0.042,0.576,0.152,0.803l1.216,1.425
				c0.29,0.34,0.411,0.967,0.271,1.391l-1.167,3.31c-0.142,0.427-0.042,1.068,0.223,1.431l1.39,1.897
				c0.264,0.362,0.696,0.952,0.961,1.314c0,0,5.297,7.244,6.201,8.475c0.904,1.23,2.363,1.356,3.553,0.932
				c1.191-0.421,2.629-0.939,2.629-0.939c0.422-0.151,1.111-0.397,1.531-0.548l3.482-1.253c0.421-0.15,0.612-0.606,0.425-1.014
				L56.392,15.14z M52.015,25.132c-1.002,0.323-1.792,0.166-2.473-0.763c-0.68-0.927-3.184-4.353-3.951-5.409
				c-0.77-1.053-0.172-1.655,0.645-1.655c0.818,0,3.882,0,3.882,0c0.447,0,0.967,0.333,1.155,0.737l2.559,5.565
				c0.188,0.407-0.004,0.863-0.426,1.014C53.406,24.621,52.679,24.92,52.015,25.132z"/>
		</g>
	</g>
	<g>
		<g>
			<path fill="#FFB900" d="M26.814,4.968c0,0-1.463,2.213-2.195,3.579c-0.091,0.17-0.294,0.572-0.409,0.932
				c-0.117,0.36-0.146,0.678-0.146,0.849c0,1.522,1.23,2.752,2.75,2.752c1.517,0,2.748-1.23,2.748-2.752
				c0-0.17-0.028-0.488-0.146-0.849c-0.116-0.36-0.318-0.762-0.409-0.932C28.276,7.181,26.814,4.968,26.814,4.968L26.814,4.968z"/>
		</g>
	</g>
	<path fill="#1E6E32" d="M41.593,65.09V24.396c0-2.886-2.363-5.249-5.252-5.249H16.922c-2.888,0-5.251,2.363-5.251,5.249v40.645
		c0,0.206-0.054,0.303-0.284,0.334c-0.155,0.023-0.307,0.045-0.453,0.084c-1.177,0.323-2.042,1.401-2.042,2.682
		c0,1.534,1.244,2.777,2.779,2.777h29.922c1.534,0,2.777-1.243,2.777-2.777c0-1.403-1.039-2.563-2.389-2.752
		c-0.068-0.01-0.137-0.014-0.206-0.021C41.667,65.355,41.593,65.307,41.593,65.09z"/>
	<g>
		<path fill="#FFFFFF" d="M16.446,26.409c0-1.442,1.182-2.624,2.625-2.624h15.12c1.444,0,2.626,1.182,2.626,2.624v11.835
			c0,1.443-1.182,2.624-2.626,2.624h-15.12c-1.444,0-2.625-1.181-2.625-2.624V26.409z"/>
	</g>
	<path fill="#B0CB0B" d="M56.352,25.61c2.292,4.724,2.714,8.515,2.714,14.4v16.869c0,8.229-3.944,8.229-5.241,8.229
		c-4.682,0-5.187-5.229-5.187-7.479V36.507c0-4.402-2.369-7.032-6.336-7.032h-0.709v2.965h0.709c3.022,0,3.371,2.321,3.371,4.067
		v21.122c0,6.439,3.124,10.442,8.151,10.442c3.064,0,8.206-1.455,8.206-11.192V40.01c0-6.129-0.469-10.327-2.875-15.409
		L56.352,25.61z"/>
	<path fill="#B0CB0B" d="M39.424,1.885c-1.753-1.195-3.927-1.88-5.965-1.88H27.75c-0.793,0-1.436,0.643-1.436,1.436
		c0,0.792,0.643,1.435,1.436,1.435h5.709c1.452,0,3.078,0.517,4.347,1.382c0.489,0.333,1.164,0.794,1.842,1.257
		c0.393-0.719,1.031-1.869,1.4-2.52C40.446,2.582,39.861,2.183,39.424,1.885z"/>
	<path fill="#B0CB0B" d="M50.118,17.305c0,0-0.938,0-1.914,0c1.177,0.067,1.886,0.578,1.886,1.754c0,0.624,0,4.455,0,4.455
		c0,0.474,0.385,0.86,0.861,0.86c0.476,0,0.861-0.387,0.861-0.86v-4.294l-0.539-1.177C51.084,17.639,50.565,17.305,50.118,17.305z"
		/>
</g>
</svg>
