<?xml version="1.0" encoding="utf-8"?>
<!-- Generator: Adobe Illustrator 16.0.0, SVG Export Plug-In . SVG Version: 6.00 Build 0)  -->
<!DOCTYPE svg PUBLIC "-//W3C//DTD SVG 1.1//EN" "http://www.w3.org/Graphics/SVG/1.1/DTD/svg11.dtd">
<svg version="1.1" id="Lager_1" xmlns="http://www.w3.org/2000/svg" xmlns:xlink="http://www.w3.org/1999/xlink" x="0px" y="0px"
	 viewBox="0 0 62.362 62.362" enable-background="new 0 0 62.362 62.362" xml:space="preserve">
<g>
	<path fill="#B0CB0B" d="M48.706,6.67H35.009h-2.066c-1.707,0-4.206,0.849-5.559,1.889l-7.528,5.781l-5.892,4.524
		c0,0.001,0,0.002,0,0.002l-1.64,1.257c-1.35,1.038-2.456,3.285-2.456,4.989v2.064v13.429c0,0.616,0,1.321,0,2.067
		c0,1.957,0,4.24,0,6.199c0,0.748,0,1.451,0,2.066v2.428c0,2.841,2.324,5.166,5.167,5.166h33.67c2.842,0,5.166-2.325,5.166-5.166
		v-2.428c0-0.615,0-1.318,0-2.066c0-1.959,0-4.242,0-6.199c0-0.746,0-1.451,0-2.067v-16.01c0-0.616,0-1.317,0-2.065
		c0-1.958,0-4.242,0-6.2c0-0.75,0-1.453,0-2.067v-2.426C53.872,8.995,51.547,6.67,48.706,6.67z"/>
	<g>
		<path fill="#B0CB0B" d="M17.714,4.298l-8.337,6.404c-0.992,0.762-1.18,2.197-0.419,3.188l1.629,2.12
			c0.762,0.991,2.196,1.18,3.188,0.418l8.335-6.404c0.991-0.763,1.182-2.197,0.418-3.188l-1.626-2.12
			C20.139,3.726,18.703,3.537,17.714,4.298z"/>
	</g>
	<path fill="#FFFFFF" d="M47.979,12.311c0-1.272-1.223-1.778-2.443-1.778H35.222c-2.816,0-4.482,0.755-4.482,3.426
		c0,0.878,0,1.396,0,2.048c0,2.391,1.589,3.338,3.634,2.763c4.403-1.235,9.516-3.242,11.735-4.189
		C47.805,13.856,47.979,13.132,47.979,12.311z"/>
	<path fill="#D2E182" d="M44.502,47.2v-0.002l-3.34-3.338l-0.26-0.258c-0.199-0.203-0.365-0.6-0.365-0.883v-1.234v-0.52V40.45
		v-6.512v-0.52v-0.517v-1.234c0-0.284,0.166-0.682,0.365-0.883l0.26-0.26l3.34-3.335v-0.001l0.365-0.363
		c0.66-0.662,0.699-1.703,0.131-2.418c-0.039-0.055-0.08-0.111-0.131-0.16c-0.053-0.051-0.105-0.093-0.164-0.132
		c-0.713-0.568-1.754-0.529-2.414,0.132l-2.127,2.124l-1.758,1.76c-0.203,0.201-0.602,0.364-0.885,0.364h-1.387h-0.516H35.1h-6.512
		h-0.519h-0.516h-1.39c-0.284,0-0.681-0.164-0.881-0.364l-1.762-1.76l-2.126-2.124c-0.659-0.661-1.698-0.7-2.415-0.132
		c-0.057,0.039-0.112,0.081-0.16,0.132c-0.052,0.049-0.094,0.105-0.135,0.16c-0.565,0.715-0.527,1.756,0.135,2.418l0.364,0.363
		c0.001,0,0.001,0.001,0.001,0.001l3.337,3.335l0.261,0.26c0.198,0.201,0.364,0.599,0.364,0.883v1.234v0.517v0.52v6.512v0.516v0.52
		v1.234c0,0.283-0.166,0.68-0.364,0.883l-0.261,0.258l-3.337,3.338c0,0,0,0.002-0.001,0.002l-0.364,0.363
		c-0.662,0.661-0.7,1.7-0.135,2.418c0.041,0.055,0.083,0.107,0.135,0.16c0.354,0.356,0.822,0.533,1.286,0.533
		c0.083,0,0.161-0.01,0.239-0.023c0.385-0.049,0.756-0.215,1.05-0.51l2.126-2.126l1.762-1.761c0.2-0.201,0.597-0.366,0.881-0.366
		h1.39h0.516h0.519H35.1h0.518h0.516h1.387c0.283,0,0.682,0.165,0.885,0.366l1.758,1.761l2.127,2.126
		c0.295,0.295,0.666,0.461,1.053,0.51c0.074,0.014,0.152,0.023,0.236,0.023c0.465,0,0.932-0.177,1.289-0.533
		c0.051-0.053,0.092-0.105,0.131-0.16c0.568-0.718,0.529-1.757-0.131-2.418L44.502,47.2z M36.891,40.965
		c0,0.705-0.572,1.277-1.273,1.277h-7.548c-0.705,0-1.277-0.572-1.277-1.277v-7.547c0-0.703,0.572-1.277,1.277-1.277h7.548
		c0.701,0,1.273,0.574,1.273,1.277V40.965z"/>
</g>
</svg>
