<?xml version="1.0" encoding="utf-8"?>
<!-- Generator: Adobe Illustrator 16.0.0, SVG Export Plug-In . SVG Version: 6.00 Build 0)  -->
<!DOCTYPE svg PUBLIC "-//W3C//DTD SVG 1.1//EN" "http://www.w3.org/Graphics/SVG/1.1/DTD/svg11.dtd">
<svg version="1.1" id="Lager_1" xmlns="http://www.w3.org/2000/svg" xmlns:xlink="http://www.w3.org/1999/xlink" x="0px" y="0px"
	 viewBox="0 0 62.362 62.362" enable-background="new 0 0 62.362 62.362" xml:space="preserve">
<g>
	<path fill="#E6007E" d="M48.705,6.67H35.007h-2.065c-1.707,0-4.207,0.849-5.56,1.889l-7.528,5.781l-5.89,4.524
		c0,0.001-0.001,0.002-0.001,0.002l-1.639,1.257c-1.352,1.038-2.458,3.285-2.458,4.989v2.064v13.428c0,0.617,0,1.321,0,2.068
		c0,1.957,0,4.24,0,6.199c0,0.748,0,1.451,0,2.066v2.428c0,2.84,2.325,5.166,5.167,5.166h33.671c2.842,0,5.168-2.326,5.168-5.166
		v-2.428c0-0.615,0-1.318,0-2.066c0-1.959,0-4.242,0-6.199c0-0.747,0-1.451,0-2.068V24.595c0-0.616,0-1.317,0-2.065
		c0-1.958,0-4.242,0-6.2c0-0.75,0-1.453,0-2.067v-2.426C53.873,8.994,51.546,6.67,48.705,6.67z"/>
	<g>
		<path fill="#E6007E" d="M17.713,4.297l-8.336,6.404c-0.994,0.762-1.182,2.197-0.419,3.188l1.627,2.12
			c0.762,0.991,2.197,1.18,3.189,0.418l8.334-6.404c0.992-0.763,1.179-2.197,0.42-3.188l-1.627-2.12
			C20.138,3.725,18.703,3.536,17.713,4.297z"/>
	</g>
	<path fill="#FFFFFF" d="M47.976,12.31c0-1.272-1.221-1.778-2.441-1.778H35.219c-2.814,0-4.48,0.755-4.48,3.426
		c0,0.878,0,1.396,0,2.048c0,2.391,1.587,3.338,3.634,2.763c4.403-1.235,9.514-3.242,11.735-4.189
		C47.804,13.856,47.976,13.132,47.976,12.31z"/>
	<path fill="#F0A5C3" d="M44.501,47.199c-0.002,0-0.002-0.001-0.002-0.001l-3.338-3.338l-0.258-0.258
		c-0.201-0.203-0.367-0.6-0.367-0.883v-1.235v-0.519V40.45v-6.513v-0.519v-0.518v-1.233c0-0.284,0.166-0.682,0.367-0.883l0.258-0.26
		l3.338-3.335c0,0,0-0.001,0.002-0.001l0.363-0.363c0.662-0.662,0.699-1.703,0.133-2.418c-0.039-0.055-0.082-0.111-0.133-0.16
		c-0.051-0.051-0.107-0.093-0.162-0.132c-0.717-0.568-1.756-0.529-2.416,0.132l-2.123,2.124l-1.762,1.76
		c-0.201,0.201-0.6,0.364-0.883,0.364H36.13h-0.516h-0.518h-6.514h-0.515h-0.516h-1.391c-0.282,0-0.68-0.164-0.882-0.364l-1.76-1.76
		l-2.125-2.124c-0.661-0.661-1.7-0.7-2.418-0.132c-0.056,0.039-0.11,0.081-0.16,0.132c-0.049,0.049-0.094,0.105-0.132,0.16
		c-0.567,0.715-0.529,1.756,0.132,2.418l0.365,0.363c0,0,0,0.001,0.002,0.001l3.336,3.335l0.261,0.26
		c0.198,0.201,0.365,0.599,0.365,0.883v1.233v0.518v0.519v6.513v0.516v0.519v1.235c0,0.283-0.167,0.68-0.365,0.883l-0.261,0.258
		l-3.336,3.338c-0.002,0-0.002,0.001-0.002,0.001l-0.365,0.364c-0.661,0.66-0.699,1.699-0.132,2.417
		c0.038,0.055,0.083,0.108,0.132,0.161c0.355,0.355,0.821,0.532,1.289,0.532c0.082,0,0.161-0.009,0.238-0.022
		c0.384-0.049,0.755-0.215,1.051-0.51l2.125-2.127l1.76-1.76c0.202-0.202,0.6-0.367,0.882-0.367h1.391h0.516h0.515h6.514h0.518
		h0.516h1.389c0.283,0,0.682,0.165,0.883,0.367l1.762,1.76l2.123,2.127c0.295,0.295,0.668,0.461,1.053,0.51
		c0.076,0.014,0.154,0.022,0.236,0.022c0.465,0,0.932-0.177,1.289-0.532c0.051-0.053,0.094-0.106,0.133-0.161
		c0.566-0.718,0.529-1.757-0.133-2.417L44.501,47.199z M36.892,40.965c0,0.705-0.574,1.277-1.277,1.277h-7.546
		c-0.705,0-1.278-0.572-1.278-1.277v-7.547c0-0.704,0.573-1.277,1.278-1.277h7.546c0.703,0,1.277,0.573,1.277,1.277V40.965z"/>
</g>
</svg>
