<?xml version="1.0" encoding="utf-8"?>
<!-- Generator: Adobe Illustrator 16.0.0, SVG Export Plug-In . SVG Version: 6.00 Build 0)  -->
<!DOCTYPE svg PUBLIC "-//W3C//DTD SVG 1.1//EN" "http://www.w3.org/Graphics/SVG/1.1/DTD/svg11.dtd">
<svg version="1.1" id="Lager_1" xmlns="http://www.w3.org/2000/svg" xmlns:xlink="http://www.w3.org/1999/xlink" x="0px" y="0px"
	 viewBox="0 0 70.923 70.923" enable-background="new 0 0 70.923 70.923" xml:space="preserve">
<g>
	<g>
		<g>
			<path fill="#E6007E" d="M56.391,15.14c-0.186-0.407-0.232-1.09-0.106-1.52l0.239-0.792c0.128-0.429-0.025-1.041-0.338-1.359
				l-4.889-4.951C50.98,6.2,50.552,5.939,49.91,5.939H47.06c-0.449,0-0.933-0.244-1.267-0.542L42.4,2.283
				c-0.26-0.233-0.783-0.245-1.081,0.236c-0.168,0.271-1.963,3.496-2.011,3.628c-0.088,0.268-0.041,0.576,0.154,0.803l1.215,1.425
				c0.289,0.34,0.412,0.967,0.27,1.391l-1.166,3.31c-0.142,0.427-0.043,1.068,0.224,1.431l1.39,1.897
				c0.263,0.362,0.695,0.952,0.959,1.314c0,0,5.298,7.244,6.201,8.475c0.904,1.23,2.365,1.356,3.553,0.932
				c1.192-0.421,2.628-0.939,2.628-0.939c0.424-0.151,1.112-0.397,1.533-0.548l3.481-1.253c0.421-0.15,0.613-0.606,0.426-1.014
				L56.391,15.14z M52.014,25.132c-1.001,0.323-1.793,0.166-2.471-0.763c-0.681-0.927-3.184-4.353-3.954-5.409
				c-0.767-1.053-0.17-1.655,0.647-1.655c0.814,0,3.881,0,3.881,0c0.446,0,0.965,0.333,1.154,0.737l2.559,5.565
				c0.188,0.407-0.003,0.863-0.424,1.014C53.406,24.621,52.68,24.92,52.014,25.132z"/>
		</g>
	</g>
	<g>
		<g>
			<path fill="#FFB900" d="M26.813,4.968c0,0-1.462,2.213-2.195,3.579c-0.091,0.17-0.293,0.572-0.408,0.932
				c-0.117,0.36-0.146,0.678-0.146,0.849c0,1.522,1.23,2.752,2.75,2.752c1.518,0,2.748-1.23,2.748-2.752
				c0-0.17-0.03-0.488-0.146-0.849c-0.116-0.36-0.318-0.762-0.407-0.932C28.274,7.181,26.813,4.968,26.813,4.968L26.813,4.968z"/>
		</g>
	</g>
	<path fill="#E6007E" d="M41.591,65.09V24.396c0-2.886-2.362-5.249-5.249-5.249H16.921c-2.889,0-5.251,2.363-5.251,5.249v40.645
		c0,0.206-0.054,0.303-0.284,0.334c-0.153,0.023-0.305,0.045-0.453,0.084c-1.178,0.323-2.041,1.401-2.041,2.682
		c0,1.534,1.244,2.777,2.778,2.777h29.921c1.536,0,2.78-1.243,2.78-2.777c0-1.403-1.039-2.563-2.391-2.752
		c-0.069-0.01-0.136-0.014-0.205-0.021C41.667,65.355,41.591,65.307,41.591,65.09z"/>
	<path fill="#FFB900" d="M59.154,24.601l-2.801,1.009c2.289,4.724,2.713,8.515,2.713,14.4v16.869c0,8.229-3.947,8.229-5.244,8.229
		c-4.679,0-5.185-5.229-5.185-7.479V36.507c0-4.402-2.37-7.032-6.337-7.032h-0.71v2.965h0.71c3.021,0,3.373,2.321,3.373,4.067
		v21.122c0,6.439,3.122,10.442,8.148,10.442c3.066,0,8.209-1.455,8.209-11.192V40.01C62.031,33.881,61.563,29.683,59.154,24.601z"/>
	<path fill="#FFB900" d="M39.423,1.885c-1.755-1.195-3.927-1.88-5.964-1.88h-5.708c-0.795,0-1.438,0.643-1.438,1.436
		c0,0.792,0.643,1.435,1.438,1.435h5.708c1.453,0,3.078,0.517,4.346,1.382c0.49,0.333,1.164,0.794,1.843,1.257
		c0.392-0.719,1.03-1.869,1.4-2.52C40.443,2.582,39.859,2.183,39.423,1.885z"/>
	<path fill="#FFB900" d="M50.117,17.305c0,0-0.938,0-1.916,0c1.179,0.067,1.887,0.578,1.887,1.754c0,0.624,0,4.455,0,4.455
		c0,0.474,0.388,0.86,0.861,0.86c0.477,0,0.863-0.387,0.863-0.86v-4.294l-0.541-1.177C51.082,17.639,50.563,17.305,50.117,17.305z"
		/>
	<g>
		<path fill="#FFFFFF" d="M16.446,26.409c0-1.442,1.181-2.624,2.625-2.624h15.12c1.442,0,2.624,1.182,2.624,2.624v11.835
			c0,1.443-1.182,2.624-2.624,2.624h-15.12c-1.444,0-2.625-1.181-2.625-2.624V26.409z"/>
	</g>
</g>
</svg>
