<?xml version="1.0" encoding="utf-8"?>
<!-- Generator: Adobe Illustrator 16.0.0, SVG Export Plug-In . SVG Version: 6.00 Build 0)  -->
<!DOCTYPE svg PUBLIC "-//W3C//DTD SVG 1.1//EN" "http://www.w3.org/Graphics/SVG/1.1/DTD/svg11.dtd">
<svg version="1.1" id="Lager_1" xmlns="http://www.w3.org/2000/svg" xmlns:xlink="http://www.w3.org/1999/xlink" x="0px" y="0px"
	 viewBox="0 0 93.543 93.543" enable-background="new 0 0 93.543 93.543" xml:space="preserve">
<g>
	<path fill-rule="evenodd" clip-rule="evenodd" fill="#E6007E" d="M11.747,65.375c0.021-4.418,3.718-8.051,8.096-7.953
		c4.44,0.102,7.971,3.715,7.952,8.146c-0.016,4.395-3.705,8.1-8.042,8.08C15.225,73.626,11.729,70.011,11.747,65.375z"/>
	<path fill-rule="evenodd" clip-rule="evenodd" fill="#FFFFFF" d="M15.943,65.458c0.007-2.109,1.773-3.842,3.862-3.797
		c2.119,0.049,3.805,1.773,3.796,3.889c-0.008,2.098-1.77,3.867-3.838,3.857C17.602,69.396,15.934,67.671,15.943,65.458z"/>
	<path fill-rule="evenodd" clip-rule="evenodd" fill="#E6007E" d="M64.979,65.375c0.021-4.418,3.717-8.051,8.096-7.953
		c4.439,0.102,7.97,3.715,7.951,8.146c-0.016,4.395-3.705,8.1-8.041,8.08C68.456,73.626,64.961,70.011,64.979,65.375z"/>
	<path fill-rule="evenodd" clip-rule="evenodd" fill="#FFFFFF" d="M69.175,65.458c0.008-2.109,1.774-3.842,3.861-3.797
		c2.121,0.049,3.805,1.773,3.798,3.889c-0.009,2.098-1.771,3.867-3.84,3.857C70.834,69.396,69.165,67.671,69.175,65.458z"/>
	<path fill-rule="evenodd" clip-rule="evenodd" fill="#E6007E" d="M29.322,50.96c-8.952,0-15.607,0-24.56,0
		c-3.052,0-3.244-0.176-3.247-3.213c-0.004-8.08-0.008-16.157,0.006-24.234c0.004-2.567,0.314-2.871,2.928-2.873
		c18.194-0.004,28.778-0.003,46.973,0.006c2.534,0.001,2.94,0.356,2.952,2.884c0.032,8.225,0.037,17.198,0.037,25.42
		c0,1.168-0.29,2.029-1.978,2.029c-9.169,0-13.942-0.037-23.111-0.037C29.322,50.949,29.322,50.957,29.322,50.96z"/>
	<path fill-rule="evenodd" clip-rule="evenodd" fill="#FFB900" d="M92.277,47.878c0.03-1.676-0.442-2.928-1.739-3.982
		c-2.313-1.891-4.215-4.021-5.238-6.997c-1.744-5.061-3.871-9.985-5.754-14.998c-0.534-1.425-1.288-2.027-2.876-2.005
		c-5.82,0.089-11.645,0.095-17.465,0c-1.794-0.028-2.391,0.488-2.35,2.336c0.214,9.531,0.303,19.064,0.433,28.597
		c0.009,0.648,0.003,0.914,0.003,1.682c0,0.389-0.294,0.859-0.802,0.859c-0.66,0-0.826,0-1.354-0.002
		c-11.134-0.027-16.957-0.061-28.091-0.084c-8.369-0.02-14.442-0.012-22.811-0.055c-1.45-0.008-2.759,0.189-2.867,1.898
		c-0.133,2.098-0.162,4.223,0.067,6.303c0.068,0.617,1.134,1.566,1.785,1.604c2.584,0.152,2.884,0.082,5.447,0.082
		c0.938,0,1.403-0.674,1.539-0.986c2.005-4.674,5.045-6.934,9.347-7.031c4.5-0.1,7.585,2.139,9.817,7.17
		c0.113,0.248,0.483,0.766,1.34,0.766c12.221,0,19.132,0,31.371,0c0.935,0,1.442-0.934,1.622-1.371
		c1.604-3.92,4.641-6.176,8.99-6.299c4.657-0.131,7.884,2.434,9.681,6.771c0.174,0.418,0.423,0.934,1.191,0.934
		c2.42,0,4.843,0.041,7.408,0.041c0.936,0,1.272-0.908,1.271-1.361C92.236,57.005,92.196,52.441,92.277,47.878z"/>
	<path fill-rule="evenodd" clip-rule="evenodd" fill="#FFFFFF" d="M80.069,40.49c-5.339,0-10.536,0-15.965,0
		c-0.934,0-1.583-0.785-1.583-1.718c0-3.949,0-7.925,0-12.227c0-0.701,0.337-1.28,1.273-1.28c3.661,0,7.368-0.02,11.073,0.036
		c0.534,0.009,1.393,0.378,1.54,0.785c1.547,4.274,3.005,8.584,4.516,12.998C81.082,39.552,81.162,40.49,80.069,40.49z"/>
	<g>
		<path fill="#FFB900" d="M34.18,46.519c-2.336,0-4.565-0.793-6.363-2.248c-1.796,1.455-4.021,2.248-6.36,2.248
			c-5.585,0-10.129-4.543-10.129-10.127c0-5.584,4.544-10.13,10.129-10.13H34.18c5.585,0,10.128,4.546,10.128,10.13
			C44.308,41.976,39.765,46.519,34.18,46.519z M30.648,40.548c0.984,0.838,2.227,1.297,3.531,1.297c3.009,0,5.456-2.447,5.456-5.454
			c0-2.833-2.172-5.169-4.938-5.431C33.591,34.914,31.971,38.269,30.648,40.548z M20.842,30.971C18.12,31.277,16,33.591,16,36.392
			c0,3.006,2.447,5.454,5.456,5.454c1.288,0,2.514-0.447,3.491-1.264C23.313,37.811,21.514,33.933,20.842,30.971z M25.641,30.937
			c0.47,1.557,1.287,3.426,2.133,5.095c0.696-1.409,1.43-3.125,2.056-5.095H25.641z"/>
	</g>
</g>
</svg>
