<?xml version="1.0" encoding="utf-8"?>
<!-- Generator: Adobe Illustrator 16.0.0, SVG Export Plug-In . SVG Version: 6.00 Build 0)  -->
<!DOCTYPE svg PUBLIC "-//W3C//DTD SVG 1.1//EN" "http://www.w3.org/Graphics/SVG/1.1/DTD/svg11.dtd">
<svg version="1.1" id="Lager_1" xmlns="http://www.w3.org/2000/svg" xmlns:xlink="http://www.w3.org/1999/xlink" x="0px" y="0px"
	 viewBox="0 0 93.543 93.543" enable-background="new 0 0 93.543 93.543" xml:space="preserve">
<g>
	<g>
		<path fill-rule="evenodd" clip-rule="evenodd" fill="#B0CB0B" d="M19.842,57.422c-4.378-0.098-8.074,3.534-8.096,7.952
			c-0.018,4.638,3.478,8.253,8.006,8.273c4.337,0.021,8.026-3.685,8.042-8.079C27.813,61.136,24.284,57.523,19.842,57.422z"/>
		<path fill-rule="evenodd" clip-rule="evenodd" fill="#FFFFFF" d="M19.763,69.407c-2.162-0.011-3.83-1.736-3.82-3.949
			c0.009-2.108,1.774-3.842,3.862-3.796c2.119,0.048,3.805,1.772,3.797,3.889C23.593,67.648,21.833,69.417,19.763,69.407z"/>
		<path fill-rule="evenodd" clip-rule="evenodd" fill="#B0CB0B" d="M73.075,57.422c-4.379-0.098-8.076,3.534-8.096,7.952
			c-0.02,4.638,3.477,8.253,8.006,8.273c4.336,0.021,8.025-3.685,8.041-8.079C81.044,61.136,77.515,57.523,73.075,57.422z"/>
		<path fill-rule="evenodd" clip-rule="evenodd" fill="#FFFFFF" d="M72.993,69.407c-2.16-0.011-3.828-1.736-3.82-3.949
			c0.01-2.108,1.775-3.842,3.865-3.796c2.119,0.048,3.803,1.772,3.795,3.889C76.825,67.648,75.063,69.417,72.993,69.407z"/>
	</g>
	<path fill-rule="evenodd" clip-rule="evenodd" fill="#B0CB0B" d="M29.323,50.961c-8.952,0-15.608,0-24.56,0
		c-3.053,0-3.245-0.177-3.247-3.214c-0.005-8.079-0.008-16.156,0.005-24.233c0.004-2.567,0.314-2.871,2.928-2.873
		c18.194-0.004,28.779-0.003,46.974,0.006c2.533,0.001,2.939,0.356,2.951,2.884c0.033,8.225,0.037,17.198,0.037,25.421
		c0,1.168-0.289,2.029-1.977,2.029c-9.17,0-13.943-0.038-23.112-0.038C29.323,50.949,29.323,50.956,29.323,50.961z"/>
	<path fill-rule="evenodd" clip-rule="evenodd" fill="#009FE4" d="M90.976,63.11c-2.566,0-4.99-0.041-7.41-0.041
		c-0.77,0-1.018-0.516-1.191-0.934c-1.795-4.338-5.021-6.901-9.682-6.771c-4.348,0.123-7.387,2.379-8.99,6.3
		c-0.178,0.437-0.688,1.371-1.621,1.371c-12.238,0-19.151,0-31.372,0c-0.855,0-1.227-0.518-1.339-0.767
		C27.137,57.237,24.053,55,19.553,55.1c-4.303,0.097-7.342,2.357-9.348,7.03c-0.136,0.313-0.602,0.986-1.538,0.986
		c-2.563,0-2.863,0.07-5.448-0.081c-0.65-0.038-1.717-0.986-1.784-1.604c-0.23-2.08-0.2-4.204-0.067-6.302
		c0.107-1.71,1.417-1.907,2.866-1.898c8.368,0.043,14.441,0.035,22.811,0.054c11.136,0.023,16.957,0.057,28.091,0.084
		c0.527,0.003,0.693,0.002,1.354,0.002c0.508,0,0.801-0.471,0.801-0.858c0-0.769,0.006-1.033-0.002-1.682
		c-0.131-9.533-0.219-19.066-0.432-28.598c-0.041-1.848,0.555-2.364,2.348-2.336c5.822,0.095,11.646,0.089,17.467,0
		c1.586-0.022,2.342,0.58,2.877,2.005c1.881,5.013,4.008,9.938,5.752,14.998c1.025,2.976,2.924,5.106,5.238,6.996
		c1.297,1.056,1.77,2.308,1.738,3.983c-0.08,4.563-0.039,9.127-0.031,13.87C92.245,62.202,91.911,63.11,90.976,63.11z"/>
	<path fill-rule="evenodd" clip-rule="evenodd" fill="#FFFFFF" d="M62.521,26.545c0,4.302,0,8.277,0,12.227
		c0,0.934,0.65,1.719,1.584,1.719c5.428,0,10.625,0,15.967,0c1.09,0,1.012-0.938,0.852-1.406c-1.51-4.414-2.969-8.724-4.516-12.998
		c-0.146-0.407-1.004-0.776-1.539-0.785c-3.705-0.056-7.412-0.036-11.074-0.036C62.858,25.265,62.521,25.844,62.521,26.545z"/>
	<path fill="#009FE4" d="M44.729,41.892c-2.082-1.252-2.874-2.442-4.58-2.442c-3.552,0-8.877,6.646-16.957,6.646
		c-7.345,0-12.635-4.901-14.199-6.611c-0.324-0.354-0.32-0.633,0.064-0.808c1.196-0.535,2.263-1.051,2.731-1.298
		c0.316-0.167,0.598-0.288,0.697-0.49c0.109-0.216-0.42-0.59-0.992-0.951c-0.962-0.607-1.947-1.227-2.532-1.703
		c-0.406-0.33-0.354-0.64,0-1.009c1.487-1.55,6.122-5.793,13.109-5.793c9.039,0,13.638,6.809,17.972,6.809
		c1.99,0,2.521-1.493,4.866-2.771c2.529-1.378,5.893-0.878,2.984,2.373c-0.922,1.03-1.719,1.955-1.719,2.913
		c0,1.202,1.113,2.356,2.15,3.5C50.413,42.562,46.862,43.169,44.729,41.892z M16.238,35.653c3.055,0.096,3.201-4.563,0.146-4.655
		C13.33,30.9,13.184,35.56,16.238,35.653z"/>
</g>
</svg>
