<?xml version="1.0" encoding="utf-8"?>
<!-- Generator: Adobe Illustrator 16.0.0, SVG Export Plug-In . SVG Version: 6.00 Build 0)  -->
<!DOCTYPE svg PUBLIC "-//W3C//DTD SVG 1.1//EN" "http://www.w3.org/Graphics/SVG/1.1/DTD/svg11.dtd">
<svg version="1.1" id="Lager_1" xmlns="http://www.w3.org/2000/svg" xmlns:xlink="http://www.w3.org/1999/xlink" x="0px" y="0px"
	 viewBox="0 0 97.456 97.455" enable-background="new 0 0 97.456 97.455" xml:space="preserve">
<g>
	<circle fill-rule="evenodd" clip-rule="evenodd" fill="#E6007E" cx="18.508" cy="63.462" r="9.01"/>
	<circle fill-rule="evenodd" clip-rule="evenodd" fill="#FFFFFF" cx="18.509" cy="63.462" r="4.504"/>
	<circle fill-rule="evenodd" clip-rule="evenodd" fill="#E6007E" cx="82.792" cy="63.462" r="9.01"/>
	<circle fill-rule="evenodd" clip-rule="evenodd" fill="#FFFFFF" cx="82.792" cy="63.462" r="4.505"/>
	<g>
		<path fill="#FFB900" d="M5.184,45.425c3.074-3.67,4.848-5.59,9.124-10.045c7.381-7.689,9.231-10.396,20.446-10.396
			c10.83,0,13.24,0,15.732,0c7.476,0,11.075,2.77,14.813,6.508c2.423,2.422,3.946,3.945,5.953,5.953
			c2.009,2.006,3.189,2.533,7.813,2.906c8.838,0.715,13.332,2.777,16.029,6.951c-1.216,0.848-2.013,2.258-2.013,3.854
			c0,2.484,1.927,4.514,4.368,4.688c0.004,1.672-0.193,3.385-0.671,4.83c-0.405,1.225-1.134,1.893-1.134,1.893
			c-0.939,0.9-1.939,0.348-1.979-0.598c0,0,0,0-0.146-0.713c-1.021-4.99-5.438-8.744-10.73-8.744
			c-6.048,0-10.951,4.902-10.951,10.951c0,1.326-0.598,1.811-2.061,1.811H31.521c-1.216,0-1.907-0.285-2.006-1.865
			c0,0-0.124-1.377-0.258-2.061c-0.986-5.037-5.424-8.836-10.749-8.836c-5.231,0-9.608,3.668-10.694,8.574
			c-0.168,0.766-0.218,1.605-0.218,1.605c-0.105,1.189-0.995,1.563-2.085,1.178c0,0-1.836-0.494-3.332-1.957
			c-1.63-1.594-2.175-3.803-2.175-6.014C0.004,51.036,2.295,48.88,5.184,45.425z"/>
		<path fill="#FFE57E" d="M93.083,51.155c0-1.596,0.797-3.006,2.013-3.854c0.533,0.824,0.999,1.73,1.411,2.729
			c0.563,1.361,0.938,3.551,0.944,5.813C95.009,55.669,93.083,53.64,93.083,51.155z"/>
	</g>
	<path fill="#FFFFFF" d="M43.096,32.021c0-1.215,0.995-2.211,2.211-2.211l8.052,0.016c2.667,0,4.789,1.084,6.327,2.623
		c0,0,4.074,4.428,5.525,6.086c1.45,1.658,1.021,3.859-1.346,3.859c-2.899,0-18.559,0-18.559,0c-1.216,0-2.211-0.994-2.211-2.211
		V32.021z"/>
	<path fill="#FFFFFF" d="M38.63,32.456c0-1.217-0.983-2.367-2.185-2.557c0,0-4.337-0.689-9.084,1.533
		c-5.752,2.695-6.819,8.777-6.819,8.777c-0.268,1.188,0.509,2.16,1.726,2.16l14.151,0.02c1.217,0.002,2.211-0.99,2.211-2.207V32.456
		z"/>
</g>
</svg>
