<?xml version="1.0" encoding="utf-8"?>
<!-- Generator: Adobe Illustrator 16.0.0, SVG Export Plug-In . SVG Version: 6.00 Build 0)  -->
<!DOCTYPE svg PUBLIC "-//W3C//DTD SVG 1.1//EN" "http://www.w3.org/Graphics/SVG/1.1/DTD/svg11.dtd">
<svg version="1.1" id="Lager_1" xmlns="http://www.w3.org/2000/svg" xmlns:xlink="http://www.w3.org/1999/xlink" x="0px" y="0px"
	 viewBox="0 0 93.543 93.543" enable-background="new 0 0 93.543 93.543" xml:space="preserve">
<g>
	<path fill-rule="evenodd" clip-rule="evenodd" fill="#FFB900" d="M29.322,50.961c-8.951,0-15.607,0-24.559,0
		c-3.052,0-3.245-0.177-3.247-3.214c-0.005-8.079-0.007-16.156,0.006-24.233c0.003-2.567,0.313-2.871,2.929-2.873
		c18.192-0.004,28.777-0.003,46.972,0.006c2.534,0.001,2.939,0.356,2.95,2.884c0.033,8.225,0.038,17.198,0.038,25.421
		c0,1.168-0.289,2.029-1.978,2.029c-9.168,0-13.942-0.038-23.111-0.038C29.322,50.949,29.322,50.956,29.322,50.961z"/>
	<path fill-rule="evenodd" clip-rule="evenodd" fill="#E6007E" d="M90.973,63.11c-2.566,0-4.988-0.041-7.41-0.041
		c-0.767,0-1.015-0.516-1.189-0.934c-1.796-4.338-5.022-6.901-9.682-6.771c-4.349,0.123-7.386,2.379-8.989,6.3
		c-0.18,0.437-0.688,1.371-1.621,1.371c-12.24,0-19.15,0-31.373,0c-0.855,0-1.227-0.518-1.339-0.767
		C27.139,57.237,24.053,55,19.553,55.1c-4.301,0.097-7.342,2.357-9.348,7.03c-0.135,0.313-0.602,0.986-1.539,0.986
		c-2.563,0-2.862,0.07-5.447-0.081c-0.65-0.038-1.715-0.986-1.784-1.604c-0.229-2.08-0.199-4.204-0.067-6.302
		c0.108-1.71,1.418-1.907,2.866-1.898c8.37,0.043,14.442,0.035,22.811,0.054c11.135,0.023,16.958,0.057,28.091,0.084
		c0.527,0.003,0.693,0.002,1.354,0.002c0.509,0,0.802-0.471,0.802-0.858c0-0.769,0.006-1.033-0.003-1.682
		c-0.13-9.533-0.219-19.066-0.433-28.598c-0.04-1.848,0.556-2.364,2.351-2.336c5.82,0.095,11.645,0.089,17.464,0
		c1.588-0.022,2.342,0.58,2.877,2.005c1.882,5.013,4.008,9.938,5.751,14.998c1.025,2.976,2.926,5.106,5.239,6.996
		c1.297,1.056,1.77,2.308,1.739,3.983c-0.081,4.563-0.041,9.127-0.033,13.87C92.244,62.202,91.908,63.11,90.973,63.11z"/>
	<path fill-rule="evenodd" clip-rule="evenodd" fill="#FFFFFF" d="M62.521,26.545c0,4.302,0,8.277,0,12.227
		c0,0.934,0.649,1.719,1.583,1.719c5.429,0,10.627,0,15.966,0c1.091,0,1.012-0.938,0.854-1.406
		c-1.512-4.414-2.969-8.724-4.517-12.998c-0.146-0.407-1.004-0.776-1.539-0.785c-3.705-0.056-7.412-0.036-11.074-0.036
		C62.858,25.265,62.521,25.844,62.521,26.545z"/>
	<g>
		<path fill-rule="evenodd" clip-rule="evenodd" fill="#FFB900" d="M19.848,57.422c-4.379-0.098-8.074,3.534-8.095,7.952
			c-0.019,4.638,3.478,8.253,8.004,8.273c4.338,0.021,8.026-3.685,8.044-8.079C27.817,61.136,24.287,57.523,19.848,57.422z"/>
		<path fill-rule="evenodd" clip-rule="evenodd" fill="#FFFFFF" d="M19.769,69.407c-2.162-0.011-3.83-1.736-3.821-3.949
			c0.009-2.108,1.775-3.842,3.862-3.796c2.121,0.048,3.806,1.772,3.797,3.889C23.6,67.648,21.836,69.417,19.769,69.407z"/>
		<path fill-rule="evenodd" clip-rule="evenodd" fill="#FFB900" d="M73.079,57.422c-4.378-0.098-8.074,3.534-8.096,7.952
			c-0.019,4.638,3.478,8.253,8.004,8.273c4.338,0.021,8.027-3.685,8.044-8.079C81.049,61.136,77.519,57.523,73.079,57.422z"/>
		<path fill-rule="evenodd" clip-rule="evenodd" fill="#FFFFFF" d="M72.998,69.407c-2.161-0.011-3.829-1.736-3.82-3.949
			c0.01-2.108,1.776-3.842,3.864-3.796c2.12,0.048,3.803,1.772,3.796,3.889C76.829,67.648,75.067,69.417,72.998,69.407z"/>
	</g>
	<path fill="#E6007E" d="M18.89,39.255c-1.399,2.458-0.757,5.626,1.584,7.324c2.341,1.7,5.55,1.333,7.456-0.756
		c1.905,2.089,5.117,2.458,7.455,0.756c2.344-1.698,2.983-4.866,1.586-7.322c2.575-1.166,3.92-4.107,3.023-6.857
		c-0.895-2.753-3.708-4.343-6.477-3.771c-0.313-2.811-2.692-4.997-5.585-4.997c-2.895,0-5.276,2.187-5.588,4.997
		c-2.77-0.572-5.585,1.018-6.479,3.771C14.971,35.147,16.315,38.091,18.89,39.255"/>
	<path fill="#FFB900" d="M32.087,36.739c0,2.296-1.861,4.157-4.156,4.157c-2.298,0-4.159-1.861-4.159-4.157
		c0-2.297,1.861-4.158,4.159-4.158C30.226,32.581,32.087,34.442,32.087,36.739"/>
</g>
</svg>
