<?xml version="1.0" encoding="utf-8"?>
<!-- Generator: Adobe Illustrator 16.0.0, SVG Export Plug-In . SVG Version: 6.00 Build 0)  -->
<!DOCTYPE svg PUBLIC "-//W3C//DTD SVG 1.1//EN" "http://www.w3.org/Graphics/SVG/1.1/DTD/svg11.dtd">
<svg version="1.1" id="Lager_1" xmlns="http://www.w3.org/2000/svg" xmlns:xlink="http://www.w3.org/1999/xlink" x="0px" y="0px"
	 viewBox="0 0 97.455 97.455" enable-background="new 0 0 97.455 97.455" xml:space="preserve">
<g>
	<circle fill-rule="evenodd" clip-rule="evenodd" fill="#FFB900" cx="18.51" cy="63.462" r="9.01"/>
	<circle fill-rule="evenodd" clip-rule="evenodd" fill="#FFFFFF" cx="18.509" cy="63.462" r="4.505"/>
	<circle fill-rule="evenodd" clip-rule="evenodd" fill="#FFB900" cx="82.793" cy="63.462" r="9.01"/>
	<circle fill-rule="evenodd" clip-rule="evenodd" fill="#FFFFFF" cx="82.792" cy="63.462" r="4.505"/>
	<g>
		<path fill="#E6007E" d="M5.186,45.425c3.072-3.67,4.846-5.59,9.123-10.045c7.381-7.689,9.23-10.396,20.445-10.396
			c10.83,0,13.241,0,15.734,0c7.475,0,11.077,2.77,14.813,6.508c2.422,2.422,3.945,3.945,5.953,5.953
			c2.008,2.006,3.189,2.533,7.813,2.906c8.838,0.715,13.33,2.777,16.029,6.951c-1.215,0.848-2.012,2.258-2.012,3.854
			c0,2.484,1.926,4.514,4.367,4.688c0.004,1.672-0.193,3.385-0.672,4.83c-0.404,1.225-1.133,1.893-1.133,1.893
			c-0.939,0.9-1.939,0.348-1.979-0.598c0,0,0,0-0.146-0.713c-1.021-4.99-5.438-8.744-10.729-8.744
			c-6.049,0-10.953,4.902-10.953,10.951c0,1.326-0.598,1.811-2.061,1.811H31.521c-1.217,0-1.906-0.285-2.006-1.865
			c0,0-0.123-1.377-0.258-2.061c-0.986-5.037-5.424-8.836-10.748-8.836c-5.232,0-9.609,3.668-10.693,8.574
			c-0.17,0.766-0.221,1.605-0.221,1.605C7.49,63.88,6.6,64.253,5.51,63.868c0,0-1.834-0.494-3.33-1.957
			c-1.631-1.594-2.176-3.803-2.176-6.014C0.004,51.036,2.295,48.88,5.186,45.425z"/>
		<path fill="#FFB900" d="M93.084,51.155c0-1.596,0.797-3.006,2.012-3.854c0.533,0.824,0.998,1.73,1.41,2.729
			c0.564,1.361,0.939,3.551,0.945,5.813C95.01,55.669,93.084,53.64,93.084,51.155z"/>
	</g>
	<path fill="#FFFFFF" d="M43.096,32.021c0-1.215,0.994-2.211,2.212-2.211l8.051,0.016c2.666,0,4.789,1.084,6.328,2.623
		c0,0,4.074,4.428,5.523,6.086c1.451,1.658,1.021,3.859-1.344,3.859c-2.902,0-18.559,0-18.559,0c-1.218,0-2.212-0.994-2.212-2.211
		V32.021z"/>
	<path fill="#FFFFFF" d="M38.631,32.456c0-1.217-0.982-2.367-2.184-2.557c0,0-4.34-0.689-9.084,1.533
		c-5.752,2.695-6.82,8.777-6.82,8.777c-0.268,1.188,0.51,2.16,1.725,2.16l14.152,0.02c1.215,0.002,2.211-0.99,2.211-2.207V32.456z"
		/>
</g>
</svg>
