<?xml version="1.0" encoding="utf-8"?>
<!-- Generator: Adobe Illustrator 16.0.0, SVG Export Plug-In . SVG Version: 6.00 Build 0)  -->
<!DOCTYPE svg PUBLIC "-//W3C//DTD SVG 1.1//EN" "http://www.w3.org/Graphics/SVG/1.1/DTD/svg11.dtd">
<svg version="1.1" id="Lager_1" xmlns="http://www.w3.org/2000/svg" xmlns:xlink="http://www.w3.org/1999/xlink" x="0px" y="0px"
	 viewBox="0 0 480 480" enable-background="new 0 0 480 480" xml:space="preserve">
<g>
	<path fill="#A0C433" d="M332.518,136.853c-20.829,26.554-21.217,47.332-22.931,89.751c-2.02,50.281-11.893,88.854-73.549,82.518
		c-61.663-6.338-103.81-23.51-133.721-0.535c-17.434,13.396-24.376,24.478-31.962,28.28c0.93,0.364,1.873,0.708,2.86,1.032
		l166.167,54.421c26.039,8.528,54.313-5.796,62.829-31.822l115.95-262.047c-1.191,0.382-2.401,0.735-3.7,1.029
		C390.683,104.808,355.237,107.895,332.518,136.853"/>
	<path fill="#A0C433" d="M67.082,368.568c-0.103-7.822,5.923-12.331,13.395-9.987l219.11,68.319
		c7.465,2.331,13.764,9.49,13.987,15.924c0.223,6.408-5.994,11.682-13.828,11.694l-217.308,0.438
		c-7.822,0.02-14.312-6.362-14.407-14.197L67.082,368.568z"/>
	<path fill="#347943" d="M436.606,68.767c-2.268-21.838-41.317-52.351-98.968-41.437c-50.071,9.474-83.67,54.179-86.301,101.166
		c-2.643,47.167,15.02,70.6,3.083,95.281c-12.313,25.517-44.574,8.503-88.192,1.643c-52.103-8.178-86.376,6.242-105.714,33.218
		c-21.829,30.434-24.452,72.625,0.166,79.09c13.471,3.542,17.497-10.592,41.637-29.147c29.917-22.975,72.064-5.796,133.721,0.536
		c61.649,6.336,71.529-32.236,73.549-82.512c1.714-42.426,2.102-63.197,22.931-89.751c22.72-28.958,58.165-32.039,81.949-37.373
		C430.575,95.865,438.283,84.986,436.606,68.767 M236.478,273.103c-0.854,5.942-6.355,10.076-12.306,9.229l-53.835-7.694
		c-5.943-0.859-10.069-6.363-9.223-12.299c0.854-5.95,6.363-10.078,12.306-9.225l53.835,7.689
		C233.197,261.657,237.325,267.166,236.478,273.103"/>
	<path fill="#A0C433" d="M227.255,260.804l-53.835-7.702c-5.943-0.853-11.452,3.294-12.306,9.224
		c-0.846,5.949,3.28,11.459,9.223,12.313l53.835,7.7c5.95,0.841,11.452-3.286,12.306-9.235
		C237.325,267.166,233.197,261.663,227.255,260.804"/>
</g>
</svg>
