<?xml version="1.0" encoding="utf-8"?>
<!-- Generator: Adobe Illustrator 16.0.0, SVG Export Plug-In . SVG Version: 6.00 Build 0)  -->
<!DOCTYPE svg PUBLIC "-//W3C//DTD SVG 1.1//EN" "http://www.w3.org/Graphics/SVG/1.1/DTD/svg11.dtd">
<svg version="1.1" id="Lager_1" xmlns="http://www.w3.org/2000/svg" xmlns:xlink="http://www.w3.org/1999/xlink" x="0px" y="0px"
	 viewBox="0 0 56.693 56.693" enable-background="new 0 0 56.693 56.693" xml:space="preserve">
<g>
	<path fill="#FFB900" d="M19.121,32.101l-4.248-0.431c-0.374-0.036-0.677,0.245-0.677,0.612v20.186c0,0.332,0.157,0.82,0.35,1.09
		l0.683,0.956c0.202,0.282,0.634,0.505,0.982,0.505h1.553c0.348,0,0.777-0.223,0.98-0.505l0.683-0.956
		c0.193-0.27,0.35-0.759,0.35-1.09l0.002-19.641C19.776,32.464,19.482,32.138,19.121,32.101z"/>
	<g>
		<path fill="none" d="M27.167,15.261c-0.642,0.642-0.805,1.58-0.494,2.374c1.127-0.718,2.071-1.717,2.718-2.919
			C28.631,14.478,27.769,14.659,27.167,15.261z"/>
		<path fill="none" d="M27.586,18.714c0.851,0.516,1.974,0.409,2.708-0.326c0.773-0.773,0.852-1.976,0.24-2.838
			C29.807,16.834,28.79,17.913,27.586,18.714z"/>
		<path fill="none" d="M22.393,18.874c-0.089-0.825-0.787-1.467-1.636-1.467h-2.898c0.566,0.404,1.195,0.74,1.879,0.99
			C20.596,18.708,21.488,18.869,22.393,18.874z"/>
		<path fill="none" d="M15.722,17.407h-2.505c-0.909,0-1.646,0.736-1.646,1.646c0,0.908,0.736,1.644,1.645,1.644h7.541
			c0.432,0,0.821-0.166,1.114-0.437c-0.889-0.054-1.767-0.235-2.613-0.544C17.871,19.211,16.678,18.408,15.722,17.407z"/>
		<path fill="#009FE4" d="M47.285,24.841L36.318,13.873c-1.289-1.287-2.929-2.003-4.611-2.151c-0.468-0.042-0.939-0.039-1.408,0.007
			c-1.65,0.167-3.255,0.88-4.521,2.145c-0.536,0.536-0.972,1.134-1.311,1.771c0.807,0.542,1.452,1.307,1.847,2.205
			c0.122-0.068,0.241-0.14,0.358-0.215c-0.311-0.794-0.147-1.732,0.494-2.374c0.602-0.602,1.464-0.783,2.224-0.545
			c0.331,0.103,0.642,0.284,0.903,0.545c0.09,0.09,0.17,0.188,0.24,0.289c0.611,0.863,0.533,2.065-0.24,2.838
			c-0.734,0.735-1.857,0.842-2.708,0.326c-0.284,0.19-0.58,0.364-0.884,0.521c0.027,0.216,0.044,0.437,0.044,0.661v5.481l10.001,10
			c2.91,2.91,7.627,2.91,10.537,0S50.195,27.751,47.285,24.841z"/>
		<g>
			<path fill="#FFB900" d="M25.62,2.237c-1.027-0.374-2.099-0.563-3.181-0.563c-3.895,0-7.407,2.46-8.74,6.122
				c-0.859,2.362-0.697,4.851,0.259,6.982c0.433,0.965,1.027,1.856,1.764,2.629c0.956,1.001,2.149,1.805,3.536,2.309
				c0.847,0.309,1.725,0.49,2.613,0.544c0.325-0.3,0.531-0.729,0.531-1.207c0-0.061-0.003-0.12-0.01-0.179
				c-0.904-0.005-1.797-0.166-2.655-0.477c-0.684-0.25-1.313-0.585-1.879-0.99c-0.98-0.698-1.771-1.603-2.334-2.629
				c-1.057-1.925-1.314-4.279-0.505-6.502c1.131-3.109,4.113-5.197,7.42-5.197c0.919,0,1.828,0.161,2.699,0.479
				c3.449,1.254,5.494,4.678,5.16,8.172c0.469-0.046,0.94-0.049,1.408-0.007C32.032,7.654,29.634,3.699,25.62,2.237z"/>
			<path fill="#FFB900" d="M29.391,14.716c-0.646,1.202-1.591,2.201-2.718,2.919c-0.117,0.075-0.236,0.146-0.358,0.215
				c0.192,0.434,0.324,0.899,0.388,1.386c0.304-0.158,0.6-0.332,0.884-0.521c1.204-0.802,2.221-1.88,2.948-3.165
				c-0.07-0.101-0.15-0.199-0.24-0.289C30.032,15,29.722,14.818,29.391,14.716z"/>
		</g>
		<path fill="#E6007E" d="M26.702,19.236c-0.063-0.487-0.195-0.952-0.388-1.386c-0.395-0.898-1.04-1.664-1.847-2.205
			c-0.814-0.546-1.793-0.867-2.84-0.867h-6.104c0.563,1.026,1.354,1.931,2.334,2.629h2.898c0.849,0,1.547,0.642,1.636,1.467
			c0.007,0.059,0.01,0.118,0.01,0.179c0,0.478-0.206,0.907-0.531,1.207c-0.293,0.271-0.683,0.437-1.114,0.437h-7.541
			c-0.908,0-1.645-0.736-1.645-1.644c0-0.91,0.736-1.646,1.646-1.646h2.505c-0.736-0.773-1.331-1.664-1.764-2.629h-1.613
			c-2.814,0-5.119,2.303-5.118,5.119v15.511c0,2.814,2.303,5.117,5.118,5.117h9.283c2.815,0,5.119-2.303,5.118-5.117v-10.03v-5.481
			C26.746,19.672,26.729,19.452,26.702,19.236z"/>
	</g>
	<g>
		<circle fill="#FFB900" cx="16.987" cy="31.599" r="3.909"/>
	</g>
	<g>
		<path fill="#7DC8F0" d="M39.05,20.575c0,0,0-0.001-0.002-0.001c-0.002-0.002-0.008-0.004-0.012-0.007
			c-0.951-0.594-2.137-0.561-2.973,0.205c-0.057,0.048-0.113,0.098-0.168,0.152c-0.611,0.612-0.836,1.467-0.684,2.274
			c0.006,0.029,0.012,0.07-0.016,0.094c-0.025,0.028-0.066,0.023-0.094,0.018c-0.807-0.154-1.663,0.071-2.276,0.683
			c-0.053,0.054-0.104,0.109-0.15,0.167c-0.767,0.836-0.8,2.022-0.206,2.974c0.003,0.003,0.005,0.008,0.007,0.012
			c0.001,0,0.002,0.001,0.002,0.002c0.11,0.183,0.245,0.356,0.404,0.514c0.56,0.562,1.25,0.954,2.059,1.16
			c1.168,0.296,2.566,0.194,3.91,0.006c0.781-0.109,1.238-0.225,1.447-0.432c0.215-0.215,0.309-0.653,0.43-1.447
			c0.205-1.34,0.291-2.742-0.006-3.909c-0.205-0.809-0.598-1.499-1.158-2.061C39.406,20.819,39.234,20.686,39.05,20.575z"/>
	</g>
</g>
</svg>
