<?xml version="1.0" encoding="utf-8"?>
<!-- Generator: Adobe Illustrator 16.0.0, SVG Export Plug-In . SVG Version: 6.00 Build 0)  -->
<!DOCTYPE svg PUBLIC "-//W3C//DTD SVG 1.1//EN" "http://www.w3.org/Graphics/SVG/1.1/DTD/svg11.dtd">
<svg version="1.1" id="Lager_1" xmlns="http://www.w3.org/2000/svg" xmlns:xlink="http://www.w3.org/1999/xlink" x="0px" y="0px"
	 viewBox="0 0 70.866 70.866" enable-background="new 0 0 70.866 70.866" xml:space="preserve">
<g>
	<path fill="#E6007E" d="M21.393,28.275c-0.166-0.52-0.429-1.081-0.617-1.461c-0.153-0.329-0.326-0.648-0.519-0.957
		c-0.023-0.039-0.047-0.08-0.07-0.12l-1.855,2.972l-1.83-2.973l-1.836,2.973l-1.847-2.972c-0.036,0.058-0.068,0.117-0.104,0.176
		c-0.17,0.279-0.33,0.566-0.469,0.863c-0.192,0.377-0.465,0.962-0.637,1.499c-0.219,0.678-0.275,1.279-0.275,1.599
		c0,2.858,2.313,5.171,5.167,5.171c0.177,0,0.349-0.01,0.518-0.025c2.61-0.26,4.648-2.462,4.648-5.146
		C21.667,29.554,21.614,28.953,21.393,28.275"/>
	<path fill="#E6007E" d="M30.756,20.803l2.428-3.947l2.441,3.947l2.455-3.946c1.121,1.746,1.81,3.882,1.81,5.652
		c0,3.705-3.003,6.706-6.706,6.706c-3.702,0-6.703-3.001-6.703-6.706c0-1.771,0.688-3.906,1.81-5.652L30.756,20.803z"/>
	<path fill="#E6007E" d="M47.792,18.345c-0.967,1.696-0.522,3.885,1.095,5.059c1.616,1.175,3.833,0.921,5.149-0.521
		c1.315,1.442,3.534,1.696,5.148,0.521c1.617-1.174,2.061-3.362,1.095-5.059c1.78-0.805,2.708-2.836,2.089-4.736
		c-0.618-1.901-2.562-2.999-4.474-2.604c-0.216-1.94-1.86-3.45-3.857-3.45c-1.999,0-3.645,1.509-3.859,3.45
		c-1.913-0.395-3.857,0.704-4.475,2.604C45.086,15.508,46.014,17.541,47.792,18.345"/>
	<path fill="#8C005A" d="M61.917,47.888H8.952c-0.968,0-1.752,0.785-1.752,1.754c0,0.967,0.784,1.752,1.752,1.752h0.234
		l1.465,11.021c0.066,0.492,0.525,0.896,1.022,0.896h47.521c0.497,0,0.956-0.404,1.021-0.896l1.464-11.021h0.236
		c0.967,0,1.75-0.785,1.75-1.752C63.667,48.673,62.883,47.888,61.917,47.888"/>
	<path fill="#F0A5C3" d="M14.666,28.708l1.836-2.973l1.831,2.973l1.854-2.972c0.023,0.039,0.047,0.081,0.07,0.12
		c-0.986-2.049-3.506-5.78-3.756-6.059c0,0-2.345,3.546-3.785,6.113c0.034-0.058,0.066-0.117,0.103-0.175L14.666,28.708z"/>
	<path fill="#FFB900" d="M56.909,16.607c0,1.586-1.286,2.871-2.871,2.871c-1.586,0-2.873-1.285-2.873-2.871s1.287-2.872,2.873-2.872
		C55.623,13.735,56.909,15.021,56.909,16.607"/>
	<g>
		<path fill="#1E6E32" d="M17.426,34.961c-0.134,0.023-0.271,0.045-0.407,0.058c-0.169,0.016-0.341,0.025-0.518,0.025
			c-0.336,0-0.667-0.033-0.988-0.094v5.38c-0.862-0.555-2.229-1.414-3.214-1.941c-0.188-0.102-0.64-0.326-1.047-0.459
			c-0.404-0.133-0.765-0.164-0.956-0.164c-1.711,0-3.096,1.387-3.097,3.092c0,1.711,1.386,3.096,3.097,3.096
			c0.191,0,0.552-0.033,0.956-0.164c0.407-0.129,0.858-0.355,1.047-0.461c0.984-0.525,2.352-1.385,3.214-1.939v6.498h1.913V34.961z"
			/>
		<path fill="#1E6E32" d="M34.175,41.39c0.861,0.555,2.23,1.414,3.213,1.939c0.19,0.105,0.642,0.33,1.048,0.461
			c0.404,0.131,0.765,0.164,0.956,0.164c1.712,0,3.098-1.385,3.098-3.094c-0.002-1.707-1.386-3.094-3.098-3.094
			c-0.191,0-0.552,0.031-0.956,0.164c-0.406,0.133-0.857,0.357-1.048,0.459c-0.983,0.527-2.352,1.387-3.213,1.941V29.142
			c-0.324,0.047-0.654,0.073-0.991,0.073c-0.312,0-0.619-0.023-0.922-0.065v11.181c-0.862-0.555-2.229-1.414-3.213-1.941
			c-0.19-0.102-0.642-0.326-1.048-0.459c-0.405-0.133-0.765-0.164-0.958-0.164c-1.711,0-3.095,1.387-3.096,3.094
			c0,1.709,1.385,3.094,3.096,3.094c0.193,0,0.553-0.033,0.958-0.164c0.406-0.131,0.857-0.355,1.047-0.461
			c0.983-0.525,2.352-1.385,3.214-1.939v6.498h1.913V41.39z"/>
		<path fill="#1E6E32" d="M54.992,41.429c0.862,0.555,2.231,1.414,3.216,1.941c0.189,0.102,0.641,0.33,1.046,0.461
			c0.405,0.129,0.766,0.162,0.957,0.162c1.711,0,3.097-1.383,3.097-3.094c-0.001-1.707-1.386-3.092-3.097-3.092
			c-0.191,0-0.552,0.031-0.957,0.162c-0.405,0.133-0.856,0.359-1.048,0.459c-0.982,0.527-2.352,1.389-3.214,1.941v-9.868
			c0.862,0.555,2.231,1.414,3.216,1.94c0.189,0.104,0.641,0.329,1.046,0.46s0.766,0.164,0.957,0.164
			c1.711,0,3.097-1.385,3.097-3.094c-0.001-1.707-1.386-3.094-3.097-3.094c-0.191,0-0.552,0.032-0.957,0.165
			c-0.405,0.132-0.856,0.357-1.048,0.459c-0.982,0.527-2.352,1.386-3.214,1.94v-5.806c-0.349-0.197-0.674-0.448-0.955-0.756
			c-0.281,0.308-0.605,0.559-0.956,0.756v5.806c-0.862-0.555-2.23-1.413-3.214-1.94c-0.19-0.102-0.641-0.327-1.047-0.459
			c-0.405-0.133-0.766-0.165-0.958-0.165c-1.711,0-3.094,1.387-3.097,3.094c0,1.709,1.386,3.094,3.097,3.094
			c0.192,0,0.553-0.033,0.958-0.164c0.406-0.131,0.856-0.355,1.047-0.46c0.983-0.526,2.352-1.386,3.214-1.939v9.867
			c-0.862-0.553-2.23-1.414-3.214-1.941c-0.19-0.1-0.641-0.326-1.047-0.459c-0.405-0.131-0.766-0.162-0.958-0.162
			c-1.711,0-3.094,1.385-3.097,3.092c0,1.711,1.386,3.094,3.097,3.094c0.192,0,0.553-0.033,0.958-0.162
			c0.406-0.131,0.856-0.359,1.047-0.461c0.983-0.527,2.352-1.387,3.214-1.939v6.457h1.911V41.429z"/>
	</g>
</g>
</svg>
