<?xml version="1.0" encoding="utf-8"?>
<!-- Generator: Adobe Illustrator 16.0.0, SVG Export Plug-In . SVG Version: 6.00 Build 0)  -->
<!DOCTYPE svg PUBLIC "-//W3C//DTD SVG 1.1//EN" "http://www.w3.org/Graphics/SVG/1.1/DTD/svg11.dtd">
<svg version="1.1" id="Lager_1" xmlns="http://www.w3.org/2000/svg" xmlns:xlink="http://www.w3.org/1999/xlink" x="0px" y="0px"
	 viewBox="0 0 70.866 70.866" enable-background="new 0 0 70.866 70.866" xml:space="preserve">
<g>
	<path fill="#E6007E" d="M21.393,28.275c-0.167-0.52-0.428-1.081-0.617-1.461c-0.153-0.329-0.328-0.648-0.518-0.957
		c-0.025-0.039-0.048-0.08-0.071-0.12l-1.856,2.972l-1.828-2.973l-1.837,2.973l-1.846-2.972c-0.038,0.058-0.069,0.117-0.105,0.176
		c-0.17,0.279-0.328,0.566-0.469,0.863c-0.19,0.377-0.465,0.962-0.637,1.499c-0.219,0.678-0.275,1.279-0.275,1.599
		c0,2.858,2.313,5.171,5.169,5.171c0.174,0,0.347-0.01,0.516-0.025c2.61-0.26,4.648-2.462,4.648-5.146
		C21.666,29.554,21.612,28.953,21.393,28.275"/>
	<path fill="#E6007E" d="M30.755,20.803l2.429-3.947l2.441,3.947l2.452-3.946c1.124,1.746,1.813,3.882,1.813,5.652
		c0,3.705-3.003,6.706-6.706,6.706c-3.702,0-6.704-3.001-6.704-6.706c0-1.771,0.688-3.906,1.811-5.652L30.755,20.803z"/>
	<path fill="#E6007E" d="M47.791,18.345c-0.966,1.696-0.521,3.885,1.094,5.059c1.617,1.175,3.834,0.921,5.15-0.521
		c1.315,1.442,3.534,1.696,5.15,0.521c1.615-1.174,2.06-3.362,1.093-5.059c1.779-0.805,2.707-2.836,2.088-4.736
		c-0.617-1.901-2.56-2.999-4.471-2.604c-0.217-1.94-1.862-3.45-3.859-3.45c-1.999,0-3.645,1.509-3.86,3.45
		c-1.912-0.395-3.855,0.704-4.473,2.604C45.085,15.508,46.013,17.541,47.791,18.345"/>
	<path fill="#994916" d="M61.915,47.888H8.951c-0.968,0-1.751,0.785-1.751,1.753s0.783,1.752,1.751,1.752h0.234l1.464,11.022
		c0.065,0.492,0.525,0.896,1.022,0.896h47.521c0.497,0,0.956-0.403,1.022-0.896l1.465-11.022h0.234c0.967,0,1.752-0.784,1.752-1.752
		S62.882,47.888,61.915,47.888"/>
	<path fill="#F0A5C3" d="M14.664,28.708l1.838-2.973l1.828,2.973l1.856-2.972c0.023,0.039,0.046,0.081,0.071,0.12
		c-0.989-2.049-3.509-5.78-3.756-6.059c0,0-2.346,3.546-3.788,6.113c0.036-0.058,0.067-0.117,0.105-0.175L14.664,28.708z"/>
	<path fill="#FFB900" d="M56.907,16.607c0,1.586-1.285,2.871-2.871,2.871c-1.588,0-2.873-1.285-2.873-2.871s1.285-2.872,2.873-2.872
		C55.622,13.735,56.907,15.021,56.907,16.607"/>
	<g>
		<path fill="#B0CB0B" d="M17.425,34.961c-0.135,0.023-0.27,0.045-0.407,0.058c-0.169,0.016-0.342,0.025-0.516,0.025
			c-0.339,0-0.669-0.033-0.989-0.094v5.38c-0.861-0.554-2.23-1.413-3.214-1.94c-0.19-0.102-0.641-0.326-1.047-0.459
			c-0.405-0.133-0.767-0.164-0.957-0.164c-1.711,0-3.095,1.387-3.096,3.092c0,1.711,1.385,3.096,3.096,3.096
			c0.19,0,0.552-0.034,0.957-0.164c0.406-0.13,0.856-0.356,1.047-0.461c0.983-0.526,2.353-1.386,3.214-1.939v6.498h1.912V34.961z"/>
		<path fill="#B0CB0B" d="M34.173,41.39c0.863,0.554,2.231,1.413,3.215,1.939c0.19,0.104,0.641,0.33,1.047,0.461
			c0.405,0.13,0.765,0.164,0.956,0.164c1.712,0,3.098-1.385,3.098-3.095c-0.002-1.706-1.386-3.093-3.098-3.093
			c-0.191,0-0.551,0.031-0.956,0.164c-0.406,0.133-0.856,0.357-1.048,0.459c-0.982,0.527-2.352,1.387-3.214,1.94V29.142
			c-0.322,0.047-0.653,0.073-0.989,0.073c-0.313,0-0.62-0.023-0.922-0.065v11.181c-0.863-0.554-2.23-1.413-3.214-1.94
			c-0.19-0.102-0.641-0.326-1.048-0.459c-0.404-0.133-0.765-0.164-0.957-0.164c-1.71,0-3.096,1.387-3.097,3.093
			c0,1.71,1.387,3.095,3.097,3.095c0.192,0,0.553-0.034,0.957-0.164c0.407-0.131,0.857-0.356,1.047-0.461
			c0.984-0.526,2.352-1.386,3.215-1.939v6.498h1.911V41.39z"/>
		<path fill="#B0CB0B" d="M54.991,41.429c0.862,0.555,2.231,1.414,3.215,1.94c0.189,0.103,0.641,0.331,1.046,0.461
			s0.766,0.163,0.958,0.163c1.711,0,3.095-1.384,3.095-3.095c0-1.707-1.384-3.092-3.095-3.092c-0.192,0-0.553,0.032-0.958,0.163
			c-0.405,0.132-0.856,0.358-1.047,0.459c-0.982,0.527-2.352,1.388-3.214,1.94v-9.867c0.862,0.555,2.231,1.414,3.215,1.94
			c0.189,0.104,0.641,0.329,1.046,0.46s0.766,0.164,0.958,0.164c1.711,0,3.095-1.385,3.095-3.094c0-1.707-1.384-3.094-3.095-3.094
			c-0.192,0-0.553,0.032-0.958,0.165c-0.405,0.132-0.856,0.357-1.047,0.459c-0.982,0.527-2.352,1.386-3.214,1.94v-5.806
			c-0.35-0.197-0.675-0.448-0.956-0.756c-0.281,0.308-0.606,0.559-0.955,0.756v5.806c-0.863-0.555-2.232-1.413-3.215-1.94
			c-0.189-0.102-0.641-0.327-1.048-0.459c-0.403-0.133-0.765-0.165-0.956-0.165c-1.71,0-3.095,1.387-3.097,3.094
			c0,1.709,1.387,3.094,3.097,3.094c0.191,0,0.553-0.033,0.956-0.164c0.407-0.131,0.858-0.355,1.047-0.46
			c0.983-0.526,2.352-1.386,3.216-1.939v9.866c-0.863-0.553-2.232-1.413-3.215-1.94c-0.189-0.101-0.641-0.327-1.048-0.459
			c-0.403-0.131-0.765-0.163-0.956-0.163c-1.71,0-3.095,1.385-3.097,3.092c0,1.711,1.387,3.095,3.097,3.095
			c0.191,0,0.553-0.033,0.956-0.163c0.407-0.13,0.858-0.358,1.047-0.461c0.983-0.526,2.352-1.386,3.216-1.939v6.458h1.911V41.429z"
			/>
	</g>
</g>
</svg>
