<?xml version="1.0" encoding="utf-8"?>
<!-- Generator: Adobe Illustrator 16.0.0, SVG Export Plug-In . SVG Version: 6.00 Build 0)  -->
<!DOCTYPE svg PUBLIC "-//W3C//DTD SVG 1.1//EN" "http://www.w3.org/Graphics/SVG/1.1/DTD/svg11.dtd">
<svg version="1.1" id="Lager_1" xmlns="http://www.w3.org/2000/svg" xmlns:xlink="http://www.w3.org/1999/xlink" x="0px" y="0px"
	 viewBox="0 0 95.215 95.215" enable-background="new 0 0 95.215 95.215" xml:space="preserve">
<g>
	<g>
		<path fill="#994916" d="M57.046,62.605h-19.13c-1.274,0-2.31,1.033-2.31,2.309c0,1.277,1.035,2.311,2.31,2.311h0.309l1.931,14.525
			c0.086,0.65,0.692,1.18,1.347,1.18H53.46c0.656,0,1.262-0.529,1.348-1.18l1.93-14.525h0.309c1.275,0,2.311-1.033,2.311-2.311
			C59.357,63.638,58.322,62.605,57.046,62.605z"/>
	</g>
	<path fill="#E6007E" d="M53.929,12.313c-0.035,0.051-0.111,0.178-0.111,0.178l-1.467,2.347l-1.467,2.348l0,0
		c-0.086,0.138-0.227,0.138-0.313,0l-1.445-2.348l-1.445-2.348v0c-0.086-0.139-0.227-0.139-0.313,0l-1.451,2.348l-1.451,2.348
		c-0.086,0.139-0.229,0.139-0.314,0l-1.458-2.348c0,0-1.495-2.406-1.546-2.485c-0.051-0.078-0.117-0.043-0.141-0.006
		c-1.438,2.281-2.316,5.044-2.316,7.342c0,4.88,3.955,8.836,8.836,8.836c4.879,0,8.836-3.956,8.836-8.836
		c0-2.306-0.887-5.08-2.332-7.366C54.011,12.295,53.964,12.262,53.929,12.313z"/>
	<path fill="#B0CB0B" d="M52.978,41.83c0.25,0.135,0.846,0.436,1.379,0.605c0.535,0.174,1.01,0.217,1.262,0.217
		c2.256,0,4.082-1.824,4.082-4.079c-0.002-2.25-1.826-4.076-4.082-4.076c-0.252,0-0.727,0.043-1.262,0.217
		c-0.533,0.174-1.129,0.473-1.379,0.605c-1.295,0.694-3.1,1.827-4.236,2.558V28.44c-0.396,0.054-0.803,0.085-1.215,0.085
		c-0.443,0-0.879-0.034-1.305-0.096v9.447c-1.137-0.73-2.94-1.862-4.236-2.557c-0.251-0.133-0.845-0.432-1.38-0.605
		c-0.534-0.174-1.008-0.217-1.261-0.217c-2.256,0-4.08,1.826-4.082,4.076c0,2.254,1.826,4.079,4.082,4.079
		c0.253,0,0.727-0.043,1.261-0.217c0.535-0.17,1.129-0.471,1.38-0.605c1.296-0.693,3.099-1.826,4.236-2.557v13.004
		c-1.137-0.73-2.94-1.863-4.236-2.559c-0.251-0.133-0.845-0.432-1.38-0.605c-0.534-0.172-1.008-0.215-1.261-0.215
		c-2.256,0-4.08,1.826-4.082,4.076c0,2.254,1.826,4.078,4.082,4.078c0.253,0,0.727-0.045,1.261-0.217
		c0.535-0.17,1.129-0.471,1.38-0.607c1.296-0.691,3.099-1.826,4.236-2.555v8.932h2.52v-8.932c1.137,0.729,2.941,1.863,4.236,2.555
		c0.25,0.137,0.846,0.438,1.379,0.607c0.535,0.172,1.01,0.217,1.262,0.217c2.256,0,4.082-1.824,4.082-4.078
		c-0.002-2.25-1.826-4.076-4.082-4.076c-0.252,0-0.727,0.043-1.262,0.215c-0.533,0.174-1.129,0.473-1.379,0.605
		c-1.295,0.695-3.1,1.828-4.236,2.559V39.272C49.878,40.003,51.683,41.136,52.978,41.83z"/>
</g>
<g>
	<g>
		<g>
			<path fill="#FFB900" d="M74.769,40.238c-1.273,2.236-0.689,5.119,1.441,6.668c2.131,1.547,5.053,1.213,6.787-0.689
				c1.734,1.902,4.656,2.236,6.787,0.689c2.129-1.549,2.715-4.432,1.441-6.668c2.344-1.061,3.566-3.737,2.752-6.24
				c-0.814-2.506-3.375-3.954-5.895-3.433c-0.285-2.557-2.453-4.547-5.086-4.547s-4.803,1.99-5.086,4.547
				c-2.52-0.521-5.082,0.927-5.896,3.433C71.203,36.5,72.425,39.177,74.769,40.238z"/>
		</g>
		<g>
			<circle fill="#FFE57E" cx="82.998" cy="37.947" r="3.785"/>
		</g>
		<g>
			<path fill="#994916" d="M92.562,62.605H73.431c-1.273,0-2.309,1.033-2.309,2.309c0,1.277,1.035,2.311,2.309,2.311h0.309
				l1.932,14.525c0.086,0.65,0.691,1.18,1.348,1.18h11.957c0.656,0,1.262-0.529,1.348-1.18l1.93-14.525h0.309
				c1.275,0,2.311-1.033,2.311-2.311C94.873,63.638,93.837,62.605,92.562,62.605z"/>
		</g>
	</g>
	<path fill="#B0CB0B" d="M84.257,55.3c1.139,0.73,2.941,1.863,4.236,2.557c0.252,0.135,0.846,0.436,1.379,0.607
		c0.535,0.172,1.01,0.215,1.262,0.215c2.256,0,4.082-1.824,4.082-4.078c-0.002-2.248-1.826-4.076-4.082-4.076
		c-0.252,0-0.727,0.043-1.262,0.217c-0.533,0.174-1.127,0.473-1.379,0.605c-1.295,0.693-3.098,1.826-4.236,2.557V47.22
		c-0.463-0.26-0.889-0.596-1.26-1.004c-0.371,0.408-0.799,0.744-1.26,1.004v6.684c-1.137-0.73-2.939-1.863-4.236-2.557
		c-0.25-0.133-0.844-0.432-1.379-0.605c-0.533-0.174-1.01-0.217-1.262-0.217c-2.254,0-4.08,1.828-4.08,4.076
		c0,2.254,1.826,4.078,4.08,4.078c0.252,0,0.729-0.043,1.262-0.215c0.535-0.172,1.129-0.473,1.379-0.607
		c1.297-0.693,3.1-1.826,4.236-2.557v7.305h2.52V55.3z"/>
</g>
<g>
	<g>
		<path fill="none" d="M7.405,31.731c-0.03,0.049-0.06,0.099-0.088,0.149c0,0,0,0,0.001-0.001c0.015-0.022,0.046-0.072,0.09-0.144
			L7.405,31.731z"/>
		<polygon fill="#E690B4" points="14.515,35.396 14.515,35.396 13.465,33.689 		"/>
		<polygon fill="#E690B4" points="7.313,31.888 7.318,31.879 7.317,31.88 		"/>
		<path fill="#E690B4" d="M7.318,31.879c0.031-0.038,0.162-0.029,0.244,0.104l-0.154-0.248C7.364,31.808,7.333,31.857,7.318,31.879z
			"/>
		<polygon fill="#E690B4" points="9.682,35.396 9.682,35.396 8.622,33.689 		"/>
		<path fill="#E690B4" d="M14.827,35.396C14.827,35.396,14.827,35.396,14.827,35.396l2.131-3.413
			c0.084-0.137,0.169-0.225,0.187-0.199c-0.005-0.008-0.015-0.024-0.031-0.051L14.827,35.396z"/>
		<path fill="#E690B4" d="M11.05,33.689l1.055-1.707c0.086-0.139,0.226-0.139,0.311,0L12.26,31.73L11.05,33.689z"/>
		<path fill="#E690B4" d="M17.146,31.785C17.146,31.785,17.146,31.785,17.146,31.785C17.15,31.792,17.151,31.794,17.146,31.785z"/>
		<polygon fill="#E690B4" points="7.563,31.984 8.622,33.689 7.563,31.984 		"/>
		<path fill="#E690B4" d="M14.515,35.396l0.155,0.253l0.157-0.252C14.741,35.534,14.601,35.534,14.515,35.396z"/>
		<polygon fill="#E690B4" points="12.415,31.983 13.465,33.689 12.416,31.983 		"/>
		<path fill="#E690B4" d="M9.682,35.396l0.157,0.253l1.211-1.959l-1.055,1.706C9.91,35.534,9.769,35.534,9.682,35.396z"/>
		<path fill="#F0A5C3" d="M12.439,24.176l-0.016-0.024c-0.002-0.001-0.003-0.003-0.004-0.005c-0.09-0.128-0.229-0.128-0.319,0
			c-0.001,0.001-0.003,0.003-0.004,0.005l-0.016,0.024c-0.683,1.04-3.184,4.886-4.812,7.786c0.015-0.024,0.028-0.049,0.043-0.074
			c-0.005,0.007-0.007,0.009,0.001-0.004c0-0.001,0.003-0.002,0.004-0.003c0.028-0.05,0.058-0.1,0.088-0.149l0.003,0.004
			l0.154,0.248l1.06,1.706l1.06,1.706c0.087,0.139,0.229,0.139,0.313,0l1.055-1.706l1.21-1.959l0.155,0.253l0.001,0l1.049,1.706
			l1.05,1.706c0.086,0.139,0.227,0.139,0.313,0.001l2.286-3.663l0.002-0.002c0.032,0.052,0.062,0.106,0.094,0.158
			C15.578,28.999,13.116,25.209,12.439,24.176z"/>
		<path fill="#E690B4" d="M7.313,31.884c-0.008,0.013-0.006,0.011-0.001,0.004c0.001-0.002,0.003-0.005,0.005-0.007
			C7.316,31.882,7.313,31.883,7.313,31.884z"/>
	</g>
	<g>
		<path fill="#E6007E" d="M18.705,35.076c-0.22-0.684-0.564-1.427-0.813-1.925c-0.202-0.434-0.432-0.855-0.683-1.262
			c-0.032-0.052-0.062-0.106-0.094-0.158l-2.445,3.917l-2.41-3.918l-2.421,3.918l-2.434-3.917c-0.048,0.075-0.09,0.153-0.136,0.23
			c-0.226,0.368-0.436,0.749-0.619,1.14c-0.253,0.497-0.612,1.267-0.839,1.975c-0.289,0.894-0.362,1.686-0.362,2.105
			c0,3.767,3.049,6.816,6.811,6.816c0.23,0,0.457-0.012,0.682-0.033c3.438-0.342,6.125-3.246,6.125-6.783
			C19.066,36.762,18.996,35.97,18.705,35.076z"/>
	</g>
	<g>
		<g>
			<path fill="#994916" d="M21.782,62.605H2.651c-1.274,0-2.31,1.033-2.31,2.309c0,1.277,1.035,2.311,2.31,2.311H2.96L4.892,81.75
				c0.085,0.65,0.691,1.18,1.346,1.18h11.959c0.655,0,1.261-0.529,1.347-1.18l1.931-14.525h0.309c1.275,0,2.31-1.033,2.31-2.311
				C24.092,63.638,23.058,62.605,21.782,62.605z"/>
		</g>
	</g>
	<path fill="#B0CB0B" d="M13.477,43.886c-0.177,0.033-0.354,0.061-0.535,0.078c-0.225,0.021-0.451,0.033-0.682,0.033
		c-0.445,0-0.88-0.043-1.303-0.125v8.771c-1.136-0.73-2.939-1.863-4.235-2.557c-0.251-0.133-0.846-0.432-1.38-0.605
		c-0.535-0.174-1.008-0.217-1.261-0.217c-2.256,0-4.08,1.826-4.082,4.076c0,2.254,1.826,4.078,4.082,4.078
		c0.253,0,0.726-0.043,1.261-0.215c0.534-0.172,1.129-0.473,1.38-0.607c1.296-0.693,3.1-1.826,4.235-2.557v8.564h2.52V43.886z"/>
</g>
</svg>
