<?xml version="1.0" encoding="utf-8"?>
<!-- Generator: Adobe Illustrator 16.0.0, SVG Export Plug-In . SVG Version: 6.00 Build 0)  -->
<!DOCTYPE svg PUBLIC "-//W3C//DTD SVG 1.1//EN" "http://www.w3.org/Graphics/SVG/1.1/DTD/svg11.dtd">
<svg version="1.1" id="Lager_1" xmlns="http://www.w3.org/2000/svg" xmlns:xlink="http://www.w3.org/1999/xlink" x="0px" y="0px"
	 viewBox="0 0 68.032 68.031" enable-background="new 0 0 68.032 68.031" xml:space="preserve">
<g>
	<path fill="#FFB900" d="M11.46,43.024c-3.491,6.135-1.887,14.037,3.951,18.277c5.841,4.24,13.853,3.325,18.608-1.885
		c4.751,5.21,12.76,6.131,18.602,1.885c5.838-4.24,7.441-12.143,3.953-18.272c6.422-2.912,9.777-10.247,7.541-17.105
		c-2.232-6.869-9.251-10.836-16.154-9.412C47.175,9.503,41.236,4.048,34.019,4.048c-7.217,0-13.166,5.456-13.942,12.464
		c-6.907-1.424-13.931,2.543-16.163,9.412C1.684,32.782,5.036,40.117,11.46,43.024z"/>
</g>
<g>
	<circle fill="#FFE57E" cx="34.018" cy="36.749" r="10.375"/>
</g>
</svg>
