<?xml version="1.0" encoding="utf-8"?>
<!-- Generator: Adobe Illustrator 16.0.0, SVG Export Plug-In . SVG Version: 6.00 Build 0)  -->
<!DOCTYPE svg PUBLIC "-//W3C//DTD SVG 1.1//EN" "http://www.w3.org/Graphics/SVG/1.1/DTD/svg11.dtd">
<svg version="1.1" id="Lager_1" xmlns="http://www.w3.org/2000/svg" xmlns:xlink="http://www.w3.org/1999/xlink" x="0px" y="0px"
	 viewBox="0 0 70.64 70.639" enable-background="new 0 0 70.64 70.639" xml:space="preserve">
<g>
	<g>
		<path fill="#994916" d="M44.884,50.317h-19.13c-1.274,0-2.31,1.033-2.31,2.309c0,1.277,1.035,2.311,2.31,2.311h0.309l1.931,14.525
			c0.086,0.65,0.692,1.18,1.347,1.18h11.958c0.656,0,1.262-0.529,1.348-1.18l1.93-14.525h0.309c1.275,0,2.311-1.033,2.311-2.311
			C47.194,51.35,46.159,50.317,44.884,50.317z"/>
	</g>
	<path fill="#E6007E" d="M41.767,0.025c-0.035,0.051-0.111,0.178-0.111,0.178L40.188,2.55l-1.467,2.348l0,0
		c-0.086,0.138-0.227,0.138-0.313,0L36.964,2.55l-1.445-2.348v0c-0.086-0.139-0.227-0.139-0.313,0L33.755,2.55l-1.451,2.348
		c-0.086,0.139-0.229,0.139-0.314,0L30.531,2.55c0,0-1.495-2.406-1.546-2.485c-0.051-0.078-0.117-0.043-0.141-0.006
		c-1.438,2.281-2.316,5.044-2.316,7.342c0,4.88,3.955,8.836,8.836,8.836c4.879,0,8.836-3.956,8.836-8.836
		c0-2.306-0.887-5.08-2.332-7.366C41.849,0.007,41.802-0.026,41.767,0.025z"/>
	<path fill="#B0CB0B" d="M40.815,29.542c0.25,0.135,0.846,0.436,1.379,0.605c0.535,0.174,1.01,0.217,1.262,0.217
		c2.256,0,4.082-1.824,4.082-4.079c-0.002-2.25-1.826-4.076-4.082-4.076c-0.252,0-0.727,0.043-1.262,0.217
		c-0.533,0.174-1.129,0.473-1.379,0.605c-1.295,0.694-3.1,1.827-4.236,2.558v-9.437c-0.396,0.054-0.803,0.085-1.215,0.085
		c-0.443,0-0.879-0.034-1.305-0.096v9.447c-1.137-0.73-2.94-1.862-4.236-2.557c-0.251-0.133-0.845-0.432-1.38-0.605
		c-0.534-0.174-1.008-0.217-1.261-0.217c-2.256,0-4.08,1.826-4.082,4.076c0,2.254,1.826,4.079,4.082,4.079
		c0.253,0,0.727-0.043,1.261-0.217c0.535-0.17,1.129-0.471,1.38-0.605c1.296-0.693,3.099-1.826,4.236-2.557v13.004
		c-1.137-0.73-2.94-1.863-4.236-2.559c-0.251-0.133-0.845-0.432-1.38-0.605c-0.534-0.172-1.008-0.215-1.261-0.215
		c-2.256,0-4.08,1.826-4.082,4.076c0,2.254,1.826,4.078,4.082,4.078c0.253,0,0.727-0.045,1.261-0.217
		c0.535-0.17,1.129-0.471,1.38-0.607c1.296-0.691,3.099-1.826,4.236-2.555v8.932h2.52v-8.932c1.137,0.729,2.941,1.863,4.236,2.555
		c0.25,0.137,0.846,0.438,1.379,0.607c0.535,0.172,1.01,0.217,1.262,0.217c2.256,0,4.082-1.824,4.082-4.078
		c-0.002-2.25-1.826-4.076-4.082-4.076c-0.252,0-0.727,0.043-1.262,0.215c-0.533,0.174-1.129,0.473-1.379,0.605
		c-1.295,0.695-3.1,1.828-4.236,2.559V26.984C37.716,27.715,39.521,28.848,40.815,29.542z"/>
</g>
</svg>
