<?xml version="1.0" encoding="utf-8"?>
<!-- Generator: Adobe Illustrator 16.0.0, SVG Export Plug-In . SVG Version: 6.00 Build 0)  -->
<!DOCTYPE svg PUBLIC "-//W3C//DTD SVG 1.1//EN" "http://www.w3.org/Graphics/SVG/1.1/DTD/svg11.dtd">
<svg version="1.1" id="Lager_1" xmlns="http://www.w3.org/2000/svg" xmlns:xlink="http://www.w3.org/1999/xlink" x="0px" y="0px"
	 viewBox="0 0 71.234 71.235" enable-background="new 0 0 71.234 71.235" xml:space="preserve">
<g>
	<path fill="#B0CB0B" d="M23.287,27.074l3.23,9.753c-1.339-0.343-3.456-0.863-4.938-1.121c-0.287-0.049-0.96-0.146-1.536-0.145
		c-0.575,0.004-1.05,0.115-1.295,0.196c-2.191,0.726-3.376,3.088-2.653,5.274c0.725,2.189,3.086,3.375,5.277,2.648
		c0.246-0.081,0.693-0.276,1.156-0.615c0.465-0.338,0.946-0.82,1.145-1.033c1.037-1.092,2.425-2.771,3.294-3.848l5.476,16.538
		l2.449-0.811l-9.157-27.648L23.287,27.074z"/>
	<path fill="#B0CB0B" d="M46.759,27.074l-3.23,9.753c1.34-0.343,3.457-0.863,4.939-1.121c0.287-0.049,0.961-0.146,1.536-0.145
		c0.574,0.004,1.05,0.115,1.295,0.196c2.191,0.726,3.376,3.088,2.653,5.274c-0.725,2.189-3.086,3.375-5.277,2.648
		c-0.246-0.081-0.693-0.276-1.156-0.615c-0.465-0.338-0.945-0.82-1.145-1.033c-1.037-1.092-2.426-2.771-3.295-3.848l-5.477,16.538
		l-2.447-0.811l9.156-27.648L46.759,27.074z"/>
	<path fill="#7DC8F0" d="M20.501,22.305l1.092-4.587l3.604,3.032l1.114-4.593c0.049,0.04,0.095,0.083,0.143,0.124
		c-2.134-2.204-6.943-5.915-7.379-6.167c0,0-1.5,5.537-2.257,9.436c0.02-0.089,0.036-0.179,0.059-0.268L20.501,22.305z"/>
	<path fill="#009FE4" d="M28.934,18.896c-0.435-0.594-1.008-1.205-1.411-1.608c-0.336-0.357-0.694-0.693-1.069-1.007
		c-0.048-0.04-0.094-0.083-0.143-0.123l-1.115,4.593l-3.603-3.033l-1.091,4.587l-3.625-3.023c-0.022,0.089-0.039,0.178-0.059,0.268
		c-0.1,0.43-0.182,0.867-0.233,1.306c-0.086,0.564-0.188,1.428-0.182,2.189c0.008,0.961,0.192,1.755,0.326,2.163
		c1.212,3.66,5.156,5.643,8.813,4.432c0.224-0.073,0.44-0.159,0.65-0.252c3.232-1.439,4.908-5.125,3.771-8.562
		C29.826,20.417,29.502,19.67,28.934,18.896"/>
	<polygon fill="#B0CB0B" points="36.308,31.665 36.308,13.438 33.728,13.438 33.728,31.665 33.728,33.094 33.728,65.495 
		36.308,65.495 36.308,33.094 	"/>
	<path fill="#009FE4" d="M31.696,5.322l3.275-5.324l3.293,5.324l3.311-5.323c1.514,2.356,2.442,5.236,2.442,7.627
		c0,4.995-4.05,9.044-9.046,9.044c-4.995,0-9.044-4.049-9.044-9.044c0-2.391,0.929-5.271,2.443-7.627L31.696,5.322z"/>
	<path fill="#E6007E" d="M49.731,17.246c-0.504,0.254-1.059,0.803-1.594,1.46c-0.041-0.847-0.158-1.617-0.412-2.122
		c-0.962-1.909-3.298-2.68-5.207-1.718c-1.91,0.961-2.68,3.297-1.719,5.206c0.254,0.505,0.803,1.059,1.459,1.595
		c-0.846,0.04-1.615,0.158-2.121,0.412c-1.908,0.962-2.68,3.297-1.717,5.207c0.962,1.909,3.297,2.681,5.206,1.718
		c0.505-0.254,1.058-0.803,1.595-1.459c0.04,0.846,0.156,1.616,0.412,2.121c0.961,1.91,3.297,2.681,5.206,1.719
		c1.91-0.963,2.681-3.298,1.719-5.208c-0.255-0.505-0.804-1.058-1.46-1.593c0.847-0.04,1.617-0.158,2.122-0.413
		c1.909-0.962,2.68-3.297,1.718-5.207C53.977,17.055,51.641,16.284,49.731,17.246z"/>
	<circle fill="#FFB900" cx="46.679" cy="23.126" r="3.352"/>
	<path fill="#7DC8F0" d="M41.341,50.588c-0.271-0.199-0.408-0.623-0.302-0.943l1.848-5.582c0.106-0.319-0.083-0.582-0.421-0.582
		H27.58c-0.337,0-0.526,0.263-0.42,0.582l1.832,5.532c0.106,0.321-0.032,0.742-0.307,0.938c0,0-1.489,1.059-2.283,1.978
		c-1.716,1.983-2.754,4.571-2.754,7.4c0,6.255,5.071,11.325,11.325,11.325c6.256,0,11.326-5.07,11.326-11.325
		c0-2.743-0.975-5.257-2.598-7.216C42.896,51.722,41.341,50.588,41.341,50.588z"/>
</g>
</svg>
