<?xml version="1.0" encoding="utf-8"?>
<!-- Generator: Adobe Illustrator 16.0.0, SVG Export Plug-In . SVG Version: 6.00 Build 0)  -->
<!DOCTYPE svg PUBLIC "-//W3C//DTD SVG 1.1//EN" "http://www.w3.org/Graphics/SVG/1.1/DTD/svg11.dtd">
<svg version="1.1" id="Lager_1" xmlns="http://www.w3.org/2000/svg" xmlns:xlink="http://www.w3.org/1999/xlink" x="0px" y="0px"
	 viewBox="0 0 71.234 71.235" enable-background="new 0 0 71.234 71.235" xml:space="preserve">
<g>
	<path fill="#1E6E32" d="M23.286,27.074l3.23,9.753c-1.339-0.343-3.456-0.864-4.938-1.122c-0.287-0.048-0.961-0.146-1.537-0.144
		c-0.574,0.003-1.049,0.114-1.295,0.196c-2.19,0.726-3.376,3.088-2.654,5.273c0.726,2.189,3.087,3.375,5.278,2.649
		c0.246-0.081,0.693-0.276,1.156-0.616c0.465-0.338,0.946-0.82,1.145-1.033c1.037-1.091,2.425-2.771,3.294-3.848l5.477,16.539
		l2.447-0.811l-9.156-27.649L23.286,27.074z"/>
	<path fill="#1E6E32" d="M46.76,27.074l-3.23,9.753c1.338-0.343,3.455-0.864,4.938-1.122c0.287-0.048,0.961-0.146,1.537-0.144
		c0.574,0.003,1.049,0.114,1.295,0.196c2.191,0.726,3.376,3.088,2.653,5.273c-0.726,2.189-3.087,3.375-5.278,2.649
		c-0.244-0.081-0.692-0.276-1.155-0.616c-0.465-0.338-0.946-0.82-1.146-1.033c-1.037-1.091-2.424-2.771-3.293-3.848l-5.477,16.539
		l-2.449-0.811l9.156-27.649L46.76,27.074z"/>
	<path fill="#7DC8F0" d="M20.501,22.305l1.092-4.587l3.604,3.032l1.114-4.593c0.049,0.04,0.095,0.083,0.143,0.124
		c-2.133-2.204-6.943-5.915-7.379-6.167c0,0-1.499,5.537-2.256,9.436c0.02-0.089,0.036-0.179,0.058-0.268L20.501,22.305z"/>
	<path fill="#009FE4" d="M28.933,18.896c-0.435-0.594-1.008-1.205-1.411-1.608c-0.336-0.357-0.694-0.693-1.069-1.007
		c-0.048-0.04-0.094-0.083-0.143-0.123l-1.115,4.593l-3.603-3.033l-1.091,4.587l-3.625-3.023c-0.022,0.089-0.039,0.178-0.059,0.268
		c-0.1,0.43-0.181,0.867-0.233,1.306c-0.086,0.564-0.188,1.428-0.182,2.189c0.008,0.961,0.191,1.755,0.326,2.163
		c1.212,3.661,5.156,5.643,8.813,4.432c0.224-0.073,0.44-0.159,0.65-0.253c3.232-1.438,4.908-5.125,3.77-8.562
		C29.826,20.418,29.502,19.671,28.933,18.896"/>
	<polygon fill="#1E6E32" points="36.307,31.665 36.307,13.438 33.729,13.438 33.729,31.666 33.729,33.094 33.729,65.495 
		36.307,65.495 36.307,33.094 	"/>
	<path fill="#009FE4" d="M31.695,5.322l3.277-5.324l3.293,5.324L41.574,0c1.515,2.356,2.443,5.236,2.443,7.627
		c0,4.995-4.051,9.044-9.045,9.044c-4.996,0-9.045-4.049-9.045-9.044c0-2.391,0.929-5.271,2.443-7.627L31.695,5.322z"/>
	<path fill="#E6007E" d="M49.731,17.247c-0.505,0.254-1.058,0.803-1.594,1.46c-0.04-0.847-0.158-1.617-0.413-2.122
		c-0.961-1.909-3.297-2.68-5.207-1.718c-1.908,0.961-2.68,3.297-1.717,5.206c0.254,0.505,0.803,1.059,1.459,1.595
		c-0.848,0.04-1.617,0.158-2.121,0.412c-1.91,0.962-2.68,3.297-1.719,5.208c0.963,1.908,3.298,2.68,5.207,1.718
		c0.505-0.254,1.058-0.804,1.594-1.46c0.041,0.847,0.158,1.617,0.412,2.121c0.963,1.91,3.299,2.682,5.207,1.719
		c1.91-0.962,2.681-3.297,1.719-5.208c-0.254-0.505-0.803-1.058-1.46-1.593c0.847-0.04,1.616-0.158,2.122-0.413
		c1.908-0.962,2.68-3.297,1.718-5.207C53.977,17.056,51.641,16.284,49.731,17.247z"/>
	<circle fill="#FFB900" cx="46.68" cy="23.127" r="3.352"/>
	<path fill="#E6007E" d="M41.342,50.588c-0.273-0.199-0.409-0.623-0.303-0.943l1.848-5.581c0.105-0.319-0.083-0.582-0.42-0.582
		H27.58c-0.337,0-0.526,0.263-0.42,0.582l1.832,5.532c0.106,0.32-0.033,0.74-0.309,0.936c0,0-1.369,0.963-2.13,1.809
		c-1.806,2.006-2.905,4.66-2.905,7.572c0,6.254,5.07,11.324,11.326,11.324c6.254,0,11.324-5.07,11.324-11.324
		c0-2.771-0.996-5.311-2.648-7.279C42.854,51.686,41.342,50.588,41.342,50.588z"/>
</g>
</svg>
