<?xml version="1.0" encoding="utf-8"?>
<!-- Generator: Adobe Illustrator 16.0.0, SVG Export Plug-In . SVG Version: 6.00 Build 0)  -->
<!DOCTYPE svg PUBLIC "-//W3C//DTD SVG 1.1//EN" "http://www.w3.org/Graphics/SVG/1.1/DTD/svg11.dtd">
<svg version="1.1" id="Lager_1" xmlns="http://www.w3.org/2000/svg" xmlns:xlink="http://www.w3.org/1999/xlink" x="0px" y="0px"
	 viewBox="0 0 71.234 71.235" enable-background="new 0 0 71.234 71.235" xml:space="preserve">
<g>
	<path fill="#B0CB0B" d="M23.287,27.074l3.23,9.754c-1.339-0.344-3.456-0.865-4.938-1.122c-0.287-0.048-0.96-0.146-1.536-0.144
		c-0.574,0.002-1.05,0.114-1.295,0.195c-2.191,0.727-3.376,3.088-2.654,5.274c0.726,2.188,3.087,3.375,5.278,2.649
		c0.246-0.082,0.693-0.277,1.156-0.616c0.465-0.338,0.946-0.82,1.145-1.033c1.038-1.091,2.426-2.772,3.294-3.848l5.477,16.538
		l2.448-0.811l-9.157-27.648L23.287,27.074z"/>
	<path fill="#B0CB0B" d="M46.76,27.074l-3.23,9.754c1.339-0.344,3.456-0.865,4.938-1.122c0.287-0.048,0.961-0.146,1.536-0.144
		c0.575,0.002,1.05,0.114,1.295,0.195c2.191,0.727,3.376,3.088,2.653,5.274c-0.725,2.188-3.086,3.375-5.277,2.649
		c-0.245-0.082-0.693-0.277-1.156-0.616c-0.465-0.338-0.945-0.82-1.145-1.033c-1.037-1.091-2.425-2.772-3.295-3.848l-5.477,16.538
		l-2.447-0.811l9.156-27.648L46.76,27.074z"/>
	<path fill="#F0A5C3" d="M20.501,22.305l1.092-4.587l3.603,3.032l1.115-4.593c0.048,0.04,0.094,0.083,0.143,0.124
		c-2.134-2.204-6.943-5.915-7.379-6.167c0,0-1.5,5.537-2.256,9.436c0.02-0.089,0.036-0.179,0.058-0.268L20.501,22.305z"/>
	<path fill="#E6007E" d="M28.934,18.896c-0.435-0.594-1.008-1.205-1.411-1.608c-0.336-0.357-0.694-0.693-1.069-1.007
		c-0.049-0.04-0.095-0.083-0.143-0.123l-1.115,4.593l-3.603-3.033l-1.091,4.587l-3.625-3.023c-0.022,0.089-0.038,0.178-0.059,0.268
		c-0.1,0.43-0.182,0.867-0.233,1.306c-0.086,0.564-0.188,1.428-0.181,2.189c0.008,0.961,0.191,1.755,0.326,2.163
		c1.212,3.661,5.156,5.644,8.812,4.433c0.224-0.074,0.44-0.16,0.65-0.254c3.232-1.438,4.908-5.124,3.771-8.561
		C29.827,20.417,29.502,19.67,28.934,18.896"/>
	<polygon fill="#B0CB0B" points="36.308,31.665 36.308,13.438 33.728,13.438 33.728,31.666 33.728,33.093 33.728,65.494 
		36.308,65.494 36.308,33.093 	"/>
	<path fill="#E6007E" d="M31.696,5.322l3.276-5.324l3.293,5.324l3.31-5.323c1.514,2.356,2.443,5.236,2.443,7.627
		c0,4.995-4.051,9.044-9.046,9.044c-4.996,0-9.044-4.049-9.044-9.044c0-2.391,0.929-5.271,2.443-7.627L31.696,5.322z"/>
	<path fill="#009FE4" d="M49.731,17.246c-0.504,0.254-1.059,0.803-1.594,1.46c-0.04-0.847-0.158-1.617-0.412-2.122
		c-0.962-1.909-3.297-2.68-5.207-1.718c-1.909,0.961-2.68,3.297-1.719,5.206c0.255,0.505,0.803,1.059,1.46,1.595
		c-0.847,0.04-1.616,0.158-2.121,0.412c-1.909,0.962-2.68,3.297-1.718,5.207c0.962,1.909,3.297,2.68,5.207,1.719
		c0.504-0.254,1.057-0.804,1.594-1.46c0.04,0.847,0.157,1.617,0.412,2.121c0.961,1.91,3.297,2.682,5.207,1.72
		c1.909-0.962,2.68-3.298,1.718-5.208c-0.255-0.505-0.803-1.058-1.46-1.593c0.847-0.04,1.617-0.158,2.122-0.413
		c1.909-0.962,2.681-3.297,1.718-5.207C53.978,17.055,51.642,16.284,49.731,17.246z"/>
	<circle fill="#FFB900" cx="46.679" cy="23.126" r="3.352"/>
	<path fill="#009FE4" d="M41.347,50.582c-0.275-0.195-0.414-0.617-0.308-0.938l1.849-5.58c0.105-0.32-0.084-0.582-0.421-0.582H27.58
		c-0.337,0-0.526,0.262-0.42,0.582l1.832,5.531c0.106,0.32-0.029,0.746-0.3,0.947c0,0-1.929,1.428-2.822,2.634
		c-1.396,1.882-2.222,4.212-2.222,6.735c0,6.254,5.071,11.325,11.326,11.325s11.325-5.071,11.325-11.325
		c0-2.98-1.152-5.693-3.035-7.715C42.554,51.435,41.347,50.582,41.347,50.582z"/>
</g>
</svg>
