<?xml version="1.0" encoding="utf-8"?>
<!-- Generator: Adobe Illustrator 16.0.0, SVG Export Plug-In . SVG Version: 6.00 Build 0)  -->
<!DOCTYPE svg PUBLIC "-//W3C//DTD SVG 1.1//EN" "http://www.w3.org/Graphics/SVG/1.1/DTD/svg11.dtd">
<svg version="1.1" id="Lager_1" xmlns="http://www.w3.org/2000/svg" xmlns:xlink="http://www.w3.org/1999/xlink" x="0px" y="0px"
	 viewBox="0 0 56.92 56.919" enable-background="new 0 0 56.92 56.919" xml:space="preserve">
<g>
	<g>
		<g>
			<path fill="#FFB900" d="M20.23,14.224c-1.273,2.236-0.689,5.119,1.441,6.668c2.131,1.547,5.053,1.213,6.787-0.689
				c1.734,1.902,4.656,2.236,6.787,0.689c2.129-1.549,2.715-4.432,1.441-6.668c2.344-1.061,3.566-3.737,2.752-6.24
				c-0.814-2.506-3.375-3.954-5.895-3.433c-0.285-2.557-2.453-4.547-5.086-4.547s-4.803,1.99-5.086,4.547
				c-2.52-0.521-5.082,0.927-5.896,3.433C16.664,10.486,17.887,13.163,20.23,14.224z"/>
		</g>
		<g>
			<circle fill="#FFE57E" cx="28.459" cy="11.934" r="3.785"/>
		</g>
		<g>
			<path fill="#994916" d="M38.023,36.591H18.893c-1.273,0-2.309,1.033-2.309,2.309c0,1.277,1.035,2.311,2.309,2.311h0.309
				l1.932,14.525c0.086,0.65,0.691,1.18,1.348,1.18h11.957c0.656,0,1.262-0.529,1.348-1.18l1.93-14.525h0.309
				c1.275,0,2.311-1.033,2.311-2.311C40.334,37.625,39.299,36.591,38.023,36.591z"/>
		</g>
	</g>
	<path fill="#B0CB0B" d="M29.719,29.287c1.139,0.73,2.941,1.863,4.236,2.557c0.252,0.135,0.846,0.436,1.379,0.607
		c0.535,0.172,1.01,0.215,1.262,0.215c2.256,0,4.082-1.824,4.082-4.078c-0.002-2.248-1.826-4.076-4.082-4.076
		c-0.252,0-0.727,0.043-1.262,0.217c-0.533,0.174-1.127,0.473-1.379,0.605c-1.295,0.693-3.098,1.826-4.236,2.557v-6.684
		c-0.463-0.26-0.889-0.596-1.26-1.004c-0.371,0.408-0.799,0.744-1.26,1.004v6.684c-1.137-0.73-2.939-1.863-4.236-2.557
		c-0.25-0.133-0.844-0.432-1.379-0.605c-0.533-0.174-1.01-0.217-1.262-0.217c-2.254,0-4.08,1.828-4.08,4.076
		c0,2.254,1.826,4.078,4.08,4.078c0.252,0,0.729-0.043,1.262-0.215c0.535-0.172,1.129-0.473,1.379-0.607
		c1.297-0.693,3.1-1.826,4.236-2.557v7.305h2.52V29.287z"/>
</g>
</svg>
