<?xml version="1.0" encoding="utf-8"?>
<!-- Generator: Adobe Illustrator 16.0.0, SVG Export Plug-In . SVG Version: 6.00 Build 0)  -->
<!DOCTYPE svg PUBLIC "-//W3C//DTD SVG 1.1//EN" "http://www.w3.org/Graphics/SVG/1.1/DTD/svg11.dtd">
<svg version="1.1" id="Lager_1" xmlns="http://www.w3.org/2000/svg" xmlns:xlink="http://www.w3.org/1999/xlink" x="0px" y="0px"
	 viewBox="0 0 800 800" enable-background="new 0 0 800 800" xml:space="preserve">
<g>
	<g>
		<path fill="#009FE4" d="M658.125,514.138c-0.908,0-1.814,0.091-2.723,0.146l-78.845-196.991l22.606-3.984
			c0.49-0.086,0.935-0.263,1.388-0.395c0.563-0.027,1.117-0.045,1.671-0.141c7.405-1.307,12.342-8.363,11.035-15.759
			l-29.132-165.213c-1.697-9.638-7.069-18.055-15.119-23.695c-8.059-5.635-17.805-7.809-27.443-6.107l-17.878,3.154
			c3.83,2.99,6.606,7.337,7.515,12.487c0.907,5.154-0.218,10.187-2.777,14.312l17.859-3.158c2.486-0.44,5.01,0.127,7.115,1.606
			c2.106,1.47,3.503,3.644,3.939,6.125l26.753,151.81l-28.759,5.073c-4.03,0.717-7.533,3.199-9.521,6.788
			c-1.987,3.58-2.269,7.864-0.744,11.671l13.776,34.381l-258.751,64.524l-1.843-10.109l-26.485,6.443l2.531,13.885l-110.708,99.011
			c-6.397-3.704-13.803-5.863-21.708-5.863c-24.004,0-43.524,19.53-43.524,43.524c0,24.005,19.521,43.524,43.524,43.524
			c19.244,0,35.589-12.56,41.319-29.911h79.227c3.957,16.135,14.742,29.594,29.145,37.127l-9.029,36.526h-9.511
			c-7.51,0-13.595,6.08-13.595,13.604c0,7.506,6.085,13.604,13.595,13.604h45.598c7.52,0,13.613-6.098,13.613-13.604
			c0-7.523-6.094-13.604-13.613-13.604h-8.063l7.419-30.038c31.541-0.019,57.197-25.683,57.197-57.229
			c0-5.59-0.844-10.98-2.342-16.081L583.31,407.396l46.828,116.979c-9.493,7.996-15.537,19.947-15.537,33.288
			c0,24.005,19.53,43.524,43.524,43.524c24.014,0,43.524-19.52,43.524-43.524C701.649,533.668,682.139,514.138,658.125,514.138z
			 M262.425,544.068h-79.227c-0.431-1.298-0.916-2.56-1.452-3.794l98.267-87.893l10.101,55.321
			C276.433,515.363,266.254,528.459,262.425,544.068z M359.147,518.041c-2.051-2.134-4.278-4.085-6.629-5.872l10.273-41.564h13.386
			c7.515,0,13.595-6.09,13.595-13.604c0-7.515-6.08-13.613-13.595-13.613H330.57c-7.515,0-13.599,6.099-13.599,13.613
			c0,7.514,6.084,13.604,13.599,13.604h4.202l-7.573,30.647c-3.019-0.5-6.095-0.809-9.239-0.809c-0.503,0-0.993,0.055-1.502,0.073
			l-11.476-62.928l264.061-65.84l3.976,9.938L359.147,518.041z"/>
	</g>
	<g>
		<path fill="#E6007E" d="M246.08,413.377c-12.438,3.021-24.975-4.602-28.001-17.034c-3.031-12.415,4.597-24.957,17.024-27.979
			l89.146-21.726c12.438-3.031,24.962,4.601,27.988,17.017c3.036,12.433-4.583,24.957-17.012,27.997L246.08,413.377z"/>
	</g>
	<g>
		<path fill="#E6007E" d="M456.819,151.158c-9.719,0-18.332-6.956-20.074-16.862c-1.96-11.103,5.445-21.689,16.554-23.645
			l54.27-9.565c11.071-1.951,21.672,5.458,23.632,16.549c1.96,11.103-5.455,21.685-16.554,23.65l-54.261,9.561
			C459.188,151.054,457.99,151.158,456.819,151.158z"/>
	</g>
	<g>
		<path fill="none" stroke="#009EE2" stroke-width="10" stroke-miterlimit="10" d="M368.409,557.662"/>
	</g>
	<path fill="#FFFFFF" d="M317.96,527.65c-16.553,0-30.029,13.469-30.029,30.012c0,16.554,13.477,30.021,30.029,30.021
		c16.544,0,30.012-13.468,30.012-30.021C347.972,541.119,334.504,527.65,317.96,527.65z"/>
	<path fill="#FFFFFF" d="M141.879,541.354c-9.002,0-16.316,7.314-16.316,16.308c0,9.003,7.314,16.317,16.316,16.317
		c8.998,0,16.313-7.314,16.313-16.317C158.192,548.669,150.877,541.354,141.879,541.354z"/>
	<g>
		<path fill="#FFFFFF" d="M675.44,557.662c0,9.575-7.75,17.315-17.315,17.315s-17.306-7.74-17.306-17.315
			c0-9.557,7.74-17.315,17.306-17.315S675.44,548.105,675.44,557.662z"/>
	</g>
	<path fill="#E6007E" d="M252.646,544.068h9.778c2.527-10.292,7.872-19.476,15.114-26.754c-4.696-15.773-12.078-30.42-21.621-43.38
		l-22.435,20.057C243.635,508.548,250.396,525.608,252.646,544.068z"/>
	<path fill="#E6007E" d="M262.425,571.275h-9.778c-6.733,55.159-53.829,98.012-110.768,98.012
		c-61.557,0-111.624-50.06-111.624-111.625c0-61.548,50.067-111.624,111.624-111.624c28.115,0,53.808,10.472,73.455,27.68
		l22.434-20.057c-25.238-23.306-58.93-37.554-95.889-37.554c-78.06,0-141.559,63.508-141.559,141.555
		c0,78.065,63.499,141.563,141.559,141.563c64.017,0,118.223-42.734,135.656-101.17
		C270.274,590.796,264.952,581.576,262.425,571.275z"/>
	<path fill="#E6007E" d="M658.125,416.107c-13.794,0-27.116,2.016-39.73,5.718l11.181,27.934c9.129-2.423,18.686-3.721,28.55-3.721
		c61.557,0,111.634,50.076,111.634,111.624c0,61.565-50.077,111.625-111.634,111.625c-61.548,0-111.625-50.06-111.625-111.625
		c0-42.054,23.396-78.736,57.836-97.767l-11.181-27.933c-45.457,23.586-76.585,71.067-76.585,125.699
		c0,78.065,63.499,141.563,141.555,141.563S799.68,635.728,799.68,557.662C799.68,479.615,736.181,416.107,658.125,416.107z"/>
</g>
</svg>
