<?xml version="1.0" encoding="utf-8"?>
<!-- Generator: Adobe Illustrator 16.0.0, SVG Export Plug-In . SVG Version: 6.00 Build 0)  -->
<!DOCTYPE svg PUBLIC "-//W3C//DTD SVG 1.1//EN" "http://www.w3.org/Graphics/SVG/1.1/DTD/svg11.dtd">
<svg version="1.1" id="Lager_1" xmlns="http://www.w3.org/2000/svg" xmlns:xlink="http://www.w3.org/1999/xlink" x="0px" y="0px"
	 viewBox="0 0 68.031 68.032" enable-background="new 0 0 68.031 68.032" xml:space="preserve">
<g>
	<path fill="#E6007E" d="M25.932,9.487c-3.48-0.481-5.904,1.626-7.387,6.42c-3.166,0.479-6.017,2.546-7.329,5.715
		c-1.565,3.781-0.479,8.003,2.392,10.608c0.211,0.192,0.424,0.685,0.07,1.081c-0.301,0.336-0.577,0.745-0.793,1.261
		c-0.31,0.748-0.428,1.396-0.477,1.963c-0.053,0.615-0.546,0.713-0.836,0.697c-3.884-0.205-7.656,2.016-9.229,5.807
		c-1.383,3.34-0.698,7.025,1.459,9.639c-2.211,4.313-1.946,7.443,0.807,9.527c2.432,1.844,5.881,1.783,8.199-0.139
		c0.135-0.113,0.232-0.254,0.297-0.404c0.143-0.346,0.096-0.758-0.162-1.064c-0.366-0.443-1.023-0.504-1.466-0.137
		c-1.582,1.311-3.94,1.346-5.61,0.082c-0.808-0.611-2.563-1.951-0.488-6.363c0.629,0.475,1.318,0.889,2.08,1.203
		c4.813,1.994,10.351-0.301,12.344-5.111c1.563-3.775,0.486-7.986-2.369-10.594c-0.266-0.24-0.552-0.463-0.846-0.682
		c-0.836-0.623-1.596-1.137-1.846-1.652c-0.241-0.496-0.333-1.029,0-1.831c0.253-0.611,0.695-1.009,1.078-1.172
		c0.626-0.268,1.393-0.063,1.712,0.021c4.5,1.192,9.312-1.093,11.143-5.51c1.994-4.815-0.301-10.353-5.114-12.347
		c-0.916-0.379-1.857-0.601-2.798-0.682c1.655-4.71,3.871-4.414,4.884-4.272c2.076,0.285,3.719,1.979,3.908,4.024
		c0.054,0.572,0.563,0.995,1.135,0.941c0.398-0.036,0.724-0.294,0.867-0.64c0.063-0.151,0.09-0.319,0.074-0.495
		C31.354,12.387,28.958,9.906,25.932,9.487z M4.272,43.838c1.246-3.012,4.271-4.752,7.358-4.521
		C8.287,45.043,6.084,48.782,4.926,50.7C3.633,48.729,3.304,46.172,4.272,43.838z M6.479,52.159c0.738-1.215,2.029-3.391,3.9-6.578
		c-0.947,3.609-1.699,6.5-2.064,7.898c-0.02-0.008-0.039-0.014-0.059-0.021c-0.695-0.287-1.324-0.672-1.875-1.131
		C6.416,52.27,6.443,52.217,6.479,52.159z M17.877,49.473c-1.271,3.068-4.392,4.82-7.537,4.506c0.559-2.152,2.018-7.74,3.688-14.063
		C17.684,41.52,19.411,45.77,17.877,49.473z M13.143,22.42c0.895-2.162,2.709-3.665,4.8-4.26c-0.562,2.259-1.631,6.382-3.187,12.298
		C12.706,28.413,11.968,25.257,13.143,22.42z M26.749,28.056c-1.473,3.555-5.425,5.341-9.026,4.196
		c3.247-5.579,6.134-10.466,7.268-12.37C27.147,21.919,27.95,25.153,26.749,28.056z M22.764,18.434
		c0.176,0.073,0.346,0.158,0.514,0.244c-0.908,1.532-3.191,5.389-5.908,10.039c1.41-5.378,2.344-9.005,2.781-10.804
		c0.002-0.011,0.006-0.02,0.006-0.029C21.032,17.908,21.911,18.08,22.764,18.434z"/>
	<g>
		<path fill="#E6007E" d="M48.147,61.797c0,0.92,0.752,1.672,1.672,1.672h14.914c0.92,0,1.672-0.752,1.672-1.672V23.372H48.147
			V61.797z"/>
		<path fill="#E6007E" d="M66.405,14.3c0-0.92-0.752-1.672-1.672-1.672H49.819c-0.92,0-1.672,0.752-1.672,1.672v5.727h18.258V14.3z"
			/>
		<rect x="48.147" y="20.026" fill="#8C005A" width="18.258" height="3.346"/>
	</g>
	<g>
		<path fill="#8C005A" d="M44.86,6.154c0-0.92-0.752-1.672-1.672-1.672h-9.858c-0.92,0-1.672,0.752-1.672,1.672v5.784H44.86V6.154z"
			/>
		<path fill="#8C005A" d="M31.659,61.797c0,0.92,0.752,1.672,1.672,1.672h9.858c0.92,0,1.672-0.752,1.672-1.672v-5.785H31.659
			V61.797z"/>
		<rect x="31.659" y="15.284" fill="#8C005A" width="13.202" height="37.384"/>
		<rect x="31.659" y="11.938" fill="#E6007E" width="13.202" height="3.346"/>
		<rect x="31.659" y="52.668" fill="#E6007E" width="13.202" height="3.344"/>
	</g>
	<path fill="#8C005A" d="M63.897,55.106c0,0.461-0.377,0.838-0.838,0.838H51.493c-0.461,0-0.838-0.377-0.838-0.838V49.79
		c0-0.459,0.377-0.836,0.838-0.836H63.06c0.461,0,0.838,0.377,0.838,0.836V55.106z"/>
</g>
</svg>
