<?xml version="1.0" encoding="utf-8"?>
<!-- Generator: Adobe Illustrator 16.0.0, SVG Export Plug-In . SVG Version: 6.00 Build 0)  -->
<!DOCTYPE svg PUBLIC "-//W3C//DTD SVG 1.1//EN" "http://www.w3.org/Graphics/SVG/1.1/DTD/svg11.dtd">
<svg version="1.1" id="Lager_1" xmlns="http://www.w3.org/2000/svg" xmlns:xlink="http://www.w3.org/1999/xlink" x="0px" y="0px"
	 viewBox="0 0 113.215 113.216" enable-background="new 0 0 113.215 113.216"
	 xml:space="preserve">
<g>
	<g>
		<path fill="#994916" d="M72.227,55.603h7.084V23.86c-6.758,0.232-13.456,2.547-19.056,6.939c0.721,0.609,1.421,1.25,2.096,1.926
			C68.493,38.866,71.976,46.957,72.227,55.603z"/>
		<path fill="#994916" d="M90.687,55.603h22.517c-0.245-8.05-3.438-16.023-9.581-22.167c-0.458-0.459-0.93-0.9-1.409-1.327
			c-0.773,0.641-1.521,1.32-2.24,2.039C94.211,39.909,90.937,47.495,90.687,55.603z"/>
		<path fill="#994916" d="M88.675,55.603c0.25-8.645,3.734-16.736,9.876-22.877c0.676-0.676,1.375-1.316,2.097-1.926
			c-5.675-4.452-12.477-6.77-19.325-6.95v31.753H88.675z"/>
		<path fill="#994916" d="M113.204,57.613H90.687c0.25,8.108,3.524,15.693,9.286,21.455c0.72,0.72,1.466,1.398,2.24,2.039
			c0.479-0.427,0.951-0.868,1.409-1.327C109.766,73.638,112.958,65.662,113.204,57.613z"/>
		<path fill="#994916" d="M47.697,55.603h22.519c-0.251-8.107-3.525-15.693-9.287-21.455c-0.718-0.719-1.465-1.398-2.238-2.039
			c-0.48,0.427-0.951,0.868-1.41,1.328C51.136,39.58,47.944,47.553,47.697,55.603z"/>
		<path fill="#994916" d="M58.688,81.107c0.775-0.642,1.522-1.319,2.24-2.039c5.762-5.762,9.036-13.347,9.287-21.455H47.697
			c0.247,8.049,3.439,16.024,9.583,22.167C57.738,80.239,58.209,80.681,58.688,81.107z"/>
		<path fill="#994916" d="M88.675,57.613h-7.353v31.753c6.849-0.182,13.65-2.498,19.323-6.949c-0.721-0.61-1.419-1.252-2.096-1.926
			C92.41,74.351,88.925,66.259,88.675,57.613z"/>
		<path fill="#994916" d="M72.227,57.613c-0.251,8.646-3.734,16.737-9.876,22.877c-0.676,0.675-1.375,1.316-2.096,1.927
			c5.6,4.394,12.298,6.705,19.056,6.938V57.613H72.227z"/>
		<path fill="#8C005A" d="M99.973,79.068c-5.762-5.762-9.036-13.347-9.286-21.455h22.517c0.022-0.67,0.022-1.341,0-2.011H90.687
			c0.25-8.107,3.524-15.693,9.286-21.455c0.72-0.719,1.467-1.398,2.24-2.039c-0.513-0.456-1.033-0.892-1.565-1.309
			c-0.722,0.609-1.421,1.25-2.097,1.926c-6.142,6.141-9.626,14.232-9.876,22.877h-7.353V23.85c-0.671-0.018-1.341-0.013-2.012,0.011
			v31.742h-7.084c-0.251-8.646-3.734-16.736-9.876-22.877c-0.675-0.676-1.375-1.316-2.096-1.926
			c-0.532,0.417-1.055,0.854-1.565,1.309c0.773,0.641,1.521,1.32,2.238,2.039c5.762,5.762,9.036,13.348,9.287,21.455H47.697
			c-0.02,0.67-0.02,1.341,0,2.011h22.519c-0.251,8.108-3.525,15.693-9.287,21.455c-0.718,0.72-1.465,1.397-2.24,2.039
			c0.513,0.455,1.035,0.893,1.567,1.31c0.721-0.61,1.42-1.252,2.096-1.927c6.142-6.14,9.625-14.231,9.876-22.877h7.084v31.742
			c0.671,0.023,1.341,0.028,2.012,0.011V57.613h7.353c0.25,8.646,3.734,16.737,9.875,22.878c0.677,0.674,1.375,1.315,2.096,1.926
			c0.534-0.417,1.055-0.854,1.567-1.31C101.439,80.467,100.693,79.788,99.973,79.068z"/>
	</g>
	<circle fill="#FFB900" cx="21.83" cy="67.542" r="21.834"/>
	<g>
		<path fill="#FFE57E" d="M34.087,70.005c-4.221-2.437-8.828-3.021-10.949-3.241c-0.769-0.08-0.855-0.381-0.962-0.605
			c-0.608-1.29-1.63-3.748-2.16-6.696c2.262-0.128,7.763-0.159,12.958,2.001c6.638,2.76,10.367,9.254,10.405,9.319l0.036,0.058
			c0.133-0.878,0.206-1.775,0.232-2.685c-1.666-2.287-5.055-6.171-10.031-8.239c-5.656-2.353-11.507-2.274-13.835-2.124
			c-0.067-0.651-0.106-1.32-0.106-1.999c0-1.484,0.235-2.905,0.59-4.202c1.813-0.135,7.505-0.334,12.861,1.893
			c5.835,2.426,9.324,7.858,9.895,8.796c-0.049-0.192-0.101-0.382-0.153-0.572c-0.026-0.095-0.052-0.188-0.079-0.281
			c-0.182-0.623-0.391-1.232-0.624-1.83c-0.025-0.066-0.051-0.13-0.075-0.193c-0.257-0.637-0.542-1.257-0.854-1.861
			c-0.012-0.022-0.023-0.045-0.034-0.068c-0.108-0.206-0.22-0.412-0.334-0.615c-1.761-1.79-4.136-3.69-7.098-4.921
			c-5.167-2.148-10.504-2.188-12.946-2.063c0.688-1.827,1.529-3.281,2.08-4.137c-0.355-0.017-0.713-0.027-1.073-0.027
			c-0.301,0-0.602,0.012-0.897,0.023C19.703,47.841,18,51.529,18,55.793c0,5.083,1.891,9.553,2.782,11.337
			c0.148,0.295,0.071,0.562-0.001,0.67c-0.745,1.106-2.428,3.383-4.876,5.45c-1.243-1.895-4.019-6.642-4.746-12.222
			c-0.929-7.129,2.829-13.604,2.868-13.67l0.174-0.276c-0.85,0.317-1.674,0.688-2.471,1.104c-1.146,2.515-2.952,7.536-2.232,13.059
			c0.792,6.074,3.784,11.103,5.08,13.044c-0.533,0.384-1.092,0.752-1.681,1.091c-1.284,0.743-2.634,1.249-3.934,1.59
			c-1.024-1.501-4.042-6.332-4.791-12.084c-0.892-6.835,2.713-13.049,2.75-13.109l0.215-0.385C5.92,52.5,4.832,53.747,3.889,55.104
			c-0.168,0.246-0.321,0.477-0.453,0.683c-0.005,0.008-0.01,0.015-0.015,0.022c-0.772,2.527-1.365,5.807-0.911,9.294
			c0.724,5.549,3.356,10.19,4.687,12.243c-2.006,0.332-3.742,0.315-4.742,0.26c0.152,0.292,0.311,0.581,0.476,0.866
			c0.001,0.001,0.003,0.004,0.004,0.006c0.166,0.284,0.337,0.565,0.515,0.842c0.071,0.001,0.138,0.002,0.212,0.002
			c2.452,0,6.436-0.388,10.074-2.489c4.41-2.547,7.327-6.438,8.435-8.088c0.086-0.131,0.248-0.356,0.679-0.316
			c1.369,0.125,4.119,0.434,7.054,1.489c-1.021,2.024-3.744,6.801-8.213,10.221c-5.614,4.296-12.947,4.352-13.262,4.352
			c-0.005,0-0.009,0-0.01-0.001l-0.416-0.05c0.72,0.589,1.479,1.131,2.271,1.627c2.745-0.263,8.005-1.208,12.435-4.598
			c4.864-3.722,7.724-8.827,8.757-10.92c0.599,0.269,1.197,0.568,1.785,0.908c1.285,0.742,2.397,1.656,3.344,2.61
			c-0.791,1.64-3.474,6.676-8.07,10.192c-5.475,4.191-12.664,4.177-12.729,4.174l-0.313,0.003c1.604,0.488,3.287,0.794,5.024,0.897
			c0.323,0.016,0.622,0.027,0.88,0.033c2.506-0.614,5.488-1.732,8.157-3.775c4.444-3.401,7.146-8.003,8.26-10.181
			c1.198,1.46,2.02,2.868,2.493,3.778c0-0.001,0-0.001,0-0.001c0.175-0.274,0.343-0.554,0.503-0.838
			c0.003-0.005,0.006-0.009,0.009-0.014c0.16-0.281,0.314-0.567,0.462-0.857c0.002-0.002,0.003-0.005,0.005-0.008
			C40.045,75.348,37.721,72.103,34.087,70.005z"/>
	</g>
</g>
</svg>
