<?xml version="1.0" encoding="utf-8"?>
<!-- Generator: Adobe Illustrator 16.0.0, SVG Export Plug-In . SVG Version: 6.00 Build 0)  -->
<!DOCTYPE svg PUBLIC "-//W3C//DTD SVG 1.1//EN" "http://www.w3.org/Graphics/SVG/1.1/DTD/svg11.dtd">
<svg version="1.1" id="Lager_1" xmlns="http://www.w3.org/2000/svg" xmlns:xlink="http://www.w3.org/1999/xlink" x="0px" y="0px"
	 viewBox="0 0 90.708 90.708" enable-background="new 0 0 90.708 90.708" xml:space="preserve">
<g>
	<g>
		<path fill="#0A4682" d="M68.864,17.885l-9.552-7.572c-0.433-0.343-1.239-0.624-1.79-0.624H40.22h-3.942H15.036
			c-0.243,0-0.534,0.056-0.821,0.146l10.628,8.426c0.002,0.001,0.008,0.006,0.01,0.007c0.271,0.209,0.445,0.099,0.6,0.003
			c0.146-0.09,9.612-7.618,10.72-8.499c0.069-0.055,0.115-0.065,0.203,0.002c0.02,0.016,0.641,0.506,1.572,1.244l0.005-0.002
			l9.45,7.491H69.36C69.223,18.259,69.053,18.035,68.864,17.885z"/>
	</g>
	<path fill="#009FE4" d="M36.375,9.775c-0.087-0.067-0.134-0.057-0.203-0.002c-1.108,0.881-10.574,8.409-10.72,8.499
		c-0.155,0.095-0.329,0.206-0.6-0.003C24.58,18.06,14.215,9.836,14.215,9.836c-0.367,0.114-0.728,0.285-0.971,0.478l-9.55,7.571
		c-0.433,0.344-0.787,1.076-0.787,1.628v60.604c0,0.553,0.276,0.902,0.829,0.902h42.662c0.276,0,0.641,0,1.005,0V18.508
		C47.402,18.508,36.462,9.842,36.375,9.775z"/>
	<path fill="#FFFFFF" d="M15.766,74.816c0,0.166-0.136,0.302-0.302,0.302H9.162c-0.166,0-0.301-0.136-0.301-0.302v-7.332
		c0-0.166,0.136-0.302,0.301-0.302h6.302c0.167,0,0.302,0.136,0.302,0.302V74.816z"/>
	<path fill="#FFFFFF" d="M15.766,60.591c0,0.166-0.136,0.302-0.302,0.302H9.162c-0.166,0-0.301-0.136-0.301-0.302v-7.332
		c0-0.165,0.136-0.301,0.301-0.301h6.302c0.167,0,0.302,0.136,0.302,0.301V60.591z"/>
	<path fill="#FFFFFF" d="M15.766,46.367c0,0.166-0.136,0.302-0.302,0.302H9.162c-0.166,0-0.301-0.136-0.301-0.302v-7.333
		c0-0.166,0.136-0.301,0.301-0.301h6.302c0.167,0,0.302,0.136,0.302,0.301V46.367z"/>
	<path fill="#FFFFFF" d="M15.766,32.142c0,0.166-0.136,0.301-0.302,0.301H9.162c-0.166,0-0.301-0.135-0.301-0.301v-7.333
		c0-0.166,0.136-0.301,0.301-0.301h6.302c0.167,0,0.302,0.136,0.302,0.301V32.142z"/>
	<path fill="#FFFFFF" d="M28.607,60.591c0,0.166-0.136,0.302-0.302,0.302h-6.302c-0.166,0-0.302-0.136-0.302-0.302v-7.332
		c0-0.165,0.136-0.301,0.302-0.301h6.302c0.167,0,0.302,0.136,0.302,0.301V60.591z"/>
	<path fill="#FFFFFF" d="M28.607,46.367c0,0.166-0.136,0.302-0.302,0.302h-6.302c-0.166,0-0.302-0.136-0.302-0.302v-7.333
		c0-0.166,0.136-0.301,0.302-0.301h6.302c0.167,0,0.302,0.136,0.302,0.301V46.367z"/>
	<path fill="#FFFFFF" d="M28.607,32.142c0,0.166-0.136,0.301-0.302,0.301h-6.302c-0.166,0-0.302-0.135-0.302-0.301v-7.333
		c0-0.166,0.136-0.301,0.302-0.301h6.302c0.167,0,0.302,0.136,0.302,0.301V32.142z"/>
	<path fill="#FFFFFF" d="M41.416,74.816c0,0.166-0.136,0.302-0.302,0.302h-6.303c-0.166,0-0.301-0.136-0.301-0.302v-7.332
		c0-0.166,0.135-0.302,0.301-0.302h6.303c0.166,0,0.302,0.136,0.302,0.302V74.816z"/>
	<path fill="#FFFFFF" d="M41.416,60.591c0,0.166-0.136,0.302-0.302,0.302h-6.303c-0.166,0-0.301-0.136-0.301-0.302v-7.332
		c0-0.165,0.135-0.301,0.301-0.301h6.303c0.166,0,0.302,0.136,0.302,0.301V60.591z"/>
	<path fill="#FFFFFF" d="M41.416,46.367c0,0.166-0.136,0.302-0.302,0.302h-6.303c-0.166,0-0.301-0.136-0.301-0.302v-7.333
		c0-0.166,0.135-0.301,0.301-0.301h6.303c0.166,0,0.302,0.136,0.302,0.301V46.367z"/>
	<path fill="#FFFFFF" d="M41.416,32.142c0,0.166-0.136,0.301-0.302,0.301h-6.303c-0.166,0-0.301-0.135-0.301-0.301v-7.333
		c0-0.166,0.135-0.301,0.301-0.301h6.303c0.166,0,0.302,0.136,0.302,0.301V32.142z"/>
	<path fill="#0A4682" d="M28.99,81.015l-7.672,0.004V67.464c0-0.166,0.136-0.301,0.301-0.301h7.069c0.166,0,0.302,0.135,0.302,0.301
		V81.015z"/>
	<path fill="#7DC8F0" d="M69.36,18.508H47.402v62.511c0.364,0,21.419,0,21.419,0c0.554,0,0.829-0.35,0.829-0.902V19.513
		C69.651,19.201,69.536,18.833,69.36,18.508z"/>
	<g>
		<path fill="#FFFFFF" d="M55.083,24.809c0-0.166,0.136-0.301,0.302-0.301h6.303c0.166,0,0.301,0.136,0.301,0.301v7.333
			c0,0.166-0.135,0.301-0.301,0.301h-6.303c-0.166,0-0.302-0.135-0.302-0.301V24.809z"/>
		<path fill="#FFFFFF" d="M55.083,39.034c0-0.166,0.136-0.301,0.302-0.301h6.303c0.166,0,0.301,0.136,0.301,0.301v7.333
			c0,0.166-0.135,0.302-0.301,0.302h-6.303c-0.166,0-0.302-0.136-0.302-0.302V39.034z"/>
		<path fill="#FFFFFF" d="M55.083,53.259c0-0.165,0.136-0.301,0.302-0.301h6.303c0.166,0,0.301,0.136,0.301,0.301v7.332
			c0,0.166-0.135,0.302-0.301,0.302h-6.303c-0.166,0-0.302-0.136-0.302-0.302V53.259z"/>
		<path fill="#FFFFFF" d="M55.083,67.484c0-0.166,0.136-0.302,0.302-0.302h6.303c0.166,0,0.301,0.136,0.301,0.302v7.332
			c0,0.166-0.135,0.301-0.301,0.301h-6.303c-0.166,0-0.302-0.135-0.302-0.301V67.484z"/>
	</g>
	<path fill="#B0CB0B" d="M83.094,66.435c0.061-0.305,0.096-0.618,0.096-0.94c0-2.685-2.178-4.862-4.863-4.862
		c-0.969,0-1.871,0.285-2.628,0.777c-0.179,0.116-0.336,0.014-0.39-0.057c-1.375-1.794-3.536-2.951-5.97-2.951
		c-4.152,0-7.52,3.366-7.52,7.52c0,0.516,0.058,1.021,0.154,1.508c0.051,0.252-0.108,0.301-0.19,0.329
		c-2.668,0.925-4.583,3.46-4.583,6.442c0,3.766,3.053,6.818,6.817,6.818c3.766,0,12.219,0,16.334,0c4.116,0,7.45-3.334,7.45-7.45
		c0-3.113-1.911-5.78-4.624-6.894C83.136,66.658,83.055,66.634,83.094,66.435z"/>
</g>
</svg>
