<?xml version="1.0" encoding="utf-8"?>
<!-- Generator: Adobe Illustrator 16.0.0, SVG Export Plug-In . SVG Version: 6.00 Build 0)  -->
<!DOCTYPE svg PUBLIC "-//W3C//DTD SVG 1.1//EN" "http://www.w3.org/Graphics/SVG/1.1/DTD/svg11.dtd">
<svg version="1.1" id="Lager_1" xmlns="http://www.w3.org/2000/svg" xmlns:xlink="http://www.w3.org/1999/xlink" x="0px" y="0px"
	 viewBox="240 0 800 800" enable-background="new 240 0 800 800" xml:space="preserve">
<g>
	<g>
		<path fill="#1E6E32" d="M847.398,157.604l-84.27-66.795c-3.811-3.023-10.926-5.5-15.783-5.5H594.708h-34.769h-187.39
			c-2.136,0-4.712,0.495-7.244,1.292l93.755,74.329c0.016,0.013,0.067,0.056,0.086,0.061c2.394,1.843,3.926,0.87,5.289,0.03
			c1.292-0.792,84.804-67.199,94.572-74.97c0.604-0.482,1.018-0.573,1.792,0.018c0.173,0.138,5.65,4.466,13.87,10.975l0.035-0.021
			l83.366,66.084h193.705C850.568,160.903,849.068,158.926,847.398,157.604z"/>
	</g>
	<path fill="#B0CB0B" d="M560.799,86.067c-0.774-0.59-1.188-0.5-1.792-0.018c-9.768,7.771-93.28,74.178-94.572,74.97
		c-1.363,0.84-2.896,1.813-5.289-0.03c-2.404-1.839-93.842-74.389-93.842-74.389c-3.239,1.008-6.418,2.516-8.573,4.213
		l-84.245,66.791c-3.815,3.032-6.943,9.494-6.943,14.365v534.619c0,4.876,2.438,7.96,7.314,7.96h376.347c2.438,0,5.65,0,8.865,0
		V163.104C658.07,163.104,561.558,86.652,560.799,86.067z"/>
	<path fill="#FFFFFF" d="M378.992,659.826c0,1.465-1.207,2.662-2.67,2.662H320.73c-1.456,0-2.662-1.197-2.662-2.662v-64.68
		c0-1.465,1.206-2.661,2.662-2.661h55.592c1.464,0,2.67,1.196,2.67,2.661V659.826z"/>
	<path fill="#FFFFFF" d="M378.992,534.343c0,1.466-1.207,2.662-2.67,2.662H320.73c-1.456,0-2.662-1.196-2.662-2.662v-64.681
		c0-1.455,1.206-2.652,2.662-2.652h55.592c1.464,0,2.67,1.197,2.67,2.652V534.343z"/>
	<path fill="#FFFFFF" d="M378.992,408.863c0,1.466-1.207,2.662-2.67,2.662H320.73c-1.456,0-2.662-1.196-2.662-2.662v-64.692
		c0-1.46,1.206-2.658,2.662-2.658h55.592c1.464,0,2.67,1.198,2.67,2.658V408.863z"/>
	<path fill="#FFFFFF" d="M378.992,283.371c0,1.465-1.207,2.658-2.67,2.658H320.73c-1.456,0-2.662-1.193-2.662-2.658v-64.688
		c0-1.46,1.206-2.658,2.662-2.658h55.592c1.464,0,2.67,1.197,2.67,2.658V283.371z"/>
	<path fill="#FFFFFF" d="M492.27,534.343c0,1.466-1.198,2.662-2.664,2.662h-55.599c-1.465,0-2.652-1.196-2.652-2.662v-64.681
		c0-1.455,1.187-2.652,2.652-2.652h55.599c1.465,0,2.664,1.197,2.664,2.652V534.343z"/>
	<path fill="#FFFFFF" d="M492.27,408.863c0,1.466-1.198,2.662-2.664,2.662h-55.599c-1.465,0-2.652-1.196-2.652-2.662v-64.692
		c0-1.46,1.187-2.658,2.652-2.658h55.599c1.465,0,2.664,1.198,2.664,2.658V408.863z"/>
	<path fill="#FFFFFF" d="M492.27,283.371c0,1.465-1.198,2.658-2.664,2.658h-55.599c-1.465,0-2.652-1.193-2.652-2.658v-64.688
		c0-1.46,1.187-2.658,2.652-2.658h55.599c1.465,0,2.664,1.197,2.664,2.658V283.371z"/>
	<path fill="#FFFFFF" d="M605.261,659.826c0,1.465-1.198,2.662-2.663,2.662H547c-1.465,0-2.653-1.197-2.653-2.662v-64.68
		c0-1.465,1.188-2.661,2.653-2.661h55.599c1.465,0,2.663,1.196,2.663,2.661V659.826z"/>
	<path fill="#FFFFFF" d="M605.261,534.343c0,1.466-1.198,2.662-2.663,2.662H547c-1.465,0-2.653-1.196-2.653-2.662v-64.681
		c0-1.455,1.188-2.652,2.653-2.652h55.599c1.465,0,2.663,1.197,2.663,2.652V534.343z"/>
	<path fill="#FFFFFF" d="M605.261,408.863c0,1.466-1.198,2.662-2.663,2.662H547c-1.465,0-2.653-1.196-2.653-2.662v-64.692
		c0-1.46,1.188-2.658,2.653-2.658h55.599c1.465,0,2.663,1.198,2.663,2.658V408.863z"/>
	<path fill="#FFFFFF" d="M605.261,283.371c0,1.465-1.198,2.658-2.663,2.658H547c-1.465,0-2.653-1.193-2.653-2.658v-64.688
		c0-1.46,1.188-2.658,2.653-2.658h55.599c1.465,0,2.663,1.197,2.663,2.658V283.371z"/>
	<path fill="#1E6E32" d="M495.645,714.514l-67.677,0.034V594.975c0-1.464,1.198-2.654,2.661-2.654h62.355
		c1.463,0,2.661,1.19,2.661,2.654V714.514z"/>
	<path fill="#D2E182" d="M851.775,163.104H658.07v551.443c3.213,0,188.947,0,188.947,0c4.896,0,7.324-3.084,7.324-7.96V171.969
		C854.342,169.217,853.324,165.969,851.775,163.104z"/>
	<g>
		<path fill="#FFFFFF" d="M725.826,218.683c0-1.46,1.205-2.658,2.67-2.658h55.6c1.465,0,2.652,1.197,2.652,2.658v64.688
			c0,1.465-1.188,2.658-2.652,2.658h-55.6c-1.465,0-2.67-1.193-2.67-2.658V218.683z"/>
		<path fill="#FFFFFF" d="M725.826,344.171c0-1.46,1.205-2.658,2.67-2.658h55.6c1.465,0,2.652,1.198,2.652,2.658v64.692
			c0,1.466-1.188,2.662-2.652,2.662h-55.6c-1.465,0-2.67-1.196-2.67-2.662V344.171z"/>
		<path fill="#FFFFFF" d="M725.826,469.662c0-1.455,1.205-2.652,2.67-2.652h55.6c1.465,0,2.652,1.197,2.652,2.652v64.681
			c0,1.466-1.188,2.662-2.652,2.662h-55.6c-1.465,0-2.67-1.196-2.67-2.662V469.662z"/>
		<path fill="#FFFFFF" d="M725.826,595.146c0-1.465,1.205-2.661,2.67-2.661h55.6c1.465,0,2.652,1.196,2.652,2.661v64.68
			c0,1.465-1.188,2.653-2.652,2.653h-55.6c-1.465,0-2.67-1.188-2.67-2.653V595.146z"/>
	</g>
	<path fill="#B0CB0B" d="M972.934,585.894c0.533-2.688,0.844-5.453,0.844-8.296c0-23.682-19.209-42.894-42.902-42.894
		c-8.547,0-16.506,2.517-23.189,6.858c-1.568,1.025-2.963,0.12-3.43-0.499c-12.131-15.826-31.203-26.035-52.672-26.035
		c-36.629,0-66.334,29.695-66.334,66.335c0,4.548,0.516,9.002,1.361,13.301c0.447,2.222-0.947,2.654-1.672,2.903
		c-23.535,8.159-40.438,30.522-40.438,56.832c0,33.22,26.93,60.148,60.148,60.148c33.221,0,107.789,0,144.092,0
		c36.305,0,65.715-29.41,65.715-65.722c0-27.465-16.852-50.991-40.781-60.813C973.295,587.858,972.588,587.652,972.934,585.894z"/>
</g>
</svg>
