<?xml version="1.0" encoding="utf-8"?>
<!-- Generator: Adobe Illustrator 16.0.0, SVG Export Plug-In . SVG Version: 6.00 Build 0)  -->
<!DOCTYPE svg PUBLIC "-//W3C//DTD SVG 1.1//EN" "http://www.w3.org/Graphics/SVG/1.1/DTD/svg11.dtd">
<svg version="1.1" id="Lager_1" xmlns="http://www.w3.org/2000/svg" xmlns:xlink="http://www.w3.org/1999/xlink" x="0px" y="0px"
	 viewBox="0 0 90.708 90.708" enable-background="new 0 0 90.708 90.708" xml:space="preserve">
<g>
	<g>
		<path fill="#994916" d="M68.864,17.884l-9.553-7.572c-0.434-0.343-1.238-0.624-1.791-0.624H40.219h-3.941H15.034
			c-0.242,0-0.533,0.056-0.82,0.146l10.628,8.426c0.002,0.001,0.008,0.006,0.01,0.007c0.271,0.209,0.445,0.099,0.6,0.003
			c0.146-0.09,9.612-7.618,10.721-8.499c0.068-0.055,0.115-0.065,0.202,0.002c0.021,0.016,0.641,0.506,1.572,1.244l0.005-0.002
			l9.45,7.491h21.957C69.223,18.258,69.051,18.034,68.864,17.884z"/>
	</g>
	<path fill="#FFB900" d="M36.374,9.775c-0.087-0.067-0.134-0.057-0.202-0.002c-1.108,0.881-10.574,8.409-10.721,8.499
		c-0.154,0.095-0.329,0.206-0.6-0.003c-0.272-0.208-10.638-8.433-10.638-8.433c-0.367,0.114-0.729,0.285-0.972,0.478l-9.55,7.571
		c-0.434,0.344-0.787,1.076-0.787,1.628v60.603c0,0.553,0.275,0.903,0.829,0.903h42.662c0.276,0,0.641,0,1.005,0V18.508
		C47.401,18.508,36.461,9.841,36.374,9.775z"/>
	<path fill="#FFFFFF" d="M15.765,74.815c0,0.166-0.136,0.303-0.302,0.303H9.161c-0.166,0-0.302-0.137-0.302-0.303v-7.332
		c0-0.166,0.136-0.301,0.302-0.301h6.302c0.166,0,0.302,0.135,0.302,0.301V74.815z"/>
	<path fill="#FFFFFF" d="M15.765,60.591c0,0.165-0.136,0.302-0.302,0.302H9.161c-0.166,0-0.302-0.137-0.302-0.302v-7.332
		c0-0.165,0.136-0.302,0.302-0.302h6.302c0.166,0,0.302,0.137,0.302,0.302V60.591z"/>
	<path fill="#FFFFFF" d="M15.765,46.367c0,0.166-0.136,0.302-0.302,0.302H9.161c-0.166,0-0.302-0.136-0.302-0.302v-7.333
		c0-0.166,0.136-0.301,0.302-0.301h6.302c0.166,0,0.302,0.136,0.302,0.301V46.367z"/>
	<path fill="#FFFFFF" d="M15.765,32.141c0,0.166-0.136,0.301-0.302,0.301H9.161c-0.166,0-0.302-0.135-0.302-0.301v-7.333
		c0-0.166,0.136-0.301,0.302-0.301h6.302c0.166,0,0.302,0.136,0.302,0.301V32.141z"/>
	<path fill="#FFFFFF" d="M28.606,60.591c0,0.165-0.136,0.302-0.303,0.302h-6.302c-0.166,0-0.302-0.137-0.302-0.302v-7.332
		c0-0.165,0.136-0.302,0.302-0.302h6.302c0.167,0,0.303,0.137,0.303,0.302V60.591z"/>
	<path fill="#FFFFFF" d="M28.606,46.367c0,0.166-0.136,0.302-0.303,0.302h-6.302c-0.166,0-0.302-0.136-0.302-0.302v-7.333
		c0-0.166,0.136-0.301,0.302-0.301h6.302c0.167,0,0.303,0.136,0.303,0.301V46.367z"/>
	<path fill="#FFFFFF" d="M28.606,32.141c0,0.166-0.136,0.301-0.303,0.301h-6.302c-0.166,0-0.302-0.135-0.302-0.301v-7.333
		c0-0.166,0.136-0.301,0.302-0.301h6.302c0.167,0,0.303,0.136,0.303,0.301V32.141z"/>
	<path fill="#FFFFFF" d="M41.415,74.815c0,0.166-0.136,0.303-0.302,0.303h-6.303c-0.166,0-0.302-0.137-0.302-0.303v-7.332
		c0-0.166,0.136-0.301,0.302-0.301h6.303c0.166,0,0.302,0.135,0.302,0.301V74.815z"/>
	<path fill="#FFFFFF" d="M41.415,60.591c0,0.165-0.136,0.302-0.302,0.302h-6.303c-0.166,0-0.302-0.137-0.302-0.302v-7.332
		c0-0.165,0.136-0.302,0.302-0.302h6.303c0.166,0,0.302,0.137,0.302,0.302V60.591z"/>
	<path fill="#FFFFFF" d="M41.415,46.367c0,0.166-0.136,0.302-0.302,0.302h-6.303c-0.166,0-0.302-0.136-0.302-0.302v-7.333
		c0-0.166,0.136-0.301,0.302-0.301h6.303c0.166,0,0.302,0.136,0.302,0.301V46.367z"/>
	<path fill="#FFFFFF" d="M41.415,32.141c0,0.166-0.136,0.301-0.302,0.301h-6.303c-0.166,0-0.302-0.135-0.302-0.301v-7.333
		c0-0.166,0.136-0.301,0.302-0.301h6.303c0.166,0,0.302,0.136,0.302,0.301V32.141z"/>
	<path fill="#994916" d="M28.989,81.014l-7.672,0.005V67.464c0-0.166,0.136-0.302,0.301-0.302h7.069
		c0.166,0,0.302,0.136,0.302,0.302V81.014z"/>
	<path fill="#FFE57E" d="M69.358,18.508H47.401v62.511c0.364,0,21.419,0,21.419,0c0.553,0,0.828-0.351,0.828-0.903V19.513
		C69.649,19.201,69.534,18.833,69.358,18.508z"/>
	<g>
		<path fill="#FFFFFF" d="M55.083,24.808c0-0.166,0.135-0.301,0.301-0.301h6.303c0.166,0,0.303,0.136,0.303,0.301v7.333
			c0,0.166-0.137,0.301-0.303,0.301h-6.303c-0.166,0-0.301-0.135-0.301-0.301V24.808z"/>
		<path fill="#FFFFFF" d="M55.083,39.033c0-0.166,0.135-0.301,0.301-0.301h6.303c0.166,0,0.303,0.136,0.303,0.301v7.333
			c0,0.166-0.137,0.302-0.303,0.302h-6.303c-0.166,0-0.301-0.136-0.301-0.302V39.033z"/>
		<path fill="#FFFFFF" d="M55.083,53.259c0-0.165,0.135-0.302,0.301-0.302h6.303c0.166,0,0.303,0.137,0.303,0.302v7.332
			c0,0.165-0.137,0.302-0.303,0.302h-6.303c-0.166,0-0.301-0.137-0.301-0.302V53.259z"/>
		<path fill="#FFFFFF" d="M55.083,67.483c0-0.166,0.135-0.301,0.301-0.301h6.303c0.166,0,0.303,0.135,0.303,0.301v7.332
			c0,0.166-0.137,0.301-0.303,0.301h-6.303c-0.166,0-0.301-0.135-0.301-0.301V67.483z"/>
	</g>
	<path fill="#B0CB0B" d="M83.094,66.434c0.061-0.305,0.096-0.617,0.096-0.939c0-2.685-2.18-4.863-4.865-4.863
		c-0.969,0.001-1.871,0.285-2.627,0.777c-0.178,0.117-0.336,0.014-0.391-0.057c-1.375-1.793-3.535-2.95-5.969-2.95
		c-4.152,0-7.52,3.366-7.52,7.519c0,0.517,0.057,1.021,0.154,1.509c0.051,0.251-0.109,0.3-0.191,0.329
		c-2.666,0.924-4.582,3.46-4.582,6.442c0,3.765,3.053,6.818,6.816,6.818c3.766,0,12.221,0,16.334,0c4.117,0,7.451-3.335,7.451-7.45
		c0-3.113-1.912-5.78-4.625-6.895C83.135,66.658,83.053,66.633,83.094,66.434z"/>
</g>
</svg>
