<?xml version="1.0" encoding="utf-8"?>
<!-- Generator: Adobe Illustrator 18.0.0, SVG Export Plug-In . SVG Version: 6.00 Build 0)  -->
<!DOCTYPE svg PUBLIC "-//W3C//DTD SVG 1.1//EN" "http://www.w3.org/Graphics/SVG/1.1/DTD/svg11.dtd">
<svg version="1.1" xmlns="http://www.w3.org/2000/svg" xmlns:xlink="http://www.w3.org/1999/xlink" x="0px" y="0px"
	 viewBox="0 0 200 200" enable-background="new 0 0 200 200" xml:space="preserve">
<g id="Hjärta" display="none">
	<path display="inline" fill="#E6007E" d="M198.34,53.596c-0.003-0.02-0.006-0.04-0.012-0.06c-0.023-0.093-0.047-0.178-0.07-0.27
		c-5.346-22.922-23.608-40.008-47.572-41.041c-1.573-0.137-3.158-0.223-4.766-0.223c-18.329,0-34.485,9.341-44.254,23.583
		c-0.351,0.511-0.886,1.208-1.666,1.136c-0.78,0.072-1.319-0.625-1.666-1.136c-9.77-14.242-25.925-23.583-44.254-23.583
		c-1.608,0-3.196,0.087-4.766,0.223C25.346,13.258,7.087,30.344,1.739,53.266c-0.02,0.092-0.046,0.177-0.067,0.27
		c-0.006,0.02-0.009,0.04-0.015,0.06C0.58,57.946,0,62.498,0,67.189c0,16.633,4.456,32.682,13.485,47.717
		c13.029,21.69,35.493,40.893,58.402,58.034c13.322,9.966,21.91,15.059,28.114,15.059c6.458,0,14.414-5.093,28.11-15.059
		c23.132-16.827,45.375-36.344,58.402-58.034C195.544,99.871,200,83.821,200,67.189C200,62.498,199.421,57.946,198.34,53.596z"/>
</g>
<g id="Layer_2">
	<g>
		<path fill-rule="evenodd" clip-rule="evenodd" fill="#FFFFFF" d="M200,100c0,55.228-44.772,100-99.993,100
			C44.763,200,0,155.228,0,100C0,44.774,44.763,0,100.007,0C155.228,0,200,44.774,200,100z"/>
	</g>
	<g>
		<g>
			<path fill-rule="evenodd" clip-rule="evenodd" fill="#FFFFFF" d="M195.268,100.024c0,52.618-42.658,95.275-95.271,95.275
				c-52.633,0-95.284-42.657-95.284-95.275S47.364,4.748,99.997,4.748C152.61,4.748,195.268,47.406,195.268,100.024z"/>
			<path fill="#00AB67" d="M99.997,196.092c-52.978,0-96.077-43.096-96.077-96.068c0-52.973,43.1-96.069,96.077-96.069
				c52.97,0,96.064,43.096,96.064,96.069C196.061,152.996,152.967,196.092,99.997,196.092z M99.997,5.542
				c-52.102,0-94.491,42.385-94.491,94.483c0,52.097,42.388,94.482,94.491,94.482c52.095,0,94.478-42.385,94.478-94.482
				C194.475,47.926,152.092,5.542,99.997,5.542z"/>
		</g>
		<path fill-rule="evenodd" clip-rule="evenodd" fill="#00AB67" d="M134.008,46.321L134.008,46.321 M144.812,98.529
			c2.188-2.637,11.529-1.754,11.529-1.754c5.522,0,5.746-3.866,4.577-6.634c-1.238-2.777-4.577-8.32-10.721-13.718
			c-7.075-6.353-15.531-11.593-21.811-14.816c-6.339-3.195-15.248-7.719-22.391-10.862c-6.997-3.136-18.307-7.878-24.731-9.989
			c-6.557-2.117-7.655-2.558-8.385-2.624c-0.598-0.078-1.087,0.363-0.598,0.795c1.032,0.804,12.632,10.357,16.709,13.711
			c4.083,3.29,8.463,7.813,11.539,11.014c2.4,2.639,4.743,4.965,4.953,5.833c0,0.093-0.073,0.449-0.284,0.585
			c-2.115,1.1-9.995,5.695-9.995,5.695c-1.84,1.105-11.521-1.9-18.753-3.939c-7.207-2.111-25.515-8.614-28.305-9.331
			c-2.188-0.585-4.24-1.236-7.291,2.978c-3.064,4.163-2.327,6.287-0.376,7.746c1.408,1.092,6.275,4.294,13.429,8.818
			c7.305,4.524,14.948,9.858,18.682,12.618c1.741,1.236,6.26,4.597,6.353,6.57c0.056,3.715,0.056,8.311,0.056,9.561
			c0,1.098-0.149,2.104-0.288,2.624c-0.222,0.79-1.019,0.79-1.092,0.79c-12.619,0-23.856-2.316-31.735-3.868
			c-7.954-1.519-19.392-4.655-20.127-4.734c-0.797-0.086-1.316,0.361-0.658,0.947c2.329,2.203,13.202,12.042,31.958,23.12
			c30.553,18.242,48.938,20.352,55.633,20.801c4.827,0.354,12.2-0.507,15.768-1.678c3.935-1.32,6.424-3.795,7.156-4.814
			c0.724-1.032,1.085-2.564,0.797-4.522c-0.297-1.973-1.667-2.757-3.645-5.111c-1.834-2.268-2.4-5.687-2.538-7.146
			c5.243-1.178,12.679-1.745,16.915-2.112c4.378-0.368,6.857,0.657,7.798,1.244c0.29,0.217,1.019,0.642,1.019,0.642
			s0.593,0.436,0.678-0.215c0.126-0.875-0.086-2.263-0.086-2.263s0.658,0,1.38,0.078c0.948,0.146,2.626,0.881,2.626,0.881
			c0.162-0.603,0.208-1.621,0.162-2.427c-0.091-1.451-0.974-2.839-1.769-3.771c0.073-2.553-0.737-5.11-2.549-7.234
			c-2.192-2.697-8.169-7.221-12.537-10.864C143.864,100.272,144.063,99.397,144.812,98.529L144.812,98.529z"/>
	</g>
</g>
</svg>
