<?xml version="1.0" encoding="utf-8"?>
<!-- Generator: Adobe Illustrator 18.0.0, SVG Export Plug-In . SVG Version: 6.00 Build 0)  -->
<!DOCTYPE svg PUBLIC "-//W3C//DTD SVG 1.1//EN" "http://www.w3.org/Graphics/SVG/1.1/DTD/svg11.dtd">
<svg version="1.1" id="Layer_1" xmlns="http://www.w3.org/2000/svg" xmlns:xlink="http://www.w3.org/1999/xlink" x="0px" y="0px"
	 viewBox="0 0 80 80" enable-background="new 0 0 80 80" xml:space="preserve">
<g>
	<path fill="#CBE9FC" d="M0,40C0,17.908,17.909,0,40,0c22.091,0,40,17.908,40,40c0,22.092-17.909,40-40,40C17.909,80,0,62.091,0,40"
		/>
	<path fill="#009FE3" d="M45.243,58.202c-0.389-0.373-1.176-0.702-1.738-0.996c-0.566-0.296-1.889-0.772-1.397-1.719
		c0.246-0.473,0.928-0.545,1.372-0.453c0.447,0.093,0.863,0.352,1.167,0.688c0.151,0.167,0.286,0.364,0.396,0.553
		c0.163,0.279,0.28,0.652,0.28,0.652l0.134,0.001l0-2.215l-0.113-0.001c-0.139,0.254-0.335,0.411-0.584,0.417
		c-0.148,0.003-0.326-0.045-0.533-0.138c-0.306-0.137-0.749-0.358-1.256-0.388c-1.615-0.095-2.309,1.134-2.218,2.057
		c0.056,0.577,0.286,0.96,0.765,1.343c0.749,0.599,1.335,0.759,2.248,1.248c1.153,0.616,0.743,1.543,0.179,1.766
		c-0.476,0.188-1.139,0.136-1.842-0.333c-0.176-0.117-0.4-0.326-0.591-0.607c-0.145-0.212-0.27-0.467-0.35-0.741L41,59.333
		l0.002,2.183h0.157c0.076-0.208,0.141-0.308,0.218-0.385c0.075-0.074,0.269-0.261,0.659-0.062c0.281,0.142,0.518,0.267,0.7,0.341
		c0.384,0.156,0.589,0.172,0.738,0.189c1.223,0.136,2.424-0.668,2.424-2.017C45.897,59.044,45.642,58.584,45.243,58.202
		 M49.968,60.336c-0.607,0.337-1.087,0.445-1.423,0.387c-0.641-0.11-0.853-0.799-0.704-1.292c0.22-0.729,0.914-1.225,2.025-1.784
		l0.128-0.065L49.968,60.336z M52.019,61.044c-0.269-0.031-0.311-0.361-0.307-0.86l0.039-3.239c0.075-1.351-0.201-2.122-1.834-2.307
		c-1.38-0.156-2.5,0.409-2.911,0.777c-0.503,0.45-0.567,0.861-0.553,1.083c0.03,0.47,0.41,0.753,0.869,0.75
		c0.518-0.003,0.871-0.275,0.873-0.647c0.001-0.27-0.106-0.388-0.224-0.553c-0.095-0.132-0.184-0.249-0.167-0.449
		c0.029-0.349,0.542-0.648,1.278-0.653c0.637-0.005,0.97,0.491,0.937,1.125l-0.022,1.146c0,0-0.617,0.258-2.034,0.904
		c-1.1,0.501-1.593,1.107-1.673,1.762c-0.105,0.874,0.421,1.544,1.175,1.69c0.572,0.111,1.123-0.035,1.748-0.409
		c0.199-0.119,0.77-0.498,0.77-0.498l0.002,0.009c0.075,0.563,0.54,0.836,0.975,0.904c0.385,0.06,0.938,0.013,1.483-0.548
		l-0.132-0.132C52.206,60.997,52.108,61.054,52.019,61.044 M62.495,60.482v-3.974c0-1.04-0.588-1.812-1.624-1.812
		c-0.776,0-1.522,0.438-2.046,1.203l-0.09,0.166l-0.047-0.201c-0.167-0.735-0.789-1.169-1.63-1.169c-0.699,0-1.272,0.332-1.86,1.077
		l-0.207,0.264v-1.229l-2.57-0.004v0.146c0.712,0.125,0.821,0.467,0.821,1.115l0.026,4.173c0,0.608-0.084,0.976-0.754,1.07v0.165
		h3.141v-0.167c-0.533-0.094-0.664-0.413-0.664-1.009V56.46l0.035-0.057c0.408-0.634,0.782-0.917,1.214-0.917
		c0.267,0,0.771,0.132,0.771,0.936v3.852c0,0.627-0.069,0.93-0.669,1.038v0.164h3.068V61.31c-0.61-0.095-0.675-0.407-0.675-0.993
		V56.49l0.064-0.091c0.498-0.694,0.814-0.928,1.254-0.928c0.465,0,0.719,0.297,0.719,0.862v3.891c0,0.486-0.042,0.978-0.675,1.085
		v0.166h3.097v-0.167C62.591,61.202,62.501,60.962,62.495,60.482 M39.29,59.926l-1.759-2.825l0.671-0.768
		c1.058-1.163,1.31-1.344,2.152-1.377V54.8h-2.8v0.146c0.356,0.011,0.774,0.08,0.774,0.575c0,0.286-0.264,0.462-0.732,1.016
		l-1.626,1.836l-0.003-6.774h-2.666v0.167c0.776,0.042,0.942,0.293,0.942,1.07v7.385c0,0.649-0.166,1.047-0.942,1.089v0.164h3.536
		v-0.164c-0.744-0.069-0.87-0.354-0.87-1.023v-1.386l0.472-0.537l1.288,2.145c0.099,0.154,0.181,0.349,0.181,0.453
		c0,0.215-0.174,0.343-0.401,0.343v0.169h3.186v-0.169C40.17,61.251,39.946,60.931,39.29,59.926 M32.291,60.474v-8.875h-2.666v0.161
		c0.793,0.049,0.942,0.287,0.942,1.023v7.589c0,0.61-0.249,0.892-0.942,0.933v0.169h3.448v-0.169
		C32.522,61.274,32.291,61.02,32.291,60.474 M20.503,56.385h-0.401v-4.477h1.672c1.682,0,2.418,0.641,2.624,2.207h0.137v-2.515
		h-7.729v0.167c1.114-0.015,1.432,0.291,1.432,1.434v6.684c0,1.005-0.206,1.458-1.432,1.421v0.204h4.689v-0.203
		c-0.656,0.008-0.905-0.069-1.128-0.32c-0.19-0.214-0.268-0.533-0.268-1.101v-3.202h0.242c1.373,0,2.118,0.752,2.216,2.236h0.136
		v-4.653H22.56C22.502,55.595,21.737,56.385,20.503,56.385 M27.847,58.537c-0.007,1.992-0.509,2.743-1.279,2.744
		c-0.887,0.001-1.272-1.053-1.263-3.527c0.007-2.008,0.512-2.729,1.267-2.73C27.623,55.023,27.855,56.194,27.847,58.537
		 M26.54,54.697c-1.488,0.002-3.05,1.032-3.047,3.402c0.003,2.576,1.813,3.504,3.118,3.503c1.312-0.002,3.048-0.926,3.045-3.467
		C29.653,55.726,28.142,54.695,26.54,54.697"/>
	<path fill="#009FE3" d="M31.52,71.025c-0.055,0-0.096-0.034-0.096-0.096v-0.329c0-2.164,2.725-1.822,2.725-2.931
		c0-0.425-0.349-0.726-0.849-0.726c-0.582,0-0.911,0.349-0.911,0.801c0,0.062-0.034,0.096-0.089,0.096h-0.76
		c-0.055,0-0.096-0.034-0.096-0.096c0-0.918,0.623-1.678,1.856-1.678c1.26,0,1.848,0.76,1.848,1.534c0,1.733-2.472,1.575-2.67,2.63
		h1.835v-0.452c0-0.068,0.034-0.096,0.096-0.096h0.684c0.055,0,0.096,0.028,0.096,0.096v1.15c0,0.062-0.042,0.096-0.096,0.096H31.52
		z"/>
	<path fill="#009FE3" d="M36.25,68.539c0-1.602,0.904-2.472,2.102-2.472c1.198,0,2.075,0.87,2.075,2.472
		c0,1.63-0.822,2.534-2.075,2.534C37.092,71.073,36.25,70.169,36.25,68.539 M39.42,68.56c0-1.054-0.376-1.616-1.075-1.616
		c-0.705,0-1.096,0.582-1.096,1.616c0,1.048,0.418,1.63,1.102,1.63C39.037,70.19,39.42,69.635,39.42,68.56"/>
	<path fill="#009FE3" d="M41.561,71.025c-0.054,0-0.096-0.034-0.096-0.096v-0.603c0-0.061,0.034-0.095,0.096-0.095h1.061v-3.075
		l-0.801,0.562c-0.048,0.034-0.096,0.034-0.137-0.021l-0.356-0.513c-0.034-0.055-0.027-0.096,0.02-0.137l1.301-0.904
		c0.034-0.027,0.062-0.034,0.096-0.034h0.712c0.061,0,0.095,0.034,0.095,0.095v4.027h0.952c0.062,0,0.096,0.034,0.096,0.095v0.603
		c0,0.062-0.034,0.096-0.096,0.096H41.561z"/>
	<path fill="#009FE3" d="M45.264,70.231c-0.048-0.048-0.048-0.096,0-0.137l0.541-0.5c0.055-0.048,0.095-0.041,0.136,0.007
		c0.205,0.212,0.514,0.589,1.123,0.589c0.603,0,0.945-0.322,0.945-0.842c0-0.431-0.301-0.767-0.972-0.767
		c-0.623,0-1.062,0.212-1.274,0.233c-0.089,0.006-0.191-0.035-0.191-0.219V66.17c0-0.062,0.041-0.089,0.095-0.089h2.979
		c0.055,0,0.089,0.027,0.089,0.089v1.089c0,0.068-0.034,0.096-0.089,0.096h-0.691c-0.055,0-0.089-0.034-0.089-0.096v-0.356h-1.348
		v1.006c0.157-0.027,0.424-0.103,0.773-0.103c1.171,0,1.725,0.671,1.725,1.603c0,0.938-0.739,1.664-1.944,1.664
		C45.935,71.073,45.456,70.443,45.264,70.231"/>
	<path fill="#009FE3" d="M17.998,26.159c-0.062,0.076-0.139,0.084-0.215,0.022l-0.743-0.607c-0.077-0.062-0.091-0.13-0.022-0.215
		l0.476-0.584l-4.109-3.35l-0.476,0.584c-0.062,0.076-0.139,0.084-0.215,0.021l-0.744-0.607c-0.076-0.062-0.091-0.13-0.022-0.214
		l2.296-2.815c0.889-1.09,2.165-1.274,3.18-0.447c0.532,0.434,0.75,1.048,0.706,1.688c0.817-0.502,1.566-0.384,2.191,0.126
		c1.158,0.944,1.17,2.137,0.012,3.557L17.998,26.159z M16.569,20.715c0.386-0.473,0.494-1.089-0.014-1.502
		c-0.6-0.49-1.187-0.236-1.607,0.279l-0.634,0.778l1.572,1.282L16.569,20.715z M19.216,22.663c0.551-0.676,0.6-1.34,0.017-1.816
		c-0.515-0.421-1.103-0.252-1.668,0.441l-0.8,0.981l1.665,1.358L19.216,22.663z"/>
	<path fill="#009FE3" d="M28.458,16.844c-0.317,0.193-0.634,0.092-1.011-0.151l-1.65-1.053c-0.233-0.152-0.504-0.281-0.835-0.092
		l-0.783,0.477l0.862,1.417l0.821-0.499c0.084-0.051,0.159-0.033,0.21,0.051l0.499,0.82c0.051,0.084,0.024,0.165-0.051,0.21
		l-2.731,1.662c-0.083,0.051-0.159,0.033-0.21-0.051l-0.499-0.821c-0.051-0.084-0.042-0.153,0.051-0.21l0.643-0.391l-2.757-4.53
		l-0.643,0.391c-0.084,0.051-0.159,0.033-0.21-0.051l-0.499-0.82c-0.051-0.084-0.042-0.154,0.051-0.21l3.067-1.866
		c1.342-0.817,2.813-0.562,3.613,0.752c0.533,0.876,0.488,1.747-0.067,2.493c0.198,0.033,0.407,0.123,0.679,0.277l1.324,0.791
		l0.597-0.363c0.084-0.051,0.159-0.033,0.21,0.051l0.499,0.821c0.051,0.084,0.033,0.159-0.051,0.21L28.458,16.844z M24.411,14.517
		c0.858-0.522,1.153-1.085,0.711-1.812c-0.494-0.811-1.235-0.769-1.999-0.304l-0.839,0.51l1.288,2.116L24.411,14.517z"/>
	<path fill="#009FE3" d="M35.862,14.544c-0.096,0.019-0.161-0.023-0.18-0.119l-0.192-0.941c-0.02-0.096,0.023-0.16,0.119-0.18
		l0.695-0.142l-0.668-1.089l-2.502,0.51l-0.198,1.265l0.716-0.145c0.097-0.02,0.161,0.023,0.181,0.119l0.192,0.941
		c0.019,0.097-0.023,0.161-0.119,0.181l-2.865,0.584c-0.097,0.02-0.161-0.023-0.181-0.119l-0.192-0.941
		c-0.02-0.097,0.023-0.161,0.119-0.181l0.717-0.146l0.908-5.598l-0.727,0.148c-0.097,0.02-0.161-0.023-0.181-0.12l-0.192-0.941
		c-0.02-0.096,0.023-0.16,0.119-0.18l2.032-0.414c0.438-0.089,0.634,0.049,0.905,0.45l3.401,5.376l0.706-0.144
		c0.096-0.02,0.161,0.023,0.181,0.119l0.192,0.941c0.02,0.096-0.023,0.16-0.119,0.18L35.862,14.544z M33.731,8.953l-0.064,0.013
		l-0.342,2.475l1.711-0.349L33.731,8.953z"/>
	<path fill="#009FE3" d="M46.998,15.198c-0.408-0.12-0.506-0.33-0.551-0.798l-0.544-6.367l-0.649-0.19
		c-0.094-0.028-0.131-0.095-0.104-0.19l0.27-0.921c0.027-0.095,0.105-0.128,0.189-0.104l2.848,0.834
		c0.095,0.027,0.131,0.095,0.104,0.19l-0.27,0.922c-0.031,0.104-0.095,0.131-0.19,0.104l-0.649-0.19l0.339,4.897l0.084,0.024
		l2.918-3.943l-0.639-0.187c-0.104-0.03-0.141-0.098-0.114-0.193l0.27-0.921c0.028-0.094,0.106-0.128,0.2-0.101l2.838,0.832
		c0.095,0.027,0.142,0.098,0.114,0.193l-0.269,0.921c-0.031,0.105-0.096,0.132-0.201,0.101l-0.649-0.19l-3.895,5.066
		c-0.28,0.373-0.476,0.498-0.873,0.381L46.998,15.198z"/>
	<path fill="#009FE3" d="M55.277,19.217c-0.082-0.055-0.096-0.13-0.042-0.212l0.536-0.797c0.055-0.081,0.13-0.096,0.212-0.041
		l0.589,0.396l0.307-1.24l-2.119-1.423l-1.04,0.746l0.606,0.408c0.082,0.055,0.096,0.13,0.042,0.212l-0.536,0.797
		c-0.054,0.081-0.13,0.096-0.212,0.041l-2.426-1.63c-0.081-0.055-0.096-0.13-0.042-0.212l0.535-0.797
		c0.055-0.081,0.13-0.096,0.212-0.041l0.606,0.408l4.623-3.281l-0.616-0.414c-0.081-0.055-0.096-0.13-0.041-0.212l0.535-0.797
		c0.055-0.082,0.131-0.096,0.212-0.041l1.72,1.156c0.371,0.249,0.41,0.486,0.314,0.96l-1.441,6.194l0.598,0.401
		c0.081,0.055,0.096,0.13,0.042,0.212l-0.536,0.797c-0.055,0.081-0.13,0.096-0.212,0.041L55.277,19.217z M57.763,13.777
		l-0.054-0.036l-2.002,1.493l1.448,0.974L57.763,13.777z"/>
	<path fill="#009FE3" d="M58.807,22.144c-0.059-0.078-0.049-0.154,0.028-0.214l0.763-0.583c0.078-0.06,0.148-0.058,0.215,0.029
		l0.457,0.598l4.213-3.22l-0.458-0.598c-0.06-0.078-0.05-0.155,0.029-0.214l0.763-0.583c0.077-0.059,0.148-0.058,0.214,0.029
		l1.795,2.349c0.067,0.087,0.052,0.194-0.025,0.254l-0.729,0.557c-0.078,0.059-0.185,0.045-0.251-0.041l-0.437-0.572l-4.213,3.22
		l1.524,1.994l0.832-0.637c0.078-0.059,0.155-0.049,0.214,0.029l0.663,0.867c0.066,0.086,0.056,0.163-0.022,0.223l-1.699,1.298
		c-0.077,0.059-0.191,0.037-0.251-0.041L58.807,22.144z"/>
	<path fill="#E5007D" d="M52.53,31.896H26.816c-0.155,0.701,0.016,1.332,0.731,1.88h24.868
		C52.627,33.131,52.662,32.517,52.53,31.896"/>
	<path fill="#E5007D" d="M41.227,46.104c-0.003,0.352-0.294,0.638-0.646,0.636l-1.579-0.008c-0.352-0.002-0.637-0.291-0.633-0.643
		l0.036-3.598c0.003-0.352,0.294-0.638,0.646-0.637l1.578,0.008c0.352,0.002,0.637,0.291,0.633,0.643L41.227,46.104z"/>
	<path fill="#E5007D" d="M40.911,38.893c-0.059,0.034-0.107,0.006-0.107-0.062v-2.979c-0.715,0.044-1.333,0.135-1.881,0.243v5.773
		c0.042-0.009,0.085-0.013,0.128-0.013l1.579,0.008c0.06,0,0.118,0.01,0.174,0.026v-0.788c0-0.068,0.048-0.151,0.107-0.185
		l6.26-3.614c-0.72-0.181-1.473-0.464-2.232-0.735L40.911,38.893z"/>
	<path fill="#8C0258" d="M39.864,24.135c-6.084,0-10.002,2.933-11.56,5.085c-0.705,0.974-1.31,1.872-1.487,2.676H52.53
		c-0.106-0.499-0.318-1.001-0.632-1.526C50.674,28.33,45.54,24.135,39.864,24.135"/>
	<path fill="#E5007D" d="M46.352,27.415c-1.149-0.877-3.768-2.003-6.875-2.003c-4.086,0-7.169,2.031-8.075,3.107
		c-0.905,1.077,0.807,0.465,2.129-0.098c1.321-0.563,3.181-1.273,6.068-1.273c2.888,0,4.894,0.539,6.46,1.175
		C47.002,28.707,47.135,28.013,46.352,27.415"/>
	<path fill="#E5007D" d="M45.447,29.063c-0.661-0.245-3.034-0.807-5.481-0.807c-2.324,0-4.967,0.538-6.337,1.076
		c-1.37,0.538,2.006,0.465,4.013,0.441c2.006-0.025,6.533,0.073,7.708,0.073S46.108,29.308,45.447,29.063"/>
	<path fill="#8C0258" d="M28.638,34.377c2.968,1.224,5.602,2.337,7.086,2.337c1.484,0,2.931-0.891,6.01-0.891
		c3.08,0,6.699,3.193,8.887,0.744c0.926-1.036,1.515-1.939,1.795-2.791H27.548C27.825,33.989,28.183,34.189,28.638,34.377"/>
</g>
</svg>
