<?xml version="1.0" encoding="utf-8"?>
<!-- Generator: Adobe Illustrator 16.0.0, SVG Export Plug-In . SVG Version: 6.00 Build 0)  -->
<!DOCTYPE svg PUBLIC "-//W3C//DTD SVG 1.1//EN" "http://www.w3.org/Graphics/SVG/1.1/DTD/svg11.dtd">
<svg version="1.1" id="Lager_1" xmlns="http://www.w3.org/2000/svg" xmlns:xlink="http://www.w3.org/1999/xlink" x="0px" y="0px"
	 viewBox="0 0 59.528 59.528" enable-background="new 0 0 59.528 59.528" xml:space="preserve">
<g>
	<g>
		<path fill="#F0A5C3" d="M49.224,5.485l-18.427,7.862v4.004l4.691-2.002V44.59h13.225c0.494,0,0.896-0.402,0.896-0.896V6.218
			C49.609,5.915,49.457,5.648,49.224,5.485z"/>
		<path fill="#E6007E" d="M30.797,17.352v-4.004H10.282c-0.219,0.256-0.363,0.59-0.363,0.896v2.21c0,0.494,0.403,0.897,0.896,0.897
			h3.754v26.342c0,0.494,0.403,0.896,0.896,0.896H31.69v14.34c0,0.33,0.269,0.598,0.598,0.598h2.602
			c0.328,0,0.598-0.268,0.598-0.598V44.59v-9.314V15.35L30.797,17.352z"/>
		<path fill="#8C005A" d="M10.282,13.348h20.515l18.427-7.862c-0.145-0.103-0.322-0.164-0.512-0.164H29.626
			c-0.492,0-1.267,0.158-1.721,0.352l-17.161,7.323C10.572,13.069,10.414,13.195,10.282,13.348z"/>
	</g>
	<path fill="#FFE57E" d="M27.746,26.011c0.097,0.538,0.209,1.567-0.001,2.877c-0.165,1.032-0.796,1.88-1.599,2.349
		c0.362-0.556,0.558-1.224,0.601-1.696c0.177-1.938-1.06-3.592-3.352-3.592c-1.93,0-3.342,1.481-3.342,3.411
		c0,0.477,0.081,0.929,0.229,1.349c-0.012-0.012-0.023-0.023-0.036-0.035c0.026,0.049,0.054,0.101,0.083,0.15
		c-0.051-0.079-0.101-0.167-0.145-0.251c-0.442-0.447-1.146-1.489-1.362-2.959c-0.097-0.659-0.141-1.201-0.156-1.603h-0.908
		c0.013,0.408,0.042,0.938,0.105,1.522c0.118,1.064,0.489,2.367,1.162,3.408c1.03,1.595,2.637,2.121,3.631,2.3
		c0.93,0.168,2.233,0.09,2.634,0.027c1.865-0.291,3.908-1.299,5.21-3.376c1.02-1.631,1.361-3.173,1.473-3.882H27.746z
		 M23.483,27.239c1.169,0,2.011,0.951,2.011,2.12c0,0.597-0.246,1.352-0.799,1.807c-0.394,0.324-0.843,0.542-1.646,0.443
		c-0.404-0.084-0.741-0.248-0.922-0.409c-0.67-0.591-0.765-1.17-0.765-1.841C21.363,28.19,22.313,27.239,23.483,27.239z"/>
</g>
</svg>
