<?xml version="1.0" encoding="utf-8"?>
<!-- Generator: Adobe Illustrator 16.0.0, SVG Export Plug-In . SVG Version: 6.00 Build 0)  -->
<!DOCTYPE svg PUBLIC "-//W3C//DTD SVG 1.1//EN" "http://www.w3.org/Graphics/SVG/1.1/DTD/svg11.dtd">
<svg version="1.1" id="Lager_1" xmlns="http://www.w3.org/2000/svg" xmlns:xlink="http://www.w3.org/1999/xlink" x="0px" y="0px"
	 viewBox="0 0 59.528 59.527" enable-background="new 0 0 59.528 59.527" xml:space="preserve">
<g>
	<g>
		<path fill="#D2E182" d="M49.225,5.485l-18.427,7.862v4.004l4.69-2.002V44.59h13.224c0.493,0,0.896-0.402,0.896-0.896V6.218
			C49.609,5.915,49.457,5.647,49.225,5.485z"/>
		<path fill="#B0CB0B" d="M30.798,17.351v-4.004H10.283c-0.219,0.256-0.364,0.59-0.364,0.896v2.21c0,0.494,0.404,0.897,0.897,0.897
			h3.754v26.342c0,0.494,0.404,0.896,0.896,0.896H31.69v14.34c0,0.33,0.27,0.598,0.599,0.598h2.602c0.329,0,0.599-0.268,0.599-0.598
			V44.59v-9.314V15.349L30.798,17.351z"/>
		<path fill="#1E6E32" d="M10.283,13.347h20.516l18.427-7.862c-0.146-0.103-0.322-0.164-0.513-0.164H29.626
			c-0.491,0-1.268,0.158-1.721,0.352l-17.162,7.323C10.574,13.069,10.415,13.195,10.283,13.347z"/>
	</g>
	<path fill="#FFFFFF" d="M27.748,26.01c0.096,0.538,0.208,1.567-0.001,2.877c-0.165,1.032-0.797,1.88-1.601,2.349
		c0.364-0.556,0.559-1.224,0.603-1.697c0.177-1.938-1.06-3.592-3.353-3.592c-1.93,0-3.342,1.481-3.342,3.411
		c0,0.477,0.081,0.929,0.229,1.349c-0.012-0.012-0.023-0.023-0.035-0.035c0.025,0.049,0.053,0.101,0.083,0.15
		c-0.052-0.079-0.102-0.167-0.146-0.251c-0.442-0.447-1.146-1.489-1.362-2.959c-0.097-0.659-0.14-1.201-0.157-1.603h-0.908
		c0.014,0.408,0.043,0.938,0.106,1.522c0.118,1.064,0.49,2.367,1.162,3.409c1.029,1.596,2.637,2.119,3.631,2.299
		c0.93,0.168,2.234,0.09,2.634,0.027c1.865-0.289,3.908-1.299,5.209-3.375c1.021-1.631,1.363-3.173,1.473-3.882H27.748z
		 M23.484,27.239c1.169,0,2.011,0.951,2.011,2.12c0,0.597-0.247,1.352-0.798,1.807c-0.395,0.324-0.843,0.543-1.646,0.441
		c-0.405-0.082-0.74-0.246-0.923-0.408c-0.669-0.59-0.764-1.169-0.764-1.84C21.364,28.19,22.316,27.239,23.484,27.239z"/>
</g>
</svg>
