<?xml version="1.0" encoding="utf-8"?>
<!-- Generator: Adobe Illustrator 16.0.0, SVG Export Plug-In . SVG Version: 6.00 Build 0)  -->
<!DOCTYPE svg PUBLIC "-//W3C//DTD SVG 1.1//EN" "http://www.w3.org/Graphics/SVG/1.1/DTD/svg11.dtd">
<svg version="1.1" id="Lager_1" xmlns="http://www.w3.org/2000/svg" xmlns:xlink="http://www.w3.org/1999/xlink" x="0px" y="0px"
	 viewBox="0 0 113.556 113.556" enable-background="new 0 0 113.556 113.556"
	 xml:space="preserve">
<g>
	<path fill="#7DC8F0" d="M72.516,41.311c0-1.503,0.869-1.863,1.934-0.801c0,0,5.486,6.885,6.518,8.15
		c1.031,1.266,2.531,1.645,2.531,1.645H72.516V41.311z"/>
	<path fill="#E6007E" d="M46.487,48.373L46.014,47.9c-0.051-0.051-0.115-0.102-0.172-0.152c-0.52-2.308,0.662-4.506,2.895-4.268
		c2.45,0.262,3.105,2.328,4.546,5.101c0.286,0.548,0.587,1.136,0.889,1.724h-3.02C49.648,50.305,47.551,49.436,46.487,48.373z"/>
	<circle fill-rule="evenodd" clip-rule="evenodd" fill="#E6007E" cx="95.651" cy="66.532" r="7.125"/>
	<circle fill-rule="evenodd" clip-rule="evenodd" fill="#FFFFFF" cx="95.651" cy="66.532" r="3.563"/>
	<circle fill-rule="evenodd" clip-rule="evenodd" fill="#E6007E" cx="31.444" cy="66.532" r="7.125"/>
	<circle fill-rule="evenodd" clip-rule="evenodd" fill="#FFFFFF" cx="31.443" cy="66.532" r="3.563"/>
	<path fill="#B0CB0B" d="M87.239,66.532c0,0.271-0.193,0.803-0.885,0.803c-0.652,0-41.175,0-45.882,0
		c-0.467,0-0.616-0.215-0.616-0.803c0-3.195-1.792-5.98-4.424-7.404h56.231C89.032,60.551,87.239,63.336,87.239,66.532z"/>
	<path fill="#B0CB0B" d="M23.033,66.532c0,0.271-0.094,0.803-0.649,0.803s-6.843,0-6.843,0H7.468c-1.33,0-2.409-1.078-2.409-2.41
		c0-1.162,0.798-2.359,1.916-2.359c1.803,0,2.146-1.084,0.977-3.438h19.506C24.825,60.551,23.033,63.336,23.033,66.532z"/>
	<path fill="#B0CB0B" d="M110.602,61.458c-0.285,0.98,0.066,1.125,0.262,1.189c0.959,0.314,1.654,1.213,1.654,2.277
		c0,1.332-1.078,2.41-2.408,2.41h-4.18c0,0-0.16,0-0.959,0s-0.908-0.531-0.908-0.803c0-3.195-1.793-5.98-4.426-7.404h11.717
		C110.985,60.249,110.688,61.159,110.602,61.458z"/>
	<path fill="#B0CB0B" d="M1.715,41.883l39.646,3.834c1.424,0.133,3.378,1.029,4.48,2.031c0.057,0.051,0.121,0.102,0.172,0.152
		l0.474,0.473c1.063,1.063,3.161,1.932,4.664,1.932h3.02h18.345h9.766h29.271c1.502,0,2.348,1.168,1.875,2.596
		c0,0-0.459,1.367-1.008,3.014c-12.168,0-49.775,0-57.26,0c-8.956,0-14.743-0.475-14.743-0.475L4.705,52.819
		c-2.1-4.145-4.418-8.782-4.418-8.782C-0.426,42.714,0.219,41.744,1.715,41.883z"/>
	<path fill="#E6007E" d="M68.18,45.808c0-0.799,0.648-1.446,1.445-1.446c0.799,0,1.447,0.647,1.447,1.446v4.498H68.18V45.808z"/>
	<path fill="#D2E182" d="M55.161,55.915c7.484,0,45.092,0,57.26,0c-0.352,1.053-0.738,2.217-1.066,3.213H99.637
		c-1.186-0.641-2.545-1.006-3.986-1.006s-2.801,0.365-3.988,1.006H35.432c-1.188-0.641-2.545-1.006-3.987-1.006
		s-2.8,0.365-3.987,1.006H7.951c-0.072-0.145-0.149-0.295-0.233-0.449c-0.545-1.008-1.738-3.344-3.013-5.859l35.713,2.621
		C40.418,55.44,46.205,55.915,55.161,55.915z"/>
</g>
</svg>
