<?xml version="1.0" encoding="utf-8"?>
<!-- Generator: Adobe Illustrator 16.0.0, SVG Export Plug-In . SVG Version: 6.00 Build 0)  -->
<!DOCTYPE svg PUBLIC "-//W3C//DTD SVG 1.1//EN" "http://www.w3.org/Graphics/SVG/1.1/DTD/svg11.dtd">
<svg version="1.1" id="Lager_1" xmlns="http://www.w3.org/2000/svg" xmlns:xlink="http://www.w3.org/1999/xlink" x="0px" y="0px"
	 viewBox="0 0 113.556 113.556" enable-background="new 0 0 113.556 113.556"
	 xml:space="preserve">
<g>
	<path fill="#7DC8F0" d="M72.516,41.311c0-1.503,0.871-1.863,1.934-0.801c0,0,5.486,6.885,6.518,8.15
		c1.031,1.265,2.533,1.646,2.533,1.646H72.516V41.311z"/>
	<path fill="#009FE4" d="M46.488,48.374l-0.474-0.473c-0.052-0.051-0.115-0.102-0.172-0.152c-0.521-2.308,0.661-4.506,2.894-4.268
		c2.451,0.262,3.105,2.328,4.547,5.101c0.285,0.547,0.587,1.135,0.889,1.725h-3.02C49.649,50.307,47.55,49.436,46.488,48.374z"/>
	<circle fill-rule="evenodd" clip-rule="evenodd" fill="#009FE4" cx="95.65" cy="66.531" r="7.125"/>
	<circle fill-rule="evenodd" clip-rule="evenodd" fill="#FFFFFF" cx="95.65" cy="66.531" r="3.563"/>
	<circle fill-rule="evenodd" clip-rule="evenodd" fill="#009FE4" cx="31.445" cy="66.531" r="7.125"/>
	<circle fill-rule="evenodd" clip-rule="evenodd" fill="#FFFFFF" cx="31.444" cy="66.531" r="3.563"/>
	<g>
		<path fill="#FFB900" d="M87.24,66.531c0,0.271-0.195,0.803-0.887,0.803c-0.652,0-41.175,0-45.881,0
			c-0.467,0-0.617-0.215-0.617-0.803c0-3.195-1.791-5.98-4.424-7.402h56.233C89.031,60.551,87.24,63.336,87.24,66.531z"/>
		<path fill="#FFB900" d="M23.033,66.531c0,0.271-0.094,0.803-0.649,0.803s-6.843,0-6.843,0H7.468c-1.331,0-2.41-1.078-2.41-2.41
			c0-1.162,0.798-2.357,1.916-2.357c1.803,0,2.146-1.084,0.977-3.438h19.506C24.826,60.551,23.033,63.336,23.033,66.531z"/>
		<path fill="#FFB900" d="M110.602,61.457c-0.285,0.98,0.066,1.125,0.264,1.189c0.959,0.314,1.654,1.213,1.654,2.277
			c0,1.332-1.08,2.41-2.41,2.41h-4.18c0,0-0.16,0-0.959,0s-0.908-0.531-0.908-0.803c0-3.195-1.793-5.98-4.424-7.402h11.715
			C110.984,60.248,110.689,61.158,110.602,61.457z"/>
		<path fill="#FFE57E" d="M55.16,55.916c7.484,0,45.092,0,57.26,0c-0.35,1.051-0.736,2.215-1.066,3.213H99.639
			c-1.188-0.643-2.547-1.008-3.988-1.008s-2.799,0.365-3.986,1.008H35.431c-1.188-0.643-2.545-1.008-3.986-1.008
			c-1.442,0-2.801,0.365-3.988,1.008H7.951c-0.072-0.146-0.148-0.295-0.233-0.451c-0.545-1.008-1.738-3.344-3.013-5.857
			l35.713,2.619C40.417,55.439,46.205,55.916,55.16,55.916z"/>
	</g>
	<path fill="#009FE4" d="M68.18,45.808c0-0.799,0.648-1.446,1.445-1.446c0.799,0,1.447,0.647,1.447,1.446v4.499H68.18V45.808z"/>
	<path fill="#FFB900" d="M1.714,41.883l39.646,3.834c1.424,0.133,3.379,1.029,4.481,2.031c0.057,0.051,0.12,0.102,0.172,0.152
		l0.474,0.473c1.063,1.062,3.161,1.933,4.664,1.933h3.02h18.344h9.766h29.271c1.504,0,2.348,1.166,1.875,2.594
		c0,0-0.457,1.367-1.008,3.016c-12.168,0-49.775,0-57.26,0c-8.956,0-14.743-0.477-14.743-0.477L4.705,52.82
		c-2.1-4.146-4.418-8.783-4.418-8.783C-0.425,42.714,0.218,41.745,1.714,41.883z"/>
</g>
</svg>
