<?xml version="1.0" encoding="utf-8"?>
<!-- Generator: Adobe Illustrator 16.0.0, SVG Export Plug-In . SVG Version: 6.00 Build 0)  -->
<!DOCTYPE svg PUBLIC "-//W3C//DTD SVG 1.1//EN" "http://www.w3.org/Graphics/SVG/1.1/DTD/svg11.dtd">
<svg version="1.1" id="Lager_1" xmlns="http://www.w3.org/2000/svg" xmlns:xlink="http://www.w3.org/1999/xlink" x="0px" y="0px"
	 viewBox="0 0 113.556 113.556" enable-background="new 0 0 113.556 113.556"
	 xml:space="preserve">
<g>
	<path fill="#7DC8F0" d="M72.516,41.311c0-1.504,0.87-1.863,1.934-0.801c0,0,5.486,6.885,6.518,8.15
		c1.031,1.265,2.532,1.644,2.532,1.644H72.516V41.311z"/>
	<path fill="#FFB900" d="M46.487,48.374l-0.474-0.473c-0.051-0.051-0.115-0.102-0.172-0.152c-0.52-2.309,0.662-4.506,2.895-4.268
		c2.45,0.261,3.105,2.328,4.546,5.1c0.286,0.549,0.587,1.136,0.889,1.724h-3.02C49.648,50.305,47.551,49.436,46.487,48.374z"/>
	<circle fill-rule="evenodd" clip-rule="evenodd" fill="#FFB900" cx="95.65" cy="66.531" r="7.125"/>
	<circle fill-rule="evenodd" clip-rule="evenodd" fill="#FFFFFF" cx="95.65" cy="66.531" r="3.563"/>
	<circle fill-rule="evenodd" clip-rule="evenodd" fill="#FFB900" cx="31.444" cy="66.531" r="7.125"/>
	<circle fill-rule="evenodd" clip-rule="evenodd" fill="#FFFFFF" cx="31.443" cy="66.531" r="3.563"/>
	<g>
		<path fill="#009FE4" d="M87.239,66.531c0,0.271-0.194,0.803-0.886,0.803c-0.652,0-41.175,0-45.882,0
			c-0.467,0-0.616-0.215-0.616-0.803c0-3.195-1.792-5.98-4.424-7.402h56.231C89.031,60.551,87.239,63.336,87.239,66.531z"/>
		<path fill="#009FE4" d="M23.033,66.531c0,0.271-0.094,0.803-0.649,0.803s-6.843,0-6.843,0H7.468c-1.33,0-2.409-1.078-2.409-2.41
			c0-1.162,0.798-2.359,1.916-2.359c1.803,0,2.146-1.084,0.977-3.436h19.506C24.825,60.551,23.033,63.336,23.033,66.531z"/>
		<path fill="#009FE4" d="M110.602,61.457c-0.284,0.98,0.066,1.123,0.263,1.189c0.959,0.314,1.654,1.213,1.654,2.277
			c0,1.332-1.079,2.41-2.409,2.41h-4.18c0,0-0.16,0-0.959,0s-0.908-0.531-0.908-0.803c0-3.195-1.793-5.98-4.425-7.402h11.716
			C110.984,60.248,110.688,61.158,110.602,61.457z"/>
		<path fill="#7DC8F0" d="M55.161,55.916c7.483,0,45.091,0,57.259,0c-0.351,1.051-0.737,2.215-1.066,3.213H99.638
			c-1.187-0.643-2.545-1.008-3.987-1.008c-1.441,0-2.8,0.365-3.987,1.008H35.432c-1.188-0.643-2.545-1.008-3.987-1.008
			s-2.8,0.365-3.987,1.008H7.951c-0.072-0.146-0.149-0.297-0.233-0.451c-0.545-1.008-1.738-3.344-3.013-5.859l35.713,2.621
			C40.418,55.439,46.205,55.916,55.161,55.916z"/>
	</g>
	<path fill="#FFB900" d="M68.18,45.807c0-0.799,0.648-1.445,1.446-1.445s1.446,0.646,1.446,1.445v4.498H68.18V45.807z"/>
	<path fill="#009FE4" d="M1.715,41.882l39.646,3.835c1.424,0.131,3.378,1.029,4.48,2.031c0.057,0.051,0.121,0.102,0.172,0.152
		l0.474,0.473c1.063,1.063,3.161,1.931,4.664,1.931h3.02h18.345h9.766h29.271c1.503,0,2.348,1.168,1.876,2.596
		c0,0-0.459,1.367-1.009,3.016c-12.168,0-49.775,0-57.259,0c-8.956,0-14.743-0.477-14.743-0.477L4.705,52.818
		c-2.1-4.144-4.418-8.782-4.418-8.782C-0.426,42.713,0.219,41.744,1.715,41.882z"/>
</g>
</svg>
