<?xml version="1.0" encoding="utf-8"?>
<!-- Generator: Adobe Illustrator 16.0.0, SVG Export Plug-In . SVG Version: 6.00 Build 0)  -->
<!DOCTYPE svg PUBLIC "-//W3C//DTD SVG 1.1//EN" "http://www.w3.org/Graphics/SVG/1.1/DTD/svg11.dtd">
<svg version="1.1" id="Lager_1" xmlns="http://www.w3.org/2000/svg" xmlns:xlink="http://www.w3.org/1999/xlink" x="0px" y="0px"
	 viewBox="0 0 113.556 113.556" enable-background="new 0 0 113.556 113.556"
	 xml:space="preserve">
<g>
	<path fill="#7DC8F0" d="M72.516,41.311c0-1.504,0.87-1.863,1.933-0.801c0,0,5.486,6.885,6.518,8.15s2.533,1.645,2.533,1.645H72.516
		V41.311z"/>
	<path fill="#B0CB0B" d="M46.488,48.374l-0.474-0.473c-0.052-0.051-0.115-0.102-0.172-0.152c-0.521-2.309,0.661-4.506,2.894-4.268
		c2.451,0.261,3.105,2.328,4.547,5.1c0.285,0.549,0.587,1.137,0.889,1.725h-3.02C49.649,50.305,47.55,49.436,46.488,48.374z"/>
	<circle fill-rule="evenodd" clip-rule="evenodd" fill="#B0CB0B" cx="95.65" cy="66.532" r="7.125"/>
	<circle fill-rule="evenodd" clip-rule="evenodd" fill="#FFFFFF" cx="95.65" cy="66.532" r="3.563"/>
	<circle fill-rule="evenodd" clip-rule="evenodd" fill="#B0CB0B" cx="31.445" cy="66.532" r="7.125"/>
	<circle fill-rule="evenodd" clip-rule="evenodd" fill="#FFFFFF" cx="31.444" cy="66.532" r="3.563"/>
	<g>
		<path fill="#E6007E" d="M87.24,66.532c0,0.271-0.195,0.803-0.886,0.803c-0.653,0-41.176,0-45.882,0
			c-0.467,0-0.617-0.215-0.617-0.803c0-3.195-1.791-5.98-4.424-7.403h56.232C89.031,60.551,87.24,63.336,87.24,66.532z"/>
		<path fill="#E6007E" d="M23.033,66.532c0,0.271-0.094,0.803-0.649,0.803s-6.843,0-6.843,0H7.468c-1.331,0-2.41-1.079-2.41-2.41
			c0-1.162,0.798-2.359,1.916-2.359c1.803,0,2.146-1.084,0.977-3.437h19.506C24.826,60.551,23.033,63.336,23.033,66.532z"/>
		<path fill="#E6007E" d="M110.602,61.457c-0.285,0.981,0.066,1.124,0.263,1.189c0.959,0.315,1.654,1.213,1.654,2.278
			c0,1.331-1.08,2.41-2.41,2.41h-4.18c0,0-0.16,0-0.959,0s-0.908-0.532-0.908-0.803c0-3.195-1.793-5.98-4.424-7.403h11.715
			C110.984,60.249,110.689,61.159,110.602,61.457z"/>
		<path fill="#F0A5C3" d="M55.161,55.916c7.483,0,45.091,0,57.259,0c-0.35,1.052-0.736,2.215-1.066,3.213H99.638
			c-1.188-0.642-2.546-1.007-3.988-1.007c-1.441,0-2.799,0.365-3.986,1.007H35.431c-1.188-0.642-2.545-1.007-3.986-1.007
			c-1.442,0-2.801,0.365-3.988,1.007H7.951c-0.072-0.146-0.148-0.296-0.233-0.451c-0.545-1.007-1.738-3.343-3.013-5.858
			l35.713,2.621C40.417,55.44,46.205,55.916,55.161,55.916z"/>
	</g>
	<path fill="#B0CB0B" d="M68.179,45.807c0-0.799,0.648-1.445,1.446-1.445s1.446,0.646,1.446,1.445v4.498h-2.893V45.807z"/>
	<path fill="#E6007E" d="M1.714,41.882l39.646,3.835c1.424,0.131,3.379,1.029,4.481,2.031c0.057,0.051,0.12,0.102,0.172,0.152
		l0.474,0.473c1.063,1.063,3.161,1.932,4.664,1.932h3.02h18.345h9.766h29.271c1.504,0,2.348,1.168,1.876,2.595
		c0,0-0.458,1.368-1.009,3.016c-12.168,0-49.775,0-57.259,0c-8.956,0-14.743-0.476-14.743-0.476L4.705,52.819
		c-2.1-4.145-4.418-8.782-4.418-8.782C-0.425,42.713,0.218,41.744,1.714,41.882z"/>
</g>
</svg>
