<?xml version="1.0" encoding="utf-8"?>
<!-- Generator: Adobe Illustrator 16.0.0, SVG Export Plug-In . SVG Version: 6.00 Build 0)  -->
<!DOCTYPE svg PUBLIC "-//W3C//DTD SVG 1.1//EN" "http://www.w3.org/Graphics/SVG/1.1/DTD/svg11.dtd">
<svg version="1.1" id="Lager_1" xmlns="http://www.w3.org/2000/svg" xmlns:xlink="http://www.w3.org/1999/xlink" x="0px" y="0px"
	 viewBox="0 0 77.216 77.216" enable-background="new 0 0 77.216 77.216" xml:space="preserve">
<g>
	<g>
		<path fill="#009FE4" d="M23.401,65.782c0,0.725,0.595,1.32,1.32,1.32h27.771c0.727,0,1.32-0.596,1.32-1.32v-0.205H23.401V65.782z"
			/>
		<path fill="#009FE4" d="M53.813,61.339c0-0.727-0.594-1.32-1.32-1.32H24.722c-0.726,0-1.32,0.594-1.32,1.32v2.607h30.412V61.339z"
			/>
		<rect x="23.401" y="63.946" fill="#7DC8F0" width="30.412" height="1.631"/>
	</g>
	<path fill="#7DC8F0" d="M47.176,17.658c-1.868,2.737-5.013,4.537-8.568,4.537c-3.557,0-6.699-1.8-8.568-4.537l-8.533,19.609v20.041
		v2.557c0,1.451,1.188,2.641,2.641,2.641h7.177h7.284h7.284h7.177c1.452,0,2.641-1.189,2.641-2.641v-2.557v-18.43L47.176,17.658z"/>
	<rect x="37.809" y="15.935" fill="#009FE4" width="1.631" height="47.402"/>
	<g>
		<path fill="#009FE4" d="M70.619,63.03c0.541,0.951,1.41,1.053,2.171,0.719c0.505-0.223,2.364-1.143,3.676-1.799
			c0.746-0.373,0.941-0.988,0.535-1.98L70.619,63.03z"/>
		<path fill="#7DC8F0" d="M76.921,59.778c-0.038-0.084-0.341-0.732-0.603-1.289l-6.395,3.066c0.267,0.578,0.562,1.23,0.585,1.281
			c0.033,0.072,0.073,0.129,0.11,0.193l6.382-3.061C76.975,59.905,76.954,59.845,76.921,59.778z"/>
	</g>
	<g>
		<path fill="#009FE4" d="M6.596,63.03c-0.541,0.951-1.41,1.053-2.17,0.719C3.92,63.526,2.061,62.606,0.75,61.95
			c-0.747-0.373-0.942-0.988-0.535-1.98L6.596,63.03z"/>
		<path fill="#7DC8F0" d="M0.293,59.778c0.038-0.084,0.342-0.732,0.604-1.289l6.395,3.066c-0.267,0.578-0.562,1.23-0.584,1.281
			c-0.035,0.072-0.074,0.129-0.111,0.193L0.215,59.97C0.241,59.905,0.262,59.845,0.293,59.778z"/>
	</g>
	<g>
		<path fill="#009FE4" d="M75.969,57.212c0.576-0.729,0.673-1.84,0.101-3.068c-2.499-5.359-13.547-29.291-14.288-30.585
			c-2.898-5.056-7.403-9.065-12.817-11.349c-0.433-0.182-0.871-0.349-1.313-0.508c-0.002,0.034-0.002,0.069-0.004,0.103
			l-0.003,0.045c-0.239,4.813-4.209,8.594-9.036,8.594c-4.828,0-8.797-3.78-9.036-8.604l-0.003-0.037
			c-0.002-0.032-0.002-0.066-0.004-0.1c-0.442,0.159-0.882,0.326-1.313,0.508c-5.414,2.283-9.919,6.293-12.817,11.349
			C14.692,24.853,3.646,48.784,1.146,54.144c-0.571,1.229-0.476,2.34,0.101,3.068c0.05,0.064,0.142,0.227,0.033,0.459
			c-0.03,0.064-0.195,0.418-0.383,0.818l6.395,3.066c0.189-0.41,0.365-0.781,0.421-0.877c0.146-0.256,0.363-0.277,0.479-0.287
			c0.951-0.086,1.737-0.49,2.347-1.539c0.52-0.895,10.969-19.975,10.969-19.975l8.533-21.22l0,0
			c1.869,2.737,5.012,4.537,8.568,4.537c3.556,0,6.7-1.8,8.568-4.537l0,0l8.533,21.22c0,0,10.449,19.08,10.969,19.975
			c0.609,1.049,1.396,1.453,2.347,1.539c0.116,0.01,0.332,0.031,0.479,0.287c0.056,0.096,0.23,0.467,0.421,0.877l6.395-3.066
			c-0.188-0.4-0.353-0.754-0.383-0.818C75.827,57.438,75.919,57.276,75.969,57.212z"/>
		<path fill="#009FE4" d="M44.358,10.742c0.021,0.186,0.035,0.373,0.035,0.564c0,0.098-0.01,0.191-0.016,0.288l0,0
			c-0.151,3.057-2.677,5.497-5.771,5.497s-5.619-2.44-5.771-5.497l0,0c-0.005-0.097-0.015-0.19-0.015-0.288
			c0-0.191,0.015-0.379,0.034-0.564c-0.112,0.027-0.226,0.056-0.34,0.081c-0.446,0.104-0.887,0.224-1.323,0.351
			c-0.003,0.071-0.01,0.144-0.01,0.215c0,0.104,0.005,0.205,0.012,0.309l0.004,0.049c0.197,3.967,3.451,7.066,7.408,7.066
			s7.212-3.1,7.408-7.056l0.004-0.058c0.006-0.105,0.012-0.207,0.012-0.311c0-0.07-0.007-0.144-0.008-0.215
			c-0.438-0.127-0.879-0.246-1.325-0.351C44.585,10.797,44.471,10.769,44.358,10.742z"/>
		<path fill="#0A4682" d="M32.837,11.594L32.837,11.594c0.151,3.057,2.677,5.497,5.771,5.497s5.619-2.44,5.771-5.497l0,0
			c0.006-0.097,0.016-0.19,0.016-0.288c0-0.191-0.015-0.379-0.035-0.564c-0.071-0.017-0.143-0.036-0.214-0.051
			c-1.787-0.377-3.639-0.578-5.537-0.578s-3.75,0.201-5.537,0.578c-0.072,0.015-0.143,0.034-0.214,0.051
			c-0.02,0.186-0.034,0.373-0.034,0.564C32.822,11.404,32.832,11.498,32.837,11.594z"/>
		<path fill="#7DC8F0" d="M29.571,11.838c0.239,4.824,4.208,8.604,9.036,8.604c4.827,0,8.797-3.78,9.036-8.594l0.003-0.045
			c0.002-0.033,0.002-0.068,0.004-0.103c-0.535-0.193-1.078-0.37-1.627-0.528c0.001,0.071,0.008,0.145,0.008,0.215
			c0,0.104-0.006,0.205-0.012,0.311l-0.004,0.058c-0.196,3.956-3.451,7.056-7.408,7.056s-7.211-3.1-7.408-7.066l-0.004-0.049
			c-0.007-0.104-0.012-0.205-0.012-0.309c0-0.071,0.007-0.144,0.01-0.215c-0.551,0.158-1.093,0.335-1.629,0.528
			c0.002,0.033,0.002,0.067,0.004,0.1L29.571,11.838z"/>
	</g>
	<circle fill="#009FE4" cx="42.146" cy="24.689" r="1.114"/>
	<circle fill="#009FE4" cx="42.146" cy="33.415" r="1.114"/>
	<circle fill="#009FE4" cx="42.146" cy="42.142" r="1.114"/>
	<circle fill="#009FE4" cx="42.146" cy="50.868" r="1.114"/>
	<circle fill="#009FE4" cx="42.146" cy="59.595" r="1.114"/>
	<g>
		<path fill-rule="evenodd" clip-rule="evenodd" fill="#009FE4" d="M29.202,29.531c0.034-0.074-0.038-0.081-0.104-0.077
			c-0.033,0.002-0.652,0.006-0.669,0.006c-0.285,0-0.358-0.203-0.358-0.351c0-0.454-0.001-0.631-0.001-1.068
			c0-0.244,0.229-0.285,0.354-0.287c0.899-0.019,1.8-0.012,2.699-0.006c0.522,0.004,0.786,0.345,0.955,0.781
			c0.406,1.043,0.807,2.088,1.204,3.134c0.562,1.475,1.132,2.943,1.668,4.428c0.141,0.389,0.326,0.586,0.748,0.518
			c0.471-0.076,0.649,0.107,0.632,0.605c-0.007,0.205-0.011,0.498-0.011,0.635c0,0.361-0.221,0.459-0.551,0.459
			c-0.136,0-0.304-0.008-0.515-0.006c-0.918,0.012-1.838-0.018-2.755,0.012c-0.421,0.012-0.53-0.139-0.527-0.541
			c0.002-0.133,0.007-0.553,0.007-0.66c0-0.32,0.104-0.455,0.488-0.455c0.097,0,0.345-0.01,0.476-0.01
			c0.196,0,0.13-0.186,0.113-0.232c-0.147-0.422-0.284-0.834-0.454-1.232c-0.04-0.094-0.232-0.168-0.355-0.17
			c-0.937-0.016-1.874-0.021-2.81,0.004c-0.147,0.006-0.354,0.162-0.422,0.303c-0.159,0.328-0.274,0.678-0.4,1.027
			c-0.019,0.051-0.153,0.281,0.001,0.281c0.197,0,0.497,0.023,0.746,0.023c0.125,0,0.33,0.152,0.33,0.369
			c0,0.295-0.021,0.643-0.021,0.941c0,0.186-0.124,0.33-0.331,0.33c-1.212,0-2.424,0.01-3.637,0.01
			c-0.297,0-0.379-0.254-0.349-0.527c0.021-0.186,0.027-0.605,0.027-0.785c0-0.238,0.118-0.359,0.311-0.359
			c0.142,0,0.509,0.027,0.614,0.027c0.26,0,0.274-0.086,0.456-0.588c0.659-1.83,1.517-4.047,2.201-5.866
			C29.047,29.984,29.122,29.76,29.202,29.531z M29.848,33.532c0.707,0,1.35,0,2.031,0c0.09,0,0.102-0.066,0.09-0.1
			c-0.354-1.002-0.697-1.963-1.083-3.048c-0.017-0.044-0.081-0.042-0.097,0.004c-0.372,1.068-0.702,2.015-1.043,2.992
			C29.729,33.431,29.709,33.532,29.848,33.532z"/>
	</g>
</g>
</svg>
