<?xml version="1.0" encoding="utf-8"?>
<!-- Generator: Adobe Illustrator 16.0.0, SVG Export Plug-In . SVG Version: 6.00 Build 0)  -->
<!DOCTYPE svg PUBLIC "-//W3C//DTD SVG 1.1//EN" "http://www.w3.org/Graphics/SVG/1.1/DTD/svg11.dtd">
<svg version="1.1" id="Lager_1" xmlns="http://www.w3.org/2000/svg" xmlns:xlink="http://www.w3.org/1999/xlink" x="0px" y="0px"
	 viewBox="0 0 88.385 88.383" enable-background="new 0 0 88.385 88.383" xml:space="preserve">
<g>
	<g>
		<path fill="#009FE4" d="M81.821,33.816H6.489c-0.452,2.055,0.047,3.903,2.144,5.512h72.852
			C82.104,37.438,82.209,35.637,81.821,33.816"/>
		<path fill="#009FE4" d="M48.709,75.442c-0.013,1.031-0.862,1.869-1.895,1.863l-4.625-0.025c-1.028-0.006-1.862-0.852-1.851-1.883
			l0.104-10.537c0.011-1.031,0.863-1.871,1.893-1.865l4.625,0.023c1.029,0.006,1.864,0.852,1.853,1.883L48.709,75.442z"/>
		<path fill="#009FE4" d="M47.78,54.317c-0.171,0.098-0.313,0.018-0.313-0.182v-8.727c-2.097,0.131-3.903,0.395-5.507,0.709v16.916
			c0.119-0.025,0.247-0.041,0.374-0.037l4.625,0.021c0.177,0.002,0.344,0.029,0.508,0.078v-2.313c0-0.197,0.142-0.443,0.313-0.541
			l18.34-10.588c-2.108-0.531-4.315-1.359-6.54-2.15L47.78,54.317z"/>
		<path fill="#0A4682" d="M44.717,11.079c-17.826,0-29.304,8.597-33.87,14.897c-2.063,2.856-3.838,5.484-4.357,7.84H81.82
			c-0.311-1.46-0.934-2.932-1.85-4.469C76.378,23.373,61.344,11.079,44.717,11.079"/>
		<path fill="#009FE4" d="M63.721,20.69c-3.368-2.568-11.039-5.866-20.142-5.866c-11.969,0-21.005,5.946-23.653,9.102
			c-2.651,3.156,2.365,1.359,6.236-0.288c3.87-1.647,9.317-3.729,17.775-3.729c8.461,0,14.339,1.579,18.926,3.446
			C65.627,24.477,66.017,22.443,63.721,20.69"/>
		<path fill="#009FE4" d="M61.069,25.521c-1.936-0.72-8.887-2.365-16.056-2.365c-6.811,0-14.55,1.577-18.565,3.151
			c-4.014,1.579,5.879,1.362,11.755,1.291c5.88-0.071,19.139,0.215,22.579,0.215C64.224,27.813,63.006,26.239,61.069,25.521"/>
		<path fill="#0A4682" d="M11.827,41.085c8.695,3.588,16.412,6.843,20.756,6.843c4.349,0,8.588-2.607,17.605-2.607
			c9.022,0,19.625,9.355,26.036,2.184c2.712-3.04,4.44-5.683,5.26-8.177H8.633C9.447,39.949,10.497,40.534,11.827,41.085"/>
	</g>
</g>
</svg>
