<?xml version="1.0" encoding="utf-8"?>
<!-- Generator: Adobe Illustrator 16.0.0, SVG Export Plug-In . SVG Version: 6.00 Build 0)  -->
<!DOCTYPE svg PUBLIC "-//W3C//DTD SVG 1.1//EN" "http://www.w3.org/Graphics/SVG/1.1/DTD/svg11.dtd">
<svg version="1.1" id="Lager_1" xmlns="http://www.w3.org/2000/svg" xmlns:xlink="http://www.w3.org/1999/xlink" x="0px" y="0px"
	 viewBox="0 0 97.086 97.087" enable-background="new 0 0 97.086 97.087" xml:space="preserve">
<g>
	<g>
		<g>
			<path fill="#009FE4" d="M59.212,57.774c0-10.439,8.494-18.935,18.934-18.935S97.08,47.335,97.08,57.774
				s-8.494,18.934-18.934,18.934S59.212,68.214,59.212,57.774z M62.163,57.774c0,8.813,7.17,15.982,15.983,15.982
				c8.813,0,15.983-7.169,15.983-15.982s-7.171-15.982-15.983-15.982C69.333,41.792,62.163,48.961,62.163,57.774z"/>
		</g>
		<g>
			<path fill="#009FE4" d="M0.007,57.774c0-10.439,8.494-18.935,18.933-18.935c10.441,0,18.934,8.495,18.934,18.935
				S29.38,76.708,18.939,76.708C8.5,76.708,0.007,68.214,0.007,57.774z M2.958,57.774c0,8.813,7.169,15.982,15.981,15.982
				c8.813,0,15.983-7.169,15.983-15.982s-7.169-15.982-15.983-15.982C10.128,41.792,2.958,48.961,2.958,57.774z"/>
		</g>
		<g>
			<path fill="#FFCB00" d="M34.114,25.647"/>
		</g>
		<g>
			<path fill="#FFB900" d="M2.687,35.362c0,0.814,0.662,1.475,1.477,1.475h0.98l10.425,18.051c-0.667,0.777-1.073,1.785-1.073,2.887
				c0,2.448,1.995,4.442,4.443,4.442c1.933,0,3.577-1.242,4.187-2.967h15.316c0.656,2.518,2.943,4.385,5.664,4.385
				c0.273,0,0.541-0.026,0.806-0.063l3.047,7.355c0.235,0.567,0.784,0.91,1.362,0.91c0.188,0,0.379-0.036,0.565-0.112
				c0.752-0.312,1.108-1.175,0.797-1.928l-3.047-7.356c1.412-1.072,2.33-2.763,2.33-4.667c0-0.065-0.008-0.129-0.01-0.194
				l17.093-19.237l7.938,16.312c-0.793,0.803-1.284,1.905-1.284,3.12c0,2.448,1.994,4.442,4.443,4.442
				c2.45,0,4.443-1.994,4.443-4.442c0-2.45-1.993-4.443-4.443-4.443c-0.172,0-0.341,0.012-0.506,0.031L66,29.443
				c-0.004-0.008-0.008-0.016-0.012-0.023l-2.538-5.216c-0.872-1.793-3.033-3.145-5.026-3.145h-5.478
				c-0.814,0-1.476,0.661-1.476,1.476s0.661,1.476,1.476,1.476h5.478c0.849,0,2.002,0.722,2.373,1.483l2.104,4.322
				c-2.115,2.363-8.725,9.752-11.225,12.572c-3.404,3.844-4.544,4.742-7.93,4.742H40.82L30.623,25.028
				c-0.341-0.739-1.218-1.062-1.958-0.721c-0.739,0.341-1.063,1.218-0.721,1.958l3.503,7.592c-0.026,0.01-0.052,0.019-0.077,0.029
				H4.164C3.349,33.887,2.687,34.547,2.687,35.362z M22.309,54.886l10.41-18.049h0.103l7.571,16.408
				c-0.942,0.775-1.634,1.839-1.951,3.054H23.126C22.941,55.776,22.663,55.298,22.309,54.886z M48.865,54.367
				c-1.064-1.483-2.799-2.453-4.759-2.453c-0.354,0-0.697,0.036-1.034,0.097l-0.891-1.93h1.564c4.832,0,6.8-1.967,10.139-5.736
				c2.231-2.52,7.759-8.699,10.411-11.661l1.357,2.789L48.865,54.367z M8.552,36.837h20.761l-9.559,16.572
				c-0.265-0.05-0.536-0.078-0.815-0.078c-0.279,0-0.553,0.028-0.817,0.078L8.552,36.837z"/>
			<circle fill="#FFFFFF" cx="78.146" cy="57.774" r="1.493"/>
		</g>
		<g>
			<path fill="#009FE4" d="M46.552,71.913h4.993c0.814,0,1.476-0.66,1.476-1.475s-0.661-1.476-1.476-1.476h-4.993
				c-0.814,0-1.475,0.661-1.475,1.476S45.738,71.913,46.552,71.913z"/>
		</g>
		<path fill="#FFFFFF" d="M44.106,54.864c1.604,0,2.91,1.306,2.91,2.91c0,1.604-1.306,2.909-2.91,2.909s-2.909-1.306-2.909-2.909
			C41.197,56.17,42.501,54.864,44.106,54.864z"/>
		<g>
			<path fill="#FFCB00" d="M27.69,72.932"/>
		</g>
		<path fill="#FFFFFF" d="M18.939,56.281c0.824,0,1.494,0.67,1.494,1.493s-0.669,1.492-1.494,1.492
			c-0.822,0-1.492-0.669-1.492-1.492S18.118,56.281,18.939,56.281z"/>
		<g>
			<path fill="#009FE4" d="M24.462,27.804h9.533c1.189,0,2.155-0.966,2.155-2.156c0-1.191-0.966-2.156-2.155-2.156h-9.533
				c-1.19,0-2.156,0.965-2.156,2.156C22.307,26.838,23.272,27.804,24.462,27.804z"/>
		</g>
		<g>
			<path fill="#009FE4" d="M50.078,24.691h5.742c1.191,0,2.157-0.965,2.157-2.156c0-1.19-0.966-2.156-2.157-2.156h-5.742
				c-1.19,0-2.156,0.966-2.156,2.156C47.921,23.727,48.887,24.691,50.078,24.691z"/>
		</g>
	</g>
	<path fill="#009FE4" d="M68.855,23.668h18.79c1.063,0,1.732,0.846,1.488,1.88l-2.332,9.884c-0.244,1.033-1.313,1.879-2.375,1.879
		H72.075c-1.063,0-2.132-0.846-2.376-1.879l-2.331-9.884C67.123,24.514,67.793,23.668,68.855,23.668z"/>
</g>
</svg>
