<?xml version="1.0" encoding="utf-8"?>
<!-- Generator: Adobe Illustrator 16.0.0, SVG Export Plug-In . SVG Version: 6.00 Build 0)  -->
<!DOCTYPE svg PUBLIC "-//W3C//DTD SVG 1.1//EN" "http://www.w3.org/Graphics/SVG/1.1/DTD/svg11.dtd">
<svg version="1.1" id="Lager_1" xmlns="http://www.w3.org/2000/svg" xmlns:xlink="http://www.w3.org/1999/xlink" x="0px" y="0px"
	 viewBox="0 0 97.087 97.086" enable-background="new 0 0 97.087 97.086" xml:space="preserve">
<g>
	<g>
		<g>
			<path fill="#E6007E" d="M59.213,57.774c0-10.439,8.494-18.934,18.934-18.934S97.08,47.334,97.08,57.774
				s-8.494,18.934-18.934,18.934S59.213,68.213,59.213,57.774z M62.163,57.774c0,8.814,7.17,15.982,15.983,15.982
				c8.813,0,15.983-7.168,15.983-15.982c0-8.813-7.171-15.982-15.983-15.982C69.333,41.792,62.163,48.961,62.163,57.774z"/>
		</g>
		<g>
			<path fill="#E6007E" d="M0.007,57.774C0.007,47.334,8.5,38.84,18.94,38.84s18.934,8.495,18.934,18.934
				S29.381,76.708,18.94,76.708S0.007,68.213,0.007,57.774z M2.958,57.774c0,8.814,7.17,15.982,15.982,15.982
				s15.982-7.168,15.982-15.982c0-8.813-7.17-15.982-15.982-15.982S2.958,48.961,2.958,57.774z"/>
		</g>
		<g>
			<path fill="#FFCB00" d="M34.113,25.647"/>
		</g>
		<g>
			<path fill="#B0CB0B" d="M2.688,35.362c0,0.814,0.661,1.475,1.477,1.475h0.98l10.425,18.05c-0.667,0.777-1.073,1.785-1.073,2.887
				c0,2.449,1.995,4.443,4.444,4.443c1.933,0,3.576-1.242,4.186-2.967h15.316c0.655,2.518,2.943,4.385,5.663,4.385
				c0.274,0,0.542-0.027,0.807-0.063l3.046,7.355c0.235,0.566,0.784,0.91,1.364,0.91c0.188,0,0.378-0.037,0.563-0.113
				c0.753-0.311,1.111-1.174,0.799-1.928l-3.047-7.355c1.412-1.072,2.33-2.764,2.33-4.668c0-0.064-0.008-0.129-0.01-0.193
				L67.05,38.343l7.938,16.312c-0.793,0.803-1.284,1.904-1.284,3.119c0,2.449,1.994,4.443,4.443,4.443
				c2.45,0,4.443-1.994,4.443-4.443s-1.993-4.443-4.443-4.443c-0.172,0-0.34,0.012-0.507,0.031L66,29.443
				c-0.004-0.008-0.009-0.016-0.012-0.023l-2.539-5.216c-0.871-1.793-3.032-3.145-5.025-3.145h-5.478
				c-0.815,0-1.476,0.661-1.476,1.476s0.66,1.476,1.476,1.476h5.478c0.849,0,2.002,0.722,2.373,1.483l2.104,4.322
				c-2.114,2.363-8.726,9.752-11.225,12.573c-3.404,3.844-4.544,4.742-7.93,4.742H40.82L30.623,25.028
				c-0.341-0.739-1.218-1.062-1.958-0.721c-0.739,0.341-1.063,1.218-0.722,1.958l3.504,7.592c-0.027,0.01-0.052,0.019-0.077,0.029
				H4.164C3.349,33.887,2.688,34.547,2.688,35.362z M22.31,54.885l10.41-18.048h0.102l7.571,16.408
				c-0.942,0.775-1.634,1.84-1.95,3.055H23.126C22.941,55.776,22.664,55.297,22.31,54.885z M48.865,54.368
				c-1.064-1.484-2.799-2.453-4.76-2.453c-0.353,0-0.697,0.035-1.033,0.096l-0.891-1.93h1.564c4.832,0,6.8-1.967,10.138-5.736
				c2.232-2.52,7.759-8.699,10.411-11.661l1.357,2.789L48.865,54.368z M8.553,36.837h20.76l-9.558,16.572
				c-0.265-0.049-0.536-0.078-0.814-0.078c-0.28,0-0.553,0.029-0.818,0.078L8.553,36.837z"/>
			<circle fill="#FFFFFF" cx="78.146" cy="57.774" r="1.492"/>
		</g>
		<g>
			<path fill="#E6007E" d="M46.553,71.913h4.993c0.814,0,1.476-0.66,1.476-1.475s-0.661-1.475-1.476-1.475h-4.993
				c-0.815,0-1.475,0.66-1.475,1.475S45.737,71.913,46.553,71.913z"/>
		</g>
		<path fill="#FFFFFF" d="M44.105,54.864c1.605,0,2.911,1.307,2.911,2.91s-1.306,2.91-2.911,2.91c-1.604,0-2.909-1.307-2.909-2.91
			S42.501,54.864,44.105,54.864z"/>
		<g>
			<path fill="#FFCB00" d="M27.69,72.932"/>
		</g>
		<circle fill="#FFFFFF" cx="18.94" cy="57.774" r="1.492"/>
		<g>
			<path fill="#E6007E" d="M24.463,27.804h9.532c1.19,0,2.156-0.966,2.156-2.156c0-1.191-0.966-2.156-2.156-2.156h-9.532
				c-1.19,0-2.156,0.965-2.156,2.156C22.307,26.838,23.272,27.804,24.463,27.804z"/>
		</g>
		<g>
			<path fill="#E6007E" d="M50.078,24.691h5.742c1.19,0,2.155-0.965,2.155-2.156c0-1.19-0.965-2.156-2.155-2.156h-5.742
				c-1.19,0-2.155,0.966-2.155,2.156C47.923,23.727,48.888,24.691,50.078,24.691z"/>
		</g>
	</g>
	<path fill="#E6007E" d="M68.855,23.668h18.79c1.063,0,1.732,0.846,1.488,1.88l-2.333,9.884c-0.243,1.033-1.313,1.879-2.375,1.879
		H72.075c-1.063,0-2.133-0.846-2.375-1.879l-2.332-9.884C67.123,24.514,67.794,23.668,68.855,23.668z"/>
</g>
</svg>
