<?xml version="1.0" encoding="utf-8"?>
<!-- Generator: Adobe Illustrator 16.0.0, SVG Export Plug-In . SVG Version: 6.00 Build 0)  -->
<!DOCTYPE svg PUBLIC "-//W3C//DTD SVG 1.1//EN" "http://www.w3.org/Graphics/SVG/1.1/DTD/svg11.dtd">
<svg version="1.1" id="Lager_1" xmlns="http://www.w3.org/2000/svg" xmlns:xlink="http://www.w3.org/1999/xlink" x="0px" y="0px"
	 viewBox="0 0 88.385 88.383" enable-background="new 0 0 88.385 88.383" xml:space="preserve">
<g>
	<g>
		<path fill="#B0CB0B" d="M81.945,33.782H6.365c-0.454,2.061,0.047,3.916,2.15,5.53h73.092
			C82.229,37.416,82.334,35.609,81.945,33.782"/>
		<path fill="#B0CB0B" d="M48.724,75.545c-0.013,1.034-0.865,1.876-1.9,1.868l-4.64-0.024c-1.032-0.005-1.869-0.854-1.857-1.89
			l0.104-10.571c0.01-1.034,0.866-1.878,1.898-1.871l4.64,0.023c1.033,0.007,1.871,0.854,1.859,1.889L48.724,75.545z"/>
		<path fill="#B0CB0B" d="M47.792,54.35c-0.171,0.099-0.313,0.018-0.313-0.182v-8.756c-2.104,0.131-3.916,0.397-5.524,0.711v16.973
			c0.119-0.025,0.248-0.041,0.375-0.036l4.64,0.021c0.178,0.002,0.345,0.029,0.51,0.078v-2.32c0-0.197,0.143-0.445,0.313-0.541
			l18.4-10.625c-2.115-0.531-4.329-1.363-6.562-2.157L47.792,54.35z"/>
		<path fill="#1E6E32" d="M44.719,10.97c-17.885,0-29.401,8.625-33.981,14.946c-2.07,2.866-3.851,5.502-4.372,7.866h75.579
			c-0.312-1.465-0.937-2.941-1.855-4.484C76.484,23.305,61.4,10.97,44.719,10.97"/>
		<path fill="#B0CB0B" d="M63.785,20.613c-3.379-2.577-11.075-5.885-20.208-5.885c-12.008,0-21.074,5.965-23.731,9.132
			c-2.661,3.166,2.373,1.364,6.256-0.289c3.883-1.653,9.349-3.742,17.834-3.742c8.489,0,14.386,1.584,18.988,3.458
			C65.697,24.412,66.089,22.372,63.785,20.613"/>
		<path fill="#B0CB0B" d="M61.125,25.46c-1.942-0.722-8.916-2.373-16.108-2.373c-6.833,0-14.598,1.582-18.626,3.162
			c-4.027,1.584,5.898,1.367,11.794,1.295c5.899-0.071,19.202,0.215,22.653,0.215C64.29,27.759,63.068,26.18,61.125,25.46"/>
		<path fill="#1E6E32" d="M11.721,41.076c8.724,3.599,16.466,6.866,20.824,6.866c4.363,0,8.616-2.616,17.663-2.616
			c9.053,0,19.689,9.387,26.122,2.189c2.721-3.049,4.456-5.701,5.277-8.203H8.516C9.333,39.936,10.386,40.523,11.721,41.076"/>
	</g>
</g>
</svg>
