<?xml version="1.0" encoding="utf-8"?>
<!-- Generator: Adobe Illustrator 16.0.0, SVG Export Plug-In . SVG Version: 6.00 Build 0)  -->
<!DOCTYPE svg PUBLIC "-//W3C//DTD SVG 1.1//EN" "http://www.w3.org/Graphics/SVG/1.1/DTD/svg11.dtd">
<svg version="1.1" id="Lager_1" xmlns="http://www.w3.org/2000/svg" xmlns:xlink="http://www.w3.org/1999/xlink" x="0px" y="0px"
	 viewBox="0 0 88.385 88.383" enable-background="new 0 0 88.385 88.383" xml:space="preserve">
<g>
	<g>
		<path fill="#E6007E" d="M81.573,33.885H6.738c-0.45,2.041,0.046,3.877,2.129,5.476h72.371
			C81.854,37.483,81.958,35.694,81.573,33.885"/>
		<path fill="#E6007E" d="M48.679,75.236c-0.012,1.023-0.856,1.856-1.882,1.85l-4.594-0.024c-1.021-0.005-1.85-0.845-1.838-1.871
			l0.103-10.467c0.01-1.023,0.857-1.859,1.879-1.853l4.595,0.022c1.022,0.007,1.853,0.848,1.841,1.871L48.679,75.236z"/>
		<path fill="#E6007E" d="M47.757,54.25c-0.17,0.098-0.311,0.018-0.311-0.18v-8.669c-2.083,0.129-3.878,0.393-5.471,0.703V62.91
			c0.118-0.025,0.245-0.041,0.371-0.036l4.595,0.02c0.176,0.003,0.342,0.03,0.505,0.077v-2.297c0-0.195,0.141-0.44,0.311-0.535
			l18.219-10.52c-2.095-0.527-4.287-1.351-6.497-2.137L47.757,54.25z"/>
		<path fill="#8C005A" d="M44.714,11.297c-17.709,0-29.111,8.541-33.647,14.799c-2.05,2.838-3.813,5.448-4.329,7.789h74.834
			c-0.31-1.451-0.928-2.913-1.838-4.44C76.166,23.511,61.23,11.297,44.714,11.297"/>
		<path fill="#E6007E" d="M63.592,20.846c-3.346-2.552-10.966-5.828-20.009-5.828c-11.889,0-20.866,5.907-23.497,9.042
			c-2.634,3.135,2.35,1.351,6.195-0.286c3.844-1.637,9.256-3.704,17.659-3.704c8.404,0,14.244,1.568,18.8,3.423
			C65.485,24.608,65.872,22.587,63.592,20.846"/>
		<path fill="#E6007E" d="M60.958,25.645c-1.923-0.715-8.828-2.35-15.949-2.35c-6.766,0-14.455,1.566-18.443,3.13
			c-3.987,1.569,5.84,1.354,11.677,1.283c5.841-0.07,19.012,0.213,22.43,0.213C64.092,27.921,62.882,26.358,60.958,25.645"/>
		<path fill="#8C005A" d="M12.041,41.106c8.637,3.563,16.303,6.799,20.619,6.799c4.32,0,8.531-2.591,17.49-2.591
			c8.963,0,19.494,9.294,25.863,2.168c2.694-3.019,4.412-5.645,5.226-8.121H8.867C9.677,39.978,10.72,40.559,12.041,41.106"/>
	</g>
</g>
</svg>
