<?xml version="1.0" encoding="utf-8"?>
<!-- Generator: Adobe Illustrator 16.0.0, SVG Export Plug-In . SVG Version: 6.00 Build 0)  -->
<!DOCTYPE svg PUBLIC "-//W3C//DTD SVG 1.1//EN" "http://www.w3.org/Graphics/SVG/1.1/DTD/svg11.dtd">
<svg version="1.1" id="Lager_1" xmlns="http://www.w3.org/2000/svg" xmlns:xlink="http://www.w3.org/1999/xlink" x="0px" y="0px"
	 viewBox="0 0 97.059 97.059" enable-background="new 0 0 97.059 97.059" xml:space="preserve">
<g>
	<g>
		<g>
			<path fill="#B0CB0B" d="M59.198,57.761c0-10.441,8.494-18.935,18.934-18.935s18.934,8.493,18.934,18.935
				c0,10.438-8.494,18.933-18.934,18.933S59.198,68.199,59.198,57.761z M62.149,57.761c0,8.813,7.17,15.981,15.982,15.981
				s15.984-7.169,15.984-15.981c0-8.814-7.172-15.983-15.984-15.983S62.149,48.946,62.149,57.761z"/>
		</g>
		<g>
			<path fill="#B0CB0B" d="M-0.007,57.761c0-10.441,8.494-18.935,18.933-18.935c10.441,0,18.934,8.493,18.934,18.935
				c0,10.438-8.493,18.933-18.934,18.933C8.487,76.693-0.007,68.199-0.007,57.761z M2.945,57.761
				c0,8.813,7.169,15.981,15.981,15.981c8.813,0,15.983-7.169,15.983-15.981c0-8.814-7.169-15.983-15.983-15.983
				C10.114,41.777,2.945,48.946,2.945,57.761z"/>
		</g>
		<g>
			
				<path fill="none" stroke="#E20614" stroke-width="19.5" stroke-linecap="round" stroke-linejoin="round" stroke-miterlimit="10" d="
				M34.1,25.633"/>
		</g>
		<g>
			<path fill="#009FE4" d="M2.673,35.348c0,0.814,0.662,1.476,1.477,1.476h0.98l10.425,18.051c-0.667,0.777-1.073,1.784-1.073,2.887
				c0,2.448,1.995,4.442,4.443,4.442c1.933,0,3.577-1.243,4.187-2.968h15.316c0.656,2.518,2.943,4.385,5.664,4.385
				c0.273,0,0.541-0.025,0.806-0.062l3.046,7.354c0.236,0.568,0.785,0.911,1.363,0.911c0.188,0,0.379-0.037,0.564-0.113
				c0.752-0.312,1.109-1.175,0.797-1.928l-3.047-7.356c1.412-1.071,2.33-2.762,2.33-4.666c0-0.066-0.008-0.129-0.01-0.194
				l17.094-19.237l7.938,16.311c-0.793,0.804-1.285,1.906-1.285,3.121c0,2.448,1.994,4.442,4.443,4.442
				c2.451,0,4.443-1.994,4.443-4.442c0-2.451-1.992-4.444-4.443-4.444c-0.172,0-0.34,0.013-0.506,0.031L65.985,29.429
				c-0.004-0.008-0.008-0.016-0.012-0.023l-2.537-5.216c-0.873-1.792-3.033-3.144-5.027-3.144h-5.477
				c-0.814,0-1.477,0.661-1.477,1.475s0.662,1.475,1.477,1.475h5.477c0.85,0,2.002,0.722,2.373,1.484l2.104,4.322
				c-2.115,2.362-8.725,9.751-11.225,12.572c-3.404,3.843-4.543,4.741-7.929,4.741h-2.926L30.609,25.015
				c-0.341-0.74-1.218-1.063-1.958-0.721c-0.739,0.341-1.063,1.217-0.721,1.958l3.503,7.592c-0.026,0.01-0.052,0.019-0.077,0.029
				H4.15C3.335,33.872,2.673,34.532,2.673,35.348z M22.295,54.871l10.41-18.048h0.103l7.571,16.408
				c-0.942,0.774-1.634,1.839-1.951,3.053H23.112C22.928,55.762,22.649,55.283,22.295,54.871z M48.851,54.353
				c-1.064-1.482-2.799-2.453-4.758-2.453c-0.354,0-0.697,0.037-1.034,0.097l-0.891-1.929h1.564c4.832,0,6.8-1.967,10.138-5.736
				c2.232-2.521,7.76-8.699,10.412-11.662l1.357,2.79L48.851,54.353z M8.539,36.823h20.761l-9.559,16.571
				c-0.265-0.048-0.536-0.078-0.815-0.078c-0.279,0-0.553,0.03-0.817,0.079L8.539,36.823z"/>
			<path fill="#FFFFFF" d="M78.132,56.268c0.822,0,1.494,0.669,1.494,1.493c0,0.822-0.672,1.492-1.494,1.492
				s-1.492-0.67-1.492-1.492C76.64,56.937,77.31,56.268,78.132,56.268z"/>
		</g>
		<g>
			<path fill="#B0CB0B" d="M46.538,71.898h4.994c0.814,0,1.475-0.659,1.475-1.475c0-0.814-0.66-1.476-1.475-1.476h-4.994
				c-0.814,0-1.474,0.661-1.474,1.476C45.064,71.239,45.724,71.898,46.538,71.898z"/>
		</g>
		<path fill="#FFFFFF" d="M44.092,54.851c1.604,0,2.911,1.305,2.911,2.91c0,1.603-1.307,2.908-2.911,2.908
			c-1.604,0-2.909-1.306-2.909-2.908C41.183,56.155,42.488,54.851,44.092,54.851z"/>
		<g>
			<path fill="none" stroke="#E20614" stroke-width="9" stroke-linecap="round" stroke-miterlimit="10" d="M27.676,72.917"/>
		</g>
		<path fill="#FFFFFF" d="M18.926,56.268c0.824,0,1.494,0.669,1.494,1.493c0,0.822-0.669,1.492-1.494,1.492
			c-0.822,0-1.492-0.67-1.492-1.492C17.434,56.937,18.104,56.268,18.926,56.268z"/>
		<g>
			<path fill="#B0CB0B" d="M24.449,27.789h9.533c1.189,0,2.155-0.966,2.155-2.156c0-1.191-0.966-2.156-2.155-2.156h-9.533
				c-1.19,0-2.156,0.965-2.156,2.156C22.293,26.823,23.259,27.789,24.449,27.789z"/>
		</g>
		<g>
			<path fill="#B0CB0B" d="M50.063,24.677h5.742c1.191,0,2.158-0.965,2.158-2.156c0-1.191-0.967-2.156-2.158-2.156h-5.742
				c-1.189,0-2.156,0.965-2.156,2.156C47.907,23.712,48.874,24.677,50.063,24.677z"/>
		</g>
	</g>
	<path fill="#B0CB0B" d="M68.841,23.654h18.791c1.063,0,1.732,0.845,1.488,1.88l-2.332,9.883c-0.244,1.033-1.313,1.88-2.375,1.88
		H72.062c-1.063,0-2.133-0.847-2.377-1.88l-2.33-9.883C67.108,24.499,67.78,23.654,68.841,23.654z"/>
</g>
</svg>
