<?xml version="1.0" encoding="utf-8"?>
<!-- Generator: Adobe Illustrator 16.0.0, SVG Export Plug-In . SVG Version: 6.00 Build 0)  -->
<!DOCTYPE svg PUBLIC "-//W3C//DTD SVG 1.1//EN" "http://www.w3.org/Graphics/SVG/1.1/DTD/svg11.dtd">
<svg version="1.1" id="Lager_1" xmlns="http://www.w3.org/2000/svg" xmlns:xlink="http://www.w3.org/1999/xlink" x="0px" y="0px"
	 viewBox="0 0 97.086 97.086" enable-background="new 0 0 97.086 97.086" xml:space="preserve">
<g>
	<g>
		<g>
			<path fill="#FFB900" d="M59.212,57.775c0-10.441,8.494-18.935,18.934-18.935S97.08,47.333,97.08,57.775
				c0,10.438-8.494,18.933-18.934,18.933S59.212,68.213,59.212,57.775z M62.164,57.775c0,8.813,7.17,15.981,15.982,15.981
				S94.13,66.587,94.13,57.775c0-8.814-7.172-15.983-15.984-15.983S62.164,48.96,62.164,57.775z"/>
		</g>
		<g>
			<path fill="#FFB900" d="M0.007,57.775C0.007,47.333,8.5,38.84,18.94,38.84s18.934,8.493,18.934,18.935
				c0,10.438-8.493,18.933-18.934,18.933S0.007,68.213,0.007,57.775z M2.958,57.775c0,8.813,7.17,15.981,15.982,15.981
				s15.982-7.169,15.982-15.981c0-8.814-7.17-15.983-15.982-15.983S2.958,48.96,2.958,57.775z"/>
		</g>
		<g>
			<path fill="#FFB900" d="M34.113,25.647"/>
		</g>
		<g>
			<path fill="#E6007E" d="M2.688,35.362c0,0.814,0.661,1.476,1.477,1.476h0.98l10.425,18.051c-0.667,0.777-1.073,1.784-1.073,2.887
				c0,2.448,1.995,4.442,4.444,4.442c1.933,0,3.576-1.243,4.186-2.968h15.316c0.655,2.518,2.943,4.385,5.663,4.385
				c0.274,0,0.542-0.025,0.806-0.062l3.047,7.354c0.234,0.568,0.783,0.911,1.363,0.911c0.188,0,0.379-0.037,0.563-0.113
				c0.754-0.312,1.111-1.175,0.799-1.928l-3.047-7.356c1.412-1.071,2.33-2.762,2.33-4.666c0-0.066-0.008-0.129-0.01-0.194
				L67.05,38.343l7.938,16.311c-0.793,0.804-1.285,1.906-1.285,3.121c0,2.448,1.994,4.442,4.443,4.442
				c2.451,0,4.443-1.994,4.443-4.442c0-2.451-1.992-4.444-4.443-4.444c-0.172,0-0.34,0.013-0.506,0.031L66,29.443
				c-0.004-0.008-0.008-0.016-0.012-0.023l-2.539-5.216c-0.871-1.792-3.031-3.144-5.025-3.144h-5.477
				c-0.816,0-1.477,0.661-1.477,1.475s0.66,1.475,1.477,1.475h5.477c0.85,0,2.002,0.722,2.373,1.484l2.104,4.322
				c-2.113,2.362-8.725,9.751-11.225,12.572c-3.404,3.843-4.543,4.741-7.929,4.741H40.82L30.623,25.029
				c-0.341-0.74-1.218-1.063-1.958-0.721c-0.739,0.341-1.063,1.217-0.722,1.958l3.504,7.592c-0.027,0.01-0.052,0.019-0.077,0.029
				H4.164C3.349,33.886,2.688,34.546,2.688,35.362z M22.31,54.885l10.41-18.048h0.102l7.571,16.408
				c-0.942,0.774-1.634,1.839-1.95,3.053H23.126C22.941,55.776,22.664,55.297,22.31,54.885z M48.865,54.367
				c-1.064-1.482-2.799-2.453-4.759-2.453c-0.353,0-0.697,0.037-1.033,0.097l-0.891-1.929h1.564c4.832,0,6.8-1.967,10.138-5.736
				c2.232-2.521,7.758-8.699,10.41-11.662l1.357,2.79L48.865,54.367z M8.553,36.837h20.76l-9.558,16.571
				c-0.265-0.048-0.536-0.078-0.814-0.078c-0.28,0-0.553,0.03-0.818,0.079L8.553,36.837z"/>
			<circle fill="#FFFFFF" cx="78.146" cy="57.774" r="1.493"/>
		</g>
		<g>
			<path fill="#FFB900" d="M46.552,71.913h4.994c0.814,0,1.475-0.659,1.475-1.475c0-0.814-0.66-1.476-1.475-1.476h-4.994
				c-0.814,0-1.475,0.661-1.475,1.476C45.078,71.253,45.738,71.913,46.552,71.913z"/>
		</g>
		<path fill="#FFFFFF" d="M44.105,54.865c1.605,0,2.912,1.305,2.912,2.91c0,1.603-1.307,2.908-2.912,2.908
			c-1.604,0-2.909-1.306-2.909-2.908C41.196,56.169,42.501,54.865,44.105,54.865z"/>
		<g>
			<path fill="#FFB900" d="M27.69,72.931"/>
		</g>
		<circle fill="#FFFFFF" cx="18.94" cy="57.774" r="1.493"/>
		<g>
			<path fill="#FFB900" d="M24.463,27.803h9.532c1.19,0,2.156-0.966,2.156-2.156c0-1.191-0.966-2.156-2.156-2.156h-9.532
				c-1.19,0-2.156,0.965-2.156,2.156C22.307,26.837,23.272,27.803,24.463,27.803z"/>
		</g>
		<g>
			<path fill="#FFB900" d="M50.078,24.691h5.742c1.191,0,2.156-0.965,2.156-2.156c0-1.191-0.965-2.156-2.156-2.156h-5.742
				c-1.189,0-2.154,0.965-2.154,2.156C47.923,23.727,48.888,24.691,50.078,24.691z"/>
		</g>
	</g>
	<path fill="#FFB900" d="M68.855,23.668h18.791c1.063,0,1.732,0.845,1.488,1.88L86.8,35.431c-0.242,1.033-1.313,1.88-2.375,1.88
		h-12.35c-1.064,0-2.133-0.847-2.375-1.88l-2.332-9.883C67.123,24.513,67.794,23.668,68.855,23.668z"/>
</g>
</svg>
