<?xml version="1.0" encoding="utf-8"?>
<!-- Generator: Adobe Illustrator 16.0.0, SVG Export Plug-In . SVG Version: 6.00 Build 0)  -->
<!DOCTYPE svg PUBLIC "-//W3C//DTD SVG 1.1//EN" "http://www.w3.org/Graphics/SVG/1.1/DTD/svg11.dtd">
<svg version="1.1" id="Lager_1" xmlns="http://www.w3.org/2000/svg" xmlns:xlink="http://www.w3.org/1999/xlink" x="0px" y="0px"
	 viewBox="0 0 56.693 56.693" enable-background="new 0 0 56.693 56.693" xml:space="preserve">
<g>
	<g>
		<path fill="#E6007E" d="M31.779,20.643c-2.92-4.641-10.801-17.189-10.801-17.189c-0.207-0.415-0.547-0.415-0.754,0
			c0,0-9.605,14.589-10.022,15.237c-0.323,0.501-0.372,0.768-0.377,1.185v0.411v3.493v32.026c0,0.462,0.38,0.842,0.843,0.842
			c0,0,21.018,0,21.111,0V20.643z"/>
		<path fill="#F0A5C3" d="M44.072,21.407c-0.059-0.229-0.113-0.271-0.161-0.063c-0.295,1.296-1.454,2.263-2.838,2.263
			c-1.353,0-2.49-0.924-2.817-2.174c-0.061-0.235-0.126-0.246-0.185-0.015c-0.32,1.258-1.462,2.188-2.82,2.188
			c-1.007,0-1.913-0.498-2.417-1.288c-0.082-0.13-0.468-0.743-1.051-1.669c-0.002,3.803-0.004,35.999-0.004,35.999
			c0.206,0,14.467,0,14.467,0c0.464,0,0.844-0.38,0.844-0.842c0,0,0-31.616,0-31.826c0-0.211,0.156-0.401,0.348-0.423
			c0,0,0,0,0.169-0.042c0,0-0.001-0.005-0.001-0.009c-0.213,0.056-0.46,0.1-0.711,0.1C45.533,23.606,44.389,22.669,44.072,21.407z"
			/>
	</g>
	<g>
		<path fill="#E6007E" d="M38.57,39.026h-3.777v-3.781h3.777V39.026z M38.57,33.537h-3.777v-3.778h3.777V33.537z M44.058,39.026
			h-3.778v-3.781h3.778V39.026z M44.058,33.537h-3.778v-3.778h3.778V33.537z"/>
	</g>
	<g>
		<g>
			<path fill="#F0A5C3" d="M12.69,56.648V21.265c0-0.759,0.616-1.376,1.376-1.376h13.5c0.758,0,1.375,0.617,1.375,1.376
				c0,0,0,35.147-0.002,35.387L12.69,56.648z"/>
		</g>
	</g>
	<g>
		<path fill="#E6007E" d="M25.153,32.483c0-0.002,0-0.002-0.001-0.004c-0.001-0.003-0.002-0.008-0.003-0.011
			c-0.236-1.026-1.046-1.789-2.108-1.836c-0.068-0.007-0.139-0.011-0.21-0.011c-0.812,0-1.528,0.419-1.961,1.054
			c-0.017,0.025-0.039,0.056-0.073,0.053c-0.035,0.003-0.059-0.027-0.074-0.053c-0.433-0.636-1.148-1.054-1.961-1.054
			c-0.07,0-0.141,0.004-0.211,0.011c-1.062,0.046-1.871,0.81-2.107,1.836c-0.002,0.003-0.002,0.007-0.004,0.011
			c0,0.002,0,0.002,0,0.004c-0.047,0.194-0.074,0.397-0.074,0.607c0,0.743,0.198,1.462,0.598,2.134
			c0.578,0.972,1.572,1.83,2.588,2.596c0.59,0.445,0.971,0.675,1.246,0.675c0.287,0,0.639-0.229,1.245-0.675
			c1.024-0.752,2.011-1.624,2.587-2.596c0.4-0.672,0.598-1.391,0.598-2.134C25.227,32.88,25.201,32.677,25.153,32.483z"/>
	</g>
	<path fill="#8C005A" d="M20.135,0.041c-0.464,0-1.014,0.339-1.22,0.753c0,0-10.016,15.852-11.513,18.261
		c0,0-0.515,0.739-0.515,1.64c0,1.511,1.151,2.753,2.624,2.897c0.095,0.01,0.095,0.01,0.095,0.01
		c0.12,0.002,0.219,0.081,0.219,0.178c0-0.361,0-3.493,0-3.493c0-0.695-0.04-0.947,0.377-1.596S20.225,3.454,20.225,3.454
		c0.207-0.415,0.547-0.415,0.754,0c0,0,11.357,18.084,11.855,18.864c0.504,0.79,1.41,1.288,2.417,1.288
		c1.358,0,2.5-0.931,2.82-2.188c0.059-0.231,0.124-0.221,0.185,0.015c0.327,1.25,1.465,2.174,2.817,2.174
		c1.384,0,2.543-0.967,2.838-2.263c0.048-0.208,0.103-0.165,0.161,0.063c0.316,1.263,1.461,2.199,2.822,2.199
		c0.547,0,1.086-0.206,1.26-0.289c0.977-0.467,1.651-1.467,1.651-2.622c0-0.372-0.189-1.293-0.813-2.284
		C48.576,17.751,37.779,0.794,37.779,0.794c-0.209-0.414-0.757-0.753-1.22-0.753H20.135z"/>
</g>
</svg>
