<?xml version="1.0" encoding="utf-8"?>
<!-- Generator: Adobe Illustrator 16.0.0, SVG Export Plug-In . SVG Version: 6.00 Build 0)  -->
<!DOCTYPE svg PUBLIC "-//W3C//DTD SVG 1.1//EN" "http://www.w3.org/Graphics/SVG/1.1/DTD/svg11.dtd">
<svg version="1.1" id="Lager_1" xmlns="http://www.w3.org/2000/svg" xmlns:xlink="http://www.w3.org/1999/xlink" x="0px" y="0px"
	 viewBox="0 0 82.205 82.205" enable-background="new 0 0 82.205 82.205" xml:space="preserve">
<path fill="#1E6E32" d="M80.307,64.54H49.862v0.288c0,0.736-0.602,1.338-1.338,1.338H33.678c-0.736,0-1.337-0.602-1.337-1.338V64.54
	H1.896c-0.946,0-1.721,0.774-1.721,1.722v0.741c0,1.893,1.549,3.441,3.441,3.441h74.97c1.893,0,3.441-1.549,3.441-3.441v-0.741
	C82.028,65.314,81.252,64.54,80.307,64.54z"/>
<path fill="#1E6E32" d="M8.123,62.845h65.956c1.894,0,3.441-1.548,3.441-3.441V15.202c0-1.893-1.548-3.441-3.441-3.441H8.123
	c-1.893,0-3.441,1.549-3.441,3.441v44.202C4.682,61.297,6.23,62.845,8.123,62.845z M41.101,12.549c0.501,0,0.907,0.406,0.907,0.908
	c0,0.501-0.406,0.907-0.907,0.907c-0.502,0-0.908-0.406-0.908-0.907C40.193,12.956,40.599,12.549,41.101,12.549z M8.123,16.922
	c0-0.946,0.774-1.721,1.721-1.721h62.514c0.946,0,1.721,0.774,1.721,1.721v40.761c0,0.946-0.774,1.721-1.721,1.721H9.844
	c-0.946,0-1.721-0.774-1.721-1.721V16.922z"/>
<path fill="#B0CB0B" d="M9.844,59.404h62.514c0.946,0,1.721-0.774,1.721-1.721V16.922c0-0.946-0.774-1.721-1.721-1.721H9.844
	c-0.946,0-1.721,0.774-1.721,1.721v40.761C8.123,58.629,8.897,59.404,9.844,59.404z"/>
<circle fill="#D2E182" cx="41.101" cy="13.457" r="0.908"/>
<path fill="#D2E182" d="M51.243,50.486c5.41,0,9.795-4.385,9.795-9.795c0-4.05-2.494-7.442-5.965-9.016
	c-0.661-0.3-0.598-0.84-0.605-0.981c-0.223-4.785-4.173-8.596-9.014-8.596c-3.51,0-6.55,2.005-8.042,4.932
	c-0.133,0.262-0.377,0.702-1.079,0.428c-0.809-0.317-1.667-0.56-2.591-0.56c-3.5,0-6.336,2.837-6.336,6.337
	c0,0.071,0.004,0.142,0.004,0.212c0.006,0.76-0.363,0.9-0.579,0.975c-3.241,1.115-5.569,4.189-5.569,7.809
	c0,4.56,3.696,8.256,8.256,8.256H51.243z"/>
</svg>
