<?xml version="1.0" encoding="utf-8"?>
<!-- Generator: Adobe Illustrator 16.0.0, SVG Export Plug-In . SVG Version: 6.00 Build 0)  -->
<!DOCTYPE svg PUBLIC "-//W3C//DTD SVG 1.1//EN" "http://www.w3.org/Graphics/SVG/1.1/DTD/svg11.dtd">
<svg version="1.1" id="Lager_1" xmlns="http://www.w3.org/2000/svg" xmlns:xlink="http://www.w3.org/1999/xlink" x="0px" y="0px"
	 viewBox="0 0 82.205 82.205" enable-background="new 0 0 82.205 82.205" xml:space="preserve">
<g>
	<g>
		<path fill="#0A4682" d="M80.308,64.54H49.863v0.289c0,0.736-0.602,1.338-1.338,1.338H33.679c-0.736,0-1.337-0.602-1.337-1.338
			V64.54H1.896c-0.946,0-1.721,0.775-1.721,1.721v0.742c0,1.893,1.549,3.441,3.441,3.441h74.97c1.893,0,3.441-1.549,3.441-3.441
			V66.26C82.029,65.315,81.253,64.54,80.308,64.54z"/>
		<path fill="#0A4682" d="M8.124,62.846H74.08c1.894,0,3.441-1.549,3.441-3.441V15.202c0-1.893-1.548-3.441-3.441-3.441H8.124
			c-1.893,0-3.441,1.549-3.441,3.441v44.203C4.683,61.297,6.231,62.846,8.124,62.846z M41.102,12.55
			c0.501,0,0.907,0.406,0.907,0.907c0,0.502-0.406,0.908-0.907,0.908c-0.502,0-0.908-0.406-0.908-0.908
			C40.194,12.956,40.6,12.55,41.102,12.55z M8.124,16.923c0-0.946,0.775-1.721,1.721-1.721h62.514c0.946,0,1.721,0.774,1.721,1.721
			v40.761c0,0.945-0.774,1.721-1.721,1.721H9.845c-0.946,0-1.721-0.775-1.721-1.721V16.923z"/>
		<path fill="#009FE4" d="M9.845,59.405h62.514c0.946,0,1.721-0.775,1.721-1.721V16.923c0-0.946-0.774-1.721-1.721-1.721H9.845
			c-0.946,0-1.721,0.774-1.721,1.721v40.761C8.124,58.629,8.899,59.405,9.845,59.405z"/>
		<circle fill="#7DC8F0" cx="41.102" cy="13.458" r="0.908"/>
	</g>
	<path fill="#7DC8F0" d="M51.244,50.487c5.41,0,9.795-4.385,9.795-9.795c0-4.05-2.494-7.442-5.965-9.016
		c-0.661-0.3-0.598-0.84-0.605-0.981c-0.223-4.785-4.174-8.597-9.014-8.597c-3.51,0-6.55,2.005-8.042,4.932
		c-0.134,0.263-0.377,0.703-1.08,0.428c-0.808-0.316-1.667-0.559-2.591-0.559c-3.5,0-6.336,2.837-6.336,6.337
		c0,0.07,0.003,0.141,0.004,0.211c0.006,0.76-0.363,0.901-0.579,0.976c-3.241,1.114-5.57,4.189-5.57,7.808
		c0,4.56,3.696,8.257,8.256,8.257H51.244z"/>
</g>
</svg>
