<?xml version="1.0" encoding="utf-8"?>
<!-- Generator: Adobe Illustrator 16.0.0, SVG Export Plug-In . SVG Version: 6.00 Build 0)  -->
<!DOCTYPE svg PUBLIC "-//W3C//DTD SVG 1.1//EN" "http://www.w3.org/Graphics/SVG/1.1/DTD/svg11.dtd">
<svg version="1.1" id="Lager_1" xmlns="http://www.w3.org/2000/svg" xmlns:xlink="http://www.w3.org/1999/xlink" x="0px" y="0px"
	 viewBox="0 0 82.205 82.205" enable-background="new 0 0 82.205 82.205" xml:space="preserve">
<path fill="#8C005A" d="M80.307,64.54H49.862v0.287c0,0.736-0.602,1.338-1.338,1.338H33.679c-0.736,0-1.337-0.602-1.337-1.338V64.54
	H1.896c-0.946,0-1.721,0.773-1.721,1.721v0.742c0,1.893,1.549,3.441,3.441,3.441h74.97c1.893,0,3.441-1.549,3.441-3.441V66.26
	C82.028,65.313,81.252,64.54,80.307,64.54z"/>
<path fill="#8C005A" d="M8.123,62.844h65.956c1.894,0,3.441-1.547,3.441-3.441V15.202c0-1.893-1.548-3.441-3.441-3.441H8.123
	c-1.893,0-3.441,1.549-3.441,3.441v44.201C4.682,61.297,6.23,62.844,8.123,62.844z M41.102,12.549c0.501,0,0.907,0.406,0.907,0.907
	c0,0.502-0.406,0.908-0.907,0.908c-0.502,0-0.908-0.406-0.908-0.908C40.193,12.956,40.6,12.549,41.102,12.549z M8.123,16.922
	c0-0.946,0.775-1.721,1.721-1.721h62.514c0.947,0,1.721,0.774,1.721,1.721v40.76c0,0.947-0.773,1.721-1.721,1.721H9.844
	c-0.946,0-1.721-0.773-1.721-1.721V16.922z"/>
<path fill="#E6007E" d="M9.844,59.403h62.514c0.947,0,1.721-0.773,1.721-1.721v-40.76c0-0.946-0.773-1.721-1.721-1.721H9.844
	c-0.946,0-1.721,0.774-1.721,1.721v40.76C8.123,58.629,8.898,59.403,9.844,59.403z"/>
<circle fill="#F0A5C3" cx="41.102" cy="13.457" r="0.908"/>
<path fill="#F0A5C3" d="M51.243,50.485c5.41,0,9.795-4.385,9.795-9.794c0-4.05-2.494-7.442-5.964-9.016
	c-0.661-0.3-0.599-0.84-0.605-0.981c-0.224-4.785-4.175-8.596-9.015-8.596c-3.51,0-6.55,2.004-8.042,4.931
	c-0.133,0.263-0.377,0.703-1.08,0.428c-0.808-0.316-1.666-0.559-2.591-0.559c-3.5,0-6.336,2.837-6.336,6.337
	c0,0.07,0.004,0.141,0.004,0.211c0.006,0.761-0.363,0.901-0.579,0.976c-3.241,1.114-5.57,4.189-5.57,7.808
	c0,4.561,3.696,8.256,8.256,8.256H51.243z"/>
</svg>
