<?xml version="1.0" encoding="utf-8"?>
<!-- Generator: Adobe Illustrator 16.0.0, SVG Export Plug-In . SVG Version: 6.00 Build 0)  -->
<!DOCTYPE svg PUBLIC "-//W3C//DTD SVG 1.1//EN" "http://www.w3.org/Graphics/SVG/1.1/DTD/svg11.dtd">
<svg version="1.1" id="Lager_1" xmlns="http://www.w3.org/2000/svg" xmlns:xlink="http://www.w3.org/1999/xlink" x="0px" y="0px"
	 viewBox="0 0 56.693 56.693" enable-background="new 0 0 56.693 56.693" xml:space="preserve">
<g>
	<g>
		<path fill="#FFE57E" d="M42.456,8.652c-0.001-0.117-0.034-0.233-0.098-0.321l-2.281-3.146l-2.28-3.145
			c-0.128-0.177-0.411-0.322-0.63-0.322h-5.352c-0.108,0-0.252,0-0.396,0l1.704,6.934H42.456z"/>
		<path fill="#994916" d="M23.657,8.652l1.617-6.934c-0.144,0-0.288,0-0.397,0h-5.352c-0.217,0-0.5,0.146-0.626,0.324l-2.24,3.143
			l-2.238,3.144c-0.063,0.088-0.096,0.205-0.097,0.323H23.657z"/>
		<path fill="#FFB900" d="M27.626,8.652h1.529h3.969L31.42,1.719c-0.145,0-0.288,0-0.397,0h-5.352c-0.108,0-0.253,0-0.396,0
			l-1.617,6.934H27.626z"/>
		<path fill="#FFB900" d="M31.403,24.609l4.066-5.799l6.894-9.833c0.063-0.089,0.094-0.207,0.093-0.324h-9.332l-0.907,3.862
			l-0.018,0.036l-2.735,11.535c-0.021,0.09-0.045,0.176-0.068,0.258c-0.347-0.023-0.695-0.041-1.049-0.041
			c-0.34,0-0.677,0.016-1.012,0.037c-0.029-0.104-0.059-0.213-0.087-0.328l-2.649-11.28l-0.941-4.079h-9.333
			c0,0.117,0.03,0.235,0.093,0.325l6.852,9.833l4.038,5.795c-7.014,1.412-12.295,7.605-12.295,15.033
			c0,8.469,6.865,15.336,15.335,15.336c8.469,0,15.335-6.867,15.335-15.336C43.682,32.216,38.408,26.025,31.403,24.609z
			 M28.347,49.699c-5.556,0-10.061-4.504-10.061-10.061s4.505-10.061,10.061-10.061c5.557,0,10.062,4.504,10.062,10.061
			S33.903,49.699,28.347,49.699z"/>
	</g>
	<path fill="#FFE57E" d="M29.155,8.652h-1.529h-3.969l0.941,4.079l2.649,11.28c0.492,2.127,1.716,2.199,2.216,0.074l3.66-15.433
		H29.155z"/>
</g>
</svg>
