<?xml version="1.0" encoding="utf-8"?>
<!-- Generator: Adobe Illustrator 16.0.0, SVG Export Plug-In . SVG Version: 6.00 Build 0)  -->
<!DOCTYPE svg PUBLIC "-//W3C//DTD SVG 1.1//EN" "http://www.w3.org/Graphics/SVG/1.1/DTD/svg11.dtd">
<svg version="1.1" id="Lager_1" xmlns="http://www.w3.org/2000/svg" xmlns:xlink="http://www.w3.org/1999/xlink" x="0px" y="0px"
	 viewBox="0 0 56.693 56.693" enable-background="new 0 0 56.693 56.693" xml:space="preserve">
<g>
	<g>
		<path fill="#7DC8F0" d="M42.455,8.652c0-0.117-0.033-0.233-0.098-0.321l-2.281-3.146l-2.279-3.145
			c-0.129-0.177-0.412-0.322-0.631-0.322h-5.351c-0.108,0-0.252,0-0.396,0l1.706,6.934H42.455z"/>
		<path fill="#0A4682" d="M23.657,8.652l1.617-6.934c-0.144,0-0.288,0-0.396,0h-5.352c-0.218,0-0.5,0.146-0.627,0.324l-2.24,3.143
			L14.42,8.329c-0.063,0.088-0.096,0.205-0.096,0.323H23.657z"/>
		<path fill="#009FE4" d="M27.626,8.652h1.527h3.971l-1.706-6.934c-0.144,0-0.287,0-0.396,0H25.67c-0.109,0-0.253,0-0.396,0
			l-1.617,6.934H27.626z"/>
		<path fill="#009FE4" d="M31.403,24.608l4.066-5.798l6.895-9.834c0.063-0.089,0.094-0.207,0.092-0.324h-9.331l-0.908,3.862
			l-0.018,0.036l-2.735,11.535c-0.021,0.09-0.045,0.175-0.068,0.257c-0.347-0.023-0.695-0.04-1.049-0.04
			c-0.34,0-0.677,0.016-1.012,0.037c-0.029-0.104-0.059-0.213-0.086-0.328l-2.65-11.28l-0.941-4.079h-9.332
			c-0.001,0.117,0.029,0.235,0.092,0.325l6.852,9.833l4.038,5.795c-7.013,1.411-12.295,7.605-12.295,15.033
			c0,8.469,6.865,15.336,15.335,15.336c8.468,0,15.335-6.867,15.335-15.336C43.682,32.216,38.408,26.025,31.403,24.608z
			 M28.346,49.699c-5.556,0-10.061-4.504-10.061-10.061s4.505-10.061,10.061-10.061c5.556,0,10.062,4.504,10.062,10.061
			S33.902,49.699,28.346,49.699z"/>
	</g>
	<path fill="#7DC8F0" d="M29.154,8.652h-1.527h-3.97l0.941,4.079l2.65,11.28c0.491,2.127,1.715,2.199,2.215,0.074l3.661-15.434
		H29.154z"/>
</g>
</svg>
