<?xml version="1.0" encoding="utf-8"?>
<!-- Generator: Adobe Illustrator 16.0.0, SVG Export Plug-In . SVG Version: 6.00 Build 0)  -->
<!DOCTYPE svg PUBLIC "-//W3C//DTD SVG 1.1//EN" "http://www.w3.org/Graphics/SVG/1.1/DTD/svg11.dtd">
<svg version="1.1" id="Lager_1" xmlns="http://www.w3.org/2000/svg" xmlns:xlink="http://www.w3.org/1999/xlink" x="0px" y="0px"
	 viewBox="0 0 65.197 65.197" enable-background="new 0 0 65.197 65.197" xml:space="preserve">
<g>
	<g>
		<path fill="#7DC8F0" d="M53.472,20.345v-1.772c0-1.058-0.735-1.698-1.724-1.66l-4.234,0.002l0,0L43.608,5.672
			c-0.354-0.973-1.274-1.607-2.721-1.107L10.051,15.338c-0.615,0.215-1.027,0.795-1.027,1.447v3.56H53.472z"/>
	</g>
	<g>
		<g>
			<polygon fill="#009FE4" points="20.948,13.46 22.129,16.915 10.915,16.915 			"/>
		</g>
	</g>
	<path fill="#E6007E" d="M56.706,20.345H5.838c-0.953,0-1.725,0.771-1.725,1.725v37.013c0,0.952,0.771,1.725,1.725,1.725h50.867
		c0.953,0,1.725-0.772,1.725-1.725V22.07C58.43,21.117,57.659,20.345,56.706,20.345z"/>
	<path fill="#009FE4" d="M35.85,16.915h5.898c0.353-0.425,0.585-0.91,0.705-1.425c0.269-1.14,0.055-2.32-0.361-3.459
		c-0.416-1.138-1.014-2.178-1.953-2.877c-0.896-0.667-2.082-0.934-3.468-0.427c-1.386,0.506-2.12,1.473-2.39,2.566
		c-0.266,1.14-0.038,2.315,0.377,3.453C34.951,15.545,35.329,16.294,35.85,16.915z M36.205,11.618
		c0.114-0.539,0.434-0.982,1.078-1.219c0.659-0.24,1.161-0.097,1.596,0.241c0.552,0.404,0.98,1.15,1.321,2.082
		c0.34,0.933,0.494,1.779,0.333,2.444c-0.114,0.539-0.407,0.972-1.065,1.213c-0.645,0.235-1.175,0.103-1.609-0.236
		c-0.537-0.409-0.966-1.155-1.307-2.088C36.21,13.124,36.057,12.278,36.205,11.618z"/>
	<path fill="#009FE4" d="M26.835,16.394l1.817-0.603c-0.096-0.136-0.189-0.303-0.25-0.468c-0.305-0.837-0.074-1.652,0.871-1.997
		c0.893-0.327,1.555,0.084,1.791,0.729c0.226,0.617,0.094,1.194-0.495,1.923l-0.76,0.937h2.274l0.156-0.195
		c0.852-1.073,1.141-2.236,0.721-3.388c-0.566-1.55-2.268-2.421-4.257-1.693c-2.071,0.757-2.734,2.601-2.163,4.163
		C26.622,16.021,26.762,16.281,26.835,16.394z"/>
	<path fill="#F0A5C3" d="M59.36,34.055H39.32c-0.952,0-1.724,0.771-1.724,1.724v9.009c0,0.951,0.771,1.724,1.724,1.724h20.04
		c0.951,0,1.724-0.772,1.724-1.724v-9.009C61.083,34.827,60.311,34.055,59.36,34.055z M44.567,43.259
		c-1.645,0-2.977-1.332-2.977-2.976c0-1.645,1.332-2.977,2.977-2.977c1.643,0,2.976,1.332,2.976,2.977
		C47.542,41.927,46.209,43.259,44.567,43.259z"/>
</g>
</svg>
