<?xml version="1.0" encoding="utf-8"?>
<!-- Generator: Adobe Illustrator 16.0.0, SVG Export Plug-In . SVG Version: 6.00 Build 0)  -->
<!DOCTYPE svg PUBLIC "-//W3C//DTD SVG 1.1//EN" "http://www.w3.org/Graphics/SVG/1.1/DTD/svg11.dtd">
<svg version="1.1" id="Lager_1" xmlns="http://www.w3.org/2000/svg" xmlns:xlink="http://www.w3.org/1999/xlink" x="0px" y="0px"
	 viewBox="0 0 500 500" enable-background="new 0 0 500 500" xml:space="preserve">
<g>
	<g>
		<path fill="#7DC8F0" d="M410.08,156.027v-13.59c0-8.114-5.637-13.022-13.222-12.73l-32.472,0.015l0,0l-29.955-86.223
			c-2.715-7.462-9.771-12.324-20.866-8.49L77.082,117.628c-4.716,1.649-7.876,6.097-7.876,11.097v27.302H410.08L410.08,156.027z"/>
	</g>
	<g>
		<g>
			<polygon fill="#009FE4" points="160.651,103.226 169.708,129.722 83.708,129.722 			"/>
		</g>
	</g>
	<path fill="#009FE4" d="M434.882,156.027H44.772c-7.309,0-13.229,5.913-13.229,13.229v283.855c0,7.301,5.913,13.229,13.229,13.229
		h390.102c7.309,0,13.229-5.921,13.229-13.229V169.256C448.104,161.948,442.19,156.027,434.882,156.027z"/>
	<path fill="#009FE4" d="M274.936,129.722h45.232c2.707-3.259,4.486-6.979,5.407-10.928c2.063-8.743,0.421-17.792-2.77-26.527
		c-3.189-8.728-7.775-16.703-14.979-22.064c-6.871-5.115-15.968-7.163-26.597-3.275c-10.629,3.881-16.258,11.297-18.328,19.679
		c-2.041,8.743-0.293,17.754,2.892,26.481C268.041,119.216,270.939,124.96,274.936,129.722z M277.658,89.099
		c0.875-4.133,3.328-7.531,8.268-9.349c5.055-1.84,8.904-0.744,12.24,1.848c4.232,3.099,7.516,8.82,10.131,15.967
		c2.607,7.155,3.788,13.643,2.554,18.743c-0.875,4.134-3.122,7.454-8.167,9.303c-4.947,1.802-9.012,0.79-12.34-1.81
		c-4.119-3.137-7.408-8.858-10.023-16.013C277.697,100.649,276.523,94.161,277.658,89.099z"/>
	<path fill="#009FE4" d="M205.799,125.727l13.935-4.625c-0.736-1.043-1.449-2.324-1.917-3.589
		c-2.339-6.419-0.568-12.669,6.68-15.315c6.849-2.507,11.925,0.645,13.735,5.591c1.733,4.732,0.721,9.157-3.796,14.748l-5.829,7.186
		h17.439l1.197-1.496c6.534-8.229,8.75-17.148,5.528-25.982c-4.34-11.887-17.394-18.567-32.646-12.984
		c-15.882,5.806-20.967,19.947-16.588,31.926C204.166,122.866,205.239,124.86,205.799,125.727z"/>
	<path fill="#0A4682" d="M455.235,261.17H301.548c-7.302,0-13.222,5.913-13.222,13.223v69.09c0,7.293,5.912,13.222,13.222,13.222
		h153.688c7.294,0,13.222-5.92,13.222-13.222v-69.09C468.449,267.09,462.529,261.17,455.235,261.17z M341.787,331.756
		c-12.615,0-22.831-10.215-22.831-22.822c0-12.615,10.216-22.832,22.831-22.832c12.601,0,22.823,10.217,22.823,22.832
		C364.603,321.541,354.38,331.756,341.787,331.756z"/>
</g>
</svg>
