<?xml version="1.0" encoding="utf-8"?>
<!-- Generator: Adobe Illustrator 16.0.0, SVG Export Plug-In . SVG Version: 6.00 Build 0)  -->
<!DOCTYPE svg PUBLIC "-//W3C//DTD SVG 1.1//EN" "http://www.w3.org/Graphics/SVG/1.1/DTD/svg11.dtd">
<svg version="1.1" id="Lager_1" xmlns="http://www.w3.org/2000/svg" xmlns:xlink="http://www.w3.org/1999/xlink" x="0px" y="0px"
	 viewBox="0 0 76.819 76.819" enable-background="new 0 0 76.819 76.819" xml:space="preserve">
<g>
	<path fill="#994916" d="M16.631,15.046c-1.957,0-2.558,4.376-3.825,8.13c-0.496,1.471-1.167,2.569-1.905,3.524
		c-1.5,1.941-3.28,3.291-4.458,5.967c-0.966,2.195-1.188,4.629-1.19,6.883c0,3.586,1.451,5.637,5.609,5.637
		c2.434,0,3.548,0.031,5.071,0.031c4.691,0,5.082,1.842,5.082,3.207c0,1.631-1.229,1.887-3.087,1.873
		c-0.473-0.002-2.877-0.014-3.34-0.014c-2.277,0-3.857,1-3.857,3.277c0,1.945,1.701,2.941,3.461,2.941
		c0.551,0,5.529-0.014,6.11-0.02c2.772-0.029,4.255,1.254,4.255,3.891c0,3.188,0,3.195,0,5.246c0,2.049-0.703,3.186-3.664,3.186
		c-0.412,0-3.781,0.01-4.82,0.01c-3.037,0-5.043,1.471-5.043,4.02c0,2.289,1.697,3.982,4.609,3.982c5.009,0,15.748,0,23.717,0
		c7.968,0,24.402-1.494,24.402-19.662c0-14.223-10.995-20.994-12.207-29.265c-0.065-0.445,0.207-1.079,0.814-0.671
		c1.303,0.878,3.987,2.257,7.973,2.257c6.341,0,11.229-4.842,11.229-13.118c0-9.732-8.723-16.357-19.041-16.357
		c-12.133,0-20.978,8.255-20.978,20.584c0,5.741,1.917,9.097,4.433,12.85c3.232,4.826,8.357,8.586,11.094,12.164
		c3.409,4.461,4.172,7.828,4.172,12.227c0,1.672-1.361,1.865-1.646,0.219c-0.513-2.965-1.112-6.613-4.326-11.51
		c-3.297-5.025-9.532-9.035-16.449-13.6c-4.341-2.863-6.38-6.151-8.021-9.997C19.145,19.052,18.274,15.046,16.631,15.046z"/>
	<g>
		<path fill="#1E6E32" d="M10.731,53.562c0-2.277,1.58-3.277,3.857-3.277c0.281,0,1.289,0.004,2.139,0.008
			c-0.404-0.488-0.881-0.9-1.402-1.23c-1.844-1.174-1.508-2.432-2.514-2.432s-0.67,1.258-2.513,2.432
			c-1.523,0.967-2.681,2.596-2.681,4.939c0,1.068,0.385,2.043,1.086,2.791c0.838,0.895,2.129,1.463,3.771,1.463h0.67
			c1.645,0,2.936-0.568,3.774-1.463c0.088-0.096,0.173-0.195,0.251-0.297c-1.363,0.006-2.707,0.008-2.979,0.008
			C12.432,56.503,10.731,55.507,10.731,53.562z"/>
	</g>
	<circle fill="#FFE57E" cx="12.369" cy="35.433" r="2.33"/>
</g>
</svg>
