<?xml version="1.0" encoding="utf-8"?>
<!-- Generator: Adobe Illustrator 16.0.0, SVG Export Plug-In . SVG Version: 6.00 Build 0)  -->
<!DOCTYPE svg PUBLIC "-//W3C//DTD SVG 1.1//EN" "http://www.w3.org/Graphics/SVG/1.1/DTD/svg11.dtd">
<svg version="1.1" id="Lager_1" xmlns="http://www.w3.org/2000/svg" xmlns:xlink="http://www.w3.org/1999/xlink" x="0px" y="0px"
	 viewBox="0 0 56.693 56.693" enable-background="new 0 0 56.693 56.693" xml:space="preserve">
<g>
	<g>
		<path fill="#FFFFFF" d="M46.137,51.285c-0.198,0-0.4-0.043-0.59-0.135c-0.674-0.328-0.955-1.141-0.626-1.814l1.234-2.537
			c-0.005,0-0.012,0-0.017,0c-1.728,0-3.133,1.404-3.133,3.131s1.405,3.133,3.133,3.133c1.727,0,3.133-1.406,3.133-3.133
			c0-0.734-0.256-1.408-0.681-1.941l-1.234,2.535C47.124,51.004,46.64,51.285,46.137,51.285z"/>
		<path fill="#E6007E" d="M49.843,45.416l-1.252,2.572c0.425,0.533,0.681,1.207,0.681,1.941c0,1.727-1.406,3.133-3.133,3.133
			c-1.728,0-3.133-1.406-3.133-3.133s1.405-3.131,3.133-3.131c0.005,0,0.012,0,0.017,0l1.25-2.568
			c-0.407-0.092-0.831-0.143-1.267-0.143c-3.222,0-5.843,2.621-5.843,5.842c0,3.223,2.621,5.844,5.843,5.844
			s5.842-2.621,5.842-5.844C51.981,48.113,51.148,46.488,49.843,45.416z"/>
	</g>
	<g>
		<path fill="#009FE4" d="M47.925,26.329h-5.301V22.42h0.665c1.334,0,2.418-1.084,2.418-2.418v-0.811
			c0-1.334-1.084-2.416-2.418-2.416H41.97v-3.039c-0.215,0.066-0.442,0.104-0.678,0.104c-0.236,0-0.464-0.037-0.678-0.104v3.039
			H20.3L17.859,3.45c-0.292-1.538-1.79-2.602-3.34-2.367l-1.505,0.227c0.232,0.334,0.339,0.847,0.435,1.396
			c0.085,0.496,0.145,0.931,0.07,1.27l1.404-0.213c0.116-0.017,0.25,0.078,0.272,0.193l2.383,12.857l0.65,3.518l1.113,5.998h-3.787
			c-1.333,0-2.418,1.084-2.418,2.416v8.039c1.488-0.775,3.177-1.217,4.967-1.217c4.957,0,9.143,3.363,10.397,7.93h11.808
			c1.332,0,2.418-1.086,2.418-2.418v-2.893h5.38v3.379c0,0.643-0.255,1.75-0.535,2.326l-2.65,5.445
			c-0.329,0.674-0.048,1.486,0.626,1.814c0.189,0.092,0.392,0.135,0.59,0.135c0.503,0,0.986-0.281,1.22-0.762l2.651-5.447
			c0.461-0.947,0.81-2.457,0.81-3.512V29.219C50.818,27.625,49.52,26.329,47.925,26.329z M39.915,26.329H22.101L21.36,22.42h18.555
			V26.329z M48.107,35.477h-5.38V29.04h5.198c0.098,0,0.182,0.084,0.182,0.18V35.477z"/>
	</g>
	<g>
		<path fill="#E6007E" d="M18.104,37.016c-5.146,0-9.336,4.189-9.336,9.336s4.189,9.336,9.336,9.336s9.335-4.189,9.335-9.336
			S23.25,37.016,18.104,37.016z"/>
		<path fill="#FFFFFF" d="M18.104,52.475c-3.377,0-6.124-2.746-6.124-6.123s2.747-6.125,6.124-6.125s6.124,2.748,6.124,6.125
			S21.481,52.475,18.104,52.475z"/>
		<circle fill="#E6007E" cx="18.104" cy="46.352" r="2.48"/>
	</g>
	<g>
		<path fill="#E6007E" d="M43.582,11.549c0,1.266-1.025,2.291-2.289,2.291s-2.29-1.025-2.29-2.291c0-1.262,1.026-2.287,2.29-2.287
			S43.582,10.288,43.582,11.549z"/>
	</g>
	<g>
		<path fill="#E6007E" d="M6.606,5.696c-0.905,0-1.708-0.652-1.866-1.576C4.561,3.086,5.254,2.106,6.288,1.928l5.735-0.986
			c1.032-0.178,1.247,0.73,1.426,1.764c0.177,1.033,0.25,1.799-0.782,1.977L6.931,5.668C6.822,5.686,6.713,5.696,6.606,5.696z"/>
	</g>
</g>
</svg>
