<?xml version="1.0" encoding="utf-8"?>
<!-- Generator: Adobe Illustrator 16.0.0, SVG Export Plug-In . SVG Version: 6.00 Build 0)  -->
<!DOCTYPE svg PUBLIC "-//W3C//DTD SVG 1.1//EN" "http://www.w3.org/Graphics/SVG/1.1/DTD/svg11.dtd">
<svg version="1.1" id="Lager_1" xmlns="http://www.w3.org/2000/svg" xmlns:xlink="http://www.w3.org/1999/xlink" x="0px" y="0px"
	 viewBox="0 0 56.693 56.693" enable-background="new 0 0 56.693 56.693" xml:space="preserve">
<g>
	<g>
		<path fill="#FFFFFF" d="M46.138,51.286c-0.199,0-0.402-0.043-0.592-0.135c-0.674-0.328-0.953-1.141-0.626-1.814l1.236-2.537
			c-0.006,0-0.012,0-0.018,0c-1.727,0-3.132,1.404-3.132,3.131s1.405,3.133,3.132,3.133s3.132-1.406,3.132-3.133
			c0-0.734-0.255-1.408-0.68-1.941l-1.233,2.535C47.122,51.004,46.641,51.286,46.138,51.286z"/>
		<path fill="#009FE4" d="M49.843,45.417l-1.252,2.572c0.425,0.533,0.68,1.207,0.68,1.941c0,1.727-1.405,3.133-3.132,3.133
			s-3.132-1.406-3.132-3.133s1.405-3.131,3.132-3.131c0.006,0,0.012,0,0.018,0l1.25-2.568c-0.408-0.092-0.831-0.143-1.268-0.143
			c-3.222,0-5.843,2.621-5.843,5.842c0,3.223,2.621,5.844,5.843,5.844c3.221,0,5.843-2.621,5.843-5.844
			C51.981,48.114,51.147,46.489,49.843,45.417z"/>
	</g>
	<g>
		<path fill="#B0CB0B" d="M47.924,26.328h-5.3V22.42h0.665c1.334,0,2.418-1.084,2.418-2.418v-0.811c0-1.334-1.084-2.416-2.418-2.416
			H41.97v-3.039c-0.214,0.066-0.442,0.104-0.679,0.104c-0.235,0-0.462-0.037-0.677-0.104v3.039H20.301L17.857,3.449
			c-0.291-1.538-1.789-2.602-3.339-2.367l-1.505,0.227c0.233,0.334,0.339,0.847,0.434,1.396c0.085,0.496,0.145,0.931,0.07,1.27
			l1.404-0.213c0.117-0.017,0.252,0.078,0.273,0.193l2.383,12.857l0.651,3.518l1.112,5.998h-3.787c-1.334,0-2.417,1.084-2.417,2.416
			v8.04c1.487-0.775,3.176-1.217,4.967-1.217c4.958,0,9.143,3.363,10.396,7.93h11.808c1.332,0,2.417-1.086,2.417-2.418v-2.893h5.381
			v3.379c0,0.643-0.255,1.75-0.535,2.326l-2.651,5.445c-0.327,0.674-0.048,1.486,0.626,1.814c0.189,0.092,0.393,0.135,0.592,0.135
			c0.503,0,0.984-0.281,1.22-0.762l2.65-5.447c0.462-0.947,0.809-2.457,0.809-3.512V29.219
			C50.816,27.625,49.521,26.328,47.924,26.328z M39.913,26.328H22.1l-0.741-3.908h18.555V26.328z M48.106,35.477h-5.381v-6.438
			h5.198c0.099,0,0.183,0.084,0.183,0.18V35.477z"/>
	</g>
	<g>
		<path fill="#009FE4" d="M18.104,37.016c-5.147,0-9.336,4.189-9.336,9.336s4.188,9.336,9.336,9.336
			c5.146,0,9.335-4.189,9.335-9.336S23.251,37.016,18.104,37.016z"/>
		<path fill="#FFFFFF" d="M18.104,52.475c-3.378,0-6.126-2.746-6.126-6.123s2.748-6.125,6.126-6.125
			c3.377,0,6.123,2.748,6.123,6.125S21.481,52.475,18.104,52.475z"/>
		<circle fill="#009FE4" cx="18.104" cy="46.352" r="2.48"/>
	</g>
	<g>
		<path fill="#009FE4" d="M43.58,11.549c0,1.266-1.023,2.291-2.289,2.291c-1.264,0-2.288-1.025-2.288-2.291
			c0-1.262,1.024-2.287,2.288-2.287C42.557,9.262,43.58,10.287,43.58,11.549z"/>
	</g>
	<g>
		<path fill="#009FE4" d="M6.607,5.695c-0.908,0-1.71-0.652-1.868-1.576C4.562,3.086,5.254,2.105,6.286,1.928l5.736-0.986
			c1.033-0.178,1.247,0.73,1.425,1.764c0.179,1.033,0.252,1.799-0.781,1.977L6.93,5.668C6.821,5.686,6.713,5.695,6.607,5.695z"/>
	</g>
</g>
</svg>
