<?xml version="1.0" encoding="utf-8"?>
<!-- Generator: Adobe Illustrator 16.0.0, SVG Export Plug-In . SVG Version: 6.00 Build 0)  -->
<!DOCTYPE svg PUBLIC "-//W3C//DTD SVG 1.1//EN" "http://www.w3.org/Graphics/SVG/1.1/DTD/svg11.dtd">
<svg version="1.1" id="Lager_1" xmlns="http://www.w3.org/2000/svg" xmlns:xlink="http://www.w3.org/1999/xlink" x="0px" y="0px"
	 viewBox="0 0 56.693 56.693" enable-background="new 0 0 56.693 56.693" xml:space="preserve">
<g>
	<g>
		<path fill="none" d="M46.136,51.285c-0.197,0-0.4-0.043-0.59-0.135c-0.674-0.328-0.953-1.141-0.627-1.814l1.236-2.537
			c-0.006,0-0.012,0-0.018,0c-1.727,0-3.133,1.404-3.133,3.131s1.406,3.133,3.133,3.133c1.729,0,3.133-1.406,3.133-3.133
			c0-0.734-0.256-1.408-0.68-1.941l-1.234,2.535C47.123,51.004,46.64,51.285,46.136,51.285z"/>
		<path fill="#FFB900" d="M49.843,45.416l-1.252,2.572c0.424,0.533,0.68,1.207,0.68,1.941c0,1.727-1.404,3.133-3.133,3.133
			c-1.727,0-3.133-1.406-3.133-3.133s1.406-3.131,3.133-3.131c0.006,0,0.012,0,0.018,0l1.25-2.568
			c-0.408-0.092-0.832-0.143-1.268-0.143c-3.221,0-5.842,2.621-5.842,5.842c0,3.223,2.621,5.844,5.842,5.844
			c3.223,0,5.844-2.621,5.844-5.844C51.982,48.113,51.148,46.488,49.843,45.416z"/>
	</g>
	<g>
		<path fill="#E6007E" d="M47.925,26.329h-5.301V22.42h0.664c1.334,0,2.418-1.084,2.418-2.418v-0.811
			c0-1.334-1.084-2.416-2.418-2.416H41.97v-3.039c-0.215,0.066-0.443,0.104-0.678,0.104c-0.236,0-0.465-0.037-0.678-0.104v3.039
			H20.3L17.858,3.45c-0.293-1.538-1.791-2.602-3.34-2.367l-1.506,0.227c0.234,0.334,0.34,0.847,0.436,1.396
			c0.084,0.496,0.145,0.931,0.07,1.27l1.404-0.213c0.115-0.017,0.25,0.078,0.271,0.193l2.383,12.857l0.652,3.518l1.111,5.998h-3.787
			c-1.332,0-2.418,1.084-2.418,2.416v8.039c1.488-0.775,3.178-1.217,4.967-1.217c4.959,0,9.143,3.363,10.398,7.93h11.807
			c1.332,0,2.418-1.086,2.418-2.418v-2.893h5.381v3.379c0,0.643-0.256,1.75-0.535,2.326l-2.652,5.445
			c-0.326,0.674-0.047,1.486,0.627,1.814c0.189,0.092,0.393,0.135,0.59,0.135c0.504,0,0.986-0.281,1.221-0.762l2.65-5.447
			c0.461-0.947,0.811-2.457,0.811-3.512V29.219C50.818,27.625,49.519,26.329,47.925,26.329z M39.914,26.329H22.101l-0.742-3.908
			h18.555V26.329z M48.107,35.477h-5.381V29.04h5.199c0.098,0,0.182,0.084,0.182,0.18V35.477z"/>
	</g>
	<g>
		<path fill="#FFB900" d="M18.103,37.016c-5.146,0-9.334,4.189-9.334,9.336s4.188,9.336,9.334,9.336
			c5.148,0,9.336-4.189,9.336-9.336S23.251,37.016,18.103,37.016z"/>
		<path fill="#FFFFFF" d="M18.103,52.475c-3.377,0-6.123-2.746-6.123-6.123s2.746-6.125,6.123-6.125s6.125,2.748,6.125,6.125
			S21.479,52.475,18.103,52.475z"/>
		<circle fill="#FFB900" cx="18.103" cy="46.352" r="2.48"/>
	</g>
	<g>
		<path fill="#FFB900" d="M43.582,11.549c0,1.266-1.025,2.291-2.289,2.291s-2.289-1.025-2.289-2.291
			c0-1.262,1.025-2.287,2.289-2.287S43.582,10.288,43.582,11.549z"/>
	</g>
	<g>
		<path fill="#FFB900" d="M6.606,5.696c-0.906,0-1.709-0.652-1.867-1.576C4.56,3.086,5.253,2.106,6.286,1.928l5.736-0.986
			c1.031-0.178,1.248,0.73,1.426,1.764c0.176,1.033,0.25,1.799-0.783,1.977L6.931,5.668C6.821,5.686,6.712,5.696,6.606,5.696z"/>
	</g>
</g>
</svg>
