<?xml version="1.0" encoding="utf-8"?>
<!-- Generator: Adobe Illustrator 16.0.0, SVG Export Plug-In . SVG Version: 6.00 Build 0)  -->
<!DOCTYPE svg PUBLIC "-//W3C//DTD SVG 1.1//EN" "http://www.w3.org/Graphics/SVG/1.1/DTD/svg11.dtd">
<svg version="1.1" id="Lager_1" xmlns="http://www.w3.org/2000/svg" xmlns:xlink="http://www.w3.org/1999/xlink" x="0px" y="0px"
	 viewBox="0 0 70.667 70.667" enable-background="new 0 0 70.667 70.667" xml:space="preserve">
<g>
	<g>
		<path fill="#8C005A" d="M58.812,28.195c0.104,0.283,0.142,0.418,0.142,0.418c0.139,0.486,0.521,1.016,0.849,1.174
			c0.33,0.16,0.973,0.467,1.43,0.688l3.657,1.76c0.456,0.221,0.456,0.58-0.001,0.799l-4.645,2.229
			c-0.443,0.213-0.857,0.773-0.941,1.266c0.182-1.271,0.281-2.57,0.281-3.893C59.583,31.076,59.311,29.582,58.812,28.195z"/>
		<path fill="#8C005A" d="M32.588,59.826c1.298-0.012,2.573-0.107,3.821-0.293c-0.105,0.016-0.162,0.021-0.162,0.021
			c-0.504,0.063-0.755,0.496-0.563,0.965l3.852,9.299c0.194,0.469-0.063,0.852-0.567,0.852h-0.974c-0.506,0-1.078-0.383-1.271-0.852
			l-3.787-9.141C32.744,60.207,32.587,59.826,32.588,59.826c0.002,0,0.002,0,0.003,0C32.588,59.826,32.588,59.826,32.588,59.826z"/>
		<path fill="#8C005A" d="M29.247,60.751v8.998c0,0.506-0.414,0.92-0.921,0.92h-0.758c-0.506,0-0.92-0.414-0.92-0.92v-8.998
			c0-0.508-0.414-0.92-0.921-0.92h4.441C29.662,59.832,29.247,60.244,29.247,60.751z"/>
	</g>
</g>
<g>
	<path fill="#E6007E" d="M1.376,59.179l9.684-9.684l10.078-10.078l6.783-6.783c0,0,7.448-7.959,10.532-10.381
		c2.146-1.685,5.104-2.733,8.016-2.733c7.243,0,13.114,5.872,13.114,13.115c0,15.02-12.176,27.197-27.195,27.197H16.109H1.648
		C1.14,59.832,1.019,59.537,1.376,59.179z"/>
</g>
<circle fill="#8C005A" cx="48.664" cy="30.673" r="3.279"/>
<g>
	<g>
		<path fill="#8C005A" d="M34.257,35.558c2.347,2.18,3.815,5.295,3.815,8.75c0,6.604-5.353,11.957-11.956,11.957
			c-0.033,0-0.033,0-0.033,0c-0.039,0.002-0.484,0.002-0.99,0.002H10.63c-0.506,0-0.628-0.293-0.271-0.65
			c0,0,17.813-17.811,19.762-19.76C32.072,33.906,33.588,34.935,34.257,35.558z"/>
	</g>
</g>
<path fill="#8C005A" d="M68.778,0.588c-0.113-0.423-0.552-0.676-0.974-0.563l-2.785,0.746c-0.424,0.113-1.115,0.299-1.537,0.412
	L63.4,1.205c-0.422,0.113-0.676,0.552-0.563,0.975l0.771,2.879c0.113,0.423,0.299,1.115,0.412,1.537l1.472,5.488
	c0.112,0.424-0.144,0.691-0.571,0.596c0,0-0.879-0.193-1.748,0.039c-2.176,0.582-3.467,2.819-2.883,4.994
	c0.584,2.178,2.819,3.467,4.994,2.885c1.61-0.432,2.734-1.768,2.976-3.314c0.072-0.462,0.054-0.635,0.054-0.635
	c-0.048-0.435-0.084-0.791-0.082-0.791c0.003-0.001-0.088-0.348-0.201-0.77L65.56,5.861C65.446,5.439,65.699,5,66.122,4.887
	l2.786-0.746c0.422-0.113,0.674-0.553,0.561-0.975L68.778,0.588z"/>
</svg>
