<?xml version="1.0" encoding="utf-8"?>
<!-- Generator: Adobe Illustrator 16.0.0, SVG Export Plug-In . SVG Version: 6.00 Build 0)  -->
<!DOCTYPE svg PUBLIC "-//W3C//DTD SVG 1.1//EN" "http://www.w3.org/Graphics/SVG/1.1/DTD/svg11.dtd">
<svg version="1.1" id="Lager_1" xmlns="http://www.w3.org/2000/svg" xmlns:xlink="http://www.w3.org/1999/xlink" x="0px" y="0px"
	 viewBox="0 0 70.668 70.667" enable-background="new 0 0 70.668 70.667" xml:space="preserve">
<g>
	<g>
		<path fill="#0A4682" d="M11.855,28.195c-0.103,0.283-0.142,0.418-0.142,0.418c-0.138,0.486-0.52,1.016-0.849,1.174
			c-0.33,0.16-0.972,0.467-1.428,0.688l-3.658,1.76c-0.457,0.221-0.457,0.58,0,0.799l4.646,2.229
			c0.443,0.213,0.856,0.773,0.941,1.266c-0.183-1.271-0.282-2.57-0.282-3.893C11.083,31.076,11.356,29.582,11.855,28.195z"/>
		<path fill="#0A4682" d="M38.078,59.826c-1.297-0.012-2.572-0.107-3.821-0.293c0.106,0.016,0.163,0.021,0.163,0.021
			c0.503,0.063,0.756,0.496,0.562,0.965l-3.851,9.299c-0.194,0.469,0.061,0.852,0.567,0.852h0.972c0.508,0,1.08-0.383,1.273-0.852
			l3.787-9.141C37.924,60.207,38.081,59.826,38.078,59.826c0,0,0,0-0.002,0C38.078,59.826,38.078,59.826,38.078,59.826z"/>
		<path fill="#0A4682" d="M41.42,60.751v8.998c0,0.506,0.414,0.92,0.921,0.92h0.757c0.508,0,0.922-0.414,0.922-0.92v-8.998
			c0-0.508,0.414-0.92,0.922-0.92H40.5C41.006,59.832,41.42,60.244,41.42,60.751z"/>
	</g>
	<g>
		<path fill="#009FE4" d="M69.289,59.179l-9.682-9.684L49.529,39.417l-6.783-6.783c0,0-7.449-7.959-10.533-10.381
			c-2.145-1.685-5.104-2.733-8.015-2.733c-7.243,0-13.115,5.872-13.115,13.115c0,15.02,12.176,27.197,27.196,27.197h16.278H69.02
			C69.527,59.832,69.648,59.537,69.289,59.179z"/>
	</g>
	<circle fill="#0A4682" cx="22.003" cy="30.673" r="3.279"/>
	<g>
		<path fill="#0A4682" d="M36.41,35.558c-2.347,2.18-3.815,5.295-3.815,8.75c0,6.604,5.354,11.957,11.956,11.957
			c0.033,0,0.033,0,0.033,0c0.039,0.002,0.484,0.002,0.99,0.002h14.463c0.506,0,0.627-0.293,0.27-0.65
			c0,0-17.812-17.811-19.762-19.76C38.596,33.906,37.08,34.935,36.41,35.558z"/>
	</g>
	<path fill="#0A4682" d="M9.799,0.588C9.686,0.165,9.248-0.088,8.825,0.025L6.041,0.771C5.617,0.885,4.926,1.07,4.503,1.184
		L4.422,1.205C4,1.318,3.747,1.757,3.859,2.18l0.771,2.879C4.744,5.481,4.93,6.174,5.043,6.596l1.471,5.488
		c0.113,0.424-0.144,0.691-0.57,0.596c0,0-0.879-0.193-1.749,0.039c-2.175,0.582-3.467,2.819-2.883,4.994
		c0.583,2.178,2.819,3.467,4.995,2.885c1.609-0.432,2.734-1.768,2.975-3.314c0.072-0.462,0.053-0.635,0.053-0.635
		c-0.047-0.435-0.083-0.791-0.081-0.791c0.003-0.001-0.088-0.348-0.202-0.77L6.581,5.861C6.468,5.439,6.721,5,7.144,4.887
		l2.785-0.746c0.423-0.113,0.675-0.553,0.562-0.975L9.799,0.588z"/>
</g>
</svg>
