<?xml version="1.0" encoding="utf-8"?>
<!-- Generator: Adobe Illustrator 16.0.0, SVG Export Plug-In . SVG Version: 6.00 Build 0)  -->
<!DOCTYPE svg PUBLIC "-//W3C//DTD SVG 1.1//EN" "http://www.w3.org/Graphics/SVG/1.1/DTD/svg11.dtd">
<svg version="1.1" id="Lager_1" xmlns="http://www.w3.org/2000/svg" xmlns:xlink="http://www.w3.org/1999/xlink" x="0px" y="0px"
	 viewBox="0 0 88.385 88.383" enable-background="new 0 0 88.385 88.383" xml:space="preserve">
<g>
	<path fill="#8C005A" d="M16.446,36.26c1.763,4.404,4.566,8.373,8.217,11.525c5.418,4.688,12.356,7.268,19.529,7.268
		c7.172,0,14.103-2.578,19.521-7.26c3.652-3.153,6.463-7.124,8.226-11.533v-9.733V23.83v-4.991h-0.911l-0.029,0.032H68.27
		c-2.263,0-4.099,1.833-4.099,4.095v8.986c0,2.588-2.096,4.68-4.68,4.68c-2.586,0-4.683-2.092-4.683-4.68v-5.084
		c0-1.617-1.31-2.927-2.926-2.927s-2.925,1.31-2.925,2.927v14.414c0,1.853-1.504,3.354-3.356,3.354
		c-1.852,0-3.354-1.501-3.354-3.354v-8.566c0-2.368-1.923-4.291-4.291-4.291c-2.372,0-4.293,1.923-4.293,4.291v1.281
		c0,3.554-2.881,6.437-6.438,6.437c-3.554,0-6.436-2.883-6.436-6.437V22.713c0-2.001-1.505-3.648-3.447-3.874h-0.897v4.991v2.697
		V36.26z"/>
	<path fill="#8C005A" d="M65.479,49.836c-5.91,5.105-13.47,7.916-21.287,7.916c-7.823,0-15.386-2.814-21.296-7.926
		c-2.543-2.201-4.713-4.764-6.45-7.582v30.467c0,1.289,1.054,2.346,2.343,2.346h50.807c1.29,0,2.343-1.057,2.343-2.346V42.245
		C70.2,45.065,68.029,47.633,65.479,49.836"/>
	<path fill="#E6007E" d="M75.673,24.933c-0.681-0.711-1.606-1.103-2.6-1.103h-1.134v2.7h1.134c0.253,0,0.487,0.096,0.655,0.273
		c0.173,0.176,0.257,0.414,0.25,0.665c0,0.009-0.038,0.878-0.267,2.344c-1.083,6.963-4.634,13.35-9.997,17.982
		c-5.418,4.682-12.352,7.262-19.522,7.262c-7.173,0-14.112-2.582-19.529-7.27c-5.369-4.639-8.916-11.033-9.995-18.003
		c-0.222-1.456-0.26-2.305-0.26-2.315c-0.01-0.25,0.079-0.489,0.248-0.665c0.171-0.177,0.404-0.273,0.656-0.273h1.134v-2.7h-1.134
		c-0.993,0-1.917,0.391-2.6,1.103c-0.683,0.71-1.038,1.649-1.001,2.641c0.004,0.04,0.041,0.995,0.292,2.621
		c1.177,7.603,5.043,14.574,10.894,19.633c5.91,5.111,13.473,7.926,21.296,7.926c7.817,0,15.377-2.811,21.287-7.916
		c5.846-5.053,9.717-12.015,10.897-19.612c0.254-1.633,0.295-2.608,0.297-2.651C76.712,26.582,76.358,25.643,75.673,24.933"/>
	<path fill="#F0A5C3" d="M71.939,13.326H16.446c-1.522,0-2.756,1.236-2.756,2.757c0,1.521,1.234,2.757,2.756,2.757h0.897
		c1.94,0.225,3.447,1.872,3.447,3.873v11.283c0,3.554,2.882,6.437,6.436,6.437c3.556,0,6.438-2.883,6.438-6.437v-1.281
		c0-2.368,1.921-4.291,4.292-4.291c2.369,0,4.292,1.923,4.292,4.291v8.566c0,1.851,1.5,3.357,3.354,3.357
		c1.854,0,3.357-1.506,3.357-3.357V26.868c0-1.617,1.311-2.928,2.924-2.928c1.617,0,2.927,1.311,2.927,2.928v5.084
		c0,2.586,2.097,4.682,4.683,4.682c2.584,0,4.681-2.095,4.681-4.682v-8.986c0-2.262,1.835-4.096,4.098-4.096h2.729l0.029-0.03h0.911
		c1.521,0,2.758-1.236,2.758-2.757C74.697,14.562,73.461,13.326,71.939,13.326"/>
</g>
</svg>
