<?xml version="1.0" encoding="utf-8"?>
<!-- Generator: Adobe Illustrator 16.0.0, SVG Export Plug-In . SVG Version: 6.00 Build 0)  -->
<!DOCTYPE svg PUBLIC "-//W3C//DTD SVG 1.1//EN" "http://www.w3.org/Graphics/SVG/1.1/DTD/svg11.dtd">
<svg version="1.1" id="Lager_1" xmlns="http://www.w3.org/2000/svg" xmlns:xlink="http://www.w3.org/1999/xlink" x="0px" y="0px"
	 viewBox="0 0 88.385 88.383" enable-background="new 0 0 88.385 88.383" xml:space="preserve">
<g>
	<path fill="#994916" d="M16.452,36.262c1.763,4.405,4.565,8.37,8.215,11.522c5.417,4.688,12.354,7.268,19.525,7.268
		c7.17,0,14.1-2.576,19.517-7.258c3.652-3.155,6.462-7.122,8.225-11.532v-9.73v-2.697v-4.99h-0.912l-0.029,0.032h-2.728
		c-2.264,0-4.099,1.833-4.099,4.094v8.984c0,2.587-2.095,4.679-4.678,4.679c-2.586,0-4.683-2.092-4.683-4.679v-5.083
		c0-1.617-1.31-2.926-2.925-2.926c-1.616,0-2.924,1.31-2.924,2.926v14.412c0,1.85-1.505,3.354-3.355,3.354
		c-1.852,0-3.354-1.503-3.354-3.354v-8.566c0-2.367-1.922-4.29-4.29-4.29c-2.371,0-4.292,1.923-4.292,4.29v1.282
		c0,3.555-2.88,6.434-6.436,6.434c-3.553,0-6.434-2.879-6.434-6.434V22.718c0-2.001-1.505-3.647-3.446-3.873h-0.897v4.99v2.697
		V36.262z"/>
	<path fill="#994916" d="M65.475,49.836c-5.909,5.104-13.467,7.912-21.282,7.912c-7.822,0-15.383-2.813-21.292-7.922
		c-2.543-2.203-4.712-4.766-6.448-7.583v30.461c0,1.289,1.054,2.346,2.343,2.346h50.796c1.29,0,2.343-1.057,2.343-2.346V42.244
		C70.193,45.067,68.023,47.633,65.475,49.836"/>
	<path fill="#FFB900" d="M75.665,24.937c-0.68-0.711-1.605-1.102-2.599-1.102h-1.133v2.699h1.133c0.253,0,0.487,0.096,0.655,0.272
		c0.173,0.176,0.257,0.414,0.25,0.665c0,0.009-0.038,0.879-0.267,2.344c-1.083,6.962-4.633,13.348-9.995,17.979
		c-5.416,4.682-12.349,7.258-19.518,7.258c-7.172,0-14.109-2.58-19.525-7.268c-5.367-4.638-8.914-11.029-9.992-17.999
		c-0.222-1.456-0.26-2.305-0.26-2.314c-0.01-0.25,0.079-0.489,0.248-0.665c0.17-0.177,0.404-0.272,0.656-0.272h1.134v-2.699h-1.134
		c-0.993,0-1.916,0.391-2.6,1.102c-0.683,0.71-1.038,1.649-1.001,2.64c0.004,0.041,0.041,0.995,0.292,2.62
		c1.177,7.6,5.042,14.571,10.891,19.63c5.909,5.109,13.47,7.922,21.292,7.922c7.815,0,15.373-2.809,21.282-7.912
		c5.845-5.053,9.714-12.013,10.895-19.609c0.255-1.633,0.295-2.608,0.298-2.651C76.705,26.585,76.351,25.646,75.665,24.937"/>
	<path fill="#FFE57E" d="M71.934,13.333H16.452c-1.522,0-2.755,1.236-2.755,2.757s1.233,2.757,2.755,2.757h0.897
		c1.939,0.225,3.446,1.871,3.446,3.872v11.281c0,3.555,2.881,6.437,6.434,6.437c3.556,0,6.436-2.882,6.436-6.437v-1.282
		c0-2.367,1.921-4.29,4.292-4.29c2.368,0,4.291,1.923,4.291,4.29v8.566c0,1.85,1.5,3.354,3.353,3.354
		c1.852,0,3.356-1.503,3.356-3.354V26.872c0-1.617,1.311-2.927,2.923-2.927c1.616,0,2.926,1.311,2.926,2.927v5.083
		c0,2.586,2.097,4.679,4.683,4.679c2.583,0,4.679-2.093,4.679-4.679v-8.984c0-2.262,1.834-4.096,4.098-4.096h2.728l0.029-0.029
		h0.912c1.521,0,2.757-1.236,2.757-2.757S73.454,13.333,71.934,13.333"/>
</g>
</svg>
