<?xml version="1.0" encoding="utf-8"?>
<!-- Generator: Adobe Illustrator 16.0.0, SVG Export Plug-In . SVG Version: 6.00 Build 0)  -->
<!DOCTYPE svg PUBLIC "-//W3C//DTD SVG 1.1//EN" "http://www.w3.org/Graphics/SVG/1.1/DTD/svg11.dtd">
<svg version="1.1" id="Lager_1" xmlns="http://www.w3.org/2000/svg" xmlns:xlink="http://www.w3.org/1999/xlink" x="0px" y="0px"
	 viewBox="0 0 88.385 88.383" enable-background="new 0 0 88.385 88.383" xml:space="preserve">
<g>
	<path fill="#347943" d="M16.499,36.275c1.76,4.397,4.557,8.355,8.2,11.503c5.409,4.681,12.333,7.256,19.493,7.256
		c7.157,0,14.074-2.574,19.483-7.245c3.646-3.15,6.451-7.111,8.211-11.514v-9.713v-2.693v-4.981h-0.91l-0.029,0.032h-2.725
		c-2.259,0-4.091,1.83-4.091,4.088v8.967c0,2.584-2.091,4.673-4.671,4.673s-4.672-2.089-4.672-4.673V26.9
		c0-1.614-1.309-2.921-2.921-2.921c-1.613,0-2.92,1.307-2.92,2.921v14.388c0,1.847-1.5,3.348-3.35,3.348
		c-1.849,0-3.348-1.501-3.348-3.348v-8.551c0-2.365-1.918-4.282-4.282-4.282c-2.367,0-4.285,1.917-4.285,4.282v1.278
		c0,3.549-2.876,6.424-6.425,6.424c-3.546,0-6.424-2.875-6.424-6.424V22.754c0-1.999-1.501-3.643-3.439-3.868h-0.896v4.981v2.693
		V36.275z"/>
	<path fill="#347943" d="M65.438,49.827c-5.899,5.094-13.443,7.9-21.246,7.9c-7.809,0-15.357-2.809-21.256-7.911
		c-2.539-2.197-4.704-4.755-6.437-7.569v30.41c0,1.288,1.052,2.342,2.339,2.342h50.71c1.288,0,2.339-1.054,2.339-2.342v-30.41
		C70.149,45.065,67.982,47.627,65.438,49.827"/>
	<path fill="#A0C433" d="M75.612,24.969c-0.679-0.711-1.603-1.101-2.595-1.101h-1.131v2.695h1.131c0.253,0,0.486,0.096,0.655,0.272
		c0.171,0.174,0.255,0.412,0.248,0.662c0,0.01-0.038,0.878-0.266,2.34c-1.08,6.951-4.625,13.326-9.979,17.95
		c-5.406,4.671-12.327,7.245-19.484,7.245c-7.16,0-14.085-2.575-19.493-7.256c-5.357-4.631-8.898-11.01-9.975-17.969
		c-0.222-1.452-0.26-2.301-0.26-2.311c-0.01-0.25,0.079-0.488,0.248-0.662c0.17-0.176,0.404-0.272,0.655-0.272h1.132v-2.695h-1.132
		c-0.991,0-1.913,0.39-2.595,1.101c-0.682,0.709-1.037,1.646-1,2.634c0.004,0.042,0.04,0.994,0.291,2.618
		c1.175,7.586,5.034,14.547,10.873,19.595c5.899,5.103,13.448,7.911,21.256,7.911c7.803,0,15.347-2.807,21.246-7.9
		c5.836-5.044,9.698-11.993,10.876-19.576c0.255-1.629,0.295-2.602,0.298-2.647C76.649,26.616,76.297,25.678,75.612,24.969"/>
	<path fill="#A0C433" d="M71.887,13.385H16.499c-1.52,0-2.751,1.234-2.751,2.752c0,1.518,1.231,2.752,2.751,2.752h0.896
		c1.936,0.223,3.439,1.866,3.439,3.865v11.261c0,3.549,2.877,6.426,6.424,6.426c3.549,0,6.425-2.877,6.425-6.426v-1.278
		c0-2.365,1.918-4.282,4.284-4.282s4.284,1.917,4.284,4.282v8.551c0,1.847,1.498,3.348,3.347,3.348c1.851,0,3.351-1.501,3.351-3.348
		V26.9c0-1.614,1.309-2.921,2.919-2.921c1.613,0,2.922,1.307,2.922,2.921v5.074c0,2.584,2.092,4.673,4.672,4.673
		s4.672-2.089,4.672-4.673v-8.967c0-2.259,1.831-4.088,4.09-4.088h2.725l0.029-0.029h0.91c1.519,0,2.752-1.234,2.752-2.752
		C74.639,14.619,73.405,13.385,71.887,13.385"/>
</g>
</svg>
