<?xml version="1.0" encoding="utf-8"?>
<!-- Generator: Adobe Illustrator 16.0.0, SVG Export Plug-In . SVG Version: 6.00 Build 0)  -->
<!DOCTYPE svg PUBLIC "-//W3C//DTD SVG 1.1//EN" "http://www.w3.org/Graphics/SVG/1.1/DTD/svg11.dtd">
<svg version="1.1" id="Lager_1" xmlns="http://www.w3.org/2000/svg" xmlns:xlink="http://www.w3.org/1999/xlink" x="0px" y="0px"
	 viewBox="0 0 88.385 88.383" enable-background="new 0 0 88.385 88.383" xml:space="preserve">
<g>
	<path fill="#0A4682" d="M16.454,36.262c1.763,4.404,4.564,8.37,8.214,11.521c5.417,4.688,12.353,7.268,19.524,7.268
		c7.17,0,14.099-2.578,19.516-7.258c3.651-3.154,6.461-7.123,8.224-11.531v-9.73v-2.696v-4.99h-0.911l-0.029,0.032h-2.729
		c-2.263,0-4.098,1.833-4.098,4.094v8.983c0,2.587-2.095,4.679-4.678,4.679c-2.586,0-4.682-2.092-4.682-4.679v-5.083
		c0-1.617-1.31-2.926-2.925-2.926c-1.616,0-2.925,1.31-2.925,2.926v14.41c0,1.851-1.504,3.354-3.354,3.354
		c-1.852,0-3.354-1.502-3.354-3.354v-8.564c0-2.367-1.922-4.29-4.29-4.29c-2.371,0-4.292,1.922-4.292,4.29V34
		c0,3.554-2.88,6.434-6.436,6.434c-3.552,0-6.434-2.88-6.434-6.434v-11.28c0-2.001-1.505-3.647-3.446-3.873h-0.896v4.99v2.696
		V36.262z"/>
	<path fill="#0A4682" d="M65.473,49.834c-5.908,5.104-13.465,7.914-21.281,7.914c-7.821,0-15.382-2.813-21.29-7.924
		c-2.543-2.199-4.712-4.762-6.448-7.58v30.459c0,1.289,1.054,2.346,2.342,2.346h50.792c1.29,0,2.343-1.057,2.343-2.346V42.245
		C70.192,45.067,68.021,47.633,65.473,49.834"/>
	<path fill="#009FE4" d="M75.664,24.938c-0.681-0.711-1.605-1.102-2.6-1.102h-1.133v2.699h1.133c0.253,0,0.487,0.096,0.656,0.272
		c0.172,0.176,0.257,0.414,0.249,0.665c0,0.009-0.038,0.878-0.267,2.344c-1.082,6.961-4.632,13.347-9.994,17.978
		c-5.416,4.68-12.348,7.258-19.517,7.258c-7.171,0-14.108-2.58-19.524-7.268c-5.367-4.638-8.913-11.029-9.992-17.998
		c-0.222-1.456-0.26-2.304-0.26-2.314c-0.01-0.25,0.079-0.489,0.248-0.665c0.171-0.177,0.404-0.272,0.656-0.272h1.134v-2.699H15.32
		c-0.993,0-1.917,0.391-2.6,1.102c-0.683,0.71-1.038,1.648-1.001,2.64c0.004,0.041,0.041,0.995,0.291,2.62
		c1.177,7.6,5.042,14.57,10.891,19.627c5.908,5.111,13.469,7.924,21.29,7.924c7.816,0,15.373-2.811,21.281-7.914
		c5.845-5.051,9.714-12.011,10.895-19.606c0.255-1.633,0.295-2.608,0.298-2.651C76.703,26.586,76.349,25.648,75.664,24.938"/>
	<path fill="#009FE4" d="M71.932,13.334H16.454c-1.522,0-2.755,1.236-2.755,2.756c0,1.521,1.233,2.757,2.755,2.757h0.896
		c1.94,0.225,3.446,1.871,3.446,3.872V34c0,3.554,2.882,6.436,6.434,6.436c3.555,0,6.436-2.882,6.436-6.436v-1.281
		c0-2.367,1.921-4.29,4.291-4.29c2.369,0,4.291,1.922,4.291,4.29v8.564c0,1.85,1.5,3.354,3.353,3.354
		c1.852,0,3.355-1.505,3.355-3.354v-14.41c0-1.617,1.311-2.927,2.924-2.927c1.616,0,2.926,1.311,2.926,2.927v5.083
		c0,2.585,2.096,4.68,4.682,4.68c2.583,0,4.679-2.095,4.679-4.68v-8.983c0-2.261,1.834-4.095,4.097-4.095h2.729l0.029-0.029h0.911
		c1.521,0,2.757-1.236,2.757-2.757C74.688,14.57,73.452,13.334,71.932,13.334"/>
</g>
</svg>
