<?xml version="1.0" encoding="utf-8"?>
<!-- Generator: Adobe Illustrator 16.0.0, SVG Export Plug-In . SVG Version: 6.00 Build 0)  -->
<!DOCTYPE svg PUBLIC "-//W3C//DTD SVG 1.1//EN" "http://www.w3.org/Graphics/SVG/1.1/DTD/svg11.dtd">
<svg version="1.1" id="Lager_1" xmlns="http://www.w3.org/2000/svg" xmlns:xlink="http://www.w3.org/1999/xlink" x="0px" y="0px"
	 viewBox="0 0 90.709 90.708" enable-background="new 0 0 90.709 90.708" xml:space="preserve">
<g>
	<path fill="#1E6E32" d="M31.315,66.589h-5.92c-0.206,0-0.375,0.17-0.375,0.377v14.051h6.67V66.966
		C31.69,66.759,31.521,66.589,31.315,66.589z"/>
	<g>
		<path fill="#1E6E32" d="M38.398,23.795H62.06c-0.1-0.193-0.225-0.369-0.363-0.486L45.94,10.177
			c-0.322-0.268-0.926-0.485-1.344-0.485c-3.582,0-18.768,0-22.4,0c-0.183,0-0.402,0.047-0.618,0.116L38.398,23.795z"/>
		<g>
			<path fill="#B0CB0B" d="M62.278,32.936v-8.382c0-0.234-0.088-0.511-0.219-0.759H38.398l0.011,19.919l11.967-10.018
				c0.301,0,6.094,0,11.902,0V32.936z"/>
		</g>
	</g>
	<g>
		<path fill="#1E6E32" d="M62.353,43.714h23.664c-0.102-0.193-0.225-0.371-0.365-0.488l-10.783-9.042
			c-0.32-0.269-0.924-0.487-1.342-0.487c-1.703,0-6.029,0-10.488,0c-6.053,0-12.348,0-12.662,0L62.353,43.714z"/>
	</g>
	<g>
		<path fill="#D2E182" d="M50.376,33.696L38.409,43.714l-0.011-19.919L21.579,9.808c-0.275,0.09-0.544,0.22-0.725,0.369
			L5.073,23.309c-0.322,0.267-0.584,0.827-0.584,1.245l-0.007,27.85L4.473,80.259c0.001,0.416,0.343,0.758,0.761,0.758H25.02V66.966
			c0-0.207,0.169-0.377,0.375-0.377h5.92c0.206,0,0.375,0.17,0.375,0.377v14.051h30.663V43.714L50.376,33.696z M17.906,73.88
			c0,0.207-0.17,0.377-0.376,0.377h-5.919c-0.207,0-0.376-0.17-0.376-0.377v-6.914c0-0.207,0.169-0.377,0.376-0.377h5.919
			c0.206,0,0.376,0.17,0.376,0.377V73.88z M17.906,58.611c0,0.207-0.17,0.377-0.376,0.377h-5.919c-0.207,0-0.376-0.17-0.376-0.377
			v-6.914c0-0.207,0.169-0.375,0.376-0.375h5.919c0.206,0,0.376,0.168,0.376,0.375V58.611z M17.906,43.343
			c0,0.205-0.17,0.375-0.376,0.375h-5.919c-0.207,0-0.376-0.17-0.376-0.375v-6.916c0-0.206,0.169-0.377,0.376-0.377h5.919
			c0.206,0,0.376,0.171,0.376,0.377V43.343z M24.798,28.072c0,0.207-0.17,0.377-0.375,0.377h-5.921c-0.206,0-0.375-0.17-0.375-0.377
			v-6.913c0-0.207,0.169-0.378,0.375-0.378h5.921c0.205,0,0.375,0.171,0.375,0.378V28.072z M31.69,58.611
			c0,0.207-0.169,0.377-0.375,0.377h-5.92c-0.206,0-0.375-0.17-0.375-0.377v-6.914c0-0.207,0.169-0.375,0.375-0.375h5.92
			c0.206,0,0.375,0.168,0.375,0.375V58.611z M31.69,43.343c0,0.205-0.169,0.375-0.375,0.375h-5.92c-0.206,0-0.375-0.17-0.375-0.375
			v-6.916c0-0.206,0.169-0.377,0.375-0.377h5.92c0.206,0,0.375,0.171,0.375,0.377V43.343z M53.683,73.88
			c0,0.207-0.168,0.377-0.375,0.377H47.39c-0.207,0-0.377-0.17-0.377-0.377v-6.914c0-0.207,0.17-0.377,0.377-0.377h5.918
			c0.207,0,0.375,0.17,0.375,0.377V73.88z M53.683,58.611c0,0.207-0.168,0.377-0.375,0.377H47.39c-0.207,0-0.377-0.17-0.377-0.377
			v-6.914c0-0.207,0.17-0.375,0.377-0.375h5.918c0.207,0,0.375,0.168,0.375,0.375V58.611z"/>
		<path fill="#FFFFFF" d="M17.53,51.322h-5.919c-0.207,0-0.376,0.168-0.376,0.375v6.914c0,0.207,0.169,0.377,0.376,0.377h5.919
			c0.206,0,0.376-0.17,0.376-0.377v-6.914C17.906,51.49,17.736,51.322,17.53,51.322z"/>
		<path fill="#FFFFFF" d="M17.53,36.051h-5.919c-0.207,0-0.376,0.171-0.376,0.377v6.916c0,0.205,0.169,0.375,0.376,0.375h5.919
			c0.206,0,0.376-0.17,0.376-0.375v-6.916C17.906,36.222,17.736,36.051,17.53,36.051z"/>
		<path fill="#FFFFFF" d="M31.315,51.322h-5.92c-0.206,0-0.375,0.168-0.375,0.375v6.914c0,0.207,0.169,0.377,0.375,0.377h5.92
			c0.206,0,0.375-0.17,0.375-0.377v-6.914C31.69,51.49,31.521,51.322,31.315,51.322z"/>
		<path fill="#FFFFFF" d="M31.315,36.051h-5.92c-0.206,0-0.375,0.171-0.375,0.377v6.916c0,0.205,0.169,0.375,0.375,0.375h5.92
			c0.206,0,0.375-0.17,0.375-0.375v-6.916C31.69,36.222,31.521,36.051,31.315,36.051z"/>
		<path fill="#FFFFFF" d="M24.423,20.781h-5.921c-0.206,0-0.375,0.171-0.375,0.378v6.913c0,0.207,0.169,0.377,0.375,0.377h5.921
			c0.205,0,0.375-0.17,0.375-0.377v-6.913C24.798,20.952,24.628,20.781,24.423,20.781z"/>
		<path fill="#FFFFFF" d="M17.53,66.589h-5.919c-0.207,0-0.376,0.17-0.376,0.377v6.914c0,0.207,0.169,0.377,0.376,0.377h5.919
			c0.206,0,0.376-0.17,0.376-0.377v-6.914C17.906,66.759,17.736,66.589,17.53,66.589z"/>
		<path fill="#FFFFFF" d="M53.308,51.322H47.39c-0.207,0-0.377,0.168-0.377,0.375v6.914c0,0.207,0.17,0.377,0.377,0.377h5.918
			c0.207,0,0.375-0.17,0.375-0.377v-6.914C53.683,51.49,53.515,51.322,53.308,51.322z"/>
		<path fill="#FFFFFF" d="M53.308,66.589H47.39c-0.207,0-0.377,0.17-0.377,0.377v6.914c0,0.207,0.17,0.377,0.377,0.377h5.918
			c0.207,0,0.375-0.17,0.375-0.377v-6.914C53.683,66.759,53.515,66.589,53.308,66.589z"/>
	</g>
	<g>
		<path fill="#B0CB0B" d="M86.017,43.714H62.353v37.303h0.76h22.361c0.418,0,0.762-0.344,0.762-0.76V44.472
			C86.235,44.238,86.146,43.962,86.017,43.714z M77.64,73.88c0,0.207-0.17,0.377-0.377,0.377h-5.918
			c-0.207,0-0.375-0.17-0.375-0.377v-6.914c0-0.207,0.168-0.377,0.375-0.377h5.918c0.207,0,0.377,0.17,0.377,0.377V73.88z
			 M77.64,58.611c0,0.207-0.17,0.377-0.377,0.377h-5.918c-0.207,0-0.375-0.17-0.375-0.377v-6.914c0-0.207,0.168-0.375,0.375-0.375
			h5.918c0.207,0,0.377,0.168,0.377,0.375V58.611z"/>
		<path fill="#D2E182" d="M77.263,51.322h-5.918c-0.207,0-0.375,0.168-0.375,0.375v6.914c0,0.207,0.168,0.377,0.375,0.377h5.918
			c0.207,0,0.377-0.17,0.377-0.377v-6.914C77.64,51.49,77.47,51.322,77.263,51.322z"/>
		<path fill="#D2E182" d="M77.263,66.589h-5.918c-0.207,0-0.375,0.17-0.375,0.377v6.914c0,0.207,0.168,0.377,0.375,0.377h5.918
			c0.207,0,0.377-0.17,0.377-0.377v-6.914C77.64,66.759,77.47,66.589,77.263,66.589z"/>
	</g>
</g>
</svg>
