<?xml version="1.0" encoding="utf-8"?>
<!-- Generator: Adobe Illustrator 16.0.0, SVG Export Plug-In . SVG Version: 6.00 Build 0)  -->
<!DOCTYPE svg PUBLIC "-//W3C//DTD SVG 1.1//EN" "http://www.w3.org/Graphics/SVG/1.1/DTD/svg11.dtd">
<svg version="1.1" id="Lager_1" xmlns="http://www.w3.org/2000/svg" xmlns:xlink="http://www.w3.org/1999/xlink" x="0px" y="0px"
	 viewBox="0 0 90.709 90.708" enable-background="new 0 0 90.709 90.708" xml:space="preserve">
<g>
	<path fill="#994916" d="M31.314,66.589h-5.92c-0.205,0-0.375,0.17-0.375,0.377v14.051h6.672V66.966
		C31.691,66.759,31.521,66.589,31.314,66.589z"/>
	<g>
		<path fill="#994916" d="M38.398,23.795h23.662c-0.101-0.193-0.225-0.369-0.365-0.486L45.939,10.177
			c-0.321-0.268-0.924-0.485-1.342-0.485c-3.583,0-18.769,0-22.4,0c-0.184,0-0.403,0.047-0.619,0.116L38.398,23.795z"/>
		<g>
			<path fill="#FFB900" d="M62.279,32.936v-8.382c0-0.234-0.088-0.511-0.219-0.759H38.398l0.011,19.919l11.968-10.018
				c0.299,0,6.094,0,11.902,0V32.936z"/>
		</g>
	</g>
	<g>
		<path fill="#994916" d="M62.354,43.714h23.664c-0.102-0.193-0.226-0.371-0.365-0.488l-10.785-9.042
			c-0.319-0.269-0.923-0.487-1.341-0.487c-1.702,0-6.028,0-10.487,0c-6.053,0-12.35,0-12.662,0L62.354,43.714z"/>
	</g>
	<g>
		<path fill="#FFE57E" d="M50.377,33.696L38.409,43.714l-0.011-19.919L21.578,9.808c-0.275,0.09-0.544,0.22-0.724,0.369
			L5.072,23.309c-0.322,0.267-0.584,0.827-0.584,1.245l-0.007,27.85L4.475,80.259c0,0.416,0.343,0.758,0.76,0.758H25.02V66.966
			c0-0.207,0.17-0.377,0.375-0.377h5.92c0.207,0,0.377,0.17,0.377,0.377v14.051h30.662V43.714L50.377,33.696z M17.907,73.88
			c0,0.207-0.171,0.377-0.378,0.377h-5.918c-0.207,0-0.375-0.17-0.375-0.377v-6.914c0-0.207,0.168-0.377,0.375-0.377h5.918
			c0.207,0,0.378,0.17,0.378,0.377V73.88z M17.907,58.611c0,0.207-0.171,0.377-0.378,0.377h-5.918c-0.207,0-0.375-0.17-0.375-0.377
			v-6.914c0-0.207,0.168-0.375,0.375-0.375h5.918c0.207,0,0.378,0.168,0.378,0.375V58.611z M17.907,43.343
			c0,0.205-0.171,0.375-0.378,0.375h-5.918c-0.207,0-0.375-0.17-0.375-0.375v-6.916c0-0.206,0.168-0.377,0.375-0.377h5.918
			c0.207,0,0.378,0.171,0.378,0.377V43.343z M24.798,28.072c0,0.207-0.17,0.377-0.375,0.377h-5.92c-0.207,0-0.376-0.17-0.376-0.377
			v-6.913c0-0.207,0.169-0.378,0.376-0.378h5.92c0.205,0,0.375,0.171,0.375,0.378V28.072z M31.691,58.611
			c0,0.207-0.17,0.377-0.377,0.377h-5.92c-0.205,0-0.375-0.17-0.375-0.377v-6.914c0-0.207,0.17-0.375,0.375-0.375h5.92
			c0.207,0,0.377,0.168,0.377,0.375V58.611z M31.691,43.343c0,0.205-0.17,0.375-0.377,0.375h-5.92c-0.205,0-0.375-0.17-0.375-0.375
			v-6.916c0-0.206,0.17-0.377,0.375-0.377h5.92c0.207,0,0.377,0.171,0.377,0.377V43.343z M53.684,73.88
			c0,0.207-0.168,0.377-0.375,0.377h-5.92c-0.205,0-0.375-0.17-0.375-0.377v-6.914c0-0.207,0.17-0.377,0.375-0.377h5.92
			c0.207,0,0.375,0.17,0.375,0.377V73.88z M53.684,58.611c0,0.207-0.168,0.377-0.375,0.377h-5.92c-0.205,0-0.375-0.17-0.375-0.377
			v-6.914c0-0.207,0.17-0.375,0.375-0.375h5.92c0.207,0,0.375,0.168,0.375,0.375V58.611z"/>
		<path fill="#FFFFFF" d="M17.529,51.322h-5.918c-0.207,0-0.375,0.168-0.375,0.375v6.914c0,0.207,0.168,0.377,0.375,0.377h5.918
			c0.207,0,0.378-0.17,0.378-0.377v-6.914C17.907,51.49,17.736,51.322,17.529,51.322z"/>
		<path fill="#FFFFFF" d="M17.529,36.051h-5.918c-0.207,0-0.375,0.171-0.375,0.377v6.916c0,0.205,0.168,0.375,0.375,0.375h5.918
			c0.207,0,0.378-0.17,0.378-0.375v-6.916C17.907,36.222,17.736,36.051,17.529,36.051z"/>
		<path fill="#FFFFFF" d="M31.314,51.322h-5.92c-0.205,0-0.375,0.168-0.375,0.375v6.914c0,0.207,0.17,0.377,0.375,0.377h5.92
			c0.207,0,0.377-0.17,0.377-0.377v-6.914C31.691,51.49,31.521,51.322,31.314,51.322z"/>
		<path fill="#FFFFFF" d="M31.314,36.051h-5.92c-0.205,0-0.375,0.171-0.375,0.377v6.916c0,0.205,0.17,0.375,0.375,0.375h5.92
			c0.207,0,0.377-0.17,0.377-0.375v-6.916C31.691,36.222,31.521,36.051,31.314,36.051z"/>
		<path fill="#FFFFFF" d="M24.423,20.781h-5.92c-0.207,0-0.376,0.171-0.376,0.378v6.913c0,0.207,0.169,0.377,0.376,0.377h5.92
			c0.205,0,0.375-0.17,0.375-0.377v-6.913C24.798,20.952,24.628,20.781,24.423,20.781z"/>
		<path fill="#FFFFFF" d="M17.529,66.589h-5.918c-0.207,0-0.375,0.17-0.375,0.377v6.914c0,0.207,0.168,0.377,0.375,0.377h5.918
			c0.207,0,0.378-0.17,0.378-0.377v-6.914C17.907,66.759,17.736,66.589,17.529,66.589z"/>
		<path fill="#FFFFFF" d="M53.309,51.322h-5.92c-0.205,0-0.375,0.168-0.375,0.375v6.914c0,0.207,0.17,0.377,0.375,0.377h5.92
			c0.207,0,0.375-0.17,0.375-0.377v-6.914C53.684,51.49,53.516,51.322,53.309,51.322z"/>
		<path fill="#FFFFFF" d="M53.309,66.589h-5.92c-0.205,0-0.375,0.17-0.375,0.377v6.914c0,0.207,0.17,0.377,0.375,0.377h5.92
			c0.207,0,0.375-0.17,0.375-0.377v-6.914C53.684,66.759,53.516,66.589,53.309,66.589z"/>
	</g>
	<g>
		<path fill="#FFB900" d="M86.018,43.714H62.354v37.303h0.76h22.362c0.417,0,0.759-0.344,0.759-0.76V44.472
			C86.234,44.238,86.146,43.962,86.018,43.714z M77.64,73.88c0,0.207-0.17,0.377-0.375,0.377h-5.921
			c-0.206,0-0.375-0.17-0.375-0.377v-6.914c0-0.207,0.169-0.377,0.375-0.377h5.921c0.205,0,0.375,0.17,0.375,0.377V73.88z
			 M77.64,58.611c0,0.207-0.17,0.377-0.375,0.377h-5.921c-0.206,0-0.375-0.17-0.375-0.377v-6.914c0-0.207,0.169-0.375,0.375-0.375
			h5.921c0.205,0,0.375,0.168,0.375,0.375V58.611z"/>
		<path fill="#FFE57E" d="M77.265,51.322h-5.921c-0.206,0-0.375,0.168-0.375,0.375v6.914c0,0.207,0.169,0.377,0.375,0.377h5.921
			c0.205,0,0.375-0.17,0.375-0.377v-6.914C77.64,51.49,77.47,51.322,77.265,51.322z"/>
		<path fill="#FFE57E" d="M77.265,66.589h-5.921c-0.206,0-0.375,0.17-0.375,0.377v6.914c0,0.207,0.169,0.377,0.375,0.377h5.921
			c0.205,0,0.375-0.17,0.375-0.377v-6.914C77.64,66.759,77.47,66.589,77.265,66.589z"/>
	</g>
</g>
</svg>
