<?xml version="1.0" encoding="utf-8"?>
<!-- Generator: Adobe Illustrator 16.0.0, SVG Export Plug-In . SVG Version: 6.00 Build 0)  -->
<!DOCTYPE svg PUBLIC "-//W3C//DTD SVG 1.1//EN" "http://www.w3.org/Graphics/SVG/1.1/DTD/svg11.dtd">
<svg version="1.1" id="Lager_1" xmlns="http://www.w3.org/2000/svg" xmlns:xlink="http://www.w3.org/1999/xlink" x="0px" y="0px"
	 viewBox="0 0 88.413 88.412" enable-background="new 0 0 88.413 88.412" xml:space="preserve">
<g>
	<path fill="#009FE4" d="M83.845,44.281c-0.154-0.461-0.238-0.848-0.055-1.462c0.182-0.613,4.432-9.602,4.432-9.602
		c0.469-1.284,0.033-2.726-1.068-3.534c-1.105-0.809-2.609-0.791-3.693,0.044c0,0-10.234,8.32-12.02,9.703
		c-1.018,0.789-2.143,0.972-3.211,0.972c-0.697,0-1.02,0-1.297,0c-0.404,0-0.537-0.256-0.438-0.68
		c0.105-0.423,0.521-2.378,0.521-2.378c0.363-1.657-0.688-3.297-2.346-3.659c-1.656-0.365-3.297,0.688-3.66,2.344
		c0,0-0.697,3.232-0.801,3.656s-0.396,0.717-0.756,0.717c-0.904,0-2.551,0-2.93,0c-0.529,0-0.705-0.261-0.607-0.699
		c0.094-0.44,0.682-3.113,0.682-3.113c0.361-1.657-0.688-3.297-2.346-3.659c-1.658-0.364-3.299,0.686-3.66,2.345
		c0,0-0.838,3.921-0.955,4.36c-0.117,0.438-0.427,0.767-0.807,0.767c-0.96,0-2.698,0-2.928,0c-0.315,0-0.635-0.159-0.511-0.809
		c0.122-0.648,0.844-3.84,0.844-3.84c0.361-1.66-0.689-3.298-2.348-3.661c-1.658-0.364-3.298,0.687-3.66,2.344
		c0,0-0.91,4.227-1.084,4.95c-0.174,0.723-0.403,1.016-1.021,1.016c-0.617,0-2.205,0-2.736,0c-0.525,0-0.754-0.338-0.552-1.09
		c0.201-0.756,0.984-4.491,0.984-4.491c0.359-1.658-0.688-3.297-2.348-3.66c-1.656-0.363-3.297,0.688-3.66,2.345
		c0,0-1.101,5.043-1.264,5.77c-0.164,0.728-0.656,1.127-1.22,1.127c-0.476,0-1.063,0-1.614,0c-1.209,0-1.361-0.555-1.204-1.354
		c0.229-1.15,1.181-5.712,1.181-5.712c0.241-0.92,0.04-1.901-0.542-2.654c-0.58-0.753-1.48-1.195-2.432-1.195
		c-4.8,0-10.126,1.725-15.148,4.729C5.437,35.49,3.578,36.9,2.19,38.293c-0.483,0.487-0.895,0.966-1.253,1.429
		c-0.435,0.56-0.326,1.103,0.607,1.459c0.936,0.359,5.395,1.831,5.395,1.831c1.046,0.354,1.605,1.487,1.251,2.533
		c-0.282,0.832-1.059,1.357-1.892,1.357c-0.213,0-0.431-0.033-0.643-0.107c0,0-3.94-1.331-4.782-1.622
		c-0.839-0.288-0.993,0.428-0.786,0.889c0.913,2.055,2.888,4.58,6.388,7.141c4.84,3.541,10.647,5.494,16.359,5.494
		c0.931,0,1.809-0.424,2.394-1.148c0.584-0.727,0.808-1.676,0.609-2.586c0,0-1.588-7.234-1.705-7.777s0.135-0.635,0.56-0.635
		c0,0,2.727,0,3.124,0c0.399,0,0.497,0.154,0.601,0.525c0.101,0.373,2.153,9.832,2.153,9.832c0.314,1.436,1.587,2.416,3,2.416
		c0.219,0,0.438-0.023,0.662-0.072c1.656-0.365,2.705-2.002,2.345-3.66c0,0-1.845-8.342-1.872-8.541
		c-0.028-0.197-0.097-0.5,0.342-0.5s3.019,0,3.353,0c0.329,0,0.519,0.174,0.602,0.529c0.085,0.357,1.873,8.549,1.873,8.549
		c0.315,1.436,1.588,2.418,3,2.418c0.219,0,0.438-0.023,0.663-0.072c1.656-0.363,2.707-2.002,2.343-3.66
		c0,0-1.526-6.922-1.576-7.193c-0.058-0.334-0.058-0.57,0.417-0.57c0.544,0,2.74,0,3.151,0c0.411,0,0.624,0.191,0.743,0.664
		s1.592,7.264,1.592,7.264c0.314,1.438,1.588,2.418,3,2.418c0.217,0,0.438-0.021,0.662-0.07c1.656-0.365,2.707-2.004,2.344-3.662
		c0,0-1.246-5.686-1.33-6.07s0.025-0.543,0.447-0.543c0.424,0,2.793,0,3.164,0c0.369,0,0.555,0.037,0.684,0.555
		c0.123,0.516,1.387,6.34,1.387,6.34c0.314,1.438,1.586,2.416,2.998,2.416c0.221,0,0.441-0.021,0.664-0.07
		c1.658-0.363,2.707-2.004,2.344-3.66c0,0-1.006-4.559-1.092-4.982c-0.086-0.428,0.072-0.598,0.434-0.598c0.252,0,1.107,0,1.809,0
		c0.891,0,1.938,0.336,3.123,1.131c1.383,0.928,11.617,9.541,11.617,9.541c0.551,0.428,1.213,0.641,1.875,0.641
		c0.637,0,1.275-0.199,1.818-0.596c1.102-0.809,1.537-2.248,1.068-3.533C88.222,53.734,83.999,44.743,83.845,44.281z"/>
	<circle fill="#FFFFFF" cx="13.473" cy="39.553" r="3.701"/>
</g>
</svg>
