<?xml version="1.0" encoding="utf-8"?>
<!-- Generator: Adobe Illustrator 16.0.0, SVG Export Plug-In . SVG Version: 6.00 Build 0)  -->
<!DOCTYPE svg PUBLIC "-//W3C//DTD SVG 1.1//EN" "http://www.w3.org/Graphics/SVG/1.1/DTD/svg11.dtd">
<svg version="1.1" id="Lager_1" xmlns="http://www.w3.org/2000/svg" xmlns:xlink="http://www.w3.org/1999/xlink" x="0px" y="0px"
	 viewBox="0 0 70.923 70.923" enable-background="new 0 0 70.923 70.923" xml:space="preserve">
<g>
	<path fill="#009FE4" d="M63.385,44.473c-3.661-2.197-5.056-4.293-8.054-4.293c-6.245,0-15.606,11.688-29.809,11.688
		c-12.913,0-22.215-8.619-24.963-11.623c-0.569-0.623-0.563-1.115,0.113-1.42c2.101-0.941,3.976-1.847,4.801-2.283
		c0.556-0.293,1.05-0.508,1.227-0.86c0.19-0.378-0.74-1.04-1.746-1.673c-1.691-1.064-3.425-2.158-4.45-2.992
		c-0.717-0.584-0.622-1.129,0-1.777c2.614-2.725,10.76-10.183,23.046-10.183c15.89,0,23.977,11.97,31.595,11.97
		c3.496,0,4.433-2.626,8.554-4.874c4.446-2.422,10.36-1.544,5.243,4.174c-1.62,1.812-3.02,3.436-3.02,5.12
		c0,2.113,1.957,4.142,3.78,6.154C73.376,45.652,67.131,46.719,63.385,44.473z"/>
	<path fill="#FFFFFF" d="M13.293,33.508c5.369,0.17,5.627-8.021,0.258-8.185C8.18,25.152,7.925,33.342,13.293,33.508z"/>
</g>
</svg>
