<?xml version="1.0" encoding="utf-8"?>
<!-- Generator: Adobe Illustrator 16.0.0, SVG Export Plug-In . SVG Version: 6.00 Build 0)  -->
<!DOCTYPE svg PUBLIC "-//W3C//DTD SVG 1.1//EN" "http://www.w3.org/Graphics/SVG/1.1/DTD/svg11.dtd">
<svg version="1.1" id="Lager_1" xmlns="http://www.w3.org/2000/svg" xmlns:xlink="http://www.w3.org/1999/xlink" x="0px" y="0px"
	 viewBox="0 0 92.268 92.268" enable-background="new 0 0 92.268 92.268" xml:space="preserve">
<g>
	<path fill="#F0A5C3" d="M59.287,19.542c0.711-2.539,0.172-3.928-2.561-3.928c-1.641,0-2.336,0-4.555,0c-3.353,0-5.121,0-6.953,2.73
		c-1.096,1.632-6.904,10.347-10.936,16.399c6.944,0.17,13.84,0.39,20.209,0.574C56.267,29.643,58.572,22.095,59.287,19.542z"/>
	<g>
		<path fill="#E6007E" d="M89.445,27.183c-1.234-0.008-2.879-0.019-3.406-0.021c-1.773-0.011-2.809,0.251-4.158,1.98
			c-1.18,1.513-2.418,3.346-3.344,4.417c-1.813,2.098-3.371,2.135-6.834,2.118c-12.152-0.061-30.81-0.904-48.175-1.146
			c-8.697-0.122-13.452,2.235-16.615,5.703c-2.675,2.932-3.058,3.115-4.811,5.203c-3.651,4.347-2.577,9.103,3.445,9.141
			c8.273,0.052,17.59,0.038,26.771-0.002c-1.213-1.821-2-3.003-2-3.003c-1.863-2.855-0.869-4.594,2.234-4.594
			c3.104,0.001,9.869,0,13.966,0.001c4.097,0,5.091,1.365,5.835,3.353c0.203,0.537,0.711,2.078,1.365,4.112
			c5.168-0.037,9.902-0.072,13.896-0.096c11.232-0.067,14.457-2.105,17.9-9.444c2.309-4.92,4.518-9.711,6.434-14.249
			C92.751,28.751,92.101,27.2,89.445,27.183z"/>
		<path fill="#F0A5C3" d="M59.185,71.97c-0.85-2.924-3.697-12.036-5.467-17.525c-0.654-2.034-1.162-3.575-1.365-4.112
			c-0.744-1.987-1.738-3.353-5.835-3.353c-4.097-0.001-10.861,0-13.966-0.001c-3.104,0-4.098,1.738-2.234,4.594
			c0,0,0.787,1.182,2,3.003c3.756,5.64,11.607,17.423,12.898,19.347c1.833,2.732,3.602,2.732,6.953,2.732c2.219,0,2.914,0,4.555,0
			C59.457,76.654,60.099,75.119,59.185,71.97z"/>
	</g>
	<path fill="#FFB900" d="M31.406,41.451c-0.008,1.113-0.916,2.009-2.028,2.002l-0.892-0.005c-1.113-0.008-2.009-0.916-2.002-2.029
		l0,0c0.008-1.113,0.914-2.009,2.027-2.002l0.893,0.005C30.515,39.43,31.412,40.338,31.406,41.451L31.406,41.451z"/>
	<path fill="#FFB900" d="M39.816,41.504c-0.006,1.112-0.914,2.009-2.026,2.003l-0.892-0.006c-1.113-0.008-2.01-0.915-2.002-2.028
		l0,0c0.007-1.113,0.914-2.009,2.027-2.002l0.892,0.005C38.927,39.483,39.824,40.391,39.816,41.504L39.816,41.504z"/>
	<path fill="#FFB900" d="M22.993,41.398c-0.007,1.113-0.915,2.009-2.026,2.001l-0.892-0.005c-1.114-0.007-2.009-0.915-2.003-2.028
		l0,0c0.008-1.113,0.915-2.009,2.027-2.002l0.892,0.006C22.104,39.377,23,40.285,22.993,41.398L22.993,41.398z"/>
	<path fill="#FFB900" d="M48.229,41.558c-0.007,1.112-0.915,2.009-2.028,2.002l-0.891-0.006c-1.113-0.008-2.01-0.915-2.003-2.028
		l0,0c0.007-1.113,0.915-2.009,2.028-2.002l0.891,0.005C47.339,39.536,48.236,40.444,48.229,41.558L48.229,41.558z"/>
	<path fill="#FFB900" d="M56.64,41.61c-0.008,1.112-0.914,2.009-2.027,2.002l-0.893-0.006c-1.113-0.007-2.008-0.914-2.002-2.027l0,0
		c0.008-1.113,0.914-2.009,2.027-2.002l0.893,0.006C55.75,39.589,56.648,40.497,56.64,41.61L56.64,41.61z"/>
	<path fill="#FFB900" d="M65.052,41.663c-0.008,1.113-0.916,2.01-2.027,2.002l-0.893-0.006c-1.113-0.007-2.01-0.914-2.002-2.027l0,0
		c0.008-1.113,0.914-2.009,2.027-2.002l0.893,0.005C64.162,39.643,65.058,40.55,65.052,41.663L65.052,41.663z"/>
	<path fill="#FFB900" d="M73.462,41.716c-0.006,1.113-0.914,2.01-2.027,2.002l-0.891-0.006c-1.113-0.006-2.01-0.914-2.002-2.027l0,0
		c0.006-1.112,0.914-2.009,2.027-2.002l0.891,0.006C72.574,39.695,73.47,40.603,73.462,41.716L73.462,41.716z"/>
	<g>
		<path fill="#FFB900" d="M14.582,41.345c0.005-0.834-0.498-1.554-1.219-1.864c-0.054-0.023-2.468-0.77-4.186-1.3
			c-0.842,0.625-1.59,1.313-2.264,2.053c-1.433,1.57-2.207,2.351-2.887,3.06l8.528,0.053C13.667,43.354,14.574,42.458,14.582,41.345
			z"/>
	</g>
</g>
</svg>
