<?xml version="1.0" encoding="utf-8"?>
<!-- Generator: Adobe Illustrator 16.0.0, SVG Export Plug-In . SVG Version: 6.00 Build 0)  -->
<!DOCTYPE svg PUBLIC "-//W3C//DTD SVG 1.1//EN" "http://www.w3.org/Graphics/SVG/1.1/DTD/svg11.dtd">
<svg version="1.1" id="Lager_1" xmlns="http://www.w3.org/2000/svg" xmlns:xlink="http://www.w3.org/1999/xlink" x="0px" y="0px"
	 viewBox="0 0 92.268 92.268" enable-background="new 0 0 92.268 92.268" xml:space="preserve">
<g>
	<g>
		<path fill="#B0CB0B" d="M89.445,27.183c-1.234-0.008-2.879-0.019-3.408-0.021c-1.771-0.011-2.807,0.251-4.156,1.98
			c-1.18,1.513-2.419,3.346-3.345,4.417c-1.813,2.098-3.371,2.135-6.834,2.118c-12.152-0.061-30.81-0.904-48.175-1.146
			c-8.697-0.122-13.452,2.235-16.615,5.703c-2.675,2.932-3.058,3.115-4.811,5.202c-3.651,4.347-2.577,9.104,3.445,9.141
			c8.272,0.053,17.59,0.039,26.771-0.002c-1.213-1.82-2-3.002-2-3.002c-1.863-2.856-0.87-4.594,2.235-4.594
			c3.104,0,9.869,0,13.966,0c4.098,0,5.091,1.365,5.835,3.353c0.201,0.537,0.711,2.078,1.365,4.112
			c5.168-0.037,9.9-0.072,13.896-0.096c11.233-0.066,14.457-2.105,17.9-9.444c2.309-4.92,4.519-9.711,6.433-14.249
			C92.751,28.75,92.101,27.199,89.445,27.183z"/>
		<path fill="#D2E182" d="M59.184,71.969c-0.849-2.924-3.696-12.036-5.466-17.525c-0.654-2.034-1.164-3.575-1.365-4.112
			c-0.744-1.987-1.738-3.353-5.835-3.353c-4.097,0-10.862,0-13.966,0c-3.104,0-4.098,1.738-2.235,4.594c0,0,0.787,1.182,2,3.002
			c3.756,5.64,11.607,17.424,12.899,19.348c1.833,2.731,3.601,2.732,6.954,2.731c2.218,0.001,2.914,0,4.555,0.001
			C59.456,76.654,60.098,75.118,59.184,71.969z"/>
	</g>
	<path fill="#D2E182" d="M59.287,19.541c0.711-2.539,0.17-3.928-2.562-3.928c-1.641,0-2.337,0-4.555,0c-3.353,0-5.121,0-6.954,2.73
		c-1.094,1.632-6.903,10.347-10.936,16.399c6.945,0.17,13.841,0.39,20.209,0.574C56.267,29.643,58.572,22.095,59.287,19.541z"/>
	<path fill="#1E6E32" d="M31.404,41.45c-0.007,1.113-0.915,2.009-2.028,2.002l-0.891-0.005c-1.113-0.007-2.009-0.915-2.002-2.028
		l0,0c0.007-1.113,0.914-2.009,2.028-2.002l0.891,0.005C30.515,39.43,31.411,40.337,31.404,41.45L31.404,41.45z"/>
	<path fill="#1E6E32" d="M39.816,41.503c-0.007,1.113-0.914,2.009-2.027,2.002L36.897,43.5c-1.113-0.007-2.009-0.915-2.002-2.027
		l0,0c0.007-1.113,0.915-2.009,2.028-2.002l0.892,0.005C38.927,39.482,39.823,40.391,39.816,41.503L39.816,41.503z"/>
	<path fill="#1E6E32" d="M22.992,41.397c-0.007,1.113-0.915,2.009-2.027,2.002l-0.891-0.005c-1.114-0.007-2.009-0.915-2.002-2.028
		l0,0c0.007-1.113,0.915-2.009,2.028-2.002l0.891,0.006C22.103,39.376,23,40.284,22.992,41.397L22.992,41.397z"/>
	<path fill="#1E6E32" d="M48.228,41.557c-0.007,1.113-0.915,2.009-2.028,2.002l-0.892-0.005c-1.113-0.007-2.009-0.915-2.002-2.028
		l0,0c0.007-1.113,0.915-2.009,2.028-2.002l0.892,0.005C47.338,39.536,48.235,40.444,48.228,41.557L48.228,41.557z"/>
	<path fill="#1E6E32" d="M56.64,41.609c-0.008,1.113-0.916,2.009-2.028,2.002l-0.892-0.006c-1.113-0.007-2.009-0.915-2.002-2.027
		l0,0c0.008-1.113,0.914-2.009,2.027-2.002l0.893,0.006C55.75,39.589,56.647,40.497,56.64,41.609L56.64,41.609z"/>
	<path fill="#1E6E32" d="M65.051,41.663c-0.007,1.113-0.915,2.009-2.027,2.002l-0.892-0.005c-1.113-0.007-2.01-0.915-2.002-2.028
		l0,0c0.007-1.113,0.914-2.009,2.027-2.002l0.892,0.005C64.162,39.642,65.058,40.55,65.051,41.663L65.051,41.663z"/>
	<path fill="#1E6E32" d="M73.462,41.715c-0.007,1.113-0.914,2.009-2.027,2.002l-0.891-0.006c-1.113-0.006-2.01-0.915-2.003-2.027
		l0,0c0.007-1.113,0.915-2.009,2.028-2.002l0.891,0.006C72.574,39.695,73.47,40.603,73.462,41.715L73.462,41.715z"/>
	<g>
		<path fill="#1E6E32" d="M14.581,41.344c0.005-0.834-0.498-1.554-1.219-1.864c-0.054-0.023-2.468-0.77-4.186-1.3
			c-0.842,0.625-1.59,1.313-2.264,2.053c-1.433,1.57-2.207,2.352-2.887,3.06l8.528,0.053C13.666,43.354,14.574,42.457,14.581,41.344
			z"/>
	</g>
</g>
</svg>
