<?xml version="1.0" encoding="utf-8"?>
<!-- Generator: Adobe Illustrator 16.0.0, SVG Export Plug-In . SVG Version: 6.00 Build 0)  -->
<!DOCTYPE svg PUBLIC "-//W3C//DTD SVG 1.1//EN" "http://www.w3.org/Graphics/SVG/1.1/DTD/svg11.dtd">
<svg version="1.1" id="Lager_1" xmlns="http://www.w3.org/2000/svg" xmlns:xlink="http://www.w3.org/1999/xlink" x="0px" y="0px"
	 viewBox="0 0 62.362 62.362" enable-background="new 0 0 62.362 62.362" xml:space="preserve">
<g>
	<g>
		<path fill="#B0CB0B" d="M29.14,19.396L20.753,4.983c-0.342-0.587-0.918-1.178-1.564-1.453c-0.711-0.303-1.51-0.255-2.225-0.039
			l-3.117,0.942c-0.713,0.216-1.307,0.699-1.586,1.313c-0.256,0.562-0.236,1.233-0.001,1.874c0,0,2.017,5.463,2.017,12.421
			c0,2.165-0.396,3.983-0.951,5.467c-0.211,0.568-0.446,1.082-0.689,1.553h17.81v-2.826C30.445,22.02,29.858,20.629,29.14,19.396z"
			/>
		<path fill="#B0CB0B" d="M47.931,20.041c0-6.958,2.017-12.421,2.017-12.421c0.493-1.338-0.22-2.772-1.587-3.187l-3.117-0.942
			c-0.717-0.216-1.607-0.228-2.32,0.078c-0.645,0.275-1.128,0.828-1.469,1.414l-8.387,14.413c-0.719,1.233-1.306,2.752-1.306,4.838
			v2.826h17.811c-0.244-0.471-0.479-0.984-0.69-1.553C48.327,24.023,47.931,22.206,47.931,20.041z"/>
	</g>
	<path fill="#009FE4" d="M21.961,45.506h8.484V27.061h-17.81c-0.206,0.395-0.416,0.762-0.627,1.088
		c-0.741,1.154-1.172,1.693-1.449,2.184c-0.271,0.48-0.373,1.123-0.373,1.584c0,0.852,0,2.717,0,4.145v9.461
		c0.061-0.01,0.123-0.016,0.187-0.016h9.131l-0.007,5.566h-9.124c-0.063,0-0.126-0.006-0.187-0.016v4.338
		c0,1.428,1.168,2.596,2.596,2.596h15.068c1.428,0,2.595-1.168,2.595-2.596v-4.322h-8.491L21.961,45.506z"/>
	<path fill="#009FE4" d="M43.017,51.072l-0.006-5.566h8.91c0.033,0,0.066,0.002,0.1,0.004v-9.449c0-1.428,0-2.633,0-3.484
		c0-1.502-0.273-2.121-0.662-2.738c-0.129-0.207-0.42-0.535-1.16-1.689c-0.211-0.326-0.422-0.693-0.626-1.088H31.762v18.445h8.79
		l0.008,5.566h-8.798v4.322c0,1.428,1.167,2.596,2.595,2.596h15.068c1.428,0,2.596-1.168,2.596-2.596v-4.328
		c-0.033,0.004-0.066,0.006-0.1,0.006H43.017z M39.891,41.58c-0.287,0.613-1.017,0.879-1.632,0.594
		c-0.615-0.287-0.881-1.018-0.594-1.633l4.744-10.07c0.287-0.615,1.018-0.879,1.633-0.594c0.615,0.287,0.881,1.018,0.594,1.633
		L39.891,41.58z"/>
	<g>
		<path fill="#B0CB0B" d="M44.636,31.51l-4.745,10.07c-0.287,0.613-1.017,0.879-1.632,0.594c-0.615-0.287-0.881-1.018-0.594-1.633
			l4.744-10.07c0.287-0.615,1.018-0.879,1.633-0.594C44.657,30.164,44.923,30.895,44.636,31.51z"/>
	</g>
	<path fill="#B0CB0B" d="M10.373,45.506c-0.714,0-1.298,0.582-1.298,1.297v2.973c0,0.713,0.584,1.297,1.298,1.297h9.124l0.007-5.566
		H10.373z"/>
	<polygon fill="#B0CB0B" points="21.965,45.506 21.958,51.072 40.56,51.072 40.552,45.506 	"/>
	<path fill="#B0CB0B" d="M51.921,45.506h-8.91l0.006,5.566h8.904c0.715,0,1.298-0.584,1.298-1.297v-2.973
		C53.219,46.088,52.636,45.506,51.921,45.506z"/>
</g>
</svg>
