<?xml version="1.0" encoding="utf-8"?>
<!-- Generator: Adobe Illustrator 16.0.0, SVG Export Plug-In . SVG Version: 6.00 Build 0)  -->
<!DOCTYPE svg PUBLIC "-//W3C//DTD SVG 1.1//EN" "http://www.w3.org/Graphics/SVG/1.1/DTD/svg11.dtd">
<svg version="1.1" id="Lager_1" xmlns="http://www.w3.org/2000/svg" xmlns:xlink="http://www.w3.org/1999/xlink" x="0px" y="0px"
	 viewBox="0 0 85.04 85.04" enable-background="new 0 0 85.04 85.04" xml:space="preserve">
<g>
	<g>
		<path fill="#FFB900" d="M69.643,33.523c3.079-0.636,4.525,2.758,5.197,5.612c0.729,3.095,0.637,7.189,4.643,8.828
			c3.575,1.462,7.645-2.276,3.367-5.824c-4.277-3.549-1.608-7.999-6.37-10.92c-3.255-1.996-6.987-0.869-8.272-0.377
			c0.29,0.398,0.567,0.833,0.828,1.308C69.291,32.609,69.485,33.068,69.643,33.523z"/>
	</g>
	<path fill="#FFB900" d="M14.597,6.878c0,0,0.295,2.043-1.377,2.709c-1.627,0.647-2.139,1.032-3.195,1.98
		c-0.803,0.722-2.301-0.146-2.364-1.236C7.608,9.443,8.088,8.172,9.863,7.591C11.652,7.006,14.597,6.878,14.597,6.878z"/>
	<path fill="#FFB900" d="M19.205,6.879c0,0,1.073-0.084,1.946,0.591c0.874,0.675,1.113,1.112,2.345,1.43
		c1.229,0.318,1.629,0.954,2.145,1.867c0.515,0.913,1.19,0.317,2.105,0.993c0.912,0.675,0.951,1.271,1.23,2.105
		c0.277,0.833,0.794,0.993,1.667,1.549c0.874,0.557,0.716,1.033,1.033,2.065c0.317,1.033,1.389,1.152,1.827,2.224
		c0.437,1.072-0.091,2.07,0.959,2.761c0.976,0.644,1.658,1.957,1.494,3.282c0,0-0.622-0.519-1.47-1.332
		c-0.852-0.817-4.12-4.273-6.066-6.935c-1.946-2.661-4.451-5.755-7.101-7.827C20.034,8.649,19.205,6.879,19.205,6.879z"/>
	<g>
		<path fill="#994916" d="M84.052,74.686c0.912-1.455,0.983-2.942,0.14-4.956c-0.975-2.322-2.833-7.231-3.39-9.531
			c-0.557-2.299-1.364-3.99-3.507-5.638c-2.719-2.093-5.623-4.146-6.442-12.503c-0.399-4.078-0.583-6.244-0.987-7.804
			c-0.176-0.695-0.441-1.398-0.83-2.104c-2.723-4.952-7.128-5.542-12.643-4.952c-6.036,0.647-7.954,1.13-12.705,1.13
			c-3.318,0-5.749-1.022-7.73-2.59c-0.001,0.002-0.001,0.004-0.001,0.007c0,0-0.044-0.037-0.121-0.103
			c-0.443-0.36-0.864-0.745-1.269-1.153c-0.027-0.026-0.052-0.05-0.081-0.076c-0.852-0.817-4.12-4.273-6.066-6.935
			c-1.946-2.661-4.451-5.755-7.101-7.827c-0.248-0.194-0.479-0.417-0.691-0.65c-0.193-0.2-0.36-0.407-0.532-0.654
			c-0.36-0.493-0.623-0.954-0.767-1.224c-0.125-0.207-0.262-0.436-0.417-0.692c-1.284-2.116-2.148-3.602-3.325-3.174
			c-1.014,0.369-0.933,2.173-0.988,3.644c0.026,0.229,0.187,2.063-1.38,2.686c-1.503,0.598-2.054,0.972-2.96,1.772
			c-0.163,0.17-0.309,0.337-0.435,0.497c-2.094,2.639-2.944,4.858-5.279,6.916c-2.464,2.172-5.92,4.34-3.421,8.031
			c1.582,2.334,4.299,1.619,5.921,0.87c2.368-1.093,4.725-1.543,7.321-1.774c1.633-0.145,3.099-0.183,3.92,1.454
			c0.684,1.372,2.144,4.837,3.195,8.125c0.982,3.072,1.869,5.768,2.935,8.393c0.863,2.132,1.841,3.724,2.328,5.576
			c0.575,2.182,0.755,4.366,0.562,6.599c-0.355,4.129-1.607,13.699-2.79,16.022c-1.591,3.13-3.427,4.596-4.288,6.855
			c-0.863,2.257-0.578,2.896,1.402,2.896c2.149,0,2.007-0.022,3.249,0c1.244,0.023,2.486-1.498,2.522-3.317
			c0.035-1.821,1.403-1.885,2.336-3.142s0.842-3.592,1.146-5.804c0.305-2.209,0.961-3.785,2.386-8.475
			c0.138-0.452,0.267-0.872,0.386-1.268c0.068-0.224,0.304-0.191,0.357,0.045c1.005,4.427,2.221,10.656,1.925,12.751
			c-0.492,3.474-2.888,4.089-3.75,6.348c-0.864,2.259-0.579,2.897,1.402,2.897c2.149,0,2.006-0.023,3.249,0
			c1.242,0.023,2.487-1.499,2.521-3.319c0.036-1.822,2.088-2.427,2.563-3.918c0.478-1.493-0.365-3.672-0.795-5.863
			c-0.427-2.188-0.489-2.137-0.975-7.017c-0.299-3.018-0.537-5.453-0.76-7.779c-0.209-2.174,0.32-3.162,2.206-3.528
			c3.826-0.428,10.568-1.131,13.437-1.131c4.728,0,8.112,3.724,10.387,7.364c2.275,3.642,2.993,6.292,3.48,11.753
			c0.422,4.7-1.406,7.612-2.128,9.754c-0.583,1.736-1.172,3.648,0.738,3.648c1.911,0,2.113,0.019,3.633,0.019
			c1.521,0,2.756-1.076,2.756-2.714c0-1.639-0.927-2.962-0.016-4.419c0.91-1.456,1.149-2.217,0.805-4.373
			c-0.375-2.306-0.958-6.946-1.042-9.494c-0.003-0.087-0.006-0.171-0.006-0.252c-0.002-0.102,0.071-0.082,0.108-0.039
			c1.883,2.27,2.991,4.627,4.367,8.683c1.515,4.47-0.454,6.781-1.176,8.924c-0.585,1.735-1.174,3.647,0.737,3.647
			s2.113,0.019,3.633,0.019s2.755-1.076,2.755-2.715C84.068,77.466,83.142,76.142,84.052,74.686z"/>
	</g>
	<circle fill="#FFE57E" cx="10.402" cy="16.77" r="1.623"/>
</g>
</svg>
