<?xml version="1.0" encoding="utf-8"?>
<!-- Generator: Adobe Illustrator 16.0.0, SVG Export Plug-In . SVG Version: 6.00 Build 0)  -->
<!DOCTYPE svg PUBLIC "-//W3C//DTD SVG 1.1//EN" "http://www.w3.org/Graphics/SVG/1.1/DTD/svg11.dtd">
<svg version="1.1" id="Lager_1" xmlns="http://www.w3.org/2000/svg" xmlns:xlink="http://www.w3.org/1999/xlink" x="0px" y="0px"
	 viewBox="0 0 113.386 113.386" enable-background="new 0 0 113.386 113.386"
	 xml:space="preserve">
<g>
	<g>
		<g>
			<path fill="#994916" d="M4.237,69.414c3.217-1.738,2.434-4.572,1.608-8.607c-0.882-4.313-0.124-7.754,1.712-10.279
				c2.069-2.846,5.222-4.261,8.859-4.87c0.305-0.051,0.585-0.104,0.845-0.161c-0.913,1.489-1.632,3.239-2.097,5.29
				c-0.345,1.528-0.488,3.059-0.382,4.551c-0.138,0.57-0.252,1.215-0.353,1.933c-1.013,7.282,5.712,9.429,5.712,14.69
				c0,4.203-2.646,6.301-6.675,6.301c-2.749,0-4.918,0.036-6.238,0.019c-3.426-0.05-5.98-0.434-6.729-2.685
				C-0.483,72.646,2.192,70.517,4.237,69.414z"/>
		</g>
		<g>
			<path fill="#FFB900" d="M17.396,61.98c1.552,1.901,3.383,3.026,5.894,4.371c3.243,1.737,4.658,3.896,4.808,8.937
				c0.068,2.26,0.514,3.305,4.671,4.312c4.155,1.009,10.134,1.874,12.23,2.434c1.738,0.465,2.539,1.229,2.81,2.279
				c0.171,0.666,0.923,1.756,2.073,2.103c1.077,0.324,2.52,1.005,3.69,1.289c2.425,0.588,2.992-0.741,2.316-2.494
				c-0.675-1.752-1.93-3.953-4.27-5.704c-2.997-2.247-10.487-2.703-13.403-4.956c-2.016-1.557-1.377-5.222-0.74-7.214
				c0.146-0.461,0.447-0.364,0.685,0.149c1.624,3.517,5.977,6.648,10.99,7.688c5.612,1.16,12.844-0.15,16.793-2.43
				c2.571-1.485,3.397-2.853,4.764-3.946c1.481-1.187,2.19-1.788,3.555-1.257c1.016,0.394,2.391,1.357,4.565,1.633
				c1.147,0.146,3.59,0.159,5.514,0.406c1.37,0.18,2.462,0.356,2.341,0.753c-0.128,0.415-1.117,0.46-2.443,0.46
				c-2.927,0-1.762-0.071-4.036-0.071c-2.325,0-3.304-0.463-5.149-1.215c-1.343-0.548-2.471-0.282-3.684,1.104
				c-0.608,0.696-2.348,2.061-3.181,3.426c-0.678,1.107,0.612,1.514,1.201,1.749c1.705,0.682,5.106,0.53,8.025,0.53
				c5.182,0,6.869-0.003,13.533-0.003c4.123,0,7.456-0.749,8.031-3.704c0.341-1.745,0.468-3.787-1.302-5.145
				c-1.11-0.851-2.913-1.556-6.143-2.75c-3.096-1.145-5.096-1.895-6.503-2.487c-1.44-0.606-1.376-1.559-0.789-2.333
				c0.817-1.073,1.548-2.251,2.159-4.914c0.304-1.321,0.182-5.265,1.729-7.45c0.736-1.037,2.269-2.676,3.09-3.236
				c0.877-0.599,1.935,0.253,2.761,1.642c1.139,1.916,1.908,2.822,2.803,4.442c1.001,1.815,1.267,2.713,0.864,3.713
				s-0.107,2.052,0.869,3.062c0.71,0.734,2.03,1.629,3.792,1.078c2.656-0.829,3.825-1.718,4.076-5.113
				c0.175-2.317,0.329-3.964,0.491-6.396c0.061-0.709,0.132-1.504,0.204-2.322c-0.371-0.327-0.613-0.809-0.608-1.372
				c0.005-0.792,0.155-2.427,0.647-5.342c0.348-2.049,1.876-2.296,2.559-2.682c0,0,0,0.002,0,0.004
				c0.132-0.063,0.267-0.126,0.409-0.191c1.309-0.61,2.873-0.959,2.999-2.03c0.125-1.072-1.322-0.917-3.764-1.204
				c-0.62-0.072-1.227-0.147-1.832-0.232c0.002,0.003,0.008,0.007,0.012,0.009c0,0-0.04-0.009-0.114-0.022
				c-0.146-0.02-0.294-0.042-0.441-0.065c-0.844-0.101-2.469-0.17-3.568,0.573c-1.548,1.045-2.608,1.448-5.73,0.483
				c-3.125-0.962-3.94-0.558-6.661,0.378c-1.937,0.664-3.842,0.7-6.308,0.505c-3.489-0.28-5.66,0.238-7.781,2.765
				c-2.248,2.675-5.31,3.103-7.874,2.817c-1.806-0.2-2.297-0.898-2.431-1.294c-0.777,0.329-1.422,0.659-2.313,0.932
				c-1.635,0.502-3.463,0.791-5.363,1.016c-3.312,0.39-6.932,0.387-10.702-0.247c-4.521-0.763-9.448-1.776-14.177-1.65
				c-7.638,0.205-16.526,2.845-18.874,13.236C14.274,54.734,14.722,58.703,17.396,61.98z M101.966,42.114
				c0.116-0.987,1.009-1.693,1.997-1.58c0.987,0.118,1.694,1.01,1.578,1.998c-0.114,0.987-1.009,1.696-1.996,1.581
				C102.557,43.997,101.851,43.102,101.966,42.114z"/>
		</g>
	</g>
	<path fill="#994916" d="M101.966,42.114c-0.115,0.988,0.591,1.882,1.579,1.999c0.987,0.115,1.882-0.593,1.996-1.581
		c0.116-0.988-0.591-1.88-1.578-1.998C102.975,40.421,102.082,41.127,101.966,42.114"/>
	<path fill="#994916" d="M109.68,35.003c-0.683,0.386-2.211,0.633-2.559,2.682c-0.492,2.915-0.643,4.55-0.647,5.342
		c-0.01,1.159,1.021,1.984,2.109,1.783c1.064-0.196,1.978-1.258,1.755-3.24C110.082,39.291,109.68,35.003,109.68,35.003"/>
	<path fill="#994916" d="M66.863,36.873c0.358-0.367,0.859-0.801,1.416-1.259c1.093-0.903,2.422-1.915,3.498-2.808
		c1.806-1.493,4.396-3.427,7.994-5.125c2.973-1.405,6.605-2.237,10.097-2.132c3.486,0.106,7.291,0.546,10.468,1.917
		c2.739,1.181,5.761,2.956,7.168,3.892c0,0-2.578-0.557-4.124,0.485c-1.548,1.045-2.608,1.448-5.73,0.483
		c-3.125-0.962-3.94-0.558-6.661,0.378c-1.937,0.664-3.842,0.7-6.308,0.505c-3.489-0.28-5.66,0.238-7.781,2.765
		c-2.248,2.675-5.31,3.103-7.874,2.817c-1.806-0.2-2.297-0.898-2.431-1.294C66.595,37.5,66.504,37.24,66.863,36.873z"/>
</g>
</svg>
