<?xml version="1.0" encoding="utf-8"?>
<!-- Generator: Adobe Illustrator 16.0.0, SVG Export Plug-In . SVG Version: 6.00 Build 0)  -->
<!DOCTYPE svg PUBLIC "-//W3C//DTD SVG 1.1//EN" "http://www.w3.org/Graphics/SVG/1.1/DTD/svg11.dtd">
<svg version="1.1" id="Lager_1" xmlns="http://www.w3.org/2000/svg" xmlns:xlink="http://www.w3.org/1999/xlink" x="0px" y="0px"
	 viewBox="0 0 85.04 85.039" enable-background="new 0 0 85.04 85.039" xml:space="preserve">
<g>
	<g>
		<path fill="#994916" d="M69.54,33.557c3.065-0.633,4.51,2.748,5.178,5.592c0.724,3.082,0.635,7.162,4.623,8.793
			c3.562,1.458,7.615-2.265,3.355-5.801c-4.262-3.535-1.603-7.968-6.347-10.879c-3.241-1.989-6.961-0.865-8.241-0.375
			c0.291,0.396,0.566,0.829,0.826,1.302C69.186,32.647,69.381,33.104,69.54,33.557z"/>
	</g>
	<path fill="#994916" d="M14.704,7.015c0,0,0.294,2.036-1.373,2.698c-1.621,0.646-2.129,1.028-3.182,1.973
		c-0.8,0.718-2.292-0.145-2.355-1.231C7.742,9.57,8.22,8.304,9.988,7.725C11.771,7.142,14.704,7.015,14.704,7.015z"/>
	<path fill="#994916" d="M19.295,7.016c0,0,1.069-0.084,1.938,0.589c0.871,0.672,1.109,1.108,2.335,1.424
		c1.225,0.317,1.622,0.95,2.138,1.86c0.512,0.91,1.186,0.316,2.096,0.989c0.91,0.672,0.949,1.266,1.226,2.097
		c0.277,0.83,0.791,0.989,1.661,1.543c0.871,0.555,0.712,1.029,1.029,2.057c0.316,1.029,1.385,1.147,1.819,2.216
		c0.436,1.068-0.091,2.063,0.955,2.75c0.973,0.641,1.654,1.949,1.488,3.269c0,0-0.619-0.517-1.464-1.328
		c-0.848-0.813-4.104-4.256-6.043-6.908c-1.938-2.65-4.433-5.732-7.072-7.796C20.12,8.779,19.295,7.016,19.295,7.016z"/>
	<g>
		<path fill="#FFB900" d="M83.893,74.563c0.906-1.449,0.98-2.93,0.14-4.937c-0.972-2.313-2.823-7.205-3.378-9.494
			c-0.553-2.292-1.358-3.976-3.492-5.617c-2.709-2.085-5.603-4.131-6.419-12.453c-0.397-4.063-0.58-6.222-0.981-7.776
			c-0.177-0.693-0.441-1.393-0.828-2.097c-2.711-4.932-7.101-5.521-12.594-4.932c-6.015,0.645-7.925,1.125-12.657,1.125
			c-3.306,0-5.726-1.019-7.7-2.58c-0.002,0.002-0.002,0.004-0.002,0.007c0,0-0.043-0.036-0.119-0.102
			C35.42,25.35,35,24.966,34.598,24.559c-0.027-0.026-0.053-0.05-0.081-0.077c-0.848-0.813-4.104-4.256-6.043-6.908
			c-1.938-2.65-4.433-5.732-7.072-7.796c-0.248-0.193-0.479-0.416-0.69-0.648c-0.192-0.199-0.357-0.405-0.53-0.651
			c-0.358-0.491-0.62-0.95-0.763-1.219c-0.123-0.206-0.26-0.434-0.416-0.689c-1.278-2.108-2.14-3.589-3.311-3.163
			c-1.01,0.368-0.928,2.165-0.984,3.63c0.026,0.228,0.186,2.055-1.376,2.675c-1.497,0.596-2.044,0.969-2.949,1.766
			c-0.16,0.17-0.308,0.336-0.433,0.495c-2.085,2.628-2.932,4.839-5.258,6.889c-2.454,2.164-5.898,4.323-3.409,8.001
			c1.576,2.326,4.283,1.612,5.9,0.866c2.357-1.089,4.706-1.537,7.292-1.767c1.626-0.144,3.087-0.183,3.905,1.448
			c0.682,1.367,2.136,4.818,3.184,8.094c0.978,3.06,1.86,5.745,2.921,8.36c0.86,2.123,1.834,3.711,2.32,5.555
			c0.573,2.172,0.751,4.35,0.561,6.574c-0.354,4.113-1.603,13.646-2.781,15.961c-1.584,3.116-3.412,4.578-4.271,6.829
			c-0.859,2.247-0.577,2.885,1.399,2.885c2.14,0,1.997-0.024,3.235,0c1.238,0.023,2.476-1.494,2.511-3.305
			c0.035-1.815,1.397-1.879,2.326-3.13c0.932-1.253,0.84-3.579,1.144-5.781c0.303-2.202,0.958-3.771,2.378-8.442
			c0.137-0.451,0.264-0.869,0.383-1.264c0.069-0.223,0.304-0.189,0.356,0.047c1.001,4.407,2.212,10.614,1.917,12.699
			c-0.49,3.462-2.876,4.075-3.735,6.326c-0.86,2.249-0.576,2.884,1.397,2.884c2.142,0,1.998-0.023,3.236,0
			c1.238,0.024,2.478-1.493,2.513-3.306c0.035-1.813,2.08-2.418,2.554-3.903c0.475-1.487-0.366-3.656-0.794-5.841
			c-0.424-2.18-0.487-2.129-0.97-6.99c-0.299-3.005-0.536-5.432-0.758-7.749c-0.208-2.165,0.319-3.147,2.197-3.515
			c3.812-0.426,10.53-1.126,13.385-1.126c4.71,0,8.08,3.71,10.347,7.336c2.268,3.628,2.981,6.268,3.469,11.708
			c0.419,4.682-1.4,7.583-2.12,9.717c-0.582,1.729-1.169,3.635,0.734,3.635c1.904,0,2.105,0.018,3.62,0.018
			c1.514,0,2.743-1.073,2.743-2.704c0-1.632-0.922-2.949-0.015-4.4c0.908-1.452,1.146-2.209,0.801-4.357
			c-0.371-2.296-0.952-6.918-1.036-9.458c-0.003-0.086-0.008-0.17-0.008-0.251c0-0.101,0.072-0.082,0.109-0.038
			c1.876,2.261,2.981,4.609,4.35,8.648c1.509,4.453-0.451,6.755-1.17,8.89c-0.583,1.73-1.171,3.634,0.736,3.634
			c1.901,0,2.104,0.02,3.616,0.02c1.515,0,2.744-1.073,2.744-2.705S82.986,76.015,83.893,74.563z"/>
	</g>
	<circle fill="#FFE57E" cx="10.526" cy="16.869" r="1.616"/>
</g>
</svg>
