<?xml version="1.0" encoding="utf-8"?>
<!-- Generator: Adobe Illustrator 16.0.0, SVG Export Plug-In . SVG Version: 6.00 Build 0)  -->
<!DOCTYPE svg PUBLIC "-//W3C//DTD SVG 1.1//EN" "http://www.w3.org/Graphics/SVG/1.1/DTD/svg11.dtd">
<svg version="1.1" id="Lager_1" xmlns="http://www.w3.org/2000/svg" xmlns:xlink="http://www.w3.org/1999/xlink" x="0px" y="0px"
	 viewBox="0 0 70.866 70.866" enable-background="new 0 0 70.866 70.866" xml:space="preserve">
<g>
	<path fill="#B0CB0B" d="M64.687,17.956H47.87c-0.387,0-0.703-0.316-0.703-0.704v-3.995c0-0.389-0.025-1.021-0.057-1.408
		c0,0-0.031-0.402-0.191-0.913c-0.545-1.731-1.943-3.089-3.699-3.576c-0.461-0.129-0.74-0.148-0.74-0.148
		c-0.387-0.025-1.02-0.049-1.408-0.049H29.794c-0.389,0-1.021,0.026-1.408,0.056c0,0-0.4,0.032-0.91,0.19
		c-1.929,0.607-3.395,2.271-3.713,4.309c-0.042,0.271-0.042,0.271-0.042,0.271c-0.013,0.31-0.022,0.88-0.022,1.269v3.995
		c0,0.388-0.317,0.704-0.704,0.704H6.162c-1.554,0-2.353,0.693-2.353,2.453v41.074c0,1.383,0.83,2.221,2.187,2.221h58.898
		c1.414,0,2.162-0.867,2.162-2.285V20.367C67.056,18.778,66.308,17.956,64.687,17.956z M27.429,12.718
		c0-1.157,0.701-1.824,1.895-1.824h12.085c1.307,0,2.027,0.684,2.027,1.907v4.451c0,0.388-0.318,0.704-0.705,0.704H28.134
		c-0.388,0-0.705-0.316-0.705-0.704V12.718z"/>
	<path fill="#009FE4" d="M67.056,28.055h-9.9v-1.541c0-1.822-1.479-3.299-3.301-3.299c-1.82,0-3.297,1.477-3.297,3.299v1.541h-30.25
		v-1.541c0-1.822-1.477-3.299-3.299-3.299c-1.82,0-3.299,1.477-3.299,3.299v1.541H3.809v1.716h9.901v1.54
		c0,1.824,1.479,3.3,3.299,3.3c1.822,0,3.299-1.476,3.299-3.3v-1.54h30.25v1.54c0,1.824,1.477,3.3,3.297,3.3
		c1.822,0,3.301-1.476,3.301-3.3v-1.54h9.9V28.055z"/>
	<path fill="#FFFFFF" d="M39.359,40.667c-0.346,0-0.628-0.281-0.628-0.629V34.7c0-0.346-0.282-0.627-0.628-0.627h-5.34
		c-0.346,0-0.629,0.281-0.629,0.627v5.337c0,0.348-0.283,0.629-0.627,0.629h-5.34c-0.346,0-0.628,0.283-0.628,0.629v5.34
		c0,0.344,0.282,0.627,0.628,0.627h5.34c0.344,0,0.627,0.283,0.627,0.629v5.338c0,0.348,0.283,0.629,0.629,0.629h5.34
		c0.346,0,0.628-0.281,0.628-0.629v-5.338c0-0.346,0.282-0.629,0.628-0.629h5.339c0.346,0,0.627-0.283,0.627-0.627v-5.34
		c0-0.346-0.281-0.629-0.627-0.629H39.359z"/>
</g>
</svg>
