<?xml version="1.0" encoding="utf-8"?>
<!-- Generator: Adobe Illustrator 16.0.0, SVG Export Plug-In . SVG Version: 6.00 Build 0)  -->
<!DOCTYPE svg PUBLIC "-//W3C//DTD SVG 1.1//EN" "http://www.w3.org/Graphics/SVG/1.1/DTD/svg11.dtd">
<svg version="1.1" id="Lager_1" xmlns="http://www.w3.org/2000/svg" xmlns:xlink="http://www.w3.org/1999/xlink" x="0px" y="0px"
	 viewBox="0 0 500 500" enable-background="new 0 0 500 500" xml:space="preserve">
<g>
	<path fill="#009FE4" d="M456.396,126.69H337.765c-2.745,0-4.975-2.229-4.975-4.967V93.536c0-2.745-0.177-7.204-0.388-9.934
		c0,0-0.233-2.836-1.362-6.442c-3.845-12.213-13.709-21.794-26.099-25.23c-3.245-0.917-5.214-1.059-5.214-1.059
		c-2.745-0.176-7.204-0.346-9.948-0.346h-79.565c-2.745,0-7.204,0.184-9.935,0.395c0,0-2.822,0.226-6.406,1.341
		c-13.625,4.283-23.961,16.023-26.211,30.402c-0.296,1.912-0.296,1.912-0.296,1.912c-0.092,2.187-0.155,6.209-0.155,8.954v28.187
		c0,2.737-2.229,4.967-4.96,4.967H43.483c-10.971,0-16.609,4.89-16.609,17.308v289.793c0,9.758,5.856,15.685,15.431,15.685h415.566
		c9.963,0,15.254-6.131,15.254-16.122V143.701C473.125,132.489,467.834,126.69,456.396,126.69z M193.527,89.726
		c0-8.163,4.96-12.869,13.37-12.869h85.267c9.222,0,14.302,4.826,14.302,13.455v31.404c0,2.737-2.243,4.967-4.974,4.967H198.501
		c-2.73,0-4.974-2.229-4.974-4.967V89.726z"/>
	<path fill="#FFB900" d="M473.125,197.937h-69.864v-10.873c0-12.855-10.421-23.276-23.276-23.276
		c-12.854,0-23.276,10.421-23.276,23.276v10.873H143.292v-10.873c0-12.855-10.428-23.276-23.283-23.276
		c-12.841,0-23.276,10.421-23.276,23.276v10.873h-69.85v12.107h69.85v10.866c0,12.869,10.435,23.283,23.276,23.283
		c12.855,0,23.283-10.414,23.283-23.283v-10.866h213.424v10.866c0,12.869,10.421,23.283,23.276,23.283
		c12.854,0,23.276-10.414,23.276-23.283v-10.866h69.864v-12.107H473.125z"/>
	<path fill="#FFFFFF" d="M277.693,286.929c-2.441,0-4.424-1.997-4.424-4.438v-37.662c0-2.441-1.997-4.424-4.438-4.424h-37.677
		c-2.441,0-4.431,1.983-4.431,4.424v37.662c0,2.441-1.997,4.438-4.431,4.438h-37.67c-2.441,0-4.431,1.983-4.431,4.424v37.677
		c0,2.428,1.989,4.438,4.431,4.438h37.67c2.434,0,4.431,1.983,4.431,4.424v37.663c0,2.456,1.99,4.438,4.431,4.438h37.677
		c2.44,0,4.438-1.982,4.438-4.438v-37.663c0-2.44,1.982-4.424,4.424-4.424h37.67c2.44,0,4.438-2.01,4.438-4.438v-37.677
		c0-2.44-1.997-4.424-4.438-4.424H277.693z"/>
</g>
</svg>
