<?xml version="1.0" encoding="utf-8"?>
<!-- Generator: Adobe Illustrator 16.0.0, SVG Export Plug-In . SVG Version: 6.00 Build 0)  -->
<!DOCTYPE svg PUBLIC "-//W3C//DTD SVG 1.1//EN" "http://www.w3.org/Graphics/SVG/1.1/DTD/svg11.dtd">
<svg version="1.1" id="Lager_1" xmlns="http://www.w3.org/2000/svg" xmlns:xlink="http://www.w3.org/1999/xlink" x="0px" y="0px"
	 viewBox="0 0 70.866 70.866" enable-background="new 0 0 70.866 70.866" xml:space="preserve">
<g>
	<path fill="#1E6E32" d="M64.686,17.956H47.872c-0.389,0-0.705-0.316-0.705-0.704v-3.995c0-0.389-0.025-1.021-0.055-1.408
		c0,0-0.033-0.402-0.193-0.913c-0.545-1.731-1.943-3.089-3.699-3.576C42.76,7.23,42.481,7.21,42.481,7.21
		c-0.389-0.025-1.021-0.049-1.41-0.049H29.794c-0.389,0-1.021,0.026-1.408,0.056c0,0-0.4,0.032-0.908,0.19
		c-1.931,0.607-3.396,2.271-3.715,4.309c-0.042,0.271-0.042,0.271-0.042,0.271c-0.013,0.31-0.022,0.88-0.022,1.269v3.995
		c0,0.388-0.316,0.704-0.703,0.704H6.163c-1.555,0-2.354,0.693-2.354,2.453v41.073c0,1.383,0.83,2.223,2.187,2.223h58.899
		c1.412,0,2.162-0.869,2.162-2.285V20.367C67.057,18.778,66.307,17.956,64.686,17.956z M27.429,12.717
		c0-1.157,0.703-1.824,1.895-1.824h12.085c1.307,0,2.027,0.684,2.027,1.907v4.451c0,0.388-0.318,0.704-0.705,0.704H28.134
		c-0.387,0-0.705-0.316-0.705-0.704V12.717z"/>
	<path fill="#FFB900" d="M67.057,28.054h-9.902v-1.541c0-1.822-1.477-3.299-3.299-3.299s-3.299,1.477-3.299,3.299v1.541H20.309
		v-1.541c0-1.822-1.478-3.299-3.3-3.299c-1.82,0-3.299,1.477-3.299,3.299v1.541h-9.9v1.716h9.9v1.54c0,1.824,1.479,3.3,3.299,3.3
		c1.822,0,3.3-1.476,3.3-3.3v-1.54h30.249v1.54c0,1.824,1.477,3.3,3.299,3.3s3.299-1.476,3.299-3.3v-1.54h9.902V28.054z"/>
	<path fill="#FFFFFF" d="M39.358,40.667c-0.346,0-0.627-0.283-0.627-0.629V34.7c0-0.346-0.283-0.627-0.629-0.627h-5.34
		c-0.346,0-0.628,0.281-0.628,0.627v5.338c0,0.346-0.283,0.629-0.628,0.629h-5.339c-0.346,0-0.628,0.281-0.628,0.627v5.34
		c0,0.344,0.282,0.629,0.628,0.629h5.339c0.345,0,0.628,0.281,0.628,0.627v5.338c0,0.348,0.282,0.629,0.628,0.629h5.34
		c0.346,0,0.629-0.281,0.629-0.629V47.89c0-0.346,0.281-0.627,0.627-0.627h5.339c0.346,0,0.629-0.285,0.629-0.629v-5.34
		c0-0.346-0.283-0.627-0.629-0.627H39.358z"/>
</g>
</svg>
