<?xml version="1.0" encoding="utf-8"?>
<!-- Generator: Adobe Illustrator 16.0.0, SVG Export Plug-In . SVG Version: 6.00 Build 0)  -->
<!DOCTYPE svg PUBLIC "-//W3C//DTD SVG 1.1//EN" "http://www.w3.org/Graphics/SVG/1.1/DTD/svg11.dtd">
<svg version="1.1" id="Lager_1" xmlns="http://www.w3.org/2000/svg" xmlns:xlink="http://www.w3.org/1999/xlink" x="0px" y="0px"
	 viewBox="0 0 65.197 65.197" enable-background="new 0 0 65.197 65.197" xml:space="preserve">
<g>
	<g>
		<path fill="#FFFFFF" d="M33.671,4.183c0.115,0.015,0.348,0.052,0.473,0.075c0.885,0.162,1.975,0.54,2.629,0.932V5.19l2.615,1.569
			l1.76,1.056c0.611,0.367,0.871,1.271,0.57,1.973l-1.744,4.05c-0.34,0.791-1.336,1.615-2.176,1.802l-8.582,1.899
			c-0.195,0.044-0.419,0.066-0.668,0.066c-0.823,0-1.749-0.238-2.302-0.591l-5.109-3.268c-0.65-0.415-0.941-1.364-0.639-2.075
			l1.861-4.341c0-0.001,0-0.001,0-0.001c0.335-0.779,1.275-1.657,2.089-1.967c-0.586,0.175-1.166,0.361-1.731,0.579
			c-1.031,0.4-1.596,0.688-1.576,0.68c0.219-0.095,0.352-0.109,0.41-0.109l0,0c0.01,0,0.017,0.002,0.023,0.002
			c0.004,0.056-0.004,0.19-0.107,0.434l-1.86,4.342c-0.368,0.858-1.276,2.102-1.982,2.713l-3.733,3.23
			c-0.762,0.661-2.003,1.727-2.758,2.37c-0.646,0.548-1.95,0.968-2.842,0.886l-0.209-0.02c0,0-0.001,0-0.002,0
			c-0.32-0.031-0.559-0.157-0.67-0.356c-0.111-0.2-0.094-0.47,0.051-0.759c0.004-0.01-0.111,0.19-0.209,0.388
			c-0.225,0.455-0.35,0.662-0.518,1.035c-0.193,0.423-0.39,0.863-0.561,1.299c-0.052,0.13-0.215,0.522-0.133,0.381
			c0.322-0.616,1.191-1.095,1.949-1.021c0,0,0,0.001,0.001,0.001l0.208,0.02l0,0l0.219,0.021c0.801,0.074,1.63,0.801,1.811,1.585
			l1.695,7.399c0.207,0.902,0.16,2.416-0.103,3.305l-1.915,6.48c-0.197,0.668-0.697,1.283-1.623,1.188
			c-0.684-0.068-1.307-0.158-1.307-0.158c-1.159-0.193-1.607-0.699-1.826-1.281c0.242,0.9,0.526,1.783,0.853,2.645
			c-0.019-0.094-0.009-0.17,0.032-0.227c0.065-0.092,0.25-0.191,0.573-0.191c0.077,0,0.157,0.006,0.241,0.018l1.119,0.146
			c0.889,0.119,2.14,0.785,2.732,1.457l5.695,6.455c0.594,0.672,1.094,1.996,1.094,2.891v2.516c0,0.551-0.207,0.783-0.529,0.602
			c0,0,0.161,0.143,0.58,0.402c0.559,0.348,1.127,0.68,1.709,0.988c-0.689-0.434-0.789-1.123-0.789-1.992v-2.516
			c0-1.145,0.637-1.467,1.391-1.549l7.725-0.828c0.137-0.014,0.291-0.021,0.459-0.021l0,0c0.922,0,2.095,0.227,2.789,0.539
			c0,0,5.635,2.525,6.941,3.115c1.309,0.588,1.389,1.318,1.389,2.143v2.221c0.006,1.123-0.449,1.504-0.994,1.67
			c1.035-0.205,2.053-0.467,3.045-0.783c-0.033,0.012-0.066,0.021-0.094,0.029c-0.764,0.234-0.986-0.203-0.986-0.916v-2.221
			c0.004-1.281,0.738-1.898,1.488-2.553l7.186-6.256c0.705-0.615,2.061-1.342,2.963-1.594l3.594-0.992
			c0.109-0.029,0.219-0.045,0.322-0.045l0,0c0.479,0,0.799,0.322,0.846,0.826c0,0.061,0.145,0.623-0.133,1.604
			c-0.137,0.477-0.459,1.096-0.742,1.572L55.64,49.24c0.758-1.047,1.443-2.146,2.055-3.291c-0.135,0.014-0.209-0.223-0.174-0.623
			c0.076-0.887,0.232-1.947,0.438-2.637l2.734-9.219c0.137-0.459,0.309-0.189,0.309,0.146c0.012-0.338,0.02-0.678,0.02-1.018
			c0-0.744-0.027-1.479-0.084-2.207c0.008,0.588-0.168,0.77-0.68-0.225l-2.596-5.4c-0.416-0.865-0.912-2.393-1.082-3.336
			l-0.742-4.075c0,0-0.111-0.583-0.148-0.815c-0.037-0.231,0.072-0.419,0.332-0.045c-0.059-0.085-0.117-0.169-0.176-0.253
			c-1.537-2.179-3.371-4.132-5.445-5.8l-0.092-0.073c0.164,0.13,0.355,0.5-0.055,0.337c-0.41-0.165-0.873-0.368-0.873-0.368
			l-4.605-1.821c-0.002,0-0.002,0-0.002,0c-0.922-0.364-2.359-1.074-3.207-1.584c0,0-2.422-1.415-2.92-1.76
			c-0.328-0.229-0.078-0.281,0.363-0.23c0.035,0.005,0.072,0.01,0.109,0.014c0,0-0.037-0.015-0.201-0.053
			c-0.688-0.157-2.906-0.61-4.695-0.691C34.07,4.205,33.812,4.183,33.671,4.183z M40.941,14.107l1.771-4.104
			c0.215-0.508,0.643-0.679,1.203-0.679c0.174,0,0.342,0.031,0.502,0.095c0,0,0,0,0,0.001l6.975,2.757
			c0.887,0.351,1.762,0.853,2.404,1.604c0.156,0.183,0.604,1.099,0.789,2.12l1.037,5.702c0.133,0.729-0.334,1.45-1.047,1.636
			c-0.014,0.002-0.029,0.004-0.043,0.007l-4.838,1.071c-0.072,0.017-0.146,0.036-0.219,0.059c-0.064,0.006-0.127,0.011-0.195,0.011
			c-0.766,0-1.639-0.369-2.074-0.876l-0.025-0.029V23.48l-5.729-6.667c0-0.001,0-0.001-0.002-0.001l-0.111-0.132
			C40.796,16.051,40.615,14.873,40.941,14.107z M29.425,18.497c0,0,7.236-1.527,8.777-1.854c1.096-0.233,2.07,0.288,2.512,0.802
			c0,0,4.756,5.516,5.73,6.669c0.975,1.153,0.805,1.87,0.551,2.68l-2.529,8.037c-0.252,0.801-1.16,1.619-1.982,1.785l-9.043,1.828
			c-0.123,0.023-0.26,0.037-0.402,0.037c-0.791,0-1.697-0.375-2.156-0.891l-5.568-6.256c-0.562-0.631-0.814-1.84-0.553-2.643
			l2.721-8.348C27.718,19.62,28.338,18.802,29.425,18.497z M11.148,22.698c-0.188-0.799,0.145-1.931,0.709-2.42l6.402-5.542
			c0.328-0.283,0.809-0.446,1.319-0.446l0,0c0.389,0,0.757,0.099,1.034,0.275l5.107,3.266c0.002,0.001,0.002,0.001,0.002,0.001
			l0.059,0.038c0.667,0.426,1.022,1.421,0.777,2.174l-2.789,8.561c-0.254,0.779-1.16,1.498-1.978,1.568l-6.985,0.604l-0.325,0.029
			c-0.04,0.002-0.081,0.006-0.12,0.006c-0.738,0-1.446-0.555-1.611-1.262L11.148,22.698z M27.473,49.845
			c-1.184,0.156-6.756,0.73-7.941,0.838c-1.185,0.109-1.896-0.451-2.406-1.029l-5.85-6.633c-0.563-0.637-0.715-1.506-0.438-2.5
			c0.276-0.992,2.129-7.205,2.129-7.205c0.231-0.781,1.112-1.5,1.925-1.57c0,0,5.674-0.488,6.985-0.604
			c1.312-0.117,2.11,0.184,2.714,0.84c0.602,0.656,5.142,5.721,5.919,6.652c0.777,0.93,0.885,1.691,0.648,2.699
			c-0.236,1.004-1.813,6.9-1.813,6.9C29.139,49.021,28.656,49.689,27.473,49.845z M47.685,47.451l-6.711,5.85
			c-0.387,0.338-1.02,0.549-1.648,0.549c-0.334,0-0.641-0.059-0.891-0.172l-7.213-3.236c-0.705-0.316-1.133-1.213-0.938-1.959
			l1.811-6.902c0.002,0,0.002,0,0.002,0l0.1-0.381c0.211-0.805,1.078-1.631,1.891-1.803l8.596-1.814
			c0.104-0.02,0.213-0.031,0.324-0.031l0,0c0.721,0,1.465,0.436,1.768,1.035l3.229,6.367c0,0,0,0,0,0.002l0.123,0.24
			C48.482,45.9,48.281,46.933,47.685,47.451z M55.095,44.255c0,0-2.352,0.674-4.012,1.104c-1.289,0.334-1.93-0.283-2.213-0.844
			l-3.229-6.369c-0.402-0.791-0.516-2.176-0.25-3.021l2.529-8.039c0.234-0.746,1.035-1.512,1.805-1.764
			c0.07-0.01,0.139-0.018,0.205-0.033l4.814-1.087c0.016-0.004,0.027-0.009,0.043-0.012c0.092-0.018,0.188-0.03,0.287-0.03
			c0.705,0,1.424,0.433,1.711,1.028l2.596,5.402c0.385,0.805,0.498,2.207,0.244,3.063c0,0-2.127,7.273-2.576,8.686
			C56.599,43.75,55.914,44.031,55.095,44.255z"/>
	</g>
	<g>
		<path fill="#D2E182" d="M60.257,30.167c0.602,1.168,0.74,0.717,0.66-0.119l-0.086-0.738c-0.527-4.58-2.191-9.01-4.811-12.813
			c-0.26-0.377-0.369-0.189-0.332,0.043s0.148,0.815,0.148,0.815l0.742,4.075c0.17,0.943,0.666,2.472,1.082,3.336L60.257,30.167z"/>
		<path fill="#D2E182" d="M50.308,10.369c-3.092-2.464-6.715-4.283-10.52-5.275c-0.811-0.21-1.641-0.267-1.143,0.079
			c0.498,0.345,2.92,1.76,2.92,1.76c0.848,0.51,2.285,1.22,3.207,1.584c0,0,0,0,0.002,0l4.605,1.821c0,0,0.463,0.203,0.873,0.368
			C50.664,10.869,50.472,10.499,50.308,10.369z"/>
		<path fill="#D2E182" d="M55.677,45.146L55.677,45.146c-0.104,0-0.213,0.016-0.322,0.045l-3.594,0.992
			c-0.902,0.252-2.258,0.979-2.963,1.594l-7.186,6.256c-0.75,0.654-1.484,1.271-1.488,2.553v2.221c0,0.713,0.223,1.15,0.986,0.916
			c0.383-0.117,1.197-0.396,1.785-0.627c4.852-1.891,9.146-5.125,12.32-9.285c0.236-0.309,0.953-1.457,1.174-2.234
			c0.277-0.98,0.133-1.543,0.133-1.604C56.476,45.468,56.156,45.146,55.677,45.146z"/>
		<path fill="#D2E182" d="M25.314,31.335l5.568,6.256c0.459,0.516,1.365,0.891,2.156,0.891c0.143,0,0.279-0.014,0.402-0.037
			l9.043-1.828c0.822-0.166,1.73-0.984,1.982-1.785l2.529-8.037c0.254-0.811,0.424-1.527-0.551-2.68
			c-0.975-1.153-5.73-6.669-5.73-6.669c-0.441-0.514-1.416-1.035-2.512-0.802c-1.541,0.326-8.777,1.854-8.777,1.854
			c-1.087,0.305-1.708,1.123-1.943,1.848l-2.721,8.348C24.5,29.496,24.753,30.705,25.314,31.335z"/>
		<path fill="#D2E182" d="M9.906,40.246l1.915-6.48c0.263-0.889,0.31-2.402,0.103-3.305l-1.695-7.399
			c-0.181-0.784-1.01-1.511-1.811-1.585l-0.219-0.021l0,0l-0.208-0.02c-0.001,0-0.001-0.001-0.001-0.001
			c-0.791-0.076-1.709,0.447-1.995,1.102l-0.275,0.8c-1.024,2.973-1.544,6.088-1.544,9.262c0,2.162,0.245,4.32,0.729,6.414
			l0.188,0.811c0.197,0.652,0.614,1.24,1.885,1.451c0,0,0.623,0.09,1.307,0.158C9.209,41.529,9.709,40.914,9.906,40.246z"/>
		<path fill="#D2E182" d="M55.076,24.159c-0.1,0-0.195,0.013-0.287,0.03c-0.016,0.003-0.027,0.008-0.043,0.012l-4.814,1.087
			c-0.066,0.016-0.135,0.023-0.205,0.033c-0.77,0.252-1.57,1.018-1.805,1.764l-2.529,8.039c-0.266,0.846-0.152,2.23,0.25,3.021
			l3.229,6.369c0.283,0.561,0.924,1.178,2.213,0.844c1.66-0.43,4.012-1.104,4.012-1.104c0.818-0.225,1.504-0.506,1.955-1.918
			c0.449-1.412,2.576-8.686,2.576-8.686c0.254-0.855,0.141-2.258-0.244-3.063l-2.596-5.402C56.5,24.592,55.781,24.159,55.076,24.159
			z"/>
		<path fill="#1E6E32" d="M58.007,45.601c0.148-0.287,0.844-1.719,1.416-3.355c0.609-1.744,1.063-3.908,1.293-5.465
			c0.152-1.031,0.248-2.08,0.285-3.131c0.014-0.352-0.168-0.654-0.309-0.18l-2.734,9.219c-0.205,0.689-0.361,1.75-0.438,2.637
			C57.462,45.98,57.701,46.197,58.007,45.601z"/>
		<path fill="#D2E182" d="M21.137,13.747l5.109,3.268c0.553,0.353,1.479,0.591,2.302,0.591c0.249,0,0.474-0.022,0.668-0.066
			l8.582-1.899c0.84-0.187,1.836-1.011,2.176-1.802l1.744-4.05c0.301-0.702,0.041-1.605-0.57-1.973l-1.76-1.056L36.773,5.19V5.189
			c-0.801-0.479-2.26-0.942-3.189-1.012l0,0c-0.012,0-0.166-0.002-0.984-0.002c-2.283,0-4.555,0.271-6.751,0.807
			c-1.007,0.245-1.315,0.347-1.318,0.347c-0.83,0.278-1.823,1.195-2.17,2.001c0,0,0,0,0,0.001l-1.861,4.341
			C20.195,12.383,20.486,13.332,21.137,13.747z"/>
		<path fill="#1E6E32" d="M42.712,10.004l-1.771,4.104c-0.326,0.766-0.145,1.943,0.398,2.573l0.111,0.132
			c0.002,0,0.002,0,0.002,0.001l5.729,6.667v0.001l0.025,0.029c0.436,0.507,1.309,0.876,2.074,0.876
			c0.068,0,0.131-0.005,0.195-0.011c0.072-0.022,0.146-0.042,0.219-0.059l4.838-1.071c0.014-0.003,0.029-0.005,0.043-0.007
			c0.713-0.186,1.18-0.907,1.047-1.636l-1.037-5.702c-0.186-1.021-0.633-1.938-0.789-2.12c-0.643-0.751-1.518-1.253-2.404-1.604
			l-6.975-2.757c0-0.001,0-0.001,0-0.001c-0.16-0.063-0.328-0.095-0.502-0.095C43.355,9.325,42.927,9.496,42.712,10.004z"/>
		<path fill="#D2E182" d="M27.473,49.845c1.184-0.156,1.666-0.824,1.873-1.611c0,0,1.576-5.896,1.813-6.9
			c0.236-1.008,0.129-1.77-0.648-2.699c-0.777-0.932-5.318-5.996-5.919-6.652c-0.604-0.656-1.402-0.957-2.714-0.84
			c-1.312,0.115-6.985,0.604-6.985,0.604c-0.813,0.07-1.693,0.789-1.925,1.57c0,0-1.853,6.213-2.129,7.205
			c-0.276,0.994-0.124,1.863,0.438,2.5l5.85,6.633c0.51,0.578,1.222,1.139,2.406,1.029C20.717,50.576,26.289,50.001,27.473,49.845z"
			/>
		<path fill="#1E6E32" d="M10.701,43.841c-0.593-0.672-1.844-1.338-2.732-1.457L6.85,42.238c-0.084-0.012-0.164-0.018-0.241-0.018
			c-0.323,0-0.508,0.1-0.573,0.191c-0.053,0.072-0.056,0.18-0.008,0.32l0.265,0.643c2.046,4.988,5.437,9.256,9.833,12.387
			c0.191,0.135,0.514,0.363,0.836,0.543c0.322,0.182,0.529-0.051,0.529-0.602v-2.516c0-0.895-0.5-2.219-1.094-2.891L10.701,43.841z"
			/>
		<path fill="#D2E182" d="M37.765,54.443c-1.307-0.59-6.941-3.115-6.941-3.115c-0.693-0.313-1.867-0.539-2.789-0.539l0,0
			c-0.168,0-0.322,0.008-0.459,0.021l-7.725,0.828c-0.754,0.082-1.391,0.404-1.391,1.549v2.516c0,0.889,0.1,1.594,0.834,2.025
			c0.211,0.125,0.534,0.268,0.534,0.268c2.413,1.215,4.982,2.078,7.637,2.563c1.687,0.307,3.413,0.463,5.133,0.463
			c1.537,0,3.084-0.125,4.598-0.371l0.799-0.131c0.615-0.141,1.164-0.48,1.158-1.713v-2.221
			C39.154,55.761,39.074,55.031,37.765,54.443z"/>
		<path fill="#1E6E32" d="M44.775,38.585c-0.303-0.6-1.047-1.035-1.768-1.035l0,0c-0.111,0-0.221,0.012-0.324,0.031l-8.596,1.814
			c-0.813,0.172-1.68,0.998-1.891,1.803l-0.1,0.381c0,0,0,0-0.002,0l-1.811,6.902c-0.195,0.746,0.232,1.643,0.938,1.959l7.213,3.236
			c0.25,0.113,0.557,0.172,0.891,0.172c0.629,0,1.262-0.211,1.648-0.549l6.711-5.85c0.596-0.518,0.797-1.551,0.441-2.256
			l-0.123-0.24c0-0.002,0-0.002,0-0.002L44.775,38.585z"/>
		<path fill="#D2E182" d="M11.133,19.604c0.755-0.644,1.996-1.709,2.758-2.37l3.733-3.23c0.706-0.611,1.614-1.854,1.982-2.713
			l1.86-4.342c0.104-0.243,0.111-0.378,0.107-0.434c-0.007,0-0.014-0.002-0.023-0.002l0,0c-0.059,0-0.191,0.015-0.41,0.109
			c-0.02,0.009-1.98,0.852-3.605,1.87c-1.834,1.148-3.541,2.51-5.072,4.047c-1.379,1.385-2.62,2.916-3.687,4.551
			c-0.792,1.214-1.311,2.254-1.315,2.265c-0.145,0.289-0.162,0.559-0.051,0.759c0.111,0.199,0.35,0.325,0.67,0.356
			c0.001,0,0.002,0,0.002,0l0.209,0.02C9.183,20.571,10.487,20.151,11.133,19.604z"/>
		<path fill="#1E6E32" d="M21.792,30.173c0.817-0.07,1.724-0.789,1.978-1.568l2.789-8.561c0.245-0.753-0.11-1.748-0.777-2.174
			l-0.059-0.038c0,0,0,0-0.002-0.001l-5.107-3.266c-0.277-0.177-0.646-0.275-1.034-0.275l0,0c-0.511,0-0.991,0.163-1.319,0.446
			l-6.402,5.542c-0.564,0.489-0.896,1.621-0.709,2.42l1.602,6.852c0.165,0.707,0.873,1.262,1.611,1.262
			c0.039,0,0.08-0.004,0.12-0.006l0.325-0.029l0,0L21.792,30.173z"/>
	</g>
</g>
</svg>
