<?xml version="1.0" encoding="utf-8"?>
<!-- Generator: Adobe Illustrator 16.0.0, SVG Export Plug-In . SVG Version: 6.00 Build 0)  -->
<!DOCTYPE svg PUBLIC "-//W3C//DTD SVG 1.1//EN" "http://www.w3.org/Graphics/SVG/1.1/DTD/svg11.dtd">
<svg version="1.1" id="Lager_1" xmlns="http://www.w3.org/2000/svg" xmlns:xlink="http://www.w3.org/1999/xlink" x="0px" y="0px"
	 viewBox="0 0 65.197 65.197" enable-background="new 0 0 65.197 65.197" xml:space="preserve">
<g>
	<g>
		<path fill="#FFFFFF" d="M33.671,4.183c0.115,0.015,0.348,0.052,0.473,0.075c0.885,0.162,1.975,0.54,2.628,0.932
			c0.001,0.001,0.001,0.001,0.001,0.001l2.616,1.569l1.76,1.056c0.61,0.367,0.872,1.271,0.569,1.973l-1.743,4.05
			c-0.341,0.791-1.337,1.615-2.177,1.802l-8.583,1.899c-0.194,0.044-0.418,0.066-0.667,0.066c-0.824,0-1.748-0.238-2.302-0.591
			l-5.11-3.268c-0.648-0.415-0.941-1.364-0.637-2.075l1.859-4.341c0-0.001,0-0.001,0-0.001c0.336-0.779,1.275-1.657,2.089-1.967
			c-0.585,0.175-1.166,0.361-1.731,0.579c-1.031,0.4-1.596,0.688-1.576,0.68c0.22-0.095,0.352-0.109,0.41-0.109
			c0.001,0,0.001,0,0.001,0c0.009,0,0.017,0.002,0.022,0.002c0.004,0.056-0.002,0.19-0.106,0.434l-1.86,4.342
			c-0.369,0.858-1.277,2.102-1.982,2.713l-3.734,3.23c-0.762,0.661-2.003,1.727-2.758,2.37c-0.645,0.548-1.95,0.968-2.842,0.886
			l-0.209-0.02c0,0-0.001,0-0.002,0c-0.32-0.031-0.559-0.157-0.67-0.356c-0.111-0.2-0.094-0.47,0.051-0.759
			c0.004-0.01-0.111,0.19-0.209,0.388c-0.225,0.455-0.348,0.662-0.518,1.035c-0.192,0.423-0.389,0.863-0.561,1.299
			c-0.051,0.13-0.214,0.522-0.133,0.381c0.324-0.616,1.191-1.095,1.949-1.021l0.001,0.001l0.208,0.02h0.002l0.217,0.021
			c0.802,0.074,1.631,0.801,1.811,1.585l1.695,7.399c0.207,0.902,0.16,2.416-0.103,3.305l-1.915,6.48
			c-0.197,0.668-0.697,1.283-1.623,1.188c-0.684-0.068-1.306-0.158-1.306-0.158c-1.16-0.193-1.608-0.699-1.827-1.281
			c0.242,0.9,0.527,1.783,0.853,2.645c-0.019-0.094-0.009-0.17,0.032-0.227C6.1,42.32,6.285,42.22,6.608,42.22
			c0.077,0,0.157,0.006,0.242,0.018l1.118,0.146c0.889,0.119,2.141,0.785,2.732,1.457l5.697,6.455
			c0.592,0.672,1.092,1.996,1.092,2.891v2.516c0,0.551-0.207,0.783-0.529,0.602c0,0,0.162,0.143,0.581,0.402
			c0.558,0.348,1.126,0.68,1.708,0.988c-0.689-0.434-0.789-1.123-0.789-1.992v-2.516c0-1.145,0.638-1.467,1.391-1.549l7.725-0.828
			c0.138-0.014,0.292-0.021,0.459-0.021l0,0c0.922,0,2.096,0.227,2.79,0.539c0,0,5.634,2.525,6.942,3.115
			c1.308,0.588,1.387,1.318,1.387,2.143v2.221c0.005,1.123-0.45,1.504-0.994,1.67c1.037-0.205,2.053-0.467,3.045-0.783
			c-0.032,0.012-0.066,0.021-0.094,0.029c-0.765,0.234-0.985-0.203-0.985-0.916v-2.221c0.003-1.281,0.737-1.898,1.487-2.553
			l7.188-6.256c0.703-0.615,2.059-1.342,2.961-1.594l3.593-0.992c0.11-0.029,0.22-0.045,0.323-0.045l0,0
			c0.479,0,0.799,0.322,0.846,0.826c0,0.061,0.146,0.623-0.133,1.604c-0.137,0.477-0.459,1.096-0.743,1.572l-0.006,0.092
			c0.757-1.047,1.443-2.146,2.054-3.291c-0.133,0.014-0.209-0.223-0.174-0.623c0.077-0.887,0.233-1.947,0.438-2.637l2.735-9.219
			c0.136-0.459,0.308-0.189,0.308,0.146c0.012-0.338,0.02-0.678,0.02-1.018c0-0.744-0.028-1.479-0.084-2.207
			c0.008,0.588-0.168,0.77-0.68-0.225l-2.596-5.401c-0.416-0.864-0.912-2.393-1.083-3.336l-0.741-4.075c0,0-0.111-0.583-0.148-0.815
			c-0.037-0.231,0.072-0.419,0.332-0.045c-0.059-0.085-0.117-0.169-0.176-0.253c-1.537-2.179-3.371-4.132-5.444-5.8l-0.093-0.073
			c0.164,0.13,0.355,0.5-0.055,0.337c-0.41-0.165-0.873-0.368-0.873-0.368l-4.606-1.821c-0.001,0-0.001,0-0.002,0
			c-0.921-0.364-2.358-1.074-3.206-1.584c0,0-2.423-1.415-2.92-1.76c-0.328-0.229-0.078-0.281,0.363-0.23
			c0.035,0.005,0.072,0.01,0.109,0.014c0,0-0.037-0.015-0.202-0.053c-0.686-0.157-2.905-0.61-4.694-0.691
			C34.07,4.205,33.812,4.183,33.671,4.183z M40.941,14.107l1.771-4.104c0.216-0.508,0.644-0.679,1.204-0.679
			c0.174,0,0.342,0.031,0.501,0.095c0.001,0,0.001,0,0.001,0l6.977,2.758c0.885,0.351,1.76,0.853,2.402,1.604
			c0.156,0.183,0.604,1.099,0.791,2.12l1.035,5.702c0.133,0.729-0.335,1.45-1.047,1.636c-0.014,0.002-0.028,0.004-0.043,0.007
			l-4.837,1.071c-0.073,0.017-0.147,0.036-0.22,0.059c-0.064,0.006-0.128,0.011-0.195,0.011c-0.766,0-1.639-0.369-2.074-0.876
			l-0.025-0.029c0-0.001,0-0.001,0-0.001l-5.729-6.667c0-0.001,0-0.001-0.001-0.001l-0.112-0.132
			C40.797,16.051,40.615,14.873,40.941,14.107z M29.424,18.497c0,0,7.237-1.527,8.778-1.854c1.096-0.233,2.07,0.288,2.513,0.802
			c0,0,4.755,5.516,5.729,6.669c0.975,1.153,0.805,1.87,0.551,2.68l-2.529,8.037c-0.252,0.801-1.16,1.619-1.982,1.785l-9.043,1.828
			c-0.123,0.023-0.259,0.037-0.402,0.037c-0.79,0-1.697-0.375-2.156-0.891l-5.568-6.256c-0.561-0.631-0.813-1.84-0.553-2.643
			l2.721-8.348C27.718,19.62,28.337,18.802,29.424,18.497z M11.148,22.698c-0.187-0.799,0.145-1.931,0.709-2.42l6.402-5.542
			c0.328-0.283,0.809-0.446,1.319-0.446l0,0c0.39,0,0.757,0.099,1.036,0.275l5.106,3.266c0.001,0.001,0.001,0.001,0.002,0.001
			l0.059,0.038c0.666,0.426,1.022,1.421,0.776,2.174l-2.789,8.561c-0.254,0.779-1.16,1.498-1.978,1.568l-6.985,0.604l-0.324,0.029
			c-0.041,0.002-0.082,0.006-0.121,0.006c-0.738,0-1.446-0.555-1.611-1.262L11.148,22.698z M27.472,49.845
			c-1.184,0.156-6.756,0.73-7.94,0.838c-1.185,0.109-1.897-0.451-2.407-1.029l-5.85-6.633c-0.561-0.637-0.715-1.506-0.438-2.5
			c0.276-0.992,2.129-7.205,2.129-7.205c0.231-0.781,1.112-1.5,1.925-1.57c0,0,5.675-0.488,6.985-0.604
			c1.312-0.117,2.11,0.184,2.714,0.84c0.602,0.656,5.143,5.721,5.92,6.652c0.777,0.93,0.885,1.691,0.648,2.699
			c-0.236,1.004-1.813,6.9-1.813,6.9C29.138,49.021,28.657,49.689,27.472,49.845z M47.686,47.451l-6.711,5.85
			c-0.388,0.338-1.021,0.549-1.649,0.549c-0.334,0-0.641-0.059-0.891-0.172l-7.213-3.236c-0.704-0.316-1.133-1.213-0.938-1.959
			l1.811-6.902c0.001,0,0.001,0,0.001,0l0.1-0.381c0.212-0.805,1.078-1.631,1.893-1.803l8.595-1.814
			c0.104-0.02,0.212-0.031,0.324-0.031l0,0c0.721,0,1.464,0.436,1.769,1.035l3.228,6.367c0,0,0,0,0,0.002l0.123,0.24
			C48.483,45.9,48.281,46.933,47.686,47.451z M55.095,44.255c0,0-2.352,0.674-4.012,1.104c-1.289,0.334-1.93-0.283-2.214-0.844
			l-3.228-6.369c-0.402-0.791-0.516-2.176-0.25-3.021l2.529-8.039c0.234-0.746,1.035-1.512,1.807-1.764
			c0.068-0.01,0.138-0.018,0.203-0.033l4.815-1.087c0.014-0.004,0.026-0.009,0.042-0.012c0.092-0.018,0.188-0.03,0.287-0.03
			c0.705,0,1.424,0.433,1.711,1.028l2.595,5.402c0.387,0.805,0.499,2.207,0.245,3.063c0,0-2.127,7.273-2.576,8.686
			C56.599,43.75,55.914,44.031,55.095,44.255z"/>
	</g>
	<g>
		<path fill="#7DC8F0" d="M60.257,30.167c0.601,1.168,0.74,0.717,0.66-0.119l-0.086-0.738c-0.527-4.58-2.191-9.01-4.809-12.813
			c-0.261-0.377-0.371-0.189-0.334,0.043s0.148,0.815,0.148,0.815l0.741,4.075c0.171,0.943,0.667,2.472,1.083,3.336L60.257,30.167z"
			/>
		<path fill="#7DC8F0" d="M50.308,10.369c-3.091-2.464-6.716-4.283-10.52-5.275c-0.81-0.21-1.641-0.267-1.143,0.079
			c0.497,0.345,2.92,1.76,2.92,1.76c0.848,0.51,2.285,1.22,3.206,1.584c0.001,0,0.001,0,0.002,0l4.606,1.821
			c0,0,0.463,0.203,0.873,0.368C50.664,10.869,50.472,10.499,50.308,10.369z"/>
		<path fill="#7DC8F0" d="M55.677,45.146L55.677,45.146c-0.104,0-0.213,0.016-0.323,0.045l-3.593,0.992
			c-0.902,0.252-2.258,0.979-2.961,1.594l-7.188,6.256c-0.75,0.654-1.484,1.271-1.487,2.553v2.221c0,0.713,0.221,1.15,0.985,0.916
			c0.383-0.117,1.197-0.396,1.784-0.627c4.852-1.891,9.147-5.125,12.322-9.285c0.235-0.309,0.952-1.457,1.173-2.234
			c0.278-0.98,0.133-1.543,0.133-1.604C56.476,45.468,56.156,45.146,55.677,45.146z"/>
		<path fill="#7DC8F0" d="M25.314,31.335l5.568,6.256c0.459,0.516,1.366,0.891,2.156,0.891c0.144,0,0.279-0.014,0.402-0.037
			l9.043-1.828c0.822-0.166,1.73-0.984,1.982-1.785l2.529-8.037c0.254-0.811,0.424-1.527-0.551-2.68
			c-0.975-1.153-5.729-6.669-5.729-6.669c-0.442-0.514-1.417-1.035-2.513-0.802c-1.541,0.326-8.778,1.854-8.778,1.854
			c-1.087,0.305-1.706,1.123-1.942,1.848l-2.721,8.348C24.5,29.496,24.753,30.705,25.314,31.335z"/>
		<path fill="#7DC8F0" d="M9.906,40.246l1.915-6.48c0.263-0.889,0.31-2.402,0.103-3.305l-1.695-7.399
			c-0.18-0.784-1.009-1.511-1.811-1.585l-0.217-0.021H8.199l-0.208-0.02L7.99,21.436c-0.791-0.076-1.709,0.447-1.994,1.102
			l-0.275,0.8c-1.025,2.973-1.545,6.088-1.545,9.262c0,2.162,0.246,4.32,0.729,6.414l0.188,0.811
			c0.197,0.652,0.614,1.24,1.886,1.451c0,0,0.622,0.09,1.306,0.158C9.208,41.529,9.708,40.914,9.906,40.246z"/>
		<path fill="#7DC8F0" d="M55.076,24.159c-0.1,0-0.195,0.013-0.287,0.03c-0.016,0.003-0.028,0.008-0.042,0.012l-4.815,1.087
			c-0.065,0.016-0.135,0.023-0.203,0.033c-0.771,0.252-1.572,1.018-1.807,1.764l-2.529,8.039c-0.266,0.846-0.152,2.23,0.25,3.021
			l3.228,6.369c0.284,0.561,0.925,1.178,2.214,0.844c1.66-0.43,4.012-1.104,4.012-1.104c0.818-0.225,1.504-0.506,1.955-1.918
			c0.449-1.412,2.576-8.686,2.576-8.686c0.254-0.855,0.142-2.258-0.245-3.063l-2.595-5.402C56.5,24.592,55.781,24.159,55.076,24.159
			z"/>
		<path fill="#8C005A" d="M58.007,45.601c0.148-0.287,0.844-1.719,1.416-3.355c0.61-1.744,1.063-3.908,1.293-5.465
			c0.151-1.031,0.248-2.08,0.285-3.131c0.014-0.352-0.168-0.654-0.308-0.18l-2.735,9.219c-0.204,0.689-0.36,1.75-0.438,2.637
			C57.463,45.98,57.701,46.197,58.007,45.601z"/>
		<path fill="#7DC8F0" d="M21.136,13.747l5.11,3.268c0.554,0.353,1.478,0.591,2.302,0.591c0.249,0,0.473-0.022,0.667-0.066
			l8.583-1.899c0.84-0.187,1.836-1.011,2.177-1.802l1.743-4.05c0.303-0.702,0.041-1.605-0.569-1.973l-1.76-1.056L36.773,5.19
			c0,0,0,0-0.001-0.001c-0.8-0.479-2.259-0.942-3.188-1.012l0,0c-0.012,0-0.166-0.002-0.984-0.002c-2.283,0-4.555,0.271-6.752,0.807
			c-1.007,0.245-1.314,0.347-1.318,0.347c-0.83,0.278-1.822,1.195-2.17,2.001c0,0,0,0,0,0.001L20.5,11.672
			C20.195,12.383,20.488,13.332,21.136,13.747z"/>
		<path fill="#8C005A" d="M42.711,10.004l-1.771,4.104c-0.326,0.766-0.144,1.943,0.398,2.573l0.112,0.132
			c0.001,0,0.001,0,0.001,0.001l5.729,6.667c0,0,0,0,0,0.001l0.025,0.029c0.436,0.507,1.309,0.876,2.074,0.876
			c0.067,0,0.131-0.005,0.195-0.011c0.072-0.022,0.146-0.042,0.22-0.059l4.837-1.071c0.015-0.003,0.029-0.005,0.043-0.007
			c0.712-0.186,1.18-0.907,1.047-1.636l-1.035-5.702c-0.188-1.021-0.635-1.938-0.791-2.12c-0.643-0.751-1.518-1.253-2.402-1.604
			l-6.977-2.757c0,0,0-0.001-0.001-0.001c-0.159-0.063-0.327-0.095-0.501-0.095C43.355,9.325,42.927,9.496,42.711,10.004z"/>
		<path fill="#7DC8F0" d="M27.472,49.845c1.185-0.156,1.666-0.824,1.873-1.611c0,0,1.576-5.896,1.813-6.9
			c0.236-1.008,0.129-1.77-0.648-2.699c-0.777-0.932-5.318-5.996-5.92-6.652c-0.604-0.656-1.402-0.957-2.714-0.84
			c-1.311,0.115-6.985,0.604-6.985,0.604c-0.813,0.07-1.693,0.789-1.925,1.57c0,0-1.853,6.213-2.129,7.205
			c-0.276,0.994-0.122,1.863,0.438,2.5l5.85,6.633c0.51,0.578,1.223,1.139,2.407,1.029C20.716,50.576,26.289,50.001,27.472,49.845z"
			/>
		<path fill="#8C005A" d="M10.701,43.841c-0.592-0.672-1.844-1.338-2.732-1.457L6.85,42.238c-0.085-0.012-0.165-0.018-0.242-0.018
			c-0.323,0-0.508,0.1-0.573,0.191c-0.053,0.072-0.055,0.18-0.007,0.32l0.264,0.643c2.046,4.988,5.437,9.256,9.833,12.387
			c0.191,0.135,0.514,0.363,0.836,0.543c0.322,0.182,0.529-0.051,0.529-0.602v-2.516c0-0.895-0.5-2.219-1.092-2.891L10.701,43.841z"
			/>
		<path fill="#7DC8F0" d="M37.767,54.443c-1.309-0.59-6.942-3.115-6.942-3.115c-0.694-0.313-1.868-0.539-2.79-0.539l0,0
			c-0.167,0-0.321,0.008-0.459,0.021l-7.725,0.828c-0.753,0.082-1.391,0.404-1.391,1.549v2.516c0,0.889,0.1,1.594,0.834,2.025
			c0.212,0.125,0.534,0.268,0.534,0.268c2.413,1.215,4.983,2.078,7.638,2.563c1.686,0.307,3.412,0.463,5.133,0.463
			c1.539,0,3.085-0.125,4.598-0.371l0.799-0.131c0.614-0.141,1.164-0.48,1.158-1.713v-2.221
			C39.154,55.761,39.075,55.031,37.767,54.443z"/>
		<path fill="#8C005A" d="M44.776,38.585c-0.305-0.6-1.048-1.035-1.769-1.035l0,0c-0.112,0-0.221,0.012-0.324,0.031l-8.595,1.814
			c-0.814,0.172-1.681,0.998-1.893,1.803l-0.1,0.381c0,0,0,0-0.001,0l-1.811,6.902c-0.195,0.746,0.233,1.643,0.938,1.959
			l7.213,3.236c0.25,0.113,0.557,0.172,0.891,0.172c0.629,0,1.262-0.211,1.649-0.549l6.711-5.85c0.595-0.518,0.797-1.551,0.44-2.256
			l-0.123-0.24c0-0.002,0-0.002,0-0.002L44.776,38.585z"/>
		<path fill="#7DC8F0" d="M11.132,19.604c0.755-0.644,1.996-1.709,2.758-2.37l3.734-3.23c0.705-0.611,1.613-1.854,1.982-2.713
			l1.86-4.342c0.104-0.243,0.11-0.378,0.106-0.434c-0.006,0-0.014-0.002-0.022-0.002c0,0,0,0-0.001,0
			c-0.059,0-0.19,0.015-0.41,0.109c-0.02,0.009-1.98,0.852-3.605,1.87c-1.834,1.148-3.541,2.51-5.072,4.047
			c-1.379,1.385-2.619,2.916-3.687,4.551c-0.792,1.214-1.311,2.254-1.315,2.265c-0.145,0.289-0.162,0.559-0.051,0.759
			c0.111,0.199,0.35,0.325,0.67,0.356c0.001,0,0.002,0,0.002,0l0.209,0.02C9.182,20.571,10.488,20.151,11.132,19.604z"/>
		<path fill="#8C005A" d="M21.792,30.173c0.817-0.07,1.724-0.789,1.978-1.568l2.789-8.561c0.246-0.753-0.11-1.748-0.776-2.174
			l-0.059-0.038c-0.001,0-0.001,0-0.002-0.001l-5.106-3.266c-0.279-0.177-0.646-0.275-1.036-0.275l0,0
			c-0.511,0-0.991,0.163-1.319,0.446l-6.402,5.542c-0.564,0.489-0.896,1.621-0.709,2.42l1.602,6.852
			c0.165,0.707,0.873,1.262,1.611,1.262c0.039,0,0.08-0.004,0.121-0.006l0.324-0.029l0,0L21.792,30.173z"/>
	</g>
</g>
</svg>
