<?xml version="1.0" encoding="utf-8"?>
<!-- Generator: Adobe Illustrator 16.0.0, SVG Export Plug-In . SVG Version: 6.00 Build 0)  -->
<!DOCTYPE svg PUBLIC "-//W3C//DTD SVG 1.1//EN" "http://www.w3.org/Graphics/SVG/1.1/DTD/svg11.dtd">
<svg version="1.1" id="Lager_1" xmlns="http://www.w3.org/2000/svg" xmlns:xlink="http://www.w3.org/1999/xlink" x="0px" y="0px"
	 viewBox="0 0 71.972 71.972" enable-background="new 0 0 71.972 71.972" xml:space="preserve">
<g>
	<path fill="#009FE4" d="M70.739,36.566c-2.435-2.943-8.832-2.037-16.133-4.076c-7.304-2.039-20.004-8.945-22.778-9.907
		c-2.773-0.961-5.181-0.396-6.659,0.898c-2.006,1.757-3.612,4.045-6.613,5.516c-1.688,0.83-3.976,1.25-5.512,0.955
		c-1.921-0.367-3.306-1.273-4.347-4.213c-0.76-2.151-1.852-3.98-3.644-4.117c-2.749-0.211-4.147,3.223-4.718,8.381
		c-0.154,1.408-0.215,2.885-0.264,4.525c-0.011,0.381-0.023,0.756-0.034,1.117c-0.137,4.814-0.091,7.855,2.532,9.541
		c0.393,0.254,0.773,1.07,0.773,1.07c0.104,0.223,0.229,0.6,0.281,0.838l0.565,2.637c0.052,0.238,0.205,0.602,0.342,0.803
		l0.415,0.334c0.227,0.092,0.612,0.166,0.856,0.166h0.197c0.244,0,0.63-0.074,0.857-0.166l0.412-0.334
		c0.138-0.201,0.291-0.564,0.343-0.803l0.553-2.58c0.052-0.238,0.293-0.418,0.536-0.398l4.843,0.295
		c0.244,0.012,0.484,0.215,0.536,0.455l0.479,2.229c0.052,0.238,0.204,0.602,0.341,0.803l0.413,0.334
		c0.229,0.092,0.612,0.166,0.857,0.166h0.198c0.244,0,0.63-0.074,0.856-0.166l0.415-0.334c0.136-0.201,0.29-0.564,0.34-0.803
		l0.465-2.164c0.052-0.238,0.293-0.439,0.537-0.443c0,0,7.037-0.115,10.534-0.115c1.352,0,5.342,0.002,5.342,0.002
		c0.243,0.008,0.485,0.209,0.537,0.447l0.487,2.273c0.052,0.238,0.121,0.525,0.155,0.633c0,0,0,0,0.052,0.092
		c0.14,0.24,0.375,0.432,0.638,0.523c0.104,0.035,0.104,0.035,0.104,0.035c0.12,0.012,0.418,0.02,0.663,0.02h0.198
		c0.243,0,0.59-0.02,0.771-0.043c0,0,0,0,0.148-0.076c0.184-0.094,0.345-0.24,0.458-0.41c0.066-0.105,0.066-0.105,0.066-0.105
		c0.041-0.129,0.117-0.43,0.169-0.668l0.452-2.107c0.052-0.238,0.293-0.428,0.537-0.42l5.553,0.109
		c0.243,0.004,0.484,0.201,0.536,0.439l0.426,1.979c0.05,0.238,0.121,0.529,0.158,0.645c0,0,0,0,0.058,0.096
		c0.195,0.328,0.526,0.43,0.526,0.43c0.234,0.074,0.625,0.133,0.87,0.133h0.196c0.245,0,0.532-0.006,0.641-0.016
		c0,0,0,0,0.094-0.029c0.282-0.086,0.537-0.293,0.683-0.551c0.046-0.086,0.046-0.086,0.046-0.086
		c0.031-0.102,0.098-0.383,0.149-0.621l0.445-2.076c0.052-0.238,0.293-0.445,0.536-0.461c0,0,1.804-0.104,2.885-0.215
		c0.62-0.061,1.287-0.135,1.287-0.135c0.242-0.025,0.508,0.143,0.588,0.373l0.691,1.973c0.08,0.23,0.178,0.49,0.215,0.578
		c0,0,0,0,0.049,0.072c0.171,0.246,0.449,0.426,0.742,0.484c0.104,0.02,0.104,0.02,0.104,0.02c0.115-0.006,0.408-0.033,0.65-0.064
		l0.197-0.023c0.244-0.031,0.568-0.09,0.723-0.127c0,0,0,0,0.127-0.078c0.297-0.184,0.392-0.432,0.392-0.432
		c0.087-0.229,0.175-0.615,0.194-0.859l0.181-2.105c0.022-0.242,0.234-0.482,0.475-0.531l4.025-0.859
		c0.237-0.063,0.532,0.059,0.656,0.268l0.833,1.404c0.125,0.211,0.277,0.453,0.338,0.541c0,0,0,0,0.072,0.066
		c0.217,0.199,0.523,0.314,0.82,0.307c0.101-0.002,0.101-0.002,0.101-0.002c0.104-0.027,0.379-0.111,0.61-0.189l0.188-0.064
		c0.23-0.076,0.497-0.172,0.59-0.211c0,0,0,0,0.075-0.053c0.229-0.158,0.401-0.406,0.47-0.676c0.032-0.119,0.032-0.119,0.032-0.119
		c-0.001-0.135-0.026-0.445-0.053-0.688l-0.199-1.758c-0.027-0.242,0.117-0.551,0.323-0.684c0,0,0.08-0.053,0.289-0.211
		C72.059,41.547,72.849,39.117,70.739,36.566z"/>
	<path fill="#E10714" d="M59.99,49.547"/>
	<g>
		<path fill="#E6007E" d="M33.241,21.029c-0.383-0.204-0.857-0.058-1.059,0.323l-1.458,2.743c-0.562,0.112-0.984,0.61-0.984,1.206
			c0,0.68,0.552,1.229,1.231,1.229c0.681,0,1.23-0.55,1.23-1.229c0-0.166-0.034-0.326-0.095-0.47l1.459-2.744
			C33.769,21.705,33.624,21.231,33.241,21.029z"/>
		<path fill="#E6007E" d="M38.779,23.379c-0.382-0.204-0.856-0.058-1.058,0.323l-1.457,2.742c-0.563,0.113-0.985,0.61-0.985,1.206
			c0,0.679,0.55,1.23,1.231,1.23c0.679,0,1.23-0.551,1.23-1.23c0-0.167-0.033-0.325-0.094-0.471l1.456-2.743
			C39.307,24.055,39.163,23.581,38.779,23.379z"/>
		<path fill="#E6007E" d="M44.319,25.728c-0.383-0.203-0.857-0.058-1.061,0.324l-1.455,2.743c-0.563,0.113-0.986,0.611-0.986,1.207
			c0,0.678,0.552,1.229,1.232,1.229c0.679,0,1.23-0.551,1.23-1.229c0-0.168-0.033-0.326-0.094-0.473l1.456-2.742
			C44.846,26.405,44.701,25.931,44.319,25.728z"/>
		<path fill="#E6007E" d="M49.803,28.246c-0.382-0.203-0.855-0.057-1.06,0.324l-1.457,2.742c-0.562,0.113-0.983,0.611-0.983,1.207
			c0,0.68,0.551,1.229,1.229,1.229c0.681,0,1.231-0.549,1.231-1.229c0-0.166-0.034-0.326-0.094-0.471l1.457-2.744
			C50.33,28.922,50.185,28.449,49.803,28.246z"/>
		<path fill="#E6007E" d="M54.967,30.273c-0.404-0.15-0.858,0.057-1.007,0.463l-1.018,2.752c-0.479,0.168-0.823,0.621-0.823,1.156
			c0,0.68,0.551,1.23,1.232,1.23c0.679,0,1.229-0.551,1.229-1.23c0-0.225-0.064-0.432-0.17-0.613l1.018-2.752
			C55.58,30.873,55.371,30.424,54.967,30.273z"/>
	</g>
	<g>
		<g>
			<path fill="#FFFFFF" d="M30.212,42.143c-0.18,0.166-0.126,0.309,0.118,0.318l4.522,0.152c0.245,0.008,0.592-0.121,0.771-0.287
				l7.415-6.895c0.18-0.168,0.134-0.363-0.098-0.434l-3.354-1.033c-0.234-0.07-0.571,0.006-0.751,0.172L30.212,42.143z"/>
		</g>
		<g>
			<path fill="#FFFFFF" d="M32.165,31.568c-0.231-0.074-0.571,0-0.75,0.166L20.472,41.803c-0.181,0.166-0.127,0.309,0.117,0.322
				l4.319,0.199c0.243,0.01,0.59-0.117,0.768-0.285l9.635-9.055c0.178-0.166,0.134-0.365-0.101-0.439L32.165,31.568z"/>
		</g>
	</g>
</g>
</svg>
