<?xml version="1.0" encoding="utf-8"?>
<!-- Generator: Adobe Illustrator 16.0.0, SVG Export Plug-In . SVG Version: 6.00 Build 0)  -->
<!DOCTYPE svg PUBLIC "-//W3C//DTD SVG 1.1//EN" "http://www.w3.org/Graphics/SVG/1.1/DTD/svg11.dtd">
<svg version="1.1" id="Lager_1" xmlns="http://www.w3.org/2000/svg" xmlns:xlink="http://www.w3.org/1999/xlink" x="0px" y="0px"
	 viewBox="0 0 71.971 71.971" enable-background="new 0 0 71.971 71.971" xml:space="preserve">
<g>
	<path fill="#1E6E32" d="M70.738,36.565c-2.434-2.943-8.829-2.037-16.133-4.074c-7.301-2.039-20.004-8.946-22.777-9.908
		c-2.774-0.961-5.181-0.396-6.658,0.898c-2.008,1.757-3.614,4.045-6.613,5.517c-1.69,0.828-3.977,1.25-5.513,0.955
		c-1.922-0.367-3.306-1.275-4.346-4.214c-0.762-2.151-1.853-3.98-3.646-4.117c-2.748-0.211-4.147,3.223-4.715,8.382
		c-0.155,1.408-0.218,2.885-0.267,4.523c-0.011,0.383-0.022,0.758-0.031,1.119c-0.139,4.814-0.093,7.855,2.531,9.541
		c0.391,0.254,0.774,1.07,0.774,1.07c0.103,0.221,0.229,0.598,0.279,0.836l0.567,2.639c0.05,0.238,0.204,0.6,0.341,0.801
		l0.413,0.336c0.227,0.09,0.612,0.166,0.856,0.166H6c0.245,0,0.63-0.076,0.856-0.166l0.414-0.336
		c0.136-0.201,0.292-0.563,0.342-0.801l0.555-2.58c0.05-0.238,0.291-0.42,0.534-0.4l4.842,0.297c0.244,0.01,0.486,0.215,0.536,0.455
		l0.479,2.229c0.052,0.238,0.205,0.6,0.343,0.801l0.414,0.336c0.226,0.09,0.61,0.166,0.855,0.166h0.198
		c0.243,0,0.63-0.076,0.855-0.166l0.415-0.336c0.138-0.201,0.29-0.563,0.342-0.801l0.464-2.166c0.052-0.238,0.293-0.438,0.538-0.443
		c0,0,7.037-0.115,10.534-0.115c1.35,0,5.342,0.004,5.342,0.004c0.244,0.008,0.485,0.209,0.536,0.447l0.489,2.273
		c0.05,0.238,0.12,0.523,0.152,0.633c0,0,0,0,0.054,0.092c0.138,0.24,0.373,0.432,0.637,0.521c0.104,0.037,0.104,0.037,0.104,0.037
		c0.121,0.01,0.42,0.02,0.662,0.02h0.199c0.245,0,0.592-0.02,0.771-0.043c0,0,0,0,0.147-0.076c0.186-0.096,0.347-0.24,0.459-0.412
		c0.066-0.104,0.066-0.104,0.066-0.104c0.041-0.129,0.117-0.43,0.169-0.668l0.452-2.107c0.051-0.238,0.292-0.428,0.537-0.422
		l5.552,0.111c0.243,0.002,0.487,0.199,0.536,0.438l0.426,1.98c0.051,0.238,0.121,0.529,0.158,0.645c0,0,0,0,0.058,0.094
		c0.197,0.33,0.527,0.43,0.527,0.43c0.234,0.074,0.624,0.135,0.869,0.135h0.198c0.244,0,0.53-0.008,0.639-0.018c0,0,0,0,0.095-0.027
		c0.283-0.088,0.538-0.293,0.682-0.551c0.048-0.086,0.048-0.086,0.048-0.086c0.029-0.104,0.098-0.383,0.148-0.621l0.445-2.078
		c0.052-0.238,0.293-0.443,0.538-0.459c0,0,1.802-0.105,2.883-0.215c0.62-0.063,1.287-0.135,1.287-0.135
		c0.243-0.027,0.507,0.141,0.588,0.371l0.69,1.973c0.081,0.23,0.178,0.49,0.217,0.578c0,0,0,0,0.05,0.074
		c0.169,0.246,0.446,0.426,0.739,0.482c0.105,0.02,0.105,0.02,0.105,0.02c0.115-0.004,0.409-0.033,0.652-0.064l0.195-0.023
		c0.243-0.031,0.567-0.088,0.725-0.125c0,0,0,0,0.126-0.078c0.297-0.184,0.39-0.434,0.39-0.434c0.088-0.229,0.175-0.613,0.195-0.857
		l0.183-2.105c0.02-0.244,0.234-0.484,0.473-0.533l4.027-0.859c0.235-0.063,0.529,0.061,0.655,0.27l0.831,1.402
		c0.125,0.213,0.277,0.453,0.34,0.541c0,0,0,0,0.071,0.066c0.219,0.201,0.525,0.316,0.822,0.307
		c0.098-0.002,0.098-0.002,0.098-0.002c0.105-0.025,0.381-0.109,0.611-0.189l0.188-0.063c0.231-0.078,0.497-0.174,0.59-0.213
		c0,0,0,0,0.077-0.051c0.228-0.158,0.398-0.408,0.47-0.676c0.029-0.121,0.029-0.121,0.029-0.121
		c-0.001-0.135-0.023-0.443-0.053-0.688l-0.197-1.756c-0.027-0.244,0.117-0.553,0.321-0.684c0,0,0.081-0.055,0.291-0.213
		C72.059,41.545,72.847,39.118,70.738,36.565z"/>
	<path fill="#E6007E" d="M59.99,49.547"/>
	<g>
		<path fill="#E6007E" d="M33.241,21.028c-0.382-0.204-0.855-0.058-1.06,0.323l-1.457,2.743c-0.562,0.112-0.983,0.61-0.983,1.206
			c0,0.68,0.551,1.229,1.229,1.229c0.681,0,1.23-0.55,1.23-1.229c0-0.166-0.033-0.326-0.092-0.47l1.456-2.744
			C33.768,21.704,33.623,21.23,33.241,21.028z"/>
		<path fill="#E6007E" d="M38.78,23.379c-0.383-0.204-0.855-0.058-1.06,0.323l-1.457,2.742c-0.562,0.113-0.983,0.61-0.983,1.206
			c0,0.678,0.551,1.231,1.229,1.231c0.682,0,1.231-0.553,1.231-1.231c0-0.167-0.034-0.325-0.095-0.471l1.458-2.743
			C39.307,24.055,39.162,23.58,38.78,23.379z"/>
		<path fill="#E6007E" d="M44.319,25.728c-0.383-0.203-0.856-0.058-1.06,0.324l-1.457,2.744c-0.562,0.113-0.983,0.609-0.983,1.205
			c0,0.68,0.55,1.23,1.229,1.23S43.28,30.68,43.28,30c0-0.168-0.034-0.326-0.095-0.471l1.458-2.743
			C44.846,26.404,44.701,25.931,44.319,25.728z"/>
		<path fill="#E6007E" d="M49.801,28.247c-0.381-0.205-0.855-0.059-1.059,0.322l-1.457,2.744c-0.563,0.111-0.984,0.609-0.984,1.205
			c0,0.68,0.551,1.23,1.231,1.23c0.68,0,1.231-0.551,1.231-1.23c0-0.166-0.035-0.326-0.095-0.469l1.457-2.744
			C50.329,28.922,50.185,28.448,49.801,28.247z"/>
		<path fill="#E6007E" d="M54.965,30.272c-0.404-0.15-0.855,0.059-1.006,0.465l-1.019,2.75c-0.477,0.17-0.821,0.621-0.821,1.158
			c0,0.678,0.55,1.23,1.23,1.23c0.679,0,1.231-0.553,1.231-1.23c0-0.225-0.064-0.434-0.169-0.613l1.017-2.754
			C55.579,30.872,55.373,30.422,54.965,30.272z"/>
	</g>
	<g>
		<g>
			<path fill="#FFFFFF" d="M30.21,42.143c-0.18,0.164-0.126,0.309,0.118,0.316l4.525,0.152c0.243,0.01,0.589-0.121,0.768-0.287
				l7.416-6.895c0.18-0.168,0.136-0.361-0.099-0.434l-3.354-1.031c-0.233-0.072-0.57,0.006-0.75,0.172L30.21,42.143z"/>
		</g>
		<g>
			<path fill="#FFFFFF" d="M32.165,31.567c-0.232-0.074-0.57,0-0.751,0.166L20.471,41.801c-0.18,0.166-0.128,0.311,0.116,0.322
				l4.319,0.199c0.245,0.012,0.59-0.117,0.768-0.283l9.635-9.055c0.178-0.168,0.134-0.367-0.098-0.441L32.165,31.567z"/>
		</g>
	</g>
</g>
</svg>
