<?xml version="1.0" encoding="utf-8"?>
<!-- Generator: Adobe Illustrator 16.0.0, SVG Export Plug-In . SVG Version: 6.00 Build 0)  -->
<!DOCTYPE svg PUBLIC "-//W3C//DTD SVG 1.1//EN" "http://www.w3.org/Graphics/SVG/1.1/DTD/svg11.dtd">
<svg version="1.1" id="Lager_1" xmlns="http://www.w3.org/2000/svg" xmlns:xlink="http://www.w3.org/1999/xlink" x="0px" y="0px"
	 viewBox="0 0 65.197 65.197" enable-background="new 0 0 65.197 65.197" xml:space="preserve">
<g>
	<g>
		<path fill="#FEF5B2" d="M33.671,4.184c0.116,0.014,0.348,0.051,0.473,0.074c0.885,0.163,1.975,0.539,2.629,0.933l0,0l2.616,1.569
			l1.761,1.057c0.609,0.366,0.871,1.269,0.568,1.972l-1.743,4.051c-0.34,0.79-1.336,1.614-2.176,1.8l-8.583,1.901
			c-0.194,0.042-0.419,0.064-0.668,0.064c-0.824,0-1.748-0.237-2.302-0.59l-5.109-3.268c-0.649-0.415-0.942-1.365-0.638-2.074
			l1.859-4.342C22.36,7.33,22.36,7.33,22.36,7.33c0.334-0.78,1.274-1.658,2.088-1.966c-0.586,0.175-1.166,0.359-1.73,0.578
			c-1.033,0.401-1.597,0.688-1.578,0.68c0.221-0.094,0.352-0.108,0.41-0.108c0.001,0,0.001,0,0.001,0c0.009,0,0.017,0,0.023,0
			c0.004,0.057-0.003,0.191-0.107,0.436l-1.86,4.341c-0.369,0.859-1.275,2.101-1.982,2.712l-3.733,3.232
			c-0.762,0.659-2.003,1.726-2.759,2.369c-0.645,0.548-1.949,0.969-2.842,0.886l-0.209-0.02c0,0,0,0-0.001-0.001
			c-0.321-0.029-0.56-0.156-0.67-0.356c-0.112-0.199-0.094-0.469,0.05-0.758c0.005-0.009-0.111,0.19-0.208,0.388
			c-0.225,0.455-0.349,0.662-0.519,1.034c-0.192,0.425-0.389,0.864-0.561,1.3C6.122,22.205,5.959,22.6,6.04,22.458
			c0.324-0.617,1.191-1.096,1.949-1.021h0.002l0.207,0.019H8.2l0.219,0.021c0.801,0.075,1.629,0.802,1.809,1.585l1.695,7.4
			c0.207,0.902,0.16,2.414-0.102,3.303l-1.916,6.482c-0.197,0.666-0.697,1.281-1.623,1.188c-0.684-0.07-1.306-0.16-1.306-0.16
			c-1.16-0.191-1.607-0.699-1.827-1.281c0.242,0.9,0.527,1.783,0.854,2.646c-0.02-0.096-0.008-0.172,0.031-0.229
			c0.066-0.092,0.25-0.189,0.574-0.189c0.076,0,0.157,0.004,0.241,0.016l1.119,0.148c0.888,0.117,2.14,0.783,2.732,1.457
			l5.696,6.453c0.592,0.672,1.092,1.996,1.092,2.891v2.516c0,0.553-0.207,0.783-0.529,0.604c0,0,0.162,0.141,0.582,0.4
			c0.557,0.348,1.126,0.68,1.708,0.99c-0.69-0.434-0.789-1.125-0.789-1.994v-2.516c0-1.145,0.638-1.467,1.391-1.547l7.726-0.828
			c0.137-0.016,0.29-0.021,0.457-0.021l0,0c0.922,0,2.096,0.227,2.79,0.537c0,0,5.634,2.525,6.942,3.115s1.387,1.318,1.387,2.143
			v2.223c0.006,1.121-0.449,1.502-0.994,1.668c1.037-0.205,2.053-0.467,3.045-0.783c-0.031,0.012-0.066,0.021-0.094,0.031
			c-0.764,0.234-0.985-0.205-0.985-0.916v-2.223c0.003-1.281,0.737-1.896,1.488-2.551l7.187-6.258
			c0.704-0.613,2.061-1.342,2.961-1.592l3.593-0.992c0.11-0.031,0.22-0.047,0.324-0.047l0,0c0.479,0,0.798,0.322,0.845,0.826
			c0,0.063,0.146,0.623-0.133,1.604c-0.137,0.479-0.459,1.096-0.742,1.574l-0.006,0.09c0.756-1.045,1.442-2.145,2.053-3.291
			c-0.133,0.014-0.209-0.221-0.174-0.623c0.078-0.887,0.233-1.947,0.438-2.635l2.736-9.219c0.136-0.459,0.308-0.189,0.307,0.146
			c0.012-0.34,0.02-0.68,0.02-1.02c0-0.742-0.028-1.479-0.084-2.207c0.008,0.59-0.168,0.77-0.68-0.225l-2.596-5.399
			c-0.414-0.865-0.911-2.393-1.082-3.337l-0.741-4.075c0,0-0.112-0.583-0.149-0.816c-0.037-0.231,0.074-0.418,0.332-0.044
			c-0.059-0.085-0.117-0.168-0.176-0.253c-1.537-2.179-3.371-4.132-5.444-5.8l-0.091-0.073c0.162,0.131,0.354,0.5-0.057,0.336
			s-0.873-0.368-0.873-0.368l-4.605-1.819c-0.001-0.001-0.002-0.001-0.002-0.001c-0.922-0.365-2.359-1.074-3.207-1.583
			c0,0-2.422-1.417-2.92-1.761c-0.328-0.229-0.078-0.281,0.363-0.229c0.035,0.003,0.072,0.008,0.109,0.013
			c0,0-0.037-0.016-0.201-0.052c-0.687-0.157-2.906-0.611-4.695-0.692C34.069,4.205,33.812,4.184,33.671,4.184z M40.94,14.106
			l1.771-4.104c0.216-0.506,0.643-0.678,1.205-0.678c0.172,0,0.34,0.031,0.5,0.095c0,0,0,0,0.001,0l6.976,2.758
			c0.885,0.351,1.76,0.853,2.403,1.604c0.156,0.183,0.604,1.098,0.79,2.12l1.036,5.703c0.132,0.728-0.335,1.448-1.047,1.635
			c-0.015,0.003-0.029,0.004-0.044,0.007l-4.836,1.072c-0.074,0.017-0.147,0.035-0.221,0.059c-0.063,0.006-0.127,0.01-0.194,0.01
			c-0.767,0-1.638-0.368-2.075-0.876l-0.024-0.029h-0.001l-5.728-6.668c-0.001,0-0.001-0.001-0.001-0.001l-0.113-0.131
			C40.798,16.05,40.614,14.872,40.94,14.106z M29.425,18.497c0,0,7.236-1.527,8.777-1.854c1.098-0.232,2.07,0.288,2.514,0.804
			c0,0,4.754,5.514,5.729,6.667c0.976,1.153,0.805,1.872,0.551,2.68l-2.529,8.039c-0.252,0.799-1.16,1.617-1.982,1.783l-9.043,1.828
			c-0.123,0.025-0.259,0.039-0.402,0.039c-0.79,0-1.696-0.375-2.156-0.893l-5.567-6.254c-0.562-0.631-0.814-1.842-0.553-2.643
			l2.72-8.35C27.718,19.62,28.337,18.802,29.425,18.497z M11.147,22.698c-0.187-0.8,0.145-1.931,0.71-2.419l6.402-5.542
			c0.328-0.285,0.81-0.448,1.319-0.448l0,0c0.389,0,0.756,0.099,1.035,0.276l5.107,3.266c0,0,0,0,0.001,0.002l0.059,0.036
			c0.667,0.427,1.022,1.422,0.777,2.174l-2.79,8.561c-0.254,0.781-1.159,1.498-1.977,1.568l-6.985,0.605l-0.325,0.027
			c-0.041,0.004-0.081,0.006-0.121,0.006c-0.738,0-1.445-0.555-1.611-1.262L11.147,22.698z M27.472,49.846
			c-1.183,0.156-6.754,0.73-7.94,0.838c-1.185,0.107-1.896-0.453-2.406-1.029l-5.85-6.635c-0.562-0.637-0.715-1.504-0.438-2.498
			c0.277-0.994,2.129-7.205,2.129-7.205c0.23-0.781,1.111-1.502,1.924-1.572c0,0,5.676-0.486,6.986-0.604s2.109,0.184,2.713,0.84
			c0.603,0.656,5.145,5.721,5.921,6.652s0.884,1.693,0.647,2.699s-1.813,6.902-1.813,6.902C29.14,49.022,28.656,49.69,27.472,49.846
			z M47.687,47.452l-6.711,5.848c-0.389,0.34-1.021,0.551-1.65,0.551c-0.333,0-0.641-0.061-0.891-0.172l-7.213-3.238
			c-0.703-0.314-1.133-1.213-0.938-1.959l1.813-6.902l0,0l0.1-0.379c0.211-0.805,1.078-1.631,1.893-1.803l8.595-1.814
			c0.103-0.021,0.212-0.033,0.323-0.033l0,0c0.721,0,1.465,0.436,1.769,1.035l3.228,6.367v0.002l0.123,0.24
			C48.483,45.899,48.281,46.932,47.687,47.452z M55.095,44.254c0,0-2.352,0.674-4.012,1.105c-1.289,0.334-1.929-0.283-2.214-0.846
			l-3.228-6.367c-0.401-0.793-0.516-2.178-0.249-3.023l2.528-8.039c0.235-0.746,1.035-1.51,1.807-1.762
			c0.068-0.011,0.139-0.019,0.204-0.034l4.814-1.088c0.015-0.002,0.028-0.008,0.042-0.01c0.092-0.018,0.188-0.031,0.287-0.031
			c0.705,0,1.426,0.433,1.711,1.029l2.596,5.4c0.386,0.805,0.498,2.207,0.244,3.063c0,0-2.125,7.275-2.576,8.688
			C56.599,43.749,55.913,44.03,55.095,44.254z"/>
	</g>
	<g>
		<path fill="#FFE57E" d="M60.257,30.167c0.602,1.17,0.74,0.717,0.66-0.119l-0.086-0.736c-0.527-4.582-2.191-9.011-4.809-12.814
			c-0.26-0.377-0.371-0.189-0.334,0.042c0.037,0.233,0.149,0.816,0.149,0.816l0.741,4.075c0.171,0.944,0.668,2.472,1.082,3.337
			L60.257,30.167z"/>
		<path fill="#FFE57E" d="M50.31,10.369c-3.093-2.464-6.717-4.283-10.521-5.274c-0.81-0.212-1.642-0.267-1.144,0.078
			c0.498,0.344,2.92,1.761,2.92,1.761c0.848,0.509,2.285,1.218,3.207,1.583c0,0,0.001,0,0.002,0.001l4.605,1.819
			c0,0,0.463,0.204,0.873,0.368S50.472,10.5,50.31,10.369z"/>
		<path fill="#FFE57E" d="M55.678,45.145L55.678,45.145c-0.104,0-0.214,0.016-0.324,0.047l-3.593,0.992
			c-0.9,0.25-2.257,0.979-2.961,1.592l-7.187,6.258c-0.751,0.654-1.485,1.27-1.488,2.551v2.223c0,0.711,0.222,1.15,0.985,0.916
			c0.383-0.117,1.197-0.398,1.785-0.627c4.852-1.893,9.147-5.125,12.321-9.287c0.235-0.309,0.952-1.457,1.173-2.234
			c0.278-0.98,0.133-1.541,0.133-1.604C56.476,45.467,56.156,45.145,55.678,45.145z"/>
		<path fill="#FFE57E" d="M25.314,31.336l5.567,6.254c0.46,0.518,1.366,0.893,2.156,0.893c0.144,0,0.279-0.014,0.402-0.039
			l9.043-1.828c0.822-0.166,1.73-0.984,1.982-1.783l2.529-8.039c0.254-0.809,0.425-1.527-0.551-2.68
			c-0.975-1.153-5.729-6.667-5.729-6.667c-0.443-0.516-1.416-1.036-2.514-0.804c-1.541,0.327-8.777,1.854-8.777,1.854
			c-1.088,0.305-1.707,1.123-1.943,1.847l-2.72,8.35C24.5,29.495,24.753,30.706,25.314,31.336z"/>
		<path fill="#FFE57E" d="M9.905,40.247l1.916-6.482c0.262-0.889,0.309-2.4,0.102-3.303l-1.695-7.4
			c-0.18-0.783-1.008-1.51-1.809-1.585L8.2,21.455H8.198l-0.207-0.019H7.989c-0.79-0.076-1.708,0.445-1.994,1.101l-0.275,0.8
			c-1.024,2.972-1.543,6.089-1.543,9.261c0,2.164,0.244,4.322,0.728,6.414l0.187,0.813c0.198,0.652,0.615,1.238,1.886,1.449
			c0,0,0.622,0.09,1.306,0.16C9.208,41.528,9.708,40.913,9.905,40.247z"/>
		<path fill="#FFE57E" d="M55.075,24.159c-0.1,0-0.195,0.014-0.287,0.031c-0.014,0.002-0.027,0.008-0.042,0.01l-4.814,1.088
			c-0.065,0.016-0.136,0.023-0.204,0.034c-0.771,0.252-1.571,1.016-1.807,1.762l-2.528,8.039c-0.267,0.846-0.152,2.23,0.249,3.023
			l3.228,6.367c0.285,0.563,0.925,1.18,2.214,0.846c1.66-0.432,4.012-1.105,4.012-1.105c0.818-0.225,1.504-0.506,1.955-1.916
			c0.451-1.412,2.576-8.688,2.576-8.688c0.254-0.855,0.142-2.258-0.244-3.063l-2.596-5.4C56.501,24.592,55.78,24.159,55.075,24.159z
			"/>
		<path fill="#8C005A" d="M58.007,45.602c0.148-0.287,0.844-1.719,1.416-3.355c0.611-1.744,1.063-3.91,1.293-5.467
			c0.152-1.029,0.248-2.08,0.287-3.129c0.012-0.352-0.169-0.654-0.309-0.18l-2.736,9.219c-0.204,0.688-0.359,1.748-0.438,2.635
			C57.463,45.979,57.7,46.198,58.007,45.602z"/>
		<path fill="#FFE57E" d="M21.137,13.747l5.109,3.268c0.554,0.353,1.478,0.59,2.302,0.59c0.249,0,0.474-0.022,0.668-0.064
			l8.583-1.901c0.84-0.186,1.836-1.01,2.176-1.8l1.743-4.051c0.303-0.703,0.041-1.605-0.568-1.972L39.389,6.76L36.772,5.19l0,0
			c-0.8-0.48-2.26-0.943-3.188-1.012h-0.001c-0.012,0-0.165-0.004-0.984-0.004c-2.283,0-4.555,0.272-6.752,0.809
			c-1.006,0.244-1.314,0.346-1.318,0.347c-0.829,0.278-1.822,1.194-2.168,2c0,0,0,0-0.002,0.001l-1.859,4.342
			C20.194,12.382,20.487,13.332,21.137,13.747z"/>
		<path fill="#8C005A" d="M42.712,10.003l-1.771,4.104c-0.326,0.766-0.143,1.943,0.398,2.575l0.113,0.131c0,0,0,0.001,0.001,0.001
			l5.728,6.668h0.001l0.024,0.029c0.438,0.508,1.309,0.876,2.075,0.876c0.067,0,0.132-0.004,0.194-0.01
			c0.073-0.023,0.146-0.042,0.221-0.059l4.836-1.072c0.015-0.003,0.029-0.004,0.044-0.007c0.712-0.187,1.179-0.907,1.047-1.635
			l-1.036-5.703c-0.187-1.022-0.634-1.938-0.79-2.12c-0.644-0.751-1.519-1.253-2.403-1.604L44.418,9.42c-0.001,0-0.001,0-0.001,0
			c-0.16-0.063-0.328-0.095-0.5-0.095C43.354,9.325,42.928,9.497,42.712,10.003z"/>
		<path fill="#FFE57E" d="M27.472,49.846c1.185-0.156,1.668-0.824,1.873-1.611c0,0,1.576-5.896,1.813-6.902s0.129-1.768-0.647-2.699
			s-5.318-5.996-5.921-6.652c-0.604-0.656-1.402-0.957-2.713-0.84s-6.986,0.604-6.986,0.604c-0.813,0.07-1.693,0.791-1.924,1.572
			c0,0-1.852,6.211-2.129,7.205c-0.276,0.994-0.123,1.861,0.438,2.498l5.85,6.635c0.51,0.576,1.222,1.137,2.406,1.029
			C20.718,50.577,26.289,50.002,27.472,49.846z"/>
		<path fill="#8C005A" d="M10.701,43.842c-0.593-0.674-1.845-1.34-2.732-1.457L6.85,42.237c-0.084-0.012-0.165-0.016-0.241-0.016
			c-0.324,0-0.508,0.098-0.574,0.189c-0.053,0.074-0.055,0.182-0.006,0.32l0.264,0.645c2.045,4.986,5.437,9.254,9.832,12.385
			c0.191,0.137,0.514,0.363,0.836,0.545c0.322,0.18,0.529-0.051,0.529-0.604v-2.516c0-0.895-0.5-2.219-1.092-2.891L10.701,43.842z"
			/>
		<path fill="#FFE57E" d="M37.767,54.442c-1.309-0.59-6.942-3.115-6.942-3.115c-0.694-0.311-1.868-0.537-2.79-0.537l0,0
			c-0.167,0-0.32,0.006-0.457,0.021l-7.726,0.828c-0.753,0.08-1.391,0.402-1.391,1.547v2.516c0,0.889,0.099,1.594,0.833,2.025
			c0.212,0.125,0.535,0.27,0.535,0.27c2.412,1.215,4.982,2.076,7.637,2.563c1.687,0.307,3.413,0.463,5.133,0.463
			c1.539,0,3.085-0.127,4.598-0.373l0.8-0.129c0.614-0.143,1.163-0.482,1.157-1.713v-2.223
			C39.153,55.76,39.075,55.032,37.767,54.442z"/>
		<path fill="#8C005A" d="M44.775,38.584c-0.304-0.6-1.048-1.035-1.769-1.035l0,0c-0.111,0-0.221,0.012-0.323,0.033l-8.595,1.814
			c-0.814,0.172-1.682,0.998-1.893,1.803l-0.1,0.379l0,0l-1.813,6.902c-0.195,0.746,0.234,1.645,0.938,1.959l7.213,3.238
			c0.25,0.111,0.558,0.172,0.891,0.172c0.629,0,1.262-0.211,1.65-0.551l6.711-5.848c0.595-0.52,0.797-1.553,0.439-2.258l-0.123-0.24
			v-0.002L44.775,38.584z"/>
		<path fill="#FFE57E" d="M11.132,19.604c0.756-0.644,1.997-1.71,2.759-2.369l3.733-3.232c0.707-0.611,1.613-1.853,1.982-2.712
			l1.86-4.341c0.104-0.244,0.111-0.379,0.107-0.436c-0.007,0-0.015,0-0.023,0c0,0,0,0-0.001,0c-0.059,0-0.189,0.015-0.41,0.108
			c-0.02,0.008-1.979,0.853-3.604,1.869c-1.835,1.148-3.542,2.512-5.072,4.049c-1.38,1.383-2.62,2.915-3.687,4.55
			c-0.792,1.214-1.311,2.254-1.316,2.265c-0.144,0.289-0.162,0.559-0.05,0.758c0.11,0.2,0.349,0.327,0.67,0.356
			c0.001,0.001,0.001,0.001,0.001,0.001l0.209,0.02C9.183,20.572,10.487,20.151,11.132,19.604z"/>
		<path fill="#8C005A" d="M21.792,30.172c0.817-0.07,1.723-0.787,1.977-1.568l2.79-8.561c0.245-0.752-0.11-1.747-0.777-2.174
			l-0.059-0.036c-0.001-0.002-0.001-0.002-0.001-0.002l-5.107-3.266c-0.279-0.178-0.646-0.276-1.035-0.276l0,0
			c-0.51,0-0.991,0.163-1.319,0.448l-6.402,5.542c-0.565,0.488-0.896,1.619-0.71,2.419l1.602,6.851
			c0.166,0.707,0.873,1.262,1.611,1.262c0.04,0,0.08-0.002,0.121-0.006l0.325-0.027l0,0L21.792,30.172z"/>
	</g>
</g>
</svg>
