<?xml version="1.0" encoding="utf-8"?>
<!-- Generator: Adobe Illustrator 16.0.0, SVG Export Plug-In . SVG Version: 6.00 Build 0)  -->
<!DOCTYPE svg PUBLIC "-//W3C//DTD SVG 1.1//EN" "http://www.w3.org/Graphics/SVG/1.1/DTD/svg11.dtd">
<svg version="1.1" id="Lager_1" xmlns="http://www.w3.org/2000/svg" xmlns:xlink="http://www.w3.org/1999/xlink" x="0px" y="0px"
	 viewBox="0 0 71.972 71.972" enable-background="new 0 0 71.972 71.972" xml:space="preserve">
<g>
	<path fill="#8C005A" d="M70.739,36.565c-2.436-2.943-8.832-2.037-16.133-4.075c-7.303-2.039-20.004-8.945-22.779-9.907
		c-2.774-0.961-5.181-0.396-6.66,0.898c-2.007,1.757-3.612,4.045-6.612,5.517c-1.688,0.829-3.975,1.25-5.511,0.955
		c-1.922-0.367-3.306-1.274-4.347-4.214c-0.763-2.151-1.852-3.98-3.645-4.117c-2.748-0.211-4.149,3.223-4.718,8.382
		c-0.155,1.408-0.216,2.885-0.264,4.524c-0.013,0.382-0.022,0.757-0.034,1.118c-0.137,4.814-0.092,7.855,2.533,9.541
		c0.391,0.254,0.773,1.07,0.773,1.07c0.104,0.222,0.229,0.599,0.281,0.837l0.564,2.638c0.052,0.238,0.205,0.601,0.342,0.802
		l0.415,0.335c0.226,0.091,0.61,0.166,0.854,0.166H6c0.245,0,0.63-0.075,0.855-0.166l0.415-0.335
		c0.138-0.201,0.29-0.563,0.342-0.802l0.554-2.58c0.051-0.238,0.291-0.419,0.536-0.399l4.841,0.296
		c0.244,0.011,0.485,0.215,0.537,0.455l0.479,2.229c0.05,0.238,0.203,0.601,0.342,0.802l0.413,0.335
		c0.226,0.091,0.612,0.166,0.856,0.166h0.198c0.244,0,0.629-0.075,0.856-0.166l0.414-0.335c0.136-0.201,0.289-0.563,0.341-0.802
		l0.466-2.165c0.049-0.238,0.293-0.438,0.535-0.443c0,0,7.038-0.115,10.535-0.115c1.352,0,5.342,0.003,5.342,0.003
		c0.244,0.008,0.484,0.209,0.537,0.447l0.488,2.273c0.051,0.238,0.119,0.524,0.152,0.633c0,0,0,0,0.053,0.092
		c0.141,0.24,0.373,0.432,0.637,0.522c0.107,0.036,0.107,0.036,0.107,0.036c0.119,0.011,0.418,0.02,0.662,0.02h0.197
		c0.244,0,0.592-0.02,0.77-0.043c0,0,0,0,0.148-0.076c0.184-0.095,0.346-0.24,0.459-0.411c0.068-0.104,0.068-0.104,0.068-0.104
		c0.041-0.129,0.117-0.43,0.166-0.668l0.453-2.107c0.051-0.238,0.293-0.428,0.537-0.421l5.553,0.11
		c0.244,0.003,0.486,0.2,0.537,0.438l0.424,1.979c0.051,0.238,0.123,0.529,0.16,0.645c0,0,0,0,0.055,0.095
		c0.197,0.329,0.529,0.43,0.529,0.43c0.232,0.074,0.623,0.134,0.867,0.134h0.199c0.244,0,0.531-0.007,0.641-0.017
		c0,0,0,0,0.094-0.028c0.283-0.087,0.537-0.293,0.682-0.551c0.047-0.086,0.047-0.086,0.047-0.086
		c0.031-0.103,0.098-0.383,0.148-0.621l0.445-2.077c0.053-0.238,0.295-0.444,0.537-0.46c0,0,1.803-0.104,2.883-0.215
		c0.621-0.062,1.287-0.135,1.287-0.135c0.244-0.026,0.508,0.142,0.59,0.372l0.689,1.973c0.082,0.23,0.18,0.49,0.217,0.578
		c0,0,0,0,0.049,0.073c0.17,0.246,0.447,0.426,0.742,0.483c0.105,0.02,0.105,0.02,0.105,0.02c0.115-0.005,0.408-0.033,0.65-0.064
		l0.197-0.023c0.24-0.031,0.566-0.089,0.723-0.126c0,0,0,0,0.125-0.078c0.299-0.184,0.393-0.433,0.393-0.433
		c0.086-0.229,0.172-0.614,0.195-0.858l0.18-2.105c0.021-0.243,0.234-0.483,0.473-0.532l4.027-0.859
		c0.238-0.063,0.533,0.06,0.656,0.269l0.832,1.403c0.125,0.212,0.277,0.453,0.338,0.541c0,0,0,0,0.07,0.066
		c0.221,0.2,0.527,0.315,0.822,0.307c0.1-0.002,0.1-0.002,0.1-0.002c0.105-0.026,0.381-0.11,0.613-0.189l0.186-0.063
		c0.232-0.077,0.498-0.173,0.592-0.212c0,0,0,0,0.076-0.052c0.229-0.158,0.4-0.407,0.469-0.676c0.031-0.12,0.031-0.12,0.031-0.12
		c-0.002-0.135-0.025-0.444-0.053-0.688l-0.199-1.757c-0.027-0.243,0.119-0.552,0.324-0.684c0,0,0.08-0.054,0.289-0.212
		C72.058,41.546,72.847,39.117,70.739,36.565z"/>
	<path fill="#E10714" d="M59.989,49.547"/>
	<g>
		<path fill="#009FE4" d="M33.241,21.028c-0.383-0.204-0.857-0.058-1.061,0.323l-1.455,2.743c-0.562,0.112-0.984,0.61-0.984,1.206
			c0,0.68,0.55,1.229,1.23,1.229c0.679,0,1.23-0.55,1.23-1.229c0-0.166-0.033-0.326-0.094-0.47l1.456-2.744
			C33.769,21.704,33.622,21.23,33.241,21.028z"/>
		<path fill="#009FE4" d="M38.78,23.379c-0.383-0.204-0.857-0.058-1.061,0.323l-1.455,2.742c-0.563,0.113-0.986,0.61-0.986,1.206
			c0,0.679,0.551,1.23,1.232,1.23c0.68,0,1.23-0.552,1.23-1.23c0-0.167-0.033-0.325-0.096-0.471l1.457-2.743
			C39.308,24.055,39.161,23.58,38.78,23.379z"/>
		<path fill="#009FE4" d="M44.319,25.728c-0.383-0.203-0.857-0.058-1.061,0.324l-1.457,2.743c-0.561,0.113-0.984,0.61-0.984,1.206
			c0,0.679,0.551,1.229,1.232,1.229c0.68,0,1.23-0.551,1.23-1.229c0-0.168-0.035-0.326-0.096-0.472l1.459-2.742
			C44.847,26.404,44.7,25.931,44.319,25.728z"/>
		<path fill="#009FE4" d="M49.802,28.246c-0.381-0.204-0.857-0.058-1.059,0.323l-1.457,2.743c-0.563,0.112-0.984,0.61-0.984,1.206
			c0,0.68,0.549,1.229,1.23,1.229c0.68,0,1.23-0.55,1.23-1.229c0-0.166-0.033-0.326-0.094-0.47l1.457-2.744
			C50.329,28.922,50.185,28.448,49.802,28.246z"/>
		<path fill="#009FE4" d="M54.966,30.272c-0.404-0.15-0.857,0.058-1.006,0.464l-1.018,2.751c-0.479,0.169-0.824,0.621-0.824,1.157
			c0,0.679,0.553,1.23,1.23,1.23c0.682,0,1.232-0.552,1.232-1.23c0-0.225-0.064-0.433-0.17-0.613l1.018-2.753
			C55.577,30.872,55.372,30.423,54.966,30.272z"/>
	</g>
	<g>
		<g>
			<path fill="#FFFFFF" d="M30.212,42.143c-0.18,0.165-0.127,0.309,0.115,0.317l4.525,0.152c0.244,0.009,0.592-0.121,0.768-0.287
				l7.418-6.895c0.178-0.168,0.135-0.362-0.1-0.434l-3.354-1.032c-0.232-0.071-0.57,0.006-0.748,0.172L30.212,42.143z"/>
		</g>
		<g>
			<path fill="#FFFFFF" d="M32.164,31.567c-0.232-0.074-0.57,0-0.748,0.166L20.47,41.802c-0.179,0.166-0.126,0.31,0.117,0.322
				l4.319,0.199c0.244,0.011,0.589-0.117,0.767-0.284l9.636-9.055c0.178-0.167,0.133-0.366-0.1-0.44L32.164,31.567z"/>
		</g>
	</g>
</g>
</svg>
