<?xml version="1.0" encoding="utf-8"?>
<!-- Generator: Adobe Illustrator 16.0.0, SVG Export Plug-In . SVG Version: 6.00 Build 0)  -->
<!DOCTYPE svg PUBLIC "-//W3C//DTD SVG 1.1//EN" "http://www.w3.org/Graphics/SVG/1.1/DTD/svg11.dtd">
<svg version="1.1" id="Lager_1" xmlns="http://www.w3.org/2000/svg" xmlns:xlink="http://www.w3.org/1999/xlink" x="0px" y="0px"
	 viewBox="0 0 65.197 65.197" enable-background="new 0 0 65.197 65.197" xml:space="preserve">
<g>
	<g>
		<path fill="#FFFFFF" d="M33.671,4.183c0.116,0.015,0.348,0.052,0.473,0.075c0.885,0.162,1.975,0.54,2.629,0.932
			c0,0.001,0,0.001,0,0.001l2.616,1.569l1.761,1.056c0.609,0.367,0.871,1.271,0.568,1.973l-1.743,4.05
			c-0.34,0.791-1.336,1.615-2.176,1.802l-8.583,1.899c-0.194,0.044-0.419,0.066-0.668,0.066c-0.824,0-1.748-0.238-2.302-0.591
			l-5.109-3.268c-0.649-0.415-0.942-1.364-0.638-2.075l1.859-4.341C22.36,7.33,22.36,7.33,22.36,7.33
			c0.334-0.779,1.274-1.657,2.088-1.967c-0.586,0.175-1.166,0.361-1.73,0.579c-1.033,0.4-1.597,0.688-1.578,0.68
			c0.221-0.095,0.352-0.109,0.41-0.109c0.001,0,0.001,0,0.001,0c0.009,0,0.017,0.002,0.023,0.002
			c0.004,0.056-0.003,0.19-0.107,0.434l-1.86,4.342c-0.369,0.858-1.275,2.102-1.982,2.713l-3.733,3.23
			c-0.762,0.661-2.003,1.727-2.759,2.37c-0.645,0.548-1.949,0.968-2.842,0.886l-0.209-0.02c0,0,0,0-0.001,0
			c-0.321-0.031-0.56-0.157-0.67-0.356c-0.112-0.2-0.094-0.47,0.05-0.759c0.005-0.01-0.111,0.19-0.208,0.388
			c-0.225,0.455-0.349,0.662-0.519,1.035c-0.192,0.423-0.389,0.863-0.561,1.299c-0.051,0.13-0.214,0.522-0.133,0.381
			c0.324-0.616,1.191-1.095,1.949-1.021l0.002,0.001l0.207,0.02H8.2l0.219,0.021c0.801,0.074,1.629,0.801,1.809,1.585l1.695,7.399
			c0.207,0.902,0.16,2.416-0.102,3.305l-1.916,6.48c-0.197,0.668-0.697,1.283-1.623,1.188c-0.684-0.068-1.306-0.158-1.306-0.158
			c-1.16-0.193-1.607-0.699-1.827-1.281c0.242,0.9,0.527,1.783,0.854,2.645c-0.02-0.094-0.008-0.17,0.031-0.227
			c0.066-0.092,0.25-0.191,0.574-0.191c0.076,0,0.157,0.006,0.241,0.018l1.119,0.146c0.888,0.119,2.14,0.785,2.732,1.457
			l5.696,6.455c0.592,0.672,1.092,1.996,1.092,2.891v2.516c0,0.551-0.207,0.783-0.529,0.602c0,0,0.162,0.143,0.582,0.402
			c0.557,0.348,1.126,0.68,1.708,0.988c-0.69-0.434-0.789-1.123-0.789-1.992v-2.516c0-1.145,0.638-1.467,1.391-1.549l7.726-0.828
			c0.137-0.014,0.29-0.021,0.457-0.021l0,0c0.922,0,2.096,0.227,2.79,0.539c0,0,5.634,2.525,6.942,3.115
			c1.309,0.588,1.387,1.318,1.387,2.143v2.221c0.006,1.123-0.449,1.504-0.994,1.67c1.037-0.205,2.053-0.467,3.045-0.783
			c-0.031,0.012-0.066,0.021-0.094,0.029c-0.764,0.234-0.985-0.203-0.985-0.916v-2.221c0.003-1.281,0.737-1.898,1.488-2.553
			l7.187-6.256c0.704-0.615,2.061-1.342,2.961-1.594l3.593-0.992c0.11-0.029,0.22-0.045,0.324-0.045l0,0
			c0.479,0,0.798,0.322,0.845,0.826c0,0.061,0.146,0.623-0.133,1.604c-0.137,0.477-0.459,1.096-0.742,1.572l-0.006,0.092
			c0.756-1.047,1.442-2.146,2.053-3.291c-0.133,0.014-0.209-0.223-0.174-0.623c0.078-0.887,0.233-1.947,0.438-2.637l2.736-9.219
			c0.136-0.459,0.308-0.189,0.307,0.146c0.012-0.338,0.02-0.678,0.02-1.018c0-0.744-0.028-1.479-0.084-2.207
			c0.008,0.588-0.168,0.77-0.68-0.225l-2.596-5.401c-0.414-0.864-0.911-2.393-1.082-3.336l-0.741-4.075c0,0-0.112-0.583-0.149-0.815
			c-0.037-0.231,0.074-0.419,0.332-0.045c-0.059-0.085-0.117-0.169-0.176-0.253c-1.537-2.179-3.371-4.132-5.444-5.8l-0.091-0.073
			c0.162,0.13,0.354,0.5-0.057,0.337c-0.41-0.165-0.873-0.368-0.873-0.368l-4.605-1.821c-0.001,0-0.002,0-0.002,0
			c-0.922-0.364-2.359-1.074-3.207-1.584c0,0-2.422-1.415-2.92-1.76c-0.328-0.229-0.078-0.281,0.363-0.23
			c0.035,0.005,0.072,0.01,0.109,0.014c0,0-0.037-0.015-0.201-0.053c-0.687-0.157-2.906-0.61-4.695-0.691
			C34.069,4.205,33.812,4.183,33.671,4.183z M40.94,14.107l1.771-4.104c0.216-0.508,0.643-0.679,1.205-0.679
			c0.172,0,0.34,0.031,0.5,0.095c0,0,0,0,0.001,0.001l6.976,2.757c0.885,0.351,1.76,0.853,2.403,1.604
			c0.156,0.183,0.604,1.099,0.79,2.12l1.036,5.702c0.132,0.729-0.335,1.45-1.047,1.636c-0.015,0.002-0.029,0.004-0.044,0.007
			l-4.836,1.071c-0.074,0.017-0.147,0.036-0.221,0.059c-0.063,0.006-0.127,0.011-0.194,0.011c-0.767,0-1.638-0.369-2.075-0.876
			l-0.024-0.029c0-0.001-0.001-0.001-0.001-0.001l-5.728-6.667c-0.001-0.001-0.001-0.001-0.001-0.001l-0.113-0.132
			C40.798,16.051,40.614,14.873,40.94,14.107z M29.425,18.497c0,0,7.236-1.527,8.777-1.854c1.098-0.233,2.07,0.288,2.514,0.802
			c0,0,4.754,5.516,5.729,6.669c0.976,1.153,0.805,1.87,0.551,2.68l-2.529,8.037c-0.252,0.801-1.16,1.619-1.982,1.785l-9.043,1.828
			c-0.123,0.023-0.259,0.037-0.402,0.037c-0.79,0-1.696-0.375-2.156-0.891l-5.567-6.256c-0.562-0.631-0.814-1.84-0.553-2.643
			l2.72-8.348C27.718,19.62,28.337,18.802,29.425,18.497z M11.147,22.698c-0.187-0.799,0.145-1.931,0.71-2.42l6.402-5.542
			c0.328-0.283,0.81-0.446,1.319-0.446l0,0c0.389,0,0.756,0.099,1.035,0.275l5.107,3.266c0,0.001,0,0.001,0.001,0.001l0.059,0.038
			c0.667,0.426,1.022,1.421,0.777,2.174l-2.79,8.561c-0.254,0.779-1.159,1.498-1.977,1.568l-6.985,0.604l-0.325,0.029
			c-0.041,0.002-0.081,0.006-0.121,0.006c-0.738,0-1.445-0.555-1.611-1.262L11.147,22.698z M27.472,49.845
			c-1.183,0.156-6.754,0.73-7.94,0.838c-1.185,0.109-1.896-0.451-2.406-1.029l-5.85-6.633c-0.562-0.637-0.715-1.506-0.438-2.5
			c0.277-0.992,2.129-7.205,2.129-7.205c0.23-0.781,1.111-1.5,1.924-1.57c0,0,5.676-0.488,6.986-0.604
			c1.311-0.117,2.109,0.184,2.713,0.84c0.603,0.656,5.145,5.721,5.921,6.652c0.776,0.93,0.884,1.691,0.647,2.699
			c-0.236,1.004-1.813,6.9-1.813,6.9C29.14,49.021,28.656,49.689,27.472,49.845z M47.687,47.451l-6.711,5.85
			c-0.389,0.338-1.021,0.549-1.65,0.549c-0.333,0-0.641-0.059-0.891-0.172l-7.213-3.236c-0.703-0.316-1.133-1.213-0.938-1.959
			l1.813-6.902l0,0l0.1-0.381c0.211-0.805,1.078-1.631,1.893-1.803l8.595-1.814c0.103-0.02,0.212-0.031,0.323-0.031l0,0
			c0.721,0,1.465,0.436,1.769,1.035l3.228,6.367c0,0,0,0,0,0.002l0.123,0.24C48.483,45.9,48.281,46.933,47.687,47.451z
			 M55.095,44.255c0,0-2.352,0.674-4.012,1.104c-1.289,0.334-1.929-0.283-2.214-0.844l-3.228-6.369
			c-0.401-0.791-0.516-2.176-0.249-3.021l2.528-8.039c0.235-0.746,1.035-1.511,1.807-1.764c0.068-0.009,0.139-0.018,0.204-0.033
			l4.814-1.087c0.015-0.004,0.028-0.009,0.042-0.012c0.092-0.018,0.188-0.03,0.287-0.03c0.705,0,1.426,0.433,1.711,1.028
			l2.596,5.402c0.386,0.805,0.498,2.207,0.244,3.063c0,0-2.125,7.273-2.576,8.686S55.913,44.031,55.095,44.255z"/>
	</g>
	<g>
		<path fill="#FFE57E" d="M60.257,30.167c0.602,1.168,0.74,0.717,0.66-0.119l-0.086-0.738c-0.527-4.58-2.191-9.01-4.809-12.813
			c-0.26-0.377-0.371-0.189-0.334,0.043s0.149,0.815,0.149,0.815l0.741,4.075c0.171,0.943,0.668,2.472,1.082,3.336L60.257,30.167z"
			/>
		<path fill="#FFE57E" d="M50.31,10.369c-3.093-2.464-6.717-4.283-10.521-5.275c-0.81-0.21-1.642-0.267-1.144,0.079
			c0.498,0.345,2.92,1.76,2.92,1.76c0.848,0.51,2.285,1.22,3.207,1.584c0,0,0.001,0,0.002,0l4.605,1.821
			c0,0,0.463,0.203,0.873,0.368C50.663,10.869,50.472,10.499,50.31,10.369z"/>
		<path fill="#FFE57E" d="M55.678,45.146L55.678,45.146c-0.104,0-0.214,0.016-0.324,0.045l-3.593,0.992
			c-0.9,0.252-2.257,0.979-2.961,1.594l-7.187,6.256c-0.751,0.654-1.485,1.271-1.488,2.553v2.221c0,0.713,0.222,1.15,0.985,0.916
			c0.383-0.117,1.197-0.396,1.785-0.627c4.852-1.891,9.147-5.125,12.321-9.285c0.235-0.309,0.952-1.457,1.173-2.234
			c0.278-0.98,0.133-1.543,0.133-1.604C56.476,45.468,56.156,45.146,55.678,45.146z"/>
		<path fill="#FFE57E" d="M25.314,31.335l5.567,6.256c0.46,0.516,1.366,0.891,2.156,0.891c0.144,0,0.279-0.014,0.402-0.037
			l9.043-1.828c0.822-0.166,1.73-0.984,1.982-1.785l2.529-8.037c0.254-0.811,0.425-1.527-0.551-2.68
			c-0.975-1.153-5.729-6.669-5.729-6.669c-0.443-0.514-1.416-1.035-2.514-0.802c-1.541,0.326-8.777,1.854-8.777,1.854
			c-1.088,0.305-1.707,1.123-1.943,1.848l-2.72,8.348C24.5,29.496,24.753,30.705,25.314,31.335z"/>
		<path fill="#FFE57E" d="M9.905,40.246l1.916-6.48c0.262-0.889,0.309-2.402,0.102-3.305l-1.695-7.399
			c-0.18-0.784-1.008-1.511-1.809-1.585L8.2,21.456H8.198l-0.207-0.02l-0.002-0.001c-0.79-0.076-1.708,0.447-1.994,1.102l-0.275,0.8
			c-1.024,2.973-1.543,6.088-1.543,9.262c0,2.162,0.244,4.32,0.728,6.414l0.187,0.811c0.198,0.652,0.615,1.24,1.886,1.451
			c0,0,0.622,0.09,1.306,0.158C9.208,41.529,9.708,40.914,9.905,40.246z"/>
		<path fill="#FFE57E" d="M55.075,24.159c-0.1,0-0.195,0.013-0.287,0.03c-0.014,0.003-0.027,0.008-0.042,0.012l-4.814,1.087
			c-0.065,0.016-0.136,0.024-0.204,0.033c-0.771,0.253-1.571,1.018-1.807,1.764l-2.528,8.039c-0.267,0.846-0.152,2.23,0.249,3.021
			l3.228,6.369c0.285,0.561,0.925,1.178,2.214,0.844c1.66-0.43,4.012-1.104,4.012-1.104c0.818-0.225,1.504-0.506,1.955-1.918
			s2.576-8.686,2.576-8.686c0.254-0.855,0.142-2.258-0.244-3.063l-2.596-5.402C56.501,24.592,55.78,24.159,55.075,24.159z"/>
		<path fill="#8C005A" d="M58.007,45.601c0.148-0.287,0.844-1.719,1.416-3.355c0.611-1.744,1.063-3.908,1.293-5.465
			c0.152-1.031,0.248-2.08,0.287-3.131c0.012-0.352-0.169-0.654-0.309-0.18l-2.736,9.219c-0.204,0.689-0.359,1.75-0.438,2.637
			C57.463,45.98,57.7,46.197,58.007,45.601z"/>
		<path fill="#FFE57E" d="M21.137,13.747l5.109,3.268c0.554,0.353,1.478,0.591,2.302,0.591c0.249,0,0.474-0.022,0.668-0.066
			l8.583-1.899c0.84-0.187,1.836-1.011,2.176-1.802l1.743-4.05c0.303-0.702,0.041-1.605-0.568-1.973L39.389,6.76L36.772,5.19
			c0,0,0,0,0-0.001c-0.8-0.479-2.26-0.942-3.188-1.012h-0.001c-0.012,0-0.165-0.002-0.984-0.002c-2.283,0-4.555,0.271-6.752,0.807
			c-1.006,0.245-1.314,0.347-1.318,0.347c-0.829,0.278-1.822,1.195-2.168,2.001c0,0,0,0-0.002,0.001l-1.859,4.341
			C20.194,12.383,20.487,13.332,21.137,13.747z"/>
		<path fill="#8C005A" d="M42.712,10.004l-1.771,4.104c-0.326,0.766-0.143,1.943,0.398,2.573l0.113,0.132c0,0,0,0,0.001,0.001
			l5.728,6.667c0,0,0.001,0,0.001,0.001l0.024,0.029c0.438,0.507,1.309,0.876,2.075,0.876c0.067,0,0.132-0.005,0.194-0.011
			c0.073-0.022,0.146-0.042,0.221-0.059l4.836-1.071c0.015-0.003,0.029-0.005,0.044-0.007c0.712-0.186,1.179-0.907,1.047-1.636
			l-1.036-5.702c-0.187-1.021-0.634-1.938-0.79-2.12c-0.644-0.751-1.519-1.253-2.403-1.604l-6.976-2.757
			C44.417,9.42,44.417,9.42,44.417,9.42c-0.16-0.063-0.328-0.095-0.5-0.095C43.354,9.325,42.928,9.496,42.712,10.004z"/>
		<path fill="#FFE57E" d="M27.472,49.845c1.185-0.156,1.668-0.824,1.873-1.611c0,0,1.576-5.896,1.813-6.9
			c0.236-1.008,0.129-1.77-0.647-2.699c-0.776-0.932-5.318-5.996-5.921-6.652c-0.604-0.656-1.402-0.957-2.713-0.84
			c-1.311,0.115-6.986,0.604-6.986,0.604c-0.813,0.07-1.693,0.789-1.924,1.57c0,0-1.852,6.213-2.129,7.205
			c-0.276,0.994-0.123,1.863,0.438,2.5l5.85,6.633c0.51,0.578,1.222,1.139,2.406,1.029C20.718,50.576,26.289,50.001,27.472,49.845z"
			/>
		<path fill="#8C005A" d="M10.701,43.841c-0.593-0.672-1.845-1.338-2.732-1.457L6.85,42.238c-0.084-0.012-0.165-0.018-0.241-0.018
			c-0.324,0-0.508,0.1-0.574,0.191c-0.053,0.072-0.055,0.18-0.006,0.32l0.264,0.643c2.045,4.988,5.437,9.256,9.832,12.387
			c0.191,0.135,0.514,0.363,0.836,0.543c0.322,0.182,0.529-0.051,0.529-0.602v-2.516c0-0.895-0.5-2.219-1.092-2.891L10.701,43.841z"
			/>
		<path fill="#FFE57E" d="M37.767,54.443c-1.309-0.59-6.942-3.115-6.942-3.115c-0.694-0.313-1.868-0.539-2.79-0.539l0,0
			c-0.167,0-0.32,0.008-0.457,0.021l-7.726,0.828c-0.753,0.082-1.391,0.404-1.391,1.549v2.516c0,0.889,0.099,1.594,0.833,2.025
			c0.212,0.125,0.535,0.268,0.535,0.268c2.412,1.215,4.982,2.078,7.637,2.563c1.687,0.307,3.413,0.463,5.133,0.463
			c1.539,0,3.085-0.125,4.598-0.371l0.8-0.131c0.614-0.141,1.163-0.48,1.157-1.713v-2.221
			C39.153,55.761,39.075,55.031,37.767,54.443z"/>
		<path fill="#8C005A" d="M44.775,38.585c-0.304-0.6-1.048-1.035-1.769-1.035l0,0c-0.111,0-0.221,0.012-0.323,0.031l-8.595,1.814
			c-0.814,0.172-1.682,0.998-1.893,1.803l-0.1,0.381l0,0l-1.813,6.902c-0.195,0.746,0.234,1.643,0.938,1.959l7.213,3.236
			c0.25,0.113,0.558,0.172,0.891,0.172c0.629,0,1.262-0.211,1.65-0.549l6.711-5.85c0.595-0.518,0.797-1.551,0.439-2.256l-0.123-0.24
			c0-0.002,0-0.002,0-0.002L44.775,38.585z"/>
		<path fill="#FFE57E" d="M11.132,19.604c0.756-0.644,1.997-1.709,2.759-2.37l3.733-3.23c0.707-0.611,1.613-1.854,1.982-2.713
			l1.86-4.342c0.104-0.243,0.111-0.378,0.107-0.434c-0.007,0-0.015-0.002-0.023-0.002c0,0,0,0-0.001,0
			c-0.059,0-0.189,0.015-0.41,0.109c-0.02,0.009-1.979,0.852-3.604,1.87c-1.835,1.148-3.542,2.51-5.072,4.047
			c-1.38,1.385-2.62,2.916-3.687,4.551c-0.792,1.214-1.311,2.254-1.316,2.265c-0.144,0.289-0.162,0.559-0.05,0.759
			c0.11,0.199,0.349,0.325,0.67,0.356c0.001,0,0.001,0,0.001,0l0.209,0.02C9.183,20.571,10.487,20.151,11.132,19.604z"/>
		<path fill="#8C005A" d="M21.792,30.173c0.817-0.07,1.723-0.789,1.977-1.568l2.79-8.561c0.245-0.753-0.11-1.748-0.777-2.174
			l-0.059-0.038c-0.001,0-0.001,0-0.001-0.001l-5.107-3.266c-0.279-0.177-0.646-0.275-1.035-0.275l0,0
			c-0.51,0-0.991,0.163-1.319,0.446l-6.402,5.542c-0.565,0.489-0.896,1.621-0.71,2.42l1.602,6.852
			c0.166,0.707,0.873,1.262,1.611,1.262c0.04,0,0.08-0.004,0.121-0.006l0.325-0.029l0,0L21.792,30.173z"/>
	</g>
</g>
</svg>
