<?xml version="1.0" encoding="utf-8"?>
<!-- Generator: Adobe Illustrator 16.0.0, SVG Export Plug-In . SVG Version: 6.00 Build 0)  -->
<!DOCTYPE svg PUBLIC "-//W3C//DTD SVG 1.1//EN" "http://www.w3.org/Graphics/SVG/1.1/DTD/svg11.dtd">
<svg version="1.1" id="Lager_1" xmlns="http://www.w3.org/2000/svg" xmlns:xlink="http://www.w3.org/1999/xlink" x="0px" y="0px"
	 viewBox="0 0 65.197 65.197" enable-background="new 0 0 65.197 65.197" xml:space="preserve">
<g>
	<g>
		<path fill="#FFFFFF" d="M33.671,4.183c0.116,0.015,0.348,0.052,0.474,0.075c0.884,0.162,1.973,0.54,2.627,0.932
			c0,0.001,0.002,0.001,0.002,0.001l2.615,1.569l1.76,1.056c0.611,0.367,0.871,1.271,0.569,1.973l-1.743,4.05
			c-0.34,0.791-1.336,1.615-2.176,1.802l-8.583,1.899c-0.194,0.044-0.419,0.066-0.669,0.066c-0.822,0-1.748-0.238-2.301-0.591
			l-5.109-3.268c-0.65-0.415-0.942-1.364-0.639-2.075l1.861-4.341c0-0.001,0-0.001,0-0.001c0.335-0.779,1.275-1.657,2.088-1.967
			c-0.585,0.175-1.166,0.361-1.73,0.579c-1.031,0.4-1.596,0.688-1.576,0.68c0.219-0.095,0.352-0.109,0.41-0.109l0,0
			c0.008,0,0.017,0.002,0.023,0.002c0.004,0.056-0.004,0.19-0.107,0.434l-1.861,4.342c-0.367,0.858-1.275,2.102-1.981,2.713
			l-3.733,3.23c-0.762,0.661-2.004,1.727-2.76,2.37c-0.644,0.548-1.949,0.968-2.84,0.886l-0.209-0.02c-0.001,0-0.002,0-0.002,0
			c-0.321-0.031-0.559-0.157-0.67-0.356c-0.111-0.2-0.094-0.47,0.051-0.759c0.004-0.01-0.111,0.19-0.209,0.388
			c-0.225,0.455-0.35,0.662-0.518,1.035c-0.193,0.423-0.391,0.863-0.562,1.299c-0.051,0.13-0.214,0.522-0.132,0.381
			c0.322-0.616,1.191-1.095,1.949-1.021c0,0,0,0.001,0.001,0.001l0.208,0.02l0,0l0.219,0.021c0.801,0.074,1.629,0.801,1.81,1.585
			l1.696,7.399c0.206,0.902,0.158,2.416-0.104,3.305l-1.915,6.48c-0.197,0.668-0.696,1.283-1.623,1.188
			c-0.683-0.068-1.306-0.158-1.306-0.158c-1.16-0.193-1.607-0.699-1.827-1.281c0.242,0.9,0.527,1.783,0.853,2.645
			c-0.018-0.094-0.008-0.17,0.033-0.227C6.1,42.32,6.285,42.22,6.608,42.22c0.076,0,0.157,0.006,0.241,0.018l1.119,0.146
			c0.888,0.119,2.139,0.785,2.732,1.457l5.695,6.455c0.593,0.672,1.094,1.996,1.094,2.891v2.516c0,0.551-0.208,0.783-0.529,0.602
			c0,0,0.161,0.143,0.58,0.402c0.559,0.348,1.127,0.68,1.709,0.988c-0.689-0.434-0.789-1.123-0.789-1.992v-2.516
			c0-1.145,0.637-1.467,1.391-1.549l7.725-0.828c0.137-0.014,0.291-0.021,0.458-0.021h0.001c0.921,0,2.094,0.227,2.789,0.539
			c0,0,5.634,2.525,6.941,3.115c1.309,0.588,1.389,1.318,1.389,2.143v2.221c0.004,1.123-0.451,1.504-0.995,1.67
			c1.036-0.205,2.053-0.467,3.046-0.783c-0.033,0.012-0.067,0.021-0.096,0.029c-0.764,0.234-0.984-0.203-0.984-0.916v-2.221
			c0.003-1.281,0.736-1.898,1.488-2.553l7.186-6.256c0.705-0.615,2.061-1.342,2.963-1.594l3.592-0.992
			c0.111-0.029,0.221-0.045,0.324-0.045l0,0c0.479,0,0.799,0.322,0.845,0.826c-0.001,0.061,0.146,0.623-0.133,1.604
			c-0.136,0.477-0.46,1.096-0.743,1.572l-0.006,0.092c0.756-1.047,1.443-2.146,2.055-3.291c-0.135,0.014-0.211-0.223-0.176-0.623
			c0.078-0.887,0.234-1.947,0.438-2.637l2.735-9.219c0.137-0.459,0.309-0.189,0.309,0.146c0.012-0.338,0.02-0.678,0.02-1.018
			c0-0.744-0.029-1.479-0.085-2.207c0.009,0.588-0.169,0.77-0.681-0.225l-2.594-5.401c-0.416-0.864-0.912-2.393-1.084-3.336
			l-0.74-4.075c0,0-0.111-0.583-0.148-0.815c-0.037-0.231,0.072-0.419,0.331-0.045c-0.059-0.085-0.117-0.169-0.176-0.253
			c-1.536-2.179-3.371-4.132-5.444-5.8l-0.092-0.073c0.164,0.13,0.355,0.5-0.055,0.337c-0.412-0.165-0.874-0.368-0.874-0.368
			l-4.605-1.821c-0.001,0-0.002,0-0.003,0c-0.92-0.364-2.357-1.074-3.207-1.584c0,0-2.422-1.415-2.919-1.76
			c-0.329-0.229-0.078-0.281,0.362-0.23c0.036,0.005,0.072,0.01,0.11,0.014c0,0-0.036-0.015-0.202-0.053
			c-0.686-0.157-2.904-0.61-4.693-0.691C34.069,4.205,33.812,4.183,33.671,4.183z M40.941,14.107l1.77-4.104
			c0.217-0.508,0.644-0.679,1.205-0.679c0.173,0,0.341,0.031,0.5,0.095c0.001,0,0.001,0,0.002,0.001l6.975,2.757
			c0.886,0.351,1.761,0.853,2.404,1.604c0.156,0.183,0.604,1.099,0.789,2.12l1.037,5.702c0.133,0.729-0.336,1.45-1.047,1.636
			c-0.014,0.002-0.029,0.004-0.044,0.007l-4.837,1.071c-0.073,0.017-0.146,0.036-0.221,0.059c-0.063,0.006-0.127,0.011-0.193,0.011
			c-0.766,0-1.639-0.369-2.074-0.876l-0.025-0.029c0-0.001,0-0.001,0-0.001l-5.729-6.667c-0.001-0.001-0.001-0.001-0.002-0.001
			l-0.112-0.132C40.797,16.051,40.615,14.873,40.941,14.107z M29.425,18.497c0,0,7.237-1.527,8.778-1.854
			c1.096-0.233,2.069,0.288,2.512,0.802c0,0,4.755,5.516,5.73,6.669c0.975,1.153,0.804,1.87,0.549,2.68l-2.527,8.037
			c-0.253,0.801-1.16,1.619-1.983,1.785l-9.042,1.828c-0.124,0.023-0.26,0.037-0.403,0.037c-0.79,0-1.696-0.375-2.156-0.891
			l-5.567-6.256c-0.562-0.631-0.814-1.84-0.553-2.643l2.721-8.348C27.718,19.62,28.338,18.802,29.425,18.497z M11.148,22.698
			c-0.188-0.799,0.145-1.931,0.709-2.42l6.402-5.542c0.328-0.283,0.809-0.446,1.318-0.446h0.001c0.389,0,0.757,0.099,1.034,0.275
			l5.107,3.266c0,0.001,0.002,0.001,0.002,0.001l0.059,0.038c0.666,0.426,1.022,1.421,0.777,2.174l-2.789,8.561
			c-0.255,0.779-1.16,1.498-1.978,1.568l-6.985,0.604l-0.325,0.029c-0.041,0.002-0.081,0.006-0.121,0.006
			c-0.738,0-1.445-0.555-1.61-1.262L11.148,22.698z M27.473,49.845c-1.184,0.156-6.756,0.73-7.941,0.838
			c-1.185,0.109-1.896-0.451-2.406-1.029l-5.85-6.633c-0.563-0.637-0.715-1.506-0.438-2.5c0.276-0.992,2.129-7.205,2.129-7.205
			c0.231-0.781,1.112-1.5,1.924-1.57c0,0,5.675-0.488,6.985-0.604c1.313-0.117,2.111,0.184,2.713,0.84
			c0.604,0.656,5.145,5.721,5.922,6.652c0.777,0.93,0.883,1.691,0.646,2.699c-0.236,1.004-1.812,6.9-1.812,6.9
			C29.139,49.021,28.656,49.689,27.473,49.845z M47.686,47.451l-6.711,5.85c-0.388,0.338-1.021,0.549-1.649,0.549
			c-0.333,0-0.641-0.059-0.891-0.172l-7.212-3.236c-0.705-0.316-1.134-1.213-0.938-1.959l1.812-6.902l0,0l0.101-0.381
			c0.211-0.805,1.077-1.631,1.892-1.803l8.596-1.814c0.103-0.02,0.211-0.031,0.322-0.031l0,0c0.722,0,1.465,0.436,1.77,1.035
			l3.228,6.367c0,0,0,0,0.001,0.002l0.122,0.24C48.482,45.9,48.281,46.933,47.686,47.451z M55.096,44.255
			c0,0-2.352,0.674-4.012,1.104c-1.291,0.334-1.93-0.283-2.215-0.844l-3.228-6.369c-0.401-0.791-0.516-2.176-0.249-3.021
			l2.529-8.039c0.234-0.746,1.033-1.512,1.805-1.764c0.069-0.01,0.139-0.018,0.205-0.033l4.814-1.087
			c0.015-0.004,0.027-0.009,0.041-0.012c0.094-0.018,0.188-0.03,0.288-0.03c0.705,0,1.425,0.433,1.711,1.028l2.595,5.402
			c0.387,0.805,0.5,2.207,0.246,3.063c0,0-2.127,7.273-2.577,8.686C56.599,43.75,55.913,44.031,55.096,44.255z"/>
	</g>
	<g>
		<path fill="#FFE57E" d="M60.256,30.167c0.603,1.168,0.741,0.717,0.66-0.119l-0.085-0.738c-0.527-4.58-2.19-9.01-4.81-12.813
			c-0.26-0.377-0.369-0.189-0.332,0.043s0.148,0.815,0.148,0.815l0.74,4.075c0.172,0.943,0.668,2.472,1.084,3.336L60.256,30.167z"/>
		<path fill="#FFE57E" d="M50.309,10.369c-3.092-2.464-6.716-4.283-10.52-5.275c-0.811-0.21-1.641-0.267-1.144,0.079
			c0.497,0.345,2.919,1.76,2.919,1.76c0.85,0.51,2.287,1.22,3.207,1.584c0.001,0,0.002,0,0.003,0l4.605,1.821
			c0,0,0.462,0.203,0.874,0.368C50.664,10.869,50.473,10.499,50.309,10.369z"/>
		<path fill="#FFE57E" d="M55.678,45.146L55.678,45.146c-0.104,0-0.213,0.016-0.324,0.045l-3.592,0.992
			c-0.902,0.252-2.258,0.979-2.963,1.594l-7.186,6.256c-0.752,0.654-1.485,1.271-1.488,2.553v2.221c0,0.713,0.221,1.15,0.984,0.916
			c0.384-0.117,1.199-0.396,1.785-0.627c4.852-1.891,9.148-5.125,12.322-9.285c0.236-0.309,0.951-1.457,1.173-2.234
			c0.278-0.98,0.132-1.543,0.133-1.604C56.477,45.468,56.156,45.146,55.678,45.146z"/>
		<path fill="#FFE57E" d="M25.314,31.335l5.567,6.256c0.46,0.516,1.366,0.891,2.156,0.891c0.144,0,0.279-0.014,0.403-0.037
			l9.042-1.828c0.823-0.166,1.73-0.984,1.983-1.785l2.527-8.037c0.255-0.811,0.426-1.527-0.549-2.68
			c-0.976-1.153-5.73-6.669-5.73-6.669c-0.442-0.514-1.416-1.035-2.512-0.802c-1.541,0.326-8.778,1.854-8.778,1.854
			c-1.087,0.305-1.707,1.123-1.942,1.848l-2.721,8.348C24.5,29.496,24.753,30.705,25.314,31.335z"/>
		<path fill="#FFE57E" d="M9.905,40.246l1.915-6.48c0.262-0.889,0.31-2.402,0.104-3.305l-1.696-7.399
			c-0.181-0.784-1.009-1.511-1.81-1.585l-0.219-0.021l0,0l-0.208-0.02c-0.001,0-0.001-0.001-0.001-0.001
			c-0.791-0.076-1.709,0.447-1.995,1.102l-0.275,0.8c-1.024,2.973-1.544,6.088-1.544,9.262c0,2.162,0.245,4.32,0.729,6.414
			l0.188,0.811c0.197,0.652,0.613,1.24,1.885,1.451c0,0,0.623,0.09,1.306,0.158C9.209,41.529,9.708,40.914,9.905,40.246z"/>
		<path fill="#FFE57E" d="M55.075,24.159c-0.1,0-0.194,0.013-0.288,0.03c-0.014,0.003-0.026,0.008-0.041,0.012l-4.814,1.087
			c-0.066,0.016-0.136,0.023-0.205,0.033c-0.771,0.252-1.57,1.018-1.805,1.764l-2.529,8.039c-0.267,0.846-0.152,2.23,0.249,3.021
			l3.228,6.369c0.285,0.561,0.924,1.178,2.215,0.844c1.66-0.43,4.012-1.104,4.012-1.104c0.817-0.225,1.503-0.506,1.954-1.918
			c0.45-1.412,2.577-8.686,2.577-8.686c0.254-0.855,0.141-2.258-0.246-3.063l-2.595-5.402C56.5,24.592,55.78,24.159,55.075,24.159z"
			/>
		<path fill="#E6007E" d="M58.008,45.601c0.148-0.287,0.842-1.719,1.415-3.355c0.61-1.744,1.063-3.908,1.293-5.465
			c0.151-1.031,0.248-2.08,0.286-3.131c0.013-0.352-0.168-0.654-0.309-0.18l-2.735,9.219c-0.204,0.689-0.36,1.75-0.438,2.637
			C57.463,45.98,57.699,46.197,58.008,45.601z"/>
		<path fill="#FFE57E" d="M21.137,13.747l5.109,3.268c0.553,0.353,1.479,0.591,2.301,0.591c0.25,0,0.475-0.022,0.669-0.066
			l8.583-1.899c0.84-0.187,1.836-1.011,2.176-1.802l1.743-4.05c0.302-0.702,0.042-1.605-0.569-1.973l-1.76-1.056L36.773,5.19
			c0,0-0.002,0-0.002-0.001c-0.799-0.479-2.26-0.942-3.188-1.012h-0.001c-0.012,0-0.165-0.002-0.985-0.002
			c-2.282,0-4.554,0.271-6.751,0.807c-1.006,0.245-1.314,0.347-1.317,0.347c-0.83,0.278-1.824,1.195-2.17,2.001c0,0,0,0,0,0.001
			l-1.861,4.341C20.194,12.383,20.486,13.332,21.137,13.747z"/>
		<path fill="#E6007E" d="M42.711,10.004l-1.77,4.104c-0.326,0.766-0.145,1.943,0.397,2.573l0.112,0.132
			c0.001,0,0.001,0,0.002,0.001l5.729,6.667c0,0,0,0,0,0.001l0.025,0.029c0.436,0.507,1.309,0.876,2.074,0.876
			c0.066,0,0.131-0.005,0.193-0.011c0.074-0.022,0.147-0.042,0.221-0.059l4.837-1.071c0.015-0.003,0.03-0.005,0.044-0.007
			c0.711-0.186,1.18-0.907,1.047-1.636l-1.037-5.702c-0.186-1.021-0.633-1.938-0.789-2.12c-0.644-0.751-1.519-1.253-2.404-1.604
			l-6.975-2.757C44.417,9.42,44.417,9.42,44.416,9.42c-0.159-0.063-0.327-0.095-0.5-0.095C43.354,9.325,42.928,9.496,42.711,10.004z
			"/>
		<path fill="#FFE57E" d="M27.473,49.845c1.184-0.156,1.666-0.824,1.872-1.611c0,0,1.575-5.896,1.812-6.9
			c0.236-1.008,0.131-1.77-0.646-2.699c-0.777-0.932-5.318-5.996-5.922-6.652c-0.602-0.656-1.4-0.957-2.713-0.84
			c-1.311,0.115-6.985,0.604-6.985,0.604c-0.812,0.07-1.692,0.789-1.924,1.57c0,0-1.853,6.213-2.129,7.205
			c-0.276,0.994-0.124,1.863,0.438,2.5l5.85,6.633c0.51,0.578,1.222,1.139,2.406,1.029C20.717,50.576,26.289,50.001,27.473,49.845z"
			/>
		<path fill="#E6007E" d="M10.701,43.841c-0.594-0.672-1.845-1.338-2.732-1.457L6.85,42.238c-0.084-0.012-0.165-0.018-0.241-0.018
			c-0.323,0-0.509,0.1-0.573,0.191c-0.053,0.072-0.056,0.18-0.008,0.32l0.265,0.643c2.046,4.988,5.437,9.256,9.833,12.387
			c0.19,0.135,0.513,0.363,0.836,0.543c0.321,0.182,0.529-0.051,0.529-0.602v-2.516c0-0.895-0.501-2.219-1.094-2.891L10.701,43.841z
			"/>
		<path fill="#FFE57E" d="M37.766,54.443c-1.308-0.59-6.941-3.115-6.941-3.115c-0.695-0.313-1.868-0.539-2.789-0.539h-0.001
			c-0.167,0-0.321,0.008-0.458,0.021l-7.725,0.828c-0.754,0.082-1.391,0.404-1.391,1.549v2.516c0,0.889,0.1,1.594,0.833,2.025
			c0.212,0.125,0.535,0.268,0.535,0.268c2.413,1.215,4.981,2.078,7.636,2.563c1.688,0.307,3.414,0.463,5.133,0.463
			c1.539,0,3.086-0.125,4.598-0.371l0.801-0.131c0.613-0.141,1.163-0.48,1.158-1.713v-2.221
			C39.154,55.761,39.074,55.031,37.766,54.443z"/>
		<path fill="#E6007E" d="M44.775,38.585c-0.305-0.6-1.048-1.035-1.77-1.035l0,0c-0.111,0-0.22,0.012-0.322,0.031l-8.596,1.814
			c-0.814,0.172-1.681,0.998-1.892,1.803l-0.101,0.381l0,0l-1.812,6.902c-0.195,0.746,0.233,1.643,0.938,1.959l7.212,3.236
			c0.25,0.113,0.558,0.172,0.891,0.172c0.629,0,1.262-0.211,1.649-0.549l6.711-5.85c0.596-0.518,0.797-1.551,0.44-2.256l-0.122-0.24
			c-0.001-0.002-0.001-0.002-0.001-0.002L44.775,38.585z"/>
		<path fill="#FFE57E" d="M11.131,19.604c0.756-0.644,1.998-1.709,2.76-2.37l3.733-3.23c0.706-0.611,1.614-1.854,1.981-2.713
			l1.861-4.342c0.104-0.243,0.111-0.378,0.107-0.434c-0.007,0-0.016-0.002-0.023-0.002l0,0c-0.059,0-0.191,0.015-0.41,0.109
			c-0.021,0.009-1.98,0.852-3.605,1.87c-1.836,1.148-3.541,2.51-5.072,4.047c-1.379,1.385-2.62,2.916-3.687,4.551
			c-0.792,1.214-1.312,2.254-1.315,2.265c-0.145,0.289-0.162,0.559-0.051,0.759c0.111,0.199,0.349,0.325,0.67,0.356
			c0,0,0.001,0,0.002,0l0.209,0.02C9.182,20.571,10.487,20.151,11.131,19.604z"/>
		<path fill="#E6007E" d="M21.792,30.173c0.817-0.07,1.723-0.789,1.978-1.568l2.789-8.561c0.245-0.753-0.111-1.748-0.777-2.174
			l-0.059-0.038c0,0-0.002,0-0.002-0.001l-5.107-3.266c-0.277-0.177-0.646-0.275-1.034-0.275h-0.001c-0.51,0-0.99,0.163-1.318,0.446
			l-6.402,5.542c-0.564,0.489-0.896,1.621-0.709,2.42l1.602,6.852c0.165,0.707,0.872,1.262,1.61,1.262
			c0.04,0,0.08-0.004,0.121-0.006l0.325-0.029l0,0L21.792,30.173z"/>
	</g>
</g>
</svg>
