<?xml version="1.0" encoding="utf-8"?>
<!-- Generator: Adobe Illustrator 16.0.0, SVG Export Plug-In . SVG Version: 6.00 Build 0)  -->
<!DOCTYPE svg PUBLIC "-//W3C//DTD SVG 1.1//EN" "http://www.w3.org/Graphics/SVG/1.1/DTD/svg11.dtd">
<svg version="1.1" id="Lager_1" xmlns="http://www.w3.org/2000/svg" xmlns:xlink="http://www.w3.org/1999/xlink" x="0px" y="0px"
	 viewBox="0 0 65.197 65.197" enable-background="new 0 0 65.197 65.197" xml:space="preserve">
<g>
	<g>
		<path fill="#EBF0BE" d="M33.671,4.184c0.115,0.014,0.348,0.051,0.473,0.074c0.885,0.163,1.975,0.539,2.629,0.933l0,0l2.615,1.569
			l1.76,1.057c0.611,0.366,0.871,1.269,0.57,1.972l-1.744,4.051c-0.34,0.79-1.336,1.614-2.176,1.8l-8.583,1.901
			c-0.194,0.042-0.419,0.064-0.668,0.064c-0.823,0-1.749-0.237-2.302-0.59l-5.109-3.268c-0.65-0.415-0.941-1.365-0.639-2.074
			l1.861-4.342c0-0.001,0-0.001,0-0.001c0.335-0.78,1.275-1.658,2.089-1.966c-0.586,0.175-1.166,0.359-1.731,0.578
			c-1.031,0.401-1.596,0.688-1.576,0.68c0.219-0.094,0.352-0.108,0.41-0.108l0,0c0.01,0,0.017,0,0.023,0
			c0.004,0.057-0.004,0.191-0.107,0.436l-1.86,4.341c-0.368,0.859-1.276,2.101-1.982,2.712l-3.733,3.232
			c-0.762,0.659-2.003,1.726-2.758,2.369c-0.646,0.548-1.95,0.969-2.842,0.886l-0.209-0.02c0,0-0.001,0-0.002-0.001
			c-0.32-0.029-0.559-0.156-0.67-0.356c-0.111-0.199-0.094-0.469,0.051-0.758c0.004-0.009-0.111,0.19-0.209,0.388
			c-0.225,0.455-0.35,0.662-0.518,1.034c-0.193,0.425-0.39,0.864-0.561,1.3c-0.052,0.129-0.215,0.523-0.133,0.382
			c0.322-0.617,1.191-1.096,1.949-1.021c0,0,0,0,0.001,0l0.208,0.019l0,0l0.219,0.021c0.801,0.075,1.63,0.802,1.811,1.585l1.695,7.4
			c0.207,0.902,0.16,2.414-0.103,3.303l-1.915,6.482c-0.197,0.666-0.697,1.281-1.623,1.188c-0.684-0.07-1.307-0.16-1.307-0.16
			c-1.159-0.191-1.607-0.699-1.826-1.281c0.242,0.9,0.526,1.783,0.853,2.646c-0.019-0.096-0.009-0.172,0.032-0.229
			c0.065-0.092,0.25-0.189,0.573-0.189c0.077,0,0.157,0.004,0.241,0.016l1.119,0.148c0.889,0.117,2.14,0.783,2.732,1.457
			l5.695,6.453c0.594,0.672,1.094,1.996,1.094,2.891v2.516c0,0.553-0.207,0.783-0.529,0.604c0,0,0.161,0.141,0.58,0.4
			c0.559,0.348,1.127,0.68,1.709,0.99c-0.689-0.434-0.789-1.125-0.789-1.994v-2.516c0-1.145,0.637-1.467,1.391-1.547l7.725-0.828
			c0.137-0.016,0.291-0.021,0.459-0.021l0,0c0.922,0,2.095,0.227,2.789,0.537c0,0,5.635,2.525,6.941,3.115
			c1.309,0.59,1.389,1.318,1.389,2.143v2.223c0.006,1.121-0.449,1.502-0.994,1.668c1.035-0.205,2.053-0.467,3.045-0.783
			c-0.033,0.012-0.066,0.021-0.094,0.031c-0.764,0.234-0.986-0.205-0.986-0.916v-2.223c0.004-1.281,0.738-1.896,1.488-2.551
			l7.186-6.258c0.705-0.613,2.061-1.342,2.963-1.592l3.594-0.992c0.109-0.031,0.219-0.047,0.322-0.047l0,0
			c0.479,0,0.799,0.322,0.846,0.826c0,0.063,0.145,0.623-0.133,1.604c-0.137,0.479-0.459,1.096-0.742,1.574l-0.008,0.09
			c0.758-1.045,1.443-2.145,2.055-3.291c-0.135,0.014-0.209-0.221-0.174-0.623c0.076-0.887,0.232-1.947,0.438-2.635l2.734-9.219
			c0.137-0.459,0.309-0.189,0.309,0.146c0.012-0.34,0.02-0.68,0.02-1.02c0-0.742-0.027-1.479-0.084-2.207
			c0.008,0.59-0.168,0.77-0.68-0.225l-2.596-5.399c-0.416-0.865-0.912-2.393-1.082-3.337l-0.742-4.075c0,0-0.111-0.583-0.148-0.816
			c-0.037-0.231,0.072-0.418,0.332-0.044c-0.059-0.085-0.117-0.168-0.176-0.253c-1.537-2.179-3.371-4.132-5.445-5.8l-0.092-0.073
			c0.164,0.131,0.355,0.5-0.055,0.336s-0.873-0.368-0.873-0.368l-4.605-1.819c-0.002-0.001-0.002-0.001-0.002-0.001
			c-0.922-0.365-2.359-1.074-3.207-1.583c0,0-2.422-1.417-2.92-1.761c-0.328-0.229-0.078-0.281,0.363-0.229
			c0.035,0.003,0.072,0.008,0.109,0.013c0,0-0.037-0.016-0.201-0.052c-0.688-0.157-2.906-0.611-4.695-0.692
			C34.07,4.205,33.812,4.184,33.671,4.184z M40.941,14.106l1.771-4.104c0.215-0.506,0.643-0.678,1.203-0.678
			c0.174,0,0.342,0.031,0.502,0.095l0,0l6.975,2.758c0.887,0.351,1.762,0.853,2.404,1.604c0.156,0.183,0.604,1.098,0.789,2.12
			l1.037,5.703c0.133,0.728-0.334,1.448-1.047,1.635c-0.014,0.003-0.029,0.004-0.043,0.007l-4.838,1.072
			c-0.072,0.017-0.146,0.035-0.219,0.059c-0.064,0.006-0.127,0.01-0.195,0.01c-0.766,0-1.639-0.368-2.074-0.876l-0.025-0.029l0,0
			l-5.729-6.668c0,0,0-0.001-0.002-0.001l-0.111-0.131C40.796,16.05,40.615,14.872,40.941,14.106z M29.425,18.497
			c0,0,7.237-1.527,8.778-1.854c1.096-0.232,2.07,0.288,2.512,0.804c0,0,4.756,5.514,5.73,6.667c0.975,1.153,0.805,1.872,0.551,2.68
			l-2.529,8.039c-0.252,0.799-1.16,1.617-1.982,1.783l-9.043,1.828c-0.123,0.025-0.26,0.039-0.402,0.039
			c-0.791,0-1.697-0.375-2.156-0.893l-5.568-6.254c-0.562-0.631-0.814-1.842-0.553-2.643l2.721-8.35
			C27.718,19.62,28.338,18.802,29.425,18.497z M11.148,22.698c-0.188-0.8,0.145-1.931,0.709-2.419l6.402-5.542
			c0.328-0.285,0.809-0.448,1.319-0.448l0,0c0.389,0,0.757,0.099,1.034,0.276l5.107,3.266c0.002,0,0.002,0,0.002,0.002l0.059,0.036
			c0.667,0.427,1.022,1.422,0.777,2.174l-2.789,8.561c-0.254,0.781-1.16,1.498-1.978,1.568l-6.985,0.605l-0.325,0.027
			c-0.04,0.004-0.081,0.006-0.12,0.006c-0.738,0-1.446-0.555-1.611-1.262L11.148,22.698z M27.473,49.846
			c-1.184,0.156-6.756,0.73-7.941,0.838c-1.185,0.107-1.896-0.453-2.406-1.029l-5.85-6.635c-0.563-0.637-0.715-1.504-0.438-2.498
			s2.129-7.205,2.129-7.205c0.231-0.781,1.112-1.502,1.925-1.572c0,0,5.674-0.486,6.985-0.604s2.11,0.184,2.714,0.84
			c0.602,0.656,5.142,5.721,5.919,6.652s0.885,1.693,0.648,2.699s-1.812,6.902-1.812,6.902
			C29.139,49.022,28.656,49.69,27.473,49.846z M47.685,47.452l-6.711,5.848c-0.387,0.34-1.02,0.551-1.648,0.551
			c-0.334,0-0.641-0.061-0.891-0.172l-7.213-3.238c-0.705-0.314-1.133-1.213-0.938-1.959l1.811-6.902c0.002,0,0.002,0,0.002,0
			l0.1-0.379c0.211-0.805,1.078-1.631,1.891-1.803l8.596-1.814c0.104-0.021,0.213-0.033,0.324-0.033l0,0
			c0.721,0,1.465,0.436,1.768,1.035l3.229,6.367v0.002l0.123,0.24C48.482,45.899,48.281,46.932,47.685,47.452z M55.095,44.254
			c0,0-2.352,0.674-4.012,1.105c-1.289,0.334-1.93-0.283-2.213-0.846l-3.229-6.367c-0.402-0.793-0.516-2.178-0.25-3.023l2.529-8.039
			c0.234-0.746,1.035-1.51,1.805-1.762c0.07-0.012,0.139-0.02,0.205-0.035l4.814-1.087c0.016-0.002,0.027-0.008,0.043-0.01
			c0.092-0.018,0.188-0.031,0.287-0.031c0.705,0,1.424,0.433,1.711,1.029l2.596,5.4c0.385,0.805,0.498,2.207,0.244,3.063
			c0,0-2.127,7.275-2.576,8.688C56.599,43.749,55.914,44.03,55.095,44.254z"/>
	</g>
	<g>
		<path fill="#D2E182" d="M60.257,30.167c0.602,1.17,0.74,0.717,0.66-0.119l-0.086-0.736c-0.527-4.582-2.191-9.011-4.811-12.814
			c-0.26-0.377-0.369-0.189-0.332,0.042c0.037,0.233,0.148,0.816,0.148,0.816l0.742,4.075c0.17,0.944,0.666,2.472,1.082,3.337
			L60.257,30.167z"/>
		<path fill="#D2E182" d="M50.308,10.369c-3.092-2.464-6.715-4.283-10.52-5.274c-0.811-0.212-1.641-0.267-1.143,0.078
			c0.498,0.344,2.92,1.761,2.92,1.761c0.848,0.509,2.285,1.218,3.207,1.583c0,0,0,0,0.002,0.001l4.605,1.819
			c0,0,0.463,0.204,0.873,0.368S50.472,10.5,50.308,10.369z"/>
		<path fill="#D2E182" d="M55.677,45.145L55.677,45.145c-0.104,0-0.213,0.016-0.322,0.047l-3.594,0.992
			c-0.902,0.25-2.258,0.979-2.963,1.592l-7.186,6.258c-0.75,0.654-1.484,1.27-1.488,2.551v2.223c0,0.711,0.223,1.15,0.986,0.916
			c0.383-0.117,1.197-0.398,1.785-0.627c4.852-1.893,9.146-5.125,12.32-9.287c0.236-0.309,0.953-1.457,1.174-2.234
			c0.277-0.98,0.133-1.541,0.133-1.604C56.476,45.467,56.156,45.145,55.677,45.145z"/>
		<path fill="#D2E182" d="M25.314,31.336l5.568,6.254c0.459,0.518,1.365,0.893,2.156,0.893c0.143,0,0.279-0.014,0.402-0.039
			l9.043-1.828c0.822-0.166,1.73-0.984,1.982-1.783l2.529-8.039c0.254-0.809,0.424-1.527-0.551-2.68
			c-0.975-1.153-5.73-6.667-5.73-6.667c-0.441-0.516-1.416-1.036-2.512-0.804c-1.541,0.327-8.778,1.854-8.778,1.854
			c-1.087,0.305-1.707,1.123-1.942,1.847l-2.721,8.35C24.5,29.495,24.753,30.706,25.314,31.336z"/>
		<path fill="#D2E182" d="M9.906,40.247l1.915-6.482c0.263-0.889,0.31-2.4,0.103-3.303l-1.695-7.4
			c-0.181-0.783-1.01-1.51-1.811-1.585l-0.219-0.021l0,0l-0.208-0.019c-0.001,0-0.001,0-0.001,0
			c-0.791-0.076-1.709,0.445-1.995,1.101l-0.275,0.8c-1.024,2.972-1.544,6.089-1.544,9.261c0,2.164,0.245,4.322,0.729,6.414
			l0.188,0.813c0.197,0.652,0.614,1.238,1.885,1.449c0,0,0.623,0.09,1.307,0.16C9.209,41.528,9.709,40.913,9.906,40.247z"/>
		<path fill="#D2E182" d="M55.076,24.159c-0.1,0-0.195,0.014-0.287,0.031c-0.016,0.002-0.027,0.008-0.043,0.01l-4.814,1.087
			c-0.066,0.016-0.135,0.023-0.205,0.035c-0.77,0.252-1.57,1.016-1.805,1.762l-2.529,8.039c-0.266,0.846-0.152,2.23,0.25,3.023
			l3.229,6.367c0.283,0.563,0.924,1.18,2.213,0.846c1.66-0.432,4.012-1.105,4.012-1.105c0.818-0.225,1.504-0.506,1.955-1.916
			c0.449-1.412,2.576-8.688,2.576-8.688c0.254-0.855,0.141-2.258-0.244-3.063l-2.596-5.4C56.5,24.592,55.781,24.159,55.076,24.159z"
			/>
		<path fill="#1E6E32" d="M58.007,45.602c0.148-0.287,0.844-1.719,1.416-3.355c0.609-1.744,1.063-3.91,1.293-5.467
			c0.152-1.029,0.248-2.08,0.285-3.129c0.014-0.352-0.168-0.654-0.309-0.18l-2.734,9.219c-0.205,0.688-0.361,1.748-0.438,2.635
			C57.462,45.979,57.701,46.198,58.007,45.602z"/>
		<path fill="#D2E182" d="M21.137,13.747l5.109,3.268c0.553,0.353,1.479,0.59,2.302,0.59c0.249,0,0.474-0.022,0.668-0.064
			l8.583-1.901c0.84-0.186,1.836-1.01,2.176-1.8l1.744-4.051c0.301-0.703,0.041-1.605-0.57-1.972l-1.76-1.057L36.773,5.19l0,0
			c-0.801-0.48-2.26-0.943-3.189-1.012l0,0c-0.012,0-0.166-0.004-0.984-0.004c-2.283,0-4.555,0.272-6.751,0.809
			c-1.007,0.244-1.315,0.346-1.318,0.347c-0.83,0.278-1.823,1.194-2.17,2c0,0,0,0,0,0.001l-1.861,4.342
			C20.195,12.382,20.486,13.332,21.137,13.747z"/>
		<path fill="#1E6E32" d="M42.712,10.003l-1.771,4.104c-0.326,0.766-0.145,1.943,0.398,2.575l0.111,0.131
			c0.002,0,0.002,0.001,0.002,0.001l5.729,6.668l0,0l0.025,0.029c0.436,0.508,1.309,0.876,2.074,0.876
			c0.068,0,0.131-0.004,0.195-0.01c0.072-0.023,0.146-0.042,0.219-0.059l4.838-1.072c0.014-0.003,0.029-0.004,0.043-0.007
			c0.713-0.187,1.18-0.907,1.047-1.635l-1.037-5.703c-0.186-1.022-0.633-1.938-0.789-2.12c-0.643-0.751-1.518-1.253-2.404-1.604
			L44.417,9.42l0,0c-0.16-0.063-0.328-0.095-0.502-0.095C43.355,9.325,42.927,9.497,42.712,10.003z"/>
		<path fill="#D2E182" d="M27.473,49.846c1.184-0.156,1.666-0.824,1.873-1.611c0,0,1.576-5.896,1.812-6.902s0.129-1.768-0.648-2.699
			s-5.318-5.996-5.919-6.652c-0.604-0.656-1.402-0.957-2.714-0.84s-6.985,0.604-6.985,0.604c-0.813,0.07-1.693,0.791-1.925,1.572
			c0,0-1.853,6.211-2.129,7.205s-0.124,1.861,0.438,2.498l5.85,6.635c0.51,0.576,1.222,1.137,2.406,1.029
			C20.717,50.577,26.289,50.002,27.473,49.846z"/>
		<path fill="#1E6E32" d="M10.701,43.842c-0.593-0.674-1.844-1.34-2.732-1.457L6.85,42.237c-0.084-0.012-0.164-0.016-0.241-0.016
			c-0.323,0-0.508,0.098-0.573,0.189c-0.053,0.074-0.056,0.182-0.008,0.32l0.265,0.645c2.046,4.986,5.437,9.254,9.833,12.385
			c0.191,0.137,0.514,0.363,0.836,0.545c0.322,0.18,0.529-0.051,0.529-0.604v-2.516c0-0.895-0.5-2.219-1.094-2.891L10.701,43.842z"
			/>
		<path fill="#D2E182" d="M37.765,54.442c-1.307-0.59-6.941-3.115-6.941-3.115c-0.693-0.311-1.867-0.537-2.789-0.537l0,0
			c-0.168,0-0.322,0.006-0.459,0.021l-7.725,0.828c-0.754,0.08-1.391,0.402-1.391,1.547v2.516c0,0.889,0.1,1.594,0.834,2.025
			c0.211,0.125,0.534,0.27,0.534,0.27c2.413,1.215,4.982,2.076,7.637,2.563c1.687,0.307,3.413,0.463,5.133,0.463
			c1.537,0,3.084-0.127,4.598-0.373l0.799-0.129c0.615-0.143,1.164-0.482,1.158-1.713v-2.223
			C39.154,55.76,39.074,55.032,37.765,54.442z"/>
		<path fill="#1E6E32" d="M44.775,38.584c-0.303-0.6-1.047-1.035-1.768-1.035l0,0c-0.111,0-0.221,0.012-0.324,0.033l-8.596,1.814
			c-0.813,0.172-1.68,0.998-1.891,1.803l-0.1,0.379c0,0,0,0-0.002,0l-1.811,6.902c-0.195,0.746,0.232,1.645,0.938,1.959l7.213,3.238
			c0.25,0.111,0.557,0.172,0.891,0.172c0.629,0,1.262-0.211,1.648-0.551l6.711-5.848c0.596-0.52,0.797-1.553,0.441-2.258
			l-0.123-0.24v-0.002L44.775,38.584z"/>
		<path fill="#D2E182" d="M11.133,19.604c0.755-0.644,1.996-1.71,2.758-2.369l3.733-3.232c0.706-0.611,1.614-1.853,1.982-2.712
			l1.86-4.341c0.104-0.244,0.111-0.379,0.107-0.436c-0.007,0-0.014,0-0.023,0l0,0c-0.059,0-0.191,0.015-0.41,0.108
			c-0.02,0.008-1.98,0.853-3.605,1.869c-1.834,1.148-3.541,2.512-5.072,4.049c-1.379,1.383-2.62,2.915-3.687,4.55
			c-0.792,1.214-1.311,2.254-1.315,2.265c-0.145,0.289-0.162,0.559-0.051,0.758c0.111,0.2,0.35,0.327,0.67,0.356
			c0.001,0.001,0.002,0.001,0.002,0.001l0.209,0.02C9.183,20.572,10.487,20.151,11.133,19.604z"/>
		<path fill="#1E6E32" d="M21.792,30.172c0.817-0.07,1.724-0.787,1.978-1.568l2.789-8.561c0.245-0.752-0.11-1.747-0.777-2.174
			l-0.059-0.036c0-0.002,0-0.002-0.002-0.002l-5.107-3.266c-0.277-0.178-0.646-0.276-1.034-0.276l0,0
			c-0.511,0-0.991,0.163-1.319,0.448l-6.402,5.542c-0.564,0.488-0.896,1.619-0.709,2.419l1.602,6.851
			c0.165,0.707,0.873,1.262,1.611,1.262c0.039,0,0.08-0.002,0.12-0.006l0.325-0.027l0,0L21.792,30.172z"/>
	</g>
</g>
</svg>
