<?xml version="1.0" encoding="utf-8"?>
<!-- Generator: Adobe Illustrator 16.0.0, SVG Export Plug-In . SVG Version: 6.00 Build 0)  -->
<!DOCTYPE svg PUBLIC "-//W3C//DTD SVG 1.1//EN" "http://www.w3.org/Graphics/SVG/1.1/DTD/svg11.dtd">
<svg version="1.1" id="Lager_1" xmlns="http://www.w3.org/2000/svg" xmlns:xlink="http://www.w3.org/1999/xlink" x="0px" y="0px"
	 viewBox="0 0 65.197 65.197" enable-background="new 0 0 65.197 65.197" xml:space="preserve">
<g>
	<g>
		<path fill="#FEF5B2" d="M33.671,4.184c0.116,0.014,0.348,0.051,0.474,0.074c0.884,0.163,1.973,0.539,2.627,0.933h0.002
			l2.615,1.569l1.76,1.057c0.611,0.366,0.871,1.269,0.569,1.972l-1.743,4.051c-0.34,0.79-1.336,1.614-2.176,1.8l-8.583,1.901
			c-0.194,0.042-0.419,0.064-0.669,0.064c-0.822,0-1.748-0.237-2.301-0.59l-5.109-3.268c-0.65-0.415-0.942-1.365-0.639-2.074
			l1.861-4.342c0-0.001,0-0.001,0-0.001c0.335-0.78,1.275-1.658,2.088-1.966c-0.585,0.175-1.166,0.359-1.73,0.578
			c-1.031,0.401-1.596,0.688-1.576,0.68c0.219-0.094,0.352-0.108,0.41-0.108l0,0c0.008,0,0.017,0,0.023,0
			c0.004,0.057-0.004,0.191-0.107,0.436l-1.861,4.341c-0.367,0.859-1.275,2.101-1.981,2.712l-3.733,3.232
			c-0.762,0.659-2.004,1.726-2.76,2.369c-0.644,0.548-1.949,0.969-2.84,0.886l-0.209-0.02c-0.001,0-0.002,0-0.002-0.001
			c-0.321-0.029-0.559-0.156-0.67-0.356c-0.111-0.199-0.094-0.469,0.051-0.758c0.004-0.009-0.111,0.19-0.209,0.388
			c-0.225,0.455-0.35,0.662-0.518,1.034c-0.193,0.425-0.391,0.864-0.562,1.3c-0.051,0.129-0.214,0.523-0.132,0.382
			c0.322-0.617,1.191-1.096,1.949-1.021c0,0,0,0,0.001,0l0.208,0.019l0,0l0.219,0.021c0.801,0.075,1.629,0.802,1.81,1.585
			l1.696,7.401c0.206,0.9,0.158,2.414-0.104,3.303l-1.915,6.48c-0.197,0.668-0.696,1.283-1.623,1.189
			c-0.683-0.07-1.306-0.16-1.306-0.16c-1.16-0.193-1.607-0.699-1.827-1.281c0.242,0.9,0.527,1.783,0.853,2.646
			c-0.018-0.096-0.008-0.174,0.033-0.23c0.064-0.09,0.25-0.188,0.573-0.188c0.076,0,0.157,0.004,0.241,0.016l1.119,0.148
			c0.888,0.115,2.139,0.783,2.732,1.455l5.695,6.455c0.593,0.672,1.094,1.996,1.094,2.891v2.516c0,0.551-0.208,0.783-0.529,0.604
			c0,0,0.161,0.141,0.58,0.4c0.559,0.348,1.127,0.678,1.709,0.988c-0.689-0.434-0.789-1.123-0.789-1.992v-2.516
			c0-1.145,0.637-1.467,1.391-1.549l7.725-0.826c0.137-0.016,0.291-0.023,0.458-0.023h0.001c0.921,0,2.094,0.227,2.789,0.539
			c0,0,5.634,2.523,6.941,3.115c1.309,0.588,1.389,1.318,1.389,2.143v2.221c0.004,1.121-0.451,1.504-0.995,1.67
			c1.036-0.205,2.053-0.469,3.046-0.783c-0.033,0.01-0.067,0.021-0.096,0.031c-0.764,0.232-0.984-0.207-0.984-0.918v-2.221
			c0.003-1.281,0.736-1.898,1.488-2.553l7.186-6.256c0.705-0.613,2.061-1.344,2.963-1.592l3.592-0.994
			c0.111-0.029,0.221-0.045,0.324-0.045l0,0c0.479,0,0.799,0.322,0.845,0.826c-0.001,0.061,0.146,0.623-0.133,1.604
			c-0.136,0.477-0.46,1.096-0.743,1.572l-0.006,0.092c0.756-1.045,1.443-2.146,2.055-3.291c-0.135,0.012-0.211-0.223-0.176-0.623
			c0.078-0.887,0.234-1.949,0.438-2.637l2.735-9.217c0.137-0.461,0.309-0.191,0.309,0.145c0.012-0.338,0.02-0.678,0.02-1.02
			c0-0.742-0.029-1.477-0.085-2.205c0.009,0.59-0.169,0.77-0.681-0.225l-2.594-5.4c-0.416-0.865-0.912-2.393-1.084-3.337
			l-0.74-4.075c0,0-0.111-0.583-0.148-0.816c-0.037-0.231,0.072-0.418,0.331-0.044c-0.059-0.085-0.117-0.168-0.176-0.253
			c-1.536-2.179-3.371-4.132-5.444-5.8l-0.092-0.073c0.164,0.131,0.355,0.5-0.055,0.336c-0.412-0.164-0.874-0.368-0.874-0.368
			l-4.605-1.819c-0.001-0.001-0.002-0.001-0.003-0.001c-0.92-0.365-2.357-1.074-3.207-1.583c0,0-2.422-1.417-2.919-1.761
			c-0.329-0.229-0.078-0.281,0.362-0.229c0.036,0.003,0.072,0.008,0.11,0.013c0,0-0.036-0.016-0.202-0.052
			c-0.686-0.157-2.904-0.611-4.693-0.692C34.069,4.206,33.812,4.184,33.671,4.184z M40.941,14.107l1.77-4.104
			c0.217-0.506,0.644-0.678,1.205-0.678c0.173,0,0.341,0.031,0.5,0.095c0.001,0,0.001,0,0.002,0l6.975,2.758
			c0.886,0.351,1.761,0.853,2.404,1.604c0.156,0.183,0.604,1.098,0.789,2.12l1.037,5.703c0.133,0.728-0.336,1.448-1.047,1.635
			c-0.014,0.003-0.029,0.004-0.044,0.007l-4.837,1.072c-0.073,0.017-0.146,0.035-0.221,0.059c-0.063,0.006-0.127,0.01-0.193,0.01
			c-0.766,0-1.639-0.368-2.074-0.876l-0.025-0.029l0,0l-5.729-6.668c-0.001,0-0.001-0.001-0.002-0.001l-0.112-0.131
			C40.797,16.05,40.615,14.873,40.941,14.107z M29.425,18.498c0,0,7.237-1.527,8.778-1.854c1.096-0.232,2.069,0.288,2.512,0.804
			c0,0,4.755,5.514,5.73,6.667c0.975,1.153,0.804,1.871,0.549,2.679l-2.527,8.039c-0.253,0.801-1.16,1.617-1.983,1.785l-9.042,1.828
			c-0.124,0.025-0.26,0.037-0.403,0.037c-0.79,0-1.696-0.375-2.156-0.891l-5.567-6.256c-0.562-0.629-0.814-1.84-0.553-2.643
			l2.721-8.349C27.718,19.621,28.338,18.802,29.425,18.498z M11.148,22.699c-0.188-0.8,0.145-1.931,0.709-2.419l6.402-5.542
			c0.328-0.285,0.809-0.448,1.318-0.448h0.001c0.389,0,0.757,0.099,1.034,0.276l5.107,3.266c0,0,0.002,0,0.002,0.002l0.059,0.036
			c0.666,0.427,1.022,1.422,0.777,2.174l-2.789,8.562c-0.255,0.779-1.16,1.498-1.978,1.568l-6.985,0.604l-0.325,0.029
			c-0.041,0.004-0.081,0.004-0.121,0.004c-0.738,0-1.445-0.553-1.61-1.262L11.148,22.699z M27.473,49.846
			c-1.184,0.156-6.756,0.73-7.941,0.84c-1.185,0.105-1.896-0.453-2.406-1.031l-5.85-6.633c-0.563-0.637-0.715-1.506-0.438-2.5
			c0.276-0.992,2.129-7.203,2.129-7.203c0.231-0.783,1.112-1.502,1.924-1.572c0,0,5.675-0.488,6.985-0.605
			c1.313-0.115,2.111,0.184,2.713,0.842c0.604,0.656,5.145,5.721,5.922,6.652c0.777,0.93,0.883,1.693,0.646,2.697
			c-0.236,1.008-1.812,6.904-1.812,6.904C29.139,49.021,28.656,49.689,27.473,49.846z M47.686,47.453l-6.711,5.848
			c-0.388,0.338-1.021,0.549-1.649,0.549c-0.333,0-0.641-0.061-0.891-0.172l-7.212-3.236c-0.705-0.316-1.134-1.213-0.938-1.959
			l1.812-6.902l0,0l0.101-0.381c0.211-0.805,1.077-1.631,1.892-1.801l8.596-1.816c0.103-0.021,0.211-0.033,0.322-0.033l0,0
			c0.722,0,1.465,0.438,1.77,1.037l3.228,6.367c0,0,0,0.002,0.001,0.002l0.122,0.24C48.482,45.9,48.281,46.934,47.686,47.453z
			 M55.096,44.256c0,0-2.352,0.672-4.012,1.104c-1.291,0.334-1.93-0.283-2.215-0.844l-3.228-6.369
			c-0.401-0.793-0.516-2.176-0.249-3.023l2.529-8.037c0.234-0.746,1.033-1.51,1.805-1.764c0.069-0.01,0.139-0.018,0.205-0.034
			l4.814-1.088c0.015-0.002,0.027-0.008,0.041-0.01c0.094-0.018,0.188-0.031,0.288-0.031c0.705,0,1.425,0.433,1.711,1.029
			l2.595,5.401c0.387,0.803,0.5,2.205,0.246,3.063c0,0-2.127,7.273-2.577,8.686C56.599,43.75,55.913,44.029,55.096,44.256z"/>
	</g>
	<g>
		<path fill="#FFE57E" d="M60.256,30.168c0.603,1.168,0.741,0.717,0.66-0.119l-0.085-0.738c-0.527-4.581-2.19-9.01-4.81-12.813
			c-0.26-0.377-0.369-0.189-0.332,0.042c0.037,0.233,0.148,0.816,0.148,0.816l0.74,4.075c0.172,0.944,0.668,2.472,1.084,3.337
			L60.256,30.168z"/>
		<path fill="#FFE57E" d="M50.309,10.37c-3.092-2.464-6.716-4.283-10.52-5.274c-0.811-0.212-1.641-0.267-1.144,0.078
			c0.497,0.344,2.919,1.761,2.919,1.761c0.85,0.509,2.287,1.218,3.207,1.583c0.001,0,0.002,0,0.003,0.001l4.605,1.819
			c0,0,0.462,0.204,0.874,0.368C50.664,10.87,50.473,10.5,50.309,10.37z"/>
		<path fill="#FFE57E" d="M55.678,45.146L55.678,45.146c-0.104,0-0.213,0.016-0.324,0.045l-3.592,0.994
			c-0.902,0.248-2.258,0.979-2.963,1.592l-7.186,6.256c-0.752,0.654-1.485,1.271-1.488,2.553v2.221c0,0.711,0.221,1.15,0.984,0.918
			c0.384-0.119,1.199-0.398,1.785-0.629c4.852-1.891,9.148-5.125,12.322-9.285c0.236-0.311,0.951-1.459,1.173-2.234
			c0.278-0.98,0.132-1.543,0.133-1.604C56.477,45.469,56.156,45.146,55.678,45.146z"/>
		<path fill="#FFE57E" d="M25.314,31.336l5.567,6.256c0.46,0.516,1.366,0.891,2.156,0.891c0.144,0,0.279-0.012,0.403-0.037
			l9.042-1.828c0.823-0.168,1.73-0.984,1.983-1.785l2.527-8.039c0.255-0.809,0.426-1.526-0.549-2.679
			c-0.976-1.153-5.73-6.667-5.73-6.667c-0.442-0.516-1.416-1.036-2.512-0.804c-1.541,0.327-8.778,1.854-8.778,1.854
			c-1.087,0.305-1.707,1.123-1.942,1.847l-2.721,8.349C24.5,29.496,24.753,30.707,25.314,31.336z"/>
		<path fill="#FFE57E" d="M9.905,40.246l1.915-6.48c0.262-0.889,0.31-2.402,0.104-3.303l-1.696-7.401
			c-0.181-0.783-1.009-1.51-1.81-1.585l-0.219-0.021l0,0l-0.208-0.019c-0.001,0-0.001,0-0.001,0
			c-0.791-0.076-1.709,0.445-1.995,1.101l-0.275,0.8c-1.024,2.973-1.544,6.088-1.544,9.26c0,2.166,0.245,4.322,0.729,6.416
			l0.188,0.811c0.197,0.652,0.613,1.24,1.885,1.451c0,0,0.623,0.09,1.306,0.16C9.209,41.529,9.708,40.914,9.905,40.246z"/>
		<path fill="#FFE57E" d="M55.075,24.16c-0.1,0-0.194,0.014-0.288,0.031c-0.014,0.002-0.026,0.008-0.041,0.01l-4.814,1.088
			c-0.066,0.016-0.136,0.024-0.205,0.034c-0.771,0.254-1.57,1.018-1.805,1.764l-2.529,8.037c-0.267,0.848-0.152,2.23,0.249,3.023
			l3.228,6.369c0.285,0.561,0.924,1.178,2.215,0.844c1.66-0.432,4.012-1.104,4.012-1.104c0.817-0.227,1.503-0.506,1.954-1.918
			c0.45-1.412,2.577-8.686,2.577-8.686c0.254-0.857,0.141-2.26-0.246-3.063l-2.595-5.401C56.5,24.592,55.78,24.16,55.075,24.16z"/>
		<path fill="#E6007E" d="M58.008,45.604c0.148-0.289,0.842-1.721,1.415-3.357c0.61-1.744,1.063-3.908,1.293-5.465
			c0.151-1.031,0.248-2.08,0.286-3.131c0.013-0.352-0.168-0.654-0.309-0.178l-2.735,9.217c-0.204,0.688-0.36,1.75-0.438,2.637
			C57.463,45.979,57.699,46.197,58.008,45.604z"/>
		<path fill="#FFE57E" d="M21.137,13.748l5.109,3.268c0.553,0.353,1.479,0.59,2.301,0.59c0.25,0,0.475-0.022,0.669-0.064
			l8.583-1.901c0.84-0.186,1.836-1.01,2.176-1.8l1.743-4.051c0.302-0.703,0.042-1.605-0.569-1.972l-1.76-1.057l-2.615-1.569h-0.002
			c-0.799-0.48-2.26-0.943-3.188-1.012h-0.001c-0.012,0-0.165-0.004-0.985-0.004c-2.282,0-4.554,0.272-6.751,0.809
			c-1.006,0.244-1.314,0.346-1.317,0.347c-0.83,0.278-1.824,1.194-2.17,2c0,0,0,0,0,0.001l-1.861,4.342
			C20.194,12.382,20.486,13.333,21.137,13.748z"/>
		<path fill="#E6007E" d="M42.711,10.003l-1.77,4.104c-0.326,0.766-0.145,1.943,0.397,2.575l0.112,0.131
			c0.001,0,0.001,0.001,0.002,0.001l5.729,6.668l0,0l0.025,0.029c0.436,0.508,1.309,0.876,2.074,0.876
			c0.066,0,0.131-0.004,0.193-0.01c0.074-0.023,0.147-0.042,0.221-0.059l4.837-1.072c0.015-0.003,0.03-0.004,0.044-0.007
			c0.711-0.187,1.18-0.907,1.047-1.635l-1.037-5.703c-0.186-1.022-0.633-1.938-0.789-2.12c-0.644-0.751-1.519-1.253-2.404-1.604
			L44.418,9.42c-0.001,0-0.001,0-0.002,0c-0.159-0.063-0.327-0.095-0.5-0.095C43.354,9.326,42.928,9.498,42.711,10.003z"/>
		<path fill="#FFE57E" d="M27.473,49.846c1.184-0.156,1.666-0.824,1.872-1.609c0,0,1.575-5.896,1.812-6.904
			c0.236-1.004,0.131-1.768-0.646-2.697c-0.777-0.932-5.318-5.996-5.922-6.652c-0.602-0.658-1.4-0.957-2.713-0.842
			c-1.311,0.117-6.985,0.605-6.985,0.605c-0.812,0.07-1.692,0.789-1.924,1.572c0,0-1.853,6.211-2.129,7.203
			c-0.276,0.994-0.124,1.863,0.438,2.5l5.85,6.633c0.51,0.578,1.222,1.137,2.406,1.031C20.717,50.576,26.289,50.002,27.473,49.846z"
			/>
		<path fill="#E6007E" d="M10.701,43.842c-0.594-0.672-1.845-1.34-2.732-1.455L6.85,42.238c-0.084-0.012-0.165-0.016-0.241-0.016
			c-0.323,0-0.509,0.098-0.573,0.188c-0.053,0.074-0.056,0.184-0.008,0.322l0.265,0.643c2.046,4.988,5.437,9.256,9.833,12.385
			c0.19,0.137,0.513,0.365,0.836,0.547c0.321,0.18,0.529-0.053,0.529-0.604v-2.516c0-0.895-0.501-2.219-1.094-2.891L10.701,43.842z"
			/>
		<path fill="#FFE57E" d="M37.766,54.443c-1.308-0.592-6.941-3.115-6.941-3.115c-0.695-0.313-1.868-0.539-2.789-0.539h-0.001
			c-0.167,0-0.321,0.008-0.458,0.023l-7.725,0.826c-0.754,0.082-1.391,0.404-1.391,1.549v2.516c0,0.889,0.1,1.594,0.833,2.025
			c0.212,0.123,0.535,0.268,0.535,0.268c2.413,1.217,4.981,2.078,7.636,2.563c1.688,0.307,3.414,0.463,5.133,0.463
			c1.539,0,3.086-0.125,4.598-0.371l0.801-0.131c0.613-0.141,1.163-0.48,1.158-1.713v-2.221
			C39.154,55.762,39.074,55.031,37.766,54.443z"/>
		<path fill="#E6007E" d="M44.775,38.586c-0.305-0.6-1.048-1.037-1.77-1.037l0,0c-0.111,0-0.22,0.012-0.322,0.033l-8.596,1.816
			c-0.814,0.17-1.681,0.996-1.892,1.801l-0.101,0.381l0,0l-1.812,6.902c-0.195,0.746,0.233,1.643,0.938,1.959l7.212,3.236
			c0.25,0.111,0.558,0.172,0.891,0.172c0.629,0,1.262-0.211,1.649-0.549l6.711-5.848c0.596-0.52,0.797-1.553,0.44-2.258l-0.122-0.24
			c-0.001,0-0.001-0.002-0.001-0.002L44.775,38.586z"/>
		<path fill="#FFE57E" d="M11.131,19.604c0.756-0.644,1.998-1.71,2.76-2.369l3.733-3.232c0.706-0.611,1.614-1.853,1.981-2.712
			l1.861-4.341c0.104-0.244,0.111-0.379,0.107-0.436c-0.007,0-0.016,0-0.023,0l0,0c-0.059,0-0.191,0.015-0.41,0.108
			c-0.021,0.008-1.98,0.853-3.605,1.869c-1.836,1.148-3.541,2.512-5.072,4.049c-1.379,1.383-2.62,2.915-3.687,4.55
			c-0.792,1.214-1.312,2.254-1.315,2.265c-0.145,0.289-0.162,0.559-0.051,0.758c0.111,0.2,0.349,0.327,0.67,0.356
			c0,0.001,0.001,0.001,0.002,0.001l0.209,0.02C9.182,20.573,10.487,20.152,11.131,19.604z"/>
		<path fill="#E6007E" d="M21.792,30.174c0.817-0.07,1.723-0.789,1.978-1.568l2.789-8.562c0.245-0.752-0.111-1.747-0.777-2.174
			l-0.059-0.036c0-0.002-0.002-0.002-0.002-0.002l-5.107-3.266c-0.277-0.178-0.646-0.276-1.034-0.276h-0.001
			c-0.51,0-0.99,0.163-1.318,0.448l-6.402,5.542c-0.564,0.488-0.896,1.619-0.709,2.419l1.602,6.85
			c0.165,0.709,0.872,1.262,1.61,1.262c0.04,0,0.08,0,0.121-0.004l0.325-0.029l0,0L21.792,30.174z"/>
	</g>
</g>
</svg>
