<?xml version="1.0" encoding="utf-8"?>
<!-- Generator: Adobe Illustrator 16.0.0, SVG Export Plug-In . SVG Version: 6.00 Build 0)  -->
<!DOCTYPE svg PUBLIC "-//W3C//DTD SVG 1.1//EN" "http://www.w3.org/Graphics/SVG/1.1/DTD/svg11.dtd">
<svg version="1.1" id="Lager_1" xmlns="http://www.w3.org/2000/svg" xmlns:xlink="http://www.w3.org/1999/xlink" x="0px" y="0px"
	 viewBox="0 0 180 180" enable-background="new 0 0 180 180" xml:space="preserve">
<g>
	<path fill="#FFB900" d="M160.484,15.725c-2.029-5.092-4.262-10.362-4.262-10.362s-2.227,5.271-4.26,10.362
		c-1.552,3.895-3.038,7.328-3.038,10.343c0,4.031,3.269,7.296,7.298,7.296c4.033,0,7.295-3.265,7.295-7.296
		C163.518,23.053,162.037,19.619,160.484,15.725z"/>
	<path fill="#FFE57E" d="M153.05,28.613c0-3.177,3.175-8.61,3.175-8.61s3.176,5.701,3.176,8.61c0,1.752-1.421,3.173-3.176,3.173
		C154.473,31.783,153.05,30.365,153.05,28.613z"/>
	<g>
		<path fill="#009FE4" d="M39.951,60.937L16.898,37.87c-0.28,0.492-0.442,1.056-0.442,1.661v131.747
			c0,0.606,0.162,1.171,0.442,1.662l23.053-23.036V60.937z"/>
		<path fill="#009FE4" d="M104.263,59.665l23.046-23.053c-0.491-0.28-1.056-0.444-1.66-0.444H19.814
			c-0.604,0-1.169,0.165-1.66,0.444l23.034,23.053H104.263z"/>
		<path fill="#009FE4" d="M105.514,149.922l23.051,23.018c0.28-0.491,0.445-1.056,0.445-1.662V39.53
			c0-0.604-0.163-1.169-0.443-1.661l-23.053,23.058V149.922z"/>
		<path fill="#009FE4" d="M41.221,151.149l-23.065,23.048c0.489,0.281,1.054,0.443,1.658,0.443h105.834
			c0.604,0,1.169-0.16,1.658-0.443l-23.079-23.05H41.221V151.149z"/>
		<path fill="#7DC8F0" d="M105.463,149.863c0.029-0.129,0.051-0.256,0.051-0.4V61.344c0-0.134-0.021-0.256-0.049-0.381l0.049-0.036
			l23.053-23.058c-0.301-0.524-0.735-0.957-1.258-1.258l-23.046,23.053l-0.038,0.049c-0.124-0.033-0.256-0.049-0.39-0.049H41.633
			c-0.146,0-0.278,0.021-0.409,0.054l-0.038-0.054L18.152,36.611c-0.522,0.301-0.958,0.736-1.254,1.258l23.053,23.067l0.044,0.035
			c-0.03,0.122-0.044,0.245-0.044,0.372v88.119c0,0.139,0.019,0.266,0.049,0.391l-0.049,0.05l-23.053,23.036
			c0.299,0.52,0.734,0.96,1.256,1.258l23.067-23.05l0.031-0.048c0.125,0.024,0.247,0.048,0.381,0.048h62.202
			c0.127,0,0.247-0.019,0.364-0.048l0.028,0.048l23.079,23.05c0.524-0.298,0.957-0.735,1.258-1.258l-23.051-23.018L105.463,149.863z
			"/>
	</g>
	<path fill="#7DC8F0" d="M161.797,53.528c-0.191-12.187-1.115-18.883-5.572-18.883c-4.771,0-5.82,6.811-5.94,19.861
		c-0.12,13.053-1.425,113.884-1.425,114.862c0,2.559,0.129,5.269,3.703,5.269c1.357,0,6.454,0,7.473,0
		c2.49,0,3.512-1.817,3.512-4.185C163.544,169.266,161.987,65.721,161.797,53.528z"/>
</g>
</svg>
