<?xml version="1.0" encoding="utf-8"?>
<!-- Generator: Adobe Illustrator 16.0.0, SVG Export Plug-In . SVG Version: 6.00 Build 0)  -->
<!DOCTYPE svg PUBLIC "-//W3C//DTD SVG 1.1//EN" "http://www.w3.org/Graphics/SVG/1.1/DTD/svg11.dtd">
<svg version="1.1" id="Lager_1" xmlns="http://www.w3.org/2000/svg" xmlns:xlink="http://www.w3.org/1999/xlink" x="0px" y="0px"
	 viewBox="0 0 76.535 76.535" enable-background="new 0 0 76.535 76.535" xml:space="preserve">
<g>
	<path fill="#FFB900" d="M68.237,6.686c-0.863-2.165-1.812-4.406-1.812-4.406s-0.947,2.241-1.811,4.406
		c-0.66,1.656-1.292,3.116-1.292,4.398c0,1.714,1.39,3.102,3.103,3.102c1.715,0,3.102-1.388,3.102-3.102
		C69.527,9.802,68.897,8.342,68.237,6.686z"/>
	<path fill="#FFE57E" d="M65.076,12.166c0-1.351,1.35-3.661,1.35-3.661s1.35,2.424,1.35,3.661c0,0.745-0.604,1.349-1.35,1.349
		C65.681,13.514,65.076,12.911,65.076,12.166z"/>
	<g>
		<path fill="#FFB900" d="M16.987,25.91l-9.802-9.808c-0.119,0.209-0.188,0.449-0.188,0.706v56.018c0,0.258,0.069,0.498,0.188,0.707
			l9.802-9.795V25.91z"/>
		<path fill="#FFB900" d="M44.332,25.369l9.799-9.802c-0.209-0.119-0.449-0.189-0.706-0.189h-45c-0.257,0-0.497,0.07-0.706,0.189
			l9.794,9.802H44.332z"/>
		<path fill="#FFB900" d="M44.864,63.746l9.801,9.787c0.119-0.209,0.189-0.449,0.189-0.707V16.808c0-0.257-0.069-0.497-0.188-0.706
			l-9.802,9.804V63.746z"/>
		<path fill="#FFB900" d="M17.527,64.268L7.72,74.068c0.208,0.119,0.448,0.188,0.705,0.188h45c0.257,0,0.497-0.068,0.705-0.188
			l-9.813-9.801H17.527z"/>
		<path fill="#FFE57E" d="M44.842,63.721c0.013-0.055,0.022-0.109,0.022-0.17V26.083c0-0.057-0.009-0.109-0.021-0.162l0.021-0.015
			l9.802-9.804c-0.128-0.223-0.313-0.407-0.535-0.535l-9.799,9.802l-0.016,0.021c-0.053-0.014-0.109-0.021-0.166-0.021H17.702
			c-0.062,0-0.118,0.009-0.174,0.023l-0.016-0.023l-9.794-9.802c-0.222,0.128-0.407,0.313-0.533,0.535l9.802,9.808l0.019,0.015
			c-0.013,0.052-0.019,0.104-0.019,0.158v37.468c0,0.059,0.008,0.113,0.021,0.166l-0.021,0.021l-9.802,9.795
			c0.127,0.221,0.312,0.408,0.534,0.535l9.808-9.801l0.013-0.02c0.053,0.01,0.105,0.02,0.162,0.02H44.15
			c0.054,0,0.105-0.008,0.155-0.02l0.012,0.02l9.813,9.801c0.223-0.127,0.407-0.313,0.535-0.535l-9.801-9.787L44.842,63.721z"/>
	</g>
	<path fill="#FFE57E" d="M68.795,22.76c-0.081-5.182-0.474-8.029-2.369-8.029c-2.029,0-2.475,2.896-2.526,8.445
		c-0.051,5.55-0.606,48.423-0.606,48.839c0,1.088,0.055,2.24,1.575,2.24c0.577,0,2.744,0,3.177,0c1.059,0,1.493-0.773,1.493-1.779
		C69.538,71.971,68.876,27.944,68.795,22.76z"/>
</g>
</svg>
