<?xml version="1.0" encoding="utf-8"?>
<!-- Generator: Adobe Illustrator 16.0.0, SVG Export Plug-In . SVG Version: 6.00 Build 0)  -->
<!DOCTYPE svg PUBLIC "-//W3C//DTD SVG 1.1//EN" "http://www.w3.org/Graphics/SVG/1.1/DTD/svg11.dtd">
<svg version="1.1" id="Lager_1" xmlns="http://www.w3.org/2000/svg" xmlns:xlink="http://www.w3.org/1999/xlink" x="0px" y="0px"
	 viewBox="0 0 90.709 90.708" enable-background="new 0 0 90.709 90.708" xml:space="preserve">
<g>
	<g>
		<path fill="#994916" d="M73.81,54.959c-0.941,0.95-2.243,2.259-4.038,4.054c-0.394,0.395-0.82,0.259-0.82-0.299
			c0-0.451,0-13.724,0-18.73c-0.973-0.466-1.988-1.152-1.988-1.152c-0.222-0.15-0.52-0.086-0.662,0.141c0,0-0.727,1.173-1.363,1.849
			c-0.077,0.081-0.157,0.159-0.236,0.238c0,1.72,0,3.665,0,3.827c0,0.449-0.373,0.589-0.754,0.21
			c-0.758-0.759-1.432-1.436-2.037-2.042c-0.756,0.369-1.562,0.653-2.406,0.832c0.836,0.84,1.831,1.838,3.012,3.019
			c1.225,1.228,1.434,2.37,1.434,4.469c0,0,0,29.032,0,29.301s0.085,0.542,0.498,0.542s4.17,0,4.5,0
			c0.331,0,0.482-0.213,0.482-0.542c0-0.331,0-15.037,0-15.037c0-2.097,0.207-3.24,1.433-4.467c2.079-2.079,3.582-3.589,4.646-4.659
			C74.875,56.071,74.303,55.548,73.81,54.959z"/>
	</g>
	<g>
		<path fill="#B0CB0B" d="M32.058,62.051c-1.146-0.572-1.926-1.67-2.011-3.733c-0.005-0.117-0.008-0.243-0.008-0.379
			c0,0-2.021,0.392-3.54-1.127c-1.261-1.262-1.085-2.268-1.691-3.633c-0.747-1.681-2.316-2.192-3.518-2.178
			c0,0,0.111-1.344-0.491-2.457c-0.739-1.367-2.167-1.395-2.63-1.395s-1.79,0.161-2.63,1.521c-0.666,1.075-0.49,2.33-0.49,2.33
			c-1.2-0.015-2.771,0.497-3.518,2.178c-0.607,1.365-0.43,2.371-1.69,3.633c-1.521,1.519-3.541,1.127-3.541,1.127
			c0,1.976-0.589,3.13-1.518,3.803v0.895v17.506c0,0.661,0.304,0.908,0.917,0.908h26.396V62.069L32.058,62.051z M17.413,73.067
			c0,0.124-0.102,0.228-0.226,0.228h-2.905c-0.124,0-0.225-0.104-0.225-0.228v-2.904c0-0.123,0.101-0.228,0.225-0.228h2.905
			c0.124,0,0.226,0.104,0.226,0.228V73.067z M17.413,68.196c0,0.124-0.102,0.224-0.226,0.224h-2.905c-0.124,0-0.225-0.1-0.225-0.224
			v-2.904c0-0.125,0.101-0.227,0.225-0.227h2.905c0.124,0,0.226,0.102,0.226,0.227V68.196z M22.283,73.067
			c0,0.124-0.102,0.228-0.226,0.228h-2.903c-0.124,0-0.226-0.104-0.226-0.228v-2.904c0-0.123,0.102-0.228,0.226-0.228h2.903
			c0.124,0,0.226,0.104,0.226,0.228V73.067z M22.283,68.196c0,0.124-0.102,0.224-0.226,0.224h-2.903c-0.124,0-0.226-0.1-0.226-0.224
			v-2.904c0-0.125,0.102-0.227,0.226-0.227h2.903c0.124,0,0.226,0.102,0.226,0.227V68.196z"/>
	</g>
	<g>
		<path fill="#1E6E32" d="M61.033,57.722c-0.002-0.005-0.006-0.011-0.009-0.014c-0.015-0.025-0.036-0.049-0.052-0.073
			c-0.051-0.074-0.103-0.144-0.156-0.208L45.66,39.623c-0.574-0.673-1.769-1.228-2.655-1.228c0,0-4.764,0-5.88,0
			c-0.95,0-1.16-0.552-1.16-1.313c0-0.336,0-1.656,0-3.028c0-0.053,0.016-0.16,0.148-0.16c0.133,0,0.538,0,0.538,0
			c0.391,0,0.71-0.319,0.71-0.71v-2.815c0-0.39-0.319-0.709-0.71-0.709h-9.01c-0.39,0-0.71,0.319-0.71,0.709v2.815
			c0,0.391,0.32,0.71,0.71,0.71c0,0,0.472,0,0.577,0c0.105,0,0.146,0.114,0.146,0.17c0,1.412,0,2.779,0,3.119
			c0,0.761-0.164,1.212-1.279,1.212s-7.265,0-7.265,0c-0.411,0-0.888,0.125-1.34,0.318l16.786,19.72
			c0.119,0.12,0.258,0.222,0.577,0.222h25.325c0.032-0.102,0.055-0.209,0.055-0.322C61.223,58.111,61.15,57.913,61.033,57.722z"/>
	</g>
	<circle fill="#B0CB0B" cx="80.405" cy="49.439" r="8.603"/>
	<path fill="#B0CB0B" d="M75.207,20.198c-0.259-0.069-0.5-0.343-0.535-0.609c0,0-0.3-2.26-0.83-3.482
		c-1.688-3.892-5.563-6.615-10.076-6.615c-6.063,0-10.979,4.915-10.979,10.979c0,1.227,0.457,3.035,0.457,3.035
		c0.065,0.26-0.076,0.574-0.314,0.699c0,0-1.819,0.95-2.738,1.806c-2.047,1.909-3.328,4.628-3.328,7.648
		c0,5.774,4.681,10.456,10.457,10.456c3.004,0,5.71-1.268,7.617-3.295c0.637-0.676,1.363-1.849,1.363-1.849
		c0.143-0.227,0.44-0.291,0.662-0.141c0,0,1.504,1.018,2.602,1.413c1.104,0.396,2.293,0.612,3.532,0.612
		c5.776,0,10.458-4.682,10.458-10.456c0-3.753-1.978-7.043-4.947-8.888C77.449,20.793,75.207,20.198,75.207,20.198z"/>
	<g>
		<path fill="#009FE4" d="M35.843,58.655c-0.321,0-0.46-0.104-0.58-0.224c-0.123-0.123-16.782-19.718-16.782-19.718
			c-0.52,0.226-1.006,0.547-1.313,0.907L9.59,48.525l-7.562,8.887h0c-0.198,0.25-0.328,0.508-0.328,0.809
			c0,0.269,0.101,0.512,0.262,0.701l2.82,2.82c0.929-0.673,1.518-1.827,1.518-3.803c0,0,2.02,0.392,3.541-1.127
			c1.26-1.262,1.083-2.268,1.69-3.633c0.747-1.681,2.317-2.192,3.518-2.178c0,0-0.176-1.255,0.49-2.33
			c0.84-1.36,2.167-1.521,2.63-1.521s1.891,0.027,2.63,1.395c0.602,1.113,0.491,2.457,0.491,2.457
			c1.201-0.015,2.771,0.497,3.518,2.178c0.606,1.365,0.43,2.371,1.691,3.633c1.519,1.519,3.54,1.127,3.54,1.127
			c0,2.313,0.803,3.508,2.019,4.112l0.038,0.018V81.05h25.358c0.503,0,0.828-0.301,0.828-0.93c0,0,0-18.041,0-18.225
			c0-0.183,0.109-0.285,0.109-0.285l2.535-2.535c0.11-0.12,0.192-0.262,0.241-0.421C61.168,58.655,36.164,58.655,35.843,58.655z
			 M44.508,73.067c0,0.124-0.102,0.228-0.225,0.228h-2.905c-0.124,0-0.225-0.104-0.225-0.228v-2.904
			c0-0.123,0.102-0.228,0.225-0.228h2.905c0.123,0,0.225,0.104,0.225,0.228V73.067z M44.508,68.196c0,0.124-0.102,0.224-0.225,0.224
			h-2.905c-0.124,0-0.225-0.1-0.225-0.224v-2.904c0-0.125,0.102-0.227,0.225-0.227h2.905c0.123,0,0.225,0.102,0.225,0.227V68.196z
			 M49.38,73.067c0,0.124-0.102,0.228-0.226,0.228h-2.903c-0.125,0-0.226-0.104-0.226-0.228v-2.904c0-0.123,0.102-0.228,0.226-0.228
			h2.903c0.124,0,0.226,0.104,0.226,0.228V73.067z M49.38,68.196c0,0.124-0.102,0.224-0.226,0.224h-2.903
			c-0.125,0-0.226-0.1-0.226-0.224v-2.904c0-0.125,0.102-0.227,0.226-0.227h2.903c0.124,0,0.226,0.102,0.226,0.227V68.196z"/>
	</g>
</g>
</svg>
