<?xml version="1.0" encoding="utf-8"?>
<!-- Generator: Adobe Illustrator 16.0.0, SVG Export Plug-In . SVG Version: 6.00 Build 0)  -->
<!DOCTYPE svg PUBLIC "-//W3C//DTD SVG 1.1//EN" "http://www.w3.org/Graphics/SVG/1.1/DTD/svg11.dtd">
<svg version="1.1" id="Lager_1" xmlns="http://www.w3.org/2000/svg" xmlns:xlink="http://www.w3.org/1999/xlink" x="0px" y="0px"
	 viewBox="0 0 83.735 83.735" enable-background="new 0 0 83.735 83.735" xml:space="preserve">
<g>
	<g>
		<path fill="#7DC8F0" d="M28.423,68.327c-9.491,0-11.333-6.509-11.416-6.821l3.657-0.965l-0.008-0.029
			c0.065,0.219,1.718,5.344,11.385,3.705c4.974-0.844,8.186-2.125,11.019-3.254c3.106-1.238,6.041-2.407,10.351-2.64
			c4.816-0.257,7.949,1.17,10.979,2.552c1.039,0.474,2.021,0.922,3.072,1.301c4.619,1.669,9.035,1.326,13.5-1.047
			c0.923-0.49,2.067-0.141,2.558,0.781c0.49,0.923,0.14,2.067-0.781,2.558c-5.387,2.864-10.959,3.289-16.562,1.265
			c-1.195-0.432-2.294-0.933-3.356-1.418c-2.734-1.246-5.315-2.423-9.206-2.215c-3.689,0.199-6.101,1.159-9.153,2.377
			c-3.009,1.198-6.419,2.558-11.788,3.469C31.11,68.21,29.698,68.327,28.423,68.327z"/>
	</g>
	<circle fill="#7DC8F0" cx="26.402" cy="41.903" r="26.283"/>
	<g>
		<g>
			<path fill="#009FE4" d="M41.473,24.92c0.625,0.099,0.99-0.316,0.811-0.922c0,0-0.422-1.438-1.03-2.563
				c-0.541-0.997-1.04-1.566-1.04-1.566c-0.417-0.475-1.213-1.108-1.77-1.407l-1.522-0.743c-0.578-0.255-1.399-0.41-1.824-0.342
				c-0.427,0.067-1.209,0.33-1.741,0.583c0,0,0,0-1.398,1.366c-0.719,0.703-1.553,1.645-2.428,2.886
				c-0.569,0.808-1.163,1.828-1.163,1.828c-0.317,0.545-0.068,0.91,0.556,0.81c0,0,0.389-0.063,1.139-0.152
				c2.479-0.295,4.873-0.354,7.089-0.246C39.133,24.551,41.473,24.92,41.473,24.92z"/>
		</g>
		<g>
			<path fill="#009FE4" d="M46.891,26.279c0.457,0.195,0.525-0.063,0.151-0.572c0,0-0.238-0.324-0.736-0.917
				c-0.576-0.685-1.023-1.143-1.023-1.143c-0.442-0.451-0.628-0.398-0.412,0.116c0,0,0,0,0.167,0.495
				c0.17,0.499,0.17,0.499,0.17,0.499c0.155,0.577,0.566,1.138,0.913,1.248c0,0,0,0,0.294,0.104
				C46.891,26.279,46.891,26.279,46.891,26.279z"/>
		</g>
		<g>
			<path fill="#009FE4" d="M34.021,35.614c-1.223-1.289-2.504-2.541-3.812-3.734c-1.33-1.213-3.15-2.701-3.15-2.701
				c-0.489-0.4-1.075-0.244-1.302,0.345c0,0-0.67,1.743-1.162,3.397c-0.849,2.852-2.042,7.738-2.042,7.738
				c-0.149,0.613,0.223,1.263,0.828,1.443c0,0,1.865,0.556,3.381,0.959c2.343,0.625,4.72,1.187,7.06,1.679
				c2.74,0.576,6.816,1.248,6.816,1.248c0.623,0.102,1.145,0.142,1.158,0.088c0.014-0.053-0.227-0.631-0.563-1.166
				c0,0-1.249-1.982-2.351-3.476C37.395,39.415,35.731,37.417,34.021,35.614z"/>
		</g>
		<g>
			<path fill="#009FE4" d="M31.238,16.076c0.089-0.046,0.089-0.046,0.089-0.046c0.097-0.045-0.335-0.16-0.959-0.257
				c0,0-2.365-0.364-4.189-0.364c-2.553,0-5.02,0.364-7.354,1.043c-1.899,0.553-4.374,1.756-4.374,1.756
				c-0.568,0.276-0.522,0.582,0.102,0.681c0,0,2.375,0.375,4.461,1.291c1.83,0.802,4.858,2.673,4.858,2.673
				c0.537,0.333,1.225,0.15,1.527-0.405c0,0,0.643-1.177,1.325-2.148C28.004,18.476,29.494,16.98,31.238,16.076z"/>
		</g>
		<g>
			<path fill="#009FE4" d="M7.006,38.88c-0.527-0.348-1.353-0.299-1.836,0.109c0,0-1.294,1.094-2.111,1.946
				c-1.146,1.196-1.916,2.281-2.217,3.155c-0.294,0.855-0.353,1.289-0.353,1.289c-0.083,0.627-0.103,1.377-0.044,1.666
				c0.059,0.29,0.538,1.464,0.907,1.977c0,0,0.74,1.029,1.737,1.758c1.407,1.029,3.192,1.729,5.318,2.129
				c1.249,0.236,2.614,0.366,4.09,0.398c1.476,0.032,3.603-0.114,3.603-0.114c0.63-0.044,1.172-0.596,1.204-1.226
				c0,0,0.093-1.833,0.257-3.242c0.191-1.631,0.542-3.537,0.542-3.537c0.114-0.622-0.279-1.305-0.873-1.52
				c0,0-1.756-0.632-3.046-1.161c-1.994-0.817-3.781-1.661-5.339-2.522C7.812,39.412,7.006,38.88,7.006,38.88z"/>
		</g>
		<g>
			<path fill="#009FE4" d="M21.959,26.503c0.601-0.196,0.66-0.643,0.134-0.991c0,0-1.445-0.955-2.583-1.595
				c-1.354-0.763-2.635-1.372-3.8-1.792c-1.284-0.465-2.427-0.7-3.37-0.664c-1.424,0.055-2.958,0.59-2.958,0.59
				c-0.596,0.208-1.451,0.742-1.899,1.187c0,0-0.829,0.822-1.567,1.714c-0.913,1.104-1.844,2.561-1.844,2.561
				c-0.34,0.533-0.563,1.482-0.495,2.11c0,0,0.068,0.62,0.619,1.755C4.617,32.246,5.49,33.26,5.49,33.26
				c0.412,0.479,1.174,0.576,1.693,0.217c0,0,0.793-0.549,1.729-1.123c2.133-1.308,4.477-2.515,6.883-3.566
				C18.202,27.735,21.959,26.503,21.959,26.503z"/>
		</g>
		<g>
			<path fill="#009FE4" d="M21.49,56.238c-0.626,0.084-1.116,0.668-1.086,1.299c0,0,0.184,4.059,0.8,6.141
				c0.257,0.868,0.48,1.346,0.48,1.346c0.268,0.572,0.976,0.873,1.573,0.67c0,0,2.27-0.773,3.896-1.579
				c1.749-0.866,3.421-1.877,4.889-2.907c1.834-1.291,3.35-2.613,4.303-3.732c1.627-1.909,3.33-5.416,3.33-5.416
				c0.276-0.568,0.019-0.852-0.573-0.629c0,0-4.214,1.592-7.137,2.436c-1.976,0.572-4.021,1.096-6.104,1.566
				c-0.938,0.213-1.856,0.396-2.752,0.552C22.167,56.147,21.49,56.238,21.49,56.238z"/>
		</g>
		<g>
			<path fill="#009FE4" d="M2.8,37.015c0.457-0.436,0.486-1.178,0.064-1.647c0,0-0.118-0.131-0.44-0.625
				c-0.479-0.733-0.58-1.087-0.58-1.087c-0.173-0.607-0.478-0.614-0.677-0.014c0,0-0.398,1.2-0.661,2.394
				c-0.34,1.553-0.505,3.654-0.505,3.654c-0.049,0.63,0.171,0.7,0.49,0.155c0,0,0.453-0.773,1.197-1.646
				C2.257,37.533,2.8,37.015,2.8,37.015z"/>
		</g>
		<g>
			<path fill="#009FE4" d="M41.948,40.028c0.283,0.379,0.283,0.379,0.283,0.379c0.289,0.409,0.581,0.229,0.648-0.399
				c0,0,0.336-3.158,0.385-4.656c0.043-1.312,0.068-2.639,0.043-3.956c-0.021-1.139-0.109-2.225-0.109-2.225
				c-0.051-0.63-0.6-1.242-1.22-1.36c0,0-1.191-0.227-2.57-0.358c-1.655-0.158-3.532-0.224-5.663-0.177
				c-1.159,0.025-2.36,0.154-2.36,0.154c-0.629,0.067-0.757,0.466-0.284,0.885c0,0,2.532,2.25,4.185,3.937
				C37.629,34.646,39.889,37.264,41.948,40.028z"/>
		</g>
		<g>
			<path fill="#009FE4" d="M44.708,52.76c-0.124-0.892-0.521-1.982-0.521-1.982c-0.217-0.594-0.577-0.596-0.803-0.006
				c0,0-0.471,1.234-1.014,2.39c-0.641,1.36-1.38,2.72-2.236,4.071c-2.229,3.521-5.514,6.131-8.734,7.926
				c-2.525,1.406-5.82,2.421-5.82,2.421c-0.604,0.186-0.591,0.362,0.028,0.394c0,0,0,0,0.57,0c5.205,0,10.057-1.513,14.139-4.123
				c0.722-0.461,1.171-0.797,1.171-0.797c0.506-0.379,1.21-1.117,1.563-1.641c0,0,0.272-0.402,0.624-1.154
				c0.503-1.075,0.855-2.246,1.036-3.49C44.896,55.5,44.902,54.156,44.708,52.76z"/>
		</g>
		<g>
			<path fill="#009FE4" d="M48.835,46.207c-0.501,0.385-0.395,0.74,0.234,0.787c0,0,0.298,0.023,0.965,0.058
				c0.66,0.033,0.719,0.034,0.719,0.034c0.632,0.013,1.244-0.484,1.362-1.105c0,0,0.038-0.199,0.125-0.877
				c0.125-0.961,0.163-1.783,0.163-1.783c0.029-0.631-0.227-0.712-0.566-0.18c0,0-0.441,0.689-1.204,1.479
				C49.871,45.408,48.835,46.207,48.835,46.207z"/>
		</g>
		<g>
			<path fill="#009FE4" d="M48.288,49.826c-0.632-0.025-1.021,0.454-0.866,1.066c0,0,0.234,0.926,0.348,1.828
				c0.201,1.59,0.063,2.898,0.063,2.898c-0.067,0.628,0.159,0.707,0.501,0.177c0,0,0.845-1.308,1.445-2.529
				c0.536-1.093,0.987-2.323,0.987-2.323c0.217-0.592-0.087-1.076-0.676-1.075c0,0,0,0-0.622-0.011
				C48.766,49.846,48.288,49.826,48.288,49.826z"/>
		</g>
		<g>
			<path fill="#009FE4" d="M22.692,45.451c-0.606-0.18-1.193,0.182-1.305,0.804c0,0-0.164,0.908-0.316,1.914
				c-0.235,1.546-0.426,3.4-0.426,3.4c-0.064,0.628,0.393,1.063,1.017,0.966c0,0,0.867-0.134,1.882-0.32
				c2.493-0.455,5.029-1.029,7.502-1.703c2.003-0.547,4.74-1.46,4.74-1.46c0.6-0.2,0.58-0.45-0.043-0.556
				c0,0-1.765-0.301-3.315-0.615c-2.172-0.441-4.474-0.977-6.891-1.625C24.172,45.89,22.692,45.451,22.692,45.451z"/>
		</g>
		<g>
			<path fill="#009FE4" d="M45.362,43.799c-0.115,0.621,0.224,0.848,0.752,0.502c0,0,1.579-1.027,2.514-1.9
				c1.033-0.964,1.743-2.069,2.221-3.208c0.529-1.26,0.71-2.625,0.71-2.625c0.083-0.626,0.019-1.639-0.144-2.249
				c0,0-0.056-0.209-0.268-0.853c-0.134-0.407-0.134-0.407-0.134-0.407c-0.163-0.44-0.647-1.18-1.076-1.644
				c0,0-0.706-0.764-1.857-1.473c-0.596-0.369-1.005-0.553-1.005-0.553c-0.576-0.26-1,0.043-0.941,0.672
				c0,0,0.002,0.024,0.026,0.624c0.05,1.196,0.08,2.437,0.073,3.713c-0.009,1.81-0.092,3.692-0.296,5.625
				C45.767,41.628,45.362,43.799,45.362,43.799z"/>
		</g>
		<g>
			<path fill="#009FE4" d="M22.021,30.537c0.188-0.604-0.144-0.918-0.736-0.699c0,0-2.317,0.854-3.935,1.589
				c-1.652,0.751-3.241,1.567-4.736,2.418c-1.317,0.75-2.752,1.684-2.752,1.684c-0.529,0.345-0.515,0.886,0.031,1.203
				c0,0,0.656,0.381,1.571,0.841c2.245,1.129,6.531,2.745,6.531,2.745c0.592,0.223,1.208-0.095,1.369-0.706
				c0,0,0.391-1.483,0.724-2.657C20.684,34.847,22.021,30.537,22.021,30.537z"/>
		</g>
		<g>
			<path fill="#009FE4" d="M17.952,62.34c-0.356-1.954-0.566-4.528-0.566-4.528c-0.052-0.63-0.61-1.13-1.242-1.114
				c0,0-2.538,0.069-4.154-0.035c-1.713-0.11-3.25-0.324-4.592-0.603c-1.63-0.338-2.913-0.823-2.913-0.823
				c-0.591-0.224-0.796,0.029-0.456,0.561c0,0,1.042,1.631,2.03,2.805c1.179,1.401,2.501,2.677,3.945,3.805
				c1.326,1.037,2.753,1.948,4.266,2.719c1.214,0.617,2.718,1.172,2.718,1.172c0.593,0.219,1.251,0.393,1.464,0.387
				s0.597-0.533,0.37-1.122C18.822,65.562,18.284,64.165,17.952,62.34z"/>
		</g>
	</g>
</g>
</svg>
