<?xml version="1.0" encoding="utf-8"?>
<!-- Generator: Adobe Illustrator 16.0.0, SVG Export Plug-In . SVG Version: 6.00 Build 0)  -->
<!DOCTYPE svg PUBLIC "-//W3C//DTD SVG 1.1//EN" "http://www.w3.org/Graphics/SVG/1.1/DTD/svg11.dtd">
<svg version="1.1" id="Lager_1" xmlns="http://www.w3.org/2000/svg" xmlns:xlink="http://www.w3.org/1999/xlink" x="0px" y="0px"
	 viewBox="0 0 83.735 83.735" enable-background="new 0 0 83.735 83.735" xml:space="preserve">
<g>
	<g>
		<path fill="#F0A5C3" d="M28.423,68.328c-9.491,0-11.333-6.508-11.416-6.821l3.656-0.966l-0.008-0.028
			c0.066,0.219,1.716,5.345,11.385,3.704c4.974-0.844,8.186-2.123,11.02-3.253c3.106-1.237,6.04-2.408,10.351-2.64
			c4.814-0.258,7.949,1.17,10.978,2.551c1.04,0.475,2.022,0.922,3.073,1.303c4.619,1.668,9.035,1.326,13.5-1.049
			c0.922-0.49,2.067-0.14,2.558,0.782c0.489,0.923,0.14,2.067-0.782,2.558c-5.387,2.863-10.959,3.289-16.561,1.266
			c-1.195-0.433-2.294-0.934-3.357-1.418c-2.734-1.248-5.314-2.424-9.206-2.216c-3.688,0.198-6.101,1.159-9.152,2.376
			c-3.009,1.199-6.418,2.559-11.788,3.469C31.109,68.211,29.697,68.328,28.423,68.328z"/>
	</g>
	<circle fill="#F0A5C3" cx="26.402" cy="41.904" r="26.283"/>
	<g>
		<g>
			<path fill="#E6007E" d="M41.474,24.921c0.624,0.099,0.989-0.317,0.811-0.923c0,0-0.423-1.438-1.032-2.563
				c-0.54-0.997-1.04-1.566-1.04-1.566c-0.417-0.475-1.212-1.108-1.769-1.408l-1.523-0.743c-0.578-0.256-1.398-0.41-1.824-0.342
				c-0.426,0.067-1.209,0.33-1.74,0.583c0,0,0,0-1.399,1.366c-0.719,0.703-1.553,1.645-2.428,2.887
				c-0.569,0.807-1.163,1.827-1.163,1.827c-0.317,0.546-0.067,0.911,0.556,0.811c0,0,0.388-0.063,1.139-0.152
				c2.479-0.295,4.873-0.354,7.088-0.246C39.133,24.551,41.474,24.921,41.474,24.921z"/>
		</g>
		<g>
			<path fill="#E6007E" d="M46.892,26.279c0.457,0.195,0.524-0.063,0.15-0.572c0,0-0.238-0.324-0.736-0.917
				c-0.575-0.685-1.023-1.142-1.023-1.142c-0.442-0.451-0.627-0.399-0.412,0.116c0,0,0,0,0.167,0.495
				c0.169,0.499,0.169,0.499,0.169,0.499c0.155,0.577,0.566,1.138,0.914,1.248c0,0,0,0,0.293,0.104
				C46.892,26.279,46.892,26.279,46.892,26.279z"/>
		</g>
		<g>
			<path fill="#E6007E" d="M34.021,35.615c-1.223-1.29-2.504-2.542-3.812-3.734c-1.33-1.213-3.151-2.702-3.151-2.702
				c-0.489-0.399-1.075-0.245-1.301,0.345c0,0-0.67,1.743-1.163,3.397c-0.849,2.852-2.042,7.738-2.042,7.738
				c-0.15,0.613,0.223,1.263,0.829,1.443c0,0,1.865,0.556,3.38,0.959c2.343,0.625,4.721,1.187,7.06,1.678
				c2.741,0.578,6.816,1.248,6.816,1.248c0.623,0.102,1.145,0.143,1.158,0.09c0.014-0.055-0.227-0.633-0.563-1.166
				c0,0-1.249-1.983-2.35-3.477C37.396,39.416,35.731,37.417,34.021,35.615z"/>
		</g>
		<g>
			<path fill="#E6007E" d="M31.238,16.076c0.089-0.046,0.089-0.046,0.089-0.046c0.097-0.045-0.335-0.161-0.959-0.258
				c0,0-2.365-0.365-4.189-0.365c-2.553,0-5.02,0.365-7.354,1.044c-1.899,0.553-4.373,1.756-4.373,1.756
				c-0.568,0.276-0.522,0.583,0.102,0.682c0,0,2.374,0.375,4.461,1.29c1.83,0.803,4.858,2.674,4.858,2.674
				c0.538,0.332,1.225,0.15,1.528-0.404c0,0,0.643-1.177,1.325-2.149C28.005,18.476,29.494,16.981,31.238,16.076z"/>
		</g>
		<g>
			<path fill="#E6007E" d="M7.006,38.881c-0.527-0.349-1.353-0.3-1.835,0.108c0,0-1.294,1.094-2.111,1.946
				c-1.146,1.196-1.917,2.281-2.217,3.154c-0.294,0.855-0.352,1.291-0.352,1.291c-0.083,0.625-0.103,1.375-0.044,1.665
				c0.058,0.29,0.538,1.464,0.907,1.976c0,0,0.74,1.029,1.737,1.758c1.407,1.03,3.193,1.73,5.318,2.131
				c1.249,0.234,2.615,0.365,4.091,0.397c1.476,0.032,3.603-0.114,3.603-0.114c0.63-0.043,1.172-0.596,1.205-1.227
				c0,0,0.093-1.832,0.257-3.241c0.19-1.631,0.542-3.538,0.542-3.538c0.114-0.621-0.278-1.305-0.873-1.519
				c0,0-1.756-0.632-3.047-1.161c-1.994-0.818-3.78-1.662-5.339-2.523C7.812,39.413,7.006,38.881,7.006,38.881z"/>
		</g>
		<g>
			<path fill="#E6007E" d="M21.96,26.504c0.6-0.197,0.66-0.643,0.133-0.991c0,0-1.445-0.955-2.582-1.595
				c-1.354-0.763-2.636-1.371-3.8-1.792c-1.285-0.464-2.427-0.7-3.37-0.664c-1.424,0.055-2.958,0.59-2.958,0.59
				c-0.597,0.208-1.451,0.742-1.9,1.187c0,0-0.829,0.822-1.567,1.714c-0.913,1.104-1.845,2.562-1.845,2.562
				c-0.34,0.532-0.563,1.481-0.494,2.109c0,0,0.067,0.62,0.619,1.755C4.618,32.247,5.49,33.26,5.49,33.26
				c0.412,0.479,1.174,0.577,1.693,0.217c0,0,0.794-0.549,1.73-1.123c2.133-1.309,4.477-2.515,6.883-3.566
				S21.96,26.504,21.96,26.504z"/>
		</g>
		<g>
			<path fill="#E6007E" d="M21.49,56.239c-0.626,0.084-1.115,0.669-1.086,1.3c0,0,0.184,4.058,0.801,6.139
				c0.257,0.868,0.48,1.346,0.48,1.346c0.267,0.572,0.975,0.873,1.573,0.67c0,0,2.269-0.771,3.896-1.578
				c1.75-0.867,3.421-1.877,4.889-2.908c1.834-1.289,3.35-2.612,4.303-3.73c1.626-1.91,3.33-5.418,3.33-5.418
				c0.276-0.567,0.019-0.85-0.573-0.627c0,0-4.215,1.591-7.137,2.436c-1.976,0.57-4.021,1.094-6.104,1.566
				c-0.938,0.212-1.856,0.395-2.752,0.551C22.167,56.148,21.49,56.239,21.49,56.239z"/>
		</g>
		<g>
			<path fill="#E6007E" d="M2.8,37.016c0.457-0.436,0.486-1.178,0.064-1.648c0,0-0.117-0.131-0.44-0.625
				c-0.479-0.733-0.58-1.087-0.58-1.087c-0.173-0.607-0.477-0.614-0.676-0.015c0,0-0.399,1.201-0.661,2.395
				c-0.34,1.553-0.505,3.654-0.505,3.654c-0.05,0.63,0.171,0.699,0.49,0.154c0,0,0.453-0.773,1.196-1.645
				C2.257,37.533,2.8,37.016,2.8,37.016z"/>
		</g>
		<g>
			<path fill="#E6007E" d="M41.948,40.028c0.283,0.379,0.283,0.379,0.283,0.379c0.29,0.409,0.581,0.229,0.648-0.399
				c0,0,0.336-3.158,0.385-4.656c0.043-1.312,0.069-2.64,0.043-3.956c-0.022-1.139-0.11-2.225-0.11-2.225
				c-0.051-0.629-0.6-1.242-1.22-1.36c0,0-1.19-0.227-2.569-0.357c-1.656-0.158-3.532-0.225-5.663-0.178
				c-1.16,0.025-2.362,0.155-2.362,0.155c-0.628,0.067-0.756,0.466-0.283,0.886c0,0,2.532,2.249,4.184,3.936
				C37.629,34.646,39.89,37.264,41.948,40.028z"/>
		</g>
		<g>
			<path fill="#E6007E" d="M44.708,52.76c-0.124-0.892-0.521-1.982-0.521-1.982c-0.217-0.593-0.577-0.596-0.802-0.006
				c0,0-0.471,1.234-1.015,2.391c-0.639,1.359-1.38,2.719-2.235,4.07c-2.229,3.521-5.514,6.133-8.735,7.926
				c-2.525,1.406-5.82,2.422-5.82,2.422c-0.604,0.186-0.591,0.363,0.029,0.395c0,0,0,0,0.57,0c5.205,0,10.056-1.514,14.138-4.125
				c0.722-0.461,1.172-0.797,1.172-0.797c0.506-0.379,1.209-1.115,1.563-1.639c0,0,0.273-0.404,0.624-1.154
				c0.503-1.076,0.855-2.246,1.037-3.49C44.896,55.501,44.902,54.157,44.708,52.76z"/>
		</g>
		<g>
			<path fill="#E6007E" d="M48.835,46.207c-0.502,0.386-0.396,0.74,0.234,0.789c0,0,0.297,0.022,0.965,0.056
				c0.66,0.034,0.719,0.034,0.719,0.034c0.631,0.014,1.244-0.484,1.361-1.104c0,0,0.038-0.2,0.126-0.877
				c0.124-0.962,0.163-1.784,0.163-1.784c0.028-0.631-0.227-0.712-0.567-0.18c0,0-0.441,0.689-1.204,1.479
				C49.871,45.409,48.835,46.207,48.835,46.207z"/>
		</g>
		<g>
			<path fill="#E6007E" d="M48.288,49.826c-0.632-0.025-1.021,0.455-0.866,1.067c0,0,0.233,0.925,0.349,1.827
				c0.201,1.592,0.063,2.898,0.063,2.898c-0.066,0.628,0.16,0.708,0.502,0.178c0,0,0.844-1.309,1.444-2.529
				c0.536-1.094,0.987-2.322,0.987-2.322c0.218-0.594-0.086-1.078-0.674-1.076c0,0,0,0-0.623-0.012
				C48.765,49.846,48.288,49.826,48.288,49.826z"/>
		</g>
		<g>
			<path fill="#E6007E" d="M22.692,45.451c-0.605-0.18-1.193,0.183-1.305,0.805c0,0-0.163,0.908-0.316,1.914
				c-0.235,1.546-0.426,3.4-0.426,3.4c-0.065,0.629,0.393,1.063,1.017,0.966c0,0,0.867-0.135,1.882-0.319
				c2.493-0.457,5.029-1.031,7.502-1.705c2.003-0.546,4.74-1.459,4.74-1.459c0.599-0.2,0.58-0.451-0.043-0.557
				c0,0-1.765-0.3-3.316-0.615c-2.172-0.44-4.474-0.976-6.891-1.625C24.172,45.891,22.692,45.451,22.692,45.451z"/>
		</g>
		<g>
			<path fill="#E6007E" d="M45.362,43.799c-0.115,0.621,0.223,0.847,0.752,0.502c0,0,1.578-1.027,2.514-1.9
				c1.033-0.964,1.742-2.069,2.221-3.208c0.528-1.259,0.709-2.624,0.709-2.624c0.083-0.626,0.019-1.638-0.143-2.249
				c0,0-0.056-0.209-0.268-0.853c-0.135-0.407-0.135-0.407-0.135-0.407c-0.162-0.44-0.646-1.18-1.076-1.643
				c0,0-0.706-0.764-1.857-1.474c-0.596-0.368-1.004-0.552-1.004-0.552c-0.577-0.259-1,0.043-0.942,0.672
				c0,0,0.002,0.025,0.026,0.624c0.05,1.196,0.08,2.437,0.074,3.713c-0.009,1.81-0.092,3.692-0.296,5.625
				C45.768,41.629,45.362,43.799,45.362,43.799z"/>
		</g>
		<g>
			<path fill="#E6007E" d="M22.021,30.538c0.188-0.603-0.145-0.918-0.737-0.7c0,0-2.316,0.854-3.935,1.589
				c-1.652,0.751-3.241,1.567-4.736,2.419c-1.317,0.75-2.752,1.684-2.752,1.684c-0.529,0.344-0.516,0.885,0.031,1.202
				c0,0,0.656,0.38,1.571,0.841c2.245,1.129,6.532,2.745,6.532,2.745c0.591,0.223,1.207-0.095,1.368-0.706
				c0,0,0.391-1.483,0.724-2.657C20.684,34.848,22.021,30.538,22.021,30.538z"/>
		</g>
		<g>
			<path fill="#E6007E" d="M17.952,62.341c-0.355-1.954-0.566-4.528-0.566-4.528c-0.052-0.629-0.61-1.131-1.242-1.113
				c0,0-2.538,0.068-4.154-0.036c-1.713-0.11-3.25-0.325-4.591-0.603c-1.631-0.338-2.913-0.824-2.913-0.824
				c-0.591-0.223-0.796,0.029-0.456,0.563c0,0,1.042,1.63,2.029,2.803c1.179,1.401,2.501,2.678,3.945,3.807
				c1.326,1.035,2.753,1.947,4.266,2.717c1.214,0.618,2.718,1.174,2.718,1.174c0.593,0.219,1.251,0.393,1.464,0.386
				c0.212-0.006,0.597-0.532,0.37-1.122C18.822,65.563,18.284,64.166,17.952,62.341z"/>
		</g>
	</g>
</g>
</svg>
