<?xml version="1.0" encoding="utf-8"?>
<!-- Generator: Adobe Illustrator 16.0.0, SVG Export Plug-In . SVG Version: 6.00 Build 0)  -->
<!DOCTYPE svg PUBLIC "-//W3C//DTD SVG 1.1//EN" "http://www.w3.org/Graphics/SVG/1.1/DTD/svg11.dtd">
<svg version="1.1" id="Lager_1" xmlns="http://www.w3.org/2000/svg" xmlns:xlink="http://www.w3.org/1999/xlink" x="0px" y="0px"
	 viewBox="0 0 102.047 102.047" enable-background="new 0 0 102.047 102.047"
	 xml:space="preserve">
<g>
	<path fill="#009FE4" d="M54.3,45.581h-6.316c-0.04,1.268-0.078,2.464-0.113,3.553h6.511C54.356,48.012,54.329,46.82,54.3,45.581z"
		/>
	<path fill="#009FE4" d="M53.779,20.248c0-2.023,0.458-2.594,1.78-2.959c1.292-0.355,1.531-0.918,1.208-2.294
		c-0.313-1.327-0.982-4.101-1.415-5.857c-0.186-0.753,0.18-0.808,0.35-0.852c1.543-0.395,2.682-1.794,2.682-3.46
		c0-1.974-1.6-3.573-3.572-3.573c-1.48,0-2.749,0.901-3.29,2.187c-0.036,0.085-0.308,0.881-0.706,2.063
		c-0.415-0.132-0.804-0.256-1.148-0.366c0.001-0.019,0.003-0.036,0.003-0.055c0-0.91-0.736-1.647-1.646-1.647
		c-0.909,0-1.646,0.737-1.646,1.647c0,0.908,0.737,1.646,1.646,1.646c0.564,0,1.063-0.284,1.359-0.718
		c0.349,0.112,0.736,0.235,1.141,0.364c-0.348,1.036-0.756,2.259-1.174,3.518c-0.426-0.141-0.828-0.273-1.186-0.393
		c0.002-0.026,0.005-0.052,0.005-0.078c0-0.909-0.737-1.646-1.647-1.646c-0.908,0-1.646,0.737-1.646,1.646s0.738,1.646,1.646,1.646
		c0.558,0,1.049-0.276,1.347-0.699c0.36,0.12,0.765,0.254,1.192,0.396c-0.398,1.203-0.795,2.408-1.148,3.488
		c-0.451-0.148-0.875-0.289-1.249-0.415c0.001-0.024,0.004-0.05,0.004-0.075c0-0.909-0.737-1.646-1.646-1.646
		s-1.647,0.737-1.647,1.646s0.738,1.646,1.647,1.646c0.557,0,1.048-0.277,1.346-0.701c0.38,0.127,0.808,0.27,1.262,0.419
		c-0.447,1.374-0.789,2.447-0.914,2.889c-0.322,1.14,0.053,1.593,0.905,1.902c0.654,0.236,0.965,0.425,1.039,1.165h5.128
		C53.782,20.695,53.779,20.412,53.779,20.248z"/>
	<path fill="#009FE4" d="M54.189,40.557h-6.048c-0.042,1.34-0.083,2.657-0.123,3.921h6.258
		C54.248,43.201,54.218,41.885,54.189,40.557z"/>
	<path fill="#009FE4" d="M53.805,22.183h-5.136c-0.021,1.098-0.075,3.167-0.149,5.757h5.396
		C53.869,25.583,53.829,23.579,53.805,22.183z"/>
	<path fill="#009FE4" d="M54.07,35.167h-5.764c-0.043,1.414-0.087,2.857-0.131,4.288h5.988C54.132,38.02,54.101,36.58,54.07,35.167z
		"/>
	<path fill="#009FE4" d="M53.94,29.042h-5.451c-0.045,1.554-0.096,3.257-0.149,5.023h5.707
		C54.008,32.308,53.972,30.613,53.94,29.042z"/>
	<path fill="#009FE4" d="M54.407,50.236h-6.571c-0.042,1.288-0.077,2.377-0.104,3.186h6.749
		C54.458,52.479,54.434,51.406,54.407,50.236z"/>
	<path fill="#009FE4" d="M63.789,73.363c0-4.164,3.363-6.276,3.363-11.603c0-3.429-1.65-4.703-3.119-4.746
		C62.77,56.978,62,58.107,61.77,59.493c-0.279,1.672-1.053,3.695-3.559,3.666c-3.553-0.042-3.562-3.295-3.635-5.866
		c-0.012-0.407-0.036-1.385-0.069-2.77h-6.812c-0.007,0.193-0.012,0.33-0.015,0.402c-0.061,1.53-0.642,3.284-2.592,3.412
		c-2.688,0.178-4.08-1.324-4.08-4.875c0-2.021-0.774-3.259-2.13-3.311c-2.444-0.092-3.933,2.298-3.933,6.343
		c0,5.664,3.591,9.738,3.591,14.488c0,4.751-5.424,11.013-5.424,18.973s7.654,10.838,18.063,10.838
		c10.409,0,17.756-1.898,17.756-10.838S63.789,77.404,63.789,73.363z"/>
	<path fill="#0A4682" d="M43.11,79.953c0,5.012,3.38,6.527,8.625,6.527c5.246,0,7.81-0.466,10.722,1.282
		c2.914,1.748,4.641,0.534,4.135-2.185c-0.668-3.599-4.367-8.654-4.367-12.502c0-3.846,3.498-7.692,2.914-10.956
		c-0.334-1.871-1.424-2.096-1.934-0.959c-0.436,0.976-0.85,2.314-1.797,3.058c-1.205,0.945-2.564,1.328-4.895,1.282
		c-1.881-0.038-4.406-1.28-6.813-2.718c-1.943-1.158-4.582-0.698-3.961,2.874c0.463,2.664,0.517,4.739-0.531,7.303
		C44.159,75.524,43.11,77.622,43.11,79.953z"/>
	<path fill="#0A4682" d="M57.971,88.878c-1.357,1.515,1.34,3.313,2.738,4.245s3.396,1.736,4.213,0.57s-0.715-2.436-1.998-3.483
		C61.643,89.161,59.035,87.692,57.971,88.878z"/>
</g>
</svg>
