<?xml version="1.0" encoding="utf-8"?>
<!-- Generator: Adobe Illustrator 16.0.0, SVG Export Plug-In . SVG Version: 6.00 Build 0)  -->
<!DOCTYPE svg PUBLIC "-//W3C//DTD SVG 1.1//EN" "http://www.w3.org/Graphics/SVG/1.1/DTD/svg11.dtd">
<svg version="1.1" id="Lager_1" xmlns="http://www.w3.org/2000/svg" xmlns:xlink="http://www.w3.org/1999/xlink" x="0px" y="0px"
	 viewBox="0 0 102.047 102.047" enable-background="new 0 0 102.047 102.047"
	 xml:space="preserve">
<g>
	<path fill="#E6007E" d="M54.072,35.168h-5.764c-0.044,1.414-0.088,2.857-0.132,4.288h5.989
		C54.133,38.021,54.102,36.58,54.072,35.168z"/>
	<path fill="#E6007E" d="M54.302,45.581h-6.317c-0.04,1.268-0.078,2.464-0.113,3.553h6.511
		C54.357,48.013,54.331,46.82,54.302,45.581z"/>
	<path fill="#E6007E" d="M53.941,29.043H48.49c-0.045,1.554-0.096,3.257-0.148,5.023h5.706
		C54.01,32.309,53.974,30.613,53.941,29.043z"/>
	<path fill="#E6007E" d="M53.78,20.248c0-2.023,0.458-2.594,1.781-2.959c1.292-0.355,1.531-0.918,1.207-2.294
		c-0.313-1.327-0.981-4.101-1.414-5.857c-0.186-0.753,0.18-0.808,0.35-0.852c1.542-0.395,2.683-1.794,2.683-3.46
		c0-1.974-1.6-3.573-3.573-3.573c-1.48,0-2.749,0.901-3.29,2.187c-0.036,0.085-0.308,0.881-0.705,2.063
		c-0.416-0.132-0.805-0.256-1.149-0.366c0.001-0.019,0.003-0.036,0.003-0.055c0-0.91-0.736-1.647-1.646-1.647
		s-1.647,0.737-1.647,1.647c0,0.908,0.738,1.646,1.647,1.646c0.564,0,1.062-0.284,1.358-0.718c0.349,0.112,0.736,0.235,1.141,0.364
		c-0.348,1.036-0.755,2.259-1.174,3.518c-0.426-0.141-0.828-0.273-1.185-0.393c0.001-0.026,0.004-0.052,0.004-0.078
		c0-0.909-0.737-1.646-1.646-1.646s-1.646,0.737-1.646,1.646s0.737,1.646,1.646,1.646c0.557,0,1.048-0.276,1.347-0.699
		c0.359,0.12,0.764,0.254,1.192,0.396c-0.398,1.203-0.796,2.408-1.149,3.488c-0.451-0.148-0.874-0.289-1.249-0.415
		c0.001-0.024,0.004-0.05,0.004-0.075c0-0.909-0.737-1.646-1.646-1.646s-1.646,0.737-1.646,1.646s0.737,1.646,1.646,1.646
		c0.558,0,1.049-0.277,1.347-0.701c0.379,0.127,0.807,0.27,1.261,0.419c-0.447,1.374-0.788,2.447-0.914,2.889
		c-0.322,1.14,0.053,1.593,0.906,1.902c0.653,0.236,0.964,0.425,1.038,1.165h5.128C53.783,20.695,53.78,20.412,53.78,20.248z"/>
	<path fill="#E6007E" d="M53.806,22.184H48.67c-0.021,1.098-0.075,3.167-0.149,5.757h5.397
		C53.87,25.583,53.831,23.579,53.806,22.184z"/>
	<path fill="#E6007E" d="M54.19,40.558h-6.048c-0.042,1.34-0.083,2.657-0.122,3.921h6.257C54.249,43.201,54.219,41.886,54.19,40.558
		z"/>
	<path fill="#E6007E" d="M54.408,50.236h-6.571c-0.041,1.288-0.077,2.377-0.104,3.185h6.749
		C54.46,52.479,54.435,51.406,54.408,50.236z"/>
	<path fill="#E6007E" d="M63.789,73.363c0-4.164,3.365-6.275,3.365-11.602c0-3.43-1.65-4.703-3.119-4.746
		c-1.264-0.037-2.033,1.092-2.266,2.479c-0.279,1.672-1.053,3.695-3.559,3.666c-3.552-0.043-3.561-3.295-3.634-5.867
		c-0.012-0.406-0.035-1.385-0.068-2.77h-6.813c-0.007,0.193-0.012,0.33-0.015,0.402c-0.061,1.531-0.642,3.285-2.592,3.412
		c-2.688,0.178-4.08-1.324-4.08-4.875c0-2.021-0.773-3.258-2.13-3.31c-2.443-0.092-3.933,2.298-3.933,6.343
		c0,5.664,3.592,9.738,3.592,14.488s-5.425,11.012-5.425,18.973c0,7.959,7.654,10.838,18.063,10.838
		c10.41,0,17.757-1.898,17.757-10.838S63.789,77.404,63.789,73.363z"/>
	<path fill="#8C005A" d="M43.111,79.953c0,5.012,3.38,6.527,8.625,6.527c5.245,0,7.809-0.465,10.723,1.283s4.639,0.533,4.135-2.186
		c-0.668-3.598-4.367-8.654-4.367-12.502c0-3.846,3.496-7.691,2.914-10.955c-0.334-1.871-1.426-2.096-1.934-0.959
		c-0.436,0.975-0.85,2.314-1.797,3.057c-1.205,0.945-2.566,1.328-4.896,1.283c-1.88-0.039-4.405-1.281-6.812-2.719
		c-1.943-1.158-4.582-0.697-3.961,2.875c0.463,2.664,0.518,4.738-0.531,7.303S43.111,77.623,43.111,79.953z"/>
	<path fill="#8C005A" d="M57.973,88.878c-1.359,1.516,1.34,3.313,2.738,4.246c1.398,0.932,3.396,1.736,4.213,0.57
		s-0.717-2.436-1.998-3.484C61.643,89.162,59.037,87.693,57.973,88.878z"/>
</g>
</svg>
