<?xml version="1.0" encoding="utf-8"?>
<!-- Generator: Adobe Illustrator 16.0.0, SVG Export Plug-In . SVG Version: 6.00 Build 0)  -->
<!DOCTYPE svg PUBLIC "-//W3C//DTD SVG 1.1//EN" "http://www.w3.org/Graphics/SVG/1.1/DTD/svg11.dtd">
<svg version="1.1" id="Lager_1" xmlns="http://www.w3.org/2000/svg" xmlns:xlink="http://www.w3.org/1999/xlink" x="0px" y="0px"
	 viewBox="0 0 96.917 96.917" enable-background="new 0 0 96.917 96.917" xml:space="preserve">
<g>
	<g>
		<path fill="#009FE4" d="M66.923,55.743c-1.051-1.275-2.295-2.244-3.221-3.619c-1.197-1.776-1.633-3.54-1.633-7.04
			c0-2.682,0-7.365,0-7.365H43.36c0,0.029,0,0.421,0,1.104c0,0.775,0,1.933,0,3.396c0,3.553,0,6.62-8.271,12.122
			c-9.127,6.071-11.647,12.683-12.155,17.157c-0.544,4.792,1.021,9.522,4.294,12.979c3.146,3.323,7.312,4.775,11.417,5.299
			c0.988,0.125,2.119,0.23,3.664,0.23h19.042c5.477,0,8.229-3.222,8.229-8.143c0,0,0-13.873,0-16.918S69.58,58.969,66.923,55.743z
			 M25.886,71.834c0.437-3.849,2.672-9.579,10.849-15.019c2.825-1.879,4.822-3.568,6.235-5.147c0.136-0.151,0.391-0.341,0.391,0.067
			c0,3.525,0,7.458,0,11.493c0,2.087-0.384,2.771-1.583,3.606c-0.96,0.67-1.238,0.811-2.111,1.348
			c-1.747,1.075-2.095,2.703-2.095,4.898c0,8.49,0,12.796,0,12.796c0,0.72-0.643,0.507-0.783,0.476
			c-2.771-0.625-5.393-1.793-7.404-3.918C26.717,79.616,25.441,75.753,25.886,71.834z"/>
		<path fill="#009FE4" d="M43.36,95.859c0,0.579,0.475,1.052,1.053,1.052h16.604c0.578,0,1.053-0.473,1.053-1.052v-4.183H43.36
			V95.859z"/>
		<path fill="#009FE4" d="M62.07,31.74c0-0.579-0.475-1.052-1.053-1.052H44.413c-0.578,0-1.053,0.474-1.053,1.052v4.182H62.07V31.74
			z"/>
	</g>
	<path fill="#B0CB0B" d="M74.089,93.474c0,1.898-1.539,3.438-3.438,3.438l0,0c-1.9,0-3.439-1.539-3.439-3.438l0,0
		c0-1.898,1.539-3.438,3.439-3.438l0,0C72.55,90.036,74.089,91.575,74.089,93.474L74.089,93.474z"/>
	<g>
		<path fill="#B0CB0B" d="M68.425,11.317c-1.252-1.743-3.049-2.449-6.424-2.449c-4.088,0-5.906,3.031-5.906,6.789
			c0,2.634,0,10.025,0,15.03h3.166c0-4.184,0-10.12,0-11.535c0-2.241,1.383-2.835,2.24-2.835c1.588,0,2.732,0.936,4.877,0.593
			C69.384,16.431,69.74,13.145,68.425,11.317z"/>
		<path fill="#B0CB0B" d="M54.052,7.609c0-3.758-1.072-6.865-5.132-7.474c-3.269-0.49-5.971,0.444-7.365,2.208
			c-1.642,2.076-1.346,5.433,1.835,6.229c2.51,0.627,4.538-0.872,5.379-1.031c1.187-0.224,2.243-0.063,2.243,2.178
			c0,1.313,0,12.191,0,20.968h3.04C54.052,21.476,54.052,9.902,54.052,7.609z"/>
		<path fill="#B0CB0B" d="M49.01,18.708c0-3.757-1.027-5.267-5.134-5.267c-1.509,0-3.211-0.01-4.411-0.01
			c-2.295,0-3.819,0.741-3.819,3.17c0,0.439-0.01,0.759,0.017,1.374c0.04,0.961,0.04,1.573,0.431,2.148
			c0.611,0.901,1.863,1.168,3.128,0.645c2.37-0.98,3.564-1.457,4.505-1.787c1.138-0.401,2.242,0.049,2.242,1.737
			c0,0.747,0,4.843,0,9.971h3.042C49.01,24.913,49.01,20.058,49.01,18.708z"/>
	</g>
	<g>
		<path fill="#B0CB0B" d="M58.712,44.044c0-0.65-0.533-1.184-1.184-1.184h-9.587c-0.652,0-1.186,0.533-1.186,1.184v2.325h11.957
			V44.044z"/>
		<path fill="#B0CB0B" d="M46.756,56.069c0,0.65,0.533,1.184,1.186,1.184h9.587c0.65,0,1.184-0.533,1.184-1.184v-7.844H46.756
			V56.069z"/>
	</g>
	<rect x="43.36" y="35.922" fill="#FFFFFF" width="18.709" height="1.797"/>
	<g>
		<path fill="#FFFFFF" d="M43.36,90.007v1.67H62.07v-1.697c-0.236,0.014-0.473,0.027-0.719,0.027H43.36z"/>
	</g>
</g>
</svg>
