<?xml version="1.0" encoding="utf-8"?>
<!-- Generator: Adobe Illustrator 16.0.0, SVG Export Plug-In . SVG Version: 6.00 Build 0)  -->
<!DOCTYPE svg PUBLIC "-//W3C//DTD SVG 1.1//EN" "http://www.w3.org/Graphics/SVG/1.1/DTD/svg11.dtd">
<svg version="1.1" id="Lager_1" xmlns="http://www.w3.org/2000/svg" xmlns:xlink="http://www.w3.org/1999/xlink" x="0px" y="0px"
	 viewBox="0 0 73.701 73.701" enable-background="new 0 0 73.701 73.701" xml:space="preserve">
<g>
	<path fill="#994916" d="M34.043,71.317c0,0.607,0.497,1.105,1.106,1.105h3.402c0.609,0,1.106-0.498,1.106-1.105V60.635h-5.615
		V71.317z"/>
	<path fill="#1E6E32" d="M57.167,59.649L45.53,36.374c-0.271-0.545,0.002-0.99,0.612-0.99h6.945c0.608,0,0.883-0.443,0.613-0.986
		L37.345,1.687c-0.271-0.544-0.717-0.544-0.988,0l-16.354,32.71c-0.272,0.543,0.003,0.986,0.61,0.986h6.946
		c0.607,0,0.883,0.445,0.61,0.99L16.532,59.649c-0.271,0.543,0.004,0.986,0.612,0.986h11.981h3.811h7.826h6.359h9.436
		C57.165,60.635,57.439,60.192,57.167,59.649z"/>
</g>
</svg>
