<?xml version="1.0" encoding="utf-8"?>
<!-- Generator: Adobe Illustrator 16.0.0, SVG Export Plug-In . SVG Version: 6.00 Build 0)  -->
<!DOCTYPE svg PUBLIC "-//W3C//DTD SVG 1.1//EN" "http://www.w3.org/Graphics/SVG/1.1/DTD/svg11.dtd">
<svg version="1.1" id="Lager_1" xmlns="http://www.w3.org/2000/svg" xmlns:xlink="http://www.w3.org/1999/xlink" x="0px" y="0px"
	 viewBox="0 0 95.272 95.272" enable-background="new 0 0 95.272 95.272" xml:space="preserve">
<g>
	<path fill="#994916" d="M19.618,82.103c0,0.607,0.497,1.105,1.106,1.105h3.402c0.609,0,1.106-0.498,1.106-1.105V71.421h-5.615
		V82.103z"/>
	<path fill="#1E6E32" d="M42.742,70.435L31.105,47.159c-0.271-0.545,0.002-0.99,0.612-0.99h6.945c0.608,0,0.883-0.443,0.613-0.986
		l-16.356-32.71c-0.271-0.544-0.717-0.544-0.988,0L5.577,45.183c-0.272,0.543,0.003,0.986,0.61,0.986h6.946
		c0.607,0,0.883,0.445,0.61,0.99L2.107,70.435c-0.271,0.543,0.004,0.986,0.612,0.986h11.981h3.811h7.826h6.359h9.436
		C42.74,71.421,43.014,70.978,42.742,70.435z"/>
</g>
<g>
	<path fill="#994916" d="M69.956,82.103c0,0.607,0.498,1.105,1.104,1.105h3.405c0.606,0,1.104-0.498,1.104-1.105V71.421h-5.614
		V82.103z"/>
	<g>
		<path fill="#1E6E32" d="M93.212,70.378l-20.088-57.85c-0.199-0.574-0.525-0.574-0.726,0l-20.086,57.85
			c-0.201,0.574,0.135,1.043,0.742,1.043h10.252h5.543h7.824h4.631h11.164C93.076,71.421,93.41,70.952,93.212,70.378z"/>
	</g>
</g>
</svg>
