<?xml version="1.0" encoding="utf-8"?>
<!-- Generator: Adobe Illustrator 16.0.0, SVG Export Plug-In . SVG Version: 6.00 Build 0)  -->
<!DOCTYPE svg PUBLIC "-//W3C//DTD SVG 1.1//EN" "http://www.w3.org/Graphics/SVG/1.1/DTD/svg11.dtd">
<svg version="1.1" id="Lager_1" xmlns="http://www.w3.org/2000/svg" xmlns:xlink="http://www.w3.org/1999/xlink" x="0px" y="0px"
	 viewBox="0 0 73.701 73.701" enable-background="new 0 0 73.701 73.701" xml:space="preserve">
<g>
	<path fill="#1E6E32" d="M47.176,26.605c-2.152,2.609-8.137,1.33-11.98,1.33c-4.14,0-5.296,4.962-7.779,6.617
		c-1.132,0.756-2.539,0.641-3.596-0.156l-8.502,24.486c-0.208,0.602,0.144,1.098,0.784,1.098h10.794h5.834h8.242h4.873H57.6
		c0.643,0,0.992-0.496,0.781-1.098L47.176,26.605z"/>
	<path fill="#994916" d="M33.895,71.228c0,0.638,0.527,1.162,1.164,1.162h3.586c0.641,0,1.164-0.524,1.164-1.162V59.98h-5.914
		V71.228z"/>
	<path fill="#C8E6FA" d="M37.258,1.335c-4.452-0.356-6.532,3.271-8.684,9.062c-2.149,5.789-4.467,13.73-5.956,18.531
		c-1.49,4.799,2.317,7.279,4.799,5.625c2.482-1.655,3.639-6.617,7.779-6.617c4.133,0,10.752,1.486,12.41-1.987
		c1.654-3.476-0.334-7.114-2.318-13.235C43.301,6.589,41.395,1.666,37.258,1.335z"/>
</g>
</svg>
