<?xml version="1.0" encoding="utf-8"?>
<!-- Generator: Adobe Illustrator 16.0.0, SVG Export Plug-In . SVG Version: 6.00 Build 0)  -->
<!DOCTYPE svg PUBLIC "-//W3C//DTD SVG 1.1//EN" "http://www.w3.org/Graphics/SVG/1.1/DTD/svg11.dtd">
<svg version="1.1" id="Lager_1" xmlns="http://www.w3.org/2000/svg" xmlns:xlink="http://www.w3.org/1999/xlink" x="0px" y="0px"
	 viewBox="0 0 103.437 103.436" enable-background="new 0 0 103.437 103.436"
	 xml:space="preserve">
<g>
	<path fill="#B0CB0B" d="M24.769,55.733c0,0.914,0.741,1.655,1.656,1.655h0.217c1.155,8.462,6.818,15.488,14.492,18.579
		l-10.29,24.704c-0.332,0.794,0.047,1.715,0.84,2.047l0.17,0.07c0.794,0.332,1.715-0.047,2.046-0.842l7.155-17.188l21.377,0.072
		l0.307,0.735c-2.754,1.703-4.6,4.743-4.6,8.213c0,5.326,4.334,9.659,9.66,9.659s9.66-4.333,9.66-9.659s-4.334-9.66-9.66-9.66
		c-0.682,0-1.346,0.073-1.988,0.208l-3.496-8.368c7.664-3.096,13.316-10.115,14.471-18.57h0.225c0.914,0,1.656-0.741,1.656-1.655
		c0-0.915-0.742-1.657-1.656-1.657H26.425C25.51,54.076,24.769,54.818,24.769,55.733 M42.435,81.451l1.864-4.468
		c0.612,0.15,1.234,0.279,1.864,0.381c1.219,0.195,2.467,0.3,3.739,0.3h3.629c1.938,0,3.82-0.239,5.622-0.683l1.893,4.532
		L42.435,81.451z"/>
	<path fill="#1E6E32" d="M67.8,98.406c2.553,0,4.627-2.076,4.627-4.627c0-2.553-2.074-4.628-4.627-4.628
		c-2.551,0-4.627,2.075-4.627,4.628C63.173,96.33,65.249,98.406,67.8,98.406"/>
	<path fill="#7DC8F0" d="M40.711,4.009c2.231-2.341,5.943-4.011,10.708-4.011c6.498,0,11.843,5.425,11.843,11.922
		c0,5.628-3.957,10.327-9.238,11.483c-0.065,0.015-0.129,0.033-0.195,0.047c-0.157,0.032-0.32,0.049-0.481,0.073
		c-0.604,0.095-1.22,0.16-1.85,0.16c-6.291,0-8.501-5.377-8.563-6.728c-0.04-0.89-0.88,1.304,1.228,4.297
		c1.091,1.549,3.749,3.625,6.215,5.893c2.527,2.325,5.762,5.674,6.825,10.372c1.295,5.724-0.156,10.3-1.416,12.2
		c-0.429,0.646-0.544,0.622-0.517-0.058c0.16-3.987,0.16-7.706-2.411-12.143c-4.521-7.801-11.701-9.131-15.311-17.568
		C34.917,13.797,36.869,8.041,40.711,4.009"/>
</g>
</svg>
