<?xml version="1.0" encoding="utf-8"?>
<!-- Generator: Adobe Illustrator 16.0.0, SVG Export Plug-In . SVG Version: 6.00 Build 0)  -->
<!DOCTYPE svg PUBLIC "-//W3C//DTD SVG 1.1//EN" "http://www.w3.org/Graphics/SVG/1.1/DTD/svg11.dtd">
<svg version="1.1" id="Lager_1" xmlns="http://www.w3.org/2000/svg" xmlns:xlink="http://www.w3.org/1999/xlink" x="0px" y="0px"
	 viewBox="0 0 103.437 103.436" enable-background="new 0 0 103.437 103.436"
	 xml:space="preserve">
<g>
	<path fill="#8C005A" d="M24.768,55.733c0,0.914,0.74,1.654,1.656,1.654h0.217c1.155,8.463,6.818,15.488,14.492,18.58l-10.29,24.703
		c-0.332,0.795,0.046,1.715,0.841,2.047l0.169,0.07c0.795,0.332,1.715-0.047,2.046-0.842l7.155-17.188l21.377,0.072l0.307,0.734
		c-2.754,1.703-4.598,4.744-4.598,8.213c0,5.326,4.332,9.66,9.658,9.66s9.66-4.334,9.66-9.66s-4.334-9.66-9.66-9.66
		c-0.68,0-1.346,0.074-1.986,0.209l-3.498-8.369c7.664-3.096,13.316-10.115,14.471-18.57h0.225c0.914,0,1.656-0.74,1.656-1.654
		c0-0.916-0.742-1.658-1.656-1.658H26.424C25.508,54.075,24.768,54.817,24.768,55.733 M42.434,81.45l1.864-4.467
		c0.613,0.15,1.234,0.279,1.864,0.381c1.218,0.195,2.467,0.299,3.739,0.299h3.63c1.938,0,3.819-0.238,5.621-0.682l1.893,4.531
		L42.434,81.45z"/>
	<path fill="#F0A5C3" d="M67.799,98.405c2.553,0,4.627-2.076,4.627-4.627c0-2.553-2.074-4.627-4.627-4.627
		c-2.551,0-4.627,2.074-4.627,4.627C63.172,96.329,65.248,98.405,67.799,98.405"/>
	<path fill="#FFE57E" d="M40.71,4.009c2.231-2.341,5.943-4.011,10.708-4.011c6.498,0,11.843,5.425,11.843,11.922
		c0,5.628-3.957,10.327-9.238,11.483c-0.065,0.015-0.129,0.033-0.195,0.047c-0.157,0.032-0.32,0.049-0.481,0.073
		c-0.604,0.095-1.22,0.16-1.85,0.16c-6.291,0-8.501-5.377-8.563-6.728c-0.04-0.89-0.88,1.304,1.228,4.297
		c1.09,1.549,3.748,3.625,6.215,5.893c2.527,2.325,5.762,5.674,6.826,10.372c1.294,5.724-0.157,10.3-1.416,12.2
		c-0.429,0.646-0.545,0.622-0.518-0.058c0.159-3.987,0.16-7.706-2.411-12.143c-4.521-7.801-11.701-9.131-15.311-17.568
		C34.916,13.797,36.868,8.04,40.71,4.009"/>
</g>
</svg>
