<?xml version="1.0" encoding="utf-8"?>
<!-- Generator: Adobe Illustrator 16.0.0, SVG Export Plug-In . SVG Version: 6.00 Build 0)  -->
<!DOCTYPE svg PUBLIC "-//W3C//DTD SVG 1.1//EN" "http://www.w3.org/Graphics/SVG/1.1/DTD/svg11.dtd">
<svg version="1.1" id="Lager_1" xmlns="http://www.w3.org/2000/svg" xmlns:xlink="http://www.w3.org/1999/xlink" x="0px" y="0px"
	 viewBox="0 0 70.866 70.866" enable-background="new 0 0 70.866 70.866" xml:space="preserve">
<g>
	<path fill="#B0CB0B" d="M68.927,19.814l-6.67-13.438c-0.318-0.64-1.102-0.904-1.742-0.589l-48.974,24.2
		c-0.641,0.315-0.905,1.099-0.587,1.737l0.511,1.031c-0.253-0.023-0.502-0.076-0.765-0.076c-4.169,0-7.564,3.395-7.564,7.564
		c0,3.562,2.479,6.549,5.797,7.348c-4.066,0.821-7.128,4.414-7.128,8.723c0,4.914,3.983,8.897,8.896,8.897
		c4.915,0,8.897-3.983,8.897-8.897c0-4.307-3.059-7.898-7.123-8.722c1.965-0.479,3.625-1.732,4.658-3.414l0.487,0.98
		c0.319,0.64,1.103,0.905,1.744,0.59l48.975-24.197C68.979,21.236,69.246,20.453,68.927,19.814z M12.316,42.744v-1.232
		c0-0.893-0.724-1.616-1.616-1.616c-0.892,0-1.616,0.724-1.616,1.616v1.231c-0.82-0.531-1.365-1.451-1.365-2.499
		c0-1.645,1.337-2.981,2.981-2.981c1.646,0,2.986,1.337,2.986,2.981C13.686,41.293,13.138,42.213,12.316,42.744z"/>
	<g>
		<g>
			<g>
				<path fill="#1E6E32" d="M21.596,40.146c-0.823,0.407-1.82,0.069-2.227-0.753l-2.784-5.635c-0.407-0.824-0.069-1.82,0.754-2.227
					c0.823-0.407,1.82-0.069,2.227,0.753l2.784,5.634C22.757,38.741,22.418,39.739,21.596,40.146z"/>
			</g>
		</g>
		<g>
			<g>
				<path fill="#1E6E32" d="M28.418,36.775c-0.824,0.407-1.82,0.068-2.228-0.754l-2.783-5.634c-0.407-0.823-0.069-1.82,0.753-2.228
					c0.823-0.406,1.821-0.068,2.228,0.755l2.783,5.633C29.579,35.37,29.241,36.368,28.418,36.775z"/>
			</g>
		</g>
		<g>
			<g>
				<path fill="#1E6E32" d="M35.242,33.403c-0.823,0.407-1.82,0.069-2.227-0.753l-2.784-5.635c-0.407-0.822-0.069-1.82,0.754-2.227
					c0.823-0.407,1.819-0.069,2.227,0.754l2.784,5.634C36.403,32,36.064,32.998,35.242,33.403z"/>
			</g>
		</g>
		<g>
			<g>
				<path fill="#1E6E32" d="M42.064,30.033c-0.823,0.406-1.821,0.067-2.228-0.755l-2.783-5.634c-0.407-0.822-0.069-1.82,0.753-2.228
					c0.824-0.405,1.821-0.069,2.228,0.755l2.783,5.634C43.226,28.629,42.888,29.627,42.064,30.033z"/>
			</g>
		</g>
		<g>
			<g>
				<path fill="#1E6E32" d="M48.886,26.662c-0.822,0.405-1.82,0.068-2.227-0.755l-2.783-5.633c-0.406-0.824-0.068-1.821,0.754-2.229
					c0.822-0.405,1.82-0.068,2.227,0.755l2.785,5.635C50.047,25.258,49.71,26.255,48.886,26.662z"/>
			</g>
		</g>
		<g>
			<g>
				<path fill="#1E6E32" d="M55.71,23.29c-0.822,0.407-1.82,0.069-2.228-0.754L50.7,16.902c-0.408-0.823-0.07-1.821,0.753-2.227
					c0.823-0.407,1.821-0.069,2.228,0.753l2.783,5.635C56.87,21.886,56.533,22.883,55.71,23.29z"/>
			</g>
		</g>
		<g>
			<g>
				<path fill="#1E6E32" d="M62.532,19.919c-0.822,0.407-1.82,0.069-2.227-0.753l-2.784-5.635c-0.405-0.824-0.068-1.82,0.755-2.227
					c0.822-0.407,1.82-0.069,2.228,0.753l2.782,5.634C63.694,18.514,63.356,19.512,62.532,19.919z"/>
			</g>
		</g>
	</g>
</g>
</svg>
