<?xml version="1.0" encoding="utf-8"?>
<!-- Generator: Adobe Illustrator 16.0.0, SVG Export Plug-In . SVG Version: 6.00 Build 0)  -->
<!DOCTYPE svg PUBLIC "-//W3C//DTD SVG 1.1//EN" "http://www.w3.org/Graphics/SVG/1.1/DTD/svg11.dtd">
<svg version="1.1" id="Lager_1" xmlns="http://www.w3.org/2000/svg" xmlns:xlink="http://www.w3.org/1999/xlink" x="0px" y="0px"
	 viewBox="0 0 70.866 70.866" enable-background="new 0 0 70.866 70.866" xml:space="preserve">
<g>
	<path fill="#E6007E" d="M69.117,20.384L62.448,6.945c-0.318-0.64-1.103-0.904-1.743-0.589l-48.974,24.2
		c-0.641,0.315-0.905,1.099-0.586,1.737l0.511,1.031c-0.253-0.023-0.502-0.076-0.764-0.076c-4.17,0-7.564,3.395-7.564,7.564
		c0,3.526,2.427,6.492,5.697,7.327c0.083,0.021,0.251,0.163,0.251,0.327c0,0.524,0,1.659,0,1.875c0,0.281-0.187,0.216-0.284,0.126
		c-0.949-0.865-2.19-1.576-3.358-1.497c-2.551,0.17-4.177,2.378-4.005,4.925c0.144,2.138,1.236,4.056,3.028,5.82
		c1.791,1.759,3.869,3.535,5.123,4.558c0.615,0.501,1.632,0.491,2.263-0.025c1.257-1.024,3.316-2.787,5.093-4.532
		c1.791-1.765,2.881-3.683,3.025-5.82c0.171-2.547-1.454-4.755-4.004-4.925c-1.141-0.076-2.35,0.597-3.289,1.435
		c-0.125,0.11-0.359,0.231-0.359-0.106c0-0.259,0-1.347,0-1.847c0-0.24,0.15-0.287,0.225-0.307c1.936-0.492,3.57-1.735,4.591-3.398
		l0.487,0.98c0.319,0.64,1.103,0.905,1.744,0.59l48.975-24.197C69.17,21.806,69.437,21.022,69.117,20.384z M12.507,43.313v-1.232
		c0-0.894-0.724-1.616-1.616-1.616s-1.616,0.723-1.616,1.616v1.231C8.456,42.78,7.91,41.861,7.91,40.813
		c0-1.645,1.337-2.981,2.981-2.981c1.645,0,2.985,1.337,2.985,2.981C13.876,41.862,13.329,42.782,12.507,43.313z"/>
	<g>
		<circle fill="#FFB900" cx="21.551" cy="35.621" r="2.919"/>
	</g>
	<g>
		<circle fill="#FFB900" cx="33.421" cy="29.756" r="2.919"/>
	</g>
	<g>
		<path fill="#FFB900" d="M47.218,21.698c1.213,1.065,1.334,2.908,0.267,4.119c-1.061,1.212-2.905,1.33-4.118,0.268
			c-1.211-1.065-1.33-2.906-0.266-4.119C44.163,20.754,46.009,20.633,47.218,21.698z"/>
	</g>
	<g>
		<path fill="#FFB900" d="M59.089,15.834c1.211,1.064,1.334,2.907,0.266,4.12c-1.061,1.21-2.906,1.33-4.117,0.267
			c-1.211-1.064-1.33-2.906-0.266-4.118C56.034,14.89,57.879,14.768,59.089,15.834z"/>
	</g>
</g>
</svg>
