<?xml version="1.0" encoding="utf-8"?>
<!-- Generator: Adobe Illustrator 16.0.0, SVG Export Plug-In . SVG Version: 6.00 Build 0)  -->
<!DOCTYPE svg PUBLIC "-//W3C//DTD SVG 1.1//EN" "http://www.w3.org/Graphics/SVG/1.1/DTD/svg11.dtd">
<svg version="1.1" id="Lager_1" xmlns="http://www.w3.org/2000/svg" xmlns:xlink="http://www.w3.org/1999/xlink" x="0px" y="0px"
	 viewBox="0 0 70.866 70.866" enable-background="new 0 0 70.866 70.866" xml:space="preserve">
<g>
	<path fill="#FFB900" d="M69.116,20.383L62.448,6.945c-0.318-0.64-1.103-0.904-1.744-0.589l-48.974,24.2
		c-0.641,0.315-0.905,1.099-0.586,1.737l0.511,1.031c-0.253-0.023-0.502-0.076-0.764-0.076c-4.17,0-7.564,3.394-7.564,7.564
		c0,3.527,2.427,6.494,5.697,7.328c0.083,0.021,0.251,0.164,0.251,0.326c0,0.525,0,1.66,0,1.875c0,0.283-0.186,0.217-0.284,0.127
		c-0.949-0.865-2.19-1.576-3.358-1.498c-2.551,0.17-4.177,2.377-4.005,4.926c0.144,2.137,1.236,4.055,3.028,5.82
		c1.791,1.758,3.869,3.535,5.123,4.557c0.615,0.502,1.632,0.492,2.263-0.025c1.257-1.025,3.316-2.787,5.093-4.531
		c1.791-1.766,2.882-3.684,3.026-5.82c0.171-2.549-1.454-4.756-4.004-4.926c-1.141-0.076-2.35,0.598-3.289,1.436
		c-0.125,0.111-0.359,0.232-0.359-0.107c0-0.258,0-1.346,0-1.846c0-0.24,0.15-0.289,0.225-0.307c1.936-0.492,3.57-1.736,4.591-3.398
		l0.487,0.98c0.319,0.639,1.103,0.904,1.744,0.59l48.975-24.198C69.17,21.805,69.437,21.022,69.116,20.383z M12.507,43.313V42.08
		c0-0.893-0.724-1.615-1.616-1.615s-1.616,0.723-1.616,1.615v1.232c-0.819-0.531-1.365-1.451-1.365-2.5
		c0-1.645,1.337-2.98,2.981-2.98c1.646,0,2.985,1.336,2.985,2.98C13.876,41.861,13.329,42.781,12.507,43.313z"/>
	<g>
		<circle fill="#E6007E" cx="21.551" cy="35.62" r="2.919"/>
	</g>
	<g>
		<circle fill="#E6007E" cx="33.421" cy="29.756" r="2.919"/>
	</g>
	<g>
		<path fill="#E6007E" d="M47.218,21.698c1.213,1.065,1.334,2.908,0.267,4.119c-1.062,1.212-2.905,1.33-4.118,0.268
			c-1.211-1.065-1.33-2.906-0.266-4.119C44.163,20.753,46.008,20.632,47.218,21.698z"/>
	</g>
	<g>
		<path fill="#E6007E" d="M59.089,15.833c1.211,1.064,1.334,2.907,0.266,4.12c-1.061,1.21-2.906,1.33-4.117,0.267
			c-1.211-1.064-1.33-2.906-0.267-4.118C56.034,14.889,57.878,14.767,59.089,15.833z"/>
	</g>
</g>
</svg>
