<?xml version="1.0" encoding="utf-8"?>
<!-- Generator: Adobe Illustrator 16.0.0, SVG Export Plug-In . SVG Version: 6.00 Build 0)  -->
<!DOCTYPE svg PUBLIC "-//W3C//DTD SVG 1.1//EN" "http://www.w3.org/Graphics/SVG/1.1/DTD/svg11.dtd">
<svg version="1.1" id="Lager_1" xmlns="http://www.w3.org/2000/svg" xmlns:xlink="http://www.w3.org/1999/xlink" x="0px" y="0px"
	 viewBox="0 0 70.866 70.866" enable-background="new 0 0 70.866 70.866" xml:space="preserve">
<g>
	<path fill="#E6007E" d="M68.261,16.415l-6.67-13.438c-0.317-0.64-1.102-0.904-1.742-0.589l-48.974,24.2
		c-0.641,0.315-0.905,1.099-0.587,1.737l0.511,1.031c-0.253-0.023-0.502-0.076-0.764-0.076c-4.17,0-7.564,3.395-7.564,7.564
		c0,3.515,2.41,6.472,5.663,7.32c0.095,0.023,0.286,0.137,0.286,0.363c0,0.146,0,0.844,0,1.232c0,0.209-0.184,0.291-0.257,0.307
		c-0.078,0.018-0.141,0.031-0.183,0.041C7.363,46.248,7,46.666,6.86,47.227c-0.14,0.559-2.579,10.838-2.75,11.535
		c-0.171,0.699-0.047,1.24,0.967,0.928c1.015-0.313,4.465-1.473,4.465-1.473c0.211-0.064,0.346,0.059,0.296,0.273
		c0,0-2.079,7.838-2.362,8.814c-0.157,0.539,0.011,1.322,0.877,1.307c0.92-0.02,1.323-0.754,1.541-1.186
		c0.424-0.84,6.094-12.383,7.606-15.404c0.42-0.838-0.195-1.26-0.866-1.033c-0.671,0.225-5.156,1.58-5.156,1.58
		c-0.21,0.066-0.325-0.051-0.256-0.26c0,0,1.896-5.773,2.081-6.42c0.184-0.648-0.312-0.889-0.682-0.809
		c-0.201,0.045-0.443,0.098-0.709,0.158c-0.085,0.018-0.261-0.057-0.261-0.201c0-0.164,0-0.367,0-0.496
		c0-0.24,0.195-0.355,0.292-0.381c1.907-0.502,3.515-1.738,4.524-3.381l0.487,0.98c0.319,0.639,1.104,0.904,1.744,0.59
		l48.975-24.198C68.313,17.836,68.58,17.053,68.261,16.415z M11.651,39.344v-1.232c0-0.892-0.724-1.616-1.616-1.616
		s-1.616,0.724-1.616,1.616v1.232c-0.819-0.531-1.365-1.451-1.365-2.5c0-1.645,1.337-2.981,2.981-2.981
		c1.646,0,2.985,1.337,2.985,2.981C13.02,37.893,12.472,38.813,11.651,39.344z"/>
	<g>
		<g>
			<g>
				<path fill="#8C005A" d="M25,25.128c-0.871-0.295-1.814,0.172-2.109,1.041l-0.66,1.952l-1.952-0.661
					c-0.87-0.294-1.813,0.172-2.108,1.042c-0.294,0.869,0.171,1.813,1.042,2.107l1.952,0.66l-0.661,1.952
					c-0.294,0.87,0.172,1.814,1.042,2.108c0.434,0.147,0.887,0.104,1.27-0.084c0.381-0.188,0.691-0.523,0.838-0.958l0.66-1.952
					l1.952,0.661c0.435,0.147,0.889,0.104,1.27-0.084s0.691-0.522,0.839-0.957c0.293-0.87-0.172-1.813-1.042-2.107l-1.952-0.661
					l0.662-1.952C26.336,26.366,25.869,25.422,25,25.128z"/>
			</g>
			<g>
				<path fill="#8C005A" d="M56.364,13.877l0.66-1.95c0.295-0.87-0.171-1.814-1.041-2.108c-0.871-0.295-1.813,0.172-2.107,1.041
					l-0.662,1.952l-1.951-0.662c-0.869-0.293-1.813,0.174-2.107,1.043c-0.295,0.869,0.172,1.813,1.041,2.107l1.951,0.66l-0.66,1.953
					c-0.295,0.87,0.172,1.813,1.041,2.107c0.436,0.147,0.889,0.104,1.27-0.084c0.382-0.188,0.691-0.523,0.838-0.958l0.662-1.951
					l1.951,0.66c0.436,0.147,0.889,0.104,1.27-0.084c0.382-0.188,0.691-0.521,0.838-0.957c0.297-0.87-0.17-1.813-1.041-2.107
					L56.364,13.877z"/>
			</g>
			<g>
				<path fill="#8C005A" d="M40.491,17.473c-0.87-0.294-1.813,0.172-2.107,1.042l-0.661,1.952l-1.952-0.662
					c-0.87-0.294-1.813,0.173-2.107,1.042c-0.294,0.87,0.171,1.814,1.042,2.108l1.952,0.66l-0.661,1.952
					c-0.295,0.87,0.171,1.813,1.042,2.107c0.435,0.147,0.888,0.105,1.269-0.084c0.382-0.188,0.691-0.522,0.839-0.957l0.661-1.952
					l1.952,0.661c0.435,0.147,0.888,0.104,1.271-0.084c0.381-0.188,0.689-0.522,0.838-0.958c0.294-0.869-0.173-1.813-1.042-2.107
					l-1.952-0.66l0.66-1.952C41.827,18.711,41.362,17.768,40.491,17.473z"/>
			</g>
		</g>
	</g>
</g>
</svg>
