<?xml version="1.0" encoding="utf-8"?>
<!-- Generator: Adobe Illustrator 16.0.0, SVG Export Plug-In . SVG Version: 6.00 Build 0)  -->
<!DOCTYPE svg PUBLIC "-//W3C//DTD SVG 1.1//EN" "http://www.w3.org/Graphics/SVG/1.1/DTD/svg11.dtd">
<svg version="1.1" id="Lager_1" xmlns="http://www.w3.org/2000/svg" xmlns:xlink="http://www.w3.org/1999/xlink" x="0px" y="0px"
	 viewBox="0 0 70.866 70.866" enable-background="new 0 0 70.866 70.866" xml:space="preserve">
<path fill="#009FE4" d="M68.26,15.913L61.592,2.475c-0.318-0.64-1.103-0.904-1.743-0.589l-48.974,24.2
	c-0.641,0.315-0.905,1.099-0.587,1.737l0.511,1.031c-0.253-0.023-0.502-0.076-0.764-0.076c-4.169,0-7.564,3.395-7.564,7.564
	c0,3.51,2.405,6.467,5.652,7.317c0.098,0.025,0.296,0.109,0.296,0.336c0,0.258,0,0.629,0,0.764c0,0.211-0.155,0.463-0.246,0.547
	c-1.046,0.955-4.048,4.197-4.048,8.699c0,3.297,2.576,5.346,2.576,7.664c0,1.543-0.734,2.656-1.592,4.453
	c-0.97,2.029,0.041,3.959,2,2.326c1.073-0.895,1.626-1.498,2.715-1.498c0.869,0,1.533,0.586,2.47,1.416
	c2.124,1.879,3.198-0.113,1.96-2.408c-0.857-1.592-1.388-2.529-1.347-3.959c0.074-2.541,2.65-4.371,2.65-8.684
	c0-4.281-2.599-7.121-3.549-8.029c-0.128-0.123-0.357-0.314-0.357-0.676c0-0.193,0-0.434,0-0.615c0-0.271,0.193-0.311,0.289-0.336
	c1.908-0.502,3.518-1.738,4.527-3.383l0.487,0.98c0.319,0.641,1.103,0.906,1.744,0.59L67.672,17.65
	C68.314,17.335,68.581,16.552,68.26,15.913z M12.689,50.49c-0.057,1.871-2.912,1.779-2.852-0.092
	C9.894,48.527,12.749,48.615,12.689,50.49z M11.651,38.843v-1.232c0-0.893-0.724-1.617-1.616-1.617s-1.616,0.724-1.616,1.617v1.23
	c-0.819-0.531-1.365-1.451-1.365-2.499c0-1.645,1.337-2.981,2.981-2.981c1.646,0,2.986,1.337,2.986,2.981
	C13.021,37.392,12.473,38.312,11.651,38.843z"/>
</svg>
