<?xml version="1.0" encoding="utf-8"?>
<!-- Generator: Adobe Illustrator 16.0.0, SVG Export Plug-In . SVG Version: 6.00 Build 0)  -->
<!DOCTYPE svg PUBLIC "-//W3C//DTD SVG 1.1//EN" "http://www.w3.org/Graphics/SVG/1.1/DTD/svg11.dtd">
<svg version="1.1" id="Lager_1" xmlns="http://www.w3.org/2000/svg" xmlns:xlink="http://www.w3.org/1999/xlink" x="0px" y="0px"
	 viewBox="0 0 102.047 102.047" enable-background="new 0 0 102.047 102.047"
	 xml:space="preserve">
<g>
	<path fill="#B0CB0B" d="M56.663,1.955c0,0-0.957,0-2.795,0c-2.816,0-3.43,3.326-6.939,3.326c-2.395,0-5.229-3.648-11.287-3.648
		c-6.012,0-8.029,1.643-9.48,2.28c-4.292,1.885-7.778,5.79-10.416,9.612c-0.906,1.314-1.324,2.49-1.396,3.417
		c-0.156,2.038,1.363,2.872,3.03,1.337c2.114-1.947,3.02-2.876,5.397-3.992c0.639-0.299,2.924-1.315,6.115-1.315
		c3.252,0,4.938,1.815,4.891,5.252c-0.037,2.698-0.314,21.382-0.432,29.292c0.796-0.334,1.887-0.48,3.338-0.48
		c0.455,0,2.221,0.043,3.65,0.043c0.701,0,1.31,0.123,1.832,0.348c-0.176-8.643-0.529-25.488-0.669-28.025
		c-0.219-3.989,1.169-6.47,5.339-6.47c3.889,0,3.813,3.538,6.688,3.538c1.961,0,2.637,0,3.398,0c1.658,0,2.521-0.756,2.521-2.654
		V4.523C59.448,2.89,58.515,1.955,56.663,1.955z"/>
	<path fill="#B0CB0B" d="M85.19,38.696c-2.441-3.046-6.115-4.521-9.738-4.284c-0.402,0.025-0.402,0.025-0.402,0.025
		c-0.439,0.064-0.516,0.473-0.166,0.907l2.063,2.573c0.348,0.436,0.92,1.147,1.268,1.582l1.313,1.637
		c0.348,0.435,0.531,1.234,0.406,1.778L78.8,47.847c-0.125,0.543-0.682,0.99-1.238,0.994l-5.063,0.031
		c-0.557,0.004-1.299-0.348-1.646-0.783l-1.313-1.637c-0.348-0.436-0.92-1.146-1.268-1.582l-2.066-2.576
		c-0.348-0.436-0.754-0.479-0.9-0.095c0,0,0,0-0.107,0.356c-1.061,3.507-0.432,7.46,2.035,10.537
		c0.902,1.127,2.033,1.943,3.146,2.727c2.758,1.938,4.402,2.576,4.277,7.301c-0.123,4.451-2.928,24.777-3.084,29.521
		c-0.01,0.146-0.016,0.295-0.016,0.445c0,4.047,3.279,7.328,7.328,7.328c4.045,0,7.326-3.281,7.326-7.328
		c0-0.146-0.006-0.291-0.016-0.436c-0.156-4.859-3-27.119-3.152-31.961c-0.158-5.127,2.17-7.049,3.434-9.588
		C88.431,47.187,88.106,42.333,85.19,38.696z M78.886,97.327c-2.344,0-4.242-1.896-4.242-4.24c0-2.342,1.898-4.24,4.242-4.24
		c2.34,0,4.238,1.898,4.238,4.24C83.124,95.431,81.226,97.327,78.886,97.327z"/>
	<path fill="#009FE4" d="M36.688,47.034c-3.527,0-4.961,0.842-5.066,3.24c-0.139,3.158-1.375,38.113-1.479,42.238
		c-0.103,4.123,1.805,7.902,7.063,7.902h2.783c3.557,0,6.906-2.799,6.65-8.521c-0.581-12.889-1.695-34.111-2.129-40.494
		c-0.18-2.652-1.549-4.322-4.172-4.322C38.909,47.077,37.144,47.034,36.688,47.034z"/>
	<circle fill="#B0CB0B" cx="35.841" cy="66.144" r="1.321"/>
	<circle fill="#B0CB0B" cx="35.841" cy="72.487" r="1.321"/>
	<circle fill="#B0CB0B" cx="35.841" cy="78.831" r="1.321"/>
	<circle fill="#B0CB0B" cx="35.841" cy="85.173" r="1.321"/>
	<circle fill="#B0CB0B" cx="35.841" cy="91.517" r="1.321"/>
	<circle fill="#B0CB0B" cx="40.635" cy="69.468" r="1.321"/>
	<circle fill="#B0CB0B" cx="40.635" cy="75.812" r="1.321"/>
	<circle fill="#B0CB0B" cx="40.635" cy="82.155" r="1.321"/>
	<circle fill="#B0CB0B" cx="40.635" cy="88.497" r="1.321"/>
</g>
</svg>
