<?xml version="1.0" encoding="utf-8"?>
<!-- Generator: Adobe Illustrator 16.0.0, SVG Export Plug-In . SVG Version: 6.00 Build 0)  -->
<!DOCTYPE svg PUBLIC "-//W3C//DTD SVG 1.1//EN" "http://www.w3.org/Graphics/SVG/1.1/DTD/svg11.dtd">
<svg version="1.1" id="Lager_1" xmlns="http://www.w3.org/2000/svg" xmlns:xlink="http://www.w3.org/1999/xlink" x="0px" y="0px"
	 viewBox="0 0 102.047 102.047" enable-background="new 0 0 102.047 102.047"
	 xml:space="preserve">
<g>
	<path fill="#FFB900" d="M85.192,38.696c-2.442-3.046-6.117-4.521-9.74-4.284c-0.401,0.025-0.401,0.025-0.401,0.025
		c-0.44,0.064-0.516,0.473-0.167,0.907l2.063,2.573c0.348,0.436,0.919,1.147,1.268,1.582l1.313,1.637
		c0.348,0.435,0.531,1.234,0.406,1.778L78.8,47.848c-0.125,0.543-0.683,0.99-1.241,0.994l-5.06,0.031
		c-0.558,0.004-1.299-0.349-1.647-0.784l-1.312-1.636c-0.349-0.436-0.92-1.147-1.269-1.582l-2.065-2.576
		c-0.349-0.436-0.755-0.479-0.901-0.095c0,0,0,0-0.107,0.356c-1.06,3.508-0.432,7.461,2.034,10.536
		c0.903,1.127,2.034,1.943,3.147,2.727c2.758,1.938,4.402,2.577,4.275,7.301c-0.12,4.451-2.926,24.777-3.082,29.522
		c-0.01,0.146-0.016,0.295-0.016,0.445c0,4.047,3.279,7.327,7.328,7.327c4.045,0,7.326-3.28,7.326-7.327
		c0-0.146-0.006-0.292-0.016-0.437c-0.156-4.858-2.999-27.118-3.15-31.96c-0.16-5.127,2.168-7.05,3.433-9.588
		C88.429,47.187,88.106,42.334,85.192,38.696z M78.885,97.328c-2.343,0-4.243-1.897-4.243-4.24c0-2.342,1.9-4.241,4.243-4.241
		c2.342,0,4.239,1.899,4.239,4.241C83.125,95.431,81.227,97.328,78.885,97.328z"/>
	<path fill="#FFB900" d="M56.664,1.955c0,0-0.957,0-2.798,0c-2.815,0-3.428,3.326-6.938,3.326c-2.396,0-5.229-3.648-11.287-3.648
		c-6.012,0-8.029,1.643-9.48,2.28c-4.291,1.885-7.779,5.79-10.415,9.612c-0.908,1.314-1.325,2.49-1.397,3.417
		c-0.156,2.038,1.363,2.872,3.03,1.337c2.114-1.947,3.02-2.876,5.398-3.992c0.638-0.299,2.923-1.315,6.114-1.315
		c3.252,0,4.938,1.815,4.891,5.252c-0.037,2.698-0.314,21.382-0.432,29.292c0.797-0.335,1.887-0.48,3.338-0.48
		c0.456,0,2.221,0.042,3.65,0.042c0.701,0,1.309,0.123,1.832,0.349c-0.176-8.644-0.529-25.488-0.669-28.025
		c-0.218-3.989,1.169-6.47,5.339-6.47c3.891,0,3.813,3.538,6.687,3.538c1.962,0,2.638,0,3.401,0c1.658,0,2.518-0.756,2.518-2.654
		V4.523C59.446,2.891,58.514,1.955,56.664,1.955z"/>
	<path fill="#E6007E" d="M36.688,47.035c-3.527,0-4.961,0.842-5.066,3.24c-0.139,3.157-1.375,38.113-1.478,42.237
		c-0.104,4.123,1.804,7.902,7.062,7.902h2.783c3.557,0,6.908-2.798,6.65-8.521c-0.581-12.889-1.694-34.111-2.128-40.494
		c-0.181-2.653-1.55-4.323-4.173-4.323C38.909,47.077,37.144,47.035,36.688,47.035z"/>
	<circle fill="#FFB900" cx="35.841" cy="66.145" r="1.321"/>
	<circle fill="#FFB900" cx="35.841" cy="72.487" r="1.321"/>
	<circle fill="#FFB900" cx="35.841" cy="78.831" r="1.321"/>
	<circle fill="#FFB900" cx="35.841" cy="85.174" r="1.321"/>
	<circle fill="#FFB900" cx="35.841" cy="91.518" r="1.321"/>
	<circle fill="#FFB900" cx="40.634" cy="69.469" r="1.321"/>
	<circle fill="#FFB900" cx="40.634" cy="75.813" r="1.321"/>
	<circle fill="#FFB900" cx="40.634" cy="82.155" r="1.321"/>
	<circle fill="#FFB900" cx="40.634" cy="88.498" r="1.321"/>
</g>
</svg>
