<?xml version="1.0" encoding="utf-8"?>
<!-- Generator: Adobe Illustrator 16.0.0, SVG Export Plug-In . SVG Version: 6.00 Build 0)  -->
<!DOCTYPE svg PUBLIC "-//W3C//DTD SVG 1.1//EN" "http://www.w3.org/Graphics/SVG/1.1/DTD/svg11.dtd">
<svg version="1.1" id="Lager_1" xmlns="http://www.w3.org/2000/svg" xmlns:xlink="http://www.w3.org/1999/xlink" x="0px" y="0px"
	 viewBox="0 0 85.039 85.039" enable-background="new 0 0 85.039 85.039" xml:space="preserve">
<g>
	<g>
		<rect x="31.058" y="45.853" fill="#FFE57E" width="22.921" height="4.63"/>
		<rect x="31.058" y="31.967" fill="#FFE57E" width="22.921" height="4.627"/>
		<path fill="#FFE57E" d="M8.979,59.739c-0.317,0-0.577-0.261-0.577-0.577v-0.351v-7.229v-0.523c0-0.316,0.259-0.576,0.577-0.576
			h8.872v-4.63H8.979c-0.317,0-0.577-0.259-0.577-0.577v-4.094v-4.008c0-0.316,0.259-0.579,0.577-0.579h8.872v-4.627H8.979
			c-0.317,0-0.577-0.26-0.577-0.577V12.135c0-0.398-0.325-0.722-0.723-0.722H4.496c-0.398,0-0.722,0.324-0.722,0.722v56.14
			c0,0.396-0.325,0.724-0.722,0.724H0.798c-0.396,0-0.721,0.322-0.721,0.721v3.184c0,0.398,0.325,0.723,0.721,0.723h10.579
			c0.398,0,0.724-0.324,0.724-0.723V69.72c0-0.398-0.325-0.721-0.724-0.721H9.124c-0.396,0-0.721-0.327-0.721-0.724v-3.329
			c0-0.316,0.259-0.577,0.577-0.577h8.872v-4.63H8.979z"/>
		<rect x="31.058" y="59.739" fill="#FFE57E" width="22.921" height="4.63"/>
		<path fill="#FFE57E" d="M84.24,68.999h-2.253c-0.397,0-0.722-0.327-0.722-0.724v-56.14c0-0.398-0.324-0.722-0.723-0.722h-3.185
			c-0.396,0-0.722,0.324-0.722,0.722V31.39c0,0.317-0.26,0.577-0.577,0.577h-8.871v4.627h8.871c0.317,0,0.577,0.263,0.577,0.579
			v4.008v4.094c0,0.318-0.26,0.577-0.577,0.577h-8.871v4.63h8.871c0.317,0,0.577,0.26,0.577,0.576v0.523v7.229v0.351
			c0,0.316-0.26,0.577-0.577,0.577h-8.871v4.63h8.871c0.317,0,0.577,0.261,0.577,0.577v3.329c0,0.396-0.323,0.724-0.722,0.724
			h-2.253c-0.398,0-0.723,0.322-0.723,0.721v3.184c0,0.398,0.324,0.723,0.723,0.723H84.24c0.397,0,0.722-0.324,0.722-0.723V69.72
			C84.962,69.321,84.638,68.999,84.24,68.999z"/>
	</g>
	<g>
		<rect x="17.852" y="59.739" fill="#009FE4" width="13.207" height="4.63"/>
		<rect x="53.979" y="59.739" fill="#009FE4" width="13.209" height="4.63"/>
	</g>
	<g>
		<rect x="17.852" y="45.853" fill="#009FE4" width="13.207" height="4.63"/>
		<rect x="53.979" y="45.853" fill="#009FE4" width="13.209" height="4.63"/>
	</g>
	<g>
		<rect x="17.852" y="31.967" fill="#009FE4" width="13.207" height="4.627"/>
		<rect x="53.979" y="31.967" fill="#009FE4" width="13.209" height="4.627"/>
	</g>
</g>
</svg>
