<?xml version="1.0" encoding="utf-8"?>
<!-- Generator: Adobe Illustrator 16.0.0, SVG Export Plug-In . SVG Version: 6.00 Build 0)  -->
<!DOCTYPE svg PUBLIC "-//W3C//DTD SVG 1.1//EN" "http://www.w3.org/Graphics/SVG/1.1/DTD/svg11.dtd">
<svg version="1.1" id="Lager_1" xmlns="http://www.w3.org/2000/svg" xmlns:xlink="http://www.w3.org/1999/xlink" x="0px" y="0px"
	 viewBox="0 0 65.197 65.197" enable-background="new 0 0 65.197 65.197" xml:space="preserve">
<g>
	<g>
		<path fill="#E6007E" d="M52.412,8.216c-1.865-2.462-6.086-3.686-8.547-1.821c-1.443,1.095-2.051,3.018-1.766,4.896
			c0.357,2.372,2.611,5.363,3.135,6.231c2.621,4.334,3.902,9.093,3.902,14.46c0,9.121-7.42,16.539-16.537,16.539
			c-9.121,0-16.54-7.418-16.54-16.539c0-4.883,1.586-10.334,4.151-14.57c0.479-0.788,2.864-3.975,2.875-6.285
			c0.01-1.7-0.615-3.368-1.927-4.395c-2.432-1.902-6.318-0.874-8.221,1.559c-4.973,6.353-8.062,15.433-8.062,23.691
			c0,15.287,12.437,27.723,27.722,27.723c15.285,0,27.721-12.436,27.721-27.723C60.32,23.137,57.658,15.14,52.412,8.216z"/>
		<circle fill="#F0A5C3" cx="12.482" cy="20.838" r="2.521"/>
		<path fill="#F0A5C3" d="M13.111,29.504c0-1.395-1.128-2.523-2.522-2.523c-1.392,0-2.521,1.129-2.521,2.523
			c0,1.391,1.129,2.52,2.521,2.52C11.983,32.024,13.111,30.895,13.111,29.504z"/>
		<circle fill="#F0A5C3" cx="11.435" cy="38.168" r="2.521"/>
		<circle fill="#F0A5C3" cx="15.617" cy="46.223" r="2.521"/>
	</g>
	<g>
		<circle fill="#F0A5C3" cx="52.724" cy="20.838" r="2.521"/>
		<path fill="#F0A5C3" d="M52.095,29.504c0-1.395,1.131-2.523,2.523-2.523c1.391,0,2.52,1.129,2.52,2.523
			c0,1.391-1.129,2.52-2.52,2.52C53.226,32.024,52.095,30.895,52.095,29.504z"/>
		<circle fill="#F0A5C3" cx="53.773" cy="38.168" r="2.521"/>
		<circle fill="#F0A5C3" cx="49.591" cy="46.223" r="2.521"/>
	</g>
</g>
</svg>
