<?xml version="1.0" encoding="utf-8"?>
<!-- Generator: Adobe Illustrator 16.0.0, SVG Export Plug-In . SVG Version: 6.00 Build 0)  -->
<!DOCTYPE svg PUBLIC "-//W3C//DTD SVG 1.1//EN" "http://www.w3.org/Graphics/SVG/1.1/DTD/svg11.dtd">
<svg version="1.1" id="Lager_1" xmlns="http://www.w3.org/2000/svg" xmlns:xlink="http://www.w3.org/1999/xlink" x="0px" y="0px"
	 viewBox="0 0 85.04 85.039" enable-background="new 0 0 85.04 85.039" xml:space="preserve">
<g>
	<g>
		<rect x="31.048" y="45.857" fill="#FFE57E" width="22.943" height="4.635"/>
		<rect x="31.048" y="31.957" fill="#FFE57E" width="22.943" height="4.635"/>
		<path fill="#FFE57E" d="M8.945,59.759c-0.317,0-0.578-0.261-0.578-0.58v-0.348v-7.237V51.07c0-0.319,0.261-0.578,0.578-0.578h8.88
			v-4.635h-8.88c-0.317,0-0.578-0.261-0.578-0.577v-4.1v-4.012c0-0.316,0.261-0.577,0.578-0.577h8.88v-4.635h-8.88
			c-0.317,0-0.578-0.26-0.578-0.576V12.105c0-0.397-0.326-0.724-0.722-0.724H4.458c-0.396,0-0.722,0.326-0.722,0.724v56.196
			c0,0.398-0.326,0.724-0.724,0.724H0.756c-0.396,0-0.722,0.323-0.722,0.725v3.186c0,0.399,0.325,0.722,0.722,0.722h10.591
			c0.396,0,0.722-0.322,0.722-0.722V69.75c0-0.401-0.325-0.725-0.722-0.725H9.091c-0.398,0-0.724-0.325-0.724-0.724v-3.331
			c0-0.318,0.261-0.579,0.578-0.579h8.88v-4.633H8.945z"/>
		<rect x="31.048" y="59.759" fill="#FFE57E" width="22.943" height="4.633"/>
		<path fill="#FFE57E" d="M84.281,69.025h-2.256c-0.396,0-0.72-0.325-0.72-0.724V12.105c0-0.397-0.326-0.724-0.725-0.724h-3.187
			c-0.396,0-0.725,0.326-0.725,0.724V31.38c0,0.316-0.259,0.576-0.575,0.576h-8.883v4.635h8.883c0.316,0,0.575,0.261,0.575,0.577
			v4.012v4.1c0,0.316-0.259,0.577-0.575,0.577h-8.883v4.635h8.883c0.316,0,0.575,0.259,0.575,0.578v0.523v7.237v0.348
			c0,0.319-0.259,0.58-0.575,0.58h-8.883v4.633h8.883c0.316,0,0.575,0.261,0.575,0.579v3.331c0,0.398-0.323,0.724-0.722,0.724
			h-2.256c-0.396,0-0.721,0.323-0.721,0.725v3.186c0,0.399,0.324,0.722,0.721,0.722h10.589c0.397,0,0.725-0.322,0.725-0.722V69.75
			C85.005,69.349,84.678,69.025,84.281,69.025z"/>
	</g>
	<g>
		<rect x="17.826" y="59.759" fill="#E6007E" width="13.222" height="4.633"/>
		<rect x="53.991" y="59.759" fill="#E6007E" width="13.221" height="4.633"/>
	</g>
	<g>
		<rect x="17.826" y="45.857" fill="#E6007E" width="13.222" height="4.635"/>
		<rect x="53.991" y="45.857" fill="#E6007E" width="13.221" height="4.635"/>
	</g>
	<g>
		<rect x="17.826" y="31.957" fill="#E6007E" width="13.222" height="4.635"/>
		<rect x="53.991" y="31.957" fill="#E6007E" width="13.221" height="4.635"/>
	</g>
</g>
</svg>
