<?xml version="1.0" encoding="utf-8"?>
<!-- Generator: Adobe Illustrator 16.0.0, SVG Export Plug-In . SVG Version: 6.00 Build 0)  -->
<!DOCTYPE svg PUBLIC "-//W3C//DTD SVG 1.1//EN" "http://www.w3.org/Graphics/SVG/1.1/DTD/svg11.dtd">
<svg version="1.1" id="Lager_1" xmlns="http://www.w3.org/2000/svg" xmlns:xlink="http://www.w3.org/1999/xlink" x="0px" y="0px"
	 viewBox="0 0 95.726 95.726" enable-background="new 0 0 95.726 95.726" xml:space="preserve">
<g>
	<g>
		<path fill="#FFE57E" d="M13.496,55.729c1.416-6.23-2.58-9.893-1.72-17.848c0-7.34,8.206-10.894,14.944-10.894
			c4.17,0,11.828,1.748,15.665,1.748c2.623,0,7.409,0.579,11.813-1.8c0.372-0.201,0.725-0.435,1.071-0.682
			c0.019,0.031,0.03,0.048,0.03,0.048s0.346-0.396,2.622-0.396c2.279,0,4.92-0.672,6.628-3.235c1.615-2.421,3.466-3.086,6.553-3.181
			c2.178-0.067,3.846-0.285,5.478-1.057c2.295-1.085,2.87-1.335,5.741-1.088c2.87,0.247,3.712-0.297,4.851-1.485
			c0.811-0.845,2.221-1.088,2.967-1.159c0.134-0.009,0.271-0.017,0.406-0.027c0.057-0.002,0.091-0.002,0.091-0.002
			c-0.003-0.001-0.008-0.003-0.011-0.005c0.539-0.041,1.074-0.087,1.622-0.14c2.158-0.208,3.376-0.611,3.467,0.335
			c0.092,0.947-1.191,1.54-2.206,2.308c-0.109,0.083-0.214,0.162-0.315,0.241c-0.001,0-0.002-0.003-0.002-0.003
			c-0.028,0.025-0.058,0.049-0.091,0.074c-0.008,0.006-0.015,0.012-0.022,0.019c-0.567,0.438-1.67,0.986-1.593,2.695
			c0.119,2.605,0.295,4.042,0.438,4.726c0.1,0.484,0.398,0.855,0.781,1.067c0.089,0.72,0.174,1.418,0.255,2.04
			c0.313,2.127,0.485,3.578,0.769,5.607c0.416,2.974-0.428,3.957-2.561,5.167c-1.417,0.804-2.722,0.277-3.47-0.222
			c-1.03-0.689-1.48-1.541-1.318-2.478c0.16-0.938-0.236-1.659-1.437-3.039c-1.073-1.231-2.015-1.775-3.244-3.308
			c-1.384-1.729-3.006-2.23-4.837-0.479c-2.018,1.956-2.863,4.673-4.06,10.723c-0.986,4.986-2.604,8.989-5.477,12.037
			c-0.294,0.31-0.264,0.613-0.242,0.771c0.293,2.072,0.736,4.6,1.364,6.76c1.335,4.587,3.411,10.953,5.672,14.344
			c2.464,3.7,3.256,5.594,4.003,7.926c0.387,1.203,0.191,1.75-0.978,1.75c-1.166,0-2.691,0-4.026,0s-2-0.083-2.252-1.502
			c-0.251-1.417,0.334-1.584,0.417-2.501c0.084-0.917-0.083-1.419-1.166-2.169c-1.086-0.75-1.529-1.499-2.364-3.5
			c-0.832-2.002-1.73-5.203-3.114-7.926c-0.592-1.165-1.801-3.513-2.93-5.699c-0.167-0.324-0.322-0.65-0.495-0.958
			c-0.158-0.282-0.277-0.103-0.335,0c-1.211,2.157-2.241,4.619-3.074,7.157c-1.751,5.338-2.004,6.62-0.667,8.758
			c0.906,1.447,1.799,2.735,2.687,5.293c0.804,2.32,0.799,3.047-0.351,3.047c-2.252,0-3.252,0-4.172,0
			c-0.916,0-1.5-0.166-1.917-1.334c-0.416-1.168,0.001-1.918,0.251-2.836s-0.251-1.586-1.418-2.336
			c-1.168-0.75-1.792-1.844-1.441-3.646c0.448-2.31,1.273-4.444,2.107-7.696c0.835-3.254,1.675-7.115,2.212-9.666
			c0.541-2.578-0.794-2.592-2.212-2.592c-1.416,0-4.808,0.182-7.533,0.013c-4.15-0.258-6.544-1.046-9.72-1.708
			c-1.38-0.287-2.567-0.563-3.569-0.138c-1.029,0.438-2.14,2.243-2.941,3.552c-1.584,2.586-2.664,4.2-2.664,6.285
			c0,2.084,0.711,3.324,2.833,5.857c2.503,2.99,3.35,4.33,4.039,6.218c0.281,0.767,0.491,1.671,0.491,3.179
			c0,1.25-0.331,3.541-1.081,4.791c-0.752,1.252-1.625,2.985-3.056,1.412c-1.506-1.656-1.57-2.018-2.403-3.186
			c-0.836-1.167-0.632-2.014,0.266-2.814c1.134-1.008,1.734-2.295,0.1-4.068c-1.415-1.532-4.653-5.268-6.473-7.223
			c-1.118-1.203-1.918-2.188-2.075-3.378c-0.014-0.11-0.028-0.327-0.324-0.081c-0.488,0.403-0.904,0.756-1.232,0.994
			c-2.42,1.752-4.053,2.701-4.053,6.019c0,1.272,0,2.651,0,3.501c0,1.918,0.174,3.551,1.501,5.043
			c1.348,1.513,1.752,2.752,2.168,4.088c0.418,1.334,0.169,1.75-0.917,1.75c-1.084,0-2.396,0-4.065,0
			c-1.668,0-1.852-1.266-1.931-3.252c-0.096-2.479-1.667-2.547-1.667-6.633s0-7.046,0-10.133
			C8.576,60.484,12.626,59.569,13.496,55.729z"/>
	</g>
	<g>
		<path fill="#994916" d="M9.906,31.063c1.092,0,1.646-0.021,2.697-0.021c1.783,0,3.044-0.648,3.972-1.267
			c0.019-0.013,0.041-0.025,0.062-0.037c-2.448,1.551-4.275,3.769-4.74,6.667c-0.417-0.006-0.759-0.013-0.965-0.013
			c-1.985,0-3.586,0.999-3.586,4.412c0,4.002,2.819,6.809,2.819,12.23c0,4.842-3.267,7.857-8.05,7.857
			c-1.496,0-2.109-0.6-2.109-2.104c0-3.993,0-11.302,0-15.224C0.006,35.314,4.115,31.063,9.906,31.063z"/>
	</g>
	<path fill="#994916" d="M93.191,17.408c-0.517,0.459-1.789,0.958-1.706,2.788c0.119,2.605,0.295,4.042,0.438,4.726
		c0.209,0.999,1.248,1.52,2.15,1.144c0.883-0.368,1.471-1.452,0.908-3.122C94.337,21.03,93.191,17.408,93.191,17.408z"/>
	<path fill="#994916" d="M90.637,14.672c0,0-2.325,0-3.464,1.188c-1.139,1.188-1.98,1.732-4.851,1.485
		c-2.871-0.247-3.446,0.003-5.741,1.088c-1.632,0.772-3.3,0.989-5.478,1.057c-3.087,0.095-4.938,0.76-6.553,3.181
		c-1.708,2.563-4.349,3.235-6.628,3.235c-2.276,0-2.622,0.396-2.622,0.396s-0.396-0.495,0.297-1.535
		c0.692-1.039,2.722-2.891,4.158-4.375c1.435-1.485,3.519-3.434,6.505-5.27c2.468-1.52,5.572-2.602,8.641-2.85
		c3.068-0.248,6.259-0.165,8.832,0.38C86.308,13.197,89.251,14.127,90.637,14.672z"/>
	<circle fill="#994916" cx="89.447" cy="24.821" r="1.587"/>
</g>
</svg>
