<?xml version="1.0" encoding="utf-8"?>
<!-- Generator: Adobe Illustrator 16.0.0, SVG Export Plug-In . SVG Version: 6.00 Build 0)  -->
<!DOCTYPE svg PUBLIC "-//W3C//DTD SVG 1.1//EN" "http://www.w3.org/Graphics/SVG/1.1/DTD/svg11.dtd">
<svg version="1.1" id="Lager_1" xmlns="http://www.w3.org/2000/svg" xmlns:xlink="http://www.w3.org/1999/xlink" x="0px" y="0px"
	 viewBox="0 0 79.37 79.37" enable-background="new 0 0 79.37 79.37" xml:space="preserve">
<g>
	<g>
		<g>
			<path fill="#E6007E" d="M49.435,10.563c-1.865-2.462-6.086-3.686-8.547-1.821c-1.443,1.095-2.051,3.018-1.766,4.896
				c0.357,2.372,2.611,5.363,3.135,6.231c2.621,4.333,3.902,9.093,3.902,14.46c0,9.121-7.42,16.539-16.537,16.539
				c-9.121,0-16.54-7.418-16.54-16.539c0-4.883,1.586-10.335,4.151-14.57c0.479-0.788,2.864-3.975,2.875-6.285
				c0.01-1.7-0.615-3.368-1.927-4.395c-2.432-1.902-6.318-0.874-8.221,1.559C4.989,16.992,1.9,26.071,1.9,34.33
				c0,15.287,12.437,27.723,27.723,27.723c15.285,0,27.721-12.436,27.721-27.723C57.343,25.483,54.681,17.487,49.435,10.563z"/>
			<circle fill="#F0A5C3" cx="9.505" cy="23.185" r="2.521"/>
			<path fill="#F0A5C3" d="M10.134,31.852c0-1.395-1.128-2.523-2.522-2.523c-1.392,0-2.521,1.129-2.521,2.523
				c0,1.391,1.129,2.52,2.521,2.52C9.006,34.371,10.134,33.242,10.134,31.852z"/>
			<circle fill="#F0A5C3" cx="8.458" cy="40.516" r="2.521"/>
			<circle fill="#F0A5C3" cx="12.64" cy="48.57" r="2.521"/>
		</g>
		<g>
			<circle fill="#F0A5C3" cx="49.748" cy="23.185" r="2.521"/>
			<path fill="#F0A5C3" d="M49.119,31.852c0-1.395,1.131-2.523,2.523-2.523c1.391,0,2.52,1.129,2.52,2.523
				c0,1.391-1.129,2.52-2.52,2.52C50.25,34.371,49.119,33.242,49.119,31.852z"/>
			<circle fill="#F0A5C3" cx="50.796" cy="40.516" r="2.521"/>
			<circle fill="#F0A5C3" cx="46.615" cy="48.57" r="2.521"/>
		</g>
	</g>
	<g>
		<g>
			<path fill="#B0CB0B" d="M69.562,20.042c-1.865-2.461-6.086-3.685-8.547-1.821c-1.443,1.095-2.051,3.018-1.766,4.897
				c0.357,2.371,2.611,5.363,3.135,6.23c2.621,4.334,3.902,9.094,3.902,14.461c0,9.121-7.42,16.539-16.537,16.539
				c-9.121,0-16.541-7.418-16.541-16.539c0-4.883,1.586-10.334,4.152-14.57c0.479-0.787,2.863-3.975,2.875-6.285
				c0.01-1.699-0.615-3.367-1.928-4.394c-2.432-1.902-6.318-0.874-8.221,1.558c-4.973,6.354-8.061,15.434-8.061,23.691
				c0,15.287,12.436,27.723,27.723,27.723c15.285,0,27.721-12.436,27.721-27.723C77.47,34.964,74.808,26.966,69.562,20.042z"/>
			<circle fill="#D2E182" cx="29.632" cy="32.665" r="2.521"/>
			<path fill="#D2E182" d="M30.261,41.331c0-1.395-1.129-2.523-2.523-2.523c-1.391,0-2.52,1.129-2.52,2.523
				c0,1.391,1.129,2.52,2.52,2.52C29.132,43.851,30.261,42.722,30.261,41.331z"/>
			<circle fill="#D2E182" cx="28.583" cy="49.995" r="2.521"/>
			<circle fill="#D2E182" cx="32.767" cy="58.05" r="2.521"/>
		</g>
		<g>
			<circle fill="#D2E182" cx="69.875" cy="32.665" r="2.521"/>
			<path fill="#D2E182" d="M69.246,41.331c0-1.395,1.131-2.523,2.523-2.523c1.391,0,2.52,1.129,2.52,2.523
				c0,1.391-1.129,2.52-2.52,2.52C70.376,43.851,69.246,42.722,69.246,41.331z"/>
			<circle fill="#D2E182" cx="70.923" cy="49.995" r="2.521"/>
			<circle fill="#D2E182" cx="66.742" cy="58.05" r="2.521"/>
		</g>
	</g>
</g>
</svg>
