<?xml version="1.0" encoding="utf-8"?>
<!-- Generator: Adobe Illustrator 16.0.0, SVG Export Plug-In . SVG Version: 6.00 Build 0)  -->
<!DOCTYPE svg PUBLIC "-//W3C//DTD SVG 1.1//EN" "http://www.w3.org/Graphics/SVG/1.1/DTD/svg11.dtd">
<svg version="1.1" id="Lager_1" xmlns="http://www.w3.org/2000/svg" xmlns:xlink="http://www.w3.org/1999/xlink" x="0px" y="0px"
	 viewBox="0 0 95.726 95.726" enable-background="new 0 0 95.726 95.726" xml:space="preserve">
<g>
	<path fill="#FFB900" d="M13.496,55.73c1.416-6.231-2.58-9.894-1.72-17.849c0-7.34,8.206-10.893,14.944-10.893
		c4.17,0,11.828,1.747,15.665,1.747c2.623,0,7.409,0.58,11.813-1.799c0.372-0.202,0.725-0.434,1.071-0.682
		c0.019,0.031,0.03,0.048,0.03,0.048s0.346-0.396,2.622-0.396c2.279,0,4.92-0.671,6.628-3.235c1.615-2.421,3.466-3.086,6.553-3.181
		c2.178-0.067,3.846-0.285,5.478-1.057c2.295-1.084,2.87-1.336,5.741-1.089c2.87,0.248,3.712-0.296,4.851-1.484
		c0.811-0.846,2.221-1.089,2.967-1.159c0.134-0.009,0.271-0.017,0.406-0.027c0.057-0.002,0.091-0.002,0.091-0.002
		c-0.003-0.001-0.008-0.003-0.011-0.004c0.539-0.041,1.074-0.088,1.622-0.141c2.158-0.208,3.376-0.611,3.467,0.335
		c0.092,0.947-1.191,1.54-2.206,2.308c-0.109,0.083-0.214,0.163-0.315,0.241c-0.001,0-0.002-0.003-0.002-0.003
		c-0.028,0.025-0.058,0.05-0.091,0.075c-0.008,0.006-0.015,0.012-0.022,0.019c-0.567,0.438-1.67,0.987-1.593,2.696
		c0.119,2.603,0.295,4.041,0.438,4.725c0.1,0.484,0.398,0.855,0.781,1.067c0.089,0.719,0.174,1.418,0.255,2.04
		c0.313,2.127,0.485,3.578,0.769,5.607c0.416,2.974-0.428,3.957-2.561,5.167c-1.417,0.804-2.722,0.277-3.47-0.223
		c-1.03-0.689-1.48-1.542-1.318-2.478c0.16-0.938-0.236-1.659-1.437-3.039c-1.073-1.231-2.015-1.775-3.244-3.309
		c-1.384-1.727-3.006-2.229-4.837-0.479c-2.018,1.957-2.863,4.674-4.06,10.723c-0.986,4.986-2.604,8.989-5.477,12.036
		c-0.294,0.312-0.264,0.614-0.242,0.773c0.293,2.071,0.736,4.6,1.364,6.759c1.335,4.588,3.411,10.953,5.672,14.346
		c2.464,3.698,3.256,5.592,4.003,7.924c0.387,1.203,0.191,1.75-0.978,1.75c-1.166,0-2.691,0-4.026,0s-2-0.084-2.252-1.5
		c-0.251-1.418,0.334-1.586,0.417-2.502c0.084-0.918-0.083-1.418-1.166-2.169c-1.086-0.751-1.529-1.499-2.364-3.501
		c-0.832-2.001-1.73-5.203-3.114-7.926c-0.592-1.164-1.801-3.512-2.93-5.699c-0.167-0.323-0.322-0.65-0.495-0.957
		c-0.158-0.283-0.277-0.104-0.335,0c-1.211,2.156-2.241,4.618-3.074,7.157c-1.751,5.337-2.004,6.619-0.667,8.757
		c0.906,1.447,1.799,2.736,2.687,5.294c0.804,2.319,0.799,3.046-0.351,3.046c-2.252,0-3.252,0-4.172,0
		c-0.916,0-1.5-0.166-1.917-1.334c-0.416-1.167,0.001-1.918,0.251-2.836s-0.251-1.584-1.418-2.335
		c-1.168-0.751-1.792-1.845-1.441-3.646c0.448-2.31,1.273-4.443,2.107-7.696c0.835-3.253,1.675-7.114,2.212-9.666
		c0.541-2.576-0.794-2.592-2.212-2.592c-1.416,0-4.808,0.182-7.533,0.014c-4.15-0.258-6.544-1.046-9.72-1.708
		c-1.38-0.288-2.567-0.563-3.569-0.138c-1.029,0.438-2.14,2.242-2.941,3.552c-1.584,2.585-2.664,4.199-2.664,6.284
		s0.711,3.324,2.833,5.857c2.503,2.99,3.35,4.33,4.039,6.218c0.281,0.767,0.491,1.671,0.491,3.179c0,1.251-0.331,3.541-1.081,4.792
		c-0.752,1.251-1.625,2.985-3.056,1.411c-1.506-1.656-1.57-2.017-2.403-3.185c-0.836-1.168-0.632-2.015,0.266-2.815
		c1.134-1.008,1.734-2.295,0.1-4.068c-1.415-1.531-4.653-5.268-6.473-7.223c-1.118-1.203-1.918-2.188-2.075-3.377
		c-0.014-0.112-0.028-0.328-0.324-0.082c-0.488,0.404-0.904,0.756-1.232,0.994c-2.42,1.752-4.053,2.702-4.053,6.019
		c0,1.272,0,2.651,0,3.501c0,1.918,0.174,3.551,1.501,5.043c1.348,1.512,1.752,2.752,2.168,4.088c0.418,1.334,0.169,1.75-0.917,1.75
		c-1.084,0-2.396,0-4.065,0c-1.668,0-1.852-1.266-1.931-3.252c-0.096-2.479-1.667-2.547-1.667-6.632c0-4.087,0-7.046,0-10.133
		C8.576,60.484,12.626,59.571,13.496,55.73z"/>
	<path fill="#994916" d="M9.906,31.063c1.092,0,1.646-0.021,2.697-0.021c1.783,0,3.044-0.647,3.972-1.266
		c0.019-0.014,0.041-0.025,0.062-0.038c-2.448,1.552-4.275,3.77-4.74,6.669c-0.417-0.007-0.759-0.013-0.965-0.013
		c-1.985,0-3.586,0.999-3.586,4.412c0,4.004,2.819,6.811,2.819,12.232c0,4.842-3.267,7.855-8.05,7.855
		c-1.496,0-2.109-0.599-2.109-2.104c0-3.993,0-11.302,0-15.224C0.006,35.315,4.115,31.063,9.906,31.063z"/>
	<path fill="#994916" d="M93.191,17.408c-0.517,0.459-1.789,0.958-1.706,2.79c0.119,2.603,0.295,4.041,0.438,4.725
		c0.209,0.999,1.248,1.52,2.15,1.144c0.883-0.367,1.471-1.452,0.908-3.121C94.337,21.03,93.191,17.408,93.191,17.408z"/>
	<path fill="#994916" d="M90.637,14.672c0,0-2.325,0-3.464,1.188s-1.98,1.732-4.851,1.484c-2.871-0.247-3.446,0.005-5.741,1.089
		c-1.632,0.772-3.3,0.99-5.478,1.057c-3.087,0.095-4.938,0.76-6.553,3.181c-1.708,2.563-4.349,3.235-6.628,3.235
		c-2.276,0-2.622,0.396-2.622,0.396s-0.396-0.495,0.297-1.534c0.692-1.04,2.722-2.892,4.158-4.376
		c1.435-1.485,3.519-3.433,6.505-5.271c2.468-1.52,5.572-2.601,8.641-2.849c3.068-0.247,6.259-0.164,8.832,0.38
		C86.308,13.198,89.251,14.127,90.637,14.672z"/>
	<circle fill="#994916" cx="89.447" cy="24.822" r="1.587"/>
</g>
</svg>
