<?xml version="1.0" encoding="utf-8"?>
<!-- Generator: Adobe Illustrator 16.0.0, SVG Export Plug-In . SVG Version: 6.00 Build 0)  -->
<!DOCTYPE svg PUBLIC "-//W3C//DTD SVG 1.1//EN" "http://www.w3.org/Graphics/SVG/1.1/DTD/svg11.dtd">
<svg version="1.1" id="Lager_1" xmlns="http://www.w3.org/2000/svg" xmlns:xlink="http://www.w3.org/1999/xlink" x="0px" y="0px"
	 viewBox="0 0 95.726 95.726" enable-background="new 0 0 95.726 95.726" xml:space="preserve">
<g>
	<g>
		<path fill="#994916" d="M13.498,55.729c1.415-6.231-2.58-9.895-1.721-17.849c0-7.34,8.205-10.894,14.945-10.894
			c4.169,0,11.826,1.748,15.664,1.748c2.623,0,7.41,0.579,11.812-1.8c0.375-0.201,0.727-0.435,1.074-0.682
			c0.016,0.031,0.029,0.048,0.029,0.048s0.346-0.396,2.621-0.396c2.277,0,4.918-0.672,6.627-3.235
			c1.617-2.421,3.467-3.086,6.553-3.181c2.18-0.067,3.848-0.285,5.479-1.057c2.295-1.085,2.871-1.335,5.742-1.088
			c2.869,0.247,3.711-0.297,4.85-1.485c0.811-0.845,2.221-1.088,2.967-1.159c0.135-0.009,0.271-0.017,0.406-0.027
			c0.059-0.002,0.092-0.002,0.092-0.002c-0.004-0.001-0.008-0.003-0.012-0.005c0.539-0.041,1.074-0.087,1.623-0.14
			c2.158-0.208,3.375-0.611,3.467,0.335c0.092,0.947-1.191,1.54-2.207,2.308c-0.109,0.083-0.213,0.162-0.314,0.241
			c-0.002,0-0.002-0.003-0.002-0.003c-0.027,0.025-0.059,0.049-0.092,0.074c-0.008,0.006-0.014,0.012-0.023,0.019
			c-0.566,0.438-1.67,0.986-1.592,2.695c0.119,2.605,0.295,4.042,0.438,4.726c0.102,0.484,0.398,0.855,0.779,1.067
			c0.09,0.72,0.176,1.418,0.258,2.04c0.313,2.127,0.486,3.578,0.77,5.607c0.414,2.974-0.428,3.957-2.563,5.167
			c-1.418,0.804-2.721,0.277-3.469-0.222c-1.031-0.689-1.48-1.541-1.318-2.478c0.16-0.938-0.236-1.659-1.439-3.039
			c-1.07-1.231-2.012-1.775-3.242-3.308c-1.383-1.729-3.006-2.23-4.838-0.479c-2.016,1.956-2.859,4.673-4.059,10.723
			c-0.986,4.986-2.604,8.989-5.479,12.037c-0.291,0.31-0.262,0.614-0.24,0.772c0.293,2.072,0.736,4.6,1.363,6.758
			c1.336,4.588,3.414,10.955,5.674,14.346c2.465,3.699,3.256,5.592,4.002,7.924c0.387,1.205,0.191,1.752-0.977,1.752
			c-1.166,0-2.691,0-4.025,0c-1.336,0-2.002-0.084-2.252-1.502c-0.252-1.418,0.332-1.585,0.416-2.502
			c0.082-0.918-0.084-1.418-1.168-2.168c-1.084-0.751-1.527-1.5-2.363-3.501c-0.834-2.001-1.73-5.204-3.113-7.926
			c-0.592-1.165-1.801-3.513-2.93-5.699c-0.168-0.323-0.322-0.65-0.496-0.958c-0.158-0.283-0.277-0.104-0.334,0
			c-1.213,2.156-2.24,4.619-3.074,7.158c-1.752,5.338-2.004,6.619-0.666,8.757c0.904,1.447,1.797,2.735,2.684,5.294
			c0.805,2.319,0.801,3.047-0.352,3.047c-2.252,0-3.25,0-4.17,0c-0.916,0-1.5-0.168-1.916-1.335c-0.418-1.167,0-1.919,0.25-2.836
			s-0.25-1.585-1.418-2.335c-1.168-0.751-1.791-1.845-1.441-3.646c0.447-2.311,1.275-4.443,2.107-7.697
			c0.834-3.252,1.674-7.115,2.211-9.666c0.543-2.576-0.791-2.592-2.211-2.592c-1.416,0-4.807,0.183-7.531,0.014
			c-4.153-0.258-6.546-1.046-9.722-1.707c-1.38-0.287-2.565-0.564-3.569-0.139c-1.027,0.438-2.139,2.242-2.941,3.551
			c-1.584,2.588-2.663,4.201-2.663,6.286s0.709,3.324,2.831,5.858c2.505,2.988,3.352,4.329,4.039,6.217
			c0.283,0.766,0.493,1.67,0.493,3.178c0,1.252-0.332,3.543-1.083,4.793c-0.75,1.251-1.624,2.984-3.055,1.411
			c-1.504-1.656-1.569-2.017-2.402-3.185c-0.835-1.168-0.634-2.014,0.266-2.814c1.133-1.01,1.735-2.296,0.098-4.07
			c-1.414-1.531-4.65-5.266-6.47-7.222c-1.12-1.204-1.92-2.187-2.075-3.378c-0.016-0.111-0.029-0.326-0.326-0.082
			c-0.486,0.404-0.902,0.757-1.23,0.994c-2.422,1.752-4.055,2.703-4.055,6.02c0,1.272,0,2.652,0,3.501
			c0,1.917,0.174,3.551,1.501,5.044c1.349,1.512,1.752,2.751,2.168,4.086c0.418,1.334,0.168,1.752-0.916,1.752s-2.398,0-4.064,0
			c-1.668,0-1.853-1.267-1.931-3.254c-0.098-2.479-1.668-2.545-1.668-6.631c0-4.088,0-7.047,0-10.133S12.625,59.569,13.498,55.729z"
			/>
	</g>
	<g>
		<path fill="#FFE57E" d="M9.908,31.062c1.09,0,1.645-0.021,2.697-0.021c1.783,0,3.044-0.648,3.97-1.267
			c0.02-0.013,0.043-0.025,0.062-0.037c-2.448,1.551-4.276,3.769-4.741,6.667c-0.414-0.006-0.756-0.013-0.964-0.013
			c-1.987,0-3.584,0.999-3.584,4.411c0,4.004,2.818,6.811,2.818,12.232c0,4.842-3.268,7.856-8.05,7.856
			c-1.497,0-2.109-0.599-2.109-2.104c0-3.992,0-11.303,0-15.224C0.006,35.314,4.116,31.062,9.908,31.062z"/>
	</g>
	<path fill="#FFE57E" d="M93.192,17.408c-0.516,0.459-1.789,0.958-1.707,2.788c0.119,2.605,0.295,4.042,0.438,4.726
		c0.209,0.999,1.248,1.52,2.15,1.144c0.881-0.368,1.471-1.452,0.91-3.122C94.337,21.029,93.192,17.408,93.192,17.408z"/>
	<path fill="#FFE57E" d="M90.638,14.671c0,0-2.326,0-3.465,1.188c-1.139,1.188-1.98,1.732-4.85,1.485
		c-2.871-0.247-3.447,0.003-5.742,1.088c-1.631,0.772-3.299,0.989-5.479,1.057c-3.086,0.095-4.936,0.76-6.553,3.181
		c-1.709,2.563-4.35,3.235-6.627,3.235c-2.275,0-2.621,0.396-2.621,0.396s-0.396-0.495,0.297-1.535
		c0.691-1.039,2.721-2.891,4.156-4.375c1.436-1.485,3.52-3.434,6.504-5.27c2.471-1.52,5.574-2.602,8.643-2.85
		c3.068-0.248,6.26-0.165,8.832,0.38C86.308,13.196,89.253,14.126,90.638,14.671z"/>
	<circle fill="#FFE57E" cx="89.448" cy="24.821" r="1.587"/>
</g>
</svg>
