<?xml version="1.0" encoding="utf-8"?>
<!-- Generator: Adobe Illustrator 16.0.0, SVG Export Plug-In . SVG Version: 6.00 Build 0)  -->
<!DOCTYPE svg PUBLIC "-//W3C//DTD SVG 1.1//EN" "http://www.w3.org/Graphics/SVG/1.1/DTD/svg11.dtd">
<svg version="1.1" id="Lager_1" xmlns="http://www.w3.org/2000/svg" xmlns:xlink="http://www.w3.org/1999/xlink" x="0px" y="0px"
	 viewBox="0 0 65.197 65.197" enable-background="new 0 0 65.197 65.197" xml:space="preserve">
<g>
	<g>
		<path fill="#FFB900" d="M52.412,8.216c-1.864-2.462-6.085-3.686-8.547-1.821c-1.441,1.095-2.05,3.018-1.767,4.896
			c0.358,2.372,2.612,5.363,3.137,6.231c2.621,4.334,3.902,9.094,3.902,14.461c0,9.119-7.419,16.539-16.539,16.539
			c-9.119,0-16.538-7.42-16.538-16.539c0-4.883,1.586-10.335,4.151-14.571c0.479-0.788,2.864-3.975,2.876-6.285
			c0.008-1.7-0.617-3.368-1.927-4.395c-2.432-1.902-6.319-0.874-8.222,1.559c-4.973,6.353-8.063,15.432-8.063,23.692
			c0,15.285,12.437,27.721,27.722,27.721c15.286,0,27.722-12.436,27.722-27.721C60.32,23.137,57.66,15.14,52.412,8.216z"/>
		<circle fill="#FFE57E" cx="12.484" cy="20.838" r="2.521"/>
		<circle fill="#FFE57E" cx="10.591" cy="29.504" r="2.522"/>
		<circle fill="#FFE57E" cx="11.437" cy="38.168" r="2.521"/>
		<circle fill="#FFE57E" cx="15.618" cy="46.225" r="2.521"/>
	</g>
	<g>
		<circle fill="#FFE57E" cx="52.727" cy="20.838" r="2.521"/>
		<circle fill="#FFE57E" cx="54.618" cy="29.504" r="2.521"/>
		<circle fill="#FFE57E" cx="53.773" cy="38.168" r="2.521"/>
		<circle fill="#FFE57E" cx="49.591" cy="46.225" r="2.521"/>
	</g>
</g>
</svg>
