<?xml version="1.0" encoding="utf-8"?>
<!-- Generator: Adobe Illustrator 16.0.0, SVG Export Plug-In . SVG Version: 6.00 Build 0)  -->
<!DOCTYPE svg PUBLIC "-//W3C//DTD SVG 1.1//EN" "http://www.w3.org/Graphics/SVG/1.1/DTD/svg11.dtd">
<svg version="1.1" id="Lager_1" xmlns="http://www.w3.org/2000/svg" xmlns:xlink="http://www.w3.org/1999/xlink" x="0px" y="0px"
	 viewBox="0 0 85.04 85.039" enable-background="new 0 0 85.04 85.039" xml:space="preserve">
<g>
	<g>
		<rect x="31.109" y="45.839" fill="#D2E182" width="22.821" height="4.609"/>
		<rect x="31.109" y="32.013" fill="#D2E182" width="22.821" height="4.607"/>
		<path fill="#D2E182" d="M9.124,59.665c-0.314,0-0.574-0.26-0.574-0.574v-0.35v-7.199v-0.52c0-0.316,0.26-0.574,0.574-0.574h8.834
			v-4.609H9.124c-0.314,0-0.574-0.258-0.574-0.574v-4.078v-3.99c0-0.314,0.26-0.576,0.574-0.576h8.834v-4.607H9.124
			c-0.314,0-0.574-0.259-0.574-0.574V12.267c0-0.396-0.323-0.719-0.718-0.719H4.66c-0.395,0-0.718,0.323-0.718,0.719v55.898
			c0,0.393-0.324,0.719-0.721,0.719H0.978c-0.395,0-0.718,0.322-0.718,0.719v3.168c0,0.396,0.323,0.721,0.718,0.721h10.535
			c0.395,0,0.718-0.324,0.718-0.721v-3.168c0-0.396-0.323-0.719-0.718-0.719H9.269c-0.396,0-0.72-0.326-0.72-0.719v-3.316
			c0-0.314,0.26-0.574,0.574-0.574h8.834v-4.609H9.124z"/>
		<rect x="31.109" y="59.665" fill="#D2E182" width="22.821" height="4.609"/>
		<path fill="#D2E182" d="M84.059,68.884h-2.243c-0.395,0-0.718-0.326-0.718-0.719V12.267c0-0.396-0.324-0.719-0.721-0.719h-3.169
			c-0.395,0-0.721,0.323-0.721,0.719v19.172c0,0.315-0.257,0.574-0.572,0.574h-8.835v4.607h8.835c0.315,0,0.572,0.262,0.572,0.576
			v3.99v4.078c0,0.316-0.257,0.574-0.572,0.574h-8.835v4.609h8.835c0.315,0,0.572,0.258,0.572,0.574v0.52v7.199v0.35
			c0,0.314-0.257,0.574-0.572,0.574h-8.835v4.609h8.835c0.315,0,0.572,0.26,0.572,0.574v3.316c0,0.393-0.32,0.719-0.717,0.719
			h-2.244c-0.395,0-0.719,0.322-0.719,0.719v3.168c0,0.396,0.324,0.721,0.719,0.721h10.532c0.395,0,0.721-0.324,0.721-0.721v-3.168
			C84.78,69.206,84.454,68.884,84.059,68.884z"/>
	</g>
	<g>
		<rect x="17.958" y="59.665" fill="#1E6E32" width="13.151" height="4.609"/>
		<rect x="53.93" y="59.665" fill="#1E6E32" width="13.15" height="4.609"/>
	</g>
	<g>
		<rect x="17.958" y="45.839" fill="#1E6E32" width="13.151" height="4.609"/>
		<rect x="53.93" y="45.839" fill="#1E6E32" width="13.15" height="4.609"/>
	</g>
	<g>
		<rect x="17.958" y="32.013" fill="#1E6E32" width="13.151" height="4.607"/>
		<rect x="53.93" y="32.013" fill="#1E6E32" width="13.15" height="4.607"/>
	</g>
</g>
</svg>
