<?xml version="1.0" encoding="utf-8"?>
<!-- Generator: Adobe Illustrator 16.0.0, SVG Export Plug-In . SVG Version: 6.00 Build 0)  -->
<!DOCTYPE svg PUBLIC "-//W3C//DTD SVG 1.1//EN" "http://www.w3.org/Graphics/SVG/1.1/DTD/svg11.dtd">
<svg version="1.1" id="Lager_1" xmlns="http://www.w3.org/2000/svg" xmlns:xlink="http://www.w3.org/1999/xlink" x="0px" y="0px"
	 viewBox="0 0 68.031 68.032" enable-background="new 0 0 68.031 68.032" xml:space="preserve">
<g>
	<g>
		<path fill="#B0CB0B" d="M53.829,9.634c-1.864-2.462-6.085-3.686-8.547-1.821c-1.441,1.095-2.05,3.018-1.767,4.896
			c0.358,2.372,2.612,5.363,3.137,6.231c2.621,4.334,3.902,9.094,3.902,14.461c0,9.119-7.419,16.539-16.539,16.539
			c-9.119,0-16.538-7.42-16.538-16.539c0-4.883,1.586-10.335,4.151-14.571c0.479-0.788,2.864-3.975,2.876-6.285
			c0.008-1.7-0.617-3.368-1.927-4.395c-2.432-1.902-6.319-0.874-8.222,1.559c-4.973,6.353-8.063,15.432-8.063,23.692
			c0,15.285,12.437,27.721,27.722,27.721c15.286,0,27.722-12.436,27.722-27.721C61.737,24.555,59.077,16.558,53.829,9.634z"/>
		<circle fill="#D2E182" cx="13.901" cy="22.256" r="2.521"/>
		<circle fill="#D2E182" cx="12.008" cy="30.921" r="2.522"/>
		<circle fill="#D2E182" cx="12.854" cy="39.585" r="2.521"/>
		<circle fill="#D2E182" cx="17.035" cy="47.642" r="2.521"/>
	</g>
	<g>
		<circle fill="#D2E182" cx="54.144" cy="22.256" r="2.521"/>
		<circle fill="#D2E182" cx="56.035" cy="30.921" r="2.521"/>
		<circle fill="#D2E182" cx="55.19" cy="39.585" r="2.521"/>
		<circle fill="#D2E182" cx="51.008" cy="47.642" r="2.521"/>
	</g>
</g>
</svg>
