<?xml version="1.0" encoding="utf-8"?>
<!-- Generator: Adobe Illustrator 16.0.0, SVG Export Plug-In . SVG Version: 6.00 Build 0)  -->
<!DOCTYPE svg PUBLIC "-//W3C//DTD SVG 1.1//EN" "http://www.w3.org/Graphics/SVG/1.1/DTD/svg11.dtd">
<svg version="1.1" id="Lager_1" xmlns="http://www.w3.org/2000/svg" xmlns:xlink="http://www.w3.org/1999/xlink" x="0px" y="0px"
	 viewBox="0 0 85.039 85.04" enable-background="new 0 0 85.039 85.04" xml:space="preserve">
<g>
	<g>
		<rect x="31.06" y="45.854" fill="#7DC8F0" width="22.918" height="4.628"/>
		<rect x="31.06" y="31.968" fill="#7DC8F0" width="22.918" height="4.63"/>
		<path fill="#7DC8F0" d="M8.984,59.737c-0.317,0-0.577-0.259-0.577-0.577v-0.351v-7.227v-0.524c0-0.316,0.26-0.576,0.577-0.576
			h8.87v-4.628h-8.87c-0.317,0-0.577-0.263-0.577-0.578v-4.094v-4.01c0-0.316,0.26-0.574,0.577-0.574h8.87v-4.63h-8.87
			c-0.317,0-0.577-0.26-0.577-0.576V12.14c0-0.397-0.325-0.723-0.723-0.723H4.502c-0.398,0-0.723,0.326-0.723,0.723v56.132
			c0,0.398-0.324,0.721-0.722,0.721H0.805c-0.396,0-0.721,0.325-0.721,0.724v3.185c0,0.396,0.324,0.722,0.721,0.722h10.577
			c0.398,0,0.723-0.326,0.723-0.722v-3.185c0-0.398-0.324-0.724-0.723-0.724H9.128c-0.396,0-0.721-0.322-0.721-0.721v-3.329
			c0-0.318,0.26-0.577,0.577-0.577h8.87v-4.629H8.984z"/>
		<rect x="31.06" y="59.737" fill="#7DC8F0" width="22.918" height="4.629"/>
		<path fill="#7DC8F0" d="M84.233,68.993H81.98c-0.396,0-0.722-0.322-0.722-0.721V12.14c0-0.397-0.324-0.723-0.722-0.723h-3.184
			c-0.396,0-0.723,0.326-0.723,0.723v19.252c0,0.316-0.26,0.576-0.577,0.576h-8.869v4.63h8.869c0.317,0,0.577,0.258,0.577,0.574
			v4.01v4.094c0,0.315-0.26,0.578-0.577,0.578h-8.869v4.628h8.869c0.317,0,0.577,0.26,0.577,0.576v0.524v7.227v0.351
			c0,0.318-0.26,0.577-0.577,0.577h-8.869v4.629h8.869c0.317,0,0.577,0.259,0.577,0.577v3.329c0,0.398-0.322,0.721-0.721,0.721
			h-2.254c-0.398,0-0.722,0.325-0.722,0.724v3.185c0,0.396,0.323,0.722,0.722,0.722h10.577c0.397,0,0.722-0.326,0.722-0.722v-3.185
			C84.955,69.318,84.631,68.993,84.233,68.993z"/>
	</g>
	<g>
		<rect x="17.854" y="59.737" fill="#009FE4" width="13.205" height="4.629"/>
		<rect x="53.978" y="59.737" fill="#009FE4" width="13.207" height="4.629"/>
	</g>
	<g>
		<rect x="17.854" y="45.854" fill="#009FE4" width="13.205" height="4.628"/>
		<rect x="53.978" y="45.854" fill="#009FE4" width="13.207" height="4.628"/>
	</g>
	<g>
		<rect x="17.854" y="31.968" fill="#009FE4" width="13.205" height="4.63"/>
		<rect x="53.978" y="31.968" fill="#009FE4" width="13.207" height="4.63"/>
	</g>
</g>
</svg>
