<?xml version="1.0" encoding="utf-8"?>
<!-- Generator: Adobe Illustrator 16.0.0, SVG Export Plug-In . SVG Version: 6.00 Build 0)  -->
<!DOCTYPE svg PUBLIC "-//W3C//DTD SVG 1.1//EN" "http://www.w3.org/Graphics/SVG/1.1/DTD/svg11.dtd">
<svg version="1.1" id="Lager_1" xmlns="http://www.w3.org/2000/svg" xmlns:xlink="http://www.w3.org/1999/xlink" x="0px" y="0px"
	 viewBox="0 0 73.701 73.701" enable-background="new 0 0 73.701 73.701" xml:space="preserve">
<path fill="#B0CB0B" d="M69.996,21.059c-0.001-0.007-0.002-0.014-0.004-0.021c-0.008-0.031-0.016-0.061-0.023-0.092
	c-1.802-7.801-7.957-13.615-16.034-13.967c-0.53-0.047-1.064-0.076-1.606-0.076c-6.178,0-11.623,3.179-14.916,8.025
	c-0.118,0.174-0.299,0.411-0.562,0.387c-0.263,0.024-0.444-0.213-0.562-0.387c-3.293-4.847-8.738-8.025-14.916-8.025
	c-0.542,0-1.077,0.029-1.606,0.076C11.688,7.331,5.534,13.146,3.731,20.946c-0.007,0.031-0.016,0.061-0.022,0.092
	c-0.002,0.007-0.003,0.014-0.005,0.021c-0.363,1.48-0.559,3.029-0.559,4.626c0,5.66,1.502,11.122,4.545,16.238
	c4.392,7.382,11.963,13.917,19.685,19.75c4.49,3.392,7.385,5.125,9.476,5.125c2.177,0,4.858-1.733,9.475-5.125
	c7.797-5.727,15.294-12.368,19.685-19.75c3.044-5.116,4.546-10.578,4.546-16.238C70.556,24.088,70.36,22.539,69.996,21.059z"/>
</svg>
