<?xml version="1.0" encoding="utf-8"?>
<!-- Generator: Adobe Illustrator 16.0.0, SVG Export Plug-In . SVG Version: 6.00 Build 0)  -->
<!DOCTYPE svg PUBLIC "-//W3C//DTD SVG 1.1//EN" "http://www.w3.org/Graphics/SVG/1.1/DTD/svg11.dtd">
<svg version="1.1" id="Lager_1" xmlns="http://www.w3.org/2000/svg" xmlns:xlink="http://www.w3.org/1999/xlink" x="0px" y="0px"
	 viewBox="0 0 800 800" enable-background="new 0 0 800 800" xml:space="preserve">
<g>
	<path fill="#E6007E" d="M796.092,377.394c-27.133-194.306-194.414-344.37-396.075-344.37
		c-201.683,0-368.976,150.064-396.096,344.37c-2.529,18.174-3.032,32.621-3.032,32.621c-0.441,12.61-0.806,33.25-0.806,45.885
		v23.711c0,12.609,0.83,33.225,1.837,45.809c0,0,1.07,13.441,6.481,30.129c9.25,28.618,25.786,53.965,47.445,73.85
		c1.586,1.46,4.933,3.599,4.933,10.042c0,6.469,0,70.477,0,70.477c0,13.642,11.15,24.792,24.781,24.792h44.35
		c0.275,0,0.54-0.051,0.816-0.051c-0.49-2.541-0.767-5.134-0.767-7.827V493.479c0-2.669,0.276-5.286,0.767-7.804
		c-0.276-0.025-0.541-0.05-0.816-0.05h-44.35c-10.823,0-20.073,7.022-23.422,16.737c-0.88,2.518-1.359,1.259-1.359-1.786
		c0-3.021,0-52.656,0-52.656c0-8.23,0.541-25.296,1.196-37.881c0,0,1.284-24.264,6.003-46.767c2.267-10.849,5.11-21.47,8.381-31.891
		C119.629,193.81,248.335,93.722,400.017,93.722c151.648,0,280.343,100.088,323.609,237.661c3.299,10.421,6.143,21.042,8.409,31.891
		c4.706,22.503,5.989,46.767,5.989,46.767c0.679,12.585,1.208,29.65,1.208,37.881c0,0,0,52.782,0,54.291
		c0,1.511-0.428,3.046-1.183,0.655c-3.196-9.968-12.586-17.241-23.61-17.241h-44.35c-0.276,0-0.528,0.024-0.806,0.05
		c0.504,2.518,0.78,5.135,0.78,7.804V726.83c0,2.693-0.276,5.286-0.78,7.827c0.277,0,0.529,0.051,0.806,0.051h44.35
		c13.642,0,24.793-11.15,24.793-24.792c0,0,0-68.614,0-71.206c0-5.186,3.349-7.853,4.935-9.313
		c21.646-19.885,38.182-45.231,47.445-73.85c5.41-16.688,6.493-30.129,6.493-30.129c1.006-12.584,1.812-33.199,1.812-45.809v-23.711
		c0-12.635-0.352-33.274-0.806-45.885C799.111,410.015,798.608,395.567,796.092,377.394z"/>
	<path fill="#0A4682" d="M129.96,493.479c0-22.175,17.971-40.146,40.146-40.146c22.176,0,40.146,17.972,40.146,40.146V726.83
		c0,22.175-17.971,40.146-40.146,40.146c-22.175,0-40.146-17.972-40.146-40.146V493.479z"/>
	<path fill="#0A4682" d="M670.064,493.479c0-22.175-17.972-40.146-40.146-40.146c-22.198,0-40.17,17.972-40.17,40.146V726.83
		c0,22.175,17.972,40.146,40.17,40.146c22.175,0,40.146-17.972,40.146-40.146V493.479z"/>
</g>
</svg>
