<?xml version="1.0" encoding="utf-8"?>
<!-- Generator: Adobe Illustrator 16.0.0, SVG Export Plug-In . SVG Version: 6.00 Build 0)  -->
<!DOCTYPE svg PUBLIC "-//W3C//DTD SVG 1.1//EN" "http://www.w3.org/Graphics/SVG/1.1/DTD/svg11.dtd">
<svg version="1.1" id="Lager_1" xmlns="http://www.w3.org/2000/svg" xmlns:xlink="http://www.w3.org/1999/xlink" x="0px" y="0px"
	 viewBox="0 0 51.024 51.024" enable-background="new 0 0 51.024 51.024" xml:space="preserve">
<g>
	<path fill="#994916" d="M48.164,12.291l-9.461-9.438c-0.324-0.322-0.855-0.322-1.178,0.002L4.537,35.844
		c-0.324,0.324-0.324,0.852,0.003,1.176l1.848,1.848c-0.159,0.035-0.319,0.057-0.479,0.109C3.38,39.834,2.018,42.59,2.874,45.12
		c0.857,2.531,3.612,3.893,6.142,3.035c1.656-0.563,2.794-1.936,3.156-3.521l1.826,1.82c0.323,0.324,0.854,0.324,1.179,0.002
		l32.987-32.99C48.486,13.145,48.488,12.613,48.164,12.291z M8.197,45.737c-1.195,0.402-2.499-0.24-2.903-1.438
		c-0.406-1.195,0.238-2.498,1.434-2.902c1.198-0.406,2.503,0.234,2.907,1.434C10.04,44.028,9.394,45.333,8.197,45.737z"/>
	<path fill="#FFE57E" d="M17.651,32.983c0.258,0,0.47,0.211,0.47,0.469v4.195c0,0.258-0.212,0.469-0.47,0.469h-4.194
		c-0.256,0-0.47-0.211-0.47-0.469v-4.195c0-0.258,0.214-0.469,0.47-0.469H17.651z"/>
	<path fill="#FFE57E" d="M28.339,22.295c0.258,0,0.471,0.211,0.469,0.469l0.002,4.195c0,0.258-0.213,0.471-0.471,0.471h-4.195
		c-0.258,0-0.469-0.213-0.469-0.471v-4.195c0-0.258,0.211-0.469,0.469-0.469H28.339z"/>
	<path fill="#FFE57E" d="M39.027,11.607c0.258,0,0.469,0.213,0.469,0.47v4.196c0,0.258-0.211,0.468-0.469,0.468h-4.195
		c-0.258,0-0.469-0.21-0.469-0.468v-4.196c0-0.257,0.211-0.47,0.469-0.47H39.027z"/>
</g>
</svg>
