<?xml version="1.0" encoding="utf-8"?>
<!-- Generator: Adobe Illustrator 16.0.0, SVG Export Plug-In . SVG Version: 6.00 Build 0)  -->
<!DOCTYPE svg PUBLIC "-//W3C//DTD SVG 1.1//EN" "http://www.w3.org/Graphics/SVG/1.1/DTD/svg11.dtd">
<svg version="1.1" id="Lager_1" xmlns="http://www.w3.org/2000/svg" xmlns:xlink="http://www.w3.org/1999/xlink" x="0px" y="0px"
	 viewBox="0 0 59.528 59.527" enable-background="new 0 0 59.528 59.527" xml:space="preserve">
<g>
	<path fill="#B0CB0B" d="M54.342,12.285l-9.584-9.561c-0.332-0.327-0.871-0.327-1.201,0.002l-33.44,33.442
		c-0.33,0.326-0.33,0.869,0,1.195l1.859,1.857c-0.162,0.039-0.325,0.059-0.487,0.111c-2.576,0.873-3.963,3.682-3.09,6.256
		c0.873,2.576,3.679,3.963,6.253,3.092c1.687-0.572,2.847-1.971,3.215-3.588l1.836,1.83c0.33,0.328,0.867,0.328,1.197,0.002
		l33.442-33.442C54.672,13.153,54.672,12.614,54.342,12.285z M13.818,46.217c-1.218,0.41-2.544-0.242-2.959-1.463
		c-0.411-1.219,0.243-2.545,1.463-2.959c1.22-0.412,2.55,0.242,2.963,1.461S15.039,45.803,13.818,46.217z"/>
	<g>
		<path fill="#B0CB0B" d="M20.862,50.82c0.219-0.393,0.322-0.854,0.25-1.332c-0.171-1.133-1.224-1.914-2.357-1.744
			c-0.618,0.092-1.132,0.451-1.442,0.941c-0.069,0.107-0.402,0.838-0.794,1.125c-0.298,0.219-0.728,0.412-1.357,0.506
			c-1.098,0.164-2.135,0.318-2.135,0.318s-1.035,0.156-2.135,0.32c-0.627,0.094-1.097,0.033-1.445-0.088
			c-0.458-0.16-0.991-0.762-1.087-0.844c-0.44-0.377-1.036-0.572-1.656-0.479c-1.132,0.168-1.912,1.225-1.743,2.357
			c0.07,0.477,0.304,0.891,0.627,1.201c0.188,0.178,0.362,0.422,0.177,0.766c-0.23,0.422-0.375,0.9-0.299,1.414
			c0.171,1.133,1.224,1.912,2.357,1.742c0.658-0.098,1.196-0.496,1.5-1.033c0.208-0.371,0.771-1.34,2.083-1.537
			c1.31-0.195,2.145-0.32,2.145-0.32s0.836-0.125,2.146-0.32c1.309-0.197,2.133,0.564,2.44,0.857
			c0.446,0.43,1.077,0.652,1.737,0.555c1.132-0.172,1.912-1.225,1.742-2.355c-0.076-0.514-0.356-0.93-0.697-1.266
			C20.639,51.332,20.737,51.047,20.862,50.82z"/>
	</g>
	<g>
		<path fill="#B0CB0B" d="M13.031,52.984c-0.733,0-1.327-0.594-1.327-1.326v-7.145c0-0.732,0.594-1.324,1.327-1.324
			c0.731,0,1.321,0.592,1.321,1.324v7.145C14.353,52.391,13.763,52.984,13.031,52.984z"/>
	</g>
	<g>
		<path fill="#D2E182" d="M48.485,15.285c-0.518,0.516-1.354,0.519-1.873,0.003l-4.738-4.717c-0.518-0.516-0.521-1.354-0.006-1.874
			c0.004,0,0.004,0,0.004-0.002c0.516-0.516,1.352-0.517,1.871-0.002l4.738,4.715c0.52,0.517,0.52,1.354,0.006,1.874
			C48.487,15.284,48.487,15.284,48.485,15.285z"/>
	</g>
	<g>
		<path fill="#D2E182" d="M43.178,20.591c-0.516,0.515-1.354,0.518-1.873,0.002l-4.738-4.717c-0.518-0.515-0.52-1.354-0.004-1.874
			c0,0,0,0,0.004-0.001c0.516-0.516,1.352-0.518,1.869-0.002l4.74,4.715c0.516,0.518,0.521,1.356,0.004,1.873
			C43.178,20.589,43.178,20.589,43.178,20.591z"/>
	</g>
	<g>
		<path fill="#D2E182" d="M37.872,25.896c-0.518,0.518-1.352,0.52-1.871,0l-4.738-4.713c-0.52-0.516-0.523-1.354-0.006-1.874
			c0.002,0,0.002-0.002,0.002-0.002c0.518-0.517,1.352-0.517,1.871-0.002l4.74,4.714c0.52,0.518,0.52,1.357,0.004,1.875
			C37.874,25.896,37.874,25.896,37.872,25.896z"/>
	</g>
	<g>
		<path fill="#D2E182" d="M32.565,31.205c-0.516,0.514-1.352,0.516-1.871,0l-4.74-4.717c-0.518-0.516-0.52-1.354-0.004-1.873
			c0,0,0.003-0.002,0.004-0.002c0.515-0.516,1.353-0.518,1.871-0.002l4.738,4.715c0.518,0.518,0.521,1.357,0.006,1.873
			C32.567,31.199,32.565,31.201,32.565,31.205z"/>
	</g>
	<g>
		<path fill="#D2E182" d="M27.258,36.51c-0.516,0.516-1.354,0.518-1.869,0l-4.739-4.715c-0.519-0.516-0.521-1.355-0.006-1.875
			c0.001,0,0.001,0,0.001,0c0.519-0.518,1.354-0.518,1.873-0.002l4.74,4.715c0.52,0.518,0.52,1.355,0.004,1.873
			C27.262,36.506,27.262,36.508,27.258,36.51z"/>
	</g>
	<g>
		<path fill="#D2E182" d="M21.953,41.816c-0.516,0.516-1.352,0.518-1.871,0.002l-4.74-4.717c-0.52-0.516-0.52-1.355-0.004-1.871
			c0-0.002,0.002-0.006,0.004-0.006c0.516-0.514,1.353-0.516,1.87,0l4.738,4.715c0.519,0.516,0.522,1.355,0.006,1.873
			C21.953,41.814,21.953,41.814,21.953,41.816z"/>
	</g>
</g>
</svg>
