<?xml version="1.0" encoding="utf-8"?>
<!-- Generator: Adobe Illustrator 16.0.0, SVG Export Plug-In . SVG Version: 6.00 Build 0)  -->
<!DOCTYPE svg PUBLIC "-//W3C//DTD SVG 1.1//EN" "http://www.w3.org/Graphics/SVG/1.1/DTD/svg11.dtd">
<svg version="1.1" id="Lager_1" xmlns="http://www.w3.org/2000/svg" xmlns:xlink="http://www.w3.org/1999/xlink" x="0px" y="0px"
	 viewBox="0 0 66.785 66.785" enable-background="new 0 0 66.785 66.785" xml:space="preserve">
<g>
	<g>
		<path fill="#FFB900" d="M58.846,26.526c0-2.197-1.78-3.976-3.975-3.976c-0.273,0-0.412,0.021-0.412,0.021
			c-0.211,0.032-0.37-0.117-0.353-0.329c0,0,0.004-0.046,0.004-0.268c0-3.43-2.781-6.211-6.212-6.211
			c-0.529,0-1.148,0.122-1.148,0.122c-0.211,0.041-0.451-0.086-0.535-0.283c0,0-0.555-1.293-1.176-1.917
			c-0.943-0.946-2.248-1.532-3.69-1.532c-1.142,0-2.709,0.813-2.709,0.813c-0.19,0.098-0.438,0.03-0.55-0.151
			c0,0-1.011-1.628-1.875-2.375c-1.478-1.279-3.402-2.054-5.511-2.054c-2.667,0-5.04,1.237-6.586,3.167
			c-0.715,0.894-1.42,2.71-1.42,2.71c-0.078,0.199-0.293,0.276-0.48,0.173c0,0-1.529-0.854-2.664-0.854
			c-2.685,0-4.861,2.177-4.861,4.86c0,0.532,0.153,1.146,0.153,1.146c0.052,0.207-0.079,0.353-0.291,0.325
			c0,0-0.322-0.044-0.688-0.044c-3.637,0-6.585,2.948-6.585,6.584c0,0.502,0.058,0.99,0.165,1.46h51.148
			C58.756,27.482,58.846,27.015,58.846,26.526z"/>
	</g>
	<path fill="#009FE4" d="M66.764,54.461c0.195,2.164-1.422,3.936-3.594,3.936H3.615c-2.172,0-3.791-1.771-3.596-3.936l2.036-22.613
		c0.195-2.164,2.132-3.934,4.304-3.934h54.067c2.171,0,4.107,1.77,4.303,3.934L66.764,54.461z"/>
	<path fill="#FFE57E" d="M51.248,42.618c0.614-0.799,0.995-1.789,0.995-2.875c0-2.57-2.082-4.653-4.65-4.653
		c-1.407,0-2.666,0.625-3.518,1.61c-0.185,0.215-1.171,1.73-2.135,2.234c-0.729,0.383-1.751,0.674-3.178,0.674
		c-2.493,0-4.844,0-4.844,0s-2.352,0-4.845,0c-1.427,0-2.447-0.291-3.178-0.674c-0.963-0.504-1.949-2.02-2.134-2.234
		c-0.853-0.984-2.11-1.61-3.517-1.61c-2.569,0-4.652,2.083-4.652,4.653c0,1.086,0.382,2.076,0.996,2.875
		c0.354,0.457,0.667,1.059,0.135,1.758c-0.65,0.861-1.131,1.877-1.131,3.039c0,2.57,2.083,4.652,4.652,4.652
		c1.494,0,2.822-0.705,3.672-1.801c0.585-0.754,2.16-2.717,5.132-2.717s4.87,0,4.87,0s1.896,0,4.869,0
		c2.973,0,4.547,1.963,5.131,2.717c0.852,1.096,2.178,1.801,3.674,1.801c2.568,0,4.65-2.082,4.65-4.652
		c0-1.162-0.482-2.178-1.131-3.039C50.583,43.676,50.894,43.075,51.248,42.618z"/>
</g>
</svg>
