<?xml version="1.0" encoding="utf-8"?>
<!-- Generator: Adobe Illustrator 16.0.0, SVG Export Plug-In . SVG Version: 6.00 Build 0)  -->
<!DOCTYPE svg PUBLIC "-//W3C//DTD SVG 1.1//EN" "http://www.w3.org/Graphics/SVG/1.1/DTD/svg11.dtd">
<svg version="1.1" id="Lager_1" xmlns="http://www.w3.org/2000/svg" xmlns:xlink="http://www.w3.org/1999/xlink" x="0px" y="0px"
	 viewBox="0 0 59.528 59.528" enable-background="new 0 0 59.528 59.528" xml:space="preserve">
<g>
	<path fill="#009FE4" d="M54.344,12.284l-9.586-9.561c-0.33-0.33-0.873-0.327-1.201,0.003L10.119,36.167
		c-0.331,0.33-0.329,0.867-0.001,1.195l1.859,1.857c-0.16,0.041-0.325,0.059-0.488,0.113c-2.574,0.873-3.961,3.68-3.088,6.254
		c0.871,2.576,3.678,3.963,6.253,3.092c1.685-0.572,2.846-1.971,3.214-3.588l1.836,1.83c0.328,0.33,0.868,0.33,1.196,0.002
		l33.444-33.442C54.672,13.154,54.672,12.612,54.344,12.284z M13.819,46.216c-1.218,0.412-2.544-0.242-2.958-1.463
		c-0.41-1.217,0.241-2.545,1.462-2.957c1.22-0.414,2.549,0.24,2.962,1.459C15.698,44.476,15.04,45.804,13.819,46.216z"/>
	<g>
		<path fill="#009FE4" d="M20.862,50.82c0.22-0.393,0.322-0.854,0.25-1.332c-0.169-1.133-1.223-1.914-2.356-1.744
			c-0.62,0.094-1.133,0.451-1.443,0.941c-0.066,0.109-0.401,0.84-0.792,1.125c-0.299,0.217-0.729,0.414-1.355,0.506
			c-1.1,0.164-2.138,0.32-2.138,0.32s-1.034,0.154-2.135,0.318c-0.627,0.094-1.097,0.035-1.445-0.086
			c-0.457-0.16-0.991-0.764-1.087-0.846c-0.44-0.377-1.037-0.57-1.656-0.479c-1.133,0.17-1.913,1.225-1.743,2.357
			c0.072,0.477,0.303,0.891,0.627,1.201c0.188,0.18,0.363,0.422,0.177,0.768c-0.229,0.42-0.375,0.9-0.299,1.412
			c0.169,1.133,1.224,1.914,2.355,1.744c0.659-0.1,1.197-0.496,1.5-1.035c0.209-0.371,0.773-1.342,2.085-1.535
			c1.309-0.197,2.144-0.322,2.144-0.322s0.836-0.125,2.146-0.318c1.311-0.197,2.134,0.564,2.442,0.857
			c0.445,0.428,1.076,0.652,1.734,0.553c1.134-0.168,1.914-1.223,1.745-2.355c-0.077-0.512-0.356-0.93-0.698-1.266
			C20.639,51.332,20.737,51.044,20.862,50.82z"/>
	</g>
	<g>
		<path fill="#009FE4" d="M13.031,52.984c-0.733,0-1.326-0.594-1.326-1.324v-7.146c0-0.73,0.593-1.322,1.326-1.322
			c0.73,0,1.322,0.592,1.322,1.322v7.146C14.354,52.39,13.762,52.984,13.031,52.984z"/>
	</g>
	<g>
		<path fill="#7DC8F0" d="M48.487,15.285c-0.52,0.516-1.355,0.518-1.873,0.003l-4.738-4.718c-0.52-0.515-0.521-1.354-0.006-1.871
			c0.002-0.003,0.002-0.004,0.002-0.004c0.518-0.516,1.355-0.518,1.871-0.002l4.74,4.715c0.52,0.518,0.52,1.354,0.004,1.874
			C48.487,15.283,48.487,15.283,48.487,15.285z"/>
	</g>
	<g>
		<path fill="#7DC8F0" d="M43.178,20.591c-0.516,0.516-1.352,0.519-1.871,0.003l-4.738-4.717c-0.52-0.516-0.521-1.354-0.006-1.874
			c0,0,0.002,0,0.004-0.002c0.516-0.516,1.352-0.517,1.869-0.002l4.74,4.715c0.518,0.518,0.521,1.357,0.004,1.874
			C43.18,20.59,43.178,20.59,43.178,20.591z"/>
	</g>
	<g>
		<path fill="#7DC8F0" d="M37.872,25.896c-0.518,0.516-1.354,0.516-1.869,0.002l-4.74-4.715c-0.52-0.515-0.521-1.354-0.004-1.874
			v-0.002c0.518-0.517,1.355-0.517,1.873-0.001l4.738,4.715c0.52,0.518,0.521,1.354,0.004,1.873
			C37.874,25.896,37.874,25.896,37.872,25.896z"/>
	</g>
	<g>
		<path fill="#7DC8F0" d="M32.565,31.201c-0.514,0.52-1.352,0.521-1.871,0.006l-4.737-4.717c-0.52-0.516-0.521-1.355-0.006-1.875
			l0.004-0.002c0.516-0.516,1.352-0.516,1.87-0.002l4.74,4.715c0.52,0.518,0.52,1.357,0.006,1.875
			C32.567,31.201,32.565,31.201,32.565,31.201z"/>
	</g>
	<g>
		<path fill="#7DC8F0" d="M27.262,36.507c-0.52,0.518-1.354,0.52-1.873,0.004l-4.739-4.717c-0.52-0.516-0.521-1.354-0.006-1.873
			c0.002,0,0.002-0.002,0.002-0.002c0.518-0.516,1.354-0.518,1.872-0.002l4.74,4.715c0.518,0.518,0.521,1.354,0.004,1.873
			C27.262,36.507,27.262,36.507,27.262,36.507z"/>
	</g>
	<g>
		<path fill="#7DC8F0" d="M21.953,41.814c-0.515,0.518-1.353,0.52-1.871,0.004l-4.739-4.717c-0.52-0.516-0.52-1.355-0.004-1.875
			c0,0,0.001,0,0.004,0c0.516-0.516,1.352-0.518,1.87-0.002l4.739,4.715c0.517,0.518,0.521,1.355,0.006,1.873
			C21.955,41.814,21.953,41.814,21.953,41.814z"/>
	</g>
</g>
</svg>
