<?xml version="1.0" encoding="utf-8"?>
<!-- Generator: Adobe Illustrator 16.0.0, SVG Export Plug-In . SVG Version: 6.00 Build 0)  -->
<!DOCTYPE svg PUBLIC "-//W3C//DTD SVG 1.1//EN" "http://www.w3.org/Graphics/SVG/1.1/DTD/svg11.dtd">
<svg version="1.1" id="Lager_1" xmlns="http://www.w3.org/2000/svg" xmlns:xlink="http://www.w3.org/1999/xlink" x="0px" y="0px"
	 viewBox="0 0 66.785 66.785" enable-background="new 0 0 66.785 66.785" xml:space="preserve">
<g>
	<path fill="#E6007E" d="M66.765,44.698c0.194,2.164-1.423,3.936-3.597,3.936H3.615c-2.173,0-3.791-1.771-3.596-3.936l2.036-22.613
		c0.195-2.164,2.131-3.934,4.304-3.934h54.065c2.173,0,4.109,1.77,4.305,3.934L66.765,44.698z"/>
	<path fill="#FFE57E" d="M51.247,32.854c0.615-0.799,0.996-1.789,0.996-2.875c0-2.569-2.082-4.652-4.652-4.652
		c-1.405,0-2.664,0.625-3.516,1.61c-0.186,0.215-1.171,1.73-2.135,2.234c-0.73,0.383-1.751,0.674-3.178,0.674
		c-2.493,0-4.844,0-4.844,0s-2.353,0-4.846,0c-1.427,0-2.447-0.291-3.178-0.674c-0.964-0.504-1.95-2.02-2.135-2.234
		c-0.852-0.985-2.11-1.61-3.516-1.61c-2.569,0-4.651,2.083-4.651,4.652c0,1.086,0.381,2.076,0.995,2.875
		c0.354,0.458,0.666,1.059,0.136,1.759c-0.65,0.86-1.131,1.876-1.131,3.039c0,2.57,2.083,4.652,4.651,4.652
		c1.494,0,2.822-0.705,3.672-1.801c0.586-0.754,2.16-2.717,5.133-2.717s4.87,0,4.87,0s1.895,0,4.868,0
		c2.974,0,4.548,1.963,5.133,2.717c0.85,1.096,2.178,1.801,3.672,1.801c2.57,0,4.652-2.082,4.652-4.652
		c0-1.162-0.481-2.178-1.131-3.039C50.582,33.912,50.894,33.312,51.247,32.854z"/>
</g>
</svg>
