<?xml version="1.0" encoding="utf-8"?>
<!-- Generator: Adobe Illustrator 16.0.0, SVG Export Plug-In . SVG Version: 6.00 Build 0)  -->
<!DOCTYPE svg PUBLIC "-//W3C//DTD SVG 1.1//EN" "http://www.w3.org/Graphics/SVG/1.1/DTD/svg11.dtd">
<svg version="1.1" id="Lager_1" xmlns="http://www.w3.org/2000/svg" xmlns:xlink="http://www.w3.org/1999/xlink" x="0px" y="0px"
	 viewBox="0 0 79.37 79.37" enable-background="new 0 0 79.37 79.37" xml:space="preserve">
<g>
	<g>
		<g>
			<path fill="#7DC8F0" d="M40.44,48.783C39.839,47.582,24.317,16.54,24.317,16.54c-0.309-0.619-0.816-0.619-1.125,0L8.231,46.461
				c-0.309,0.619-0.562,1.197-0.562,2.051v18.154c0,0.691,0.565,1.258,1.257,1.258c0,0,31.373,0,31.513,0V48.783z"/>
			<g>
				<path fill="#009FE4" d="M42.27,52.217c-0.092-0.109-0.404-0.57-0.602-0.965c-0.344-0.688-1.08-2.17-1.225-2.459
					c0,0-0.003-0.008-0.004-0.01v19.141c0.306,0,30.282,0,30.282,0c0.691,0,1.257-0.566,1.257-1.258c0,0,0-7.982,0-12.707
					c0-0.053,0.03-0.162,0.169-0.162H45.62C44.272,53.797,43.066,53.182,42.27,52.217z"/>
			</g>
		</g>
	</g>
	<path fill="#0A4682" d="M23.964,48.602c-4.219,0-7.638,3.418-7.638,7.637v11.686h15.276V56.238
		C31.602,52.02,28.182,48.602,23.964,48.602z"/>
	<path fill="#0A4682" d="M73.86,53.797c2.726,0,3.658-2.486,2.391-4.945c-1.111-2.158-18.168-36.281-18.168-36.281
		c-0.309-0.618-1.128-1.125-1.82-1.125H23.057c-0.691,0-1.511,0.507-1.819,1.125c0,0-16.318,32.644-17.989,35.982
		c-1.773,3.543,0.233,5.238,2.126,5.238c0.873,0,1.968,0,1.968,0c0.18,0.002,0.327,0.123,0.327,0.266c0-0.537,0-5.213,0-5.213
		c0-0.691,0.253-1.764,0.562-2.383l14.96-29.921c0.31-0.619,0.816-0.619,1.125,0c0,0,16.125,32.25,16.126,32.253
		c0.145,0.289,0.881,1.771,1.225,2.459c0.197,0.395,0.51,0.855,0.602,0.965c0.796,0.965,2.002,1.58,3.35,1.58"/>
	<path fill="#009FE4" d="M31.849,42.205c0.28-0.363,0.453-0.814,0.453-1.309c0-1.168-0.948-2.117-2.116-2.117
		c-0.64,0-1.212,0.285-1.6,0.732c-0.084,0.098-0.533,0.787-0.972,1.018c-0.333,0.174-0.796,0.307-1.446,0.307
		c-1.134,0-3.274,0-4.409,0c-0.649,0-1.114-0.133-1.446-0.307c-0.438-0.23-0.886-0.92-0.971-1.018
		c-0.387-0.447-0.96-0.732-1.6-0.732c-1.169,0-2.117,0.949-2.117,2.117c0,0.494,0.174,0.945,0.454,1.309
		c0.161,0.209,0.303,0.48,0.062,0.801c-0.295,0.391-0.516,0.854-0.516,1.381c0,1.17,0.948,2.117,2.117,2.117
		c0.679,0,1.285-0.32,1.67-0.82c0.267-0.342,0.982-1.234,2.335-1.234c1.352,0,3.078,0,4.431,0c1.353,0,2.069,0.893,2.335,1.234
		c0.388,0.5,0.991,0.82,1.671,0.82c1.168,0,2.116-0.947,2.116-2.117c0-0.527-0.219-0.99-0.515-1.381
		C31.546,42.686,31.688,42.414,31.849,42.205z"/>
</g>
</svg>
