<?xml version="1.0" encoding="utf-8"?>
<!-- Generator: Adobe Illustrator 16.0.0, SVG Export Plug-In . SVG Version: 6.00 Build 0)  -->
<!DOCTYPE svg PUBLIC "-//W3C//DTD SVG 1.1//EN" "http://www.w3.org/Graphics/SVG/1.1/DTD/svg11.dtd">
<svg version="1.1" id="Lager_1" xmlns="http://www.w3.org/2000/svg" xmlns:xlink="http://www.w3.org/1999/xlink" x="0px" y="0px"
	 viewBox="0 0 51.024 51.023" enable-background="new 0 0 51.024 51.023" xml:space="preserve">
<g>
	<path fill="#E6007E" d="M48.163,12.292l-9.461-9.438c-0.324-0.321-0.854-0.321-1.178,0.001L4.536,35.844
		c-0.322,0.324-0.322,0.853,0.003,1.175l1.849,1.849c-0.16,0.036-0.32,0.057-0.479,0.109c-2.529,0.857-3.891,3.613-3.034,6.143
		c0.855,2.53,3.611,3.893,6.141,3.036c1.656-0.562,2.795-1.937,3.156-3.523l1.826,1.821c0.324,0.323,0.855,0.323,1.179,0.001
		l32.989-32.988C48.487,13.145,48.487,12.613,48.163,12.292z M8.196,45.736c-1.197,0.403-2.498-0.24-2.905-1.436
		c-0.403-1.197,0.238-2.499,1.436-2.905c1.2-0.406,2.503,0.237,2.908,1.436C10.04,44.028,9.395,45.333,8.196,45.736z"/>
	<path fill="#8C005A" d="M17.651,32.981c0.258,0,0.471,0.212,0.471,0.47v4.196c0,0.256-0.213,0.468-0.471,0.468h-4.193
		c-0.261,0-0.47-0.212-0.47-0.468v-4.196c0-0.258,0.209-0.47,0.47-0.47H17.651z"/>
	<path fill="#8C005A" d="M28.34,22.296c0.258,0,0.467,0.209,0.467,0.467v4.197c0,0.258-0.209,0.47-0.467,0.47h-4.197
		c-0.258,0-0.467-0.212-0.469-0.47l0.002-4.197c0-0.258,0.209-0.467,0.467-0.467H28.34z"/>
	<path fill="#8C005A" d="M39.026,11.607c0.258,0,0.469,0.212,0.469,0.47v4.196c0,0.257-0.211,0.47-0.469,0.468h-4.195
		c-0.258,0-0.469-0.211-0.469-0.468v-4.196c0-0.258,0.211-0.47,0.469-0.47H39.026z"/>
</g>
</svg>
