<?xml version="1.0" encoding="utf-8"?>
<!-- Generator: Adobe Illustrator 16.0.0, SVG Export Plug-In . SVG Version: 6.00 Build 0)  -->
<!DOCTYPE svg PUBLIC "-//W3C//DTD SVG 1.1//EN" "http://www.w3.org/Graphics/SVG/1.1/DTD/svg11.dtd">
<svg version="1.1" id="Lager_1" xmlns="http://www.w3.org/2000/svg" xmlns:xlink="http://www.w3.org/1999/xlink" x="0px" y="0px"
	 viewBox="0 0 800 800" enable-background="new 0 0 800 800" xml:space="preserve">
<g>
	<g>
		<path fill="#FFE57E" d="M556.005,206.841c22.655-38.317,44.073-82.16,93.824-82.16c58.327,0,65.119,23.091,83.292,44.383
			c10.038,11.763,21.896,15.908,42.451,19.241c24.218,3.928,29.223,22.841,19.958,43.962c-9.339,21.325-33.006,33.547-63.244,33.547
			c-17.486,0-35.434,4.376-49.72,22.115l-129.703-75.812C553.92,210.359,554.963,208.606,556.005,206.841z"/>
		<path fill="#FFE57E" d="M78.224,194.038c33.193-3.422,36.046,23.188,10.807,34.121c-34.035,14.742-40.335,39.113-40.335,59.93
			c0,20.805,14.544,50.766,54.492,50.766c53.213,0,69.724-48.747,187.461-48.747c63.617,0,79.227,0,142.857,0
			c43.469,0,69.862-14.769,89.552-35.9l0,0l137.734,80.5c0.193,0.111,0.401,0.192,0.611,0.26
			c-12.721,40.112-29.299,90.043-50.628,117.078c-26.917,34.079-42.69,46.71-47.947,88.014c-5.273,41.304-3.844,48.766-4.022,66.298
			c-0.103,11.558,3.068,18.364,13.688,24.636c7.836,4.633,15.609,14.15,11.156,28.435c-3.484,11.156-13.882,15.893-27.139,15.893
			c-7.135,0-8.46,0-11.006,0c-24.311,0-35.511-15.252-39.16-43.017c-5.139-39.04-8.088-70.943-13.063-96.056
			c-4.958-25.129-20.435-38.922-66.71-38.922c-52.534,0-72.262,0-100.019,0c-33.841,0-61.732,16.19-78.906,47.037
			c-18.053,32.398-23.869,44.954-23.869,69.1c0,10.828,4.461,14.344,9.324,18.945c4.87,4.617,10.091,11.365,9.585,21.018
			c-0.484,9.235-8.073,21.895-21.106,21.895c-5.958,0-10.561,0-12.944,0c-27.652,0-35.413-28.004-35.413-51.759
			c0-12.959,1.385-31.966,2.436-42.406c1.668-16.549,2.503-32.754-4.319-57.524c-9.615-34.868-14.501-52.608-20.005-74.013
			c-6.918-26.872-7.521-43.333-51.081-50.751C46.438,389.691,0.115,359.156,0.115,289.754
			C0.115,231.686,37.263,198.262,78.224,194.038z"/>
	</g>
	<path fill="#B0CB0B" d="M523.057,254.207l137.734,80.5c1.355,0.789,3.111,0.327,3.902-1.028l4.424-7.544
		c2.592,4.967,7.567,8.534,13.554,8.959c0.358,0.022,0.701,0.022,1.059,0.022l1.431,5.459c-0.866,0.089-1.803,0.193-2.742,0.298
		c-2.13,0.23-3.708-0.038-4.855-0.491c-1.52-0.604-3.247-2.703-3.545-2.987c-1.445-1.34-3.426-2.069-5.526-1.839
		c-3.843,0.417-6.613,3.864-6.196,7.708c0.179,1.616,0.91,3.039,1.951,4.126c0.612,0.632,1.161,1.475,0.492,2.614
		c-0.836,1.385-1.385,2.986-1.19,4.721c0.415,3.844,3.856,6.606,7.699,6.197c2.233-0.246,4.096-1.513,5.199-3.285
		c0.744-1.221,2.77-4.408,7.225-4.893c4.438-0.491,7.282-0.797,7.282-0.797s2.829-0.306,7.27-0.789
		c4.438-0.484,7.104,2.197,8.103,3.232c1.459,1.496,3.544,2.33,5.778,2.093c3.844-0.418,6.629-3.858,6.196-7.709
		c-0.179-1.735-1.071-3.172-2.175-4.349c-0.907-0.969-0.536-1.914-0.09-2.659c0.79-1.296,1.193-2.831,1.029-4.454
		c-0.418-3.835-3.873-6.613-7.701-6.195c-2.114,0.223-3.888,1.362-5.005,2.979c-0.237,0.343-1.46,2.771-2.815,3.679
		c-1.027,0.7-2.517,1.296-4.646,1.526c-0.954,0.098-1.878,0.201-2.756,0.299l-1.788-6.83c4.514-2.695,7.686-7.477,8.071-13.114
		c0.658-9.153-6.269-17.122-15.414-17.763c-0.582-0.037-1.132,0.037-1.699,0.045l4.484-7.648c0.789-1.355,0.343-3.113-1.014-3.898
		l-137.733-80.505c-1.355-0.788-3.113-0.334-3.917,1.021l-23.101,39.401C521.241,251.659,521.703,253.409,523.057,254.207z
		 M677.295,318.031c0.252-3.611,3.396-6.338,6.999-6.084c3.621,0.246,6.348,3.396,6.093,7.008c-0.074,1.043-0.417,1.996-0.907,2.845
		l-0.746-2.815c-0.625-2.391-3.068-3.813-5.451-3.194c-2.384,0.625-3.812,3.075-3.188,5.458l0.805,3.113
		C678.604,323.2,677.101,320.75,677.295,318.031z"/>
	<path fill="#FFB900" d="M677.622,186.338c0.044,15.814,5.317,46.886-21.3,53.604c-25.5,6.435-44.774-11.86-44.043-54.296
		c0.341-20.957,14.521-36.653,35.687-35.558C660.762,150.738,677.517,156.332,677.622,186.338z"/>
	<path fill="#994916" d="M701.782,186.349c0,7.005,5.659,12.676,12.676,12.676c7.016,0,12.689-5.671,12.689-12.676
		c0-7.015-5.674-12.686-12.689-12.686C707.441,173.663,701.782,179.334,701.782,186.349z"/>
</g>
</svg>
