<?xml version="1.0" encoding="utf-8"?>
<!-- Generator: Adobe Illustrator 16.0.0, SVG Export Plug-In . SVG Version: 6.00 Build 0)  -->
<!DOCTYPE svg PUBLIC "-//W3C//DTD SVG 1.1//EN" "http://www.w3.org/Graphics/SVG/1.1/DTD/svg11.dtd">
<svg version="1.1" id="Lager_1" xmlns="http://www.w3.org/2000/svg" xmlns:xlink="http://www.w3.org/1999/xlink" x="0px" y="0px"
	 viewBox="0 0 104.872 104.882" enable-background="new 0 0 104.872 104.882"
	 xml:space="preserve">
<g>
	<g>
		<path fill="#E6007E" d="M72.892,27.113c2.971-5.024,5.779-10.773,12.303-10.773c7.648,0,8.539,3.028,10.922,5.82
			c1.316,1.542,2.871,2.086,5.566,2.523c3.176,0.515,3.832,2.995,2.617,5.765c-1.225,2.796-4.328,4.399-8.293,4.399
			c-2.293,0-4.646,0.574-6.52,2.9L72.48,27.805C72.619,27.574,72.755,27.344,72.892,27.113z"/>
		<path fill="#E6007E" d="M10.242,25.434c4.353-0.449,4.727,3.041,1.417,4.474c-4.463,1.933-5.289,5.129-5.289,7.858
			c0,2.728,1.907,6.657,7.146,6.657c6.978,0,9.143-6.392,24.581-6.392c8.342,0,10.389,0,18.732,0c5.7,0,9.161-1.937,11.743-4.708
			l0,0l18.061,10.556c0.025,0.015,0.053,0.025,0.08,0.034c-1.668,5.26-3.842,11.807-6.639,15.352
			c-3.529,4.469-5.598,6.125-6.287,11.541c-0.691,5.416-0.504,6.395-0.527,8.693c-0.014,1.516,0.402,2.408,1.795,3.23
			c1.027,0.607,2.047,1.855,1.463,3.729c-0.457,1.463-1.82,2.084-3.559,2.084c-0.936,0-1.109,0-1.443,0
			c-3.188,0-4.656-2-5.135-5.641c-0.674-5.119-1.061-9.303-1.713-12.596c-0.65-3.295-2.68-5.104-8.748-5.104
			c-6.889,0-9.476,0-13.115,0c-4.438,0-8.095,2.123-10.347,6.168c-2.367,4.248-3.13,5.895-3.13,9.061
			c0,1.42,0.585,1.881,1.223,2.484c0.639,0.605,1.323,1.49,1.257,2.756c-0.063,1.211-1.059,2.871-2.768,2.871
			c-0.781,0-1.385,0-1.697,0c-3.626,0-4.644-3.672-4.644-6.787c0-1.699,0.182-4.191,0.319-5.561c0.219-2.17,0.328-4.295-0.566-7.543
			c-1.261-4.572-1.901-6.898-2.623-9.705c-0.907-3.523-0.986-5.682-6.698-6.655C6.074,51.089,0,47.085,0,37.985
			C0,30.371,4.871,25.988,10.242,25.434z"/>
	</g>
	<path fill="#8C005A" d="M68.572,33.324l18.061,10.556c0.178,0.104,0.408,0.043,0.512-0.135l0.58-0.989
		c0.34,0.651,0.992,1.119,1.777,1.175c0.047,0.003,0.092,0.003,0.139,0.003l0.188,0.716c-0.113,0.012-0.236,0.025-0.359,0.039
		c-0.279,0.03-0.486-0.005-0.637-0.064c-0.199-0.079-0.426-0.354-0.465-0.392c-0.189-0.176-0.449-0.271-0.725-0.241
		c-0.504,0.055-0.867,0.507-0.813,1.011c0.023,0.212,0.119,0.398,0.256,0.541c0.08,0.083,0.152,0.193,0.064,0.343
		c-0.109,0.182-0.182,0.392-0.156,0.619c0.055,0.504,0.506,0.866,1.01,0.813c0.293-0.032,0.537-0.198,0.682-0.431
		c0.098-0.16,0.363-0.578,0.947-0.642c0.582-0.064,0.955-0.104,0.955-0.104s0.371-0.04,0.953-0.104s0.932,0.288,1.063,0.424
		c0.191,0.196,0.465,0.306,0.758,0.274c0.504-0.055,0.869-0.506,0.813-1.011c-0.023-0.228-0.141-0.416-0.285-0.57
		c-0.119-0.127-0.07-0.251-0.012-0.349c0.104-0.17,0.156-0.371,0.135-0.584c-0.055-0.503-0.508-0.867-1.01-0.813
		c-0.277,0.029-0.51,0.179-0.656,0.391c-0.031,0.045-0.191,0.363-0.369,0.482c-0.135,0.092-0.33,0.17-0.609,0.2
		c-0.125,0.013-0.246,0.026-0.361,0.039l-0.234-0.896c0.592-0.354,1.008-0.98,1.059-1.72c0.086-1.2-0.822-2.245-2.021-2.329
		c-0.076-0.005-0.148,0.005-0.223,0.006l0.588-1.003c0.104-0.178,0.045-0.408-0.133-0.511L71.98,27.512
		c-0.178-0.104-0.408-0.044-0.514,0.134l-3.029,5.167C68.333,32.99,68.394,33.219,68.572,33.324z M88.796,41.693
		c0.033-0.474,0.445-0.831,0.918-0.798c0.475,0.032,0.832,0.445,0.799,0.919c-0.01,0.137-0.055,0.262-0.119,0.373l-0.098-0.369
		c-0.082-0.313-0.402-0.5-0.715-0.419c-0.313,0.082-0.5,0.403-0.418,0.716l0.105,0.408C88.968,42.371,88.771,42.049,88.796,41.693z"
		/>
	<path fill="#FAD2E6" d="M88.839,24.424c0.006,2.074,0.697,6.148-2.793,7.029c-3.344,0.844-5.871-1.555-5.775-7.12
		c0.045-2.748,1.904-4.806,4.68-4.663C86.628,19.756,88.826,20.49,88.839,24.424z"/>
	<circle fill="#FAD2E6" cx="93.67" cy="24.426" r="1.663"/>
</g>
</svg>
