<?xml version="1.0" encoding="utf-8"?>
<!-- Generator: Adobe Illustrator 16.0.0, SVG Export Plug-In . SVG Version: 6.00 Build 0)  -->
<!DOCTYPE svg PUBLIC "-//W3C//DTD SVG 1.1//EN" "http://www.w3.org/Graphics/SVG/1.1/DTD/svg11.dtd">
<svg version="1.1" id="Lager_1" xmlns="http://www.w3.org/2000/svg" xmlns:xlink="http://www.w3.org/1999/xlink" x="0px" y="0px"
	 viewBox="0 0 59.528 59.528" enable-background="new 0 0 59.528 59.528" xml:space="preserve">
<g>
	<g>
		<path fill="#E6007E" d="M22.462,50.875c0.221-0.391,0.322-0.854,0.25-1.33c-0.168-1.135-1.224-1.914-2.355-1.746
			c-0.62,0.094-1.134,0.451-1.444,0.941c-0.066,0.107-0.401,0.84-0.792,1.125c-0.299,0.219-0.728,0.414-1.356,0.506
			c-1.098,0.166-2.136,0.32-2.136,0.32s-1.035,0.154-2.134,0.318c-0.629,0.096-1.099,0.035-1.445-0.088
			c-0.458-0.158-0.992-0.76-1.09-0.844c-0.438-0.377-1.033-0.57-1.653-0.479c-1.135,0.17-1.912,1.225-1.744,2.357
			c0.071,0.477,0.305,0.891,0.628,1.201c0.186,0.18,0.364,0.424,0.176,0.768c-0.229,0.42-0.376,0.9-0.298,1.414
			c0.168,1.131,1.224,1.912,2.354,1.74c0.659-0.096,1.198-0.496,1.5-1.033c0.208-0.371,0.773-1.34,2.084-1.537
			c1.312-0.193,2.145-0.318,2.145-0.318s0.838-0.125,2.148-0.322c1.309-0.195,2.133,0.566,2.439,0.859
			c0.447,0.428,1.077,0.652,1.735,0.553c1.133-0.17,1.914-1.223,1.745-2.355c-0.078-0.512-0.356-0.928-0.699-1.266
			C22.24,51.386,22.338,51.101,22.462,50.875z"/>
	</g>
	<g>
		<path fill="#E6007E" d="M14.631,53.039c-0.73,0-1.325-0.594-1.325-1.324V44.57c0-0.732,0.595-1.326,1.325-1.326
			c0.731,0,1.324,0.594,1.324,1.326v7.145C15.956,52.445,15.363,53.039,14.631,53.039z"/>
	</g>
	<path fill="#E6007E" d="M55.321,12.566l-9.459-9.438c-0.325-0.322-0.856-0.322-1.179,0.002l-32.987,32.99
		c-0.322,0.322-0.322,0.852,0.001,1.174l1.851,1.85c-0.159,0.035-0.321,0.057-0.481,0.109c-2.527,0.855-3.89,3.611-3.034,6.141
		c0.858,2.531,3.614,3.895,6.144,3.037c1.653-0.563,2.795-1.936,3.156-3.523l1.824,1.82c0.326,0.324,0.856,0.324,1.179,0.002
		l32.988-32.989C55.644,13.42,55.647,12.889,55.321,12.566z M15.355,46.011c-1.195,0.404-2.498-0.24-2.904-1.436
		c-0.403-1.197,0.237-2.5,1.435-2.904c1.199-0.404,2.504,0.236,2.91,1.434C17.201,44.304,16.552,45.607,15.355,46.011z"/>
	<path fill="#7DC8F0" d="M24.812,33.257c0.258,0,0.468,0.213,0.468,0.471v4.195c0,0.258-0.21,0.469-0.468,0.469h-4.196
		c-0.258,0-0.468-0.211-0.468-0.469v-4.195c0-0.258,0.21-0.471,0.468-0.471H24.812z"/>
	<path fill="#7DC8F0" d="M35.498,22.572c0.261,0,0.468,0.209,0.468,0.467v4.195c0,0.258-0.21,0.471-0.468,0.471h-4.196
		c-0.257,0-0.468-0.213-0.468-0.471v-4.195c0-0.258,0.211-0.467,0.468-0.467H35.498z"/>
	<path fill="#7DC8F0" d="M46.185,11.883c0.257,0,0.469,0.213,0.469,0.47v4.196c0,0.258-0.212,0.468-0.469,0.468H41.99
		c-0.257,0-0.469-0.21-0.469-0.468v-4.196c0-0.257,0.212-0.47,0.469-0.47H46.185z"/>
</g>
</svg>
