<?xml version="1.0" encoding="utf-8"?>
<!-- Generator: Adobe Illustrator 16.0.0, SVG Export Plug-In . SVG Version: 6.00 Build 0)  -->
<!DOCTYPE svg PUBLIC "-//W3C//DTD SVG 1.1//EN" "http://www.w3.org/Graphics/SVG/1.1/DTD/svg11.dtd">
<svg version="1.1" id="Lager_1" xmlns="http://www.w3.org/2000/svg" xmlns:xlink="http://www.w3.org/1999/xlink" x="0px" y="0px"
	 viewBox="0 0 71.66 71.66" enable-background="new 0 0 71.66 71.66" xml:space="preserve">
<path fill="#FFB900" d="M69.707,33.95c1.201-1.56,1.947-3.497,1.947-5.621c0-5.021-4.072-9.093-9.094-9.093
	c-2.75,0-5.209,1.221-6.875,3.148c-0.361,0.419-2.289,3.381-4.172,4.368c-1.43,0.748-3.424,1.315-6.213,1.315
	c-4.874,0-9.47,0-9.47,0s-4.598,0-9.472,0c-2.789,0-4.785-0.567-6.213-1.315c-1.883-0.987-3.81-3.949-4.171-4.368
	c-1.666-1.928-4.126-3.148-6.875-3.148c-5.021,0-9.093,4.071-9.093,9.093c0,2.124,0.745,4.062,1.945,5.621
	c0.692,0.896,1.301,2.069,0.266,3.439c-1.271,1.679-2.211,3.669-2.211,5.941c0,5.021,4.072,9.094,9.093,9.094
	c2.92,0,5.517-1.379,7.179-3.52c1.145-1.475,4.221-5.313,10.032-5.313s9.52,0,9.52,0s3.706,0,9.519,0
	c5.811,0,8.887,3.838,10.033,5.313c1.66,2.141,4.256,3.52,7.178,3.52c5.021,0,9.094-4.072,9.094-9.094
	c0-2.271-0.943-4.262-2.211-5.941C68.406,36.019,69.015,34.846,69.707,33.95z"/>
</svg>
