<?xml version="1.0" encoding="utf-8"?>
<!-- Generator: Adobe Illustrator 16.0.0, SVG Export Plug-In . SVG Version: 6.00 Build 0)  -->
<!DOCTYPE svg PUBLIC "-//W3C//DTD SVG 1.1//EN" "http://www.w3.org/Graphics/SVG/1.1/DTD/svg11.dtd">
<svg version="1.1" id="Lager_1" xmlns="http://www.w3.org/2000/svg" xmlns:xlink="http://www.w3.org/1999/xlink" x="0px" y="0px"
	 viewBox="0 0 79.37 79.37" enable-background="new 0 0 79.37 79.37" xml:space="preserve">
<g>
	<g>
		<g>
			<path fill="#FFE57E" d="M40.438,48.783c-0.6-1.2-16.122-32.243-16.122-32.243c-0.31-0.619-0.816-0.619-1.124,0L8.232,46.462
				c-0.311,0.619-0.563,1.197-0.563,2.051v18.154c0,0.69,0.565,1.257,1.257,1.257c0,0,31.374,0,31.512,0V48.783z"/>
			<g>
				<path fill="#FFB900" d="M42.269,52.218c-0.09-0.109-0.402-0.571-0.6-0.965c-0.344-0.688-1.08-2.171-1.227-2.46
					c0,0-0.002-0.007-0.004-0.01v19.141c0.307,0,30.283,0,30.283,0c0.691,0,1.258-0.566,1.258-1.257c0,0,0-7.983,0-12.707
					c0-0.054,0.029-0.162,0.168-0.162H45.62C44.272,53.798,43.065,53.183,42.269,52.218z"/>
			</g>
		</g>
	</g>
	<path fill="#8C005A" d="M23.963,48.602c-4.218,0-7.638,3.419-7.638,7.637v11.686h15.275V56.238
		C31.601,52.021,28.182,48.602,23.963,48.602z"/>
	<path fill="#8C005A" d="M73.858,53.798c2.727,0,3.66-2.487,2.393-4.945c-1.111-2.158-18.168-36.281-18.168-36.281
		c-0.311-0.618-1.129-1.125-1.82-1.125H23.056c-0.691,0-1.51,0.507-1.819,1.125c0,0-16.318,32.644-17.988,35.981
		c-1.773,3.543,0.233,5.238,2.126,5.238c0.872,0,1.967,0,1.967,0c0.181,0.003,0.328,0.123,0.328,0.267c0-0.538,0-5.213,0-5.213
		c0-0.691,0.252-1.764,0.563-2.383L23.193,16.54c0.308-0.619,0.814-0.619,1.124,0c0,0,16.125,32.25,16.125,32.253
		c0.146,0.289,0.883,1.771,1.227,2.46c0.197,0.394,0.51,0.855,0.6,0.965c0.797,0.965,2.004,1.58,3.352,1.58"/>
	<path fill="#FFB900" d="M31.848,42.205c0.28-0.363,0.454-0.813,0.454-1.309c0-1.168-0.948-2.116-2.117-2.116
		c-0.64,0-1.212,0.284-1.601,0.732c-0.084,0.098-0.533,0.787-0.971,1.017c-0.333,0.174-0.797,0.307-1.446,0.307
		c-1.135,0-3.275,0-4.408,0c-0.649,0-1.114-0.133-1.447-0.307c-0.438-0.229-0.886-0.919-0.972-1.017
		c-0.386-0.448-0.959-0.732-1.6-0.732c-1.168,0-2.115,0.948-2.115,2.116c0,0.495,0.173,0.945,0.452,1.309
		c0.161,0.209,0.304,0.481,0.062,0.801c-0.295,0.391-0.514,0.854-0.514,1.382c0,1.17,0.947,2.116,2.115,2.116
		c0.681,0,1.285-0.319,1.672-0.819c0.267-0.342,0.983-1.235,2.336-1.235c1.352,0,3.077,0,4.431,0c1.353,0,2.068,0.894,2.335,1.235
		c0.387,0.5,0.991,0.819,1.671,0.819c1.169,0,2.117-0.946,2.117-2.116c0-0.528-0.221-0.991-0.516-1.382
		C31.546,42.687,31.688,42.414,31.848,42.205z"/>
</g>
</svg>
