<?xml version="1.0" encoding="utf-8"?>
<!-- Generator: Adobe Illustrator 16.0.0, SVG Export Plug-In . SVG Version: 6.00 Build 0)  -->
<!DOCTYPE svg PUBLIC "-//W3C//DTD SVG 1.1//EN" "http://www.w3.org/Graphics/SVG/1.1/DTD/svg11.dtd">
<svg version="1.1" id="Lager_1" xmlns="http://www.w3.org/2000/svg" xmlns:xlink="http://www.w3.org/1999/xlink" x="0px" y="0px"
	 viewBox="0 0 88.385 88.384" enable-background="new 0 0 88.385 88.384" xml:space="preserve">
<g>
	<g>
		<path fill="#FFB900" d="M66.319,18.342c-0.956-1.363-3.1-2.479-4.765-2.479H3.03c-1.666,0-3.028,1.362-3.028,3.026v34.553v8.115
			c0,1.666,1.362,3.027,3.028,3.027c0,0,9.683,0,10.005,0s0.368-0.289,0.374-0.436c0.229-5.154,4.477-9.279,9.668-9.279
			c5.213,0,9.478,4.164,9.669,9.352c0.004,0.121,0.041,0.363,0.302,0.363s9.695,0,9.695,0h11.074c0.832,0,1.93,0,3.028,0V51.928
			v-2.424V33.806c0-0.832,0.682-1.515,1.515-1.515h17.727L66.319,18.342z"/>
		<path fill="#7DC8F0" d="M86.648,47.374L76.087,32.291H58.36c-0.833,0-1.515,0.683-1.515,1.515v15.699v2.424v12.656
			c1.097,0,2.193,0,3.027,0c0,0,6.117,0,6.358,0s0.331-0.23,0.334-0.344c0.183-5.197,4.451-9.371,9.672-9.371
			c5.117,0,9.319,4.01,9.652,9.066c0.006,0.09,0.008,0.178,0.014,0.268c0.016,0.232,0.149,0.301,0.293,0.26
			c0.173-0.051,0.299-0.1,0.462-0.176c1.017-0.488,1.725-1.529,1.725-2.73v-8.676C88.383,51.217,87.602,48.739,86.648,47.374z"/>
	</g>
	<ellipse fill-rule="evenodd" clip-rule="evenodd" fill="#0A4682" cx="23.077" cy="64.585" rx="7.896" ry="7.937"/>
	<ellipse fill-rule="evenodd" clip-rule="evenodd" fill="#FFFFFF" cx="23.077" cy="64.584" rx="3.947" ry="3.969"/>
	<ellipse fill-rule="evenodd" clip-rule="evenodd" fill="#0A4682" cx="76.237" cy="64.585" rx="7.897" ry="7.937"/>
	<ellipse fill-rule="evenodd" clip-rule="evenodd" fill="#FFFFFF" cx="76.237" cy="64.584" rx="3.949" ry="3.969"/>
	<path fill="#FFFFFF" d="M80.249,45.831c0.479,0.682,0.188,1.238-0.643,1.238H62.443c-0.832,0-1.513-0.682-1.513-1.514v-7.533
		c0-0.834,0.681-1.515,1.513-1.515h9.752c0.832,0,1.904,0.558,2.382,1.24L80.249,45.831z"/>
	<path fill="#C8E6FA" d="M25.034,41.213c0.005,0.83-0.674,1.514-1.506,1.514H6.367c-0.833,0-1.514-0.684-1.514-1.514v-7.537
		c0-0.832,0.681-1.514,1.514-1.514h17.109c0.833,0,1.518,0.682,1.521,1.514L25.034,41.213z"/>
	<g>
		<path fill="#0A4682" d="M4.854,33.677v3.306l3.809,1.121c0.052,0.014,0.103,0.035,0.148,0.059c2.308-1.563,2.858-4.612,2.99-6
			H6.367C5.534,32.163,4.854,32.845,4.854,33.677z"/>
		<path fill="#0A4682" d="M4.854,38.838v2.375c0,0.83,0.681,1.514,1.514,1.514h2.209c-0.042-1.338-0.229-2.283-0.422-2.916
			L4.854,38.838z"/>
		<path fill="#0A4682" d="M21.077,38.163c0.049-0.023,0.096-0.045,0.15-0.059l3.787-1.115l-0.017-3.312
			c-0.004-0.832-0.688-1.514-1.521-1.514h-5.39C18.219,33.551,18.77,36.6,21.077,38.163z"/>
		<path fill="#0A4682" d="M25.034,41.213l-0.01-2.371l-3.29,0.969c-0.192,0.633-0.381,1.578-0.423,2.916h2.217
			C24.36,42.727,25.039,42.043,25.034,41.213z"/>
	</g>
	<path fill="#C8E6FA" d="M50.849,41.213c0.004,0.83-0.674,1.514-1.508,1.514H32.18c-0.832,0-1.514-0.684-1.514-1.514v-7.537
		c0-0.832,0.682-1.514,1.514-1.514h17.109c0.833,0,1.519,0.682,1.522,1.514L50.849,41.213z"/>
	<g>
		<path fill="#0A4682" d="M30.666,33.677v3.306l3.809,1.121c0.052,0.014,0.102,0.035,0.148,0.059c2.308-1.563,2.858-4.612,2.99-6
			H32.18C31.348,32.163,30.666,32.845,30.666,33.677z"/>
		<path fill="#0A4682" d="M30.666,38.838v2.375c0,0.83,0.682,1.514,1.514,1.514h2.21c-0.041-1.338-0.229-2.283-0.424-2.916
			L30.666,38.838z"/>
		<path fill="#0A4682" d="M46.891,38.163c0.047-0.023,0.097-0.045,0.147-0.059l3.79-1.115l-0.017-3.312
			c-0.004-0.832-0.689-1.514-1.522-1.514H43.9C44.031,33.551,44.582,36.6,46.891,38.163z"/>
		<path fill="#0A4682" d="M50.849,41.213l-0.012-2.371l-3.289,0.969c-0.193,0.633-0.38,1.578-0.423,2.916h2.216
			C50.175,42.727,50.853,42.043,50.849,41.213z"/>
	</g>
</g>
</svg>
