<?xml version="1.0" encoding="utf-8"?>
<!-- Generator: Adobe Illustrator 16.0.0, SVG Export Plug-In . SVG Version: 6.00 Build 0)  -->
<!DOCTYPE svg PUBLIC "-//W3C//DTD SVG 1.1//EN" "http://www.w3.org/Graphics/SVG/1.1/DTD/svg11.dtd">
<svg version="1.1" id="Lager_1" xmlns="http://www.w3.org/2000/svg" xmlns:xlink="http://www.w3.org/1999/xlink" x="0px" y="0px"
	 viewBox="0 0 98.164 98.164" enable-background="new 0 0 98.164 98.164" xml:space="preserve">
<g>
	<circle fill-rule="evenodd" clip-rule="evenodd" fill="#009FE4" cx="40.902" cy="68.59" r="8.793"/>
	<circle fill-rule="evenodd" clip-rule="evenodd" fill="#FFFFFF" cx="40.901" cy="68.59" r="4.396"/>
	<path fill="#FFB900" d="M12.693,20.781h56.15c6.984,0,12.699,5.714,12.699,12.699v17.212v5.2v9.28c0,0.309,0.252,0.563,0.561,0.563
		h8.693c0.309,0,0.563-0.254,0.563-0.563v-4.038c0-0.311-0.254-0.563-0.563-0.563h-0.902c-0.49,0-0.857-0.227-0.857-0.677v-0.491
		c0-0.531,0.314-0.814,0.857-0.814h2.195c0.885,0,1.252,0.679,1.252,1.327v10.406c0,0.31,0.238,0.479,0.529,0.379
		c0,0,0.385-0.132,0.893-0.132c1.881,0,3.406,1.526,3.406,3.407s-1.525,3.406-3.406,3.406c-1.645,0-3.016-1.165-3.336-2.716
		c-0.045-0.223-0.045-0.223-0.045-0.223c-0.014-0.259-0.023-0.721-0.023-1.029v-4.263c0-0.311-0.254-0.563-0.563-0.563h-9.254
		H68.843H52.239c-0.311,0-0.58-0.252-0.602-0.561c0,0-0.1-1.423-0.359-2.346c-1.273-4.533-5.443-7.868-10.376-7.868
		c-4.929,0-9.095,3.324-10.371,7.848c-0.265,0.931-0.366,2.366-0.366,2.366c-0.021,0.309-0.292,0.561-0.601,0.561h-11.17h-5.701
		c-6.982,0-12.698-5.713-12.698-12.698V33.479C-0.005,26.495,5.71,20.781,12.693,20.781z"/>
	<g>
		<path fill="#FFFFFF" d="M60.782,28.123h7.068c3.492,0,6.348,2.856,6.348,6.349v2.663v2.22c0,1.746-1.428,3.174-3.172,3.174h-3.176
			h-7.068c-1.746,0-3.174-1.428-3.174-3.174v-8.057C57.608,29.552,59.036,28.123,60.782,28.123z"/>
		<path fill="#FFFFFF" d="M13.687,28.123h11.362h6.255h6.253h10.811c1.746,0,3.174,1.429,3.174,3.175v8.057
			c0,1.746-1.428,3.174-3.174,3.174H37.557h-6.253h-6.255H13.687H10.52c-1.746,0-3.174-1.428-3.174-3.174v-2.048V34.3
			C7.437,30.887,10.252,28.123,13.687,28.123z"/>
	</g>
</g>
</svg>
