<?xml version="1.0" encoding="utf-8"?>
<!-- Generator: Adobe Illustrator 16.0.0, SVG Export Plug-In . SVG Version: 6.00 Build 0)  -->
<!DOCTYPE svg PUBLIC "-//W3C//DTD SVG 1.1//EN" "http://www.w3.org/Graphics/SVG/1.1/DTD/svg11.dtd">
<svg version="1.1" id="Lager_1" xmlns="http://www.w3.org/2000/svg" xmlns:xlink="http://www.w3.org/1999/xlink" x="0px" y="0px"
	 viewBox="0 0 98.164 98.164" enable-background="new 0 0 98.164 98.164" xml:space="preserve">
<g>
	<circle fill-rule="evenodd" clip-rule="evenodd" fill="#009FE4" cx="40.9" cy="68.59" r="8.793"/>
	<circle fill-rule="evenodd" clip-rule="evenodd" fill="#FFFFFF" cx="40.9" cy="68.59" r="4.396"/>
	<path fill="#E6007E" d="M12.692,20.781h56.151c6.983,0,12.697,5.714,12.697,12.699v17.212v5.199v9.281
		c0,0.309,0.253,0.563,0.563,0.563h8.692c0.309,0,0.561-0.254,0.561-0.563v-4.039c0-0.311-0.252-0.563-0.561-0.563h-0.902
		c-0.49,0-0.858-0.227-0.858-0.676v-0.492c0-0.531,0.314-0.814,0.858-0.814h2.195c0.885,0,1.25,0.68,1.25,1.328v10.406
		c0,0.309,0.24,0.479,0.532,0.379c0,0,0.382-0.133,0.892-0.133c1.881,0,3.407,1.527,3.407,3.408s-1.526,3.406-3.407,3.406
		c-1.645,0-3.016-1.166-3.335-2.717c-0.046-0.223-0.046-0.223-0.046-0.223c-0.014-0.258-0.025-0.721-0.025-1.029v-4.262
		c0-0.311-0.252-0.563-0.561-0.563h-9.255H68.843H52.239c-0.311,0-0.582-0.252-0.604-0.561c0,0-0.099-1.424-0.358-2.346
		c-1.271-4.533-5.442-7.869-10.377-7.869c-4.927,0-9.093,3.324-10.371,7.848c-0.263,0.932-0.364,2.367-0.364,2.367
		c-0.021,0.309-0.293,0.561-0.602,0.561h-11.17h-5.701c-6.982,0-12.697-5.713-12.697-12.699V33.479
		C-0.005,26.495,5.709,20.781,12.692,20.781z"/>
	<g>
		<path fill="#FFFFFF" d="M60.782,28.123h7.067c3.493,0,6.349,2.856,6.349,6.349v2.663v2.22c0,1.746-1.428,3.173-3.173,3.173h-3.176
			h-7.067c-1.746,0-3.174-1.427-3.174-3.173v-8.057C57.608,29.552,59.036,28.123,60.782,28.123z"/>
		<path fill="#FFFFFF" d="M13.686,28.123h11.362h6.255h6.253h10.812c1.746,0,3.174,1.429,3.174,3.175v8.057
			c0,1.746-1.428,3.173-3.174,3.173H37.556h-6.253h-6.255H13.686h-3.167c-1.745,0-3.175-1.427-3.175-3.173v-2.048V34.3
			C7.436,30.887,10.251,28.123,13.686,28.123z"/>
	</g>
</g>
</svg>
