<?xml version="1.0" encoding="utf-8"?>
<!-- Generator: Adobe Illustrator 16.0.0, SVG Export Plug-In . SVG Version: 6.00 Build 0)  -->
<!DOCTYPE svg PUBLIC "-//W3C//DTD SVG 1.1//EN" "http://www.w3.org/Graphics/SVG/1.1/DTD/svg11.dtd">
<svg version="1.1" id="Lager_1" xmlns="http://www.w3.org/2000/svg" xmlns:xlink="http://www.w3.org/1999/xlink" x="0px" y="0px"
	 viewBox="0 0 107.745 107.745" enable-background="new 0 0 107.745 107.745"
	 xml:space="preserve">
<g>
	<path fill-rule="evenodd" clip-rule="evenodd" fill="#009FE4" d="M69.683,69.966c-4.392,0-7.953,3.559-7.953,7.951
		c0,4.395,3.562,7.953,7.953,7.953c4.393,0,7.954-3.559,7.954-7.953C77.637,73.524,74.076,69.966,69.683,69.966"/>
	<path fill-rule="evenodd" clip-rule="evenodd" fill="#FFFFFF" d="M73.66,77.917c0,2.197-1.78,3.979-3.977,3.979
		s-3.976-1.781-3.976-3.979c0-2.195,1.779-3.977,3.976-3.977S73.66,75.722,73.66,77.917"/>
	<path fill-rule="evenodd" clip-rule="evenodd" fill="#009FE4" d="M12.94,69.966c-4.392,0-7.953,3.559-7.953,7.951
		c0,4.395,3.562,7.953,7.953,7.953c4.393,0,7.954-3.559,7.954-7.953C20.894,73.524,17.333,69.966,12.94,69.966"/>
	<path fill-rule="evenodd" clip-rule="evenodd" fill="#FFFFFF" d="M16.917,77.917c0,2.197-1.779,3.979-3.977,3.979
		c-2.195,0-3.976-1.781-3.976-3.979c0-2.195,1.78-3.977,3.976-3.977C15.137,73.94,16.917,75.722,16.917,77.917"/>
	<g>
		<g>
			<path fill="#FFB900" d="M103.169,39.918c-2.712-3.242-4.277-4.936-8.053-8.866c-6.515-6.788-8.147-9.178-18.048-9.178H63.181
				c-6.599,0-9.774,2.442-13.075,5.743c-2.14,2.14-3.483,3.483-5.256,5.255c-1.771,1.771-2.814,2.237-6.895,2.565
				c-7.802,0.631-11.768,2.451-14.149,6.136c1.072,0.749,1.776,1.993,1.776,3.402c0,2.193-1.701,3.984-3.855,4.136
				c-0.003,1.434,0.162,2.895,0.556,4.145l4.829-4.83c3.305-3.302,6.888-6.268,14.344-6.268h13.888
				c10.061,0,12.442,2.499,18.2,8.536c0.363,0.381,0.743,0.779,1.141,1.193c2.28,2.375,3.772,3.953,5.197,5.549h0.041
				c1.074,0,1.684-0.25,1.771-1.645c0,0,0.11-1.215,0.228-1.82c0.87-4.445,4.788-7.798,9.487-7.798c4.618,0,8.481,3.238,9.439,7.568
				c0.149,0.676,0.194,1.416,0.194,1.416c0.093,1.053,0.878,1.381,1.841,1.039c0,0,1.619-0.434,2.94-1.727
				c1.438-1.406,1.92-3.355,1.92-5.307C107.744,44.871,105.722,42.966,103.169,39.918z"/>
		</g>
		<path fill="#E6007E" d="M81.445,61.997c-2.714-3.242-4.278-4.936-8.055-8.869c-6.514-6.785-8.147-9.175-18.047-9.175H41.456
			c-6.598,0-9.775,2.443-13.076,5.744c-2.138,2.139-3.482,3.482-5.254,5.254c-1.773,1.773-2.815,2.238-6.896,2.566
			c-7.802,0.631-11.767,2.451-14.147,6.135c1.071,0.75,1.775,1.994,1.775,3.402c0,2.193-1.702,3.986-3.855,4.139
			c-0.003,1.475,0.17,2.986,0.592,4.264c0.357,1.082,1.002,1.672,1.002,1.672c0.828,0.791,1.712,0.305,1.745-0.529l0.128-0.629
			c0.902-4.406,4.8-7.719,9.472-7.719c5.34,0,9.668,4.328,9.668,9.666c0,1.17,0.527,1.598,1.818,1.598h33.771
			c1.073,0,1.684-0.25,1.771-1.645c0,0,0.109-1.215,0.228-1.818c0.869-4.447,4.788-7.801,9.487-7.801
			c4.619,0,8.481,3.238,9.439,7.57c0.149,0.674,0.192,1.414,0.192,1.414c0.094,1.053,0.88,1.381,1.842,1.041
			c0,0,1.621-0.436,2.94-1.727c1.44-1.408,1.92-3.357,1.92-5.309C86.017,66.948,83.996,65.046,81.445,61.997z"/>
	</g>
	<path fill="#F0A5C3" d="M3.857,67.054c0-1.408-0.704-2.652-1.775-3.4c-0.474,0.727-0.883,1.527-1.246,2.408
		c-0.498,1.203-0.83,3.135-0.834,5.129C2.155,71.038,3.857,69.247,3.857,67.054"/>
	<path fill="#FFFFFF" d="M47.981,50.165c0-1.072-0.879-1.953-1.952-1.953l-7.107,0.014c-2.354,0-4.228,0.957-5.586,2.314
		c0,0-3.596,3.91-4.878,5.373c-1.278,1.463-0.899,3.406,1.189,3.406h16.382c1.073,0,1.952-0.879,1.952-1.951V50.165z"/>
	<path fill="#FFFFFF" d="M51.921,50.548c0-1.074,0.868-2.088,1.929-2.256c0,0,3.83-0.607,8.019,1.352
		c5.077,2.379,6.02,7.75,6.02,7.75c0.236,1.047-0.45,1.906-1.523,1.906l-12.492,0.018c-1.072,0-1.951-0.875-1.951-1.949V50.548z"/>
	<g>
		<path fill-rule="evenodd" clip-rule="evenodd" fill="#009FE4" d="M91.409,47.886c-4.393,0-7.953,3.561-7.953,7.953
			s3.561,7.953,7.953,7.953s7.953-3.561,7.953-7.953S95.801,47.886,91.409,47.886"/>
		<path fill-rule="evenodd" clip-rule="evenodd" fill="#FFFFFF" d="M95.386,55.839c0,2.197-1.78,3.977-3.978,3.977
			c-2.196,0-3.976-1.779-3.976-3.977c0-2.195,1.779-3.977,3.976-3.977C93.606,51.862,95.386,53.644,95.386,55.839"/>
		<path fill="#FFE57E" d="M25.583,44.976c0-1.409-0.704-2.653-1.776-3.402c-0.471,0.728-0.882,1.529-1.246,2.409
			c-0.497,1.202-0.828,3.133-0.833,5.129C23.881,48.96,25.583,47.169,25.583,44.976"/>
		<path fill="#FFFFFF" d="M69.706,28.086c0-1.073-0.878-1.952-1.951-1.952l-7.107,0.013c-2.354,0-4.229,0.958-5.586,2.316
			c0,0-3.596,3.908-4.876,5.372c-1.281,1.464-0.901,3.406,1.187,3.406h16.383c1.073,0,1.951-0.878,1.951-1.952V28.086z"/>
		<path fill="#FFFFFF" d="M73.647,28.469c0-1.073,0.867-2.089,1.928-2.257c0,0,3.83-0.607,8.021,1.355
			c5.075,2.376,6.018,7.748,6.018,7.748c0.238,1.047-0.448,1.904-1.521,1.906L75.6,37.239c-1.074,0.002-1.953-0.875-1.953-1.949
			V28.469z"/>
	</g>
</g>
</svg>
