<?xml version="1.0" encoding="utf-8"?>
<!-- Generator: Adobe Illustrator 16.0.0, SVG Export Plug-In . SVG Version: 6.00 Build 0)  -->
<!DOCTYPE svg PUBLIC "-//W3C//DTD SVG 1.1//EN" "http://www.w3.org/Graphics/SVG/1.1/DTD/svg11.dtd">
<svg version="1.1" id="Lager_1" xmlns="http://www.w3.org/2000/svg" xmlns:xlink="http://www.w3.org/1999/xlink" x="0px" y="0px"
	 viewBox="0 0 70.866 70.866" enable-background="new 0 0 70.866 70.866" xml:space="preserve">
<g>
	<g>
		<path fill="#FFE57E" d="M42.218,5.945H4.141c-0.693,0-1.261,0.567-1.261,1.26v49.695c0,0.693,0.567,1.26,1.261,1.26h24.95v-7.072
			v-5.365v-3.225c0-1.51,1.234-2.746,2.745-2.746H43.48V7.206C43.48,6.512,42.913,5.945,42.218,5.945z M5.932,19.261H4.746
			c-0.408,0-0.741-0.332-0.741-0.741c0-0.408,0.333-0.74,0.741-0.74h1.187c0.408,0,0.741,0.332,0.741,0.74
			C6.673,18.929,6.34,19.261,5.932,19.261z M9.904,19.261H8.718c-0.409,0-0.742-0.332-0.742-0.741c0-0.408,0.333-0.74,0.742-0.74
			h1.186c0.41,0,0.741,0.332,0.741,0.74C10.645,18.929,10.314,19.261,9.904,19.261z M13.876,19.261h-1.186
			c-0.41,0-0.74-0.332-0.74-0.741c0-0.408,0.33-0.74,0.74-0.74h1.186c0.41,0,0.742,0.332,0.742,0.74
			C14.619,18.929,14.287,19.261,13.876,19.261z M17.85,19.261h-1.187c-0.408,0-0.741-0.332-0.741-0.741
			c0-0.408,0.333-0.74,0.741-0.74h1.187c0.408,0,0.741,0.332,0.741,0.74C18.591,18.929,18.258,19.261,17.85,19.261z M21.822,19.261
			h-1.186c-0.409,0-0.74-0.332-0.74-0.741c0-0.408,0.331-0.74,0.74-0.74h1.186c0.41,0,0.741,0.332,0.741,0.74
			C22.563,18.929,22.232,19.261,21.822,19.261z M25.794,19.261h-1.186c-0.41,0-0.74-0.332-0.74-0.741c0-0.408,0.33-0.74,0.74-0.74
			h1.186c0.41,0,0.74,0.332,0.74,0.74C26.535,18.929,26.205,19.261,25.794,19.261z M29.767,19.261h-1.186
			c-0.41,0-0.741-0.332-0.741-0.741c0-0.408,0.331-0.74,0.741-0.74h1.186c0.409,0,0.742,0.332,0.742,0.74
			C30.509,18.929,30.176,19.261,29.767,19.261z M33.74,19.261h-1.186c-0.409,0-0.742-0.332-0.742-0.741
			c0-0.408,0.333-0.74,0.742-0.74h1.186c0.41,0,0.741,0.332,0.741,0.74C34.481,18.929,34.15,19.261,33.74,19.261z M37.712,19.261
			h-1.186c-0.41,0-0.74-0.332-0.74-0.741c0-0.408,0.33-0.74,0.74-0.74h1.186c0.41,0,0.74,0.332,0.74,0.74
			C38.453,18.929,38.123,19.261,37.712,19.261z M41.685,19.261H40.5c-0.41,0-0.741-0.332-0.741-0.741c0-0.408,0.331-0.74,0.741-0.74
			h1.186c0.409,0,0.742,0.332,0.742,0.74C42.427,18.929,42.094,19.261,41.685,19.261z"/>
		<path fill="#FFB900" d="M21.822,17.779h-1.186c-0.409,0-0.74,0.332-0.74,0.74c0,0.409,0.331,0.741,0.74,0.741h1.186
			c0.41,0,0.741-0.332,0.741-0.741C22.563,18.111,22.232,17.779,21.822,17.779z"/>
		<path fill="#FFB900" d="M17.85,17.779h-1.187c-0.408,0-0.741,0.332-0.741,0.74c0,0.409,0.333,0.741,0.741,0.741h1.187
			c0.408,0,0.741-0.332,0.741-0.741C18.591,18.111,18.258,17.779,17.85,17.779z"/>
		<path fill="#FFB900" d="M13.876,17.779h-1.186c-0.41,0-0.74,0.332-0.74,0.74c0,0.409,0.33,0.741,0.74,0.741h1.186
			c0.41,0,0.742-0.332,0.742-0.741C14.619,18.111,14.287,17.779,13.876,17.779z"/>
		<path fill="#FFB900" d="M5.932,17.779H4.746c-0.408,0-0.741,0.332-0.741,0.74c0,0.409,0.333,0.741,0.741,0.741h1.187
			c0.408,0,0.741-0.332,0.741-0.741C6.673,18.111,6.34,17.779,5.932,17.779z"/>
		<path fill="#FFB900" d="M9.904,17.779H8.718c-0.409,0-0.742,0.332-0.742,0.74c0,0.409,0.333,0.741,0.742,0.741h1.186
			c0.41,0,0.741-0.332,0.741-0.741C10.645,18.111,10.314,17.779,9.904,17.779z"/>
		<path fill="#FFB900" d="M29.767,17.779h-1.186c-0.41,0-0.741,0.332-0.741,0.74c0,0.409,0.331,0.741,0.741,0.741h1.186
			c0.409,0,0.742-0.332,0.742-0.741C30.509,18.111,30.176,17.779,29.767,17.779z"/>
		<path fill="#FFB900" d="M25.794,17.779h-1.186c-0.41,0-0.74,0.332-0.74,0.74c0,0.409,0.33,0.741,0.74,0.741h1.186
			c0.41,0,0.74-0.332,0.74-0.741C26.535,18.111,26.205,17.779,25.794,17.779z"/>
		<path fill="#FFB900" d="M41.685,17.779H40.5c-0.41,0-0.741,0.332-0.741,0.74c0,0.409,0.331,0.741,0.741,0.741h1.186
			c0.409,0,0.742-0.332,0.742-0.741C42.427,18.111,42.094,17.779,41.685,17.779z"/>
		<path fill="#FFB900" d="M37.712,17.779h-1.186c-0.41,0-0.74,0.332-0.74,0.74c0,0.409,0.33,0.741,0.74,0.741h1.186
			c0.41,0,0.74-0.332,0.74-0.741C38.453,18.111,38.123,17.779,37.712,17.779z"/>
		<path fill="#FFB900" d="M33.74,17.779h-1.186c-0.409,0-0.742,0.332-0.742,0.74c0,0.409,0.333,0.741,0.742,0.741h1.186
			c0.41,0,0.741-0.332,0.741-0.741C34.481,18.111,34.15,17.779,33.74,17.779z"/>
	</g>
	<g>
		<path fill-rule="evenodd" clip-rule="evenodd" fill="#E6007E" d="M11.295,43.819c2.608,0,5.153,0,7.769,0
			c0-0.566,0.016-1.107-0.006-1.646c-0.018-0.457,0.137-0.672,0.627-0.656c0.828,0.025,1.66,0.021,2.489,0.002
			c0.436-0.012,0.639,0.15,0.637,0.596c-0.007,1.498-0.007,2.996,0.001,4.494c0.003,0.469-0.211,0.635-0.671,0.633
			c-4.9-0.006-9.801-0.008-14.7,0.002c-0.495,0.002-0.678-0.172-0.68-0.674c-0.002-1.502,0.009-2.992,0.617-4.408
			c0.835-1.949,2.365-3.199,4.18-4.141c1.201-0.621,2.456-1.135,3.668-1.732c0.633-0.313,1.25-0.666,1.834-1.059
			c0.969-0.654,1.447-1.574,1.259-2.76c-0.182-1.141-0.874-1.898-1.929-2.301c-1.336-0.508-2.668-0.432-3.924,0.26
			c-0.949,0.523-1.502,1.369-1.549,2.457c-0.027,0.648-0.285,0.824-0.893,0.791c-0.807-0.043-1.621-0.041-2.428,0
			c-0.612,0.031-0.752-0.229-0.732-0.791c0.112-3.053,1.911-5.465,4.867-6.313c2.816-0.809,5.595-0.698,8.115,0.934
			c3.536,2.289,3.775,7.369,0.447,9.953c-1.15,0.895-2.518,1.516-3.805,2.229c-1.198,0.664-2.447,1.24-3.625,1.941
			C12.072,42.1,11.498,42.813,11.295,43.819z"/>
		<g>
			<path fill="#E6007E" d="M36.156,34.354c-1.502-0.754-3.129-0.93-4.787-0.779c-0.803,0.072-1.6,0.221-2.428,0.338
				c0-1.391,0-2.777,0-4.197c1.89,0,3.744,0,5.695,0c0,0.447,0.02,0.85-0.006,1.25c-0.029,0.48,0.186,0.646,0.648,0.633
				c0.789-0.02,1.581-0.033,2.369,0.006c0.536,0.025,0.717-0.182,0.71-0.695c-0.019-1.338-0.026-2.674,0.004-4.009
				c0.011-0.565-0.198-0.722-0.747-0.718c-3.988,0.02-7.978,0.023-11.967-0.003c-0.633-0.004-0.781,0.215-0.775,0.81
				c0.025,2.956,0.012,5.913,0.012,8.87c0,0.344-0.008,0.688,0.006,1.031c0.031,0.768,0.334,1.012,1.094,0.867
				c0.375-0.072,0.743-0.188,1.111-0.289c1.686-0.471,3.385-0.803,5.148-0.559c1.561,0.217,2.657,1.133,2.953,2.482
				c0.025,0.121,0.043,0.24,0.057,0.361h4.251C39.38,37.407,38.429,35.493,36.156,34.354z"/>
			<path fill="#E6007E" d="M29.091,43.247c-0.965-0.408-1.75-1.102-2.461-1.896c-0.334-0.373-0.594-0.4-0.953-0.047
				c-0.606,0.596-1.219,1.188-1.873,1.729c-0.477,0.396-0.375,0.666-0.021,1.088c1.454,1.74,3.34,2.729,5.309,3.125v-1.82V43.247z"
				/>
		</g>
	</g>
	<g>
		<path fill="#FFB900" d="M67.986,62.174c0,1.51-1.235,2.744-2.746,2.746l-33.403-0.002c-1.509,0-2.745-1.234-2.745-2.744V51.088
			h38.895V62.174z"/>
		<path fill="#FFB900" d="M29.091,42.499c0-1.51,1.234-2.746,2.745-2.746H65.24c1.511,0,2.746,1.236,2.746,2.746v3.227
			l-38.895-0.002V42.499z"/>
		<rect x="29.091" y="45.724" fill="#FFE57E" width="38.895" height="5.365"/>
	</g>
	<circle fill="#FFFFFF" cx="32.425" cy="11.853" r="2.746"/>
	<circle fill="#FFFFFF" cx="14.029" cy="11.853" r="2.746"/>
</g>
</svg>
