<?xml version="1.0" encoding="utf-8"?>
<!-- Generator: Adobe Illustrator 16.0.0, SVG Export Plug-In . SVG Version: 6.00 Build 0)  -->
<!DOCTYPE svg PUBLIC "-//W3C//DTD SVG 1.1//EN" "http://www.w3.org/Graphics/SVG/1.1/DTD/svg11.dtd">
<svg version="1.1" id="Lager_1" xmlns="http://www.w3.org/2000/svg" xmlns:xlink="http://www.w3.org/1999/xlink" x="0px" y="0px"
	 viewBox="0 0 70.866 70.866" enable-background="new 0 0 70.866 70.866" xml:space="preserve">
<g>
	<g>
		<path fill="#D2E182" d="M42.218,5.946H4.141c-0.693,0-1.261,0.567-1.261,1.26v49.695c0,0.693,0.567,1.261,1.261,1.261h24.95
			v-7.072v-5.365v-3.226c0-1.51,1.234-2.745,2.745-2.745H43.48V7.206C43.48,6.513,42.912,5.946,42.218,5.946z M5.932,19.261H4.746
			c-0.408,0-0.741-0.332-0.741-0.741c0-0.408,0.333-0.74,0.741-0.74h1.187c0.408,0,0.741,0.332,0.741,0.74
			C6.673,18.929,6.34,19.261,5.932,19.261z M9.904,19.261H8.718c-0.409,0-0.741-0.332-0.741-0.741c0-0.408,0.332-0.74,0.741-0.74
			h1.186c0.41,0,0.741,0.332,0.741,0.74C10.645,18.929,10.314,19.261,9.904,19.261z M13.876,19.261h-1.186
			c-0.41,0-0.74-0.332-0.74-0.741c0-0.408,0.33-0.74,0.74-0.74h1.186c0.41,0,0.741,0.332,0.741,0.74
			C14.618,18.929,14.287,19.261,13.876,19.261z M17.849,19.261h-1.186c-0.41,0-0.741-0.332-0.741-0.741
			c0-0.408,0.331-0.74,0.741-0.74h1.186c0.409,0,0.742,0.332,0.742,0.74C18.591,18.929,18.258,19.261,17.849,19.261z M21.822,19.261
			h-1.186c-0.409,0-0.741-0.332-0.741-0.741c0-0.408,0.332-0.74,0.741-0.74h1.186c0.41,0,0.741,0.332,0.741,0.74
			C22.563,18.929,22.232,19.261,21.822,19.261z M25.794,19.261h-1.186c-0.41,0-0.742-0.332-0.742-0.741
			c0-0.408,0.332-0.74,0.742-0.74h1.186c0.41,0,0.741,0.332,0.741,0.74C26.536,18.929,26.205,19.261,25.794,19.261z M29.767,19.261
			h-1.186c-0.41,0-0.742-0.332-0.742-0.741c0-0.408,0.332-0.74,0.742-0.74h1.186c0.409,0,0.74,0.332,0.74,0.74
			C30.507,18.929,30.176,19.261,29.767,19.261z M33.74,19.261h-1.186c-0.41,0-0.741-0.332-0.741-0.741
			c0-0.408,0.331-0.74,0.741-0.74h1.186c0.409,0,0.741,0.332,0.741,0.74C34.481,18.929,34.149,19.261,33.74,19.261z M37.712,19.261
			h-1.187c-0.409,0-0.741-0.332-0.741-0.741c0-0.408,0.332-0.74,0.741-0.74h1.187c0.408,0,0.741,0.332,0.741,0.74
			C38.454,18.929,38.121,19.261,37.712,19.261z M41.685,19.261H40.5c-0.41,0-0.742-0.332-0.742-0.741c0-0.408,0.332-0.74,0.742-0.74
			h1.186c0.41,0,0.742,0.332,0.742,0.74C42.427,18.929,42.095,19.261,41.685,19.261z"/>
		<path fill="#009FE4" d="M21.822,17.78h-1.186c-0.409,0-0.741,0.332-0.741,0.74c0,0.409,0.332,0.741,0.741,0.741h1.186
			c0.41,0,0.741-0.332,0.741-0.741C22.563,18.112,22.232,17.78,21.822,17.78z"/>
		<path fill="#009FE4" d="M17.849,17.78h-1.186c-0.41,0-0.741,0.332-0.741,0.74c0,0.409,0.331,0.741,0.741,0.741h1.186
			c0.409,0,0.742-0.332,0.742-0.741C18.591,18.112,18.258,17.78,17.849,17.78z"/>
		<path fill="#009FE4" d="M13.876,17.78h-1.186c-0.41,0-0.74,0.332-0.74,0.74c0,0.409,0.33,0.741,0.74,0.741h1.186
			c0.41,0,0.741-0.332,0.741-0.741C14.618,18.112,14.287,17.78,13.876,17.78z"/>
		<path fill="#009FE4" d="M9.904,17.78H8.718c-0.409,0-0.741,0.332-0.741,0.74c0,0.409,0.332,0.741,0.741,0.741h1.186
			c0.41,0,0.741-0.332,0.741-0.741C10.645,18.112,10.314,17.78,9.904,17.78z"/>
		<path fill="#009FE4" d="M5.932,17.78H4.746c-0.408,0-0.741,0.332-0.741,0.74c0,0.409,0.333,0.741,0.741,0.741h1.187
			c0.408,0,0.741-0.332,0.741-0.741C6.673,18.112,6.34,17.78,5.932,17.78z"/>
		<path fill="#009FE4" d="M41.685,17.78H40.5c-0.41,0-0.742,0.332-0.742,0.74c0,0.409,0.332,0.741,0.742,0.741h1.186
			c0.41,0,0.742-0.332,0.742-0.741C42.427,18.112,42.095,17.78,41.685,17.78z"/>
		<path fill="#009FE4" d="M37.712,17.78h-1.187c-0.409,0-0.741,0.332-0.741,0.74c0,0.409,0.332,0.741,0.741,0.741h1.187
			c0.408,0,0.741-0.332,0.741-0.741C38.454,18.112,38.121,17.78,37.712,17.78z"/>
		<path fill="#009FE4" d="M33.74,17.78h-1.186c-0.41,0-0.741,0.332-0.741,0.74c0,0.409,0.331,0.741,0.741,0.741h1.186
			c0.409,0,0.741-0.332,0.741-0.741C34.481,18.112,34.149,17.78,33.74,17.78z"/>
		<path fill="#009FE4" d="M29.767,17.78h-1.186c-0.41,0-0.742,0.332-0.742,0.74c0,0.409,0.332,0.741,0.742,0.741h1.186
			c0.409,0,0.74-0.332,0.74-0.741C30.507,18.112,30.176,17.78,29.767,17.78z"/>
		<path fill="#009FE4" d="M25.794,17.78h-1.186c-0.41,0-0.742,0.332-0.742,0.74c0,0.409,0.332,0.741,0.742,0.741h1.186
			c0.41,0,0.741-0.332,0.741-0.741C26.536,18.112,26.205,17.78,25.794,17.78z"/>
	</g>
	<g>
		<path fill-rule="evenodd" clip-rule="evenodd" fill="#0A4682" d="M11.295,43.819c2.608,0,5.153,0,7.769,0
			c0-0.566,0.016-1.106-0.006-1.646c-0.019-0.457,0.137-0.671,0.627-0.655c0.828,0.025,1.66,0.021,2.489,0.002
			c0.435-0.012,0.639,0.15,0.638,0.595c-0.008,1.498-0.008,2.996,0,4.494c0.002,0.47-0.211,0.636-0.671,0.634
			c-4.9-0.007-9.8-0.009-14.7,0.002c-0.496,0.001-0.678-0.173-0.68-0.674c-0.002-1.502,0.009-2.992,0.617-4.409
			c0.835-1.949,2.365-3.199,4.18-4.14c1.201-0.621,2.456-1.136,3.668-1.733c0.633-0.312,1.25-0.665,1.834-1.058
			c0.967-0.654,1.447-1.575,1.259-2.761c-0.182-1.14-0.874-1.897-1.929-2.3c-1.338-0.508-2.669-0.433-3.924,0.26
			c-0.949,0.523-1.502,1.369-1.549,2.456c-0.027,0.649-0.285,0.825-0.893,0.792c-0.807-0.043-1.621-0.042-2.428-0.001
			c-0.612,0.031-0.752-0.229-0.732-0.79c0.113-3.054,1.91-5.465,4.867-6.313c2.816-0.809,5.595-0.698,8.115,0.934
			c3.536,2.289,3.774,7.369,0.447,9.953c-1.15,0.895-2.518,1.516-3.804,2.229c-1.199,0.664-2.45,1.24-3.626,1.94
			C12.072,42.101,11.498,42.814,11.295,43.819z"/>
		<g>
			<path fill="#0A4682" d="M36.156,34.354c-1.502-0.753-3.129-0.93-4.787-0.779c-0.804,0.073-1.6,0.221-2.428,0.338
				c0-1.39,0-2.776,0-4.197c1.889,0,3.744,0,5.695,0c0,0.448,0.02,0.851-0.006,1.25c-0.029,0.48,0.186,0.646,0.648,0.634
				c0.789-0.021,1.581-0.034,2.369,0.005c0.536,0.026,0.717-0.181,0.71-0.695c-0.019-1.338-0.026-2.674,0.004-4.009
				c0.011-0.565-0.198-0.722-0.747-0.718c-3.989,0.02-7.978,0.023-11.967-0.003c-0.633-0.004-0.781,0.215-0.775,0.81
				c0.025,2.956,0.012,5.912,0.012,8.869c0,0.344-0.009,0.688,0.006,1.031c0.031,0.768,0.334,1.013,1.094,0.868
				c0.375-0.072,0.742-0.188,1.111-0.289c1.686-0.471,3.384-0.803,5.148-0.559c1.561,0.216,2.658,1.132,2.953,2.482
				c0.025,0.12,0.043,0.24,0.057,0.361h4.251C39.379,37.408,38.429,35.493,36.156,34.354z"/>
			<path fill="#0A4682" d="M29.091,43.247c-0.965-0.407-1.751-1.101-2.461-1.896c-0.334-0.373-0.594-0.399-0.953-0.047
				c-0.606,0.596-1.221,1.188-1.874,1.729c-0.477,0.396-0.374,0.665-0.021,1.088c1.453,1.74,3.34,2.728,5.309,3.124v-1.819V43.247z"
				/>
		</g>
	</g>
	<g>
		<path fill="#B0CB0B" d="M67.985,62.174c0,1.511-1.235,2.745-2.745,2.746l-33.403-0.001c-1.511,0-2.745-1.234-2.745-2.745V51.089
			h38.894V62.174z"/>
		<path fill="#B0CB0B" d="M29.091,42.499c0-1.51,1.234-2.745,2.745-2.745H65.24c1.51-0.001,2.746,1.235,2.745,2.745v3.227
			l-38.894-0.001V42.499z"/>
		<rect x="29.091" y="45.725" fill="#0A4682" width="38.894" height="5.365"/>
	</g>
	<circle fill="#FFFFFF" cx="32.425" cy="11.853" r="2.746"/>
	<circle fill="#FFFFFF" cx="14.028" cy="11.853" r="2.747"/>
</g>
</svg>
