<?xml version="1.0" encoding="utf-8"?>
<!-- Generator: Adobe Illustrator 16.0.0, SVG Export Plug-In . SVG Version: 6.00 Build 0)  -->
<!DOCTYPE svg PUBLIC "-//W3C//DTD SVG 1.1//EN" "http://www.w3.org/Graphics/SVG/1.1/DTD/svg11.dtd">
<svg version="1.1" id="Lager_1" xmlns="http://www.w3.org/2000/svg" xmlns:xlink="http://www.w3.org/1999/xlink" x="0px" y="0px"
	 viewBox="0 0 65.52 65.521" enable-background="new 0 0 65.52 65.521" xml:space="preserve">
<g>
	<g>
		<circle fill="#009FE4" cx="30.054" cy="28.951" r="20.292"/>
	</g>
	<g>
		<path fill="#B0CB0B" d="M28.219,31.98c-1.463-1.082-2.289-0.955-2.289-2.227s0.572-2.162-0.382-2.797
			c-0.954-0.637,0.127-1.908-1.399-2.799c-1.526-0.891-1.209-1.59-2.544-1.908c-2.173-0.518-2.48,1.59-3.753,2.225
			c-1.271,0.637-2.289,2.291-1.971,3.881s2.098,2.48,1.398,4.324s-1.59,4.008-1.653,5.852s0.699,3.563,1.146,3.434
			c0.445-0.127,0.381-1.336,0.953-1.652c0.572-0.318,1.908,0.063,2.354-0.445c0.445-0.51,1.781-0.572,2.354-1.145
			s1.525-0.574,2.226-0.955s1.526-0.572,2.29-1.59c0.763-1.018,2.021-0.541,2.607-1.463C30.139,33.792,29.682,33.062,28.219,31.98z"
			/>
		<path fill="#B0CB0B" d="M46.217,18.179c0.256,0.699-0.572,0.19-0.764,0.636c-0.619,1.448-0.127,2.162-1.08,2.354
			c-0.955,0.19-1.527,1.081-1.018,1.908c0.508,0.826,1.59,1.081,2.162,0.063s1.973-1.526,2.1-0.572s0.316,1.335,1.145,2.098
			c0.404,0.373,0.869,0.518,1.238,0.568c-0.566-3.058-1.816-5.875-3.588-8.287C46.235,17.412,46.114,17.892,46.217,18.179z"/>
		<path fill="#B0CB0B" d="M50.346,28.951c0-0.729-0.041-1.447-0.115-2.156c-0.086,0.047-0.174,0.1-0.262,0.162
			c-1.08,0.762-1.08,1.588-1.971,0.127c-0.891-1.463-0.953-2.99-2.861-2.672c-1.324,0.221-1.719,0.508-2.545,1.271
			s-1.018,0.826-1.717,1.908s-1.908,2.354-1.844,3.436c0.063,1.08,0.127,3.307,1.207,3.943c1.082,0.635,1.908,0.635,2.926,0.889
			c1.018,0.256,1.846,1.463,1.145,2.418c-0.699,0.953-1.461,1.717-1.398,2.416s-1.018,1.463-2.1,2.545
			c-1.08,1.08-1.59,1.781-2.162,2.67c-0.285,0.443-0.301,1.045-0.246,1.537C45.444,44.261,50.346,37.181,50.346,28.951z"/>
		<path fill="#B0CB0B" d="M18.106,13.727c-0.763,1.081-1.845,2.607-1.081,3.689c0.764,1.08,1.271,1.398,0.891,2.416
			c-0.382,1.018-0.509,2.29,0.19,1.845c0.7-0.445,1.908-1.272,1.526-2.29c-0.381-1.018,0-1.271,0.318-1.78s-1.018,0.255-1.399-0.382
			c-0.382-0.636-0.317-1.081,0.509-1.654c0.826-0.571,1.781-1.652,2.227-1.207c0.444,0.444,1.525,0.254,1.525,0.89
			c0,0.637-0.764,1.845-0.254,1.972c0.509,0.127,0.764-0.636,1.463-1.272c0.699-0.636,1.463-0.19,2.354-0.763
			s2.352-1.272,2.988-1.272c0.637,0,1.844,1.082,2.354,0.764c0.51-0.317,0.063-1.146,1.08-1.146s1.654-0.826,1.527-1.589
			c-0.127-0.764-0.635-0.636-1.271-1.146c-0.637-0.508,0.254-0.127,0.572-0.954c0.09-0.234,0.18-0.525,0.264-0.821
			c-1.242-0.238-2.523-0.367-3.836-0.367c-4.319,0-8.321,1.354-11.611,3.654C18.461,12.81,18.388,13.328,18.106,13.727z"/>
		<path fill="#B0CB0B" d="M38.204,13.6c1.336,0.063,2.607-0.445,4.008,0c0.537,0.171,0.961,0.191,1.281,0.152
			c-2.256-1.996-4.957-3.495-7.938-4.333c0.189,0.506,0.426,1.133,0.613,1.637C36.551,12.073,36.868,13.535,38.204,13.6z"/>
		<path fill="#B0CB0B" d="M44.692,18.306c0.445-0.19,1.145-0.572,1.145-1.463c0-0.164,0.027-0.352,0.074-0.548
			c-0.357-0.446-0.732-0.876-1.123-1.29c-0.072,0.638-0.186,1.38-0.35,1.711C44.12,17.352,44.247,18.496,44.692,18.306z"/>
		<path fill="#B0CB0B" d="M44.374,19.769c-0.127-0.827-0.445-1.972-1.018-1.717c-0.678,0.301-0.191,1.59-0.191,2.099
			S44.5,20.596,44.374,19.769z"/>
	</g>
	<path fill="#FFB900" d="M44.583,7.76c-0.08-0.057-0.24-0.158-0.119-0.382s0.4-0.693,0.4-0.693c0.186-0.322,0.227-0.686,0.146-1.021
		c-0.021-0.093-0.043-0.268,0.176-0.232c0.051,0.008,0.104,0.007,0.154,0.008c0.863,0.016,1.707-0.425,2.17-1.225
		c0.678-1.174,0.275-2.674-0.898-3.352s-2.674-0.275-3.352,0.898c-0.475,0.82-0.418,1.801,0.061,2.548
		c0.027,0.043,0.055,0.084,0.086,0.125c0.07,0.099-0.016,0.181-0.086,0.198c-0.355,0.087-0.678,0.313-0.875,0.656l-0.508,0.88
		l-1.398,2.42l-1.305,2.261c0.834,0.424,1.633,0.904,2.396,1.435c0.645-1.118,1.055-1.828,1.088-1.884
		c0.176-0.305,0.43-0.24,0.533-0.166c5.871,4.152,9.713,10.993,9.713,18.716c0,12.633-10.277,22.912-22.912,22.912
		c-3.301,0-6.442-0.703-9.28-1.965c-0.229-0.102-0.636-0.371-0.334-0.91c0.053-0.094,0.41-0.715,0.965-1.678
		c-0.844-0.398-1.658-0.854-2.434-1.361l-1.305,2.262l-1.396,2.418l-1.025,1.775c-0.164,0.285-0.208,0.602-0.17,0.904
		c0.037,0.311-0.166,0.344-0.307,0.34c-0.863-0.016-1.708,0.424-2.17,1.225c-0.678,1.174-0.275,2.674,0.898,3.352
		c1.173,0.678,2.674,0.275,3.352-0.898c0.455-0.789,0.421-1.727-0.008-2.463c-0.078-0.131-0.078-0.367,0.139-0.471
		c0.271-0.127,0.522-0.313,0.684-0.592c0,0,0.443-0.75,0.715-1.24c0.271-0.486,0.813-0.32,1.061-0.207
		c2.522,1.148,5.262,1.904,8.139,2.182c0.154,0.014,0.309,0.023,0.463,0.039c0.385,0.041,0.619,0.248,0.619,0.664s0,1.068,0,1.484
		c0,0.418-0.266,0.607-0.65,0.607c-0.387,0-3.664,0-3.664,0c-1.875,0-3.441,1.244-4.025,2.768l-0.234,0.613
		c0,0-0.371,0.975-0.57,1.494c-0.106,0.281-0.355,0.492-0.721,0.492c-0.125,0-0.156,0.006-0.231,0.018
		c-0.661,0.111-1.164,0.686-1.164,1.377c0,0.771,0.625,1.396,1.396,1.396h22.52c0.771,0,1.396-0.625,1.396-1.396
		c0-0.625-0.41-1.152-0.977-1.332c-0.133-0.041-0.252-0.063-0.42-0.063c-0.488,0-0.564-0.1-0.682-0.389
		c-0.115-0.289-0.375-0.986-0.375-0.986s0-0.002-0.002-0.002l-0.232-0.609l-0.232-0.609c-0.582-1.525-2.141-2.771-4.025-2.771
		c0,0-3.371,0-3.744,0s-0.57-0.16-0.57-0.488c0-0.326,0-1.098,0-1.559s0.184-0.654,0.568-0.705c0.104-0.014,0.209-0.016,0.313-0.025
		c13.111-1.156,23.428-12.195,23.428-25.602C55.758,20.166,51.327,12.397,44.583,7.76z"/>
</g>
</svg>
