<?xml version="1.0" encoding="utf-8"?>
<!-- Generator: Adobe Illustrator 16.0.0, SVG Export Plug-In . SVG Version: 6.00 Build 0)  -->
<!DOCTYPE svg PUBLIC "-//W3C//DTD SVG 1.1//EN" "http://www.w3.org/Graphics/SVG/1.1/DTD/svg11.dtd">
<svg version="1.1" id="Lager_1" xmlns="http://www.w3.org/2000/svg" xmlns:xlink="http://www.w3.org/1999/xlink" x="0px" y="0px"
	 viewBox="0 0 65.197 65.197" enable-background="new 0 0 65.197 65.197" xml:space="preserve">
<g>
	<g>
		<circle fill="#009FE4" cx="29.893" cy="28.538" r="20.292"/>
	</g>
	<g>
		<path fill="#B0CB0B" d="M28.059,31.567c-1.463-1.081-2.29-0.954-2.29-2.226s0.572-2.162-0.382-2.798
			c-0.954-0.637,0.127-1.908-1.398-2.799c-1.527-0.891-1.209-1.59-2.545-1.908c-2.174-0.518-2.48,1.59-3.752,2.226
			c-1.272,0.637-2.289,2.29-1.972,3.88s2.099,2.48,1.399,4.325c-0.7,1.844-1.59,4.007-1.654,5.852
			c-0.063,1.844,0.699,3.562,1.145,3.434c0.445-0.127,0.383-1.336,0.955-1.653s1.908,0.063,2.354-0.445
			c0.444-0.509,1.779-0.572,2.353-1.145c0.572-0.572,1.526-0.573,2.226-0.954c0.699-0.382,1.527-0.572,2.29-1.59
			s2.022-0.541,2.607-1.463S29.521,32.649,28.059,31.567z"/>
		<path fill="#B0CB0B" d="M46.057,17.767c0.254,0.699-0.572,0.19-0.764,0.636c-0.62,1.448-0.127,2.162-1.08,2.354
			c-0.955,0.19-1.527,1.081-1.018,1.908c0.508,0.826,1.589,1.081,2.162,0.063c0.572-1.018,1.971-1.526,2.099-0.572
			c0.127,0.954,0.317,1.335,1.145,2.099c0.404,0.373,0.868,0.518,1.239,0.568c-0.566-3.059-1.816-5.876-3.588-8.287
			C46.073,17,45.952,17.479,46.057,17.767z"/>
		<path fill="#B0CB0B" d="M50.186,28.538c0-0.728-0.041-1.447-0.115-2.156c-0.087,0.048-0.174,0.1-0.262,0.162
			c-1.08,0.763-1.08,1.589-1.971,0.127c-0.891-1.463-0.954-2.989-2.862-2.671c-1.323,0.22-1.718,0.508-2.544,1.271
			s-1.018,0.826-1.717,1.908c-0.7,1.081-1.908,2.353-1.845,3.435c0.063,1.081,0.127,3.307,1.208,3.943
			c1.082,0.636,1.908,0.636,2.926,0.89c1.018,0.255,1.844,1.463,1.145,2.417s-1.463,1.718-1.398,2.417
			c0.063,0.699-1.018,1.463-2.1,2.544c-1.081,1.081-1.59,1.781-2.162,2.671c-0.285,0.443-0.302,1.045-0.247,1.536
			C45.283,43.849,50.186,36.769,50.186,28.538z"/>
		<path fill="#B0CB0B" d="M17.945,13.314c-0.763,1.081-1.844,2.607-1.081,3.689c0.763,1.08,1.272,1.398,0.891,2.416
			s-0.509,2.29,0.19,1.845s1.908-1.272,1.527-2.29c-0.383-1.018,0-1.271,0.317-1.78c0.318-0.509-1.018,0.255-1.399-0.382
			c-0.381-0.636-0.318-1.081,0.509-1.654c0.827-0.571,1.781-1.652,2.226-1.207c0.445,0.444,1.527,0.254,1.527,0.89
			c0,0.637-0.764,1.845-0.255,1.972s0.763-0.636,1.463-1.272c0.7-0.636,1.463-0.19,2.354-0.763c0.89-0.572,2.353-1.272,2.989-1.272
			c0.636,0,1.844,1.082,2.354,0.764c0.508-0.317,0.063-1.146,1.08-1.146s1.654-0.826,1.527-1.589
			c-0.128-0.764-0.637-0.636-1.272-1.146c-0.636-0.508,0.255-0.127,0.572-0.954c0.091-0.234,0.181-0.525,0.264-0.821
			c-1.243-0.238-2.523-0.367-3.835-0.367c-4.319,0-8.32,1.354-11.611,3.654C18.301,12.397,18.227,12.916,17.945,13.314z"/>
		<path fill="#B0CB0B" d="M38.043,13.188c1.336,0.063,2.607-0.445,4.007,0c0.538,0.171,0.962,0.191,1.281,0.152
			c-2.255-1.996-4.956-3.495-7.937-4.333c0.189,0.506,0.424,1.133,0.613,1.637C36.39,11.661,36.707,13.123,38.043,13.188z"/>
		<path fill="#B0CB0B" d="M44.53,17.894c0.445-0.19,1.146-0.572,1.146-1.463c0-0.164,0.027-0.352,0.073-0.548
			c-0.356-0.446-0.731-0.876-1.124-1.29c-0.07,0.638-0.184,1.38-0.35,1.711C43.958,16.939,44.085,18.084,44.53,17.894z"/>
		<path fill="#B0CB0B" d="M44.213,19.356c-0.128-0.827-0.445-1.972-1.018-1.717c-0.678,0.301-0.191,1.59-0.191,2.099
			S44.34,20.184,44.213,19.356z"/>
	</g>
	<path fill="#8C005A" d="M44.422,7.348c-0.081-0.057-0.242-0.158-0.12-0.382c0.121-0.224,0.4-0.693,0.4-0.693
		c0.186-0.322,0.228-0.686,0.147-1.021c-0.021-0.093-0.044-0.268,0.176-0.232c0.051,0.008,0.104,0.007,0.154,0.008
		c0.863,0.016,1.707-0.425,2.169-1.225c0.678-1.174,0.276-2.674-0.897-3.352S43.777,0.176,43.1,1.35
		c-0.475,0.82-0.418,1.801,0.06,2.548c0.027,0.043,0.056,0.084,0.085,0.125c0.072,0.099-0.014,0.181-0.084,0.198
		c-0.357,0.087-0.678,0.313-0.875,0.656l-0.51,0.88l-1.396,2.42l-1.305,2.261c0.833,0.424,1.633,0.904,2.395,1.435
		c0.646-1.118,1.056-1.828,1.088-1.884c0.177-0.305,0.431-0.24,0.534-0.166c5.872,4.152,9.714,10.993,9.714,18.716
		c0,12.634-10.278,22.912-22.912,22.912c-3.301,0-6.441-0.703-9.28-1.965c-0.228-0.102-0.636-0.37-0.333-0.91
		c0.052-0.093,0.41-0.714,0.965-1.677c-0.846-0.398-1.658-0.854-2.435-1.361l-1.305,2.261l-1.396,2.419l-1.024,1.774
		c-0.165,0.285-0.209,0.602-0.172,0.904c0.039,0.311-0.164,0.344-0.306,0.341c-0.862-0.016-1.708,0.424-2.17,1.225
		c-0.677,1.174-0.275,2.674,0.897,3.352c1.174,0.678,2.674,0.275,3.352-0.898c0.457-0.79,0.422-1.728-0.007-2.463
		c-0.077-0.131-0.079-0.368,0.14-0.471c0.271-0.127,0.521-0.313,0.683-0.593c0,0,0.443-0.75,0.715-1.239
		c0.271-0.487,0.813-0.321,1.061-0.208c2.522,1.149,5.261,1.904,8.139,2.182c0.154,0.015,0.31,0.024,0.464,0.04
		c0.384,0.04,0.618,0.247,0.618,0.663s0,1.069,0,1.485c0,0.417-0.265,0.606-0.651,0.606c-0.385,0-3.663,0-3.663,0
		c-1.874,0-3.44,1.245-4.024,2.769l-0.234,0.612c0,0-0.373,0.975-0.57,1.495c-0.107,0.281-0.357,0.491-0.721,0.491
		c-0.126,0-0.156,0.007-0.232,0.019c-0.66,0.11-1.164,0.686-1.164,1.377c0,0.771,0.625,1.396,1.396,1.396h22.52
		c0.771,0,1.396-0.624,1.396-1.396c0-0.625-0.41-1.153-0.977-1.332c-0.133-0.041-0.253-0.063-0.42-0.063
		c-0.488,0-0.564-0.1-0.682-0.389c-0.117-0.288-0.376-0.985-0.376-0.985c0-0.001,0-0.002-0.001-0.003l-0.232-0.609l-0.232-0.608
		c-0.582-1.525-2.141-2.772-4.026-2.772c0,0-3.37,0-3.743,0s-0.57-0.16-0.57-0.487c0-0.326,0-1.099,0-1.56s0.183-0.654,0.567-0.704
		c0.104-0.014,0.208-0.017,0.313-0.025c13.111-1.156,23.428-12.196,23.428-25.603C55.597,19.754,51.165,11.985,44.422,7.348z"/>
</g>
</svg>
