<?xml version="1.0" encoding="utf-8"?>
<!-- Generator: Adobe Illustrator 16.0.0, SVG Export Plug-In . SVG Version: 6.00 Build 0)  -->
<!DOCTYPE svg PUBLIC "-//W3C//DTD SVG 1.1//EN" "http://www.w3.org/Graphics/SVG/1.1/DTD/svg11.dtd">
<svg version="1.1" id="Lager_1" xmlns="http://www.w3.org/2000/svg" xmlns:xlink="http://www.w3.org/1999/xlink" x="0px" y="0px"
	 viewBox="0 0 76.536 76.536" enable-background="new 0 0 76.536 76.536" xml:space="preserve">
<g>
	<g>
		<circle fill="#E6007E" cx="27.461" cy="9.008" r="3.97"/>
	</g>
	<g>
		<circle fill="#E6007E" cx="36.614" cy="6.556" r="3.97"/>
	</g>
	<path fill="#009FE4" d="M52.944,31.191H37.272c-0.465,0-0.897-0.376-0.962-0.835l-1.862-13.332
		c-0.064-0.459,0.25-0.934,0.698-1.054L60.712,9.12c0.448-0.12,0.816-0.598,0.816-1.063V6.046c0-0.465-0.368-0.746-0.816-0.626
		L3.872,20.651c-0.448,0.119-0.815,0.598-0.815,1.063v2.011c0,0.465,0.367,0.746,0.815,0.626l25.661-6.876
		c0.448-0.12,0.763,0.157,0.698,0.617l-1.714,12.265c-0.063,0.459-0.496,0.835-0.96,0.835H11.523h-0.887
		c-1.394,0-2.781,1.111-3.086,2.471l-4.425,19.76c-0.304,1.357-0.205,3.555,0.221,4.881L7.33,70.71
		c0.426,1.324,1.913,2.41,3.307,2.41h43.109c1.393,0,2.881-1.086,3.306-2.41l3.983-12.408c0.426-1.326,0.524-3.523,0.22-4.881
		l-4.424-19.76c-0.305-1.359-1.692-2.471-3.085-2.471H52.944z"/>
	<g>
		<path fill="#E6007E" d="M65.733,73.951c1.751-0.039,1.842-0.871,1.8-2.762c-0.042-1.889-0.281-5.822-0.447-13.332
			c-0.168-7.51-0.102-23.25-0.188-26.907c-0.056-2.338-1.152-3.253-2.233-3.229c-1.082,0.023-2.145,0.848-2.086,3.325
			c0.085,3.658,1.038,19.375,1.205,26.885s0.071,11.451,0.113,13.34s0.17,2.715,1.921,2.678L65.733,73.951z"/>
	</g>
	<g>
		<path fill="#E6007E" d="M70.226,73.945c1.752,0.039,1.879-0.787,1.921-2.678c0.041-1.889-0.025-5.828,0.139-13.34
			c0.163-7.51,1.224-23.225,1.299-26.883c0.049-2.338-1.008-3.3-2.089-3.323c-1.082-0.023-2.179,0.752-2.23,3.229
			c-0.075,3.66-0.118,19.396-0.281,26.906s-0.432,11.441-0.473,13.332c-0.041,1.889,0.051,2.721,1.802,2.758L70.226,73.945z"/>
	</g>
	<g>
		<g>
			<path fill="#FFFFFF" d="M22.135,36.988c0-0.93-0.76-1.689-1.688-1.689h-7.271c-0.929,0-1.854,0.74-2.057,1.646L7.702,52.212
				c-0.202,0.906,0.391,1.646,1.319,1.646h11.427c0.928,0,1.688-0.758,1.688-1.688V36.988z"/>
		</g>
	</g>
	<g>
		<g>
			<path fill="#FFFFFF" d="M27.168,35.298c-0.929,0-1.688,0.76-1.688,1.688v15.186c0,0.93,0.76,1.688,1.688,1.688h10.33
				c0.929,0,1.688-0.758,1.688-1.688V36.986c0-0.928-0.76-1.688-1.688-1.688H27.168z"/>
		</g>
		<g>
			<path fill="#FFFFFF" d="M53.546,36.945c-0.203-0.906-1.128-1.646-2.057-1.646h-7.271c-0.929,0-1.688,0.76-1.688,1.689v15.184
				c0,0.93,0.759,1.688,1.688,1.688h11.428c0.928,0,1.521-0.74,1.318-1.646L53.546,36.945z"/>
		</g>
	</g>
</g>
</svg>
