<?xml version="1.0" encoding="utf-8"?>
<!-- Generator: Adobe Illustrator 16.0.0, SVG Export Plug-In . SVG Version: 6.00 Build 0)  -->
<!DOCTYPE svg PUBLIC "-//W3C//DTD SVG 1.1//EN" "http://www.w3.org/Graphics/SVG/1.1/DTD/svg11.dtd">
<svg version="1.1" id="Lager_1" xmlns="http://www.w3.org/2000/svg" xmlns:xlink="http://www.w3.org/1999/xlink" x="0px" y="0px"
	 viewBox="0 0 76.536 76.535" enable-background="new 0 0 76.536 76.535" xml:space="preserve">
<g>
	<g>
		<circle fill="#009FE4" cx="27.46" cy="9.008" r="3.97"/>
	</g>
	<g>
		<circle fill="#009FE4" cx="36.614" cy="6.556" r="3.97"/>
	</g>
	<path fill="#B0CB0B" d="M52.944,31.192H37.272c-0.465,0-0.896-0.377-0.962-0.836l-1.862-13.332
		c-0.064-0.459,0.25-0.934,0.698-1.054L60.712,9.12c0.449-0.12,0.815-0.598,0.815-1.063V6.046c0-0.465-0.366-0.746-0.815-0.626
		L3.872,20.651c-0.448,0.119-0.815,0.598-0.815,1.063v2.011c0,0.465,0.367,0.746,0.815,0.626l25.661-6.876
		c0.448-0.12,0.763,0.157,0.698,0.617l-1.714,12.265c-0.064,0.459-0.497,0.836-0.96,0.836H11.523h-0.888
		c-1.393,0-2.78,1.111-3.085,2.471L3.125,53.421c-0.304,1.359-0.205,3.557,0.221,4.883L7.33,70.71
		c0.425,1.326,1.913,2.41,3.306,2.41h43.109c1.394,0,2.881-1.084,3.307-2.41l3.983-12.406c0.425-1.326,0.524-3.523,0.22-4.883
		l-4.424-19.758c-0.305-1.359-1.692-2.471-3.086-2.471H52.944z"/>
	<g>
		<path fill="#009FE4" d="M65.733,73.95c1.751-0.039,1.842-0.871,1.8-2.76s-0.281-5.822-0.447-13.332
			c-0.168-7.51-0.102-23.25-0.188-26.908c-0.055-2.338-1.152-3.253-2.232-3.229c-1.082,0.023-2.145,0.848-2.086,3.325
			c0.086,3.66,1.038,19.377,1.205,26.887s0.071,11.449,0.113,13.34c0.042,1.889,0.17,2.715,1.921,2.676L65.733,73.95z"/>
	</g>
	<g>
		<path fill="#009FE4" d="M70.226,73.946c1.751,0.037,1.879-0.789,1.921-2.678c0.041-1.891-0.025-5.83,0.139-13.34
			c0.163-7.512,1.224-23.225,1.299-26.885c0.049-2.337-1.008-3.299-2.089-3.323c-1.082-0.023-2.179,0.752-2.23,3.229
			c-0.075,3.66-0.118,19.398-0.281,26.906c-0.163,7.512-0.432,11.443-0.473,13.332c-0.041,1.891,0.05,2.721,1.802,2.76
			L70.226,73.946z"/>
	</g>
	<g>
		<g>
			<path fill="#FFFFFF" d="M22.135,36.987c0-0.93-0.76-1.688-1.688-1.688h-7.271c-0.928,0-1.853,0.74-2.056,1.646L7.702,52.214
				C7.499,53.12,8.093,53.86,9.02,53.86h11.428c0.928,0,1.688-0.76,1.688-1.688V36.987z"/>
		</g>
	</g>
	<g>
		<g>
			<path fill="#FFFFFF" d="M27.168,35.3c-0.929,0-1.688,0.758-1.688,1.688v15.186c0,0.928,0.76,1.688,1.688,1.688h10.33
				c0.929,0,1.688-0.76,1.688-1.688V36.987c0-0.93-0.76-1.688-1.688-1.688H27.168z"/>
		</g>
		<g>
			<path fill="#FFFFFF" d="M53.546,36.946c-0.203-0.906-1.128-1.646-2.058-1.646h-7.27c-0.929,0-1.688,0.758-1.688,1.688v15.186
				c0,0.928,0.759,1.688,1.688,1.688h11.428c0.928,0,1.521-0.74,1.318-1.646L53.546,36.946z"/>
		</g>
	</g>
</g>
</svg>
