<?xml version="1.0" encoding="utf-8"?>
<!-- Generator: Adobe Illustrator 16.0.0, SVG Export Plug-In . SVG Version: 6.00 Build 0)  -->
<!DOCTYPE svg PUBLIC "-//W3C//DTD SVG 1.1//EN" "http://www.w3.org/Graphics/SVG/1.1/DTD/svg11.dtd">
<svg version="1.1" id="Lager_1" xmlns="http://www.w3.org/2000/svg" xmlns:xlink="http://www.w3.org/1999/xlink" x="0px" y="0px"
	 viewBox="0 0 56.693 56.692" enable-background="new 0 0 56.693 56.692" xml:space="preserve">
<g>
	<path fill="#7DC8F0" d="M27.472,1.151c0,0,3.13,4.191,2.313,9.291c-0.636,3.965-2.955,5.368-3.719,9.879
		c-0.607,3.578,1.59,5.875,1.59,5.875s-0.55-2.448,0.626-5.43c1.419-3.6,3.841-5.191,4.858-8.2
		C34.795,7.673,31.99,2.309,27.472,1.151z"/>
	<path fill="#7DC8F0" d="M24.333,3.071c0,0,3.785,2.485,3.104,6.696c-0.488,3.016-2.174,3.636-2.661,6.962
		c0,0-1.7-1.865-1.241-4.612C23.978,9.457,25.574,7.86,24.333,3.071z"/>
	<path fill="#E6007E" d="M48.582,27.785c-0.85-0.159-2.072-0.161-2.713-0.162l-34.767-0.029c-0.642,0-1.628-0.001-2.191-0.001
		c-0.564,0-1.019,0.524-1.01,1.166c0,0,0,0.005,0.031,0.583c0.408,7.564,3.445,14.153,7.892,18.135h4.275c0.642,0,1.69,0,2.332,0
		h6.571c0.641,0,1.69,0,2.332,0h4.273c1.895-1.697,3.535-3.867,4.824-6.387c0.246-0.482,0.246-0.482,0.246-0.482
		c0.25-0.549,0.682-0.727,0.961-0.393c0,0,0,0,0.287,0.271c1.334,1.258,3.131,2.029,5.109,2.029c4.111,0,7.445-3.334,7.445-7.445
		C54.48,31.487,51.969,28.417,48.582,27.785z"/>
	<path fill="#F0A5C3" d="M31.334,47.476c-0.642,0-1.691,0-2.332,0h-6.571c-0.642,0-1.69,0-2.332,0H2.902
		c-0.642,0-0.878,0.438-0.526,0.975c0,0,0.365,0.557,0.957,1.252c3.036,3.572,7.563,5.84,12.619,5.84c3.652,0,15.877,0,19.529,0
		c5.355,0,10.117-2.543,13.143-6.486c0.389-0.505,0.447-0.598,0.447-0.598c0.346-0.541,0.102-0.982-0.539-0.982H31.334z"/>
	<circle fill="#FFFFFF" cx="47.034" cy="35.069" r="4.095"/>
</g>
</svg>
