<?xml version="1.0" encoding="utf-8"?>
<!-- Generator: Adobe Illustrator 16.0.0, SVG Export Plug-In . SVG Version: 6.00 Build 0)  -->
<!DOCTYPE svg PUBLIC "-//W3C//DTD SVG 1.1//EN" "http://www.w3.org/Graphics/SVG/1.1/DTD/svg11.dtd">
<svg version="1.1" id="Lager_1" xmlns="http://www.w3.org/2000/svg" xmlns:xlink="http://www.w3.org/1999/xlink" x="0px" y="0px"
	 viewBox="0 0 56.693 56.693" enable-background="new 0 0 56.693 56.693" xml:space="preserve">
<g>
	<path fill="#7DC8F0" d="M27.472,1.151c0,0,3.131,4.191,2.313,9.291c-0.635,3.965-2.954,5.368-3.719,9.879
		c-0.607,3.578,1.59,5.875,1.59,5.875s-0.55-2.448,0.626-5.43c1.42-3.6,3.841-5.191,4.857-8.2
		C34.795,7.674,31.99,2.309,27.472,1.151z"/>
	<path fill="#7DC8F0" d="M24.333,3.072c0,0,3.785,2.485,3.104,6.696c-0.487,3.016-2.172,3.636-2.66,6.962
		c0,0-1.699-1.865-1.241-4.612C23.978,9.457,25.575,7.861,24.333,3.072z"/>
	<path fill="#FFB900" d="M48.583,27.785c-0.499-0.105-1.344-0.162-2.714-0.162l-34.767-0.029c-0.642,0-1.628-0.001-2.191-0.001
		s-1.018,0.524-1.009,1.166c0,0,0,0.005,0.03,0.582c0.408,7.565,3.445,14.154,7.892,18.135h4.275c0.641,0,1.69,0,2.332,0h6.57
		c0.643,0,1.691,0,2.333,0h4.272c1.896-1.697,3.536-3.867,4.825-6.386c0.246-0.482,0.246-0.482,0.246-0.482
		c0.25-0.55,0.683-0.728,0.961-0.394c0,0,0,0,0.287,0.271c1.333,1.259,3.13,2.03,5.109,2.03c4.111,0,7.445-3.334,7.445-7.445
		C54.481,31.488,51.952,28.498,48.583,27.785z"/>
	<path fill="#FFE57E" d="M31.334,47.476c-0.642,0-1.69,0-2.333,0h-6.57c-0.642,0-1.691,0-2.332,0H2.901
		c-0.641,0-0.878,0.438-0.525,0.975c0,0,0.366,0.558,0.957,1.253c3.037,3.572,7.563,5.839,12.619,5.839c3.652,0,15.877,0,19.53,0
		c5.354,0,10.115-2.543,13.142-6.486c0.387-0.504,0.446-0.598,0.446-0.598c0.346-0.54,0.103-0.982-0.538-0.982H31.334z"/>
	<circle fill="#FFFFFF" cx="47.035" cy="35.07" r="4.095"/>
</g>
</svg>
