<?xml version="1.0" encoding="utf-8"?>
<!-- Generator: Adobe Illustrator 16.0.0, SVG Export Plug-In . SVG Version: 6.00 Build 0)  -->
<!DOCTYPE svg PUBLIC "-//W3C//DTD SVG 1.1//EN" "http://www.w3.org/Graphics/SVG/1.1/DTD/svg11.dtd">
<svg version="1.1" id="Lager_1" xmlns="http://www.w3.org/2000/svg" xmlns:xlink="http://www.w3.org/1999/xlink" x="0px" y="0px"
	 viewBox="0 0 56.693 56.693" enable-background="new 0 0 56.693 56.693" xml:space="preserve">
<g>
	<path fill="#7DC8F0" d="M27.473,1.151c0,0,3.131,4.191,2.313,9.291c-0.636,3.965-2.954,5.368-3.72,9.879
		c-0.606,3.578,1.591,5.875,1.591,5.875s-0.55-2.448,0.625-5.43c1.42-3.6,3.842-5.191,4.859-8.2
		C34.797,7.674,31.991,2.309,27.473,1.151z"/>
	<path fill="#7DC8F0" d="M24.333,3.072c0,0,3.785,2.485,3.104,6.696c-0.487,3.016-2.172,3.636-2.66,6.962
		c0,0-1.699-1.865-1.242-4.612C23.979,9.457,25.576,7.861,24.333,3.072z"/>
	<path fill="#009FE4" d="M22.432,47.476h6.571c0.642,0,1.69,0,2.332,0h4.272c1.896-1.696,3.537-3.867,4.826-6.386
		c0.246-0.482,0.246-0.482,0.246-0.482c0.248-0.55,0.682-0.727,0.961-0.394c0,0,0,0,0.287,0.271c1.334,1.259,3.129,2.03,5.107,2.03
		c4.113,0,7.445-3.334,7.445-7.445c0-3.582-2.529-6.573-5.896-7.285c-0.5-0.105-1.445-0.162-2.715-0.162l-34.766-0.029
		c-0.643,0-1.628-0.001-2.191-0.001c-0.564,0-1.018,0.524-1.01,1.166c0,0,0,0.005,0.031,0.583
		c0.408,7.565,3.445,14.153,7.892,18.134h4.274C20.741,47.476,21.791,47.476,22.432,47.476z"/>
	<path fill="#7DC8F0" d="M31.335,47.476c-0.642,0-1.69,0-2.332,0h-6.571c-0.642,0-1.691,0-2.333,0H2.902
		c-0.642,0-0.878,0.438-0.525,0.975c0,0,0.366,0.558,0.957,1.253c3.037,3.572,7.563,5.839,12.619,5.839c3.652,0,15.877,0,19.53,0
		c5.355,0,10.115-2.543,13.143-6.486c0.387-0.505,0.447-0.597,0.447-0.597c0.344-0.541,0.102-0.983-0.539-0.983H31.335z"/>
	<circle fill="#FFFFFF" cx="47.035" cy="35.07" r="4.096"/>
</g>
</svg>
