<?xml version="1.0" encoding="utf-8"?>
<!-- Generator: Adobe Illustrator 16.0.0, SVG Export Plug-In . SVG Version: 6.00 Build 0)  -->
<!DOCTYPE svg PUBLIC "-//W3C//DTD SVG 1.1//EN" "http://www.w3.org/Graphics/SVG/1.1/DTD/svg11.dtd">
<svg version="1.1" id="Lager_1" xmlns="http://www.w3.org/2000/svg" xmlns:xlink="http://www.w3.org/1999/xlink" x="0px" y="0px"
	 viewBox="0 0 79.37 79.37" enable-background="new 0 0 79.37 79.37" xml:space="preserve">
<g>
	<path fill="#994916" d="M37.157,29.422c3.859,0,8.984,0.985,11.21-4.833c1.223-3.196,1.881-7.712,5.687-11.53
		c2.37-2.379,3.606-3.909,5.423-5.854c2.119-2.27,3.268-2.574,4.156-2.26c1.568,0.552,1.199,3.059,1.463,4.79
		c0.266,1.729-0.104,1.691,1.893,3.288c1.994,1.596,3.136,2.951,3.668,5.078c0.531,2.129,1.453,2.619,2.315,3.999
		c0.853,1.362,0.649,2.764-0.813,4.893c-1.465,2.129-3.656,2.592-6.131,3.096c-2.514,0.513-4.78,3.882-5.384,8.017
		c-1.273,8.713-1.989,11.391-5.513,17.075c-2.32,3.744-2.756,9.509-2.435,11.715c0.319,2.207,2.043,2.18,2.288,5.1
		c0.196,2.34-1.756,3.764-4.809,3.561c-3.18-0.21-4.857-3.76-4.661-7.501c0.111-2.107,0.056-4.001,0.05-7.298
		c-0.004-2.563-1.706-5.939-5.036-5.968c-4.526-0.038-11.676,0.116-16.189,0c-4.189-0.106-8.005-0.86-9.762,2.309
		c-1.755,3.161-0.992,9.2-0.67,10.346c0.531,1.894,3.394,2.896,2.917,5.382c-0.478,2.484-2.992,3.235-5.704,2.565
		c-2.713-0.671-4.138-3.218-4.697-6.507C5.866,65.591,5.895,47.07,5.895,34.854V14.657c0-6.854,5.187-10.91,10.509-10.91
		c2.131,0,3.899,0.51,5.168,1.313c1.9,1.201,2.681,3.052,1.882,4.808c-0.503,1.106-1.627,1.637-2.925,1.649
		c-1.063,0.011-2.647-0.897-3.729-0.845c-1.767,0.087-3.558,0.902-3.558,4.383c0,3.107-0.013,5.454-0.013,8.78
		c0,3.326,1.276,5.02,5.324,5.322C22.397,29.443,33.167,29.422,37.157,29.422"/>
	<path fill="#FFE57E" d="M64.273,19.422c0,1.14,0.925,2.063,2.065,2.063c1.14,0,2.063-0.923,2.063-2.063
		c0-1.141-0.924-2.064-2.063-2.064C65.198,17.358,64.273,18.282,64.273,19.422"/>
	<path fill="#009FE4" d="M45.826,28.422l15.686,7.75c0.205,0.101,0.455,0.016,0.558-0.188l0.156-0.314
		c0.327,0.533,0.851,0.932,1.47,1.089c0.024,0.005,0.072,0.021,0.072,0.098v0.591c0,0.109-0.074,0.07-0.115,0.034
		c-0.301-0.268-0.688-0.484-1.053-0.459c-0.816,0.054-1.337,0.761-1.282,1.577c0.046,0.685,0.396,1.299,0.969,1.864
		c0.569,0.559,1.229,1.123,1.631,1.452c0.202,0.165,0.528,0.168,0.726,0.008c0.4-0.328,1.066-0.896,1.641-1.459
		c0.573-0.565,0.923-1.18,0.969-1.864c0.056-0.816-0.465-1.522-1.283-1.577c-0.373-0.025-0.771,0.202-1.074,0.479
		c-0.032,0.029-0.092,0.049-0.092-0.041V36.86c0-0.052,0.055-0.098,0.081-0.104c1.047-0.268,1.824-1.218,1.824-2.347
		c0-1.336-1.087-2.423-2.423-2.423c-0.084,0-0.163,0.017-0.244,0.025l0.164-0.331c0.102-0.204,0.017-0.455-0.188-0.556l-15.685-7.75
		c-0.205-0.101-0.455-0.017-0.559,0.188l-2.135,4.304C45.536,28.071,45.621,28.322,45.826,28.422 M63.329,34.409
		c0-0.527,0.429-0.955,0.956-0.955s0.955,0.428,0.955,0.955c0,0.335-0.175,0.63-0.438,0.8v-0.395c0-0.286-0.231-0.518-0.518-0.518
		c-0.285,0-0.518,0.231-0.518,0.518v0.395C63.503,35.04,63.329,34.745,63.329,34.409"/>
	<path fill="#FFB900" d="M60.255,32.043c-0.389,0.341-0.428,0.932-0.086,1.32c0.34,0.388,0.931,0.426,1.318,0.086
		c0.389-0.341,0.426-0.931,0.086-1.32C61.232,31.741,60.642,31.702,60.255,32.043"/>
	<path fill="#FFB900" d="M56.453,30.166c-0.388,0.341-0.427,0.931-0.086,1.319c0.341,0.389,0.932,0.426,1.319,0.086
		c0.389-0.341,0.427-0.931,0.085-1.319C57.431,29.863,56.84,29.824,56.453,30.166"/>
	<path fill="#FFB900" d="M52.651,28.288c-0.388,0.341-0.427,0.931-0.085,1.319c0.34,0.388,0.93,0.426,1.318,0.085
		c0.389-0.341,0.426-0.931,0.086-1.319C53.629,27.985,53.039,27.946,52.651,28.288"/>
	<path fill="#FFB900" d="M48.849,26.409c-0.388,0.341-0.427,0.931-0.085,1.319c0.34,0.388,0.931,0.426,1.319,0.085
		c0.387-0.341,0.426-0.931,0.084-1.319C49.828,26.106,49.237,26.067,48.849,26.409"/>
</g>
</svg>
