<?xml version="1.0" encoding="utf-8"?>
<!-- Generator: Adobe Illustrator 16.0.0, SVG Export Plug-In . SVG Version: 6.00 Build 0)  -->
<!DOCTYPE svg PUBLIC "-//W3C//DTD SVG 1.1//EN" "http://www.w3.org/Graphics/SVG/1.1/DTD/svg11.dtd">
<svg version="1.1" id="Lager_1" xmlns="http://www.w3.org/2000/svg" xmlns:xlink="http://www.w3.org/1999/xlink" x="0px" y="0px"
	 viewBox="0 0 88.951 88.951" enable-background="new 0 0 88.951 88.951" xml:space="preserve">
<path fill="#FFB900" d="M81.084,25.269c-2.211,3.687-8.082,9.06-14.33,9.06s-9.566-4.393-17.572-4.393s-13.375,3.416-18.744,3.416
	c-2.761,0-4.384-1.802-5.583-3.641c-1.199-1.839-2.891-4.457-5.487-6.336c-3.009-2.18-4.63-3.633-6.958-5.438
	c-2.716-2.106-4.026-2.235-4.941-1.736c-1.616,0.88-0.769,3.554-0.753,5.491c0.015,1.937,0.413,1.83-1.487,3.927
	c-1.897,2.095-2.904,3.777-3.11,6.196c-0.204,2.42-1.125,3.118-1.824,4.777c-0.691,1.64-0.222,3.136,1.753,5.203
	c1.975,2.068,4.453,2.186,7.246,2.3c2.569,0.106,6.845,2.029,7.631,7.319c0.025,0.328,0.041,0.654,0.041,0.975
	c0,4.876-3.396,7.561-5.174,9.273c-1.775,1.712-3.414,1.717-5.61,4.104c-1.758,1.913-1.534,5.728,1.791,6.376
	c3.819,0.746,6.452-1.203,9.384-4.135c1.464-1.465,2.996-3.259,5.583-5.832c2.829-2.814,5.742-5.395,14.918-5.395
	c7.962,0,13.095-0.14,13.15,4.944c-0.105,1.042-0.244,1.853-0.346,2.214c-0.588,2.096-3.756,3.205-3.229,5.955
	c0.528,2.752,3.313,3.582,6.313,2.84c3.003-0.741,4.58-3.561,5.199-7.201c0.056-0.33,0.105-0.717,0.15-1.13
	c0.068-0.269,0.119-0.548,0.119-0.845c0-0.148,0-0.307,0-0.463c0.083-1.105,0.123-2.992,0.168-4.51
	c0.261-2.656,0.965-5.097,2.352-7.748c2.245-4.296,6.123-6.066,12.512-9.311c6.507-3.303,12.42-7.886,14.278-12.959
	C90.612,22.865,84.628,19.365,81.084,25.269z"/>
<circle fill="#FFE57E" cx="7.07" cy="32.497" r="2.285"/>
</svg>
