<?xml version="1.0" encoding="utf-8"?>
<!-- Generator: Adobe Illustrator 16.0.0, SVG Export Plug-In . SVG Version: 6.00 Build 0)  -->
<!DOCTYPE svg PUBLIC "-//W3C//DTD SVG 1.1//EN" "http://www.w3.org/Graphics/SVG/1.1/DTD/svg11.dtd">
<svg version="1.1" id="Lager_1" xmlns="http://www.w3.org/2000/svg" xmlns:xlink="http://www.w3.org/1999/xlink" x="0px" y="0px"
	 viewBox="0 0 76.535 76.536" enable-background="new 0 0 76.535 76.536" xml:space="preserve">
<path fill="#FFB900" d="M72.836,51.69c-1.304-2.063-3.312-2.908-5.217-2.041c-1.197,0.545-1.773,1.766-1.789,3.174
	c-0.01,1.151,0.975,2.871,0.918,4.043c-0.096,1.918-0.979,3.861-4.755,3.861c-5.208,0-3.632-7.127-6.821-16.191
	c-2.506-7.123-7.801-10.832-16.332-12.242c-3.188-0.527-7.167-0.116-9.486-5.48c-1.03-3.262-2.149-7.22-5.582-10.665
	c-2.623-2.632-3.993-4.326-6.002-6.479c-2.345-2.513-3.617-2.849-4.602-2.501c-1.735,0.611-1.326,3.385-1.618,5.3
	c-0.294,1.914,0.114,1.872-2.095,3.639c-2.208,1.766-3.47,3.266-4.059,5.621c-0.587,2.357-1.608,2.898-2.563,4.425
	c-0.944,1.508-0.719,3.06,0.9,5.416c1.621,2.356,4.047,2.868,6.786,3.426c2.783,0.567,4.634,2.128,4.97,6.74
	c0.352,4.849-0.106,7.106,3.138,11.398c0.739,1.369,0.993,2.017,1.047,2.527c0.182,1.753,0.171,3.273,0.034,4.213
	c-0.353,2.441-2.261,2.411-2.533,5.645c-0.217,2.588,1.943,4.164,5.323,3.94c3.52-0.233,5.059-3.339,5.059-7.073
	c0-1.183,0.07-3.363,0.07-4.35c0-1.678,1.469-2.975,3.4-1.932c1.126,0.609,2.223,1.275,3.206,2.054
	c1.23,0.974,1.501,2.68-0.156,2.772c-0.554,0.031-1.563,0.125-2.23,0.514c-1.333,0.777-2.28,2.554-1.999,4.332
	c0.313,1.974,1.666,3.57,6.109,3.57c2.519,0,5.146,0,8.527,0c2.582,0,5.604,0,9.355,0c3.307,0,4.426,0,8.585,0
	c7.435,0,11.835-6.277,11.835-12.051C74.26,54.985,73.705,53.067,72.836,51.69z"/>
<circle fill="#FFE57E" cx="11.146" cy="23.191" r="2.285"/>
</svg>
