<?xml version="1.0" encoding="utf-8"?>
<!-- Generator: Adobe Illustrator 16.0.0, SVG Export Plug-In . SVG Version: 6.00 Build 0)  -->
<!DOCTYPE svg PUBLIC "-//W3C//DTD SVG 1.1//EN" "http://www.w3.org/Graphics/SVG/1.1/DTD/svg11.dtd">
<svg version="1.1" id="Lager_1" xmlns="http://www.w3.org/2000/svg" xmlns:xlink="http://www.w3.org/1999/xlink" x="0px" y="0px"
	 viewBox="0 0 106.526 106.526" enable-background="new 0 0 106.526 106.526"
	 xml:space="preserve">
<g>
	<circle fill-rule="evenodd" clip-rule="evenodd" fill="#0A4682" cx="91.262" cy="73.984" r="7.852"/>
	<circle fill-rule="evenodd" clip-rule="evenodd" fill="#FFFFFF" cx="91.262" cy="73.984" r="3.926"/>
	<circle fill-rule="evenodd" clip-rule="evenodd" fill="#0A4682" cx="24.747" cy="73.984" r="7.852"/>
	<circle fill-rule="evenodd" clip-rule="evenodd" fill="#FFFFFF" cx="24.747" cy="73.984" r="3.927"/>
	<path fill="#FFB900" d="M1.383,24.69l71.665,0.076c0.766,0,1.39,0.626,1.39,1.39c0,0,0,32.223,0,33.622
		c0,1.395,1.742,1.268,1.742-0.221c0-0.27,0.017-19.034,0-24.582c-0.005-2.002,0.544-2.724,2.644-2.568
		c6.176,0.452,10.255,0.854,17.869,1.344c1.618,0.105,2.587,0.771,3.144,2.216c1.94,5.028,4.495,11.092,6.195,16.202
		c0.59,1.773,0.497,4.139,0.492,6.09c-0.006,3.76-0.018,8.016-0.158,11.77c-0.026,0.715-0.29,2.045-1.794,2.045
		c-0.2,0-1.307,0-3.08,0c-0.597,0-0.92-0.545-0.999-0.811c-1.175-3.984-4.869-6.9-9.23-6.9c-4.321,0-7.986,2.863-9.196,6.791
		c-0.094,0.301-0.416,0.92-1.144,0.92c-4.051,0-41.856,0-45.858,0c-0.724,0-1.026-0.621-1.12-0.922
		c-1.214-3.928-4.876-6.789-9.196-6.789c-4.278,0-7.914,2.807-9.161,6.676c-0.109,0.34-0.277,1.035-1.133,1.035
		c-0.538,0-1.187,0-1.383,0H1.383c-0.763,0-1.388-0.625-1.388-1.391V26.08C-0.005,25.315,0.62,24.69,1.383,24.69z"/>
	<path fill-rule="evenodd" clip-rule="evenodd" fill="#FFFFFF" d="M81.318,40.816c0-1.826,0-3.194,2.439-3.18
		c1.086,0.007,3.204,0.081,5.155,0.211c8.929,0.596,6.922-0.513,10.427,7.762c0.668,1.57,1.245,3.186,1.761,4.814
		c0.746,2.346,0.06,3.412-2.31,3.201c-3.175,0-11.838,0-13.811,0s-3.662,0.227-3.662-1.898C81.318,49.6,81.318,40.816,81.318,40.816
		z"/>
	<path fill="#FFB900" d="M77.18,30.446c-0.55-0.053-1-0.546-1-1.1v-3.155c0-1.206,0.75-1.693,2.365-1.231
		c1.612,0.46,7.417,2.107,12.564,3.969c2.438,0.882,3.799,3.152,2.188,3.152L77.18,30.446z"/>
</g>
</svg>
