<?xml version="1.0" encoding="utf-8"?>
<!-- Generator: Adobe Illustrator 16.0.0, SVG Export Plug-In . SVG Version: 6.00 Build 0)  -->
<!DOCTYPE svg PUBLIC "-//W3C//DTD SVG 1.1//EN" "http://www.w3.org/Graphics/SVG/1.1/DTD/svg11.dtd">
<svg version="1.1" id="Lager_1" xmlns="http://www.w3.org/2000/svg" xmlns:xlink="http://www.w3.org/1999/xlink" x="0px" y="0px"
	 viewBox="0 0 104.797 104.797" enable-background="new 0 0 104.797 104.797"
	 xml:space="preserve">
<g>
	<circle fill-rule="evenodd" clip-rule="evenodd" fill="#0A4682" cx="36.464" cy="73.146" r="7.809"/>
	<path fill-rule="evenodd" clip-rule="evenodd" fill="#FFFFFF" d="M32.559,73.148c0,2.154,1.75,3.902,3.905,3.902
		c2.157,0,3.906-1.748,3.906-3.902c0-2.158-1.749-3.906-3.906-3.906C34.309,69.242,32.559,70.99,32.559,73.148z"/>
	<circle fill-rule="evenodd" clip-rule="evenodd" fill="#0A4682" cx="15.1" cy="73.146" r="7.809"/>
	<path fill-rule="evenodd" clip-rule="evenodd" fill="#FFFFFF" d="M11.194,73.148c0,2.154,1.75,3.902,3.906,3.902
		c2.155,0,3.903-1.748,3.903-3.902c0-2.158-1.748-3.906-3.903-3.906C12.944,69.242,11.194,70.99,11.194,73.148z"/>
	<g>
		<path fill="#B0CB0B" d="M1.381,23.842l88.729,0.076c0.762,0,1.381,0.622,1.381,1.381c0,0,0,40.64,0,41.087
			c0,0.451,0.124,0.611,0.471,0.611c0.344,0,12.338,0,12.338,0c0.273,0,0.498,0.225,0.498,0.498v3.209
			c0,0.273-0.225,0.498-0.498,0.498H90.11c0,0-1.323,0.002-3.503,0.004l-0.012-0.01c-0.514,0-0.74-0.543-0.819-0.807
			c-1.169-3.961-4.844-6.861-9.181-6.861s-8.01,2.9-9.178,6.861c-0.079,0.264-0.21,0.836-0.844,0.836
			c-0.479,0-20.074,0.02-20.111,0.02c-0.511,0-0.739-0.543-0.817-0.807c-1.173-3.963-4.844-6.863-9.181-6.863s-8.009,2.9-9.18,6.863
			c-0.079,0.264-0.207,0.807-0.842,0.807c-0.479,0-0.784,0-1.264,0c-0.517,0-0.805-0.475-0.87-0.707
			c-1.141-4.012-4.836-6.963-9.209-6.963c-4.388,0-8.097,2.967-9.22,7.004c-0.063,0.219-0.148,0.666-0.741,0.666
			c-0.412,0-3.167,0-3.368,0c-1.19,0-1.77-0.357-1.77-1.475c0-0.15,0-8.703,0-14.432C0.001,55.332,0,55.326,0,55.316V25.225
			C0,24.466,0.621,23.842,1.381,23.842z"/>
	</g>
	<path fill-rule="evenodd" clip-rule="evenodd" fill="#0A4682" d="M76.595,65.289c4.314,0,7.811,3.498,7.811,7.809
		c0,4.313-3.496,7.811-7.811,7.811c-4.311,0-7.81-3.498-7.81-7.811C68.786,68.787,72.285,65.289,76.595,65.289z"/>
	<circle fill-rule="evenodd" clip-rule="evenodd" fill="#FFFFFF" cx="76.597" cy="73.098" r="3.905"/>
</g>
</svg>
