<?xml version="1.0" encoding="utf-8"?>
<!-- Generator: Adobe Illustrator 16.0.0, SVG Export Plug-In . SVG Version: 6.00 Build 0)  -->
<!DOCTYPE svg PUBLIC "-//W3C//DTD SVG 1.1//EN" "http://www.w3.org/Graphics/SVG/1.1/DTD/svg11.dtd">
<svg version="1.1" id="Lager_1" xmlns="http://www.w3.org/2000/svg" xmlns:xlink="http://www.w3.org/1999/xlink" x="0px" y="0px"
	 viewBox="0 0 104.797 104.797" enable-background="new 0 0 104.797 104.797"
	 xml:space="preserve">
<g>
	<circle fill-rule="evenodd" clip-rule="evenodd" fill="#FFB900" cx="36.466" cy="73.146" r="7.809"/>
	<path fill-rule="evenodd" clip-rule="evenodd" fill="#FFFFFF" d="M32.561,73.148c0,2.154,1.747,3.902,3.905,3.902
		c2.155,0,3.902-1.748,3.902-3.902c0-2.158-1.747-3.906-3.902-3.906C34.308,69.242,32.561,70.99,32.561,73.148z"/>
	<circle fill-rule="evenodd" clip-rule="evenodd" fill="#FFB900" cx="15.101" cy="73.146" r="7.809"/>
	<path fill-rule="evenodd" clip-rule="evenodd" fill="#FFFFFF" d="M11.194,73.148c0,2.154,1.751,3.902,3.907,3.902
		s3.902-1.748,3.902-3.902c0-2.158-1.746-3.906-3.902-3.906S11.194,70.99,11.194,73.148z"/>
	<g>
		<path fill="#E6007E" d="M1.381,23.842l88.728,0.076c0.762,0,1.383,0.622,1.383,1.381c0,0,0,40.64,0,41.087
			c0,0.451,0.123,0.611,0.469,0.611c0.348,0,12.34,0,12.34,0c0.273,0,0.496,0.225,0.496,0.498v3.209
			c0,0.273-0.223,0.498-0.496,0.498H90.109c0,0-1.322,0.002-3.502,0.004l-0.012-0.01c-0.514,0-0.74-0.543-0.82-0.807
			c-1.168-3.961-4.844-6.861-9.176-6.861c-4.338,0-8.012,2.9-9.184,6.861c-0.076,0.264-0.205,0.836-0.84,0.836
			c-0.48,0-20.075,0.02-20.115,0.02c-0.511,0-0.738-0.543-0.815-0.807c-1.172-3.963-4.844-6.863-9.18-6.863
			c-4.338,0-8.011,2.9-9.18,6.863c-0.08,0.264-0.209,0.807-0.843,0.807c-0.479,0-0.784,0-1.264,0c-0.517,0-0.805-0.475-0.871-0.707
			c-1.139-4.012-4.835-6.963-9.208-6.963c-4.389,0-8.096,2.967-9.221,7.004c-0.06,0.219-0.148,0.666-0.741,0.666
			c-0.412,0-3.166,0-3.367,0c-1.191,0-1.769-0.357-1.769-1.475c0-0.15,0-8.703-0.002-14.432C0.001,55.332,0,55.326,0,55.316V25.225
			C0,24.466,0.623,23.842,1.381,23.842z"/>
	</g>
	<circle fill-rule="evenodd" clip-rule="evenodd" fill="#FFB900" cx="76.6" cy="73.099" r="7.81"/>
	<path fill-rule="evenodd" clip-rule="evenodd" fill="#FFFFFF" d="M72.693,73.098c0,2.156,1.746,3.904,3.906,3.904
		c2.152,0,3.902-1.748,3.902-3.904c0-2.154-1.75-3.902-3.902-3.902C74.439,69.195,72.693,70.943,72.693,73.098z"/>
</g>
</svg>
