<?xml version="1.0" encoding="utf-8"?>
<!-- Generator: Adobe Illustrator 16.0.0, SVG Export Plug-In . SVG Version: 6.00 Build 0)  -->
<!DOCTYPE svg PUBLIC "-//W3C//DTD SVG 1.1//EN" "http://www.w3.org/Graphics/SVG/1.1/DTD/svg11.dtd">
<svg version="1.1" id="Lager_1" xmlns="http://www.w3.org/2000/svg" xmlns:xlink="http://www.w3.org/1999/xlink" x="0px" y="0px"
	 viewBox="0 0 106.526 106.526" enable-background="new 0 0 106.526 106.526"
	 xml:space="preserve">
<g>
	<circle fill-rule="evenodd" clip-rule="evenodd" fill="#FFB900" cx="91.261" cy="73.984" r="7.852"/>
	<circle fill-rule="evenodd" clip-rule="evenodd" fill="#FFFFFF" cx="91.263" cy="73.984" r="3.928"/>
	<circle fill-rule="evenodd" clip-rule="evenodd" fill="#FFB900" cx="24.748" cy="73.984" r="7.852"/>
	<circle fill-rule="evenodd" clip-rule="evenodd" fill="#FFFFFF" cx="24.748" cy="73.984" r="3.926"/>
	<path fill="#E6007E" d="M1.384,24.69l71.663,0.076c0.766,0,1.393,0.626,1.393,1.39c0,0,0,32.223,0,33.622
		c0,1.395,1.742,1.268,1.742-0.221c0-0.27,0.014-19.034,0-24.582c-0.004-2.002,0.545-2.724,2.643-2.568
		C85,32.859,89.078,33.26,96.693,33.75c1.619,0.105,2.588,0.771,3.143,2.216c1.939,5.028,4.496,11.092,6.195,16.202
		c0.59,1.773,0.496,4.139,0.494,6.09c-0.008,3.76-0.02,8.016-0.158,11.77c-0.027,0.715-0.291,2.045-1.795,2.045
		c-0.201,0-1.309,0-3.082,0c-0.594,0-0.92-0.545-0.998-0.811c-1.176-3.984-4.869-6.9-9.23-6.9c-4.318,0-7.984,2.863-9.197,6.791
		c-0.09,0.301-0.416,0.92-1.143,0.92c-4.051,0-41.855,0-45.858,0c-0.723,0-1.025-0.621-1.119-0.922
		c-1.213-3.928-4.877-6.789-9.196-6.789c-4.28,0-7.915,2.807-9.163,6.676c-0.107,0.34-0.276,1.035-1.132,1.035
		c-0.536,0-1.187,0-1.382,0H1.384c-0.764,0-1.39-0.625-1.39-1.391V26.08C-0.006,25.315,0.62,24.69,1.384,24.69z"/>
	<path fill-rule="evenodd" clip-rule="evenodd" fill="#FFFFFF" d="M81.318,40.816c0-1.826,0-3.194,2.439-3.18
		c1.088,0.007,3.203,0.081,5.156,0.211c8.928,0.596,6.922-0.513,10.428,7.762c0.666,1.57,1.242,3.186,1.76,4.814
		c0.748,2.346,0.061,3.412-2.311,3.201c-3.174,0-11.836,0-13.811,0c-1.971,0-3.662,0.227-3.662-1.898
		C81.318,49.6,81.318,40.816,81.318,40.816z"/>
	<path fill="#E6007E" d="M77.181,30.446c-0.553-0.053-1-0.546-1-1.1v-3.155c0-1.206,0.75-1.693,2.363-1.231
		c1.613,0.46,7.418,2.107,12.564,3.969c2.438,0.882,3.801,3.152,2.189,3.152L77.181,30.446z"/>
</g>
</svg>
