<?xml version="1.0" encoding="utf-8"?>
<!-- Generator: Adobe Illustrator 16.0.0, SVG Export Plug-In . SVG Version: 6.00 Build 0)  -->
<!DOCTYPE svg PUBLIC "-//W3C//DTD SVG 1.1//EN" "http://www.w3.org/Graphics/SVG/1.1/DTD/svg11.dtd">
<svg version="1.1" id="Lager_1" xmlns="http://www.w3.org/2000/svg" xmlns:xlink="http://www.w3.org/1999/xlink" x="0px" y="0px"
	 viewBox="0 0 800 800" enable-background="new 0 0 800 800" xml:space="preserve">
<g>
	<g>
		<g>
			<path fill="#E6007E" d="M788.068,123.638H459.07c-6.456,0-11.747,5.29-11.747,11.758v46.737c0,6.467,5.291,11.758,11.747,11.758
				h17.034c6.466,0,11.746,5.279,11.746,11.747v137.163c0,6.479-5.28,11.77-11.746,11.77h-143.67
				c-6.468,0-11.747-5.291-11.747-11.77v-76.094c0-6.468,5.279-11.77,11.747-11.77h12.518c6.468,0,11.747-5.279,11.747-11.747
				v-53.941c0-6.468-5.279-11.747-11.747-11.747H217.161c-6.468,0-11.748,5.279-11.748,11.747v53.941
				c0,6.468,5.28,11.747,11.748,11.747h16.114c6.468,0,11.758,5.302,11.758,11.77v76.094c0,6.479-5.29,11.77-11.758,11.77h-52.996
				c-6.456,0-11.758,5.279-11.758,11.747v217.475c0,0.066,0.021,0.131,0.021,0.176c0-0.045,0-0.109,0-0.176
				c0-51.037,41.512-92.57,92.55-92.57c51.036,0,92.56,41.533,92.56,92.57c0,3.98-0.286,7.92-0.78,11.748h19.259
				c-0.494-3.828-0.78-7.768-0.78-11.748c0-51.037,41.533-92.57,92.565-92.57c51.038,0,92.549,41.533,92.549,92.57
				c0,3.98-0.265,7.92-0.77,11.748h19.249c-0.484-3.828-0.77-7.768-0.77-11.748c0-51.037,41.533-92.57,92.571-92.57
				c51.036,0,92.549,41.533,92.549,92.57V366.317c0-6.468,0-17.038,0-23.517V205.638c0-6.468,5.279-11.747,11.747-11.747h17.026
				c6.468,0,11.77-5.291,11.77-11.758v-46.737C799.838,128.928,794.536,123.638,788.068,123.638z"/>
		</g>
		<path fill="#FFFFFF" d="M261.093,532.688c-28.181,0-51.093,22.924-51.093,51.104c0,28.182,22.912,51.104,51.093,51.104
			c28.18,0,51.103-22.922,51.103-51.104C312.195,555.612,289.272,532.688,261.093,532.688z"/>
		<path fill="#FFFFFF" d="M463.916,532.688c-28.176,0-51.099,22.924-51.099,51.104c0,28.182,22.923,51.104,51.099,51.104
			c28.181,0,51.104-22.922,51.104-51.104C515.02,555.612,492.097,532.688,463.916,532.688z"/>
		<path fill="#FFFFFF" d="M666.746,532.688c-28.181,0-51.104,22.924-51.104,51.104c0,28.182,22.924,51.104,51.104,51.104
			c28.18,0,51.102-22.922,51.102-51.104C717.848,555.612,694.926,532.688,666.746,532.688z"/>
	</g>
	<g>
		<path fill="#009FE4" d="M261.093,491.222c-51.038,0-92.55,41.533-92.55,92.57s41.512,92.57,92.55,92.57
			c51.036,0,92.56-41.533,92.56-92.57S312.129,491.222,261.093,491.222z M261.093,634.896c-28.181,0-51.093-22.922-51.093-51.104
			c0-28.18,22.912-51.104,51.093-51.104c28.18,0,51.103,22.924,51.103,51.104C312.195,611.974,289.272,634.896,261.093,634.896z"/>
		<path fill="#009FE4" d="M463.916,491.222c-51.032,0-92.565,41.533-92.565,92.57s41.533,92.57,92.565,92.57
			c51.038,0,92.549-41.533,92.549-92.57S514.954,491.222,463.916,491.222z M463.916,634.896c-28.176,0-51.099-22.922-51.099-51.104
			c0-28.18,22.923-51.104,51.099-51.104c28.181,0,51.104,22.924,51.104,51.104C515.02,611.974,492.097,634.896,463.916,634.896z"/>
		<path fill="#009FE4" d="M666.746,491.222c-51.038,0-92.571,41.533-92.571,92.57s41.533,92.57,92.571,92.57
			c51.036,0,92.549-41.533,92.549-92.57S717.782,491.222,666.746,491.222z M666.746,634.896c-28.181,0-51.104-22.922-51.104-51.104
			c0-28.18,22.924-51.104,51.104-51.104c28.18,0,51.102,22.924,51.102,51.104C717.848,611.974,694.926,634.896,666.746,634.896z"/>
	</g>
	<path fill="#E6007E" d="M141.782,483.39c4.443-4.707,8.084-3.256,8.084,3.211v154.277c0,6.469-5.291,11.748-11.747,11.748H6.324
		c-6.457,0-8.106-3.828-3.674-8.535L141.782,483.39z"/>
	<path fill="#FFFFFF" d="M699.919,342.734c0,6.468-5.302,11.759-11.747,11.759H558.973c-6.468,0-11.747-5.291-11.747-11.759V206.133
		c0-6.457,5.279-11.759,11.747-11.759h129.199c6.445,0,11.747,5.302,11.747,11.759V342.734z"/>
	<path fill="#F0A5C3" d="M487.477,583.792c0,13.023-10.559,23.561-23.561,23.561c-13.019,0-23.555-10.537-23.555-23.561
		s10.536-23.561,23.555-23.561C476.918,560.231,487.477,570.769,487.477,583.792z"/>
	<path fill="#F0A5C3" d="M690.307,583.792c0,13.023-10.56,23.561-23.561,23.561c-13.024,0-23.584-10.537-23.584-23.561
		s10.56-23.561,23.584-23.561C679.747,560.231,690.307,570.769,690.307,583.792z"/>
	<path fill="#F0A5C3" d="M284.653,583.792c0,13.023-10.538,23.561-23.55,23.561c-13.023,0-23.571-10.537-23.571-23.561
		s10.548-23.561,23.571-23.561C274.115,560.231,284.653,570.769,284.653,583.792z"/>
</g>
</svg>
