<?xml version="1.0" encoding="utf-8"?>
<!-- Generator: Adobe Illustrator 16.0.0, SVG Export Plug-In . SVG Version: 6.00 Build 0)  -->
<!DOCTYPE svg PUBLIC "-//W3C//DTD SVG 1.1//EN" "http://www.w3.org/Graphics/SVG/1.1/DTD/svg11.dtd">
<svg version="1.1" id="Lager_1" xmlns="http://www.w3.org/2000/svg" xmlns:xlink="http://www.w3.org/1999/xlink" x="0px" y="0px"
	 viewBox="0 0 96.746 96.747" enable-background="new 0 0 96.746 96.747" xml:space="preserve">
<g>
	<g>
		<path fill="#FFB900" d="M72.636,33.863"/>
	</g>
	<g>
		<path fill="#FFB900" d="M45.437,64.216"/>
	</g>
	<g>
		<path fill="#FFB900" d="M76.694,40.219c0.043-0.04,0.095-0.063,0.156-0.063L76.694,40.219z"/>
	</g>
	<path fill="#FFFFFF" d="M82.393,62.359c1.024,0,1.856,0.833,1.856,1.857c0,1.023-0.832,1.855-1.856,1.855
		c-1.022,0-1.856-0.832-1.856-1.855C80.536,63.192,81.37,62.359,82.393,62.359z"/>
	<path fill="#B0CB0B" d="M70.346,39.447l-2.933-7.007h-0.254c0.368-0.411,0.594-0.952,0.594-1.547c0-0.595-0.226-1.137-0.594-1.547
		h1.283c0.623,0,1.187,0.375,1.427,0.95l3.454,8.25c-0.729,0.572-1.628,0.901-2.594,0.901
		C70.606,39.447,70.478,39.447,70.346,39.447z"/>
	<g>
		<path fill="#7DC8F0" d="M62.238,33.213h3.194c1.282,0,2.32-1.039,2.32-2.32s-1.038-2.321-2.32-2.321h-3.194
			c-1.282,0-2.321,1.04-2.321,2.321S60.956,33.213,62.238,33.213z"/>
	</g>
	<g>
		<path fill="#FFB900" d="M75.979,51.382c-2.285,2.094-4.106,3.78-4.479,4.177c-0.077,0.081-0.152,0.162-0.228,0.243
			c1.606-1.148,3.38-1.82,5.038-2.106l0.953,2.279c-2.748,1.717-4.583,4.769-4.583,8.241c0,5.354,4.356,9.709,9.713,9.709
			c5.353,0,9.71-4.355,9.71-9.709c0-5.354-4.357-9.711-9.71-9.711c-0.784,0-1.546,0.096-2.275,0.271l-0.523-1.25
			c2.702,0,8.679,0,12.362,0c2.936,2.631,4.787,6.447,4.787,10.689c0,7.914-6.438,14.352-14.351,14.352
			c-7.915,0-14.354-6.438-14.354-14.352C68.041,58.607,71.276,53.743,75.979,51.382z"/>
	</g>
	<g>
		<path fill="#7DC8F0" d="M34.468,47.095c-3.047,0-4.943-0.837-7.373-4.325c-1.356-1.948-2.471-3.557-3.384-4.884h19.007
			c-1.111,2.419-1.473,3.183-2.351,5.232C39.508,45.123,38.266,47.095,34.468,47.095z"/>
	</g>
	<path fill="#B0CB0B" d="M77.442,64.216c0,2.729,2.221,4.949,4.95,4.949c2.73,0,4.952-2.22,4.952-4.949
		c0-2.73-2.222-4.951-4.952-4.951c-0.13,0-0.259,0.01-0.387,0.02l-2.41-5.758c-0.875,0-1.408,0-1.408,0
		c-0.597,0-1.228,0.057-1.876,0.169l2.841,6.786C78.106,61.39,77.442,62.726,77.442,64.216z M80.536,64.216
		c0-0.119,0.012-0.235,0.033-0.348c0.164-0.857,0.918-1.51,1.823-1.51c0.382,0,0.736,0.117,1.032,0.314
		c0.497,0.334,0.824,0.9,0.824,1.543c0,1.023-0.832,1.855-1.856,1.855C81.37,66.072,80.536,65.24,80.536,64.216z"/>
	<g>
		<g>
			<path fill="#7DC8F0" d="M80.509,47.249c0.618-0.067,1.246-0.105,1.883-0.105c5.125,0,9.722,2.26,12.851,5.837
				c0.158,0.18,0.198,0.547-0.179,0.547c-0.376,0-16.876,0-16.876,0c-2.119,0-4.679,0.676-6.914,2.275
				c0.075-0.081,0.15-0.162,0.228-0.243C72.104,54.917,76.493,50.902,80.509,47.249z"/>
		</g>
	</g>
	<path fill="#B0CB0B" d="M0.136,38.073c0.329-1.382,1.971-6,9.267-6c6.483,0,9.101,0,9.992,0c0.288,0,0.454,0.094,0.607,0.33
		c0.551,0.847,2.33,3.53,7.093,10.367c2.43,3.488,4.326,4.325,7.373,4.325c3.798,0,5.04-1.973,5.899-3.978
		c1.06-2.474,1.366-3.072,3.151-6.978c1.525-3.337,2.832-4.639,5.443-4.639c1.462,0,5.076,0,7.107,0c0.355,0,1.02,0.407,1.02,0.407
		s7.67,6.857,7.967,7.078c0.297,0.222,0.788,0.46,1.219,0.46c1.055,0,3.072,0,4.455,0c3.908,0,6.727-5.37,1.577-10.519
		c-2.723-2.723-4.284-6.341-1.565-10.506c0.088-0.135,0.251-0.438,0.623-0.063c1.576,1.59,8.186,8.185,11.235,11.235
		c2.857,2.858,4.269,5.749,4.681,9.12c0.039,0.322,0.066,0.65,0.092,0.982c0.064,0.86-0.213,1.518-0.66,1.922
		c-2.943,2.665-14.216,12.883-15.211,13.94c-2.744,2.915-4.289,5.259-5.146,8.804c-0.462,1.911-0.729,3.646-0.873,4.828
		c-0.123,0.98-0.473,1.578-1.428,1.578c-0.956,0-32.63,0-32.63,0s-0.33-0.012-0.535-0.029c-2.33-0.221-16.707-1.576-16.782-1.58
		C11.49,69.032,9.4,66.863,9.4,64.216c0-2.629,2.061-4.785,4.65-4.942c0.1-0.007,14.967-1.587,15.38-1.681
		c0.479-0.106,0.432-0.518,0.326-0.738c-1.406-2.938-3.627-5.412-6.371-7.127c-0.934-0.584-4.236-2.209-6.075-3.078
		c-5.569-2.635-16.808-7.955-16.94-8.045C0.194,38.487,0.079,38.316,0.136,38.073z"/>
	<g>
		<path fill="#FFB900" d="M14.354,49.863c5.63,0,10.511,3.262,12.86,7.994c-1.366,0.152-3.207,0.353-5.081,0.555
			c-1.771-2.369-4.6-3.906-7.779-3.906c-5.355,0-9.712,4.356-9.712,9.711c0,5.354,4.356,9.709,9.712,9.709
			c3.223,0,6.084-1.58,7.851-4.006c1.774,0.168,3.577,0.338,5.098,0.481c-2.314,4.826-7.248,8.167-12.948,8.167
			c-7.915,0-14.353-6.438-14.353-14.352S6.438,49.863,14.354,49.863z"/>
	</g>
	<g>
		<path fill="#FFFFFF" d="M14.352,62.359c1.024,0,1.858,0.833,1.858,1.857c0,1.023-0.834,1.855-1.858,1.855
			c-1.022,0-1.854-0.832-1.854-1.855C12.497,63.192,13.329,62.359,14.352,62.359z"/>
	</g>
</g>
</svg>
