<?xml version="1.0" encoding="utf-8"?>
<!-- Generator: Adobe Illustrator 16.0.0, SVG Export Plug-In . SVG Version: 6.00 Build 0)  -->
<!DOCTYPE svg PUBLIC "-//W3C//DTD SVG 1.1//EN" "http://www.w3.org/Graphics/SVG/1.1/DTD/svg11.dtd">
<svg version="1.1" id="Lager_1" xmlns="http://www.w3.org/2000/svg" xmlns:xlink="http://www.w3.org/1999/xlink" x="0px" y="0px"
	 viewBox="0 0 96.746 96.747" enable-background="new 0 0 96.746 96.747" xml:space="preserve">
<g>
	<g>
		<path fill="#FFB900" d="M72.636,33.863"/>
	</g>
	<g>
		<path fill="#FFB900" d="M45.438,64.215"/>
	</g>
	<g>
		<path fill="#FFB900" d="M76.696,40.219c0.043-0.04,0.094-0.063,0.154-0.063L76.696,40.219z"/>
	</g>
	<circle fill="#FFFFFF" cx="82.394" cy="64.216" r="1.857"/>
	<path fill="#E6007E" d="M70.347,39.447l-2.934-7.007h-0.252c0.367-0.411,0.594-0.952,0.594-1.547c0-0.595-0.227-1.137-0.594-1.547
		h1.283c0.623,0,1.186,0.375,1.426,0.95l3.455,8.25c-0.729,0.572-1.627,0.901-2.596,0.901
		C70.608,39.447,70.478,39.447,70.347,39.447z"/>
	<g>
		<path fill="#FFB900" d="M62.239,33.213h3.195c1.281,0,2.32-1.039,2.32-2.32s-1.039-2.321-2.32-2.321h-3.195
			c-1.281,0-2.32,1.04-2.32,2.321S60.958,33.213,62.239,33.213z"/>
	</g>
	<g>
		<path fill="#FFB900" d="M75.979,51.383c-2.285,2.092-4.105,3.779-4.479,4.176c-0.076,0.081-0.15,0.162-0.227,0.243
			c1.605-1.148,3.381-1.82,5.039-2.106l0.953,2.279c-2.748,1.717-4.584,4.768-4.584,8.241c0,5.354,4.357,9.71,9.711,9.71
			c5.355,0,9.711-4.355,9.711-9.71s-4.355-9.71-9.711-9.71c-0.783,0-1.543,0.095-2.273,0.271l-0.523-1.25c2.703,0,8.678,0,12.363,0
			c2.936,2.631,4.785,6.447,4.785,10.688c0,7.913-6.438,14.352-14.352,14.352c-7.912,0-14.352-6.438-14.352-14.352
			C68.042,58.608,71.278,53.743,75.979,51.383z"/>
	</g>
	<g>
		<path fill="#FFB900" d="M34.469,47.096c-3.048,0-4.944-0.838-7.374-4.326c-1.355-1.947-2.471-3.557-3.383-4.884h19.006
			c-1.111,2.419-1.472,3.183-2.35,5.232C39.509,45.124,38.267,47.096,34.469,47.096z"/>
	</g>
	<path fill="#E6007E" d="M77.442,64.215c0,2.73,2.221,4.951,4.951,4.951s4.951-2.221,4.951-4.951c0-2.729-2.221-4.951-4.951-4.951
		c-0.131,0-0.26,0.01-0.387,0.021l-2.41-5.757c-0.875,0-1.408,0-1.408,0c-0.596,0-1.227,0.057-1.875,0.168l2.84,6.785
		C78.108,61.391,77.442,62.725,77.442,64.215z M80.538,64.215c0-0.119,0.012-0.234,0.033-0.347c0.162-0.857,0.918-1.51,1.822-1.51
		c0.383,0,0.736,0.116,1.031,0.313c0.498,0.335,0.826,0.902,0.826,1.543c0,1.024-0.834,1.857-1.857,1.857
		S80.538,65.24,80.538,64.215z"/>
	<g>
		<g>
			<path fill="#E6007E" d="M80.511,47.249c0.617-0.068,1.246-0.105,1.883-0.105c5.125,0,9.721,2.26,12.85,5.836
				c0.158,0.18,0.199,0.549-0.178,0.549s-16.877,0-16.877,0c-2.119,0-4.68,0.676-6.914,2.274c0.076-0.081,0.15-0.162,0.227-0.243
				C72.104,54.917,76.493,50.902,80.511,47.249z"/>
		</g>
	</g>
	<path fill="#E6007E" d="M0.138,38.073c0.327-1.382,1.97-6,9.266-6c6.482,0,9.1,0,9.992,0c0.288,0,0.454,0.094,0.607,0.33
		c0.551,0.847,2.33,3.53,7.092,10.367c2.43,3.488,4.326,4.326,7.374,4.326c3.798,0,5.04-1.973,5.899-3.979
		c1.061-2.475,1.365-3.072,3.152-6.978c1.523-3.337,2.83-4.639,5.443-4.639c1.461,0,5.076,0,7.105,0c0.355,0,1.02,0.407,1.02,0.407
		s7.67,6.857,7.969,7.078c0.297,0.222,0.787,0.46,1.219,0.46c1.053,0,3.072,0,4.453,0c3.91,0,6.727-5.37,1.578-10.519
		c-2.723-2.723-4.283-6.341-1.566-10.506c0.09-0.135,0.252-0.438,0.625-0.063c1.574,1.59,8.184,8.185,11.234,11.235
		c2.857,2.858,4.268,5.749,4.682,9.12c0.039,0.322,0.066,0.65,0.092,0.982c0.064,0.86-0.215,1.519-0.66,1.921
		C83.769,44.284,72.497,54.5,71.501,55.559c-2.744,2.915-4.287,5.26-5.145,8.805c-0.463,1.91-0.729,3.646-0.875,4.826
		c-0.121,0.98-0.471,1.578-1.428,1.578c-0.955,0-32.628,0-32.628,0s-0.33-0.01-0.535-0.029c-2.33-0.22-16.707-1.574-16.783-1.578
		c-2.615-0.129-4.705-2.299-4.705-4.945c0-2.628,2.061-4.785,4.65-4.941c0.1-0.006,14.967-1.587,15.381-1.68
		c0.479-0.107,0.432-0.52,0.325-0.74c-1.406-2.938-3.628-5.411-6.37-7.127c-0.934-0.584-4.237-2.208-6.076-3.078
		c-5.57-2.634-16.809-7.954-16.94-8.044C0.196,38.487,0.08,38.316,0.138,38.073z"/>
	<g>
		<path fill="#FFB900" d="M14.355,49.864c5.63,0,10.512,3.262,12.859,7.992c-1.365,0.152-3.207,0.354-5.08,0.555
			c-1.772-2.369-4.6-3.904-7.779-3.904c-5.355,0-9.712,4.355-9.712,9.71s4.356,9.71,9.712,9.71c3.223,0,6.083-1.58,7.85-4.006
			c1.777,0.168,3.578,0.338,5.098,0.48c-2.313,4.826-7.247,8.167-12.947,8.167c-7.915,0-14.354-6.438-14.354-14.352
			C0.001,56.301,6.44,49.864,14.355,49.864z"/>
	</g>
	<g>
		<circle fill="#FFFFFF" cx="14.353" cy="64.216" r="1.857"/>
	</g>
</g>
</svg>
