<?xml version="1.0" encoding="utf-8"?>
<!-- Generator: Adobe Illustrator 16.0.0, SVG Export Plug-In . SVG Version: 6.00 Build 0)  -->
<!DOCTYPE svg PUBLIC "-//W3C//DTD SVG 1.1//EN" "http://www.w3.org/Graphics/SVG/1.1/DTD/svg11.dtd">
<svg version="1.1" id="Lager_1" xmlns="http://www.w3.org/2000/svg" xmlns:xlink="http://www.w3.org/1999/xlink" x="0px" y="0px"
	 viewBox="0 0 67.38 67.379" enable-background="new 0 0 67.38 67.379" xml:space="preserve">
<g>
	<g>
		<path fill="#7DC8F0" d="M66.14,47.3c-0.607-1.436-1.467-3.445-2.469-5.752c-14.492,0-33.77,0-38.577,0
			c-4.945,0-8.955-4.01-8.955-8.955c0-1.506,0.242-3.045,0.992-4.281c1.668-2.751,3.854-3.844,6.848-4.509
			c2.773-0.616,16.868-2.289,29.077-3.679C46.923,11.541,38.757,7.349,26.346,7.349C11.86,7.349,0.108,19.046,0.01,33.509
			c-0.002,0.061-0.005,0.121-0.005,0.182c0,2.846,0.457,5.584,1.292,8.152l1.56,3.764c1.87,3.678,4.315,6.576,7.298,10.303
			c2.768,3.461,5.33,4.121,8.446,4.121c9.233,0,34.492,0,39.451,0C66.249,60.031,69.323,54.824,66.14,47.3z"/>
		<path fill="#009FE4" d="M17.131,28.312c-0.75,1.236-0.992,2.775-0.992,4.281c0,4.945,4.01,8.955,8.955,8.955
			c4.807,0,24.084,0,38.577,0c-1.701-3.91-3.807-8.672-5.773-12.924c-1.48-3.202-3.078-6.032-4.842-8.5
			c-12.209,1.39-26.303,3.063-29.077,3.679C20.985,24.468,18.799,25.561,17.131,28.312z"/>
	</g>
	<circle fill="#7DC8F0" cx="22.621" cy="30.039" r="2.968"/>
</g>
</svg>
