<?xml version="1.0" encoding="utf-8"?>
<!-- Generator: Adobe Illustrator 16.0.0, SVG Export Plug-In . SVG Version: 6.00 Build 0)  -->
<!DOCTYPE svg PUBLIC "-//W3C//DTD SVG 1.1//EN" "http://www.w3.org/Graphics/SVG/1.1/DTD/svg11.dtd">
<svg version="1.1" id="Lager_1" xmlns="http://www.w3.org/2000/svg" xmlns:xlink="http://www.w3.org/1999/xlink" x="0px" y="0px"
	 viewBox="0 0 67.379 67.379" enable-background="new 0 0 67.379 67.379" xml:space="preserve">
<g>
	<g>
		<path fill="#E6007E" d="M66.14,47.3c-0.607-1.436-1.469-3.447-2.471-5.752c-14.492,0-33.769,0-38.574,0
			c-4.946,0-8.956-4.012-8.956-8.957c0-1.504,0.242-3.043,0.991-4.279c1.67-2.752,3.855-3.845,6.848-4.51
			c2.773-0.615,16.867-2.288,29.077-3.679C46.921,11.54,38.757,7.349,26.346,7.349c-14.487,0-26.239,11.696-26.337,26.161
			c0,0.061-0.004,0.119-0.004,0.18c0,2.846,0.457,5.586,1.291,8.152l1.561,3.766c1.87,3.678,4.315,6.576,7.297,10.303
			c2.77,3.459,5.33,4.121,8.447,4.121c9.232,0,34.491,0,39.449,0C66.248,60.031,69.324,54.822,66.14,47.3z"/>
		<path fill="#F0A5C3" d="M17.13,28.312c-0.749,1.236-0.991,2.775-0.991,4.279c0,4.945,4.01,8.957,8.956,8.957
			c4.806,0,24.082,0,38.574,0c-1.699-3.912-3.805-8.674-5.771-12.924c-1.48-3.203-3.078-6.033-4.843-8.501
			c-12.21,1.391-26.304,3.063-29.077,3.679C20.986,24.467,18.8,25.56,17.13,28.312z"/>
	</g>
	<circle fill="#E6007E" cx="22.621" cy="30.039" r="2.968"/>
</g>
</svg>
