<?xml version="1.0" encoding="utf-8"?>
<!-- Generator: Adobe Illustrator 16.0.0, SVG Export Plug-In . SVG Version: 6.00 Build 0)  -->
<!DOCTYPE svg PUBLIC "-//W3C//DTD SVG 1.1//EN" "http://www.w3.org/Graphics/SVG/1.1/DTD/svg11.dtd">
<svg version="1.1" id="Lager_1" xmlns="http://www.w3.org/2000/svg" xmlns:xlink="http://www.w3.org/1999/xlink" x="0px" y="0px"
	 viewBox="0 0 67.38 67.379" enable-background="new 0 0 67.38 67.379" xml:space="preserve">
<g>
	<g>
		<path fill="#D2E182" d="M66.141,47.3c-0.607-1.436-1.468-3.445-2.471-5.752c-14.492,0-33.768,0-38.574,0
			c-4.945,0-8.956-4.01-8.956-8.955c0-1.506,0.243-3.045,0.991-4.281c1.67-2.751,3.855-3.844,6.848-4.509
			c2.775-0.616,16.867-2.289,29.078-3.679c-6.135-8.583-14.3-12.775-26.711-12.775C11.86,7.349,0.107,19.046,0.01,33.509
			c0,0.061-0.004,0.121-0.004,0.182c0,2.846,0.457,5.584,1.292,8.152l1.56,3.764c1.869,3.678,4.315,6.576,7.297,10.303
			c2.769,3.461,5.331,4.121,8.447,4.121c9.232,0,34.491,0,39.449,0C66.248,60.031,69.324,54.824,66.141,47.3z"/>
		<path fill="#B0CB0B" d="M17.131,28.312c-0.748,1.236-0.991,2.775-0.991,4.281c0,4.945,4.011,8.955,8.956,8.955
			c4.807,0,24.082,0,38.574,0c-1.699-3.91-3.805-8.672-5.771-12.924c-1.48-3.202-3.078-6.032-4.842-8.5
			c-12.211,1.39-26.303,3.063-29.078,3.679C20.986,24.468,18.801,25.561,17.131,28.312z"/>
	</g>
	<circle fill="#D2E182" cx="22.622" cy="30.039" r="2.968"/>
</g>
</svg>
