<?xml version="1.0" encoding="utf-8"?>
<!-- Generator: Adobe Illustrator 16.0.0, SVG Export Plug-In . SVG Version: 6.00 Build 0)  -->
<!DOCTYPE svg PUBLIC "-//W3C//DTD SVG 1.1//EN" "http://www.w3.org/Graphics/SVG/1.1/DTD/svg11.dtd">
<svg version="1.1" id="Lager_1" xmlns="http://www.w3.org/2000/svg" xmlns:xlink="http://www.w3.org/1999/xlink" x="0px" y="0px"
	 viewBox="0 0 53.433 53.433" enable-background="new 0 0 53.433 53.433" xml:space="preserve">
<g>
	<g>
		<path fill="#E6007E" d="M19.746,0c-0.699,0-1.271,0.571-1.271,1.271v3.397c0,0.699,0,1.842,0,2.541v5.9
			c0,0.553,0.256,1.276,0.611,1.797c0.004,0.006,0.298,0.429,0.763,1.097V0H19.746z"/>
		<path fill="#E6007E" d="M33.686,0h-0.104v15.998c0.523-0.755,0.861-1.244,0.871-1.26c0.298-0.5,0.503-1.133,0.503-1.629v-5.9
			c0-0.699,0-1.842,0-2.541V1.271C34.957,0.571,34.385,0,33.686,0z"/>
		<path fill="#F0A5C3" d="M19.849,0v16.002c0.37,0.531,0.848,1.218,1.374,1.975V0H19.849z"/>
		<path fill="#F0A5C3" d="M32.209,0v17.98c0.518-0.748,0.994-1.435,1.373-1.982V0H32.209z"/>
	</g>
	<path fill="#E6007E" d="M21.223,0v17.977c2.026,2.911,4.77,6.855,4.826,6.938c0.147,0.218,0.397,0.361,0.68,0.361
		c0.298,0,0.559-0.158,0.702-0.396c0.047-0.076,2.741-3.961,4.778-6.9V0H21.223z"/>
	<g>
		<path fill="#FFB900" d="M32.748,27.422c-0.477-0.234-1.146-0.581-1.337-0.747c-0.634-0.552-0.854-0.992-0.938-2.273
			c-0.064-0.994-0.418-1.858-0.978-2.508c-0.387,0.559-0.745,1.076-1.051,1.518c0.169,0.292,0.267,0.63,0.267,0.99
			c0,1.1-0.896,1.996-1.996,1.996c-1.1,0-1.993-0.896-1.993-1.996c0-0.365,0.1-0.709,0.273-1.004
			c-0.311-0.445-0.673-0.966-1.062-1.525c-0.085,0.1-0.166,0.201-0.242,0.309c-0.346,0.471-0.584,1.021-0.682,1.623
			c-0.037,0.193-0.066,0.393-0.08,0.598c-0.083,1.281-0.303,1.722-0.938,2.273c-0.223,0.193-1.05,0.632-1.191,0.689
			c-4.607,2.207-7.789,6.914-7.789,12.364c0,7.568,6.135,13.704,13.703,13.704S40.42,47.297,40.42,39.729
			C40.42,34.325,37.29,29.656,32.748,27.422z M26.715,51.542c-6.514,0-11.812-5.3-11.812-11.813c0-6.514,5.298-11.813,11.812-11.813
			c6.515,0,11.813,5.3,11.813,11.813C38.529,46.242,33.23,51.542,26.715,51.542z"/>
		<path fill="#FFE57E" d="M26.715,27.916c-6.514,0-11.812,5.3-11.812,11.813c0,6.513,5.298,11.813,11.812,11.813
			c6.515,0,11.813-5.3,11.813-11.813C38.529,33.215,33.23,27.916,26.715,27.916z M26.715,49.972
			c-5.647,0-10.243-4.595-10.243-10.243c0-5.649,4.596-10.244,10.243-10.244c5.649,0,10.245,4.595,10.245,10.244
			C36.96,45.377,32.365,49.972,26.715,49.972z"/>
	</g>
	<g>
		<path fill="#FFB900" d="M26.715,29.485c-5.647,0-10.243,4.595-10.243,10.244c0,5.648,4.596,10.243,10.243,10.243
			c5.649,0,10.245-4.595,10.245-10.243C36.96,34.08,32.365,29.485,26.715,29.485z M31.138,46.626
			c-2.805-0.008-5.609-0.007-8.415-0.001c-0.326,0.001-0.46-0.126-0.45-0.452c0.015-0.465,0.022-0.932-0.003-1.395
			c-0.02-0.385,0.121-0.533,0.511-0.524c0.817,0.019,1.635,0.005,2.453,0.005c0.14,0,0.279,0,0.452,0c0-3.047,0-6.029,0-9.09
			c-0.726,0.506-1.4,0.977-2.073,1.447c-0.526,0.368-0.526,0.369-0.883-0.146c-0.258-0.37-0.506-0.746-0.773-1.108
			c-0.188-0.256-0.172-0.443,0.101-0.631c1.23-0.845,2.452-1.701,3.683-2.547c0.099-0.068,0.229-0.121,0.347-0.124
			c0.677-0.013,1.354-0.002,2.03-0.01c0.328-0.003,0.348,0.201,0.347,0.449c-0.004,1.438-0.002,2.876-0.002,4.313
			c0,2.313,0,4.624,0,6.936c0,0.152,0,0.305,0,0.51c0.847,0,1.659,0,2.472,0.001c0.631,0.001,0.644,0.015,0.645,0.636
			c0,0.424-0.009,0.846,0.003,1.27C31.588,46.48,31.473,46.626,31.138,46.626z"/>
		<path fill="#FFE57E" d="M31.578,44.896c-0.001-0.621-0.014-0.635-0.645-0.636c-0.813-0.001-1.625-0.001-2.472-0.001
			c0-0.205,0-0.357,0-0.51c0-2.312,0-4.623,0-6.936c0-1.438-0.002-2.875,0.002-4.313c0.001-0.248-0.019-0.452-0.347-0.449
			c-0.677,0.008-1.354-0.003-2.03,0.01c-0.117,0.003-0.248,0.056-0.347,0.124c-1.23,0.846-2.452,1.702-3.683,2.547
			c-0.272,0.188-0.289,0.375-0.101,0.631c0.268,0.362,0.516,0.738,0.773,1.108c0.356,0.515,0.356,0.514,0.883,0.146
			c0.673-0.471,1.348-0.941,2.073-1.447c0,3.061,0,6.043,0,9.09c-0.173,0-0.313,0-0.452,0c-0.818,0-1.636,0.014-2.453-0.005
			c-0.39-0.009-0.53,0.14-0.511,0.524c0.025,0.463,0.018,0.93,0.003,1.395c-0.01,0.326,0.124,0.453,0.45,0.452
			c2.806-0.006,5.61-0.007,8.415,0.001c0.335,0,0.45-0.146,0.442-0.461C31.569,45.742,31.578,45.32,31.578,44.896z"/>
	</g>
</g>
</svg>
