<?xml version="1.0" encoding="utf-8"?>
<!-- Generator: Adobe Illustrator 16.0.0, SVG Export Plug-In . SVG Version: 6.00 Build 0)  -->
<!DOCTYPE svg PUBLIC "-//W3C//DTD SVG 1.1//EN" "http://www.w3.org/Graphics/SVG/1.1/DTD/svg11.dtd">
<svg version="1.1" id="Lager_1" xmlns="http://www.w3.org/2000/svg" xmlns:xlink="http://www.w3.org/1999/xlink" x="0px" y="0px"
	 viewBox="0 0 62.362 62.362" enable-background="new 0 0 62.362 62.362" xml:space="preserve">
<g>
	<g>
		<path fill="#009EE2" d="M36.073,56.153c-0.053,0.102-0.109,0.204-0.172,0.301C35.961,56.355,36.022,56.255,36.073,56.153z"/>
		<path fill="#009EE2" d="M3.167,56.468c-0.004-0.004-0.006-0.011-0.011-0.015C3.161,56.458,3.163,56.464,3.167,56.468z"/>
		<path fill="#009EE2" d="M2.982,56.153c-0.328-0.639-0.507-1.398-0.546-2.252C2.465,54.768,2.649,55.523,2.982,56.153z"/>
		<path fill="#009EE2" d="M2.429,53.677c0,0.034,0.004,0.065,0.004,0.097c-0.002-0.073-0.004-0.147-0.004-0.223V53.677z"/>
		<path fill="#009EE2" d="M31.684,58.361h0.059c2.025,0,3.387-0.698,4.146-1.893C35.086,57.692,33.649,58.361,31.684,58.361z"/>
		<path fill="#009EE2" d="M36.624,53.774c0,0.043-0.004,0.085-0.004,0.127C36.622,53.859,36.624,53.817,36.624,53.774z"/>
		<path fill="#009EE2" d="M36.629,53.677v-0.126c0,0.075-0.002,0.149-0.006,0.223C36.624,53.743,36.629,53.711,36.629,53.677z"/>
		<path fill="#009EE2" d="M36.62,53.901c-0.037,0.854-0.219,1.613-0.547,2.252C36.407,55.523,36.592,54.768,36.62,53.901z"/>
		<path fill="#009EE2" d="M35.901,56.454c-0.004,0.004-0.008,0.011-0.012,0.015C35.893,56.464,35.897,56.458,35.901,56.454z"/>
		<path fill="#009EE2" d="M3.156,56.454c-0.062-0.097-0.118-0.199-0.174-0.301C3.036,56.255,3.096,56.355,3.156,56.454z"/>
		<path fill="#009EE2" d="M3.167,56.468c0.76,1.194,2.122,1.893,4.146,1.893h0.062C5.407,58.361,3.971,57.692,3.167,56.468z"/>
		<path fill="#009EE2" d="M2.437,53.901c-0.001-0.042-0.004-0.084-0.004-0.127C2.435,53.817,2.436,53.859,2.437,53.901z"/>
		<path fill="#009FE4" d="M30.811,18.649c-2.148-1.14-4.069-1.799-4.069-4.543c0-0.078,0-1.18,0-1.6c0-0.371,0.21-0.67,0.579-0.697
			c0.019-0.002,0.462-0.033,0.558-0.059c0.854-0.193,1.268-0.89,1.268-1.713V5.766c0-0.975-0.797-1.77-1.771-1.77H11.681
			c-0.975,0-1.771,0.795-1.771,1.77v4.271c0,0.823,0.416,1.52,1.267,1.713c0.136,0.036,0.395,0.057,0.505,0.057
			c0.406,0,0.633,0.31,0.633,0.699c0,0.42,0,1.521,0,1.6c0,2.744-1.92,3.403-4.067,4.543c-2.726,1.443-5.817,3.795-5.817,9.42
			v25.482c0,0.075,0.002,0.149,0.004,0.223c0,0.043,0.003,0.085,0.004,0.127c0.039,0.854,0.218,1.613,0.546,2.252
			c0.056,0.102,0.112,0.204,0.174,0.301c0.005,0.004,0.007,0.011,0.011,0.015c0.804,1.224,2.24,1.893,4.207,1.893h24.31
			c1.965,0,3.402-0.669,4.205-1.893c0.004-0.004,0.008-0.011,0.012-0.015c0.063-0.097,0.119-0.199,0.172-0.301
			c0.328-0.639,0.51-1.398,0.547-2.252c0-0.042,0.004-0.084,0.004-0.127c0.004-0.073,0.006-0.147,0.006-0.223V28.069
			C36.629,22.444,33.536,20.092,30.811,18.649z"/>
	</g>
	<path fill="#FFFFFF" d="M22.815,34.824c-0.29,0-0.526-0.237-0.526-0.527v-4.468c0-0.289-0.237-0.525-0.526-0.525h-4.469
		c-0.29,0-0.527,0.236-0.527,0.525v4.468c0,0.29-0.236,0.527-0.524,0.527h-4.47c-0.29,0-0.526,0.234-0.526,0.525v4.47
		c0,0.288,0.236,0.525,0.526,0.525h4.47c0.288,0,0.524,0.236,0.524,0.526v4.47c0,0.289,0.237,0.524,0.527,0.524h4.469
		c0.289,0,0.526-0.235,0.526-0.524v-4.47c0-0.29,0.236-0.526,0.526-0.526h4.47c0.288,0,0.525-0.237,0.525-0.525v-4.47
		c0-0.291-0.237-0.525-0.525-0.525H22.815z"/>
	<path fill="#7DC8F0" d="M47.065,41.468c-0.201,0.201-0.512,0.545-0.691,0.765c0,0-0.369,0.452-0.576,0.937
		c-0.654,1.541-0.354,3.391,0.902,4.647c1.229,1.226,3.023,1.543,4.539,0.946c0.527-0.206,1.043-0.622,1.043-0.622
		c0.221-0.18,0.4-0.324,0.4-0.324s0.166-0.164,0.367-0.365l2.416-2.417c0.199-0.199,0.199-0.529,0-0.73l-5.254-5.253
		c-0.199-0.199-0.527-0.199-0.729,0L47.065,41.468z"/>
	<path fill="#7DC8F0" d="M59.473,41.027c0.201-0.201,0.365-0.365,0.365-0.365s0.145-0.18,0.324-0.403c0,0,0.42-0.518,0.625-1.047
		c0.346-0.88,0.381-1.852,0.115-2.752c-0.195-0.651-0.549-1.266-1.064-1.78c-1.211-1.21-2.973-1.535-4.477-0.972
		c-0.551,0.206-1.104,0.648-1.104,0.648c-0.221,0.178-0.568,0.487-0.768,0.687l-2.418,2.417c-0.199,0.202-0.199,0.529,0,0.73
		l5.254,5.254c0.201,0.2,0.529,0.2,0.73,0L59.473,41.027z"/>
	<g>
		<path fill="#7DC8F0" d="M57.53,24.543c-0.121,0.123-0.121,0.123-0.121,0.123s-4.984,4.982-5.176,5.174
			c-0.188,0.189-0.141,0.39,0.045,0.516c0.195,0.128,0.455,0.285,0.719,0.39c0.613,0.238,1.271,0.324,1.916,0.261
			c0.264-0.026,0.525-0.074,0.781-0.149c0.643-0.191,1.242-0.538,1.746-1.042c0.709-0.707,1.104-1.605,1.193-2.529
			c0.061-0.627-0.035-1.257-0.24-1.86c-0.117-0.343-0.316-0.653-0.438-0.824C57.893,24.514,57.721,24.352,57.53,24.543z"/>
		<path fill="#7DC8F0" d="M56.713,23.35c-0.156-0.119-0.49-0.338-0.861-0.463c-0.604-0.205-1.232-0.303-1.857-0.242
			c-0.924,0.09-1.824,0.484-2.529,1.192c-0.506,0.505-0.854,1.106-1.043,1.746c-0.076,0.257-0.127,0.519-0.15,0.782
			c-0.063,0.646,0.021,1.303,0.264,1.915c0.104,0.265,0.26,0.524,0.389,0.72c0.123,0.185,0.342,0.238,0.486,0.094
			c1.014-1.013,5.102-5.101,5.279-5.278C56.893,23.612,56.825,23.434,56.713,23.35z"/>
	</g>
	<g>
		<path fill="#7DC8F0" d="M44.997,29.438c0,0.174,0,0.174,0,0.174s0,7.048,0,7.316c0,0.268,0.178,0.378,0.396,0.333
			c0.227-0.045,0.523-0.118,0.783-0.232c0.602-0.263,1.129-0.668,1.539-1.168c0.17-0.205,0.322-0.425,0.447-0.659
			c0.32-0.588,0.5-1.26,0.5-1.973c0-0.998-0.355-1.914-0.947-2.633c-0.398-0.484-0.914-0.861-1.484-1.142
			c-0.324-0.161-0.686-0.24-0.891-0.274C45.235,29.161,44.997,29.169,44.997,29.438z"/>
		<path fill="#7DC8F0" d="M43.577,29.172c-0.197,0.026-0.586,0.108-0.938,0.282c-0.572,0.28-1.086,0.657-1.484,1.142
			c-0.59,0.719-0.943,1.635-0.943,2.633c0,0.713,0.18,1.385,0.494,1.973c0.129,0.234,0.279,0.454,0.449,0.659
			c0.412,0.5,0.936,0.905,1.539,1.168c0.26,0.114,0.557,0.188,0.783,0.232c0.219,0.045,0.41-0.073,0.41-0.276
			c0-1.434,0-7.215,0-7.466C43.887,29.231,43.715,29.153,43.577,29.172z"/>
	</g>
</g>
</svg>
