<?xml version="1.0" encoding="utf-8"?>
<!-- Generator: Adobe Illustrator 16.0.0, SVG Export Plug-In . SVG Version: 6.00 Build 0)  -->
<!DOCTYPE svg PUBLIC "-//W3C//DTD SVG 1.1//EN" "http://www.w3.org/Graphics/SVG/1.1/DTD/svg11.dtd">
<svg version="1.1" id="Lager_1" xmlns="http://www.w3.org/2000/svg" xmlns:xlink="http://www.w3.org/1999/xlink" x="0px" y="0px"
	 viewBox="0 0 62.362 62.362" enable-background="new 0 0 62.362 62.362" xml:space="preserve">
<g>
	<g>
		<path fill="#009EE2" d="M35.5,56.157c-0.053,0.103-0.11,0.205-0.172,0.3C35.388,56.361,35.448,56.261,35.5,56.157z"/>
		<path fill="#009EE2" d="M2.593,56.473c-0.002-0.006-0.007-0.012-0.009-0.017C2.586,56.461,2.591,56.467,2.593,56.473z"/>
		<path fill="#009EE2" d="M2.411,56.157c-0.33-0.639-0.509-1.397-0.547-2.253C1.892,54.771,2.077,55.528,2.411,56.157z"/>
		<path fill="#009EE2" d="M1.856,53.681c0,0.033,0.002,0.063,0.004,0.097c-0.002-0.073-0.004-0.148-0.004-0.224V53.681z"/>
		<path fill="#009EE2" d="M31.111,58.364h0.059c2.025,0,3.387-0.696,4.148-1.891C34.514,57.696,33.076,58.364,31.111,58.364z"/>
		<path fill="#009EE2" d="M36.051,53.778c0,0.043-0.004,0.084-0.006,0.126C36.048,53.862,36.049,53.821,36.051,53.778z"/>
		<path fill="#009EE2" d="M36.055,53.681v-0.127c0,0.075-0.003,0.15-0.004,0.224C36.051,53.745,36.055,53.714,36.055,53.681z"/>
		<path fill="#009EE2" d="M36.045,53.904c-0.036,0.855-0.215,1.614-0.546,2.253C35.836,55.528,36.019,54.771,36.045,53.904z"/>
		<path fill="#009EE2" d="M35.328,56.457c-0.004,0.005-0.006,0.011-0.01,0.017C35.322,56.467,35.324,56.461,35.328,56.457z"/>
		<path fill="#009EE2" d="M2.584,56.457c-0.063-0.095-0.119-0.197-0.174-0.3C2.465,56.261,2.522,56.361,2.584,56.457z"/>
		<path fill="#009EE2" d="M2.593,56.473c0.761,1.194,2.123,1.891,4.147,1.891h0.061C4.834,58.364,3.398,57.696,2.593,56.473z"/>
		<path fill="#009EE2" d="M1.864,53.904c-0.002-0.042-0.004-0.083-0.004-0.126C1.86,53.821,1.862,53.862,1.864,53.904z"/>
		<path fill="#994916" d="M30.239,18.652c-2.148-1.14-4.07-1.799-4.07-4.541c0-0.079,0-1.181,0-1.6c0-0.373,0.211-0.671,0.581-0.698
			c0.019-0.001,0.463-0.032,0.559-0.058c0.851-0.195,1.267-0.89,1.267-1.715V5.77c0-0.974-0.797-1.771-1.771-1.771H11.109
			c-0.975,0-1.772,0.798-1.772,1.771v4.271c0,0.825,0.416,1.52,1.266,1.715c0.137,0.034,0.396,0.057,0.507,0.057
			c0.407,0,0.632,0.309,0.632,0.699c0,0.419,0,1.521,0,1.6c0,2.742-1.919,3.401-4.067,4.541c-2.726,1.445-5.817,3.797-5.817,9.422
			v25.48c0,0.075,0.002,0.15,0.004,0.224c0,0.043,0.002,0.084,0.004,0.126c0.038,0.855,0.217,1.614,0.547,2.253
			c0.055,0.103,0.111,0.205,0.174,0.3c0.002,0.005,0.007,0.011,0.009,0.017c0.805,1.223,2.241,1.891,4.208,1.891h24.31
			c1.965,0,3.403-0.668,4.207-1.891c0.004-0.006,0.006-0.012,0.01-0.017c0.062-0.095,0.119-0.197,0.172-0.3
			c0.331-0.639,0.51-1.397,0.546-2.253c0.002-0.042,0.006-0.083,0.006-0.126c0.001-0.073,0.004-0.148,0.004-0.224v-25.48
			C36.055,22.449,32.964,20.097,30.239,18.652z"/>
	</g>
	<path fill="#FFFFFF" d="M22.241,34.827c-0.287,0-0.523-0.237-0.523-0.526v-4.469c0-0.289-0.238-0.525-0.528-0.525h-4.468
		c-0.289,0-0.527,0.236-0.527,0.525V34.3c0,0.289-0.234,0.526-0.525,0.526h-4.47c-0.288,0-0.526,0.236-0.526,0.526v4.47
		c0,0.289,0.238,0.526,0.526,0.526h4.47c0.291,0,0.525,0.236,0.525,0.524v4.471c0,0.289,0.238,0.525,0.527,0.525h4.468
		c0.29,0,0.528-0.236,0.528-0.525v-4.471c0-0.288,0.236-0.524,0.523-0.524h4.471c0.289,0,0.525-0.237,0.525-0.526v-4.47
		c0-0.29-0.236-0.526-0.525-0.526H22.241z"/>
	<path fill="#FFB900" d="M46.493,41.472c-0.201,0.2-0.512,0.545-0.691,0.764c0,0-0.371,0.452-0.576,0.938
		c-0.654,1.54-0.353,3.39,0.903,4.646c1.227,1.227,3.02,1.543,4.536,0.946c0.528-0.205,1.045-0.622,1.045-0.622
		c0.221-0.18,0.401-0.324,0.401-0.324s0.164-0.164,0.365-0.365l2.416-2.417c0.201-0.201,0.201-0.528,0-0.729l-5.253-5.252
		c-0.201-0.202-0.528-0.202-0.73,0L46.493,41.472z"/>
	<path fill="#FFB900" d="M58.901,41.032c0.201-0.201,0.365-0.367,0.365-0.367s0.145-0.181,0.322-0.401c0,0,0.42-0.519,0.626-1.047
		c0.344-0.881,0.384-1.853,0.114-2.753c-0.194-0.652-0.548-1.267-1.063-1.78c-1.211-1.211-2.973-1.534-4.478-0.971
		c-0.549,0.205-1.104,0.647-1.104,0.647c-0.222,0.179-0.567,0.487-0.769,0.688L50.5,37.463c-0.201,0.202-0.201,0.531,0,0.73
		l5.253,5.255c0.201,0.199,0.53,0.199,0.729,0L58.901,41.032z"/>
	<g>
		<path fill="#FFB900" d="M56.958,24.547c-0.123,0.122-0.123,0.122-0.123,0.122s-4.984,4.984-5.174,5.174
			c-0.189,0.191-0.142,0.391,0.044,0.517c0.193,0.129,0.455,0.286,0.721,0.39c0.611,0.237,1.269,0.325,1.914,0.261
			c0.264-0.025,0.525-0.073,0.781-0.147c0.64-0.192,1.243-0.539,1.746-1.044c0.709-0.707,1.103-1.606,1.192-2.528
			c0.062-0.627-0.035-1.257-0.24-1.859c-0.117-0.344-0.315-0.654-0.438-0.826C57.321,24.519,57.148,24.357,56.958,24.547z"/>
		<path fill="#FFB900" d="M56.142,23.355c-0.159-0.119-0.491-0.339-0.861-0.464c-0.604-0.204-1.234-0.304-1.859-0.241
			c-0.924,0.089-1.824,0.484-2.53,1.191c-0.505,0.505-0.851,1.107-1.041,1.746c-0.076,0.256-0.126,0.52-0.151,0.782
			c-0.063,0.646,0.023,1.304,0.262,1.915c0.104,0.265,0.261,0.525,0.392,0.719c0.123,0.187,0.343,0.239,0.486,0.096
			c1.013-1.014,5.103-5.102,5.278-5.279C56.321,23.616,56.252,23.439,56.142,23.355z"/>
	</g>
	<g>
		<path fill="#FFB900" d="M44.424,29.443c0,0.173,0,0.173,0,0.173s0,7.049,0,7.317s0.177,0.376,0.395,0.333
			c0.229-0.044,0.526-0.12,0.786-0.232c0.6-0.263,1.127-0.668,1.537-1.168c0.17-0.206,0.32-0.426,0.448-0.662
			c0.318-0.585,0.498-1.256,0.498-1.971c0-0.998-0.354-1.914-0.946-2.631c-0.398-0.485-0.911-0.862-1.483-1.145
			c-0.326-0.16-0.687-0.238-0.892-0.273C44.661,29.166,44.424,29.174,44.424,29.443z"/>
		<path fill="#FFB900" d="M43.004,29.176c-0.197,0.026-0.587,0.108-0.939,0.281c-0.57,0.282-1.084,0.659-1.483,1.145
			c-0.589,0.717-0.943,1.633-0.943,2.631c0,0.715,0.178,1.386,0.496,1.971c0.128,0.236,0.279,0.456,0.446,0.662
			c0.412,0.5,0.938,0.905,1.539,1.168c0.261,0.112,0.556,0.188,0.785,0.232c0.219,0.043,0.412-0.074,0.412-0.277
			c0-1.434,0-7.214,0-7.467C43.317,29.236,43.141,29.157,43.004,29.176z"/>
	</g>
</g>
</svg>
