<?xml version="1.0" encoding="utf-8"?>
<!-- Generator: Adobe Illustrator 16.0.0, SVG Export Plug-In . SVG Version: 6.00 Build 0)  -->
<!DOCTYPE svg PUBLIC "-//W3C//DTD SVG 1.1//EN" "http://www.w3.org/Graphics/SVG/1.1/DTD/svg11.dtd">
<svg version="1.1" id="Lager_1" xmlns="http://www.w3.org/2000/svg" xmlns:xlink="http://www.w3.org/1999/xlink" x="0px" y="0px"
	 viewBox="0 0 70.866 70.866" enable-background="new 0 0 70.866 70.866" xml:space="preserve">
<g>
	<path fill="#0A4682" d="M47.594,1.617H23.269c-3.584,0-6.517,2.933-6.517,6.518V62.73c0,3.586,2.933,6.518,6.517,6.518h24.325
		c3.585,0,6.518-2.932,6.518-6.518V8.134C54.112,4.549,51.179,1.617,47.594,1.617z"/>
	<path fill="#009FE4" d="M30.592,5.918h9.68c0.556,0,1.005,0.45,1.005,1.006S40.829,7.93,40.272,7.93h-9.68
		c-0.556,0-1.006-0.45-1.006-1.006S30.037,5.918,30.592,5.918z"/>
	<circle fill="#009FE4" cx="35.432" cy="63.569" r="2.993"/>
	<path fill="#009FE4" d="M50.502,56.205c0,0.896-0.732,1.631-1.629,1.631H21.991c-0.896,0-1.629-0.734-1.629-1.631V14.659
		c0-0.896,0.733-1.629,1.629-1.629h26.883c0.896,0,1.629,0.733,1.629,1.629V56.205z"/>
	<path fill="#7DC8F0" d="M45.292,31.379c0-0.002,0-0.004-0.002-0.006c-0.002-0.01-0.004-0.019-0.006-0.027
		c-0.537-2.32-2.367-4.05-4.771-4.154c-0.157-0.015-0.316-0.023-0.478-0.023c-1.838,0-3.458,0.945-4.437,2.388
		c-0.035,0.051-0.089,0.122-0.166,0.115c-0.08,0.007-0.133-0.064-0.168-0.115c-0.979-1.442-2.6-2.388-4.438-2.388
		c-0.161,0-0.319,0.009-0.478,0.023c-2.403,0.104-4.234,1.834-4.77,4.154c-0.002,0.009-0.004,0.018-0.007,0.027
		c0,0.002,0,0.004,0,0.006c-0.109,0.44-0.167,0.901-0.167,1.377c0,1.684,0.447,3.309,1.352,4.83
		c1.306,2.195,3.559,4.141,5.855,5.875c1.336,1.01,2.197,1.525,2.82,1.525c0.647,0,1.444-0.516,2.817-1.525
		c2.319-1.703,4.55-3.68,5.856-5.875c0.906-1.521,1.353-3.146,1.353-4.83C45.458,32.281,45.4,31.82,45.292,31.379z"/>
</g>
</svg>
