<?xml version="1.0" encoding="utf-8"?>
<!-- Generator: Adobe Illustrator 16.0.0, SVG Export Plug-In . SVG Version: 6.00 Build 0)  -->
<!DOCTYPE svg PUBLIC "-//W3C//DTD SVG 1.1//EN" "http://www.w3.org/Graphics/SVG/1.1/DTD/svg11.dtd">
<svg version="1.1" id="Lager_1" xmlns="http://www.w3.org/2000/svg" xmlns:xlink="http://www.w3.org/1999/xlink" x="0px" y="0px"
	 viewBox="0 0 79.799 58.974" enable-background="new 0 0 79.799 58.974" xml:space="preserve">
<path fill="#7DC8F0" d="M67.743,19.339c0.038-0.276,0.03-0.561,0.03-0.846c0-7-5.679-12.678-12.683-12.678
	c-2.056,0-3.934,0.623-5.709,1.368c-1.724,0.722-2.553-0.002-2.993-0.504C42.797,2.586,37.528,0,31.655,0
	C20.827,0,12.049,8.779,12.049,19.607c0,0.866,0.071,1.718,0.169,2.558c0.255,2.155-0.953,2.47-1.591,2.751
	C4.371,27.67,0,33.924,0,41.199c0,9.818,7.959,17.775,17.78,17.775c9.82,0,31.862,0,42.591,0c10.731,0,19.427-8.699,19.427-19.425
	c0-7.447-4.194-13.915-10.347-17.175C68.795,22.026,67.438,21.562,67.743,19.339z"/>
</svg>
