<?xml version="1.0" encoding="utf-8"?>
<!-- Generator: Adobe Illustrator 16.0.0, SVG Export Plug-In . SVG Version: 6.00 Build 0)  -->
<!DOCTYPE svg PUBLIC "-//W3C//DTD SVG 1.1//EN" "http://www.w3.org/Graphics/SVG/1.1/DTD/svg11.dtd">
<svg version="1.1" id="Lager_1" xmlns="http://www.w3.org/2000/svg" xmlns:xlink="http://www.w3.org/1999/xlink" x="0px" y="0px"
	 viewBox="0 0 90.822 90.822" enable-background="new 0 0 90.822 90.822" xml:space="preserve">
<path fill="#7DC8F0" d="M80.126,43.438c-0.003-0.077,0-0.154-0.001-0.23c-0.122-8.021-6.664-14.489-14.717-14.489
	c-0.467,0-1.074,0.029-1.8,0.065c-0.971,0.049-1.248-0.536-1.382-0.831C58.99,20.79,51.79,15.804,43.42,15.804
	c-9.038,0-16.716,5.813-19.506,13.903c-0.156,0.454-0.677,1.177-1.926,1.029c-0.724-0.085-1.456-0.189-2.209-0.189
	c-7.159,0-12.963,5.804-12.963,12.964c0,1.487,0.251,2.916,0.713,4.247c0.17,0.49,0.445,1.397-0.62,2.031
	c-0.761,0.453-1.499,0.938-2.169,1.508c-2.902,2.469-4.742,6.146-4.742,10.255c0,7.436,6.027,13.465,13.464,13.465H74.85
	c8.823,0,15.975-7.152,15.975-15.975c0-6.71-4.139-12.452-10.003-14.818C80.588,44.131,80.146,43.945,80.126,43.438z"/>
</svg>
