<?xml version="1.0" encoding="utf-8"?>
<!-- Generator: Adobe Illustrator 16.0.0, SVG Export Plug-In . SVG Version: 6.00 Build 0)  -->
<!DOCTYPE svg PUBLIC "-//W3C//DTD SVG 1.1//EN" "http://www.w3.org/Graphics/SVG/1.1/DTD/svg11.dtd">
<svg version="1.1" id="Lager_1" xmlns="http://www.w3.org/2000/svg" xmlns:xlink="http://www.w3.org/1999/xlink" x="0px" y="0px"
	 viewBox="0 0 83.083 83.084" enable-background="new 0 0 83.083 83.084" xml:space="preserve">
<path fill="#7DC8F0" d="M62.621,71.186c11.3,0,20.457-9.158,20.457-20.456c0-8.458-5.209-15.543-12.456-18.83
	c-1.382-0.625-1.251-1.752-1.264-2.051c-0.467-9.991-8.717-17.95-18.827-17.95c-7.33,0-13.679,4.188-16.795,10.301
	c-0.279,0.546-0.787,1.467-2.254,0.892c-1.688-0.661-3.48-1.168-5.411-1.168c-7.309,0-13.234,5.925-13.234,13.235
	c0,0.147,0.008,0.294,0.01,0.441c0.012,1.586-0.758,1.882-1.209,2.037C4.869,39.965,0.005,46.386,0.005,53.943
	c0,9.521,7.719,17.242,17.243,17.242H62.621z"/>
</svg>
