<?xml version="1.0" encoding="utf-8"?>
<!-- Generator: Adobe Illustrator 16.0.0, SVG Export Plug-In . SVG Version: 6.00 Build 0)  -->
<!DOCTYPE svg PUBLIC "-//W3C//DTD SVG 1.1//EN" "http://www.w3.org/Graphics/SVG/1.1/DTD/svg11.dtd">
<svg version="1.1" id="Lager_1" xmlns="http://www.w3.org/2000/svg" xmlns:xlink="http://www.w3.org/1999/xlink" x="0px" y="0px"
	 viewBox="0 0 70.412 70.413" enable-background="new 0 0 70.412 70.413" xml:space="preserve">
<g>
	<path fill="#E6007E" d="M53.068,50.936c-3.925-0.688-4.754-3.417-4.754-4.983c0-1.06,0-4.576,0-7.723
		c0-9.506-4.054-12.885-11.199-17.037c-4.025-2.34-3.879-5.103-3.392-6.378c0.387-1.016,1.332-1.5,1.903-1.903
		c1.154-0.813,2.088-1.969,2.629-3.386c1.45-3.802-0.241-7.656-4.057-9.075c-3.92-1.458-7.216,0.773-9.47,4.209
		c-0.463,0.707-1.353,0.451-4.217,0.887c-4.397,0.672-6.746,2.833-10.294,7.034c-3.604,4.269-1.832,6.864,2.211,8.407
		c1.082,0.412,2.743,0.842,4.714,1.409c3.852,1.11,5.873,4.204,3.982,8.561c-1.344,3.102-4.705,5.976-4.705,9.203
		c0,4.093,4.548,4.063,4.999,1.149c0.331-2.134,1.353-3.396,2.884-3.004c1.72,0.438,1.683,1.992,1.763,2.688
		c0.232,2.022,0.103,3.851,0.103,6.326c0,1.944-1.143,3.199-3.43,3.199c-1.377,0-2.544,0-4.259,0c-3.543,0-4.192,5.06,0.367,5.06
		c4.556,0,23.522,0,29.882,0c7.399,0,8.614,2.537,8.614,4.657c0,2.973-2.287,6.054-11.317,6.054c-11.432,0-15.24-5.139-25.145-5.139
		c-4.116,0-4.001,2.515-1.83,2.515c9.816,0,14.73,6.749,26.618,6.749c12.948,0,16.475-5.149,16.475-10.75
		C62.145,54.991,58.582,51.901,53.068,50.936z"/>
	<circle fill="#F0A5C3" cx="17.452" cy="12.603" r="2.498"/>
</g>
</svg>
