<?xml version="1.0" encoding="utf-8"?>
<!-- Generator: Adobe Illustrator 16.0.0, SVG Export Plug-In . SVG Version: 6.00 Build 0)  -->
<!DOCTYPE svg PUBLIC "-//W3C//DTD SVG 1.1//EN" "http://www.w3.org/Graphics/SVG/1.1/DTD/svg11.dtd">
<svg version="1.1" id="Lager_1" xmlns="http://www.w3.org/2000/svg" xmlns:xlink="http://www.w3.org/1999/xlink" x="0px" y="0px"
	 viewBox="0 0 70.413 70.413" enable-background="new 0 0 70.413 70.413" xml:space="preserve">
<g>
	<path fill="#994916" d="M53.07,50.936c-3.925-0.688-4.755-3.417-4.755-4.983c0-1.06,0-4.576,0-7.723
		c0-9.506-4.053-12.885-11.199-17.037c-4.026-2.34-3.88-5.103-3.392-6.378c0.386-1.016,1.332-1.5,1.903-1.903
		c1.155-0.813,2.088-1.969,2.629-3.386c1.451-3.802-0.242-7.656-4.057-9.075c-3.92-1.458-7.217,0.773-9.47,4.209
		c-0.464,0.707-1.354,0.451-4.216,0.887c-4.399,0.672-6.746,2.833-10.296,7.034c-3.604,4.269-1.831,6.864,2.213,8.407
		c1.08,0.412,2.742,0.842,4.713,1.409c3.852,1.11,5.873,4.204,3.983,8.561c-1.345,3.102-4.706,5.976-4.706,9.203
		c0,4.093,4.548,4.063,5,1.149c0.33-2.134,1.352-3.396,2.884-3.004c1.718,0.438,1.681,1.992,1.762,2.688
		c0.233,2.022,0.103,3.851,0.103,6.326c0,1.944-1.143,3.199-3.429,3.199c-1.379,0-2.546,0-4.261,0c-3.543,0-4.191,5.06,0.367,5.06
		c4.557,0,23.522,0,29.883,0c7.398,0,8.613,2.537,8.613,4.657c0,2.973-2.286,6.054-11.317,6.054c-11.431,0-15.24-5.139-25.145-5.139
		c-4.115,0-4.001,2.515-1.829,2.515c9.815,0,14.729,6.749,26.619,6.749c12.946,0,16.473-5.149,16.473-10.75
		C62.144,54.991,58.583,51.901,53.07,50.936z"/>
	<circle fill="#FFE57E" cx="17.453" cy="12.603" r="2.498"/>
</g>
</svg>
