<?xml version="1.0" encoding="utf-8"?>
<!-- Generator: Adobe Illustrator 16.0.0, SVG Export Plug-In . SVG Version: 6.00 Build 0)  -->
<!DOCTYPE svg PUBLIC "-//W3C//DTD SVG 1.1//EN" "http://www.w3.org/Graphics/SVG/1.1/DTD/svg11.dtd">
<svg version="1.1" id="Lager_1" xmlns="http://www.w3.org/2000/svg" xmlns:xlink="http://www.w3.org/1999/xlink" x="0px" y="0px"
	 viewBox="240 0 800 800" enable-background="new 240 0 800 800" xml:space="preserve">
<g>
	<path fill="#FFB900" d="M874.371,454.29c35.498-16.555,65.019-30.314,68.236-31.832c18.302-8.529,32.164-23.669,39.063-42.637
		c6.896-18.974,6-39.487-2.529-57.776c-12.369-26.521-39.246-43.648-68.513-43.648c-11.059,0-21.796,2.385-31.889,7.087
		c-3.564,1.655-38.786,18.088-78.859,36.78c-1.173-0.173-2.321-0.235-3.494-0.367c26.349-33.647,42.097-75.985,42.097-122.024
		c0-5.857-0.322-11.64-0.805-17.37c40.35-6.766,71.111-41.838,71.111-84.113c0-47.114-38.211-85.308-85.32-85.308
		c-25.358,0-48.121,11.082-63.755,28.641C726.493,16.598,685.138,1.677,640.282,1.677s-86.229,14.921-119.438,40.044
		c-15.622-17.56-38.384-28.641-63.743-28.641c-47.119,0-85.319,38.194-85.319,85.308c0,42.275,30.762,77.348,71.11,84.113
		c-0.493,5.73-0.805,11.512-0.805,17.37c0,45.85,15.623,88.032,41.774,121.616c-1.08,0.241-2.161,0.477-3.242,0.765
		c-40.039-18.663-75.284-35.102-78.848-36.763c-10.092-4.708-20.83-7.093-31.889-7.093c-29.256,0-56.156,17.128-68.525,43.648
		c-8.53,18.289-9.426,38.803-2.529,57.776c6.909,18.968,20.784,34.106,39.074,42.637l7.932,3.68
		c18.737,8.713,70.961,32.98,115.897,53.913v85.309c-18.565-19.323-43.913-30.313-70.467-30.313
		c-53.776,0-97.528,43.751-97.528,97.527v69.523c0,53.776,43.752,97.528,97.528,97.528c3.701,0,7.621-0.264,11.978-0.805
		c12.415-1.013,24.244-4.519,35.165-10.438c6.932-3.734,119.519-62.708,187.492-99.229c0.689-0.459,1.414-0.873,2.149-1.275
		c0.667-0.345,1.333-0.678,2.013-0.965c3.139-1.323,6.587-2.06,10.195-2.06c3.748,0,7.3,0.806,10.52,2.208
		c0.148,0.068,0.288,0.16,0.438,0.219c1.425,0.654,2.782,1.438,4.059,2.321l78.923,44.477
		c50.212,27.13,96.078,51.914,100.517,54.305c10.92,5.921,22.738,9.427,35.152,10.438c4.369,0.541,8.276,0.805,11.979,0.805
		c53.775,0,97.528-43.752,97.528-97.528v-69.523c0-53.776-43.753-97.527-97.528-97.527c-23.221,0-45.477,8.346-63.063,23.313
		v-78.146L874.371,454.29z"/>
	<path fill="#994916" d="M497.485,208.987c0,21.554,17.483,39.039,39.039,39.039c21.564,0,39.038-17.485,39.038-39.039
		c0-21.566-17.474-39.039-39.038-39.039C514.969,169.948,497.485,187.421,497.485,208.987z"/>
	<path fill="#994916" d="M781.763,208.987c0,21.554-17.473,39.039-39.038,39.039c-21.564,0-39.026-17.485-39.026-39.039
		c0-21.566,17.462-39.039,39.026-39.039C764.29,169.948,781.763,187.421,781.763,208.987z"/>
	<path fill="#009FE4" d="M706.881,366.452c0,0-34.078,15.531-35.871,16.203c-1.781,0.672-3.482,0.167-4.035-0.276
		c-7.472-6.058-16.967-9.708-27.348-9.708c-10.254,0-19.658,3.569-27.107,9.507c-0.632,0.506-1.987,1.306-4.367,0.438
		c-2.392-0.88-35.774-16.163-35.774-16.163c-20.048-9.047-36.452,3.224-36.452,27.268v45.338c0,24.05,16.404,36.326,36.452,27.269
		c0,0,36.084-16.231,37.096-16.761c1-0.507,2.104,0.022,2.472,0.333c7.529,6.22,17.163,9.967,27.682,9.967
		c10.483,0,20.071-3.725,27.59-9.886c0.401-0.333,1.598-0.828,2.771-0.312c1.161,0.519,36.895,16.657,36.895,16.657
		c20.048,9.059,36.441-3.219,36.441-27.269V393.72C743.322,369.676,726.929,357.405,706.881,366.452z"/>
	<g>
		<g>
			<path fill="#994916" d="M639.627,298.732c-18.014,0-34.486-9.909-42.971-25.876c-2.506-4.708-0.712-10.553,3.988-13.053
				c4.702-2.512,10.554-0.724,13.06,3.989c5.127,9.639,15.06,15.623,25.923,15.623s20.807-5.983,25.934-15.623
				c2.507-4.707,8.347-6.495,13.061-3.989c4.713,2.5,6.495,8.346,3.988,13.053C674.125,288.823,657.652,298.732,639.627,298.732z"/>
		</g>
	</g>
	<g>
		<path fill="#994916" d="M381.461,576.567c-30.877,0-56.006,25.116-56.006,56.006v69.523c0,30.878,25.129,56.007,56.006,56.007
			c30.888,0,56.006-25.129,56.006-56.007v-69.523C437.467,601.685,412.349,576.567,381.461,576.567z"/>
	</g>
	<g>
		<path fill="#994916" d="M894.235,576.567c30.898,0,56.028,25.116,56.028,56.006v69.523c0,30.878-25.13,56.007-56.028,56.007
			c-30.878,0-55.983-25.129-55.983-56.007v-69.523C838.252,601.685,863.357,576.567,894.235,576.567z"/>
	</g>
</g>
</svg>
