<?xml version="1.0" encoding="utf-8"?>
<!-- Generator: Adobe Illustrator 16.0.0, SVG Export Plug-In . SVG Version: 6.00 Build 0)  -->
<!DOCTYPE svg PUBLIC "-//W3C//DTD SVG 1.1//EN" "http://www.w3.org/Graphics/SVG/1.1/DTD/svg11.dtd">
<svg version="1.1" id="Lager_1" xmlns="http://www.w3.org/2000/svg" xmlns:xlink="http://www.w3.org/1999/xlink" x="0px" y="0px"
	 viewBox="-381.13 -372.994 800 800" enable-background="new -381.13 -372.994 800 800"
	 xml:space="preserve">
<g>
	<path fill="#FFB900" d="M92.388-64.708c0-26.333,7.42-50.949,20.443-71.724c4.504-7.161,40.626-55.064,40.626-100.296
		c0-0.086,0-0.129,0-0.202c0-67.35-49.491-123.164-114.112-133.039c-6.67-1.011-13.521-1.53-20.465-1.53
		c-6.994,0-13.838,0.52-20.508,1.53c-64.621,9.875-114.098,65.689-114.098,133.039c0,0.073,0.015,0.116,0.015,0.202
		c0,49.737,28.231,80.012,40.612,100.296c12.77,20.934,20.442,45.391,20.442,71.724v37.22H92.388V-64.708L92.388-64.708z"/>
	<g>
		<g>
			<path fill="#009FE4" d="M263.209-27.113c-3.594-0.202-15.953-0.375-27.46-0.375h-433.745c-11.535,0-23.482,0.129-26.572,0.303
				c0,0,0,0-2.686,0.549C-246-22.84-260.09-6.222-260.09,13.628c0,19.433,13.455,35.718,31.545,40.021
				c3.075,0.72,3.075,0.72,3.075,0.72c3.58,0.232,15.939,0.405,27.475,0.405H-76.03c11.528,0,20.948,2.368,20.948,5.255
				c0,2.902-1.646,5.992-3.638,6.858c0,0,0,0-1.79,0.853c-64.341,29.999-109.03,95.313-109.03,170.849
				c0,103.892,84.516,188.407,188.42,188.407c103.884,0,188.398-84.516,188.398-188.407c0-75.131-44.178-140.099-107.933-170.315
				c-2.483-1.184-2.483-1.184-2.483-1.184c-2.771-1.214-5.053-4.477-5.053-7.248c0-2.758,9.428-5.054,20.949-5.054h122.962
				c11.521,0,22.896-0.071,25.265-0.173c0,0,0,0,2.079-0.317c19.692-3.061,34.765-20.096,34.765-40.655
				c0-19.404-13.454-35.66-31.56-39.991C263.209-27.113,263.209-27.113,263.209-27.113z M148.52,238.589
				c0,71.494-58.153,129.662-129.654,129.662c-71.493,0-129.653-58.168-129.653-129.662c0-43.166,21.216-81.426,53.75-105.016
				c1.805-1.3,1.805-1.3,1.805-1.3c2.058-1.399,4.482-0.39,5.399,2.182c0,0,0,0,0.989,2.251
				c11.397,25.784,37.183,43.803,67.177,43.803c29.863,0,55.489-17.787,67.01-43.312c1.155-2.614,1.155-2.614,1.155-2.614
				c1.039-2.944,4.389-3.709,7.449-1.66c0,0,0,0,2.656,2.021C128.134,158.608,148.52,196.275,148.52,238.589z"/>
		</g>
	</g>
</g>
</svg>
