<?xml version="1.0" encoding="utf-8"?>
<!-- Generator: Adobe Illustrator 16.0.0, SVG Export Plug-In . SVG Version: 6.00 Build 0)  -->
<!DOCTYPE svg PUBLIC "-//W3C//DTD SVG 1.1//EN" "http://www.w3.org/Graphics/SVG/1.1/DTD/svg11.dtd">
<svg version="1.1" id="Lager_1" xmlns="http://www.w3.org/2000/svg" xmlns:xlink="http://www.w3.org/1999/xlink" x="0px" y="0px"
	 viewBox="-381.13 -372.994 800 800" enable-background="new -381.13 -372.994 800 800"
	 xml:space="preserve">
<g>
	<path fill="#C8E6FA" d="M92.499-65.492c0-26.374,7.434-51.027,20.477-71.834c4.512-7.171,40.688-55.147,40.688-100.448
		c0-0.086,0-0.13,0-0.202c0-67.453-49.566-123.352-114.287-133.243c-6.68-1.012-13.539-1.532-20.495-1.532
		c-7.006,0-13.859,0.52-20.539,1.532c-64.72,9.891-114.272,65.79-114.272,133.243c0,0.072,0.014,0.116,0.014,0.202
		c0,49.812,28.276,80.134,40.674,100.448c12.789,20.966,20.474,45.46,20.474,71.834v37.275H92.499V-65.492L92.499-65.492z"/>
	<g>
		<g>
			<path fill="#B0CB0B" d="M263.583-27.841c-3.602-0.202-15.979-0.376-27.502-0.376h-434.407c-11.553,0-23.518,0.13-26.612,0.304
				c0,0,0,0-2.69,0.549c-18.775,3.803-32.887,20.446-32.887,40.328c0,19.461,13.476,35.772,31.594,40.08
				c3.08,0.724,3.08,0.724,3.08,0.724c3.586,0.23,15.963,0.404,27.516,0.404h122.152c11.545,0,20.98,2.371,20.98,5.264
				c0,2.907-1.648,6-3.644,6.869c0,0,0,0-1.793,0.852c-64.438,30.047-109.196,95.459-109.196,171.111
				c0,104.048,84.645,188.693,188.708,188.693c104.043,0,188.686-84.646,188.686-188.693c0-75.246-44.246-140.313-108.096-170.576
				c-2.488-1.187-2.488-1.187-2.488-1.187c-2.777-1.213-5.061-4.481-5.061-7.257c0-2.763,9.441-5.062,20.979-5.062h123.15
				c11.539,0,22.932-0.072,25.305-0.174c0,0,0,0,2.08-0.316c19.725-3.067,34.818-20.129,34.818-40.718
				c0-19.434-13.477-35.715-31.605-40.052C263.583-27.841,263.583-27.841,263.583-27.841z M148.717,238.268
				c0,71.602-58.242,129.858-129.851,129.858c-71.602,0-129.852-58.257-129.852-129.858c0-43.232,21.248-81.551,53.833-105.178
				c1.807-1.3,1.807-1.3,1.807-1.3c2.061-1.403,4.49-0.392,5.408,2.182c0,0,0,0,0.991,2.257
				c11.416,25.824,37.24,43.868,67.278,43.868c29.908,0,55.574-17.813,67.113-43.376c1.156-2.618,1.156-2.618,1.156-2.618
				c1.043-2.949,4.396-3.716,7.463-1.662c0,0,0,0,2.66,2.024C128.301,158.162,148.717,195.887,148.717,238.268z"/>
		</g>
	</g>
</g>
</svg>
