<?xml version="1.0" encoding="utf-8"?>
<!-- Generator: Adobe Illustrator 16.0.0, SVG Export Plug-In . SVG Version: 6.00 Build 0)  -->
<!DOCTYPE svg PUBLIC "-//W3C//DTD SVG 1.1//EN" "http://www.w3.org/Graphics/SVG/1.1/DTD/svg11.dtd">
<svg version="1.1" id="Lager_1" xmlns="http://www.w3.org/2000/svg" xmlns:xlink="http://www.w3.org/1999/xlink" x="0px" y="0px"
	 viewBox="0 0 68.57 68.57" enable-background="new 0 0 68.57 68.57" xml:space="preserve">
<g>
	<g>
		<path fill="#FFB900" d="M42.568,24.692c0.413,0,0.813,0.062,1.19,0.172c-0.032-0.009-0.063-0.021-0.096-0.029
			c-0.349-0.093-0.267-0.174-0.03-0.229c1.374-0.332,2.398-1.572,2.398-3.048c0-1.536-1.113-2.81-2.574-3.082
			c-0.344-0.064-0.421-0.333-0.439-0.476c-0.316-2.361-1.6-4.518-3.602-6.011c-0.223-0.166-0.455-0.326-0.686-0.487
			c-0.961-0.662-1.867-1.289-1.867-2.169c0-0.657,0.182-1.292,0.523-1.838c0.01-0.019,0.029-0.046,0.055-0.083
			c0.295-0.43,1.188-1.742,1.188-3.063c0-2.128-1.582-3.976-3.686-4.297c-0.432-0.065-0.887-0.065-1.319,0
			c-2.101,0.321-3.686,2.169-3.686,4.297c0,0.007,0,0.015,0,0.023c0.006,1.313,0.62,2.207,1.028,2.798
			c0.081,0.116,0.154,0.223,0.213,0.32c0.343,0.563,0.525,1.2,0.525,1.843c0,1.018-1.42,1.948-2.359,2.563
			c-0.311,0.205-0.582,0.381-0.764,0.537c-1.677,1.423-2.757,3.428-3.036,5.591c-0.019,0.136-0.126,0.399-0.394,0.444
			c-1.483,0.25-2.616,1.539-2.616,3.09c0,1.445,0.982,2.664,2.313,3.024c0.263,0.073,0.351,0.167-0.022,0.273
			c-0.017,0.007-0.033,0.013-0.051,0.018c0.388-0.116,0.797-0.181,1.224-0.181H42.568z"/>
	</g>
	<path fill="#FFE57E" d="M46.836,64.302c0,2.346-1.922,4.266-4.268,4.266H26c-2.347,0-4.267-1.92-4.267-4.266V28.958
		c0-2.347,1.92-4.266,4.267-4.266h16.568c2.346,0,4.268,1.919,4.268,4.266V64.302z"/>
</g>
</svg>
