<?xml version="1.0" encoding="utf-8"?>
<!-- Generator: Adobe Illustrator 16.0.0, SVG Export Plug-In . SVG Version: 6.00 Build 0)  -->
<!DOCTYPE svg PUBLIC "-//W3C//DTD SVG 1.1//EN" "http://www.w3.org/Graphics/SVG/1.1/DTD/svg11.dtd">
<svg version="1.1" id="Lager_1" xmlns="http://www.w3.org/2000/svg" xmlns:xlink="http://www.w3.org/1999/xlink" x="0px" y="0px"
	 viewBox="0 0 53.461 53.462" enable-background="new 0 0 53.461 53.462" xml:space="preserve">
<path fill="#B0CB0B" d="M36.927,1.517c-0.292-1.091-1.423-1.744-2.511-1.452L27.234,1.99c-1.091,0.293-2.874,0.771-3.963,1.063
	l-0.209,0.056c-1.09,0.292-1.742,1.423-1.45,2.513l1.989,7.422c0.292,1.091,0.77,2.874,1.062,3.963l3.794,14.15
	c0.292,1.092-0.371,1.783-1.472,1.539c0,0-2.267-0.504-4.508,0.098c-5.608,1.502-8.938,7.27-7.434,12.877
	c1.504,5.613,7.27,8.939,12.879,7.438c4.149-1.111,7.049-4.557,7.67-8.545c0.187-1.191,0.138-1.637,0.138-1.637
	c-0.122-1.121-0.216-2.039-0.209-2.041s-0.228-0.895-0.52-1.984l-6.373-23.786c-0.292-1.09,0.359-2.22,1.45-2.512l7.18-1.925
	c1.091-0.292,1.741-1.424,1.45-2.512L36.927,1.517z"/>
</svg>
