<?xml version="1.0" encoding="utf-8"?>
<!-- Generator: Adobe Illustrator 16.0.0, SVG Export Plug-In . SVG Version: 6.00 Build 0)  -->
<!DOCTYPE svg PUBLIC "-//W3C//DTD SVG 1.1//EN" "http://www.w3.org/Graphics/SVG/1.1/DTD/svg11.dtd">
<svg version="1.1" id="Lager_1" xmlns="http://www.w3.org/2000/svg" xmlns:xlink="http://www.w3.org/1999/xlink" x="0px" y="0px"
	 viewBox="0 0 56.693 56.693" enable-background="new 0 0 56.693 56.693" xml:space="preserve">
<g>
	<path fill="#E6007E" d="M49.298,15.675c-0.811-0.897-1.902-1.446-3.115-1.577c-0.189-0.021-0.336-0.031-0.576-0.031
		s-0.336-0.111-0.336-0.297s0-4.754,0-4.754c0.938,0,1.697-0.76,1.697-1.697s-0.76-1.697-1.697-1.697h-2.547H9.571H7.819
		c-0.937,0-1.696,0.76-1.696,1.697s0.76,1.697,1.696,1.697v5.172c0,0.705,0.353,1.74,0.782,2.301L20.963,32.57
		c0.43,0.559,0.842,1.592,0.917,2.293c0,0,1.525,15.465,1.555,15.75c0.03,0.285,0.2,0.459,0.477,0.459c0.275,0,4.874,0,5.237,0
		s0.479-0.209,0.512-0.508c0.032-0.301,1.55-15.701,1.55-15.701c0.074-0.701,0.487-1.734,0.917-2.293c0,0,1.657-2.152,1.797-2.336
		c0.139-0.185,0.338-0.307,0.602-0.308c0.266-0.001,4.754,0,4.754,0c2.717,0,4.904-1.065,6.689-3.258
		c1.217-1.492,2.061-2.564,2.656-3.371c1.17-1.584,1.787-2.472,1.918-3.749C50.688,18.125,50.235,16.713,49.298,15.675z
		 M47.843,19.272c-0.053,0.523-0.346,0.985-1.4,2.413c-0.561,0.76-1.404,1.83-2.578,3.268c-1.27,1.562-2.684,2.258-4.584,2.258
		c0,0-2.338,0.005-2.586,0c-0.25-0.006-0.387-0.107-0.156-0.377c0.205-0.244,6.385-8.305,7.541-9.811
		c0.119-0.156,0.266-0.242,0.486-0.242c0.219,0,1.041,0,1.041,0c0.666,0,1.262,0.254,1.676,0.713
		C47.706,17.963,47.909,18.611,47.843,19.272z"/>
	<g>
		<path fill="#8C005A" d="M22.299,7.195v3.34c0,1.368,1.108,2.477,2.477,2.477c1.367,0,2.477-1.108,2.477-2.477l0.038-0.959
			c0-0.88,0.714-1.594,1.593-1.594c0.88,0,1.594,0.714,1.594,1.594v4.952c0,1.304,1.057,2.36,2.36,2.36
			c1.304,0,2.361-1.057,2.361-2.36V7.205c0-0.875,0.709-1.584,1.584-1.584H20.725C21.594,5.621,22.299,6.326,22.299,7.195z"/>
	</g>
</g>
</svg>
