<?xml version="1.0" encoding="utf-8"?>
<!-- Generator: Adobe Illustrator 16.0.0, SVG Export Plug-In . SVG Version: 6.00 Build 0)  -->
<!DOCTYPE svg PUBLIC "-//W3C//DTD SVG 1.1//EN" "http://www.w3.org/Graphics/SVG/1.1/DTD/svg11.dtd">
<svg version="1.1" id="Lager_1" xmlns="http://www.w3.org/2000/svg" xmlns:xlink="http://www.w3.org/1999/xlink" x="0px" y="0px"
	 viewBox="0 0 73.701 73.701" enable-background="new 0 0 73.701 73.701" xml:space="preserve">
<g>
	<g>
		<g>
			<path fill="#E6007E" d="M72.461,25.989c-0.212-0.798-0.651-1.68-1.291-2.642c-0.496-0.745-1.088-1.48-1.58-2.067
				C62.457,12.757,52.052,7.067,40.306,6.146c-0.66-0.053-1.24-0.078-1.24-0.078c-0.413-0.018-0.754-0.372-0.754-0.787V3.347
				c0-0.415-0.054-1.066-0.118-1.448c0,0,0,0-0.202-0.267c-0.292-0.387-0.754-0.636-1.275-0.637c-0.547,0-1.029,0.274-1.317,0.693
				c-0.176,0.256-0.176,0.256-0.176,0.256c-0.058,0.355-0.104,0.986-0.104,1.402v1.951c0,0.414-0.339,0.772-0.753,0.795
				c0,0-0.643,0.034-1.334,0.098c-11.538,1.045-21.747,6.69-28.776,15.09c-0.64,0.764-1.392,1.817-2.038,2.71
				c-1.938,2.682-1.045,5.135-0.112,6.034c0.933,0.898,2.203,1.451,3.603,1.451c1.753,0,3.301-0.869,4.244-2.199
				c0.316-0.447,0.564-0.949,0.729-1.486c0.043-0.143,0.139-0.233,0.231-0.244c0.411-1.656,1.052-3.037,1.325-3.576
				C17.718,13.103,26.731,6.011,36.923,6.011c10.16,0,19.148,7.047,24.635,17.858c0.294,0.575,0.597,1.253,0.842,1.862
				c0.216,0.537,0.431,1.174,0.549,1.703c0.07,0,0.136,0.053,0.161,0.151c0.159,0.614,0.427,1.185,0.785,1.69
				c0.941,1.33,2.491,2.199,4.244,2.199c1.04,0,2.007-0.305,2.819-0.83C71.506,30.292,73.174,28.669,72.461,25.989z"/>
			<path fill="#E6007E" d="M36.634,31.466c-0.687-0.039-1.337-0.211-1.927-0.488c0.24,0.246,0.412,0.611,0.412,0.928
				c0,0,0,40.215,0,40.43s0.122,0.371,0.372,0.371c0.251,0,2.201,0,2.451,0c0.252,0,0.37-0.143,0.37-0.41s0-40.256,0-40.256
				c-0.001-0.322,0.188-0.678,0.449-0.902c-0.572,0.217-1.191,0.338-1.839,0.338C36.826,31.476,36.729,31.47,36.634,31.466z"/>
			<path fill="#E6007E" d="M51.659,23.81C48.371,13.032,42.995,6.011,36.923,6.011c1.896,0,3.59,5.998,4.712,15.414
				c0.058,0.475,0.277,2.606,0.392,4.309c0.045,0.654,0.075,1.252,0.097,1.744c0.096,0.02,0.187,0.166,0.215,0.26
				c0.633,2.16,2.626,3.738,4.99,3.738c2.402,0,4.424-1.627,5.023-3.842c0.04-0.156,0.123-0.268,0.207-0.238
				c-0.02-0.118-0.041-0.24-0.067-0.37C52.271,25.889,51.804,24.28,51.659,23.81z"/>
			<path fill="#E6007E" d="M36.923,6.011c-6.461,0-12.133,7.949-15.342,19.913c-0.059,0.218-0.185,0.823-0.305,1.532
				c0.099-0.036,0.196,0.104,0.251,0.288c0.634,2.157,2.628,3.731,4.991,3.731c2.397,0,4.414-1.621,5.018-3.828
				c0.018-0.069,0.091-0.186,0.175-0.205c0.064-1.709,0.233-3.629,0.28-4.079C33.106,12.839,34.899,6.011,36.923,6.011z"/>
		</g>
	</g>
	<path fill="#009FE4" d="M61.558,23.869C56.071,13.058,47.083,6.011,36.923,6.011c6.072,0,11.448,7.021,14.736,17.799
		c0.145,0.471,0.611,2.079,0.832,3.216c0.026,0.13,0.048,0.252,0.067,0.37c0.055,0.02,0.114,0.102,0.164,0.279
		c0.609,2.193,2.623,3.801,5.012,3.801c2.397,0,4.416-1.621,5.018-3.829c0.041-0.147,0.12-0.21,0.196-0.212
		c-0.118-0.529-0.333-1.166-0.549-1.703C62.154,25.122,61.852,24.444,61.558,23.869z"/>
	<path fill="#009FE4" d="M36.923,6.011c-10.192,0-19.205,7.092-24.686,17.959c-0.273,0.539-0.914,1.92-1.325,3.576
		c0.083-0.01,0.165,0.043,0.207,0.189c0.632,2.162,2.629,3.74,4.993,3.74c0.74,0,1.559-0.209,2.317-0.545
		c1.284-0.641,2.269-1.795,2.679-3.196c0.051-0.173,0.109-0.258,0.168-0.278c0.12-0.709,0.246-1.314,0.305-1.532
		C24.79,13.96,30.461,6.011,36.923,6.011z"/>
	<path fill="#009FE4" d="M41.925,27.709c0.055-0.19,0.128-0.245,0.198-0.231c-0.021-0.492-0.052-1.09-0.097-1.744
		c-0.114-1.702-0.334-3.834-0.392-4.309c-1.122-9.416-2.816-15.414-4.712-15.414c-2.023,0-3.817,6.828-4.932,17.353
		c-0.047,0.45-0.216,2.37-0.28,4.079c0.071-0.016,0.146,0.035,0.203,0.239c0.162,0.577,0.423,1.111,0.759,1.589
		c0.891,1.26,2.325,2.105,3.961,2.195c0.096,0.004,0.192,0.01,0.289,0.01C39.299,31.478,41.302,29.886,41.925,27.709z"/>
</g>
</svg>
