<?xml version="1.0" encoding="utf-8"?>
<!-- Generator: Adobe Illustrator 16.0.0, SVG Export Plug-In . SVG Version: 6.00 Build 0)  -->
<!DOCTYPE svg PUBLIC "-//W3C//DTD SVG 1.1//EN" "http://www.w3.org/Graphics/SVG/1.1/DTD/svg11.dtd">
<svg version="1.1" id="Lager_1" xmlns="http://www.w3.org/2000/svg" xmlns:xlink="http://www.w3.org/1999/xlink" x="0px" y="0px"
	 viewBox="0 0 73.701 73.701" enable-background="new 0 0 73.701 73.701" xml:space="preserve">
<g>
	<g>
		<g>
			<path fill="#009FE4" d="M72.462,25.989c-0.213-0.798-0.65-1.68-1.291-2.642c-0.498-0.745-1.09-1.48-1.58-2.067
				C62.458,12.757,52.052,7.067,40.306,6.146c-0.66-0.053-1.238-0.078-1.238-0.078c-0.416-0.018-0.756-0.372-0.756-0.787V3.347
				c0-0.415-0.053-1.066-0.117-1.448c0,0,0,0-0.203-0.267c-0.291-0.387-0.754-0.636-1.275-0.637c-0.545,0-1.027,0.274-1.316,0.693
				c-0.178,0.256-0.178,0.256-0.178,0.256c-0.057,0.355-0.104,0.986-0.104,1.402v1.951c0,0.414-0.34,0.772-0.752,0.795
				c0,0-0.643,0.034-1.334,0.098c-11.537,1.045-21.747,6.69-28.777,15.09c-0.639,0.764-1.392,1.817-2.038,2.71
				c-1.938,2.682-1.045,5.135-0.111,6.034c0.934,0.898,2.202,1.451,3.602,1.451c1.754,0,3.302-0.869,4.243-2.199
				c0.319-0.447,0.566-0.949,0.729-1.486c0.044-0.143,0.139-0.233,0.231-0.244c0.412-1.656,1.053-3.037,1.325-3.576
				C17.718,13.103,26.732,6.011,36.923,6.011c10.16,0,19.148,7.047,24.637,17.858c0.291,0.575,0.596,1.253,0.84,1.862
				c0.217,0.537,0.432,1.174,0.549,1.703c0.07,0,0.137,0.053,0.16,0.151c0.16,0.614,0.428,1.185,0.785,1.69
				c0.943,1.329,2.49,2.199,4.246,2.199c1.039,0,2.006-0.305,2.818-0.83C71.505,30.291,73.175,28.669,72.462,25.989z"/>
			<path fill="#009FE4" d="M36.634,31.465c-0.688-0.038-1.338-0.21-1.928-0.488c0.242,0.247,0.412,0.612,0.412,0.929
				c0,0,0,40.215,0,40.43s0.123,0.371,0.375,0.371c0.25,0,2.199,0,2.451,0c0.25,0,0.367-0.144,0.367-0.411
				c0-0.267,0-40.255,0-40.255c0-0.322,0.189-0.679,0.451-0.902c-0.574,0.217-1.191,0.338-1.84,0.338
				C36.825,31.476,36.729,31.47,36.634,31.465z"/>
			<path fill="#009FE4" d="M51.661,23.81C48.372,13.032,42.995,6.011,36.923,6.011c1.895,0,3.59,5.998,4.713,15.414
				c0.057,0.475,0.275,2.606,0.391,4.309c0.045,0.654,0.076,1.252,0.098,1.744c0.096,0.02,0.188,0.166,0.213,0.26
				c0.633,2.16,2.627,3.738,4.992,3.738c2.402,0,4.424-1.627,5.021-3.842c0.043-0.156,0.123-0.268,0.207-0.238
				c-0.02-0.118-0.041-0.24-0.066-0.37C52.271,25.889,51.804,24.28,51.661,23.81z"/>
			<path fill="#009FE4" d="M36.923,6.011c-6.462,0-12.135,7.949-15.342,19.913c-0.061,0.218-0.185,0.823-0.305,1.532
				c0.099-0.036,0.196,0.104,0.251,0.288c0.635,2.157,2.627,3.731,4.99,3.731c2.397,0,4.415-1.622,5.018-3.828
				c0.019-0.069,0.092-0.186,0.176-0.205c0.063-1.709,0.233-3.629,0.279-4.079C33.106,12.839,34.899,6.011,36.923,6.011z"/>
		</g>
	</g>
	<path fill="#FFE57E" d="M61.56,23.869C56.071,13.058,47.083,6.011,36.923,6.011c6.072,0,11.449,7.021,14.738,17.799
		c0.143,0.471,0.609,2.079,0.83,3.216c0.025,0.13,0.047,0.252,0.066,0.37c0.057,0.02,0.115,0.102,0.164,0.279
		c0.611,2.193,2.623,3.801,5.012,3.801c2.398,0,4.416-1.621,5.02-3.829c0.039-0.147,0.119-0.21,0.195-0.212
		c-0.117-0.529-0.332-1.166-0.549-1.703C62.155,25.122,61.851,24.444,61.56,23.869z"/>
	<path fill="#FFE57E" d="M36.923,6.011c-10.191,0-19.205,7.092-24.687,17.959c-0.272,0.539-0.913,1.92-1.325,3.576
		c0.083-0.01,0.166,0.043,0.208,0.189c0.632,2.162,2.627,3.74,4.993,3.74c0.74,0,1.558-0.21,2.315-0.545
		c1.285-0.642,2.271-1.795,2.68-3.196c0.051-0.173,0.11-0.258,0.169-0.278c0.12-0.709,0.244-1.314,0.305-1.532
		C24.788,13.96,30.46,6.011,36.923,6.011z"/>
	<path fill="#FFE57E" d="M41.925,27.709c0.055-0.19,0.129-0.245,0.199-0.231c-0.021-0.492-0.053-1.09-0.098-1.744
		c-0.115-1.702-0.334-3.834-0.391-4.309c-1.123-9.416-2.818-15.414-4.713-15.414c-2.023,0-3.817,6.828-4.933,17.353
		c-0.046,0.45-0.216,2.37-0.279,4.079c0.07-0.016,0.146,0.035,0.203,0.239c0.162,0.577,0.423,1.111,0.759,1.589
		c0.89,1.26,2.325,2.104,3.961,2.194c0.096,0.005,0.191,0.011,0.289,0.011C39.298,31.478,41.302,29.885,41.925,27.709z"/>
</g>
</svg>
