<?xml version="1.0" encoding="utf-8"?>
<!-- Generator: Adobe Illustrator 16.0.0, SVG Export Plug-In . SVG Version: 6.00 Build 0)  -->
<!DOCTYPE svg PUBLIC "-//W3C//DTD SVG 1.1//EN" "http://www.w3.org/Graphics/SVG/1.1/DTD/svg11.dtd">
<svg version="1.1" id="Lager_1" xmlns="http://www.w3.org/2000/svg" xmlns:xlink="http://www.w3.org/1999/xlink" x="0px" y="0px"
	 viewBox="0 0 70.866 70.866" enable-background="new 0 0 70.866 70.866" xml:space="preserve">
<g>
	<g>
		<path fill="#E6007E" d="M61.451,51.388c0.531,1.285-0.084,2.773-1.37,3.307l-23.089,9.564h28.191c1.394,0,2.532-1.141,2.532-2.533
			V43.423h-9.564L61.451,51.388z"/>
		<path fill="#E6007E" d="M65.184,7.201H43.147l5.338,12.885l0.341,0.824l2.872,6.935h16.018V9.732
			C67.716,8.34,66.577,7.201,65.184,7.201z"/>
		<path fill="#E6007E" d="M54.105,33.654l0.284,0.688c0.404-0.51,1.027-0.797,1.695-0.797c1.107,0,1.721,0.648,1.93,1.297
			l-0.787,0.281c-0.106-0.377-0.459-0.811-1.143-0.811c-0.542,0-1.12,0.318-1.281,1.029l0.717,1.729
			c0.176,0.08,0.368,0.123,0.57,0.123c0.78,0,1.083-0.523,1.131-0.822h-1.333v-0.713h2.107v2.197h-0.667l-0.054-0.482
			c-0.191,0.285-0.607,0.572-1.245,0.572c-0.051,0-0.101-0.004-0.151-0.008l1.902,4.594h9.935V28.738H52.068L54.105,33.654z
			 M60.013,33.632h2.646v0.773h-1.823v0.965h1.649v0.732h-1.649v0.977h1.823v0.775h-2.646V33.632z"/>
		<polygon fill="#FFB900" points="58.151,43.423 67.716,43.423 67.716,42.531 57.781,42.531 		"/>
		<polygon fill="#FFB900" points="52.068,28.738 67.716,28.738 67.716,27.845 51.698,27.845 		"/>
		<path fill="#FFB900" d="M56.03,37.945c0.638,0,1.054-0.287,1.245-0.572l0.054,0.482h0.667v-2.197h-2.107v0.713h1.333
			c-0.048,0.299-0.351,0.822-1.131,0.822c-0.202,0-0.395-0.043-0.57-0.123l0.358,0.867C55.93,37.941,55.979,37.945,56.03,37.945z"/>
		<path fill="#FFB900" d="M54.804,35.341c0.161-0.711,0.739-1.029,1.281-1.029c0.684,0,1.036,0.434,1.143,0.811l0.787-0.281
			c-0.209-0.648-0.822-1.297-1.93-1.297c-0.668,0-1.291,0.287-1.695,0.797l0.056,0.137L54.804,35.341z"/>
		<polygon fill="#FFB900" points="62.658,37.08 60.835,37.08 60.835,36.103 62.484,36.103 62.484,35.371 60.835,35.371 
			60.835,34.406 62.658,34.406 62.658,33.632 60.013,33.632 60.013,37.855 62.658,37.855 		"/>
	</g>
	<path fill="#8C005A" d="M23.756,67l0.647,1.561c0.177,0.428,0.673,0.633,1.102,0.455l1.559-0.645l33.017-13.676
		c1.286-0.533,1.901-2.021,1.37-3.307l-7.006-16.91L16.753,50.091L23.756,67z"/>
	<path fill="#8C005A" d="M41.553,3.351c-0.533-1.289-2.022-1.906-3.307-1.372L5.231,15.657l-1.562,0.646
		c-0.428,0.178-0.633,0.674-0.455,1.103l0.645,1.56l6.932,16.734l37.695-15.613L41.553,3.351z"/>
	
		<rect x="34.982" y="21.474" transform="matrix(-0.384 -0.9233 0.9233 -0.384 10.3697 90.6633)" fill="#FFB900" width="0.893" height="40.798"/>
	
		<rect x="29.362" y="7.904" transform="matrix(0.3821 0.9241 -0.9241 0.3821 44.5742 -10.0576)" fill="#FFB900" width="0.892" height="40.8"/>
	<g>
		<path fill="#8C005A" d="M32.543,33.726l-0.616,0.256l0.449,1.084l0.616-0.256c0.385-0.16,0.519-0.473,0.387-0.793
			C33.242,33.687,32.929,33.566,32.543,33.726z"/>
		<path fill="#8C005A" d="M48.826,20.91L11.134,36.523l5.276,12.744l37.695-15.613L48.826,20.91z M20.225,42.722
			c-1.036,0.428-1.768-0.049-2.058-0.578l0.625-0.48c0.193,0.371,0.607,0.607,1.157,0.379c0.407-0.168,0.547-0.465,0.435-0.74
			c-0.095-0.225-0.338-0.33-0.664-0.266l-0.591,0.115c-0.674,0.131-1.242-0.105-1.486-0.693c-0.286-0.693,0.115-1.479,0.853-1.783
			c0.948-0.393,1.548,0.029,1.817,0.434l-0.597,0.49c-0.127-0.199-0.442-0.461-0.936-0.254c-0.37,0.15-0.515,0.488-0.406,0.746
			c0.089,0.215,0.296,0.328,0.604,0.266l0.59-0.123c0.766-0.154,1.337,0.15,1.565,0.699C21.382,41.533,21.132,42.345,20.225,42.722z
			 M24.376,40.906l-3.058-3.305l0.83-0.344l2.219,2.479l-0.182-3.322l0.802-0.33l0.169,4.498L24.376,40.906z M28.203,39.32
			l-1.614-3.9l2.442-1.012l0.297,0.715l-1.684,0.699l0.369,0.891l1.522-0.633l0.281,0.678l-1.523,0.631l0.373,0.902l1.685-0.697
			l0.295,0.715L28.203,39.32z M34.43,36.742l-1.387-1.186l-0.396,0.164l0.623,1.502l-0.765,0.316l-1.616-3.9l1.523-0.631
			c0.76-0.314,1.461,0.008,1.741,0.684c0.225,0.545,0.076,1.09-0.373,1.449l1.497,1.25L34.43,36.742z M37.042,35.66l-1.614-3.902
			l0.769-0.318l1.616,3.9L37.042,35.66z M42.719,33.308l-0.234-0.426c-0.066,0.338-0.342,0.76-0.93,1.004
			c-1.051,0.436-2.268,0.037-2.789-1.223s0.099-2.426,1.154-2.863c1.023-0.424,1.838-0.059,2.278,0.461l-0.617,0.561
			c-0.244-0.307-0.735-0.574-1.367-0.311c-0.589,0.242-1.061,0.908-0.679,1.834c0.365,0.879,1.133,1.096,1.788,0.826
			c0.719-0.299,0.798-0.898,0.73-1.193L40.82,32.49l-0.273-0.66l1.947-0.809l0.841,2.031L42.719,33.308z M45.199,32.281
			l-1.615-3.902l2.442-1.01l0.297,0.715l-1.684,0.698l0.369,0.891l1.524-0.631l0.278,0.676l-1.522,0.631l0.373,0.904l1.684-0.699
			l0.297,0.717L45.199,32.281z"/>
		<path fill="#FFB900" d="M19.569,40.234l-0.59,0.123c-0.309,0.063-0.516-0.051-0.604-0.266c-0.108-0.258,0.036-0.596,0.406-0.746
			c0.493-0.207,0.809,0.055,0.936,0.254l0.597-0.49c-0.27-0.404-0.869-0.826-1.817-0.434c-0.737,0.305-1.139,1.09-0.853,1.783
			c0.244,0.588,0.813,0.824,1.486,0.693l0.591-0.115c0.326-0.064,0.569,0.041,0.664,0.266c0.112,0.275-0.027,0.572-0.435,0.74
			c-0.55,0.229-0.964-0.008-1.157-0.379l-0.625,0.48c0.29,0.529,1.021,1.006,2.058,0.578c0.907-0.377,1.157-1.189,0.909-1.789
			C20.906,40.384,20.334,40.08,19.569,40.234z"/>
		<polygon fill="#FFB900" points="24.186,36.414 24.368,39.736 22.149,37.257 21.319,37.601 24.376,40.906 25.157,40.582 
			24.988,36.083 		"/>
		<polygon fill="#FFB900" points="28.667,38.291 28.293,37.388 29.817,36.757 29.536,36.08 28.013,36.712 27.644,35.822 
			29.328,35.123 29.031,34.408 26.588,35.419 28.203,39.32 30.646,38.308 30.351,37.593 		"/>
		<path fill="#FFB900" d="M34.153,33.691c-0.28-0.676-0.981-0.998-1.741-0.684l-1.523,0.631l1.616,3.9l0.765-0.316l-0.623-1.502
			l0.396-0.164l1.387,1.186l0.848-0.352l-1.497-1.25C34.229,34.781,34.378,34.236,34.153,33.691z M32.992,34.81l-0.616,0.256
			l-0.449-1.084l0.616-0.256c0.386-0.16,0.699-0.039,0.836,0.291C33.511,34.337,33.377,34.65,32.992,34.81z"/>
		
			<rect x="34.509" y="33.131" transform="matrix(-0.3822 -0.9241 0.9241 -0.3822 19.6175 80.2113)" fill="#FFB900" width="4.223" height="0.834"/>
		<path fill="#FFB900" d="M40.547,31.83l0.273,0.66l1.233-0.512c0.067,0.295-0.012,0.895-0.73,1.193
			c-0.655,0.27-1.423,0.053-1.788-0.826c-0.382-0.926,0.09-1.592,0.679-1.834c0.632-0.264,1.123,0.004,1.367,0.311l0.617-0.561
			c-0.44-0.52-1.255-0.885-2.278-0.461c-1.056,0.438-1.676,1.604-1.154,2.863s1.738,1.658,2.789,1.223
			c0.588-0.244,0.863-0.666,0.93-1.004l0.234,0.426l0.616-0.256l-0.841-2.031L40.547,31.83z"/>
		<polygon fill="#FFB900" points="45.662,31.251 45.289,30.347 46.812,29.716 46.533,29.041 45.009,29.671 44.64,28.781 
			46.323,28.083 46.026,27.368 43.584,28.378 45.199,32.281 47.643,31.269 47.346,30.552 		"/>
	</g>
</g>
</svg>
