<?xml version="1.0" encoding="utf-8"?>
<!-- Generator: Adobe Illustrator 16.0.0, SVG Export Plug-In . SVG Version: 6.00 Build 0)  -->
<!DOCTYPE svg PUBLIC "-//W3C//DTD SVG 1.1//EN" "http://www.w3.org/Graphics/SVG/1.1/DTD/svg11.dtd">
<svg version="1.1" id="Lager_1" xmlns="http://www.w3.org/2000/svg" xmlns:xlink="http://www.w3.org/1999/xlink" x="0px" y="0px"
	 viewBox="0 0 82.205 82.205" enable-background="new 0 0 82.205 82.205" xml:space="preserve">
<g>
	<g>
		<path fill="#B0CB0B" d="M77.602,41.812L14.116,27.738c-0.491-0.11-0.982,0.203-1.091,0.695l-1.313,5.916l-1.509,6.812H9.286H4.802
			c-0.505,0-0.917,0.411-0.917,0.916v33.988c0,0.504,0.412,0.918,0.917,0.918h65.025c0.504,0,1.006-0.404,1.113-0.896l7.357-33.182
			C78.407,42.413,78.092,41.92,77.602,41.812z"/>
	</g>
	<g>
		<polygon fill="#D2E182" points="74.553,44.7 70.743,43.844 70.743,61.885 		"/>
		<g>
			<polygon fill="#D2E182" points="67.475,73.723 31.938,73.811 31.929,44.551 67.475,44.641 			"/>
		</g>
		<g>
			<path fill="#D2E182" d="M8.821,50.327c0.038,0.75,0.612,1.361,1.474,1.361c0.774,0,1.396-0.512,1.396-1.324
				c0-0.924-0.687-1.359-1.434-1.359c-0.55,0-0.985,0.25-1.248,0.549c-0.163-0.063-1.398-0.486-1.572-0.537l0.96-4.156h4.567v1.484
				H9.571l-0.4,1.787c0.35-0.326,0.924-0.5,1.461-0.5c1.621,0,2.771,0.973,2.771,2.707c0,1.51-1.16,2.82-3.107,2.82
				c-1.76,0-2.982-1.197-3.083-2.471L8.821,50.327z"/>
			<path fill="#D2E182" d="M14.675,46.034c0.536-0.799,1.409-1.361,2.671-1.361c1.259,0,2.134,0.563,2.657,1.361
				c0.549,0.836,0.725,1.848,0.725,2.883c0,1.037-0.176,2.047-0.725,2.883c-0.523,0.799-1.398,1.359-2.657,1.359
				c-1.262,0-2.135-0.561-2.671-1.359c-0.55-0.836-0.712-1.846-0.712-2.883C13.963,47.881,14.125,46.87,14.675,46.034z
				 M16.122,50.975c0.249,0.4,0.636,0.662,1.224,0.662c0.599,0,0.96-0.262,1.209-0.662c0.325-0.486,0.449-1.209,0.449-2.059
				c0-0.848-0.124-1.574-0.449-2.061c-0.249-0.398-0.61-0.66-1.209-0.66c-0.588,0-0.975,0.262-1.224,0.66
				c-0.313,0.486-0.438,1.213-0.438,2.061C15.685,49.766,15.81,50.489,16.122,50.975z"/>
			<path fill="#D2E182" d="M22.044,46.034c0.536-0.799,1.409-1.361,2.67-1.361s2.135,0.563,2.659,1.361
				c0.549,0.836,0.724,1.848,0.724,2.883c0,1.037-0.175,2.047-0.724,2.883c-0.524,0.799-1.398,1.359-2.659,1.359
				s-2.134-0.561-2.67-1.359c-0.549-0.836-0.712-1.846-0.712-2.883C21.332,47.881,21.495,46.87,22.044,46.034z M23.491,50.975
				c0.25,0.4,0.637,0.662,1.223,0.662c0.599,0,0.962-0.262,1.211-0.662c0.325-0.486,0.448-1.209,0.448-2.059
				c0-0.848-0.123-1.574-0.448-2.061c-0.249-0.398-0.612-0.66-1.211-0.66c-0.586,0-0.973,0.262-1.223,0.66
				c-0.312,0.486-0.437,1.213-0.437,2.061C23.055,49.766,23.18,50.489,23.491,50.975z"/>
		</g>
		<g>
			<polygon fill="#D2E182" points="39.867,36.921 38.928,41.161 58.774,41.161 			"/>
		</g>
		<g>
			<path fill="#D2E182" d="M16.884,40.641c1.9,0.421,3.316-0.606,3.645-2.08c0.375-1.695-0.535-2.893-2.12-3.244
				c-0.522-0.116-1.121-0.07-1.533,0.171l0.777-1.655l3.313,0.733l0.321-1.449l-4.459-0.989l-1.837,3.85
				c0.158,0.088,1.272,0.77,1.418,0.865c0.321-0.236,0.802-0.385,1.338-0.267c0.73,0.162,1.307,0.737,1.106,1.639
				c-0.176,0.792-0.896,1.156-1.651,0.989c-0.841-0.187-1.269-0.908-1.144-1.647l-1.649,0.005
				C14.23,38.825,15.166,40.26,16.884,40.641z"/>
			<path fill="#D2E182" d="M27.986,38.757c0.226-1.012,0.272-2.037-0.082-2.972c-0.339-0.893-1.07-1.631-2.3-1.904
				c-1.232-0.272-2.206,0.087-2.902,0.75c-0.717,0.698-1.095,1.649-1.318,2.661c-0.226,1.012-0.285,2.033,0.07,2.969
				c0.121,0.31,0.291,0.598,0.509,0.856l4.956,0.013C27.472,40.47,27.792,39.637,27.986,38.757z M25.421,40.297
				c-0.329,0.336-0.739,0.513-1.325,0.385c-0.572-0.128-0.894-0.468-1.05-0.912c-0.2-0.543-0.165-1.275,0.019-2.104
				c0.184-0.828,0.463-1.509,0.873-1.916c0.329-0.335,0.764-0.508,1.337-0.382c0.585,0.131,0.882,0.464,1.038,0.908
				c0.212,0.545,0.176,1.279-0.007,2.108C26.122,39.212,25.843,39.892,25.421,40.297z"/>
			<path fill="#D2E182" d="M30.259,39.261c0.184-0.829,0.463-1.51,0.873-1.917c0.329-0.336,0.764-0.508,1.337-0.381
				c0.585,0.131,0.882,0.464,1.038,0.907c0.213,0.545,0.178,1.28-0.007,2.108c-0.097,0.438-0.221,0.831-0.379,1.168l1.839,0.004
				c0.087-0.259,0.161-0.526,0.221-0.8c0.226-1.012,0.273-2.035-0.082-2.971c-0.339-0.894-1.069-1.631-2.301-1.903
				c-1.23-0.272-2.205,0.086-2.901,0.75c-0.717,0.698-1.095,1.649-1.318,2.661c-0.169,0.757-0.244,1.519-0.122,2.246l1.717,0.005
				C30.053,40.625,30.101,39.979,30.259,39.261z"/>
		</g>
	</g>
	<g>
		<circle fill="#FFB900" cx="54.462" cy="17.474" r="12.248"/>
	</g>
	<g>
		<path fill="#FFE57E" d="M54.458,28.016c-1.385,0-2.74-0.271-4.029-0.805c-2.6-1.078-4.626-3.102-5.704-5.705
			c-1.078-2.601-1.078-5.466-0.002-8.066c1.639-3.954,5.463-6.508,9.743-6.508c1.385,0,2.74,0.271,4.029,0.805
			c5.369,2.224,7.928,8.401,5.703,13.771C62.561,25.462,58.737,28.016,54.458,28.016z M54.465,8.548
			c-3.623,0-6.863,2.163-8.248,5.51c-0.913,2.202-0.913,4.627,0,6.831c0.912,2.202,2.627,3.917,4.83,4.83
			c1.092,0.451,2.238,0.681,3.41,0.681c3.623,0,6.859-2.163,8.248-5.511c1.883-4.546-0.283-9.776-4.83-11.659
			C56.784,8.777,55.635,8.548,54.465,8.548z"/>
	</g>
	<g>
		<g>
			<path fill="#FFE57E" d="M51.254,18.44c-0.408,1.232,0.102,2.499,1.4,3.038c1.178,0.486,2.461,0.085,2.979-1.162
				c0.574-1.387-0.162-2.502-1.305-2.977c-0.797-0.33-1.609-0.28-2.193,0.005l-1.664-1.521l3.732-5.091l6.15,2.548L59.6,15.1
				l-4.748-1.967l-1.869,2.554c0.693-0.301,1.674-0.219,2.471,0.111c2.236,0.925,3.273,2.979,2.297,5.333
				c-0.875,2.114-3.236,3.207-5.834,2.13c-2.426-1.004-3.422-3.304-2.828-5.128L51.254,18.44z"/>
		</g>
	</g>
	<g>
		<circle fill="#FFB900" cx="29.258" cy="16.779" r="9.186"/>
	</g>
	<g>
		<path fill="#FFE57E" d="M29.259,24.208c-4.096,0-7.43-3.332-7.43-7.428c0-4.096,3.334-7.428,7.43-7.428s7.427,3.332,7.427,7.428
			C36.686,20.876,33.354,24.208,29.259,24.208z M29.259,10.968c-3.205,0-5.814,2.607-5.814,5.812c0,3.205,2.609,5.813,5.814,5.813
			c3.203,0,5.811-2.607,5.811-5.813C35.069,13.575,32.462,10.968,29.259,10.968z"/>
	</g>
	<g>
		<g>
			<path fill="#FFE57E" d="M26.141,19.709v-3.915h-1.438v-0.975c0.9-0.01,1.54-0.52,1.643-1.132h1.252v6.021H26.141z"/>
		</g>
		<g>
			<path fill="#FFE57E" d="M28.897,14.578c0.398-0.603,1.066-1.029,2.041-1.029c0.982,0,1.65,0.427,2.051,1.029
				c0.417,0.632,0.528,1.382,0.528,2.125c0,0.743-0.111,1.494-0.528,2.125c-0.4,0.594-1.068,1.029-2.051,1.029
				c-0.975,0-1.643-0.436-2.041-1.029c-0.419-0.63-0.529-1.382-0.529-2.125C28.368,15.96,28.479,15.21,28.897,14.578z
				 M30.058,18.011c0.166,0.334,0.436,0.558,0.881,0.558c0.455,0,0.714-0.224,0.881-0.558c0.177-0.351,0.232-0.825,0.232-1.308
				c0-0.483-0.056-0.956-0.232-1.309c-0.167-0.333-0.426-0.556-0.881-0.556c-0.445,0-0.715,0.223-0.881,0.556
				c-0.168,0.353-0.224,0.826-0.224,1.309C29.834,17.186,29.89,17.66,30.058,18.011z"/>
		</g>
	</g>
</g>
</svg>
