<?xml version="1.0" encoding="utf-8"?>
<!-- Generator: Adobe Illustrator 16.0.0, SVG Export Plug-In . SVG Version: 6.00 Build 0)  -->
<!DOCTYPE svg PUBLIC "-//W3C//DTD SVG 1.1//EN" "http://www.w3.org/Graphics/SVG/1.1/DTD/svg11.dtd">
<svg version="1.1" id="Lager_1" xmlns="http://www.w3.org/2000/svg" xmlns:xlink="http://www.w3.org/1999/xlink" x="0px" y="0px"
	 viewBox="0 0 70.866 70.866" enable-background="new 0 0 70.866 70.866" xml:space="preserve">
<g>
	<g>
		<path fill="#E6007E" d="M61.229,8.72h-1.566v1.972c0.445,0.216,0.754,0.668,0.754,1.195c0,0.735-0.596,1.331-1.33,1.331
			s-1.331-0.596-1.331-1.331c0-0.527,0.31-0.979,0.755-1.195V8.72h-3.035v1.972c0.444,0.216,0.754,0.668,0.754,1.195
			c0,0.735-0.596,1.331-1.33,1.331s-1.332-0.596-1.332-1.331c0-0.527,0.311-0.979,0.756-1.195V8.72h-3.035v1.972
			c0.445,0.216,0.754,0.668,0.754,1.195c0,0.735-0.596,1.331-1.33,1.331s-1.332-0.596-1.332-1.331c0-0.527,0.31-0.979,0.755-1.195
			V8.72H47.1v1.972c0.444,0.216,0.754,0.668,0.754,1.195c0,0.735-0.596,1.331-1.33,1.331c-0.736,0-1.331-0.596-1.331-1.331
			c0-0.527,0.31-0.979,0.754-1.195V8.72h-3.034v1.972c0.444,0.216,0.754,0.668,0.754,1.195c0,0.735-0.596,1.331-1.331,1.331
			s-1.331-0.596-1.331-1.331c0-0.527,0.311-0.979,0.755-1.195V8.72h-3.035v1.972c0.445,0.216,0.754,0.668,0.754,1.195
			c0,0.735-0.596,1.331-1.33,1.331c-0.735,0-1.331-0.596-1.331-1.331c0-0.527,0.31-0.979,0.754-1.195V8.72h-3.034v1.972
			c0.445,0.216,0.754,0.668,0.754,1.195c0,0.735-0.597,1.331-1.331,1.331s-1.33-0.596-1.33-1.331c0-0.527,0.309-0.979,0.754-1.195
			V8.72h-3.035v1.972c0.445,0.216,0.754,0.668,0.754,1.195c0,0.735-0.596,1.331-1.331,1.331s-1.331-0.596-1.331-1.331
			c0-0.527,0.31-0.979,0.755-1.195V8.72h-3.035v1.972c0.445,0.216,0.754,0.668,0.754,1.195c0,0.735-0.596,1.331-1.331,1.331
			c-0.735,0-1.331-0.596-1.331-1.331c0-0.527,0.309-0.979,0.754-1.195V8.72h-1.601c-0.599,0-1.089,0.49-1.089,1.09v2.178v49.887
			c0,1.797,1.471,3.268,3.268,3.268H59.05c1.798,0,3.269-1.471,3.269-3.268V11.987V9.81C62.319,9.21,61.829,8.72,61.229,8.72z"/>
	</g>
	<g>
		<path fill="#F0A5C3" d="M50.971,34.212c-0.002-0.002-0.003-0.004-0.003-0.006c-0.001-0.008-0.004-0.017-0.006-0.024
			c-0.47-2.032-2.072-3.546-4.178-3.638c-0.139-0.014-0.276-0.021-0.419-0.021c-1.608,0-3.027,0.828-3.885,2.092
			c-0.031,0.045-0.078,0.105-0.146,0.101c-0.069,0.006-0.116-0.056-0.147-0.101c-0.857-1.265-2.276-2.092-3.886-2.092
			c-0.141,0-0.28,0.007-0.418,0.021c-2.104,0.092-3.708,1.605-4.177,3.638c-0.002,0.008-0.005,0.017-0.007,0.024
			c0,0.002,0,0.004,0,0.006c-0.095,0.385-0.146,0.788-0.146,1.205c0,1.475,0.39,2.897,1.184,4.231
			c1.144,1.922,3.116,3.625,5.127,5.145c1.17,0.883,1.925,1.336,2.47,1.336c0.566,0,1.265-0.453,2.468-1.336
			c2.029-1.492,3.984-3.223,5.129-5.145c0.793-1.334,1.184-2.756,1.184-4.231C51.116,35,51.065,34.597,50.971,34.212z"/>
	</g>
	<g>
		<g>
			<path fill="#8C005A" d="M26.162,10.691V6.301c0-0.319-0.258-0.577-0.576-0.577c-0.318,0-0.577,0.258-0.577,0.577v4.391
				c-0.445,0.216-0.754,0.668-0.754,1.195c0,0.735,0.595,1.331,1.331,1.331c0.734,0,1.331-0.596,1.331-1.331
				C26.916,11.359,26.607,10.907,26.162,10.691z"/>
			<path fill="#8C005A" d="M30.349,10.691V6.301c0-0.319-0.258-0.577-0.576-0.577s-0.576,0.258-0.576,0.577v4.391
				c-0.445,0.216-0.755,0.668-0.755,1.195c0,0.735,0.597,1.331,1.331,1.331s1.331-0.596,1.331-1.331
				C31.104,11.359,30.794,10.907,30.349,10.691z"/>
			<path fill="#8C005A" d="M34.537,10.691V6.301c0-0.319-0.258-0.577-0.577-0.577s-0.576,0.258-0.576,0.577v4.391
				c-0.445,0.216-0.754,0.668-0.754,1.195c0,0.735,0.596,1.331,1.33,1.331s1.331-0.596,1.331-1.331
				C35.292,11.359,34.982,10.907,34.537,10.691z"/>
			<path fill="#8C005A" d="M38.725,10.691V6.301c0-0.319-0.258-0.577-0.576-0.577s-0.577,0.258-0.577,0.577v4.391
				c-0.444,0.216-0.754,0.668-0.754,1.195c0,0.735,0.596,1.331,1.331,1.331c0.734,0,1.33-0.596,1.33-1.331
				C39.479,11.359,39.169,10.907,38.725,10.691z"/>
			<path fill="#8C005A" d="M42.913,10.691V6.301c0-0.319-0.258-0.577-0.577-0.577c-0.318,0-0.576,0.258-0.576,0.577v4.391
				c-0.444,0.216-0.755,0.668-0.755,1.195c0,0.735,0.596,1.331,1.331,1.331s1.331-0.596,1.331-1.331
				C43.667,11.359,43.357,10.907,42.913,10.691z"/>
			<path fill="#8C005A" d="M47.1,10.691V6.301c0-0.319-0.259-0.577-0.576-0.577c-0.318,0-0.577,0.258-0.577,0.577v4.391
				c-0.444,0.216-0.754,0.668-0.754,1.195c0,0.735,0.595,1.331,1.331,1.331c0.734,0,1.33-0.596,1.33-1.331
				C47.854,11.359,47.544,10.907,47.1,10.691z"/>
			<path fill="#8C005A" d="M51.288,10.691V6.301c0-0.319-0.259-0.577-0.576-0.577c-0.318,0-0.577,0.258-0.577,0.577v4.391
				c-0.445,0.216-0.755,0.668-0.755,1.195c0,0.735,0.598,1.331,1.332,1.331s1.33-0.596,1.33-1.331
				C52.042,11.359,51.733,10.907,51.288,10.691z"/>
			<path fill="#8C005A" d="M55.475,10.691V6.301c0-0.319-0.258-0.577-0.576-0.577s-0.576,0.258-0.576,0.577v4.391
				c-0.445,0.216-0.756,0.668-0.756,1.195c0,0.735,0.598,1.331,1.332,1.331s1.33-0.596,1.33-1.331
				C56.229,11.359,55.919,10.907,55.475,10.691z"/>
			<path fill="#8C005A" d="M59.663,10.691V6.301c0-0.319-0.258-0.577-0.576-0.577S58.51,5.981,58.51,6.301v4.391
				c-0.445,0.216-0.755,0.668-0.755,1.195c0,0.735,0.597,1.331,1.331,1.331s1.33-0.596,1.33-1.331
				C60.417,11.359,60.108,10.907,59.663,10.691z"/>
		</g>
	</g>
	<path fill="#F0A5C3" d="M12.905,58.607h-2.179H8.548v2.178v2.18c0,1.197,0.98,2.178,2.178,2.178h2.179
		c1.198,0,2.178-0.98,2.178-2.178v-2.18v-2.178H12.905z"/>
	<polygon fill="#8C005A" points="10.636,12.648 12.996,12.648 11.816,8.72 	"/>
	<g>
		<path fill="#FFB900" d="M15.083,19.6c0,0.602-0.487,1.09-1.089,1.09c-0.601,0-1.089-0.488-1.089-1.09
			c0,0.602-0.487,1.09-1.089,1.09c-0.602,0-1.089-0.488-1.089-1.09c0,0.602-0.487,1.09-1.089,1.09c-0.602,0-1.089-0.488-1.089-1.09
			v35.66h6.536L15.083,19.6L15.083,19.6z"/>
	</g>
	<rect x="8.548" y="55.259" fill="#FFE57E" width="6.536" height="3.348"/>
	<g>
		<path fill="#FFE57E" d="M15.083,19.598l-0.178-0.594l-1.909-6.355h-2.359l-1.909,6.354L8.548,19.6c0,0.602,0.487,1.09,1.089,1.09
			c0.602,0,1.089-0.488,1.089-1.09c0,0.602,0.488,1.09,1.089,1.09c0.602,0,1.089-0.488,1.089-1.09c0,0.602,0.488,1.09,1.089,1.09
			c0.602,0,1.089-0.488,1.089-1.09h0L15.083,19.598z"/>
	</g>
</g>
</svg>
