<?xml version="1.0" encoding="utf-8"?>
<!-- Generator: Adobe Illustrator 16.0.0, SVG Export Plug-In . SVG Version: 6.00 Build 0)  -->
<!DOCTYPE svg PUBLIC "-//W3C//DTD SVG 1.1//EN" "http://www.w3.org/Graphics/SVG/1.1/DTD/svg11.dtd">
<svg version="1.1" id="Lager_1" xmlns="http://www.w3.org/2000/svg" xmlns:xlink="http://www.w3.org/1999/xlink" x="0px" y="0px"
	 viewBox="0 0 62.362 62.362" enable-background="new 0 0 62.362 62.362" xml:space="preserve">
<g>
	<path fill="#B0CB0B" d="M56.16,39.507L56.16,39.507L56.16,39.507L39.508,22.855L22.855,6.204l0,0c-4.6-4.599-12.053-4.599-16.652,0
		c-4.598,4.598-4.598,12.053,0,16.651l16.652,16.652l16.653,16.652c4.598,4.598,12.053,4.598,16.652,0
		C60.758,51.562,60.758,44.106,56.16,39.507z"/>
	<g>
		<path fill="#B0CB0B" d="M56.16,22.855L56.16,22.855c4.598-4.599,4.598-12.054,0-16.651c-4.598-4.599-12.055-4.599-16.652,0
			l-7.25,7.251L48.91,30.106L56.16,22.855z"/>
		<path fill="#B0CB0B" d="M6.203,39.507c-4.598,4.6-4.598,12.055,0,16.65c4.6,4.6,12.055,4.6,16.652,0v0.002l7.25-7.252
			l-16.65-16.651L6.203,39.507z"/>
	</g>
	<circle fill="#F0A5C3" cx="21.33" cy="31.18" r="1.738"/>
	<circle fill="#F0A5C3" cx="26.256" cy="36.106" r="1.738"/>
	<circle fill="#F0A5C3" cx="31.182" cy="41.033" r="1.739"/>
	<circle fill="#F0A5C3" cx="26.256" cy="26.254" r="1.738"/>
	<circle fill="#F0A5C3" cx="31.182" cy="31.18" r="1.739"/>
	<circle fill="#F0A5C3" cx="36.109" cy="36.105" r="1.738"/>
	<circle fill="#F0A5C3" cx="31.182" cy="21.327" r="1.739"/>
	<circle fill="#F0A5C3" cx="36.109" cy="26.254" r="1.738"/>
	<circle fill="#F0A5C3" cx="41.036" cy="31.18" r="1.739"/>
</g>
</svg>
