<?xml version="1.0" encoding="utf-8"?>
<!-- Generator: Adobe Illustrator 16.0.0, SVG Export Plug-In . SVG Version: 6.00 Build 0)  -->
<!DOCTYPE svg PUBLIC "-//W3C//DTD SVG 1.1//EN" "http://www.w3.org/Graphics/SVG/1.1/DTD/svg11.dtd">
<svg version="1.1" id="Lager_1" xmlns="http://www.w3.org/2000/svg" xmlns:xlink="http://www.w3.org/1999/xlink" x="0px" y="0px"
	 viewBox="0 0 62.362 62.362" enable-background="new 0 0 62.362 62.362" xml:space="preserve">
<g>
	<path fill="#FFB900" d="M56.16,39.506L56.16,39.506L56.16,39.506L39.506,22.854L22.855,6.203h-0.001
		c-4.599-4.599-12.053-4.599-16.651,0c-4.599,4.598-4.599,12.053,0,16.651l16.652,16.652l16.652,16.652
		c4.598,4.598,12.053,4.598,16.652,0C60.757,51.561,60.757,44.106,56.16,39.506z"/>
	<g>
		<path fill="#FFB900" d="M56.16,22.854L56.16,22.854c4.598-4.599,4.598-12.054,0-16.651c-4.599-4.599-12.055-4.599-16.652,0
			l-7.251,7.251l16.652,16.651L56.16,22.854z"/>
		<path fill="#FFB900" d="M6.203,39.506c-4.598,4.6-4.598,12.055,0,16.65c4.599,4.6,12.054,4.6,16.652,0v0.002l7.25-7.252
			L13.454,32.256L6.203,39.506z"/>
	</g>
	<circle fill="#FFE57E" cx="21.329" cy="31.18" r="1.738"/>
	<circle fill="#FFE57E" cx="26.256" cy="36.106" r="1.738"/>
	<circle fill="#FFE57E" cx="31.182" cy="41.033" r="1.738"/>
	<circle fill="#FFE57E" cx="26.256" cy="26.253" r="1.738"/>
	<circle fill="#FFE57E" cx="31.182" cy="31.18" r="1.738"/>
	<circle fill="#FFE57E" cx="36.108" cy="36.105" r="1.738"/>
	<circle fill="#FFE57E" cx="31.182" cy="21.326" r="1.738"/>
	<circle fill="#FFE57E" cx="36.108" cy="26.253" r="1.738"/>
	<circle fill="#FFE57E" cx="41.035" cy="31.18" r="1.738"/>
</g>
</svg>
