<?xml version="1.0" encoding="utf-8"?>
<!-- Generator: Adobe Illustrator 16.0.0, SVG Export Plug-In . SVG Version: 6.00 Build 0)  -->
<!DOCTYPE svg PUBLIC "-//W3C//DTD SVG 1.1//EN" "http://www.w3.org/Graphics/SVG/1.1/DTD/svg11.dtd">
<svg version="1.1" id="Lager_1" xmlns="http://www.w3.org/2000/svg" xmlns:xlink="http://www.w3.org/1999/xlink" x="0px" y="0px"
	 viewBox="0 0 68.032 68.032" enable-background="new 0 0 68.032 68.032" xml:space="preserve">
<path fill="#009FE4" d="M61.181,24.544H44.734c-0.684,0-1.248-0.563-1.248-1.248V6.85c0-0.687-0.561-1.249-1.248-1.249H25.791
	c-0.686,0-1.246,0.562-1.246,1.249v16.447c0,0.686-0.563,1.248-1.25,1.248H6.85c-0.688,0-1.248,0.561-1.248,1.249v16.444
	c0,0.688,0.561,1.249,1.248,1.249h16.445c0.688,0,1.25,0.563,1.25,1.248v16.446c0,0.687,0.561,1.249,1.246,1.249h16.447
	c0.688,0,1.248-0.563,1.248-1.249V44.735c0-0.686,0.564-1.248,1.248-1.248h16.447c0.688,0,1.25-0.562,1.25-1.249V25.793
	C62.431,25.105,61.869,24.544,61.181,24.544z"/>
</svg>
