<?xml version="1.0" encoding="utf-8"?>
<!-- Generator: Adobe Illustrator 16.0.0, SVG Export Plug-In . SVG Version: 6.00 Build 0)  -->
<!DOCTYPE svg PUBLIC "-//W3C//DTD SVG 1.1//EN" "http://www.w3.org/Graphics/SVG/1.1/DTD/svg11.dtd">
<svg version="1.1" id="Lager_1" xmlns="http://www.w3.org/2000/svg" xmlns:xlink="http://www.w3.org/1999/xlink" x="0px" y="0px"
	 viewBox="0 0 68.031 68.031" enable-background="new 0 0 68.031 68.031" xml:space="preserve">
<path fill="#FFB900" d="M61.18,24.545H44.736c-0.688,0-1.25-0.563-1.25-1.248V6.85c0-0.687-0.561-1.249-1.248-1.249H25.792
	c-0.686,0-1.249,0.562-1.249,1.249v16.447c0,0.686-0.561,1.248-1.248,1.248H6.85c-0.688,0-1.249,0.561-1.249,1.249v16.444
	c0,0.688,0.562,1.249,1.249,1.249h16.445c0.688,0,1.248,0.563,1.248,1.248v16.446c0,0.687,0.563,1.249,1.249,1.249h16.446
	c0.688,0,1.248-0.563,1.248-1.249V44.735c0-0.686,0.563-1.248,1.25-1.248H61.18c0.688,0,1.25-0.562,1.25-1.249V25.794
	C62.43,25.105,61.867,24.545,61.18,24.545z"/>
<text transform="matrix(1 0 0 1 79.3496 -13.3911)"><tspan x="0" y="0" fill="#FFFFFF" font-family="'SanchezFolksamMedium'" font-size="4.9194">OBS!</tspan><tspan x="0" y="11.807" fill="#FFFFFF" font-family="'SanchezFolksamMedium'" font-size="4.9194">Plusset får aldrig vara i Rosa1,  </tspan><tspan x="0" y="17.71" fill="#FFFFFF" font-family="'SanchezFolksamMedium'" font-size="4.9194">Rosa2, Rosa3 eller Rosa4.</tspan><tspan x="0" y="29.516" fill="#FFFFFF" font-family="'SanchezFolksamMedium'" font-size="4.9194">Bakgrundsfärgen bakom plusset </tspan><tspan x="0" y="35.419" fill="#FFFFFF" font-family="'SanchezFolksamMedium'" font-size="4.9194">får aldrig vara i Rosa1, Rosa2, </tspan><tspan x="0" y="41.323" fill="#FFFFFF" font-family="'SanchezFolksamMedium'" font-size="4.9194">Rosa3 eller Rosa4.</tspan></text>
<text transform="matrix(1 0 0 1 79.3496 43.8291)"><tspan x="0" y="0" fill="#1D1D1B" font-family="'SanchezFolksamMedium'" font-size="4.9194">OBS!</tspan><tspan x="0" y="11.807" fill="#1D1D1B" font-family="'SanchezFolksamMedium'" font-size="4.9194">Plusset får aldrig vara i Rosa1,  </tspan><tspan x="0" y="17.709" fill="#1D1D1B" font-family="'SanchezFolksamMedium'" font-size="4.9194">Rosa2, Rosa3 eller Rosa4.</tspan><tspan x="0" y="29.516" fill="#1D1D1B" font-family="'SanchezFolksamMedium'" font-size="4.9194">Bakgrundsfärgen bakom plusset </tspan><tspan x="0" y="35.42" fill="#1D1D1B" font-family="'SanchezFolksamMedium'" font-size="4.9194">får aldrig vara i Rosa1, Rosa2, </tspan><tspan x="0" y="41.322" fill="#1D1D1B" font-family="'SanchezFolksamMedium'" font-size="4.9194">Rosa3 eller Rosa4.</tspan></text>
</svg>
