<?xml version="1.0" encoding="utf-8"?>
<!-- Generator: Adobe Illustrator 16.0.0, SVG Export Plug-In . SVG Version: 6.00 Build 0)  -->
<!DOCTYPE svg PUBLIC "-//W3C//DTD SVG 1.1//EN" "http://www.w3.org/Graphics/SVG/1.1/DTD/svg11.dtd">
<svg version="1.1" id="Lager_1" xmlns="http://www.w3.org/2000/svg" xmlns:xlink="http://www.w3.org/1999/xlink" x="0px" y="0px"
	 viewBox="0 0 68.031 68.031" enable-background="new 0 0 68.031 68.031" xml:space="preserve">
<path fill="#B0CB0B" d="M61.18,24.544H44.736c-0.688,0-1.25-0.563-1.25-1.249V6.85c0-0.688-0.561-1.25-1.248-1.25H25.792
	c-0.686,0-1.249,0.563-1.249,1.25v16.445c0,0.687-0.561,1.249-1.248,1.249H6.85c-0.688,0-1.249,0.563-1.249,1.249v16.446
	c0,0.688,0.562,1.248,1.249,1.248h16.445c0.688,0,1.248,0.563,1.248,1.248v16.445c0,0.688,0.563,1.25,1.249,1.25h16.446
	c0.688,0,1.248-0.563,1.248-1.25V44.735c0-0.686,0.563-1.248,1.25-1.248H61.18c0.688,0,1.25-0.561,1.25-1.248V25.793
	C62.43,25.107,61.867,24.544,61.18,24.544z"/>
</svg>
