<?xml version="1.0" encoding="utf-8"?>
<!-- Generator: Adobe Illustrator 16.0.0, SVG Export Plug-In . SVG Version: 6.00 Build 0)  -->
<!DOCTYPE svg PUBLIC "-//W3C//DTD SVG 1.1//EN" "http://www.w3.org/Graphics/SVG/1.1/DTD/svg11.dtd">
<svg version="1.1" id="Lager_1" xmlns="http://www.w3.org/2000/svg" xmlns:xlink="http://www.w3.org/1999/xlink" x="0px" y="0px"
	 viewBox="0 0 800 800" enable-background="new 0 0 800 800" xml:space="preserve">
<g>
	<g>
		<path fill="#FFB900" d="M715.318,48.243c-15.608-17.329-37.356-26.5-62.863-26.5c-24.711,0-46.774,10.827-64.646,27.705
			c-0.892,0.842-2.625,2.402-2.505-0.542c0.361-8.093,0.723-16.27,0.891-24.64c0.145-6.491,0.169-12.38,0.169-12.38
			c0.024-2.938-1.108-5.721-3.204-7.828c-2.095-2.095-4.864-3.246-7.803-3.246H400.009H224.655c-2.951,0-5.721,1.15-7.816,3.246
			c-2.083,2.107-3.227,4.889-3.215,7.828c0,0,0.037,5.889,0.169,12.38c0.181,8.37,0.53,16.547,0.903,24.64
			c0.133,2.944-1.614,1.385-2.493,0.542c-17.871-16.878-39.933-27.705-64.657-27.705c-25.506,0-47.255,9.17-62.863,26.5
			c-18.161,20.159-26.639,50.23-23.267,82.523c2.18,20.912,12.14,43.83,28.048,64.567c23.014,29.98,58.54,48.479,96.149,68.072
			c15.126,7.882,30.456,15.872,44.92,24.694c1.204,0.734,2.42,1.451,3.613,2.227c3.854,2.511,1.06,5.203-0.747,6.401
			c-14.681,9.682-24.399,26.277-24.399,45.142c0,29.854,24.278,54.132,54.132,54.132c15.884,0,30.167-6.895,40.078-17.835
			c1.156-1.283,2.168-2.686,3.288-4.004c2.349-2.776,4.708-3.986,7.346-1.03c0.747,0.831,1.529,1.638,2.313,2.445
			c7.009,7.298,15.246,14.512,24.627,20.635c1.06,0.687,2.529,2.125-0.265,4.95c-4.865,4.896-7.792,11.566-7.792,18.773
			c0,11.66,7.659,21.703,18.292,25.291c1.662,0.578,2.878,1.18,2.878,4.215c0,3.061,0,42.27,0,42.27
			c0,31.119-23.7,69.512-40.09,84.133c-3.324,2.984-6.54,5.682-9.646,8.283c-8.575,7.166-16.017,13.416-19.064,20.354
			c-0.988,2.238-3.215,7.9-3.095,12.885c0.024,1.48,0.229,2.855,0.518,4.191c1.746,0,3.468,0,5.07,0h112.418h112.412
			c1.591,0,3.325,0,5.083,0c0.265-1.336,0.458-2.711,0.505-4.191c0.097-4.984-2.118-10.646-3.105-12.885
			c-3.036-6.938-10.478-13.188-19.052-20.354c-3.107-2.602-6.335-5.299-9.658-8.283c-16.379-14.621-40.097-53.014-40.097-84.133
			c0,0,0-39.209,0-42.27c0-3.035,1.228-3.637,2.891-4.215c10.633-3.588,18.299-13.631,18.299-25.291
			c0-7.207-2.944-13.877-7.798-18.773c-2.807-2.824-1.324-4.263-0.266-4.95c9.363-6.124,17.601-13.337,24.609-20.635
			c0.795-0.807,1.59-1.614,2.313-2.445c2.648-2.956,5.009-1.746,7.369,1.03c1.107,1.319,2.119,2.722,3.276,4.004
			c9.898,10.94,24.182,17.835,40.078,17.835c29.866,0,54.144-24.279,54.144-54.132c0-18.865-9.73-35.46-24.423-45.142
			c-1.807-1.198-4.576-3.89-0.723-6.401c1.181-0.776,2.386-1.493,3.614-2.227c14.45-8.822,29.768-16.812,44.919-24.694
			c37.597-19.593,73.123-38.091,96.125-68.072c15.92-20.738,25.892-43.655,28.06-64.567
			C741.957,98.474,733.479,68.402,715.318,48.243z M200.942,233.991c-34.273-17.847-66.632-34.707-85.167-58.853
			c-12.235-15.945-19.822-32.919-21.375-47.81c-2.396-22.971,3.035-43.697,14.921-56.877c9.284-10.315,22.158-15.542,38.223-15.542
			c29.469,0,64.104,29.089,75.352,78.41c7.009,46.425,17.547,87.123,30.179,122.059c1.24,3.385,1.24,8.015-5.335,4.341
			C232.218,251.025,216.646,242.18,200.942,233.991z M263.131,362.836c-11.561,0-20.967-9.399-20.967-20.966
			c0-11.555,9.406-20.955,20.967-20.955s20.966,9.4,20.966,20.955C284.098,353.437,274.692,362.836,263.131,362.836z
			 M536.869,362.836c-11.562,0-20.979-9.399-20.979-20.966c0-11.555,9.417-20.955,20.979-20.955c11.561,0,20.954,9.4,20.954,20.955
			C557.823,353.437,548.43,362.836,536.869,362.836z M705.611,127.328c-1.565,14.891-9.152,31.865-21.388,47.81
			c-18.521,24.146-50.892,41.006-85.167,58.853c-15.703,8.189-31.262,17.034-46.797,25.729c-6.575,3.674-6.575-0.957-5.323-4.341
			c12.621-34.936,23.17-75.634,30.179-122.059c11.248-49.321,45.859-78.41,75.34-78.41c16.089,0,28.927,5.227,38.223,15.542
			C702.577,83.631,707.996,104.357,705.611,127.328z"/>
		<path fill="#994916" d="M554.09,744.369c-4.504-1.59-8.671-6.516-8.671-14.463v-69.488c0-7.947,0-19.955,0-26.65
			c0-7.924-3.685-12.211-12.26-12.211c-4.07,0-262.333,0-266.391,0c-7.792,0-12.187,4.24-12.187,12.211c0,6.695,0,18.703,0,26.65
			v69.488c0,7.947-4.167,12.873-8.647,14.463c-5.432,1.902-8.647,6.502-8.647,14.463v25.893c0,7.959,6.491,14.463,14.452,14.463
			h296.522c7.948,0,14.476-6.504,14.476-14.463v-25.893C562.736,750.871,559.484,746.271,554.09,744.369z M501.944,729.435
			l-24.013,23.207H322.069l-24.013-23.207v-46.4l24.013-23.205h155.863l24.013,23.205V729.435z"/>
		<polygon fill="#FFE57E" points="477.932,659.83 322.069,659.83 298.056,683.035 298.056,729.435 322.069,752.642 477.932,752.642 
			501.944,729.435 501.944,683.035 		"/>
	</g>
	<path fill="#FFE57E" d="M494.334,175.692c0,52.097-42.228,94.331-94.325,94.331c-52.108,0-94.331-42.234-94.331-94.331
		s42.222-94.331,94.331-94.331C452.106,81.361,494.334,123.595,494.334,175.692z"/>
	<g>
		<path fill="#FFB900" d="M370.841,139.871c0-5.612,2.384-10.549,6.985-13.777c3.733-2.715,6.804-3.57,13.933-3.57h5.624
			c8.333,0,12.08,1.186,16.162,4.763c4.757,4.25,6.106,8.158,6.106,17.51v71.106c0,12.241-7.647,20.924-18.522,20.924
			c-5.455,0-11.067-2.728-14.632-6.979c-3.059-3.74-4.263-7.66-4.263-13.946v-59.359
			C374.406,153.136,370.841,147.861,370.841,139.871z"/>
	</g>
</g>
</svg>
