<?xml version="1.0" encoding="utf-8"?>
<!-- Generator: Adobe Illustrator 16.0.0, SVG Export Plug-In . SVG Version: 6.00 Build 0)  -->
<!DOCTYPE svg PUBLIC "-//W3C//DTD SVG 1.1//EN" "http://www.w3.org/Graphics/SVG/1.1/DTD/svg11.dtd">
<svg version="1.1" id="Lager_1" xmlns="http://www.w3.org/2000/svg" xmlns:xlink="http://www.w3.org/1999/xlink" x="0px" y="0px"
	 viewBox="0 0 70.866 70.866" enable-background="new 0 0 70.866 70.866" xml:space="preserve">
<g>
	<g>
		<path fill="#E6007E" d="M39.509,26.946h-8.306c-2.964,0-5.374-2.41-5.374-5.374v-8.306c0-2.963,2.41-5.375,5.374-5.375h8.306
			c2.964,0,5.375,2.412,5.375,5.375v8.306C44.884,24.536,42.473,26.946,39.509,26.946z M31.204,11.493
			c-0.978,0-1.771,0.796-1.771,1.773v8.306c0,0.978,0.794,1.773,1.771,1.773h8.306c0.979,0,1.773-0.796,1.773-1.773v-8.306
			c0-0.978-0.795-1.773-1.773-1.773H31.204z"/>
	</g>
	<polygon fill="#AEC90B" points="69.041,61.469 65.112,40.198 69.041,61.469 	"/>
	<path fill="#E6007E" d="M63.358,56.853l-5.81,6.122c0.556,0,1.11,0,1.533,0h2.745c0.842,0,2.22,0,3.063,0h2.898
		c0.403,0,0.742-0.156,0.97-0.409L63.358,56.853z"/>
	<g>
		<path fill="#E6007E" d="M5.915,34.888h55.191l2.127-16.787c-0.352-0.409-0.873-0.682-1.406-0.682H8.887
			c-0.843,0-1.656,0.679-1.81,1.506L5.183,34.268c0.014,0.141,0.061,0.269,0.146,0.371C5.461,34.799,5.669,34.888,5.915,34.888z"/>
		<path fill="#E6007E" d="M5.001,35.739l-3.177,25.73c-0.152,0.828,0.411,1.506,1.254,1.506h11.159c0.844,0,2.222,0,3.064,0h38.715
			c0.421,0,0.977,0,1.531,0l3.421-27.007H5.915C5.584,35.968,5.272,35.887,5.001,35.739z"/>
	</g>
	<path fill="#8C005A" d="M68.757,62.566c0.247-0.275,0.363-0.664,0.283-1.097l-5.404-42.544c-0.057-0.305-0.201-0.587-0.403-0.824
		l-5.685,44.874l5.81-6.122L68.757,62.566z"/>
	<g>
		<path fill="#FFFFFF" d="M18.671,29.981l-0.069,0.001c-1.886,0.038-3.636,1.679-3.899,3.659l-0.411,3.09
			c-0.136,1.021,0.129,1.972,0.745,2.675c0.57,0.651,1.379,1.01,2.276,1.01l0.068-0.002c1.887-0.037,3.636-1.68,3.899-3.659
			l0.411-3.09c0.135-1.021-0.129-1.972-0.745-2.675C20.376,30.338,19.568,29.981,18.671,29.981z"/>
		<path fill="#FFFFFF" d="M50.208,30.99c-0.568-0.651-1.377-1.009-2.275-1.009l-0.068,0.001c-1.887,0.038-3.636,1.679-3.899,3.659
			l-0.411,3.09c-0.136,1.021,0.129,1.972,0.745,2.675c0.57,0.651,1.379,1.01,2.276,1.01l0.067-0.002
			c1.888-0.037,3.637-1.68,3.899-3.659l0.411-3.09C51.089,32.643,50.826,31.693,50.208,30.99z"/>
	</g>
</g>
</svg>
