<?xml version="1.0" encoding="utf-8"?>
<!-- Generator: Adobe Illustrator 16.0.0, SVG Export Plug-In . SVG Version: 6.00 Build 0)  -->
<!DOCTYPE svg PUBLIC "-//W3C//DTD SVG 1.1//EN" "http://www.w3.org/Graphics/SVG/1.1/DTD/svg11.dtd">
<svg version="1.1" xmlns="http://www.w3.org/2000/svg" xmlns:xlink="http://www.w3.org/1999/xlink" x="0px" y="0px" viewBox="0 0 79.37 79.37" enable-background="new 0 0 79.37 79.37" xml:space="preserve">
<g id="Lager_1" display="none">
	<g display="inline">
		<g>
			<path fill="#009FE4" d="M50.016-81.206h-8.307c-2.964,0-5.373-2.41-5.373-5.374v-8.306c0-2.963,2.409-5.375,5.373-5.375h8.307
				c2.964,0,5.377,2.412,5.377,5.375v8.306C55.393-83.616,52.98-81.206,50.016-81.206z M41.709-96.659
				c-0.976,0-1.771,0.796-1.771,1.773v8.306c0,0.978,0.796,1.773,1.771,1.773h8.307c0.979,0,1.773-0.796,1.773-1.773v-8.306
				c0-0.978-0.794-1.773-1.773-1.773H41.709z"/>
		</g>
		<polygon fill="#AEC90B" points="79.545,-46.682 75.618,-67.953 79.545,-46.682 		"/>
		<path fill="#009FE4" d="M73.862-51.299l-5.809,6.123c0.557,0,1.111,0,1.531,0h2.746c0.844,0,2.223,0,3.064,0h2.898
			c0.402,0,0.742-0.156,0.969-0.41L73.862-51.299z"/>
		<g>
			<path fill="#009FE4" d="M16.42-73.264h55.192l2.125-16.787c-0.35-0.409-0.873-0.682-1.406-0.682H19.393
				c-0.842,0-1.655,0.679-1.809,1.506l-1.895,15.344c0.014,0.141,0.061,0.268,0.145,0.371C15.967-73.352,16.176-73.264,16.42-73.264
				z"/>
			<path fill="#009FE4" d="M15.508-72.412l-3.176,25.73c-0.154,0.828,0.409,1.506,1.253,1.506h11.16c0.842,0,2.22,0,3.063,0h38.713
				c0.422,0,0.977,0,1.531,0l3.42-27.008H16.42C16.091-72.184,15.778-72.264,15.508-72.412z"/>
		</g>
		<path fill="#0A4682" d="M79.262-45.586c0.248-0.275,0.365-0.664,0.283-1.096l-5.404-42.545c-0.057-0.305-0.201-0.587-0.404-0.824
			l-5.684,44.875l5.809-6.123L79.262-45.586z"/>
		<g>
			<path fill="#FFFFFF" d="M29.178-78.171l-0.07,0.001c-1.886,0.038-3.636,1.68-3.898,3.66l-0.41,3.09
				c-0.137,1.021,0.128,1.971,0.744,2.674c0.57,0.652,1.379,1.01,2.276,1.01l0.067-0.002c1.888-0.037,3.637-1.68,3.899-3.658
				l0.412-3.09c0.135-1.021-0.129-1.973-0.745-2.676C30.884-77.813,30.075-78.171,29.178-78.171z"/>
			<path fill="#FFFFFF" d="M60.713-77.162c-0.568-0.65-1.377-1.009-2.275-1.009L58.37-78.17c-1.887,0.038-3.636,1.68-3.897,3.66
				l-0.411,3.09c-0.137,1.021,0.129,1.971,0.745,2.674c0.568,0.652,1.376,1.01,2.274,1.01l0.068-0.002
				c1.886-0.037,3.636-1.68,3.898-3.658l0.412-3.09C61.596-75.508,61.331-76.459,60.713-77.162z"/>
		</g>
	</g>
	<g display="inline">
		<g>
			<polygon fill="#FFFFFF" points="-230.482,-222.982 -230.891,-219.675 -140.313,-219.633 -139.846,-223.316 			"/>
		</g>
		<g>
			<g>
				<path fill="#009FE4" d="M-174.934-234.968h-13.438c-4.795,0-8.693-3.899-8.693-8.694v-13.437c0-4.792,3.898-8.695,8.693-8.695
					h13.438c4.795,0,8.698,3.902,8.698,8.695v13.437C-166.236-238.868-170.139-234.968-174.934-234.968z M-188.372-259.968
					c-1.578,0-2.866,1.288-2.866,2.869v13.437c0,1.581,1.288,2.869,2.866,2.869h13.438c1.583,0,2.868-1.288,2.868-2.869v-13.437
					c0-1.581-1.286-2.869-2.868-2.869H-188.372z"/>
			</g>
			<polygon fill="#AEC90B" points="-127.162,-179.117 -133.516,-213.529 -127.162,-179.117 			"/>
			<path fill="#009FE4" d="M-136.357-186.587l-9.396,9.906c0.9,0,1.797,0,2.477,0h4.442c1.366,0,3.596,0,4.958,0h4.689
				c0.651,0,1.201-0.252,1.568-0.664L-136.357-186.587z"/>
			<g>
				<path fill="#009FE4" d="M-229.284-222.12h89.287l3.438-27.158c-0.566-0.661-1.413-1.103-2.276-1.103h-85.64
					c-1.362,0-2.678,1.098-2.926,2.437l-3.064,24.822c0.022,0.228,0.098,0.433,0.234,0.6
					C-230.017-222.263-229.678-222.12-229.284-222.12z"/>
				<path fill="#009FE4" d="M-230.759-220.743l-5.137,41.625c-0.25,1.34,0.662,2.436,2.027,2.436h18.054c1.362,0,3.591,0,4.956,0
					h62.629c0.683,0,1.58,0,2.478,0l5.532-43.692h-89.063C-229.815-220.373-230.321-220.501-230.759-220.743z"/>
			</g>
			<path fill="#0A4682" d="M-127.62-177.345c0.401-0.445,0.59-1.074,0.458-1.772l-8.743-68.826c-0.092-0.493-0.326-0.95-0.654-1.334
				l-9.195,72.596l9.396-9.906L-127.62-177.345z"/>
			<g>
				<path fill="#FFFFFF" d="M-208.645-230.059l-0.113,0.002c-3.051,0.061-5.882,2.716-6.307,5.921l-0.663,4.998
					c-0.222,1.653,0.207,3.188,1.204,4.326c0.922,1.055,2.23,1.633,3.682,1.633l0.109-0.002c3.054-0.061,5.883-2.718,6.308-5.918
					l0.667-4.999c0.217-1.651-0.209-3.191-1.206-4.328C-205.885-229.479-207.193-230.059-208.645-230.059z"/>
				<path fill="#FFFFFF" d="M-157.627-228.426c-0.92-1.053-2.228-1.632-3.682-1.632l-0.11,0.002
					c-3.052,0.061-5.882,2.716-6.306,5.921l-0.664,4.998c-0.221,1.653,0.209,3.188,1.205,4.326c0.92,1.055,2.226,1.633,3.68,1.633
					l0.111-0.002c3.052-0.061,5.883-2.718,6.306-5.918l0.667-4.999C-156.199-225.75-156.629-227.289-157.627-228.426z"/>
			</g>
		</g>
	</g>
	<g display="inline">
		<g>
			<path fill="#009FE4" d="M-436.539,22.431h-10.188c-3.635,0-6.59-2.956-6.59-6.591V5.654c0-3.633,2.955-6.592,6.59-6.592h10.188
				c3.635,0,6.594,2.958,6.594,6.592V15.84C-429.944,19.475-432.903,22.431-436.539,22.431z M-446.726,3.479
				c-1.196,0-2.173,0.976-2.173,2.175V15.84c0,1.199,0.977,2.175,2.173,2.175h10.188c1.2,0,2.174-0.976,2.174-2.175V5.654
				c0-1.199-0.975-2.175-2.174-2.175H-446.726z"/>
		</g>
		<polygon fill="#AEC90B" points="-400.322,64.773 -405.139,38.685 -400.322,64.773 		"/>
		<path fill="#009FE4" d="M-407.293,59.109l-7.124,7.51c0.683,0,1.363,0,1.878,0h3.368c1.035,0,2.726,0,3.758,0h3.555
			c0.494,0,0.911-0.191,1.188-0.502L-407.293,59.109z"/>
		<g>
			<path fill="#009FE4" d="M-477.741,32.172h67.689l2.606-20.588c-0.429-0.501-1.071-0.836-1.725-0.836h-64.924
				c-1.033,0-2.03,0.833-2.218,1.847l-2.323,18.817c0.017,0.173,0.074,0.328,0.177,0.455
				C-478.297,32.063-478.041,32.172-477.741,32.172z"/>
			<path fill="#009FE4" d="M-478.86,33.215l-3.895,31.558c-0.189,1.016,0.502,1.846,1.537,1.846h13.687c1.032,0,2.722,0,3.757,0
				h47.479c0.518,0,1.198,0,1.878,0l4.194-33.122h-67.519C-478.145,33.497-478.528,33.399-478.86,33.215z"/>
		</g>
		<path fill="#0A4682" d="M-400.669,66.117c0.304-0.338,0.448-0.814,0.347-1.344l-6.628-52.178c-0.069-0.374-0.247-0.72-0.496-1.011
			l-6.971,55.035l7.124-7.51L-400.669,66.117z"/>
		<g>
			<path fill="#FFFFFF" d="M-462.095,26.153l-0.086,0.001c-2.313,0.046-4.459,2.059-4.781,4.489l-0.503,3.789
				c-0.168,1.253,0.157,2.417,0.913,3.28c0.699,0.799,1.691,1.238,2.792,1.238l0.083-0.002c2.315-0.047,4.46-2.061,4.782-4.487
				l0.505-3.79c0.165-1.252-0.158-2.419-0.914-3.281C-460.002,26.593-460.994,26.153-462.095,26.153z"/>
			<path fill="#FFFFFF" d="M-423.418,27.391c-0.697-0.798-1.689-1.237-2.791-1.237l-0.083,0.001
				c-2.314,0.046-4.459,2.059-4.78,4.489l-0.503,3.789c-0.167,1.253,0.158,2.417,0.913,3.28c0.697,0.799,1.688,1.238,2.79,1.238
				l0.084-0.002c2.314-0.047,4.46-2.061,4.781-4.487l0.505-3.79C-422.335,29.42-422.661,28.253-423.418,27.391z"/>
		</g>
	</g>
	<g display="inline">
		<g>
			<path fill="#E6007E" d="M35.86,30.303h-1.109V31.7c0.315,0.152,0.534,0.473,0.534,0.846c0,0.521-0.421,0.942-0.941,0.942
				c-0.52,0-0.942-0.421-0.942-0.942c0-0.373,0.219-0.693,0.534-0.846v-1.396h-2.148V31.7c0.315,0.152,0.534,0.473,0.534,0.846
				c0,0.521-0.422,0.942-0.941,0.942c-0.521,0-0.943-0.421-0.943-0.942c0-0.373,0.219-0.693,0.534-0.846v-1.396h-2.148V31.7
				c0.315,0.152,0.534,0.473,0.534,0.846c0,0.521-0.422,0.942-0.941,0.942c-0.521,0-0.943-0.421-0.943-0.942
				c0-0.373,0.219-0.693,0.534-0.846v-1.396H25.86V31.7c0.314,0.152,0.534,0.473,0.534,0.846c0,0.521-0.422,0.942-0.941,0.942
				c-0.521,0-0.942-0.421-0.942-0.942c0-0.373,0.219-0.693,0.533-0.846v-1.396h-2.147V31.7c0.314,0.152,0.534,0.473,0.534,0.846
				c0,0.521-0.422,0.942-0.942,0.942s-0.942-0.421-0.942-0.942c0-0.373,0.22-0.693,0.534-0.846v-1.396h-2.147V31.7
				c0.314,0.152,0.533,0.473,0.533,0.846c0,0.521-0.421,0.942-0.941,0.942c-0.521,0-0.942-0.421-0.942-0.942
				c0-0.373,0.219-0.693,0.534-0.846v-1.396h-2.147V31.7c0.315,0.152,0.534,0.473,0.534,0.846c0,0.521-0.422,0.942-0.942,0.942
				c-0.52,0-0.942-0.421-0.942-0.942c0-0.373,0.219-0.693,0.534-0.846v-1.396h-2.148V31.7c0.314,0.152,0.534,0.473,0.534,0.846
				c0,0.521-0.422,0.942-0.942,0.942c-0.52,0-0.942-0.421-0.942-0.942c0-0.373,0.22-0.693,0.534-0.846v-1.396h-2.148V31.7
				c0.315,0.152,0.534,0.473,0.534,0.846c0,0.521-0.421,0.942-0.941,0.942c-0.521,0-0.942-0.421-0.942-0.942
				c0-0.373,0.219-0.693,0.533-0.846v-1.396H9.089c-0.424,0-0.771,0.348-0.771,0.771v1.542v35.313c0,1.271,1.041,2.313,2.313,2.313
				H34.32c1.271,0,2.312-1.042,2.312-2.313V32.617v-1.542C36.632,30.651,36.285,30.303,35.86,30.303z"/>
		</g>
		<g>
			<path fill="#F0A5C3" d="M28.6,48.347c-0.001-0.001-0.002-0.002-0.002-0.003c0-0.006-0.002-0.013-0.004-0.017
				c-0.333-1.439-1.467-2.511-2.958-2.576c-0.098-0.009-0.195-0.014-0.296-0.014c-1.139,0-2.143,0.585-2.75,1.479
				c-0.022,0.033-0.055,0.076-0.103,0.072c-0.049,0.004-0.083-0.039-0.104-0.072c-0.607-0.895-1.612-1.479-2.751-1.479
				c-0.099,0-0.198,0.005-0.296,0.014c-1.49,0.065-2.625,1.137-2.957,2.576c-0.002,0.004-0.003,0.011-0.005,0.017
				c0,0.001,0,0.002,0,0.003c-0.067,0.274-0.104,0.559-0.104,0.854c0,1.044,0.277,2.051,0.838,2.995
				c0.811,1.361,2.206,2.565,3.63,3.643c0.829,0.623,1.363,0.943,1.749,0.943c0.401,0,0.896-0.32,1.747-0.943
				c1.437-1.058,2.82-2.281,3.63-3.643c0.562-0.944,0.838-1.951,0.838-2.995C28.702,48.906,28.666,48.622,28.6,48.347z"/>
		</g>
		<g>
			<g>
				<path fill="#8C005A" d="M11.039,31.7v-3.107c0-0.227-0.183-0.41-0.408-0.41s-0.409,0.184-0.409,0.41V31.7
					c-0.314,0.152-0.533,0.473-0.533,0.846c0,0.521,0.421,0.942,0.942,0.942c0.52,0,0.941-0.421,0.941-0.942
					C11.572,32.172,11.354,31.852,11.039,31.7z"/>
				<path fill="#8C005A" d="M14.003,31.7v-3.107c0-0.227-0.183-0.41-0.408-0.41s-0.408,0.184-0.408,0.41V31.7
					c-0.314,0.152-0.534,0.473-0.534,0.846c0,0.521,0.422,0.942,0.942,0.942c0.52,0,0.942-0.421,0.942-0.942
					C14.537,32.172,14.317,31.852,14.003,31.7z"/>
				<path fill="#8C005A" d="M16.967,31.7v-3.107c0-0.227-0.183-0.41-0.408-0.41c-0.225,0-0.408,0.184-0.408,0.41V31.7
					c-0.314,0.152-0.534,0.473-0.534,0.846c0,0.521,0.422,0.942,0.942,0.942c0.52,0,0.942-0.421,0.942-0.942
					C17.501,32.172,17.283,31.852,16.967,31.7z"/>
				<path fill="#8C005A" d="M19.932,31.7v-3.107c0-0.227-0.183-0.41-0.408-0.41s-0.409,0.184-0.409,0.41V31.7
					c-0.314,0.152-0.534,0.473-0.534,0.846c0,0.521,0.422,0.942,0.942,0.942c0.52,0,0.941-0.421,0.941-0.942
					C20.465,32.172,20.246,31.852,19.932,31.7z"/>
				<path fill="#8C005A" d="M22.896,31.7v-3.107c0-0.227-0.182-0.41-0.409-0.41c-0.225,0-0.408,0.184-0.408,0.41V31.7
					c-0.314,0.152-0.534,0.473-0.534,0.846c0,0.521,0.422,0.942,0.942,0.942s0.942-0.421,0.942-0.942
					C23.43,32.172,23.21,31.852,22.896,31.7z"/>
				<path fill="#8C005A" d="M25.86,31.7v-3.107c0-0.227-0.184-0.41-0.408-0.41c-0.226,0-0.409,0.184-0.409,0.41V31.7
					c-0.314,0.152-0.533,0.473-0.533,0.846c0,0.521,0.421,0.942,0.942,0.942c0.52,0,0.941-0.421,0.941-0.942
					C26.394,32.172,26.174,31.852,25.86,31.7z"/>
				<path fill="#8C005A" d="M28.824,31.7v-3.107c0-0.227-0.183-0.41-0.407-0.41c-0.226,0-0.409,0.184-0.409,0.41V31.7
					c-0.314,0.152-0.534,0.473-0.534,0.846c0,0.521,0.422,0.942,0.943,0.942c0.519,0,0.941-0.421,0.941-0.942
					C29.357,32.172,29.139,31.852,28.824,31.7z"/>
				<path fill="#8C005A" d="M31.788,31.7v-3.107c0-0.227-0.182-0.41-0.407-0.41c-0.226,0-0.409,0.184-0.409,0.41V31.7
					c-0.315,0.152-0.534,0.473-0.534,0.846c0,0.521,0.422,0.942,0.943,0.942c0.519,0,0.941-0.421,0.941-0.942
					C32.321,32.172,32.103,31.852,31.788,31.7z"/>
				<path fill="#8C005A" d="M34.751,31.7v-3.107c0-0.227-0.182-0.41-0.407-0.41c-0.226,0-0.408,0.184-0.408,0.41V31.7
					c-0.315,0.152-0.534,0.473-0.534,0.846c0,0.521,0.422,0.942,0.942,0.942c0.52,0,0.941-0.421,0.941-0.942
					C35.285,32.172,35.067,31.852,34.751,31.7z"/>
			</g>
		</g>
		<path fill="#F0A5C3" d="M1.655,65.615H0.113h-1.542v1.543v1.544c0,0.845,0.694,1.54,1.542,1.54h1.542
			c0.848,0,1.542-0.695,1.542-1.54v-1.544v-1.543H1.655z"/>
		<polygon fill="#8C005A" points="0.049,33.085 1.719,33.085 0.884,30.303 		"/>
		<g>
			<path fill="#FFB900" d="M3.197,38.004c0,0.427-0.345,0.772-0.771,0.772c-0.425,0-0.77-0.346-0.77-0.772
				c0,0.427-0.345,0.772-0.771,0.772c-0.427,0-0.771-0.346-0.771-0.772c0,0.427-0.345,0.772-0.771,0.772
				c-0.426,0-0.771-0.346-0.771-0.772v25.242h4.626V38.004L3.197,38.004z"/>
		</g>
		<rect x="-1.429" y="63.247" fill="#FFE57E" width="4.626" height="2.368"/>
		<g>
			<path fill="#FFE57E" d="M3.197,38.003l-0.126-0.42l-1.351-4.498h-1.67l-1.351,4.496l-0.127,0.423
				c0,0.427,0.345,0.772,0.771,0.772c0.426,0,0.771-0.346,0.771-0.772c0,0.427,0.345,0.772,0.771,0.772
				c0.426,0,0.771-0.346,0.771-0.772c0,0.427,0.345,0.772,0.77,0.772C2.852,38.777,3.197,38.431,3.197,38.003L3.197,38.003
				L3.197,38.003z"/>
		</g>
	</g>
	<g display="inline">
		<g>
			<path fill="#7DC8F0" d="M257.438,212.328c0.05-0.105,0.069-0.223,0.05-0.328l-0.707-3.775l-0.703-3.777
				c-0.04-0.211-0.233-0.461-0.428-0.555l-4.781-2.266c-0.097-0.047-0.225-0.105-0.353-0.168l-1.414,6.918L257.438,212.328z"/>
			<path fill="#0A4682" d="M240.643,204.365l4.383-5.51c-0.129-0.061-0.258-0.121-0.354-0.168l-4.781-2.266
				c-0.195-0.094-0.509-0.082-0.696,0.023l-3.334,1.857l-3.331,1.861c-0.094,0.051-0.173,0.143-0.223,0.248L240.643,204.365z"/>
			<path fill="#009FE4" d="M244.19,206.046l1.364,0.648l3.548,1.682l1.414-6.918c-0.129-0.061-0.257-0.121-0.354-0.168l-4.782-2.268
				c-0.097-0.047-0.226-0.107-0.354-0.168l-4.383,5.51L244.19,206.046z"/>
			<path fill="#009FE4" d="M240.804,221.902l6.089-3.457l10.326-5.867c0.093-0.051,0.171-0.145,0.219-0.25l-8.336-3.951
				l-2.448,3.064l-0.03,0.025l-7.33,9.148c-0.057,0.07-0.114,0.137-0.17,0.199c-0.301-0.166-0.604-0.33-0.92-0.48
				c-0.304-0.145-0.611-0.271-0.92-0.395c0.018-0.105,0.038-0.215,0.063-0.33l2.411-11.199l0.886-4.045l-8.337-3.953
				c-0.05,0.104-0.073,0.223-0.056,0.33l1.956,11.688l1.152,6.887c-6.862-1.709-14.205,1.588-17.353,8.223
				c-3.587,7.566-0.363,16.609,7.204,20.197c7.565,3.588,16.61,0.361,20.197-7.205C248.552,233.9,246.463,226.134,240.804,221.902z
				 M227.447,243.025c-4.965-2.355-7.081-8.287-4.728-13.252c2.354-4.963,8.287-7.08,13.25-4.727
				c4.964,2.352,7.082,8.285,4.728,13.25S232.41,245.376,227.447,243.025z"/>
		</g>
		<path fill="#7DC8F0" d="M245.554,206.695l-1.364-0.648l-3.547-1.682l-0.886,4.045l-2.411,11.199
			c-0.463,2.109,0.601,2.691,1.947,1.006l9.809-12.238L245.554,206.695z"/>
	</g>
	<g display="inline">
		<g>
			<path fill="#7DC8F0" d="M392.105,98.996c0.05-0.105,0.069-0.223,0.05-0.328l-0.707-3.777l-0.703-3.775
				c-0.04-0.211-0.233-0.463-0.428-0.555l-4.781-2.266c-0.097-0.047-0.225-0.107-0.353-0.168l-1.414,6.916L392.105,98.996z"/>
			<path fill="#0A4682" d="M375.31,91.033l4.383-5.51c-0.129-0.061-0.258-0.123-0.354-0.168l-4.781-2.267
				c-0.195-0.094-0.509-0.082-0.696,0.023l-3.334,1.858l-3.331,1.861c-0.094,0.051-0.173,0.141-0.223,0.248L375.31,91.033z"/>
			<path fill="#009FE4" d="M378.857,92.714l1.364,0.646l3.548,1.682l1.414-6.916c-0.129-0.061-0.257-0.123-0.354-0.17l-4.782-2.266
				c-0.097-0.047-0.226-0.107-0.354-0.168l-4.383,5.51L378.857,92.714z"/>
			<path fill="#009FE4" d="M375.471,108.57l6.089-3.459l10.326-5.865c0.093-0.053,0.171-0.145,0.219-0.25l-8.336-3.953l-2.448,3.066
				l-0.03,0.023l-7.33,9.148c-0.057,0.072-0.114,0.137-0.17,0.201c-0.301-0.168-0.604-0.33-0.92-0.48
				c-0.304-0.145-0.611-0.273-0.92-0.396c0.018-0.104,0.038-0.215,0.063-0.328l2.411-11.201l0.886-4.043l-8.337-3.953
				c-0.05,0.104-0.073,0.221-0.056,0.33l1.956,11.686l1.152,6.889c-6.862-1.709-14.205,1.586-17.353,8.223
				c-3.587,7.564-0.363,16.607,7.204,20.197c7.565,3.588,16.61,0.359,20.197-7.207C383.219,120.566,381.13,112.802,375.471,108.57z
				 M362.114,129.691c-4.965-2.354-7.081-8.287-4.728-13.25c2.354-4.965,8.287-7.08,13.25-4.729
				c4.964,2.354,7.082,8.287,4.728,13.252C373.009,129.927,367.077,132.042,362.114,129.691z"/>
		</g>
		<path fill="#7DC8F0" d="M380.221,93.361l-1.364-0.646l-3.547-1.682l-0.886,4.043l-2.411,11.201
			c-0.463,2.107,0.601,2.691,1.947,1.004l9.809-12.238L380.221,93.361z"/>
	</g>
	<g display="inline">
		<path fill="#009FE4" d="M279.63,86.573c0,2.371-1.939,4.309-4.31,4.311l-52.438-0.002c-2.372,0-4.31-1.938-4.31-4.309V69.17
			h61.057V86.573z"/>
		<path fill="#009FE4" d="M218.574,55.684c0-2.37,1.938-4.309,4.31-4.309h52.438c2.37-0.002,4.312,1.938,4.31,4.309v5.065
			l-61.057-0.001V55.684z"/>
		<rect x="218.574" y="60.749" fill="#0A4682" width="61.057" height="8.422"/>
	</g>
	<g display="inline">
		<g>
			<path fill="#8C005A" d="M109.713,164.011v2.084c0,0.574,0.471,1.045,1.043,1.045h2.084h44.145c1.721,0,3.127-1.41,3.127-3.129
				v-22.609h-50.398V164.011z"/>
			<path fill="#8C005A" d="M160.112,99.785c0-1.721-1.406-3.127-3.127-3.127H112.84h-2.084c-0.572,0-1.043,0.467-1.043,1.041v2.086
				v22.373h50.398V99.785z"/>
			<line fill="#FFB900" x1="160.112" y1="140.298" x2="160.112" y2="141.402"/>
			<line fill="#FFB900" x1="160.112" y1="122.158" x2="160.112" y2="123.261"/>
			<rect x="109.713" y="140.298" fill="#FFB900" width="50.398" height="1.104"/>
			<rect x="109.713" y="122.158" fill="#FFB900" width="50.398" height="1.104"/>
		</g>
		<g>
			<path fill="#8C005A" d="M135.471,130.189h-0.824v1.451h0.824c0.514,0,0.816-0.295,0.816-0.723
				C136.288,130.476,135.985,130.189,135.471,130.189z"/>
			<path fill="#8C005A" d="M109.713,123.261v17.037h50.398v-17.037H109.713z M117.16,134.634c-1.383,0-1.993-0.891-2.075-1.635
				l0.94-0.25c0.045,0.516,0.405,0.98,1.142,0.98c0.543,0,0.846-0.273,0.846-0.643c0-0.299-0.229-0.535-0.632-0.617l-0.729-0.148
				c-0.831-0.168-1.367-0.707-1.367-1.492c0-0.928,0.831-1.631,1.816-1.631c1.266,0,1.75,0.764,1.868,1.354l-0.911,0.277
				c-0.053-0.285-0.287-0.736-0.948-0.736c-0.495,0-0.817,0.316-0.817,0.664c0,0.287,0.183,0.514,0.566,0.588l0.729,0.141
				c0.948,0.184,1.455,0.801,1.455,1.537C119.042,133.824,118.373,134.634,117.16,134.634z M123.8,134.523h-1.045l-1.927-5.217h1.11
				l1.36,3.877l1.36-3.877h1.074L123.8,134.523z M131.14,130.261h-2.251v1.193h2.038v0.904h-2.038v1.207h2.251v0.957h-3.267v-5.217
				h3.267V130.261z M136.2,134.523l-1.022-2.008h-0.53v2.008h-1.022v-5.217h2.037c1.016,0,1.662,0.701,1.662,1.605
				c0,0.729-0.427,1.277-1.109,1.479l1.117,2.133H136.2z M140.721,134.523h-1.029v-5.217h1.029V134.523z M145.751,133.705
				c0.965,0,1.339-0.646,1.399-1.016h-1.647v-0.881h2.603v2.715h-0.822l-0.067-0.596c-0.235,0.352-0.751,0.707-1.537,0.707
				c-1.404,0-2.604-1.031-2.604-2.715c0-1.686,1.258-2.721,2.67-2.721c1.368,0,2.126,0.801,2.384,1.602l-0.972,0.348
				c-0.132-0.467-0.566-1.002-1.412-1.002c-0.788,0-1.641,0.535-1.641,1.773C144.105,133.097,144.877,133.705,145.751,133.705z
				 M153.863,130.261h-2.25v1.193h2.038v0.904h-2.038v1.207h2.25v0.957h-3.264v-5.217h3.264V130.261z"/>
			<path fill="#FFB900" d="M117.586,131.486l-0.729-0.141c-0.384-0.074-0.566-0.301-0.566-0.588c0-0.348,0.322-0.664,0.817-0.664
				c0.661,0,0.896,0.451,0.948,0.736l0.911-0.277c-0.118-0.59-0.603-1.354-1.868-1.354c-0.985,0-1.816,0.703-1.816,1.631
				c0,0.785,0.536,1.324,1.367,1.492l0.729,0.148c0.403,0.082,0.632,0.318,0.632,0.617c0,0.369-0.303,0.643-0.846,0.643
				c-0.736,0-1.097-0.465-1.142-0.98l-0.94,0.25c0.082,0.744,0.692,1.635,2.075,1.635c1.213,0,1.882-0.811,1.882-1.611
				C119.042,132.287,118.535,131.669,117.586,131.486z"/>
			<polygon fill="#FFB900" points="123.299,133.183 121.939,129.306 120.829,129.306 122.755,134.523 123.8,134.523
				125.734,129.306 124.66,129.306 			"/>
			<polygon fill="#FFB900" points="127.874,134.523 131.14,134.523 131.14,133.566 128.889,133.566 128.889,132.359
				130.927,132.359 130.927,131.455 128.889,131.455 128.889,130.261 131.14,130.261 131.14,129.306 127.874,129.306 			"/>
			<path fill="#FFB900" d="M137.324,130.912c0-0.904-0.646-1.605-1.662-1.605h-2.037v5.217h1.022v-2.008h0.53l1.022,2.008h1.132
				l-1.117-2.133C136.897,132.189,137.324,131.64,137.324,130.912z M135.471,131.64h-0.824v-1.451h0.824
				c0.514,0,0.816,0.287,0.816,0.729C136.288,131.345,135.985,131.64,135.471,131.64z"/>
			<rect x="139.692" y="129.306" fill="#FFB900" width="1.029" height="5.217"/>
			<path fill="#FFB900" d="M145.746,130.146c0.846,0,1.28,0.535,1.412,1.002l0.972-0.348c-0.258-0.801-1.016-1.602-2.384-1.602
				c-1.412,0-2.67,1.035-2.67,2.721c0,1.684,1.199,2.715,2.604,2.715c0.786,0,1.302-0.355,1.537-0.707l0.067,0.596h0.822v-2.715
				h-2.603v0.881h1.647c-0.061,0.369-0.435,1.016-1.399,1.016c-0.874,0-1.646-0.607-1.646-1.785
				C144.105,130.681,144.958,130.146,145.746,130.146z"/>
			<polygon fill="#FFB900" points="150.599,134.523 153.863,134.523 153.863,133.566 151.613,133.566 151.613,132.359
				153.651,132.359 153.651,131.455 151.613,131.455 151.613,130.261 153.863,130.261 153.863,129.306 150.599,129.306 			"/>
		</g>
	</g>
	<g display="inline">
		<g>
			<path fill="#B0CB0B" d="M331.94,223.347l-55.442-12.289c-0.43-0.098-0.858,0.178-0.953,0.607l-1.146,5.166l-1.317,5.949h-0.802
				h-3.916c-0.441,0-0.801,0.359-0.801,0.799v29.682c0,0.441,0.359,0.803,0.801,0.803h56.786c0.44,0,0.879-0.354,0.973-0.783
				l6.426-28.979C332.643,223.873,332.368,223.443,331.94,223.347z"/>
		</g>
		<g>
			<polygon fill="#D2E182" points="329.277,225.871 325.95,225.123 325.95,240.878 			"/>
			<g>
				<polygon fill="#D2E182" points="323.096,251.216 292.061,251.292 292.052,225.74 323.096,225.818 				"/>
			</g>
			<g>
				<path fill="#D2E182" d="M271.873,230.785c0.033,0.654,0.535,1.188,1.287,1.188c0.677,0,1.221-0.445,1.221-1.156
					c0-0.807-0.601-1.188-1.253-1.188c-0.48,0-0.86,0.219-1.09,0.48c-0.143-0.055-1.221-0.426-1.373-0.469l0.839-3.631h3.988v1.297
					h-2.964l-0.35,1.561c0.305-0.285,0.807-0.438,1.276-0.438c1.415,0,2.419,0.85,2.419,2.365c0,1.318-1.014,2.463-2.714,2.463
					c-1.537,0-2.604-1.045-2.691-2.158L271.873,230.785z"/>
				<path fill="#D2E182" d="M276.985,227.035c0.468-0.697,1.23-1.188,2.332-1.188c1.1,0,1.863,0.49,2.321,1.188
					c0.479,0.73,0.633,1.613,0.633,2.518c0,0.906-0.154,1.789-0.633,2.518c-0.458,0.697-1.222,1.188-2.321,1.188
					c-1.102,0-1.864-0.49-2.332-1.188c-0.48-0.729-0.621-1.611-0.621-2.518C276.364,228.648,276.504,227.765,276.985,227.035z
					 M278.249,231.351c0.218,0.35,0.555,0.576,1.068,0.576c0.522,0,0.839-0.227,1.057-0.576c0.283-0.426,0.392-1.057,0.392-1.799
					c0-0.74-0.108-1.375-0.392-1.799c-0.218-0.348-0.534-0.576-1.057-0.576c-0.514,0-0.851,0.229-1.068,0.576
					c-0.272,0.424-0.382,1.059-0.382,1.799C277.867,230.294,277.976,230.925,278.249,231.351z"/>
				<path fill="#D2E182" d="M283.42,227.035c0.468-0.697,1.23-1.188,2.331-1.188c1.102,0,1.864,0.49,2.323,1.188
					c0.479,0.73,0.632,1.613,0.632,2.518c0,0.906-0.153,1.789-0.632,2.518c-0.459,0.697-1.222,1.188-2.323,1.188
					c-1.101,0-1.863-0.49-2.331-1.188c-0.479-0.729-0.621-1.611-0.621-2.518C282.799,228.648,282.941,227.765,283.42,227.035z
					 M284.684,231.351c0.218,0.35,0.556,0.576,1.067,0.576c0.522,0,0.841-0.227,1.059-0.576c0.283-0.426,0.391-1.057,0.391-1.799
					c0-0.74-0.107-1.375-0.391-1.799c-0.218-0.348-0.536-0.576-1.059-0.576c-0.512,0-0.85,0.229-1.067,0.576
					c-0.271,0.424-0.382,1.059-0.382,1.799C284.302,230.294,284.413,230.925,284.684,231.351z"/>
			</g>
			<g>
				<polygon fill="#D2E182" points="298.986,219.076 298.166,222.781 315.497,222.781 				"/>
			</g>
			<g>
				<path fill="#D2E182" d="M278.915,222.326c1.658,0.367,2.896-0.529,3.183-1.816c0.327-1.48-0.468-2.527-1.853-2.832
					c-0.456-0.104-0.979-0.063-1.338,0.146l0.679-1.443l2.894,0.639l0.281-1.266l-3.895-0.863l-1.604,3.363
					c0.139,0.076,1.111,0.672,1.238,0.754c0.28-0.205,0.7-0.334,1.169-0.232c0.638,0.141,1.141,0.645,0.966,1.43
					c-0.153,0.693-0.783,1.012-1.441,0.865c-0.734-0.162-1.108-0.793-1-1.439l-1.44,0.006
					C276.597,220.74,277.414,221.994,278.915,222.326z"/>
				<path fill="#D2E182" d="M288.61,220.679c0.196-0.883,0.238-1.779-0.071-2.594c-0.296-0.779-0.935-1.424-2.009-1.662
					c-1.077-0.24-1.927,0.074-2.534,0.654c-0.626,0.609-0.956,1.439-1.152,2.322c-0.196,0.885-0.248,1.777,0.063,2.594
					c0.105,0.27,0.254,0.521,0.444,0.748l4.328,0.01C288.16,222.175,288.441,221.449,288.61,220.679z M286.37,222.027
					c-0.288,0.293-0.646,0.445-1.158,0.334c-0.499-0.111-0.779-0.408-0.917-0.795c-0.175-0.475-0.143-1.115,0.017-1.84
					c0.161-0.723,0.404-1.316,0.763-1.672c0.288-0.293,0.667-0.443,1.168-0.334c0.511,0.115,0.771,0.404,0.906,0.793
					c0.186,0.477,0.154,1.117-0.006,1.842C286.982,221.078,286.738,221.671,286.37,222.027z"/>
				<path fill="#D2E182" d="M290.594,221.121c0.16-0.725,0.404-1.32,0.763-1.674c0.287-0.295,0.666-0.443,1.167-0.334
					c0.511,0.115,0.771,0.404,0.907,0.793c0.186,0.475,0.155,1.119-0.007,1.842c-0.083,0.381-0.192,0.725-0.33,1.02l1.605,0.004
					c0.076-0.227,0.141-0.461,0.192-0.699c0.198-0.883,0.239-1.777-0.071-2.594c-0.296-0.781-0.934-1.424-2.009-1.662
					c-1.074-0.238-1.926,0.076-2.534,0.654c-0.626,0.609-0.956,1.441-1.15,2.324c-0.148,0.662-0.215,1.326-0.108,1.961l1.501,0.006
					C290.415,222.312,290.456,221.748,290.594,221.121z"/>
			</g>
		</g>
		<g>
			<circle fill="#FFB900" cx="311.73" cy="202.094" r="10.696"/>
		</g>
		<g>
			<path fill="#FFE57E" d="M311.727,211.3c-1.209,0-2.393-0.236-3.519-0.703c-2.271-0.941-4.041-2.709-4.98-4.98
				c-0.942-2.273-0.942-4.775-0.002-7.045c1.432-3.453,4.771-5.684,8.508-5.684c1.21,0,2.394,0.236,3.519,0.703
				c4.689,1.941,6.925,7.336,4.981,12.025C318.804,209.07,315.464,211.3,311.727,211.3z M311.734,194.298
				c-3.163,0-5.993,1.891-7.202,4.813c-0.798,1.922-0.798,4.041,0,5.967c0.796,1.922,2.294,3.42,4.218,4.217
				c0.953,0.393,1.954,0.594,2.978,0.594c3.165,0,5.99-1.889,7.204-4.811c1.644-3.973-0.248-8.539-4.219-10.184
				C313.759,194.5,312.756,194.298,311.734,194.298z"/>
		</g>
		<g>
			<g>
				<path fill="#FFE57E" d="M308.93,202.937c-0.356,1.076,0.089,2.182,1.223,2.652c1.029,0.426,2.149,0.076,2.601-1.014
					c0.502-1.213-0.141-2.186-1.138-2.6c-0.696-0.287-1.406-0.244-1.917,0.004l-1.452-1.326l3.259-4.447l5.371,2.225l-0.658,1.59
					l-4.146-1.719l-1.632,2.23c0.605-0.264,1.461-0.191,2.157,0.098c1.953,0.809,2.858,2.602,2.006,4.658
					c-0.764,1.846-2.826,2.799-5.095,1.859c-2.119-0.877-2.988-2.885-2.47-4.479L308.93,202.937z"/>
			</g>
		</g>
		<g>
			<circle fill="#FFB900" cx="289.721" cy="201.488" r="8.022"/>
		</g>
		<g>
			<path fill="#FFE57E" d="M289.721,207.974c-3.577,0-6.488-2.908-6.488-6.486c0-3.576,2.911-6.486,6.488-6.486
				c3.576,0,6.485,2.91,6.485,6.486C296.207,205.066,293.297,207.974,289.721,207.974z M289.721,196.412
				c-2.8,0-5.077,2.277-5.077,5.076s2.277,5.076,5.077,5.076c2.798,0,5.074-2.277,5.074-5.076S292.519,196.412,289.721,196.412z"/>
		</g>
		<g>
			<g>
				<path fill="#FFE57E" d="M286.998,204.046v-3.42h-1.255v-0.852c0.786-0.008,1.346-0.453,1.435-0.986h1.093v5.258H286.998z"/>
			</g>
			<g>
				<path fill="#FFE57E" d="M289.405,199.566c0.349-0.527,0.933-0.9,1.783-0.9c0.858,0,1.441,0.373,1.791,0.9
					c0.364,0.551,0.461,1.205,0.461,1.855c0,0.646-0.097,1.305-0.461,1.854c-0.35,0.52-0.933,0.9-1.791,0.9
					c-0.851,0-1.435-0.381-1.783-0.9c-0.364-0.549-0.461-1.207-0.461-1.854C288.944,200.771,289.041,200.117,289.405,199.566z
					 M290.418,202.562c0.145,0.293,0.381,0.488,0.77,0.488c0.397,0,0.623-0.195,0.769-0.488c0.154-0.307,0.203-0.719,0.203-1.141
					s-0.049-0.836-0.203-1.143c-0.146-0.293-0.371-0.486-0.769-0.486c-0.389,0-0.625,0.193-0.77,0.486
					c-0.146,0.307-0.195,0.721-0.195,1.143S290.272,202.255,290.418,202.562z"/>
			</g>
		</g>
	</g>
	<g display="inline">
		<g>
			<path fill="#B0CB0B" d="M-499.686,44.566l-41.075-9.104c-0.318-0.072-0.636,0.132-0.706,0.451l-0.85,3.826l-0.976,4.407h-0.594
				h-2.901c-0.327,0-0.593,0.267-0.593,0.592v21.99c0,0.327,0.266,0.595,0.593,0.595h42.071c0.326,0,0.651-0.262,0.72-0.58
				l4.761-21.469C-499.165,44.956-499.369,44.637-499.686,44.566z"/>
		</g>
		<g>
			<polygon fill="#D2E182" points="-501.658,46.435 -504.123,45.881 -504.123,57.554 			"/>
			<g>
				<polygon fill="#D2E182" points="-506.237,65.213 -529.23,65.269 -529.236,46.338 -506.237,46.396 				"/>
			</g>
			<g>
				<path fill="#D2E182" d="M-544.187,50.076c0.025,0.485,0.396,0.88,0.954,0.88c0.501,0,0.904-0.33,0.904-0.856
					c0-0.598-0.445-0.88-0.928-0.88c-0.356,0-0.637,0.162-0.807,0.356c-0.106-0.041-0.904-0.315-1.018-0.348l0.622-2.689h2.955v0.96
					h-2.196l-0.259,1.156c0.226-0.211,0.598-0.324,0.946-0.324c1.048,0,1.792,0.63,1.792,1.753c0,0.977-0.751,1.824-2.011,1.824
					c-1.139,0-1.929-0.773-1.994-1.599L-544.187,50.076z"/>
				<path fill="#D2E182" d="M-540.399,47.297c0.347-0.516,0.912-0.879,1.728-0.879c0.815,0,1.381,0.363,1.72,0.879
					c0.354,0.542,0.469,1.195,0.469,1.865c0,0.672-0.114,1.326-0.469,1.865c-0.339,0.517-0.905,0.88-1.72,0.88
					c-0.816,0-1.381-0.363-1.728-0.88c-0.356-0.539-0.46-1.193-0.46-1.865C-540.859,48.493-540.755,47.839-540.399,47.297z
					 M-539.463,50.496c0.162,0.259,0.411,0.427,0.792,0.427c0.387,0,0.622-0.168,0.783-0.427c0.209-0.315,0.29-0.783,0.29-1.333
					c0-0.548-0.081-1.019-0.29-1.332c-0.162-0.258-0.396-0.427-0.783-0.427c-0.38,0-0.63,0.169-0.792,0.427
					c-0.202,0.313-0.283,0.784-0.283,1.332C-539.746,49.712-539.665,50.18-539.463,50.496z"/>
				<path fill="#D2E182" d="M-535.631,47.297c0.346-0.516,0.912-0.879,1.727-0.879c0.816,0,1.381,0.363,1.722,0.879
					c0.354,0.542,0.468,1.195,0.468,1.865c0,0.672-0.113,1.326-0.468,1.865c-0.34,0.517-0.905,0.88-1.722,0.88
					c-0.815,0-1.38-0.363-1.727-0.88c-0.355-0.539-0.46-1.193-0.46-1.865C-536.092,48.493-535.987,47.839-535.631,47.297z
					 M-534.695,50.496c0.161,0.259,0.412,0.427,0.791,0.427c0.387,0,0.623-0.168,0.785-0.427c0.209-0.315,0.289-0.783,0.289-1.333
					c0-0.548-0.08-1.019-0.289-1.332c-0.162-0.258-0.397-0.427-0.785-0.427c-0.379,0-0.629,0.169-0.791,0.427
					c-0.201,0.313-0.283,0.784-0.283,1.332C-534.978,49.712-534.896,50.18-534.695,50.496z"/>
			</g>
			<g>
				<polygon fill="#D2E182" points="-524.1,41.401 -524.708,44.146 -511.868,44.146 				"/>
			</g>
			<g>
				<path fill="#D2E182" d="M-538.97,43.809c1.229,0.272,2.145-0.393,2.358-1.346c0.242-1.097-0.347-1.872-1.373-2.098
					c-0.338-0.077-0.725-0.047-0.991,0.108l0.503-1.069l2.144,0.473l0.208-0.938l-2.885-0.64l-1.189,2.492
					c0.103,0.056,0.824,0.497,0.917,0.559c0.208-0.152,0.519-0.248,0.866-0.173c0.472,0.104,0.845,0.478,0.715,1.06
					c-0.113,0.514-0.58,0.749-1.068,0.641c-0.544-0.12-0.821-0.587-0.741-1.066l-1.067,0.005
					C-540.687,42.634-540.082,43.563-538.97,43.809z"/>
				<path fill="#D2E182" d="M-531.787,42.589c0.145-0.654,0.176-1.318-0.053-1.922c-0.219-0.577-0.692-1.055-1.488-1.231
					c-0.798-0.178-1.427,0.056-1.877,0.485c-0.463,0.451-0.708,1.066-0.854,1.72c-0.146,0.656-0.184,1.317,0.046,1.922
					c0.078,0.2,0.188,0.387,0.329,0.555l3.207,0.007C-532.121,43.698-531.912,43.16-531.787,42.589z M-533.447,43.587
					c-0.213,0.218-0.479,0.33-0.858,0.248c-0.37-0.083-0.577-0.303-0.679-0.589c-0.129-0.352-0.106-0.826,0.012-1.363
					c0.119-0.535,0.299-0.976,0.565-1.238c0.213-0.218,0.494-0.329,0.865-0.248c0.378,0.086,0.571,0.3,0.671,0.588
					c0.138,0.353,0.115,0.827-0.004,1.364C-532.993,42.884-533.174,43.325-533.447,43.587z"/>
				<path fill="#D2E182" d="M-530.317,42.917c0.119-0.537,0.3-0.979,0.565-1.24c0.212-0.219,0.493-0.328,0.864-0.247
					c0.378,0.085,0.571,0.299,0.672,0.587c0.137,0.352,0.115,0.829-0.005,1.364c-0.062,0.282-0.143,0.537-0.244,0.756l1.189,0.003
					c0.056-0.168,0.104-0.342,0.142-0.519c0.147-0.653,0.177-1.316-0.053-1.921c-0.219-0.579-0.691-1.055-1.488-1.231
					c-0.796-0.177-1.427,0.057-1.877,0.484c-0.464,0.451-0.708,1.068-0.852,1.722c-0.11,0.491-0.159,0.982-0.081,1.453l1.112,0.004
					C-530.45,43.799-530.419,43.38-530.317,42.917z"/>
			</g>
		</g>
		<g>
			<circle fill="#FFB900" cx="-514.658" cy="28.821" r="7.924"/>
		</g>
		<g>
			<path fill="#FFE57E" d="M-514.66,35.641c-0.896,0-1.772-0.175-2.607-0.521c-1.682-0.698-2.994-2.007-3.69-3.69
				c-0.698-1.684-0.698-3.537-0.001-5.219c1.061-2.559,3.535-4.211,6.303-4.211c0.896,0,1.773,0.175,2.607,0.521
				c3.474,1.438,5.13,5.435,3.69,8.909C-509.417,33.989-511.892,35.641-514.66,35.641z M-514.655,23.045
				c-2.343,0-4.44,1.4-5.335,3.565c-0.591,1.424-0.591,2.993,0,4.42c0.589,1.424,1.699,2.534,3.125,3.124
				c0.706,0.291,1.448,0.44,2.206,0.44c2.345,0,4.438-1.399,5.337-3.564c1.218-2.942-0.184-6.326-3.125-7.544
				C-513.155,23.194-513.897,23.045-514.655,23.045z"/>
		</g>
		<g>
			<g>
				<path fill="#FFE57E" d="M-516.732,29.445c-0.264,0.798,0.066,1.616,0.906,1.966c0.763,0.315,1.593,0.056,1.927-0.751
					c0.372-0.899-0.104-1.62-0.843-1.927c-0.516-0.212-1.042-0.181-1.42,0.003l-1.076-0.982l2.414-3.294l3.979,1.648l-0.488,1.178
					l-3.072-1.273l-1.209,1.652c0.449-0.195,1.083-0.142,1.598,0.072c1.447,0.6,2.118,1.928,1.486,3.451
					c-0.565,1.368-2.094,2.074-3.774,1.378c-1.57-0.649-2.214-2.138-1.83-3.318L-516.732,29.445z"/>
			</g>
		</g>
		<g>
			<circle fill="#FFB900" cx="-530.964" cy="28.372" r="5.943"/>
		</g>
		<g>
			<path fill="#FFE57E" d="M-530.963,33.177c-2.65,0-4.807-2.155-4.807-4.806c0-2.649,2.157-4.806,4.807-4.806
				c2.649,0,4.805,2.156,4.805,4.806C-526.159,31.022-528.314,33.177-530.963,33.177z M-530.963,24.611
				c-2.074,0-3.762,1.688-3.762,3.761s1.688,3.761,3.762,3.761c2.073,0,3.759-1.688,3.759-3.761S-528.891,24.611-530.963,24.611z"/>
		</g>
		<g>
			<g>
				<path fill="#FFE57E" d="M-532.981,30.267v-2.534h-0.93v-0.631c0.583-0.005,0.997-0.335,1.063-0.73h0.81v3.896H-532.981z"/>
			</g>
			<g>
				<path fill="#FFE57E" d="M-531.198,26.948c0.258-0.391,0.691-0.667,1.321-0.667c0.636,0,1.068,0.276,1.327,0.667
					c0.27,0.408,0.341,0.893,0.341,1.375c0,0.479-0.072,0.966-0.341,1.373c-0.259,0.385-0.691,0.667-1.327,0.667
					c-0.63,0-1.063-0.282-1.321-0.667c-0.27-0.407-0.342-0.895-0.342-1.373C-531.54,27.84-531.468,27.356-531.198,26.948z
					 M-530.447,29.167c0.107,0.217,0.282,0.361,0.57,0.361c0.294,0,0.462-0.145,0.569-0.361c0.115-0.228,0.151-0.532,0.151-0.845
					s-0.036-0.62-0.151-0.847c-0.107-0.218-0.275-0.36-0.569-0.36c-0.288,0-0.463,0.143-0.57,0.36
					c-0.109,0.227-0.145,0.534-0.145,0.847S-530.556,28.94-530.447,29.167z"/>
			</g>
		</g>
	</g>

		<circle display="inline" fill="none" stroke="#009FE4" stroke-width="8" stroke-miterlimit="10" cx="156.262" cy="132.89" r="22.539"/>

		<line display="inline" fill="none" stroke="#009FE4" stroke-width="9" stroke-miterlimit="10" x1="168.244" y1="147.132" x2="190.46" y2="169.349"/>
	<circle display="inline" opacity="0.5" fill="#FFFFFF" cx="156.261" cy="132.888" r="18.602"/>
	<path display="inline" fill="#009FE4" d="M286.024-134.55H265.26c0.149,0.654,0.226,1.393,0.226,2.231v6.617
		c0,1.034-0.846,1.881-1.879,1.881h-36.206c-1.033,0-1.879-0.848-1.879-1.881v-6.617c0-0.838,0.076-1.577,0.226-2.231h-20.604
		c-2.07,0-3.766,1.693-3.766,3.762v102.465c0,2.068,1.695,3.76,3.766,3.76h80.881c2.066,0,3.758-1.691,3.758-3.76v-102.465
		C289.782-132.857,288.09-134.55,286.024-134.55z"/>
	<path display="inline" fill="#FFFFFF" d="M282.261-128.282h-16.775h-39.964h-16.617c-0.692,0-1.255,0.564-1.255,1.253v94.944
		c0,0.689,0.563,1.251,1.255,1.251h73.356c0.689,0,1.252-0.563,1.252-1.251v-94.944
		C283.513-127.717,282.951-128.282,282.261-128.282z"/>
	<g display="inline">
		<path fill="#E6007E" d="M230.339-92.211h-6.896c-1.649,0-2.993-1.343-2.993-2.995v-6.892c0-1.648,1.344-2.993,2.993-2.993h6.896
			c1.649,0,2.993,1.345,2.993,2.993v6.892C233.333-93.554,231.989-92.211,230.339-92.211z M223.444-102.437
			c-0.184,0-0.337,0.151-0.337,0.339v6.892c0,0.188,0.153,0.342,0.337,0.342h6.896c0.184,0,0.337-0.155,0.337-0.342v-6.892
			c0-0.188-0.153-0.339-0.337-0.339H223.444z"/>
	</g>
	<g display="inline">
		<path fill="#E6007E" d="M269.249-97.48H240.5c-0.731,0-1.328-0.593-1.328-1.326c0-0.735,0.597-1.328,1.328-1.328h28.748
			c0.73,0,1.327,0.593,1.327,1.328C270.576-98.074,269.979-97.48,269.249-97.48z"/>
	</g>
	<g display="inline">
		<path fill="#E6007E" d="M230.339-72.718h-6.896c-1.649,0-2.993-1.345-2.993-2.993v-6.898c0-1.649,1.344-2.989,2.993-2.989h6.896
			c1.649,0,2.993,1.339,2.993,2.989v6.898C233.333-74.063,231.989-72.718,230.339-72.718z M223.444-82.944
			c-0.184,0-0.337,0.151-0.337,0.334v6.898c0,0.188,0.153,0.336,0.337,0.336h6.896c0.184,0,0.337-0.149,0.337-0.336v-6.898
			c0-0.184-0.153-0.334-0.337-0.334H223.444z"/>
	</g>
	<g display="inline">
		<path fill="#E6007E" d="M269.249-77.992H240.5c-0.731,0-1.328-0.591-1.328-1.324s0.597-1.328,1.328-1.328h28.748
			c0.73,0,1.327,0.595,1.327,1.328S269.979-77.992,269.249-77.992z"/>
	</g>
	<g display="inline">
		<path fill="#E6007E" d="M230.339-53.229h-6.896c-1.649,0-2.993-1.342-2.993-2.991v-6.894c0-1.651,1.344-2.995,2.993-2.995h6.896
			c1.649,0,2.993,1.343,2.993,2.995v6.894C233.333-54.571,231.989-53.229,230.339-53.229z M223.444-63.457
			c-0.184,0-0.337,0.155-0.337,0.342v6.894c0,0.188,0.153,0.337,0.337,0.337h6.896c0.184,0,0.337-0.149,0.337-0.337v-6.894
			c0-0.188-0.153-0.342-0.337-0.342H223.444z"/>
	</g>
	<g display="inline">
		<path fill="#E6007E" d="M269.249-58.5H240.5c-0.731,0-1.328-0.593-1.328-1.326c0-0.733,0.597-1.326,1.328-1.326h28.748
			c0.73,0,1.327,0.593,1.327,1.326C270.576-59.093,269.979-58.5,269.249-58.5z"/>
	</g>
	<path display="inline" fill="#009FE4" d="M56.715,229.633H35.952c0.149,0.654,0.226,1.394,0.226,2.231v6.616
		c0,1.034-0.846,1.882-1.879,1.882H-1.908c-1.033,0-1.879-0.848-1.879-1.882v-6.616c0-0.838,0.076-1.577,0.226-2.231h-20.604
		c-2.07,0-3.766,1.693-3.766,3.762V335.86c0,2.068,1.695,3.76,3.766,3.76h80.881c2.066,0,3.758-1.691,3.758-3.76V233.395
		C60.473,231.327,58.782,229.633,56.715,229.633z"/>
	<path display="inline" fill="#FFFFFF" d="M52.953,235.903H36.177H-3.787h-16.617c-0.692,0-1.255,0.564-1.255,1.253V332.1
		c0,0.689,0.563,1.252,1.255,1.252h73.356c0.689,0,1.252-0.563,1.252-1.252v-94.944C54.205,236.467,53.642,235.903,52.953,235.903z"
		/>
	<g display="inline">
		<path fill="#E6007E" d="M1.031,271.973h-6.896c-1.649,0-2.993-1.344-2.993-2.994v-6.893c0-1.648,1.344-2.992,2.993-2.992h6.896
			c1.649,0,2.993,1.344,2.993,2.992v6.893C4.024,270.629,2.68,271.973,1.031,271.973z M-5.865,261.748
			c-0.184,0-0.337,0.151-0.337,0.339v6.893c0,0.188,0.153,0.342,0.337,0.342h6.896c0.184,0,0.337-0.154,0.337-0.342v-6.893
			c0-0.188-0.153-0.339-0.337-0.339H-5.865z"/>
	</g>
	<g display="inline">
		<path fill="#E6007E" d="M39.94,266.704H11.192c-0.731,0-1.328-0.594-1.328-1.326c0-0.734,0.597-1.328,1.328-1.328H39.94
			c0.73,0,1.327,0.594,1.327,1.328C41.267,266.11,40.67,266.704,39.94,266.704z"/>
	</g>
	<g display="inline">
		<path fill="#E6007E" d="M1.031,291.465h-6.896c-1.649,0-2.993-1.345-2.993-2.992v-6.898c0-1.649,1.344-2.988,2.993-2.988h6.896
			c1.649,0,2.993,1.339,2.993,2.988v6.898C4.024,290.121,2.68,291.465,1.031,291.465z M-5.865,281.241
			c-0.184,0-0.337,0.15-0.337,0.334v6.898c0,0.188,0.153,0.336,0.337,0.336h6.896c0.184,0,0.337-0.148,0.337-0.336v-6.898
			c0-0.184-0.153-0.334-0.337-0.334H-5.865z"/>
	</g>
	<g display="inline">
		<path fill="#E6007E" d="M39.94,286.192H11.192c-0.731,0-1.328-0.591-1.328-1.324c0-0.732,0.597-1.328,1.328-1.328H39.94
			c0.73,0,1.327,0.596,1.327,1.328C41.267,285.601,40.67,286.192,39.94,286.192z"/>
	</g>
	<g display="inline">
		<path fill="#E6007E" d="M1.031,310.955h-6.896c-1.649,0-2.993-1.342-2.993-2.991v-6.895c0-1.65,1.344-2.994,2.993-2.994h6.896
			c1.649,0,2.993,1.344,2.993,2.994v6.895C4.024,309.613,2.68,310.955,1.031,310.955z M-5.865,300.727
			c-0.184,0-0.337,0.154-0.337,0.342v6.895c0,0.188,0.153,0.337,0.337,0.337h6.896c0.184,0,0.337-0.149,0.337-0.337v-6.895
			c0-0.188-0.153-0.342-0.337-0.342H-5.865z"/>
	</g>
	<g display="inline">
		<path fill="#E6007E" d="M39.94,305.684H11.192c-0.731,0-1.328-0.593-1.328-1.325c0-0.733,0.597-1.326,1.328-1.326H39.94
			c0.73,0,1.327,0.593,1.327,1.326C41.267,305.091,40.67,305.684,39.94,305.684z"/>
	</g>
	<path display="inline" fill="#8C005A" d="M364.633-139.024c-5.484-1.03-6.659-1.003-7.428-2.411
		c-0.494-0.899-0.349-1.872,0.202-2.713c0.031-0.05,0.448-0.572,0.49-0.612c1.902-1.927,3.149-4.034,3.524-6.536
		c0.084-0.534,0.123-1.08,0.123-1.636c0-6.066-4.91-10.979-10.977-10.979c-6.065,0-10.979,4.914-10.979,10.979
		c0,0.557,0.039,1.102,0.123,1.636c0.375,2.502,1.622,4.609,3.524,6.536c0.042,0.04,0.459,0.563,0.494,0.612
		c0.551,0.842,0.688,1.814,0.198,2.713c-0.769,1.408-1.943,1.381-7.428,2.411c-4.083,0.767-5.916,2.501-5.916,6.705v6.617
		c0,1.034,0.846,1.881,1.879,1.881h36.206c1.033,0,1.879-0.848,1.879-1.881v-6.617C370.549-136.523,368.716-138.257,364.633-139.024
		z M350.569-147.627c-2.935,0-5.308-2.376-5.308-5.306c0-2.932,2.373-5.308,5.308-5.308c2.932,0,5.309,2.376,5.309,5.308
		C355.877-150.003,353.5-147.627,350.569-147.627z"/>
	<g display="inline">
		<path fill="#8C005A" d="M392.11-107.859h-33.601c-4.95,0-9.001,4.051-9.001,9.002v75.411c0,4.953,4.051,9.002,9.001,9.002h33.601
			c4.95,0,9.002-4.049,9.002-9.002v-75.411C401.112-103.808,397.06-107.859,392.11-107.859z"/>
		<path fill="#E6007E" d="M368.625-101.917h13.37c0.769,0,1.39,0.621,1.39,1.389c0,0.766-0.621,1.39-1.39,1.39h-13.37
			c-0.77,0-1.39-0.624-1.39-1.39C367.235-101.296,367.855-101.917,368.625-101.917z"/>
		<circle fill="#E6007E" cx="375.31" cy="-22.288" r="4.134"/>
		<path fill="#E6007E" d="M396.125-32.459c0,1.238-1.011,2.252-2.251,2.252h-37.131c-1.237,0-2.249-1.014-2.249-2.252v-57.386
			c0-1.238,1.012-2.25,2.249-2.25h37.131c1.24,0,2.251,1.012,2.251,2.25V-32.459z"/>
	</g>
	<path display="inline" fill="#FFE57E" d="M-86.113,182.856c0.042-0.296,0.033-0.599,0.033-0.903
		c0-7.475-6.065-13.537-13.543-13.537c-2.195,0-4.2,0.665-6.096,1.461c-1.839,0.771-2.726-0.003-3.195-0.538
		c-3.835-4.371-9.462-7.133-15.733-7.133c-11.562,0-20.935,9.374-20.935,20.937c0,0.925,0.075,1.834,0.182,2.731
		c0.271,2.301-1.018,2.637-1.7,2.938c-6.681,2.94-11.348,9.618-11.348,17.387c0,10.483,8.499,18.979,18.985,18.979
		c10.486,0,34.022,0,45.479,0c11.458,0,20.745-9.289,20.745-20.741c0-7.953-4.479-14.859-11.049-18.34
		C-84.989,185.725-86.438,185.229-86.113,182.856z"/>
	<g display="inline">
		<g>
			<path fill="#7DC8F0" d="M-201.462-212.404v-1.987c0-1.186-0.823-1.904-1.931-1.861l-4.748,0.001l0,0l-4.378-12.603
				c-0.397-1.091-1.43-1.803-3.051-1.242l-34.568,12.077c-0.69,0.241-1.151,0.892-1.151,1.623v3.991H-201.462z"/>
		</g>
		<g>
			<g>
				<polygon fill="#009FE4" points="-237.922,-220.124 -236.599,-216.25 -249.171,-216.25 				"/>
			</g>
		</g>
		<path fill="#E6007E" d="M-197.837-212.404h-57.024c-1.069,0-1.934,0.865-1.934,1.933v41.492c0,1.067,0.864,1.934,1.934,1.934
			h57.024c1.069,0,1.934-0.867,1.934-1.934v-41.492C-195.903-211.539-196.768-212.404-197.837-212.404z"/>
		<path fill="#009FE4" d="M-221.217-216.25h6.613c0.395-0.476,0.655-1.02,0.79-1.598c0.301-1.277,0.061-2.601-0.405-3.877
			c-0.466-1.275-1.136-2.441-2.189-3.226c-1.006-0.747-2.334-1.047-3.888-0.478c-1.553,0.568-2.377,1.651-2.679,2.877
			c-0.298,1.277-0.042,2.595,0.423,3.872C-222.225-217.785-221.802-216.945-221.217-216.25z M-220.819-222.188
			c0.127-0.605,0.486-1.102,1.208-1.367c0.739-0.27,1.301-0.108,1.789,0.27c0.619,0.453,1.099,1.29,1.481,2.334
			c0.382,1.046,0.553,1.995,0.374,2.741c-0.128,0.605-0.457,1.089-1.194,1.36c-0.723,0.264-1.317,0.115-1.804-0.266
			c-0.603-0.458-1.083-1.294-1.466-2.341C-220.813-220.5-220.985-221.448-220.819-222.188z"/>
		<path fill="#009FE4" d="M-231.323-216.833l2.037-0.675c-0.106-0.153-0.213-0.34-0.28-0.525c-0.342-0.938-0.084-1.853,0.976-2.239
			c1.001-0.367,1.743,0.094,2.007,0.816c0.254,0.692,0.106,1.339-0.554,2.156l-0.851,1.05h2.549l0.175-0.22
			c0.955-1.202,1.279-2.506,0.808-3.796c-0.635-1.738-2.542-2.715-4.772-1.899c-2.322,0.848-3.066,2.916-2.425,4.667
			C-231.563-217.252-231.405-216.961-231.323-216.833z"/>
		<path fill="#F0A5C3" d="M-194.861-197.035h-22.466c-1.067,0-1.933,0.865-1.933,1.933v10.099c0,1.067,0.865,1.932,1.933,1.932
			h22.466c1.066,0,1.931-0.865,1.931-1.932v-10.099C-192.93-196.17-193.795-197.035-194.861-197.035z M-211.445-186.715
			c-1.844,0-3.336-1.494-3.336-3.337s1.493-3.337,3.336-3.337c1.842,0,3.335,1.494,3.335,3.337S-209.604-186.715-211.445-186.715z"
			/>
	</g>
	<g display="inline">
		<g>
			<polygon fill="#FFFFFF" points="-64.131,-222.745 -64.54,-219.438 26.039,-219.396 26.505,-223.079 			"/>
		</g>
		<g>
			<g>
				<path fill="#B0CB0B" d="M-8.583-234.731h-13.438c-4.795,0-8.693-3.899-8.693-8.694v-13.437c0-4.792,3.898-8.695,8.693-8.695
					h13.438c4.795,0,8.698,3.902,8.698,8.695v13.437C0.116-238.63-3.788-234.731-8.583-234.731z M-22.021-259.73
					c-1.578,0-2.866,1.288-2.866,2.869v13.437c0,1.581,1.288,2.869,2.866,2.869h13.438c1.583,0,2.868-1.288,2.868-2.869v-13.437
					c0-1.581-1.286-2.869-2.868-2.869H-22.021z"/>
			</g>
			<polygon fill="#AEC90B" points="39.189,-178.88 32.835,-213.292 39.189,-178.88 			"/>
			<path fill="#B0CB0B" d="M29.995-186.35l-9.396,9.906c0.9,0,1.797,0,2.477,0h4.442c1.366,0,3.596,0,4.958,0h4.689
				c0.651,0,1.201-0.252,1.568-0.664L29.995-186.35z"/>
			<g>
				<path fill="#B0CB0B" d="M-62.932-221.882h89.287l3.438-27.158c-0.566-0.661-1.413-1.103-2.276-1.103h-85.64
					c-1.362,0-2.678,1.098-2.926,2.437l-3.064,24.822c0.022,0.228,0.098,0.433,0.234,0.6
					C-63.665-222.025-63.327-221.882-62.932-221.882z"/>
				<path fill="#B0CB0B" d="M-64.408-220.505l-5.137,41.625c-0.25,1.34,0.662,2.436,2.027,2.436h18.054c1.362,0,3.591,0,4.956,0
					h62.629c0.683,0,1.58,0,2.478,0l5.532-43.692h-89.063C-63.464-220.136-63.97-220.264-64.408-220.505z"/>
			</g>
			<path fill="#1E6E32" d="M38.731-177.107c0.401-0.445,0.59-1.074,0.458-1.772l-8.743-68.826c-0.092-0.493-0.326-0.95-0.654-1.334
				l-9.195,72.596l9.396-9.906L38.731-177.107z"/>
			<g>
				<path fill="#FFFFFF" d="M-42.293-229.821l-0.113,0.002c-3.051,0.061-5.882,2.716-6.307,5.921l-0.663,4.998
					c-0.222,1.653,0.207,3.188,1.204,4.326c0.922,1.055,2.23,1.633,3.682,1.633l0.109-0.002c3.054-0.061,5.883-2.718,6.308-5.918
					l0.667-4.999c0.217-1.651-0.209-3.191-1.206-4.328C-39.533-229.242-40.841-229.821-42.293-229.821z"/>
				<path fill="#FFFFFF" d="M8.725-228.189c-0.92-1.053-2.228-1.632-3.682-1.632l-0.11,0.002c-3.052,0.061-5.882,2.716-6.306,5.921
					l-0.664,4.998c-0.221,1.653,0.209,3.188,1.205,4.326c0.92,1.055,2.226,1.633,3.68,1.633l0.111-0.002
					c3.052-0.061,5.883-2.718,6.306-5.918l0.667-4.999C10.152-225.512,9.723-227.052,8.725-228.189z"/>
			</g>
		</g>
	</g>
	<g display="inline">
		<g>
			<path fill="#7DC8F0" d="M-35.434-211.799v-1.964c0-1.173-0.814-1.883-1.909-1.839l-4.694,0.001l0,0l-4.329-12.459
				c-0.392-1.078-1.413-1.782-3.016-1.227l-34.175,11.939c-0.682,0.238-1.138,0.881-1.138,1.604v3.945H-35.434z"/>
		</g>
		<g>
			<g>
				<polygon fill="#009FE4" points="-71.479,-219.431 -70.17,-215.602 -82.6,-215.602 				"/>
			</g>
		</g>
		<path fill="#0A4682" d="M-31.849-211.799h-56.376c-1.057,0-1.912,0.855-1.912,1.912v41.02c0,1.056,0.854,1.912,1.912,1.912h56.376
			c1.057,0,1.912-0.856,1.912-1.912v-41.02C-29.937-210.944-30.792-211.799-31.849-211.799z"/>
		<path fill="#009FE4" d="M-54.964-215.602h6.538c0.39-0.471,0.648-1.008,0.781-1.58c0.298-1.263,0.061-2.571-0.401-3.833
			c-0.46-1.261-1.123-2.414-2.164-3.189c-0.994-0.739-2.308-1.036-3.843-0.473c-1.536,0.562-2.351,1.632-2.649,2.844
			c-0.294,1.263-0.042,2.565,0.419,3.828C-55.96-217.119-55.542-216.289-54.964-215.602z M-54.57-221.472
			c0.126-0.598,0.48-1.089,1.195-1.351c0.73-0.267,1.286-0.107,1.769,0.267c0.611,0.448,1.086,1.275,1.464,2.307
			c0.377,1.034,0.547,1.973,0.37,2.71c-0.127,0.599-0.452,1.077-1.181,1.344c-0.715,0.261-1.302,0.113-1.784-0.263
			c-0.596-0.453-1.071-1.28-1.449-2.314C-54.564-219.803-54.734-220.741-54.57-221.472z"/>
		<path fill="#009FE4" d="M-64.954-216.178l2.014-0.668c-0.105-0.151-0.21-0.336-0.276-0.52c-0.338-0.927-0.083-1.831,0.964-2.213
			c0.99-0.363,1.723,0.093,1.984,0.806c0.251,0.685,0.105,1.324-0.548,2.132l-0.841,1.038h2.52l0.173-0.217
			c0.944-1.188,1.264-2.478,0.799-3.753c-0.628-1.718-2.513-2.684-4.718-1.877c-2.295,0.838-3.031,2.882-2.397,4.614
			C-65.191-216.592-65.036-216.305-64.954-216.178z"/>
		<path fill="#7DC8F0" d="M-28.907-196.605h-22.211c-1.055,0-1.91,0.855-1.91,1.911v9.983c0,1.055,0.855,1.91,1.91,1.91h22.211
			c1.054,0,1.909-0.855,1.909-1.91v-9.983C-26.999-195.75-27.853-196.605-28.907-196.605z M-45.303-186.403
			c-1.823,0-3.298-1.477-3.298-3.299s1.475-3.299,3.298-3.299c1.82,0,3.297,1.477,3.297,3.299S-43.482-186.403-45.303-186.403z"/>
	</g>
</g>
<g id="Lager_2">
	<g>
		<g>
			<g>
				<polygon fill="#FFFFFF" points="17.567,35.917 17.333,37.815 69.334,37.838 69.602,35.725 				"/>
			</g>
			<g>
				<g>
					<path fill="#009FE4" d="M49.458,29.035h-7.715c-2.752,0-4.99-2.238-4.99-4.991V16.33c0-2.751,2.238-4.992,4.99-4.992h7.715
						c2.753,0,4.994,2.24,4.994,4.992v7.714C54.452,26.797,52.211,29.035,49.458,29.035z M41.743,14.683
						c-0.906,0-1.645,0.739-1.645,1.647v7.714c0,0.908,0.739,1.646,1.645,1.646h7.715c0.909,0,1.647-0.739,1.647-1.646V16.33
						c0-0.908-0.738-1.647-1.647-1.647H41.743z"/>
				</g>
				<polygon fill="#AEC90B" points="76.884,61.1 73.237,41.344 76.884,61.1 				"/>
				<path fill="#009FE4" d="M71.606,56.811l-5.396,5.688c0.518,0,1.032,0,1.423,0h2.551c0.783,0,2.064,0,2.846,0h2.692
					c0.373,0,0.689-0.145,0.899-0.381L71.606,56.811z"/>
				<g>
					<path fill="#009FE4" d="M18.255,36.413h51.26l1.976-15.592c-0.326-0.38-0.812-0.633-1.307-0.633H21.017
						c-0.782,0-1.538,0.63-1.68,1.398l-1.759,14.25c0.013,0.131,0.057,0.248,0.134,0.346C17.834,36.331,18.029,36.413,18.255,36.413
						z"/>
					<path fill="#009FE4" d="M17.408,37.202L14.459,61.1c-0.144,0.77,0.38,1.398,1.164,1.398h10.365c0.782,0,2.062,0,2.845,0h35.956
						c0.393,0,0.907,0,1.422,0l3.177-25.084H18.255C17.95,37.415,17.66,37.34,17.408,37.202z"/>
				</g>
				<path fill="#0A4682" d="M76.622,62.118c0.231-0.256,0.339-0.617,0.263-1.018l-5.019-39.514
					c-0.054-0.283-0.187-0.545-0.375-0.766l-5.28,41.678l5.396-5.688L76.622,62.118z"/>
				<g>
					<path fill="#FFFFFF" d="M30.104,31.854H30.04c-1.751,0.036-3.377,1.56-3.621,3.4l-0.38,2.869
						c-0.128,0.949,0.119,1.83,0.691,2.482c0.529,0.607,1.281,0.938,2.114,0.938h0.063c1.753-0.035,3.377-1.561,3.622-3.396
						l0.383-2.871c0.125-0.947-0.12-1.832-0.692-2.484C31.689,32.187,30.938,31.854,30.104,31.854z"/>
					<path fill="#FFFFFF" d="M59.395,32.792c-0.528-0.605-1.279-0.937-2.113-0.937h-0.064c-1.752,0.036-3.377,1.56-3.62,3.4
						l-0.381,2.869c-0.127,0.949,0.12,1.83,0.691,2.482c0.527,0.607,1.277,0.938,2.112,0.938h0.063
						c1.753-0.035,3.378-1.561,3.62-3.396l0.383-2.871C60.214,34.329,59.967,33.444,59.395,32.792z"/>
				</g>
			</g>
		</g>
		<g>
			<g>
				<path fill="#7DC8F0" d="M34.228,41.989v-1.141c0-0.682-0.473-1.094-1.108-1.066h-2.726l0,0l-2.514-7.236
					c-0.228-0.625-0.821-1.035-1.752-0.712L6.282,38.768c-0.396,0.137-0.661,0.51-0.661,0.932v2.289H34.228z"/>
			</g>
			<g>
				<g>
					<polygon fill="#009FE4" points="13.296,37.559 14.056,39.782 6.838,39.782 					"/>
				</g>
			</g>
			<path fill="#E6007E" d="M36.309,41.989H3.571c-0.614,0-1.11,0.498-1.11,1.111v23.82c0,0.613,0.496,1.111,1.11,1.111h32.738
				c0.614,0,1.111-0.498,1.111-1.111V43.1C37.42,42.487,36.923,41.989,36.309,41.989z"/>
			<path fill="#009FE4" d="M22.887,39.782h3.796c0.226-0.273,0.376-0.586,0.454-0.918c0.173-0.732,0.035-1.492-0.233-2.227
				c-0.268-0.73-0.652-1.4-1.257-1.852c-0.578-0.428-1.34-0.602-2.232-0.273c-0.892,0.326-1.365,0.947-1.538,1.652
				c-0.171,0.732-0.024,1.49,0.243,2.223C22.308,38.901,22.55,39.383,22.887,39.782z M23.115,36.374
				c0.073-0.348,0.279-0.633,0.694-0.785c0.424-0.156,0.747-0.063,1.027,0.154c0.355,0.26,0.631,0.74,0.85,1.34
				c0.219,0.602,0.318,1.145,0.215,1.574c-0.073,0.348-0.262,0.625-0.686,0.781c-0.416,0.15-0.756,0.064-1.036-0.154
				c-0.346-0.262-0.623-0.742-0.842-1.344C23.118,37.342,23.02,36.797,23.115,36.374z"/>
			<path fill="#009FE4" d="M17.084,39.446l1.169-0.387c-0.061-0.088-0.122-0.195-0.161-0.301c-0.196-0.539-0.048-1.064,0.561-1.285
				c0.575-0.211,1,0.053,1.152,0.467c0.146,0.398,0.061,0.77-0.318,1.238L19,39.782h1.464l0.1-0.127
				c0.548-0.689,0.734-1.438,0.464-2.18c-0.364-0.996-1.459-1.559-2.74-1.09c-1.333,0.486-1.76,1.674-1.392,2.68
				C16.947,39.206,17.038,39.374,17.084,39.446z"/>
			<path fill="#F0A5C3" d="M38.018,50.813H25.12c-0.613,0-1.11,0.498-1.11,1.109v5.799c0,0.611,0.497,1.109,1.11,1.109h12.897
				c0.613,0,1.108-0.498,1.108-1.109v-5.799C39.126,51.311,38.63,50.813,38.018,50.813z M28.497,56.739
				c-1.059,0-1.916-0.859-1.916-1.916c0-1.059,0.857-1.918,1.916-1.918c1.058,0,1.915,0.859,1.915,1.918
				C30.412,55.879,29.554,56.739,28.497,56.739z"/>
		</g>
	</g>
</g>
</svg>
