<?xml version="1.0" encoding="utf-8"?>
<!-- Generator: Adobe Illustrator 16.0.0, SVG Export Plug-In . SVG Version: 6.00 Build 0)  -->
<!DOCTYPE svg PUBLIC "-//W3C//DTD SVG 1.1//EN" "http://www.w3.org/Graphics/SVG/1.1/DTD/svg11.dtd">
<svg version="1.1" id="Lager_1" xmlns="http://www.w3.org/2000/svg" xmlns:xlink="http://www.w3.org/1999/xlink" x="0px" y="0px"
	 viewBox="0 0 70.866 70.866" enable-background="new 0 0 70.866 70.866" xml:space="preserve">
<g>
	<g>
		<path fill="#009FE4" d="M39.509,26.945h-8.307c-2.964,0-5.373-2.41-5.373-5.374v-8.306c0-2.963,2.409-5.375,5.373-5.375h8.307
			c2.964,0,5.376,2.412,5.376,5.375v8.306C44.885,24.535,42.473,26.945,39.509,26.945z M31.202,11.492
			c-0.976,0-1.771,0.796-1.771,1.773v8.306c0,0.978,0.796,1.773,1.771,1.773h8.307c0.979,0,1.773-0.796,1.773-1.773v-8.306
			c0-0.978-0.794-1.773-1.773-1.773H31.202z"/>
	</g>
	<polygon fill="#AEC90B" points="69.04,61.469 65.112,40.198 69.04,61.469 	"/>
	<path fill="#009FE4" d="M63.356,56.852l-5.809,6.123c0.557,0,1.111,0,1.531,0h2.746c0.844,0,2.223,0,3.064,0h2.898
		c0.402,0,0.742-0.156,0.969-0.41L63.356,56.852z"/>
	<g>
		<path fill="#009FE4" d="M5.913,34.888h55.193l2.125-16.787c-0.35-0.409-0.873-0.682-1.406-0.682H8.886
			c-0.842,0-1.655,0.679-1.809,1.506L5.183,34.268c0.014,0.141,0.061,0.269,0.145,0.371C5.46,34.799,5.669,34.888,5.913,34.888z"/>
		<path fill="#009FE4" d="M5.001,35.738L1.825,61.469c-0.154,0.828,0.409,1.506,1.253,1.506h11.16c0.842,0,2.22,0,3.063,0h38.714
			c0.422,0,0.977,0,1.531,0l3.42-27.007H5.913C5.584,35.968,5.271,35.887,5.001,35.738z"/>
	</g>
	<path fill="#0A4682" d="M68.756,62.565c0.248-0.275,0.365-0.664,0.283-1.096l-5.404-42.544c-0.057-0.305-0.201-0.587-0.404-0.824
		l-5.684,44.875l5.809-6.123L68.756,62.565z"/>
	<g>
		<path fill="#FFFFFF" d="M18.671,29.98l-0.07,0.001c-1.886,0.038-3.636,1.679-3.898,3.659l-0.41,3.09
			c-0.137,1.022,0.128,1.971,0.744,2.674c0.57,0.652,1.379,1.01,2.276,1.01l0.067-0.002c1.888-0.037,3.637-1.68,3.899-3.659
			l0.412-3.09c0.135-1.021-0.129-1.972-0.745-2.675C20.377,30.338,19.568,29.98,18.671,29.98z"/>
		<path fill="#FFFFFF" d="M50.208,30.989c-0.568-0.651-1.377-1.009-2.275-1.009l-0.068,0.001c-1.887,0.038-3.637,1.679-3.898,3.659
			l-0.41,3.09c-0.137,1.022,0.129,1.971,0.744,2.674c0.568,0.652,1.377,1.01,2.275,1.01l0.068-0.002
			c1.887-0.037,3.637-1.68,3.898-3.659l0.412-3.09C51.09,32.643,50.825,31.692,50.208,30.989z"/>
	</g>
</g>
</svg>
