<?xml version="1.0" encoding="utf-8"?>
<!-- Generator: Adobe Illustrator 16.0.0, SVG Export Plug-In . SVG Version: 6.00 Build 0)  -->
<!DOCTYPE svg PUBLIC "-//W3C//DTD SVG 1.1//EN" "http://www.w3.org/Graphics/SVG/1.1/DTD/svg11.dtd">
<svg version="1.1" id="Lager_1" xmlns="http://www.w3.org/2000/svg" xmlns:xlink="http://www.w3.org/1999/xlink" x="0px" y="0px"
	 viewBox="0 0 87.874 87.874" enable-background="new 0 0 87.874 87.874" xml:space="preserve">
<g>
	<g>
		<g>
			<path fill="#009FE4" d="M55.494,32.435h-8.307c-2.964,0-5.373-2.41-5.373-5.374v-8.306c0-2.963,2.409-5.375,5.373-5.375h8.307
				c2.964,0,5.377,2.412,5.377,5.375v8.306C60.871,30.024,58.458,32.435,55.494,32.435z M47.188,16.981
				c-0.976,0-1.771,0.796-1.771,1.773v8.306c0,0.978,0.796,1.773,1.771,1.773h8.307c0.979,0,1.773-0.796,1.773-1.773v-8.306
				c0-0.978-0.794-1.773-1.773-1.773H47.188z"/>
		</g>
		<polygon fill="#AEC90B" points="85.024,66.959 81.097,45.688 85.024,66.959 		"/>
		<path fill="#009FE4" d="M79.341,62.342l-5.809,6.123c0.557,0,1.111,0,1.531,0h2.746c0.844,0,2.223,0,3.064,0h2.898
			c0.402,0,0.742-0.156,0.969-0.41L79.341,62.342z"/>
		<g>
			<path fill="#009FE4" d="M21.898,40.377h55.192l2.125-16.787c-0.35-0.409-0.873-0.682-1.406-0.682H24.871
				c-0.842,0-1.655,0.679-1.809,1.506l-1.895,15.344c0.014,0.141,0.061,0.268,0.145,0.371
				C21.445,40.289,21.654,40.377,21.898,40.377z"/>
			<path fill="#009FE4" d="M20.986,41.229l-3.176,25.73c-0.154,0.828,0.409,1.506,1.253,1.506h11.16c0.842,0,2.22,0,3.063,0h38.714
				c0.422,0,0.977,0,1.531,0l3.42-27.008H21.898C21.569,41.457,21.257,41.377,20.986,41.229z"/>
		</g>
		<path fill="#0A4682" d="M84.741,68.055c0.248-0.275,0.365-0.664,0.283-1.096L79.62,24.414c-0.057-0.305-0.201-0.587-0.404-0.824
			l-5.684,44.875l5.809-6.123L84.741,68.055z"/>
		<g>
			<path fill="#FFFFFF" d="M34.656,35.47l-0.07,0.001c-1.886,0.038-3.636,1.68-3.898,3.66l-0.41,3.09
				c-0.137,1.021,0.128,1.971,0.744,2.674c0.57,0.652,1.379,1.01,2.276,1.01l0.067-0.002c1.888-0.037,3.637-1.68,3.899-3.658
				l0.412-3.09c0.135-1.021-0.129-1.973-0.745-2.676C36.362,35.828,35.554,35.47,34.656,35.47z"/>
			<path fill="#FFFFFF" d="M66.192,36.479c-0.568-0.65-1.377-1.009-2.275-1.009l-0.068,0.001c-1.887,0.038-3.636,1.68-3.897,3.66
				l-0.411,3.09c-0.137,1.021,0.129,1.971,0.745,2.674c0.568,0.652,1.376,1.01,2.274,1.01l0.068-0.002
				c1.887-0.037,3.637-1.68,3.898-3.658l0.412-3.09C67.075,38.133,66.81,37.182,66.192,36.479z"/>
		</g>
	</g>
	<g>
		<g>
			<path fill="#E6007E" d="M40.113,34.556h-1.109v1.396c0.315,0.152,0.534,0.473,0.534,0.846c0,0.521-0.421,0.942-0.941,0.942
				c-0.52,0-0.942-0.421-0.942-0.942c0-0.373,0.219-0.693,0.534-0.846v-1.396H36.04v1.396c0.315,0.152,0.534,0.473,0.534,0.846
				c0,0.521-0.422,0.942-0.941,0.942c-0.521,0-0.943-0.421-0.943-0.942c0-0.373,0.219-0.693,0.534-0.846v-1.396h-2.148v1.396
				c0.315,0.152,0.534,0.473,0.534,0.846c0,0.521-0.422,0.942-0.941,0.942c-0.521,0-0.943-0.421-0.943-0.942
				c0-0.373,0.219-0.693,0.534-0.846v-1.396h-2.147v1.396c0.314,0.152,0.534,0.473,0.534,0.846c0,0.521-0.422,0.942-0.941,0.942
				c-0.521,0-0.942-0.421-0.942-0.942c0-0.373,0.219-0.693,0.533-0.846v-1.396h-2.147v1.396c0.314,0.152,0.534,0.473,0.534,0.846
				c0,0.521-0.422,0.942-0.942,0.942s-0.942-0.421-0.942-0.942c0-0.373,0.22-0.693,0.534-0.846v-1.396h-2.147v1.396
				c0.314,0.152,0.533,0.473,0.533,0.846c0,0.521-0.421,0.942-0.941,0.942c-0.521,0-0.942-0.421-0.942-0.942
				c0-0.373,0.219-0.693,0.534-0.846v-1.396H21.22v1.396c0.315,0.152,0.534,0.473,0.534,0.846c0,0.521-0.422,0.942-0.942,0.942
				c-0.52,0-0.942-0.421-0.942-0.942c0-0.373,0.219-0.693,0.534-0.846v-1.396h-2.148v1.396c0.314,0.152,0.534,0.473,0.534,0.846
				c0,0.521-0.422,0.942-0.942,0.942c-0.52,0-0.942-0.421-0.942-0.942c0-0.373,0.22-0.693,0.534-0.846v-1.396h-2.148v1.396
				c0.315,0.152,0.534,0.473,0.534,0.846c0,0.521-0.421,0.942-0.941,0.942c-0.521,0-0.942-0.421-0.942-0.942
				c0-0.373,0.219-0.693,0.533-0.846v-1.396h-1.133c-0.424,0-0.771,0.348-0.771,0.771v1.542v35.313c0,1.271,1.041,2.313,2.313,2.313
				h23.689c1.271,0,2.312-1.042,2.312-2.313V36.869v-1.542C40.884,34.903,40.538,34.556,40.113,34.556z"/>
		</g>
		<g>
			<path fill="#F0A5C3" d="M32.852,52.6c-0.001-0.001-0.002-0.002-0.002-0.003c0-0.006-0.002-0.013-0.004-0.017
				c-0.333-1.439-1.467-2.511-2.958-2.576c-0.098-0.009-0.195-0.014-0.296-0.014c-1.139,0-2.143,0.585-2.75,1.479
				c-0.022,0.033-0.055,0.076-0.103,0.072c-0.049,0.004-0.083-0.039-0.104-0.072c-0.607-0.895-1.612-1.479-2.751-1.479
				c-0.099,0-0.198,0.005-0.296,0.014c-1.49,0.065-2.625,1.137-2.957,2.576c-0.002,0.004-0.003,0.011-0.005,0.017
				c0,0.001,0,0.002,0,0.003c-0.067,0.274-0.104,0.559-0.104,0.854c0,1.044,0.277,2.051,0.838,2.995
				c0.811,1.361,2.206,2.565,3.63,3.643c0.829,0.623,1.363,0.943,1.749,0.943c0.401,0,0.896-0.32,1.747-0.943
				c1.437-1.058,2.82-2.281,3.63-3.643c0.562-0.944,0.838-1.951,0.838-2.995C32.955,53.158,32.918,52.874,32.852,52.6z"/>
		</g>
		<g>
			<g>
				<path fill="#8C005A" d="M15.291,35.952v-3.107c0-0.227-0.183-0.41-0.408-0.41s-0.409,0.184-0.409,0.41v3.107
					c-0.314,0.152-0.533,0.473-0.533,0.846c0,0.521,0.421,0.942,0.942,0.942c0.52,0,0.941-0.421,0.941-0.942
					C15.825,36.425,15.606,36.104,15.291,35.952z"/>
				<path fill="#8C005A" d="M18.255,35.952v-3.107c0-0.227-0.183-0.41-0.408-0.41s-0.408,0.184-0.408,0.41v3.107
					c-0.314,0.152-0.534,0.473-0.534,0.846c0,0.521,0.422,0.942,0.942,0.942c0.52,0,0.942-0.421,0.942-0.942
					C18.79,36.425,18.57,36.104,18.255,35.952z"/>
				<path fill="#8C005A" d="M21.22,35.952v-3.107c0-0.227-0.183-0.41-0.408-0.41c-0.225,0-0.408,0.184-0.408,0.41v3.107
					c-0.314,0.152-0.534,0.473-0.534,0.846c0,0.521,0.422,0.942,0.942,0.942c0.52,0,0.942-0.421,0.942-0.942
					C21.753,36.425,21.535,36.104,21.22,35.952z"/>
				<path fill="#8C005A" d="M24.184,35.952v-3.107c0-0.227-0.183-0.41-0.408-0.41s-0.409,0.184-0.409,0.41v3.107
					c-0.314,0.152-0.534,0.473-0.534,0.846c0,0.521,0.422,0.942,0.942,0.942c0.52,0,0.941-0.421,0.941-0.942
					C24.717,36.425,24.498,36.104,24.184,35.952z"/>
				<path fill="#8C005A" d="M27.148,35.952v-3.107c0-0.227-0.182-0.41-0.409-0.41c-0.225,0-0.408,0.184-0.408,0.41v3.107
					c-0.314,0.152-0.534,0.473-0.534,0.846c0,0.521,0.422,0.942,0.942,0.942s0.942-0.421,0.942-0.942
					C27.682,36.425,27.463,36.104,27.148,35.952z"/>
				<path fill="#8C005A" d="M30.112,35.952v-3.107c0-0.227-0.184-0.41-0.408-0.41c-0.226,0-0.409,0.184-0.409,0.41v3.107
					c-0.314,0.152-0.533,0.473-0.533,0.846c0,0.521,0.421,0.942,0.942,0.942c0.52,0,0.941-0.421,0.941-0.942
					C30.646,36.425,30.427,36.104,30.112,35.952z"/>
				<path fill="#8C005A" d="M33.076,35.952v-3.107c0-0.227-0.183-0.41-0.407-0.41c-0.226,0-0.409,0.184-0.409,0.41v3.107
					c-0.314,0.152-0.534,0.473-0.534,0.846c0,0.521,0.422,0.942,0.943,0.942c0.519,0,0.941-0.421,0.941-0.942
					C33.61,36.425,33.392,36.104,33.076,35.952z"/>
				<path fill="#8C005A" d="M36.04,35.952v-3.107c0-0.227-0.182-0.41-0.407-0.41c-0.226,0-0.409,0.184-0.409,0.41v3.107
					c-0.315,0.152-0.534,0.473-0.534,0.846c0,0.521,0.422,0.942,0.943,0.942c0.519,0,0.941-0.421,0.941-0.942
					C36.574,36.425,36.355,36.104,36.04,35.952z"/>
				<path fill="#8C005A" d="M39.004,35.952v-3.107c0-0.227-0.182-0.41-0.407-0.41c-0.226,0-0.408,0.184-0.408,0.41v3.107
					c-0.315,0.152-0.534,0.473-0.534,0.846c0,0.521,0.422,0.942,0.942,0.942c0.52,0,0.941-0.421,0.941-0.942
					C39.538,36.425,39.319,36.104,39.004,35.952z"/>
			</g>
		</g>
		<path fill="#F0A5C3" d="M5.908,69.867H4.365H2.823v1.543v1.544c0,0.845,0.694,1.54,1.542,1.54h1.542
			c0.848,0,1.542-0.695,1.542-1.54V71.41v-1.543H5.908z"/>
		<polygon fill="#8C005A" points="4.301,37.338 5.972,37.338 5.137,34.556 		"/>
		<g>
			<path fill="#FFB900" d="M7.449,42.257c0,0.427-0.345,0.772-0.771,0.772c-0.425,0-0.77-0.346-0.77-0.772
				c0,0.427-0.345,0.772-0.771,0.772c-0.427,0-0.771-0.346-0.771-0.772c0,0.427-0.345,0.772-0.771,0.772
				c-0.426,0-0.771-0.346-0.771-0.772v25.242h4.626V42.257L7.449,42.257z"/>
		</g>
		<rect x="2.823" y="67.499" fill="#FFE57E" width="4.626" height="2.368"/>
		<g>
			<path fill="#FFE57E" d="M7.449,42.256l-0.126-0.42l-1.351-4.498h-1.67L2.95,41.834l-0.127,0.423c0,0.427,0.345,0.772,0.771,0.772
				c0.426,0,0.771-0.346,0.771-0.772c0,0.427,0.345,0.772,0.771,0.772c0.426,0,0.771-0.346,0.771-0.772
				c0,0.427,0.345,0.772,0.77,0.772C7.104,43.029,7.449,42.684,7.449,42.256L7.449,42.256L7.449,42.256z"/>
		</g>
	</g>
</g>
</svg>
