<?xml version="1.0" encoding="utf-8"?>
<!-- Generator: Adobe Illustrator 16.0.0, SVG Export Plug-In . SVG Version: 6.00 Build 0)  -->
<!DOCTYPE svg PUBLIC "-//W3C//DTD SVG 1.1//EN" "http://www.w3.org/Graphics/SVG/1.1/DTD/svg11.dtd">
<svg version="1.1" id="Lager_1" xmlns="http://www.w3.org/2000/svg" xmlns:xlink="http://www.w3.org/1999/xlink" x="0px" y="0px"
	 viewBox="0 0 82.205 82.205" enable-background="new 0 0 82.205 82.205" xml:space="preserve">
<g>
	<g>
		<path fill="#7DC8F0" d="M64.503,20.563c-0.072-0.016-0.072-0.016-0.072-0.016c-0.08-0.004-1.422-0.008-2.981-0.008h-3.443
			c-1.56,0-2.93,0.008-3.046,0.018c0,0,0,0-0.1,0.03c-0.422,0.132-0.73,0.526-0.73,0.994c0,0.457,0.297,0.849,0.711,0.985
			c0.102,0.035,0.102,0.035,0.102,0.035c0.126,0.011,0.278,0.02,0.339,0.02s0.11,0.052,0.11,0.116c0,0,0,0,0,0.135
			c0,6.045,0,44.565,0,49.465c0,2.395,1.941,4.336,4.336,4.336c2.393,0,4.334-1.941,4.334-4.336c0-6.986,0-44.054,0-49.51
			c0-0.073,0-0.073,0-0.073c0-0.073,0.05-0.133,0.111-0.133s0.168-0.002,0.238-0.006c0,0,0,0,0.059-0.012
			c0.484-0.088,0.855-0.512,0.855-1.022C65.325,21.081,64.97,20.663,64.503,20.563z M62.36,69.503c0,1.56-0.521,3.999-1.159,5.422
			c0,0-0.022,0.05-1.474,0.05c-1.455,0-1.478-0.05-1.478-0.05c-0.638-1.423-1.159-3.862-1.159-5.422v-9.465
			c0-1.56,1.186-2.835,2.635-2.835s2.635,1.275,2.635,2.835V69.503z"/>
	</g>
</g>
<g>
	<g>
		<path fill="#7DC8F0" d="M78.11,20.563c-0.07-0.016-0.07-0.016-0.07-0.016c-0.083-0.004-1.426-0.008-2.985-0.008h-3.443
			c-1.56,0-2.93,0.008-3.046,0.018c0,0,0,0-0.096,0.03c-0.424,0.132-0.732,0.526-0.732,0.994c0,0.457,0.297,0.849,0.711,0.985
			c0.104,0.035,0.104,0.035,0.104,0.035c0.123,0.011,0.275,0.02,0.337,0.02s0.112,0.052,0.112,0.116c0,0,0,0,0,0.135
			c0,6.045,0,44.565,0,49.465c0,2.395,1.939,4.336,4.332,4.336c2.396,0,4.336-1.941,4.336-4.336c0-6.986,0-44.054,0-49.51
			c0-0.073,0-0.073,0-0.073c0-0.073,0.05-0.133,0.11-0.133s0.168-0.002,0.239-0.006c0,0,0,0,0.061-0.012
			c0.484-0.088,0.852-0.512,0.852-1.022C78.931,21.081,78.579,20.663,78.11,20.563z M75.97,69.503c0,1.56-0.521,3.999-1.159,5.422
			c0,0-0.022,0.05-1.478,0.05c-1.451,0-1.474-0.05-1.474-0.05c-0.638-1.423-1.159-3.862-1.159-5.422V43.773
			c0-1.56,1.186-2.835,2.635-2.835s2.635,1.275,2.635,2.835V69.503z"/>
	</g>
</g>
<path fill="#009FE4" d="M46.474,20.517H35.877c0.076,0.334,0.114,0.711,0.114,1.139v3.377c0,0.527-0.431,0.96-0.959,0.96H16.555
	c-0.528,0-0.96-0.433-0.96-0.96v-3.377c0-0.428,0.039-0.805,0.116-1.139H5.195c-1.056,0-1.921,0.864-1.921,1.92V74.73
	c0,1.056,0.865,1.919,1.921,1.919h41.279c1.055,0,1.918-0.863,1.918-1.919V22.437C48.392,21.381,47.528,20.517,46.474,20.517z"/>
<path fill="#FFFFFF" d="M44.554,23.716h-8.562v1.316c0,0.527-0.431,0.96-0.959,0.96H16.555c-0.528,0-0.96-0.433-0.96-0.96v-1.316
	h-8.48c-0.353,0-0.641,0.288-0.641,0.64v48.456c0,0.352,0.288,0.639,0.641,0.639h37.439c0.352,0,0.639-0.287,0.639-0.639V24.355
	C45.192,24.004,44.905,23.716,44.554,23.716z"/>
<g>
	<path fill="#E6007E" d="M18.054,42.125h-3.52c-0.841,0-1.526-0.686-1.526-1.528v-3.518c0-0.841,0.686-1.527,1.526-1.527h3.52
		c0.842,0,1.527,0.687,1.527,1.527v3.518C19.582,41.439,18.896,42.125,18.054,42.125z M14.535,36.906
		c-0.094,0-0.172,0.077-0.172,0.173v3.518c0,0.096,0.078,0.175,0.172,0.175h3.52c0.095,0,0.173-0.079,0.173-0.175v-3.518
		c0-0.096-0.078-0.173-0.173-0.173H14.535z"/>
</g>
<g>
	<path fill="#E6007E" d="M37.912,39.436H23.241c-0.374,0-0.678-0.303-0.678-0.677c0-0.375,0.304-0.678,0.678-0.678h14.671
		c0.374,0,0.678,0.303,0.678,0.678C38.589,39.133,38.286,39.436,37.912,39.436z"/>
</g>
<g>
	<path fill="#E6007E" d="M18.054,52.073h-3.52c-0.841,0-1.526-0.687-1.526-1.527v-3.521c0-0.842,0.686-1.525,1.526-1.525h3.52
		c0.842,0,1.527,0.684,1.527,1.525v3.521C19.582,51.387,18.896,52.073,18.054,52.073z M14.535,46.854
		c-0.094,0-0.172,0.077-0.172,0.171v3.521c0,0.096,0.078,0.172,0.172,0.172h3.52c0.095,0,0.173-0.076,0.173-0.172v-3.521
		c0-0.094-0.078-0.171-0.173-0.171H14.535z"/>
</g>
<g>
	<path fill="#E6007E" d="M37.912,49.382H23.241c-0.374,0-0.678-0.302-0.678-0.676s0.304-0.678,0.678-0.678h14.671
		c0.374,0,0.678,0.304,0.678,0.678S38.286,49.382,37.912,49.382z"/>
</g>
<g>
	<path fill="#E6007E" d="M18.054,62.02h-3.52c-0.841,0-1.526-0.685-1.526-1.526v-3.519c0-0.843,0.686-1.528,1.526-1.528h3.52
		c0.842,0,1.527,0.686,1.527,1.528v3.519C19.582,61.335,18.896,62.02,18.054,62.02z M14.535,56.8c-0.094,0-0.172,0.079-0.172,0.175
		v3.519c0,0.096,0.078,0.172,0.172,0.172h3.52c0.095,0,0.173-0.076,0.173-0.172v-3.519c0-0.096-0.078-0.175-0.173-0.175H14.535z"/>
</g>
<g>
	<path fill="#E6007E" d="M37.912,59.33H23.241c-0.374,0-0.678-0.303-0.678-0.677s0.304-0.677,0.678-0.677h14.671
		c0.374,0,0.678,0.303,0.678,0.677S38.286,59.33,37.912,59.33z"/>
</g>
<path fill="#8C005A" d="M32.972,18.233c-2.799-0.525-3.397-0.512-3.79-1.23c-0.252-0.459-0.178-0.955,0.103-1.385
	c0.017-0.025,0.229-0.292,0.25-0.313c0.971-0.983,1.607-2.059,1.8-3.336c0.042-0.272,0.063-0.551,0.063-0.835
	c0-3.096-2.507-5.604-5.602-5.604c-3.097,0-5.604,2.508-5.604,5.604c0,0.284,0.021,0.563,0.063,0.835
	c0.192,1.277,0.829,2.353,1.8,3.336c0.021,0.021,0.234,0.287,0.251,0.313c0.281,0.43,0.353,0.926,0.102,1.385
	c-0.393,0.719-0.991,0.705-3.79,1.23c-2.085,0.392-3.021,1.276-3.021,3.422v3.377c0,0.527,0.432,0.96,0.96,0.96h18.478
	c0.528,0,0.959-0.433,0.959-0.96v-3.377C35.992,19.51,35.057,18.625,32.972,18.233z M25.795,13.843c-1.498,0-2.71-1.213-2.71-2.708
	c0-1.496,1.212-2.709,2.71-2.709c1.495,0,2.709,1.213,2.709,2.709C28.504,12.63,27.291,13.843,25.795,13.843z"/>
<path fill="#7DC8F0" d="M59.608,75.569c0,0,2.125,0.344,2.359-0.266s0.672-3.297,0.672-3.297l-5.828-0.156
	c0,0,0.234,2.629,0.953,3.143S59.608,75.569,59.608,75.569z"/>
<path fill="#7DC8F0" d="M73.266,75.569c0,0,2.125,0.344,2.359-0.266s0.672-3.297,0.672-3.297l-5.828-0.156
	c0,0,0.234,2.629,0.953,3.143S73.266,75.569,73.266,75.569z"/>
<path fill="#009FE4" d="M57.091,72.338c0,1.455,1.182,2.637,2.637,2.637c1.451,0,2.633-1.182,2.633-2.637V57.203h-5.27V72.338z"/>
<path fill="#8C005A" d="M70.7,72.338c0,1.455,1.182,2.637,2.633,2.637c1.455,0,2.637-1.182,2.637-2.637V40.938H70.7V72.338z"/>
</svg>
