<?xml version="1.0" encoding="utf-8"?>
<!-- Generator: Adobe Illustrator 16.0.0, SVG Export Plug-In . SVG Version: 6.00 Build 0)  -->
<!DOCTYPE svg PUBLIC "-//W3C//DTD SVG 1.1//EN" "http://www.w3.org/Graphics/SVG/1.1/DTD/svg11.dtd">
<svg version="1.1" id="Lager_1" xmlns="http://www.w3.org/2000/svg" xmlns:xlink="http://www.w3.org/1999/xlink" x="0px" y="0px"
	 viewBox="0 0 82.205 82.205" enable-background="new 0 0 82.205 82.205" xml:space="preserve">
<g>
	<g>
		<path fill="#7DC8F0" d="M64.501,20.563c-0.07-0.016-0.07-0.016-0.07-0.016c-0.081-0.004-1.423-0.008-2.982-0.008h-3.444
			c-1.56,0-2.931,0.008-3.047,0.018c0,0,0,0-0.098,0.03c-0.424,0.132-0.73,0.526-0.73,0.994c0,0.457,0.298,0.849,0.709,0.985
			c0.105,0.035,0.105,0.035,0.105,0.035c0.124,0.011,0.275,0.02,0.337,0.02s0.111,0.052,0.111,0.116c0,0,0,0,0,0.135
			c0,6.045,0,44.565,0,49.465c0,2.395,1.94,4.336,4.335,4.336c2.393,0,4.333-1.941,4.333-4.336c0-6.986,0-44.054,0-49.51
			c0-0.073,0-0.073,0-0.073c0-0.073,0.051-0.133,0.112-0.133c0.061,0,0.168-0.002,0.237-0.006c0,0,0,0,0.062-0.012
			c0.484-0.088,0.852-0.512,0.852-1.022C65.322,21.081,64.971,20.663,64.501,20.563z M62.361,69.503c0,1.56-0.521,3.999-1.159,5.422
			c0,0-0.022,0.05-1.476,0.05c-1.454,0-1.477-0.051-1.477-0.051c-0.638-1.422-1.16-3.861-1.16-5.421v-9.465
			c0-1.56,1.187-2.835,2.636-2.835s2.636,1.275,2.636,2.835V69.503z"/>
	</g>
</g>
<g>
	<g>
		<path fill="#7DC8F0" d="M78.109,20.563c-0.072-0.016-0.072-0.016-0.072-0.016c-0.08-0.004-1.422-0.008-2.981-0.008h-3.443
			c-1.56,0-2.931,0.008-3.048,0.018c0,0,0,0-0.096,0.03c-0.425,0.132-0.732,0.526-0.732,0.994c0,0.457,0.297,0.849,0.711,0.985
			c0.104,0.035,0.104,0.035,0.104,0.035c0.125,0.011,0.276,0.02,0.338,0.02S69,22.674,69,22.738c0,0,0,0,0,0.135
			c0,6.045,0,44.565,0,49.465c0,2.395,1.939,4.336,4.334,4.336c2.394,0,4.333-1.941,4.333-4.336c0-6.986,0-44.054,0-49.51
			c0-0.073,0-0.073,0-0.073c0-0.073,0.051-0.133,0.112-0.133c0.061,0,0.168-0.002,0.238-0.006c0,0,0,0,0.06-0.012
			c0.485-0.088,0.854-0.512,0.854-1.022C78.931,21.081,78.578,20.663,78.109,20.563z M75.97,69.503c0,1.56-0.522,3.999-1.16,5.421
			c0,0-0.022,0.051-1.476,0.051c-1.454,0-1.477-0.05-1.477-0.05c-0.638-1.423-1.159-3.862-1.159-5.422v-25.73
			c0-1.56,1.187-2.835,2.636-2.835s2.636,1.275,2.636,2.835V69.503z"/>
	</g>
</g>
<path fill="#E6007E" d="M46.471,20.516H35.876c0.076,0.334,0.115,0.711,0.115,1.139v3.377c0,0.527-0.432,0.96-0.96,0.96H16.555
	c-0.528,0-0.959-0.433-0.959-0.96v-3.377c0-0.428,0.038-0.805,0.115-1.139H5.193c-1.056,0-1.919,0.864-1.919,1.92V74.73
	c0,1.055,0.864,1.918,1.919,1.918h41.278c1.056,0,1.92-0.863,1.92-1.918V22.436C48.391,21.38,47.526,20.516,46.471,20.516z"/>
<path fill="#FFFFFF" d="M44.552,23.715h-8.561v1.316c0,0.527-0.432,0.96-0.96,0.96H16.555c-0.528,0-0.959-0.433-0.959-0.96v-1.316
	H7.112c-0.353,0-0.64,0.288-0.64,0.64v48.456c0,0.352,0.287,0.639,0.64,0.639h37.439c0.352,0,0.64-0.287,0.64-0.639V24.355
	C45.191,24.003,44.903,23.715,44.552,23.715z"/>
<g>
	<path fill="#009FE4" d="M18.053,42.125h-3.519c-0.842,0-1.527-0.686-1.527-1.529v-3.518c0-0.84,0.686-1.527,1.527-1.527h3.519
		c0.842,0,1.527,0.688,1.527,1.527v3.518C19.58,41.439,18.895,42.125,18.053,42.125z M14.534,36.906
		c-0.095,0-0.173,0.076-0.173,0.172v3.518c0,0.096,0.078,0.176,0.173,0.176h3.519c0.095,0,0.172-0.08,0.172-0.176v-3.518
		c0-0.096-0.077-0.172-0.172-0.172H14.534z"/>
</g>
<g>
	<path fill="#009FE4" d="M37.91,39.436H23.239c-0.374,0-0.677-0.303-0.677-0.678s0.304-0.678,0.677-0.678H37.91
		c0.375,0,0.678,0.303,0.678,0.678S38.285,39.436,37.91,39.436z"/>
</g>
<g>
	<path fill="#009FE4" d="M18.053,52.072h-3.519c-0.842,0-1.527-0.686-1.527-1.527v-3.52c0-0.842,0.686-1.525,1.527-1.525h3.519
		c0.842,0,1.527,0.684,1.527,1.525v3.52C19.58,51.387,18.895,52.072,18.053,52.072z M14.534,46.854
		c-0.095,0-0.173,0.078-0.173,0.172v3.52c0,0.096,0.078,0.172,0.173,0.172h3.519c0.095,0,0.172-0.076,0.172-0.172v-3.52
		c0-0.094-0.077-0.172-0.172-0.172H14.534z"/>
</g>
<g>
	<path fill="#009FE4" d="M37.91,49.381H23.239c-0.374,0-0.677-0.301-0.677-0.676c0-0.373,0.304-0.678,0.677-0.678H37.91
		c0.375,0,0.678,0.305,0.678,0.678C38.588,49.08,38.285,49.381,37.91,49.381z"/>
</g>
<g>
	<path fill="#009FE4" d="M18.053,62.02h-3.519c-0.842,0-1.527-0.686-1.527-1.527v-3.518c0-0.844,0.686-1.529,1.527-1.529h3.519
		c0.842,0,1.527,0.686,1.527,1.529v3.518C19.58,61.334,18.895,62.02,18.053,62.02z M14.534,56.799c-0.095,0-0.173,0.08-0.173,0.176
		v3.518c0,0.096,0.078,0.172,0.173,0.172h3.519c0.095,0,0.172-0.076,0.172-0.172v-3.518c0-0.096-0.077-0.176-0.172-0.176H14.534z"/>
</g>
<g>
	<path fill="#009FE4" d="M37.91,59.33H23.239c-0.374,0-0.677-0.303-0.677-0.678c0-0.373,0.304-0.676,0.677-0.676H37.91
		c0.375,0,0.678,0.303,0.678,0.676C38.588,59.027,38.285,59.33,37.91,59.33z"/>
</g>
<path fill="#FFB900" d="M32.97,18.233c-2.799-0.525-3.396-0.512-3.79-1.23c-0.25-0.459-0.177-0.955,0.104-1.385
	c0.016-0.025,0.229-0.292,0.25-0.313c0.971-0.983,1.607-2.059,1.8-3.336c0.041-0.272,0.063-0.551,0.063-0.835
	c0-3.096-2.508-5.604-5.604-5.604c-3.094,0-5.604,2.508-5.604,5.604c0,0.284,0.022,0.563,0.063,0.835
	c0.193,1.277,0.829,2.353,1.8,3.336c0.021,0.021,0.234,0.287,0.25,0.313c0.28,0.43,0.354,0.926,0.104,1.385
	c-0.394,0.719-0.992,0.705-3.79,1.23c-2.087,0.392-3.021,1.276-3.021,3.422v3.377c0,0.527,0.431,0.96,0.959,0.96h18.477
	c0.528,0,0.96-0.433,0.96-0.96v-3.377C35.991,19.509,35.056,18.625,32.97,18.233z M25.792,13.842c-1.496,0-2.708-1.213-2.708-2.708
	c0-1.496,1.213-2.709,2.708-2.709c1.496,0,2.709,1.213,2.709,2.709C28.501,12.629,27.289,13.842,25.792,13.842z"/>
<path fill="#7DC8F0" d="M59.544,75.665c0,0,2.125,0.344,2.359-0.266s0.672-3.297,0.672-3.297l-5.828-0.156
	c0,0,0.234,2.629,0.953,3.143S59.544,75.665,59.544,75.665z"/>
<path fill="#7DC8F0" d="M73.201,75.665c0,0,2.125,0.344,2.359-0.266s0.672-3.297,0.672-3.297l-5.828-0.156
	c0,0,0.234,2.629,0.953,3.143S73.201,75.665,73.201,75.665z"/>
<path fill="#009FE4" d="M57.09,72.338c0,1.455,1.183,2.637,2.637,2.637c1.453,0,2.635-1.182,2.635-2.637V57.203H57.09V72.338z"/>
<path fill="#E6007E" d="M70.698,72.338c0,1.455,1.182,2.637,2.636,2.637c1.453,0,2.636-1.182,2.636-2.637v-31.4h-5.271V72.338z"/>
</svg>
