<?xml version="1.0" encoding="utf-8"?>
<!-- Generator: Adobe Illustrator 16.0.0, SVG Export Plug-In . SVG Version: 6.00 Build 0)  -->
<!DOCTYPE svg PUBLIC "-//W3C//DTD SVG 1.1//EN" "http://www.w3.org/Graphics/SVG/1.1/DTD/svg11.dtd">
<svg version="1.1" id="Lager_1" xmlns="http://www.w3.org/2000/svg" xmlns:xlink="http://www.w3.org/1999/xlink" x="0px" y="0px"
	 viewBox="0 0 96.378 96.378" enable-background="new 0 0 96.378 96.378" xml:space="preserve">
<g>
	<path fill="#C8E6FA" d="M76.232,21.692c0.035-0.278,0.029-0.563,0.029-0.852c0-7.048-5.719-12.768-12.773-12.768
		c-2.07,0-3.961,0.628-5.748,1.38c-1.736,0.727-2.57-0.001-3.016-0.508C51.109,4.824,45.8,2.216,39.886,2.217
		c-10.904,0-19.745,8.84-19.745,19.747c0,0.871,0.071,1.729,0.173,2.575c0.255,2.169-0.963,2.488-1.604,2.771
		c-6.302,2.771-10.703,9.07-10.703,16.396c0,9.887,8.014,17.904,17.908,17.904c9.888,0,32.085,0,42.892,0
		s19.566-8.762,19.566-19.564c0-7.5-4.223-14.013-10.42-17.296C77.289,24.4,75.923,23.933,76.232,21.692z"/>
	<g>
		<path fill="#7DC8F0" d="M34.485,66.814c0,0-3.371,5.094-5.058,8.244c-0.21,0.387-0.676,1.316-0.941,2.141
			c-0.267,0.832-0.335,1.568-0.335,1.959c0,3.504,2.833,6.338,6.334,6.338c3.491,0,6.325-2.834,6.325-6.338
			c0-0.391-0.065-1.127-0.335-1.959c-0.267-0.824-0.731-1.754-0.939-2.141C37.85,71.908,34.485,66.814,34.485,66.814L34.485,66.814z
			"/>
	</g>
	<g>
		<path fill="#7DC8F0" d="M60.111,75.479c0,0-3.369,5.096-5.053,8.244c-0.213,0.389-0.676,1.314-0.943,2.145
			c-0.27,0.828-0.336,1.566-0.336,1.959c0,3.5,2.834,6.334,6.332,6.334c3.496,0,6.328-2.834,6.328-6.334
			c0-0.393-0.064-1.131-0.334-1.959c-0.268-0.83-0.732-1.756-0.939-2.145C63.478,80.574,60.111,75.479,60.111,75.479L60.111,75.479z
			"/>
	</g>
</g>
</svg>
