<?xml version="1.0" encoding="utf-8"?>
<!-- Generator: Adobe Illustrator 16.0.0, SVG Export Plug-In . SVG Version: 6.00 Build 0)  -->
<!DOCTYPE svg PUBLIC "-//W3C//DTD SVG 1.1//EN" "http://www.w3.org/Graphics/SVG/1.1/DTD/svg11.dtd">
<svg version="1.1" id="Lager_1" xmlns="http://www.w3.org/2000/svg" xmlns:xlink="http://www.w3.org/1999/xlink" x="0px" y="0px"
	 viewBox="0 0 96.377 96.378" enable-background="new 0 0 96.377 96.378" xml:space="preserve">
<g>
	<path fill="#009FE4" d="M76.231,21.693c0.036-0.278,0.028-0.563,0.028-0.852c0-7.048-5.719-12.768-12.771-12.768
		c-2.07,0-3.961,0.628-5.75,1.38c-1.736,0.727-2.571-0.001-3.013-0.508C51.107,4.825,45.8,2.217,39.886,2.218
		c-10.906,0-19.745,8.84-19.745,19.747c0,0.871,0.071,1.729,0.169,2.575c0.258,2.169-0.958,2.488-1.6,2.771
		c-6.303,2.771-10.705,9.07-10.705,16.397c0,9.887,8.015,17.902,17.906,17.902c9.889,0,32.088,0,42.895,0
		s19.566-8.762,19.566-19.563c0-7.501-4.225-14.014-10.423-17.297C77.291,24.401,75.921,23.934,76.231,21.693z"/>
	<g>
		<path fill="#009FE4" d="M34.482,66.816c0,0-3.371,5.094-5.056,8.244c-0.211,0.387-0.675,1.314-0.94,2.139
			c-0.267,0.834-0.338,1.57-0.338,1.961c0,3.502,2.836,6.338,6.334,6.338c3.493,0,6.328-2.836,6.328-6.338
			c0-0.391-0.064-1.127-0.334-1.961c-0.268-0.824-0.732-1.752-0.941-2.139C37.85,71.91,34.482,66.816,34.482,66.816L34.482,66.816z"
			/>
	</g>
	<g>
		<path fill="#009FE4" d="M60.111,75.48c0,0-3.369,5.096-5.057,8.244c-0.209,0.389-0.673,1.313-0.939,2.145
			c-0.268,0.828-0.336,1.564-0.336,1.957c0,3.502,2.834,6.334,6.332,6.334c3.494,0,6.327-2.832,6.327-6.334
			c0-0.393-0.065-1.129-0.335-1.957c-0.268-0.832-0.73-1.756-0.94-2.145C63.478,80.576,60.111,75.48,60.111,75.48L60.111,75.48z"/>
	</g>
</g>
</svg>
