<?xml version="1.0" encoding="utf-8"?>
<!-- Generator: Adobe Illustrator 16.0.0, SVG Export Plug-In . SVG Version: 6.00 Build 0)  -->
<!DOCTYPE svg PUBLIC "-//W3C//DTD SVG 1.1//EN" "http://www.w3.org/Graphics/SVG/1.1/DTD/svg11.dtd">
<svg version="1.1" id="Lager_1" xmlns="http://www.w3.org/2000/svg" xmlns:xlink="http://www.w3.org/1999/xlink" x="0px" y="0px"
	 viewBox="0 0 96.377 96.378" enable-background="new 0 0 96.377 96.378" xml:space="preserve">
<g>
	<path fill="#7DC8F0" d="M76.229,21.693c0.04-0.278,0.033-0.563,0.033-0.852c0-7.048-5.721-12.768-12.773-12.768
		c-2.069,0-3.962,0.628-5.75,1.38c-1.736,0.727-2.572-0.001-3.015-0.508c-3.617-4.121-8.923-6.729-14.839-6.728
		c-10.904,0-19.744,8.84-19.744,19.747c0,0.871,0.071,1.729,0.169,2.575c0.259,2.169-0.959,2.488-1.599,2.771
		c-6.306,2.771-10.705,9.07-10.705,16.397c0,9.887,8.014,17.902,17.905,17.902c9.891,0,32.089,0,42.894,0
		c10.809,0,19.566-8.762,19.566-19.563c0-7.501-4.225-14.014-10.42-17.297C77.29,24.401,75.922,23.934,76.229,21.693z"/>
	<g>
		<path fill="#009FE4" d="M34.482,66.816c0,0-3.37,5.094-5.055,8.244c-0.211,0.387-0.674,1.314-0.942,2.139
			c-0.267,0.834-0.336,1.57-0.336,1.961c0,3.502,2.834,6.338,6.333,6.338c3.495,0,6.328-2.836,6.328-6.338
			c0-0.391-0.065-1.127-0.335-1.961c-0.267-0.824-0.732-1.752-0.94-2.139C37.85,71.91,34.482,66.816,34.482,66.816L34.482,66.816z"
			/>
	</g>
	<g>
		<path fill="#009FE4" d="M60.111,75.48c0,0-3.369,5.096-5.053,8.244c-0.213,0.389-0.678,1.313-0.944,2.145
			c-0.267,0.828-0.335,1.564-0.335,1.957c0,3.502,2.832,6.334,6.332,6.334c3.493,0,6.328-2.832,6.328-6.334
			c0-0.393-0.063-1.129-0.334-1.957c-0.267-0.832-0.731-1.756-0.941-2.145C63.478,80.576,60.111,75.48,60.111,75.48L60.111,75.48z"
			/>
	</g>
</g>
</svg>
