<?xml version="1.0" encoding="utf-8"?>
<!-- Generator: Adobe Illustrator 16.0.0, SVG Export Plug-In . SVG Version: 6.00 Build 0)  -->
<!DOCTYPE svg PUBLIC "-//W3C//DTD SVG 1.1//EN" "http://www.w3.org/Graphics/SVG/1.1/DTD/svg11.dtd">
<svg version="1.1" id="Lager_1" xmlns="http://www.w3.org/2000/svg" xmlns:xlink="http://www.w3.org/1999/xlink" x="0px" y="0px"
	 viewBox="0 0 65.055 65.055" enable-background="new 0 0 65.055 65.055" xml:space="preserve">
<g>
	<path fill="#E6007E" d="M32.527,20.692c15.493,0,28.101,12.606,28.101,28.101h4.432c0-17.938-14.593-32.531-32.532-32.531
		c-17.938,0-32.532,14.593-32.532,32.531h4.433C4.428,33.299,17.034,20.692,32.527,20.692"/>
	<path fill="#FFB900" d="M32.527,20.692c-15.493,0-28.1,12.606-28.1,28.101h4.432c0-13.051,10.618-23.668,23.668-23.668
		s23.667,10.617,23.667,23.668h4.434C60.628,33.299,48.021,20.692,32.527,20.692"/>
	<path fill="#B0CB0B" d="M32.527,29.559c10.606,0,19.235,8.627,19.235,19.234h4.432c0-13.051-10.617-23.668-23.667-23.668
		S8.859,35.742,8.859,48.793h4.433C13.292,38.186,21.921,29.559,32.527,29.559"/>
	<path fill="#009FE4" d="M32.527,29.559c-10.606,0-19.235,8.627-19.235,19.234h4.433c0-8.174,6.627-14.804,14.803-14.804
		s14.804,6.63,14.804,14.804h4.432C51.763,38.186,43.134,29.559,32.527,29.559"/>
</g>
</svg>
