<?xml version="1.0" encoding="utf-8"?>
<!-- Generator: Adobe Illustrator 16.0.0, SVG Export Plug-In . SVG Version: 6.00 Build 0)  -->
<!DOCTYPE svg PUBLIC "-//W3C//DTD SVG 1.1//EN" "http://www.w3.org/Graphics/SVG/1.1/DTD/svg11.dtd">
<svg version="1.1" id="Lager_1" xmlns="http://www.w3.org/2000/svg" xmlns:xlink="http://www.w3.org/1999/xlink" x="0px" y="0px"
	 viewBox="0 0 480 480" enable-background="new 0 0 480 480" xml:space="preserve">
<g>
	<g>
		<path fill="#FFB900" d="M388.935,120.292c-1.577-1.563-7.899-7.626-12.76-11.523c-6.626-5.294-13.683-9.986-20.739-14.681
			c-19.801-11.99-42.015-20.12-65.693-23.444c-3.289-0.467-13.145-1.741-24.163-1.741c-71.027,0-132.375,43.071-161.202,105.477
			c-5.857,13.083-10.768,26.585,23.236,45.894c18.353,10.409,37.011,20.828,50.726,29.384c8.541,5.322,13.279,10.453,15.085,17.378
			c4.041,1.222,27.668,8.288,32.902,9.91c8.65,2.674,10.615,6.481,10.615,16.374c0,33.581,0,157.771,0,164.141
			c0,6.376,2.181,9.781,8.096,9.781c3.184,0,8.568,0,12.657,0c6.091,0,7.544-3.914,7.544-9.283c0-9.023,0-26.752,0-37.362
			c0-10.045,5.857-16.821,21.41-23.455c23.146-9.885,82.486-36.129,102.086-44.766c31.468-13.847,43.667-36.467,49.04-55.936
			c4.73-17.148,6.571-31.266,6.571-41.65C444.346,201.88,423.061,154.144,388.935,120.292z M352.154,339.433
			c-9.769,4.647-53.236,24.015-67.549,29.673c-14.306,5.65-19.367,2.003-19.367-8.31c0-10.306,0-27.167,0-54.783
			c0-12.683,4.337-16.01,17.64-12.02c8.167,2.456,50.469,15.749,65.674,20.429C364.154,319.209,366.135,332.815,352.154,339.433z"/>
	</g>
	<g>
		<g>
			<path fill="#994916" d="M373.628,106.816c0.09,0.033,0.199,0.066,0.297,0.111c-0.075-0.067-0.159-0.133-0.242-0.215
				c-2.813-2.434-2.396-4.357-1.688-6.721c5.138-17.301-2.217-34.838-18.296-42.353c-10.806-5.047-23.064-4.095-32.59,1.586
				c-4.193,2.508-7.331,5.928-10.646,10.175c-1.561,1.986-2.884,4.465-7.299,3.609c-0.348-0.071-0.771-0.012-1.066-0.204
				c0.033,0.022,0.094,0.056,0.125,0.081c19.025,4.113,36.93,11.342,53.213,21.202C361.604,98.187,367.747,102.31,373.628,106.816z"
				/>
		</g>
		<path fill="#994916" d="M178.339,249.656c-8.655-5.397-19.282-11.539-30.559-17.948c-6.589-3.75-13.4-7.597-20.167-11.436
			c-34.004-19.308-29.094-32.81-23.236-45.894c-6.669,12.486-9.478,17.922-40.497,23.354c-15.343,2.683-26.544,5.709-32.838,8.849
			c-7.665,3.856-5.216,9.741-0.147,11.328c9.124,2.856,155.69,47.029,157.836,47.708c0,0,1.711,0.525,4.693,1.416
			C191.618,260.109,186.88,254.979,178.339,249.656z"/>
	</g>
	<path fill="#994916" d="M335.042,186.818c-0.387-0.968-1.336-1.582-2.365-1.582h-42.842l25.974-54.732
		c0.535-1.138,0.174-2.471-0.841-3.194c-1.015-0.718-2.398-0.593-3.276,0.286l-76.293,76.293c-0.731,0.73-0.947,1.826-0.552,2.779
		c0.393,0.956,1.317,1.589,2.362,1.589h47.704l-22.311,46.201c-0.551,1.111-0.197,2.476,0.833,3.195
		c0.444,0.309,0.957,0.47,1.47,0.47c0.653,0,1.309-0.263,1.816-0.742l67.765-67.784C335.225,188.87,335.441,187.77,335.042,186.818z
		"/>
</g>
</svg>
