<?xml version="1.0" encoding="utf-8"?>
<!-- Generator: Adobe Illustrator 16.0.0, SVG Export Plug-In . SVG Version: 6.00 Build 0)  -->
<!DOCTYPE svg PUBLIC "-//W3C//DTD SVG 1.1//EN" "http://www.w3.org/Graphics/SVG/1.1/DTD/svg11.dtd">
<svg version="1.1" id="Lager_1" xmlns="http://www.w3.org/2000/svg" xmlns:xlink="http://www.w3.org/1999/xlink" x="0px" y="0px"
	 viewBox="0 0 73.701 73.701" enable-background="new 0 0 73.701 73.701" xml:space="preserve">
<g>
	<g>
		<path fill="#0A4682" d="M61.104,14.679c-0.248-0.246-1.247-1.203-2.016-1.818c-1.044-0.836-2.156-1.577-3.272-2.316
			c-3.124-1.893-6.629-3.176-10.365-3.699c-0.52-0.074-2.074-0.275-3.813-0.275c-11.207,0-20.889,6.797-25.438,16.644
			c-0.926,2.065-1.699,4.196,3.666,7.243c2.896,1.643,5.843,3.287,8.007,4.637c1.348,0.84,2.094,1.65,2.379,2.742
			c0.639,0.193,4.366,1.309,5.192,1.564c1.365,0.422,1.674,1.023,1.674,2.584c0,5.299,0,24.896,0,25.902s0.346,1.543,1.28,1.543
			c0.5,0,1.352,0,1.996,0c0.962,0,1.19-0.617,1.19-1.465c0-1.424,0-4.221,0-5.896c0-1.584,0.925-2.654,3.378-3.701
			c3.653-1.559,13.017-5.701,16.112-7.064c4.963-2.184,6.89-5.754,7.737-8.826c0.745-2.705,1.036-4.934,1.036-6.572
			C69.847,27.554,66.488,20.021,61.104,14.679z M55.3,49.26c-1.543,0.732-8.403,3.789-10.659,4.682
			c-2.258,0.893-3.058,0.316-3.058-1.311s0-4.287,0-8.645c0-2.002,0.683-2.527,2.783-1.896c1.289,0.387,7.966,2.484,10.363,3.223
			C57.193,46.069,57.506,48.215,55.3,49.26z"/>
	</g>
	<g>
		<g>
			<path fill="#009FE4" d="M58.688,12.552c0.016,0.006,0.03,0.012,0.046,0.018c-0.012-0.01-0.024-0.021-0.037-0.033
				c-0.444-0.385-0.378-0.688-0.268-1.061c0.811-2.731-0.35-5.498-2.887-6.684c-1.704-0.797-3.638-0.647-5.142,0.25
				c-0.663,0.396-1.157,0.936-1.681,1.605c-0.245,0.314-0.456,0.704-1.151,0.569c-0.057-0.011-0.122-0.001-0.169-0.032
				c0.007,0.004,0.014,0.009,0.021,0.014c3.001,0.648,5.828,1.789,8.396,3.346C56.791,11.19,57.761,11.841,58.688,12.552z"/>
		</g>
		<path fill="#009FE4" d="M27.871,35.092c-1.365-0.852-3.044-1.82-4.824-2.832c-1.039-0.592-2.114-1.199-3.183-1.805
			c-5.365-3.046-4.592-5.177-3.666-7.243c-1.053,1.972-1.494,2.829-6.392,3.687c-2.421,0.423-4.188,0.9-5.18,1.396
			c-1.212,0.607-0.824,1.537-0.023,1.787c1.438,0.451,24.568,7.422,24.906,7.529c0,0,0.271,0.082,0.74,0.223
			C29.965,36.743,29.219,35.932,27.871,35.092z"/>
	</g>
	<path fill="#009FE4" d="M52.599,25.176c-0.063-0.151-0.21-0.249-0.373-0.249h-6.761l4.098-8.638
		c0.086-0.179,0.028-0.39-0.131-0.503c-0.16-0.113-0.38-0.094-0.519,0.045L36.874,27.87c-0.116,0.115-0.15,0.289-0.089,0.439
		c0.063,0.15,0.21,0.25,0.374,0.25h7.531l-3.522,7.291c-0.086,0.176-0.031,0.391,0.13,0.504c0.069,0.049,0.151,0.074,0.233,0.074
		c0.104,0,0.207-0.041,0.285-0.117l10.695-10.695C52.627,25.501,52.661,25.327,52.599,25.176z"/>
</g>
</svg>
