<?xml version="1.0" encoding="utf-8"?>
<!-- Generator: Adobe Illustrator 16.0.0, SVG Export Plug-In . SVG Version: 6.00 Build 0)  -->
<!DOCTYPE svg PUBLIC "-//W3C//DTD SVG 1.1//EN" "http://www.w3.org/Graphics/SVG/1.1/DTD/svg11.dtd">
<svg version="1.1" id="Lager_1" xmlns="http://www.w3.org/2000/svg" xmlns:xlink="http://www.w3.org/1999/xlink" x="0px" y="0px"
	 viewBox="0 0 73.701 73.701" enable-background="new 0 0 73.701 73.701" xml:space="preserve">
<g>
	<g>
		<path fill="#E6007E" d="M61.103,14.678c-0.248-0.246-1.246-1.203-2.014-1.818c-1.045-0.836-2.158-1.577-3.273-2.316
			c-3.123-1.893-6.629-3.176-10.365-3.699c-0.52-0.074-2.074-0.275-3.813-0.275c-11.208,0-20.89,6.797-25.44,16.644
			c-0.926,2.065-1.698,4.196,3.667,7.242c2.896,1.644,5.842,3.288,8.006,4.637c1.348,0.84,2.095,1.651,2.38,2.743
			c0.638,0.193,4.366,1.309,5.192,1.564c1.365,0.422,1.674,1.023,1.674,2.584c0,5.299,0,24.896,0,25.901
			c0,1.007,0.346,1.544,1.279,1.544c0.502,0,1.352,0,1.996,0c0.963,0,1.191-0.617,1.191-1.465c0-1.424,0-4.221,0-5.897
			c0-1.583,0.924-2.653,3.379-3.7c3.652-1.559,13.016-5.701,16.109-7.064c4.965-2.184,6.891-5.754,7.738-8.827
			c0.746-2.704,1.037-4.933,1.037-6.571C69.847,27.553,66.487,20.02,61.103,14.678z M55.298,49.26
			c-1.541,0.731-8.4,3.789-10.658,4.681c-2.258,0.893-3.057,0.317-3.057-1.31s0-4.287,0-8.645c0-2.003,0.684-2.527,2.783-1.897
			c1.289,0.387,7.965,2.485,10.363,3.224C57.192,46.069,57.505,48.215,55.298,49.26z"/>
	</g>
	<g>
		<g>
			<path fill="#009FE4" d="M58.687,12.551c0.016,0.006,0.031,0.012,0.047,0.018c-0.012-0.01-0.025-0.021-0.037-0.033
				c-0.445-0.385-0.379-0.688-0.268-1.061c0.811-2.731-0.35-5.498-2.887-6.684c-1.705-0.797-3.639-0.647-5.143,0.25
				c-0.662,0.396-1.156,0.936-1.68,1.605c-0.246,0.314-0.455,0.704-1.152,0.569c-0.055-0.011-0.121-0.001-0.168-0.032
				c0.006,0.004,0.014,0.009,0.02,0.014c3.002,0.648,5.828,1.789,8.396,3.346C56.79,11.19,57.759,11.84,58.687,12.551z"/>
		</g>
		<path fill="#009FE4" d="M27.871,35.091c-1.365-0.851-3.044-1.82-4.823-2.832c-1.041-0.592-2.115-1.198-3.183-1.805
			c-5.365-3.046-4.593-5.177-3.667-7.242c-1.053,1.972-1.495,2.829-6.391,3.687c-2.421,0.423-4.189,0.9-5.181,1.396
			c-1.211,0.607-0.824,1.537-0.023,1.787c1.439,0.45,24.568,7.422,24.906,7.529c0,0,0.271,0.082,0.741,0.223
			C29.965,36.743,29.218,35.931,27.871,35.091z"/>
	</g>
	<path fill="#009FE4" d="M52.599,25.175c-0.063-0.151-0.211-0.249-0.373-0.249h-6.762l4.1-8.638c0.084-0.179,0.027-0.39-0.133-0.503
		s-0.379-0.094-0.518,0.045L36.874,27.87c-0.115,0.115-0.15,0.289-0.088,0.439s0.209,0.25,0.373,0.25h7.529l-3.521,7.29
		c-0.086,0.177-0.031,0.392,0.131,0.505c0.07,0.049,0.152,0.074,0.232,0.074c0.104,0,0.207-0.041,0.287-0.117l10.693-10.695
		C52.626,25.5,52.661,25.327,52.599,25.175z"/>
</g>
</svg>
