<?xml version="1.0" encoding="utf-8"?>
<!-- Generator: Adobe Illustrator 16.0.0, SVG Export Plug-In . SVG Version: 6.00 Build 0)  -->
<!DOCTYPE svg PUBLIC "-//W3C//DTD SVG 1.1//EN" "http://www.w3.org/Graphics/SVG/1.1/DTD/svg11.dtd">
<svg version="1.1" id="Lager_1" xmlns="http://www.w3.org/2000/svg" xmlns:xlink="http://www.w3.org/1999/xlink" x="0px" y="0px"
	 viewBox="0 0 73.701 73.701" enable-background="new 0 0 73.701 73.701" xml:space="preserve">
<g>
	<g>
		<path fill="#8C005A" d="M61.104,14.678c-0.248-0.246-1.246-1.203-2.015-1.818c-1.045-0.836-2.156-1.577-3.272-2.316
			c-3.125-1.893-6.63-3.176-10.366-3.699c-0.519-0.074-2.073-0.275-3.813-0.275c-11.206,0-20.889,6.797-25.438,16.644
			c-0.926,2.065-1.699,4.196,3.667,7.242c2.894,1.645,5.843,3.289,8.007,4.637c1.347,0.84,2.093,1.652,2.379,2.744
			c0.638,0.193,4.364,1.309,5.191,1.564c1.366,0.422,1.675,1.023,1.675,2.584c0,5.299,0,24.895,0,25.9
			c0,1.008,0.345,1.545,1.278,1.545c0.502,0,1.353,0,1.998,0c0.962,0,1.19-0.617,1.19-1.465c0-1.424,0-4.221,0-5.898
			c0-1.582,0.925-2.652,3.378-3.699c3.653-1.559,13.016-5.701,16.111-7.064c4.964-2.184,6.889-5.754,7.737-8.828
			c0.745-2.703,1.035-4.932,1.035-6.57C69.846,27.553,66.49,20.02,61.104,14.678z M55.3,49.261c-1.542,0.73-8.402,3.789-10.659,4.68
			c-2.257,0.893-3.057,0.318-3.057-1.309s0-4.287,0-8.645c0-2.004,0.683-2.527,2.783-1.898c1.288,0.387,7.966,2.486,10.363,3.225
			C57.194,46.069,57.507,48.216,55.3,49.261z"/>
	</g>
	<g>
		<g>
			<path fill="#E6007E" d="M58.689,12.551c0.016,0.006,0.03,0.012,0.045,0.018c-0.012-0.01-0.023-0.021-0.037-0.033
				c-0.444-0.385-0.377-0.688-0.267-1.061c0.81-2.731-0.351-5.498-2.888-6.684c-1.704-0.797-3.639-0.647-5.143,0.25
				c-0.661,0.396-1.156,0.936-1.68,1.605c-0.245,0.314-0.457,0.704-1.151,0.569c-0.057-0.011-0.122-0.001-0.169-0.032
				c0.007,0.004,0.015,0.009,0.021,0.014c3,0.648,5.826,1.789,8.396,3.346C56.792,11.19,57.761,11.84,58.689,12.551z"/>
		</g>
		<path fill="#E6007E" d="M27.873,35.091c-1.365-0.85-3.044-1.82-4.824-2.832c-1.04-0.592-2.114-1.197-3.183-1.805
			c-5.366-3.045-4.593-5.176-3.667-7.242c-1.053,1.972-1.494,2.829-6.391,3.687c-2.421,0.423-4.188,0.9-5.18,1.396
			c-1.213,0.607-0.826,1.538-0.024,1.788c1.439,0.449,24.569,7.422,24.906,7.529c0,0,0.272,0.082,0.741,0.223
			C29.965,36.743,29.219,35.931,27.873,35.091z"/>
	</g>
	<path fill="#E6007E" d="M52.599,25.175c-0.063-0.151-0.209-0.249-0.373-0.249h-6.76l4.098-8.638
		c0.084-0.179,0.028-0.39-0.132-0.503s-0.379-0.094-0.519,0.045L36.875,27.87c-0.116,0.115-0.149,0.289-0.088,0.439
		c0.063,0.15,0.21,0.25,0.373,0.25h7.531l-3.522,7.29c-0.086,0.178-0.031,0.393,0.13,0.506c0.07,0.049,0.151,0.074,0.234,0.074
		c0.103,0,0.206-0.041,0.284-0.117l10.695-10.696C52.627,25.5,52.662,25.327,52.599,25.175z"/>
</g>
</svg>
