<?xml version="1.0" encoding="utf-8"?>
<!-- Generator: Adobe Illustrator 16.0.0, SVG Export Plug-In . SVG Version: 6.00 Build 0)  -->
<!DOCTYPE svg PUBLIC "-//W3C//DTD SVG 1.1//EN" "http://www.w3.org/Graphics/SVG/1.1/DTD/svg11.dtd">
<svg version="1.1" id="Lager_1" xmlns="http://www.w3.org/2000/svg" xmlns:xlink="http://www.w3.org/1999/xlink" x="0px" y="0px"
	 viewBox="0 0 800 800" enable-background="new 0 0 800 800" xml:space="preserve">
<g>
	<path fill="#7DC8F0" d="M506.741,119.927c-2.34-2.222-3.248-3.269-5.479-4.364L237.773,366.406v319.621c2.696,0,5.372,0,7.396,0
		h514.583c4.059,0,7.406-3.318,7.406-7.387V377.82c0-10.703-1.333-14.1-7.524-19.886
		C753.453,352.168,506.741,119.927,506.741,119.927z"/>
	<path fill="#0A4682" d="M237.773,366.406l263.488-250.843c-2.024-1.017-4.839-1.669-8.551-1.669H275.729
		c-6.23,0-11.088,3.535-14.327,6.033L8.5,357.223c-3.446,3.239-5.362,6.892-6.112,9.183H237.773z"/>
	<g>
		<path fill="#009FE4" d="M2.388,366.406h235.386v319.621c-2.686,0-5.371,0-7.396,0H8.362c-4.078,0-7.396-3.318-7.396-7.387V377.88
			C0.966,372.864,1.529,368.954,2.388,366.406z"/>
	</g>
	<polygon fill="#C8E6FA" points="701.14,686.105 564.76,686.105 632.951,625.578 	"/>
	<polygon fill="#C8E6FA" points="542.465,666.318 542.465,545.264 610.655,605.791 	"/>
	<polygon fill="#C8E6FA" points="564.76,525.477 701.14,525.477 632.951,586.004 	"/>
	<polygon fill="#C8E6FA" points="723.425,545.264 723.425,666.318 655.236,605.791 	"/>
	<polygon fill="#C8E6FA" points="437.91,686.105 301.52,686.105 369.72,625.578 	"/>
	<polygon fill="#C8E6FA" points="301.52,525.477 437.91,525.477 369.72,586.004 	"/>
	<polygon fill="#C8E6FA" points="460.205,545.264 460.205,666.318 392.005,605.791 	"/>
	<polygon fill="#C8E6FA" points="279.274,666.318 279.274,545.264 347.424,605.791 	"/>
	<path fill="#0A4682" d="M547.995,381.237c22.75-19.768,52.45-31.755,84.956-31.755c32.505,0,62.195,11.987,84.955,31.755
		c1.886,1.639,3.732,3.318,5.52,5.075v139.165h-180.96V386.312C544.252,384.555,546.099,382.876,547.995,381.237z"/>
	<path fill="#0A4682" d="M284.784,381.237c22.73-19.768,52.431-31.755,84.936-31.755s62.207,11.987,84.965,31.755
		c1.887,1.639,3.723,3.318,5.52,5.075v139.165H279.274V386.312C281.051,384.555,282.888,382.876,284.784,381.237z"/>
	<path fill="#FFB900" d="M567.486,451.777c-7.702,6.535-16.104,10.584-25.021,12.895v60.805h147.922
		c0.228-4.227,0.355-8.67,0.188-13.607c-1.273-37.975,1.057-55.471,10.713-69.848c8.778-12.896,6.576-10.211,15.562,0.02
		c8.008,9.084,13.952,12.184,20.894,19.471c7.801,8.137,10.437,12.48,9.716,18.307c-0.73,5.807,2.281,10.922,8.817,14.871
		c4.75,2.863,12.926,5.746,21.427,0.395c12.797-8.037,17.704-14.338,14.308-32.525c-2.301-12.422-3.782-21.309-6.3-34.303
		c-0.671-3.811-1.412-8.096-2.152-12.5c-2.419-1.205-4.345-3.377-5.104-6.338c-1.077-4.168-2.567-12.975-4.02-28.971
		c-1.026-11.256,6.665-14.672,9.717-17.654l0.01,0.02c0.602-0.514,1.224-1.027,1.876-1.56c6.033-5.036,13.773-9.044,12.935-14.851
		c-0.829-5.806-8.215-2.982-21.437-1.086c-3.367,0.494-6.655,0.928-9.953,1.323c0.021,0,0.05,0.02,0.069,0.02
		c0,0-0.227,0.02-0.642,0.04c-0.75,0.099-1.501,0.178-2.251,0.257c-4.532,0.632-13.291,2.488-18.1,7.998
		c-6.675,7.623-11.71,11.217-29.444,10.506c-17.753-0.731-19.105,2.093-31.527,11.572c-8.867,6.734-18.632,10.17-31.686,13.389
		c-18.474,4.542-28.782,10.92-35.408,27.588c-7.021,17.654-22.078,25.08-35.803,28.002c-8.985,1.916-12.747,3.793-14.288,4.857
		C568.167,451.164,567.832,451.461,567.486,451.777z M761.795,399.801c5.353-0.771,10.309,2.941,11.079,8.313
		c0.75,5.352-2.962,10.289-8.304,11.059c-5.353,0.791-10.309-2.941-11.069-8.293C752.732,405.508,756.444,400.551,761.795,399.801z"
		/>
	<path fill="#FFB900" d="M279.274,464.672v60.805h147.893c0.228-4.227,0.346-8.67,0.178-13.607
		c-1.283-37.975,1.066-55.471,10.704-69.848c8.797-12.896,6.586-10.211,15.591,0.02c7.987,9.084,13.952,12.184,20.894,19.471
		c7.78,8.137,10.417,12.48,9.695,18.307c-0.721,5.807,2.281,10.922,8.828,14.871c4.739,2.863,12.935,5.746,21.416,0.395
		c12.797-8.037,17.704-14.338,14.317-32.525c-2.311-12.422-3.791-21.309-6.319-34.303c-0.661-3.811-1.393-8.096-2.143-12.5
		c-2.399-1.205-4.345-3.377-5.104-6.338c-1.076-4.168-2.558-12.975-4.019-28.971c-1.027-11.256,6.675-14.672,9.716-17.654l0.01,0.02
		c0.603-0.514,1.225-1.027,1.876-1.56c6.033-5.036,13.774-9.044,12.944-14.851c-0.839-5.806-8.215-2.982-21.446-1.086
		c-3.356,0.494-6.645,0.928-9.952,1.323c0.029,0,0.059,0.02,0.078,0.02c0,0-0.227,0.02-0.632,0.04
		c-0.76,0.099-1.521,0.178-2.271,0.257c-4.532,0.632-13.28,2.488-18.109,7.998c-6.654,7.623-11.69,11.217-29.434,10.506
		c-17.734-0.731-19.097,2.093-31.528,11.572c-8.856,6.734-18.612,10.17-31.686,13.389c-18.475,4.542-28.773,10.92-35.408,27.588
		c-7.011,17.654-22.068,25.08-35.793,28.002c-8.995,1.936-12.757,3.793-14.307,4.857c-0.326,0.297-0.652,0.594-1.007,0.91
		C296.563,458.313,288.18,462.361,279.274,464.672z M498.576,399.801c5.352-0.771,10.308,2.941,11.068,8.313
		c0.771,5.352-2.952,10.289-8.294,11.059c-5.361,0.791-10.318-2.941-11.079-8.293C489.511,405.508,493.224,400.551,498.576,399.801z
		"/>
	<path fill="#994916" d="M753.501,410.879c0.761,5.352,5.717,9.084,11.069,8.293c5.342-0.77,9.054-5.707,8.304-11.059
		c-0.771-5.371-5.727-9.084-11.079-8.313C756.444,400.551,752.732,405.508,753.501,410.879z"/>
	<path fill="#994916" d="M784.151,362.792c-3.052,2.982-10.743,6.398-9.717,17.654c1.452,15.997,2.942,24.803,4.02,28.971
		c1.55,6.082,8.116,9.004,13.557,6.418c5.332-2.488,8.649-9.342,4.72-19.473C792.208,384.772,784.151,362.792,784.151,362.792z"/>
	<path fill="#994916" d="M767.651,346.658c0,0-14.317,0.652-20.992,8.294c-6.675,7.623-11.71,11.217-29.444,10.506
		c-17.753-0.731-19.105,2.093-31.527,11.572c-8.867,6.734-18.632,10.17-31.686,13.389c-18.474,4.542-28.782,10.92-35.408,27.588
		c-7.021,17.654-22.078,25.08-35.803,28.002c-13.725,2.943-15.305,5.768-15.305,5.768s-3.012-2.488-0.178-9.639
		c2.844-7.129,12.698-20.912,19.432-31.715c6.764-10.781,16.825-25.198,32.456-40.127c12.944-12.323,30.264-22.829,48.451-28.259
		c18.179-5.431,40.938-8.492,56.934-5.865C740.586,338.798,758.972,343.696,767.651,346.658z"/>
	<path fill="#994916" d="M490.271,410.879c0.761,5.352,5.718,9.084,11.079,8.293c5.342-0.77,9.064-5.707,8.294-11.059
		c-0.761-5.371-5.717-9.084-11.068-8.313C493.224,400.551,489.511,405.508,490.271,410.879z"/>
	<path fill="#994916" d="M520.92,362.792c-3.041,2.982-10.743,6.398-9.716,17.654c1.461,15.997,2.942,24.803,4.019,28.971
		c1.56,6.082,8.116,9.004,13.566,6.418c5.313-2.488,8.649-9.342,4.72-19.473C529.007,384.772,520.92,362.792,520.92,362.792z"/>
	<path fill="#994916" d="M504.43,346.658c0,0-14.316,0.652-21.012,8.294c-6.654,7.623-11.69,11.217-29.434,10.506
		c-17.734-0.731-19.097,2.093-31.528,11.572c-8.856,6.734-18.612,10.17-31.686,13.389c-18.475,4.542-28.773,10.92-35.408,27.588
		c-7.011,17.654-22.068,25.08-35.793,28.002c-13.734,2.943-15.314,5.768-15.314,5.768s-3.011-2.488-0.178-9.639
		c2.844-7.129,12.698-20.912,19.452-31.715c6.744-10.781,16.806-25.198,32.446-40.127c12.935-12.323,30.264-22.829,48.452-28.259
		c18.168-5.431,40.928-8.492,56.923-5.865C477.356,338.798,495.742,343.696,504.43,346.658z"/>
</g>
</svg>
