<?xml version="1.0" encoding="utf-8"?>
<!-- Generator: Adobe Illustrator 16.0.0, SVG Export Plug-In . SVG Version: 6.00 Build 0)  -->
<!DOCTYPE svg PUBLIC "-//W3C//DTD SVG 1.1//EN" "http://www.w3.org/Graphics/SVG/1.1/DTD/svg11.dtd">
<svg version="1.1" id="Lager_1" xmlns="http://www.w3.org/2000/svg" xmlns:xlink="http://www.w3.org/1999/xlink" x="0px" y="0px"
	 viewBox="0 0 62.362 62.362" enable-background="new 0 0 62.362 62.362" xml:space="preserve">
<g>
	<path fill="#009FE4" d="M42.674,22.34c1.9-3.018,5.043-7.122,5.043-11.847c0-3.604-1.971-6.43-2.906-7.568
		c-0.291-0.354-0.621-0.33-0.877,0.062c-1.563,2.391-7.449,11.397-12.188,18.619c2.709,4.128,4.988,7.589,5.766,8.742
		C39.262,27.667,41.268,24.572,42.674,22.34z"/>
	<g>
		<path fill="#009FE4" d="M28.516,37.693l-0.043-0.063c-1.075-1.59-2.333-3.502-3.608-5.461c-0.804,1.742-0.682,3.471-0.682,4.443
			c0,1.158,0,1.248,0,3.477c0,1.352-0.23,1.932-0.79,1.932c-0.335,0-0.658-0.225-0.929-0.34c-0.497-0.211-1.085-0.434-1.367-0.52
			c-0.806-0.223-1.653-0.344-2.531-0.344c-5.208,0-9.434,4.223-9.434,9.434s4.226,9.436,9.434,9.436
			c5.214,0,9.438-4.225,9.438-9.436c0-0.182-0.006-0.361-0.016-0.539c0-1.232,0-4.416,0-7.836c0-1.162,0.623-2.178,1.553-2.736
			c-0.078-0.08-0.152-0.168-0.223-0.27C29.065,38.505,28.797,38.111,28.516,37.693z M18.566,54.791
			c-2.506,0-4.538-2.033-4.538-4.539s2.032-4.539,4.538-4.539c2.507,0,4.539,2.033,4.539,4.539S21.073,54.791,18.566,54.791z"/>
		<path fill="#009FE4" d="M43.795,40.818c-0.877,0-1.725,0.121-2.531,0.344c-0.402,0.113-0.826,0.271-1.074,0.381
			c-0.299,0.129-0.613,0.336-0.961,0.451c-0.748,0.156-1.051-0.359-1.051-1.904c0-2.229,0-2.318,0-3.477
			c0-1.16,0.18-3.387-1.246-5.438C35.665,29.353,21.751,8.069,18.645,3.317c-0.392-0.601-0.858-0.691-1.217-0.239
			c-0.975,1.225-2.783,3.963-2.783,7.415c0,4.725,2.839,8.337,4.739,11.354c1.945,3.089,6.727,10.597,9.875,15.253
			c0.295,0.436,0.641,0.945,0.904,1.324c0.195,0.281,0.271,0.336,0.59,0.291c0.119-0.018,0.305-0.031,0.43-0.031
			c1.762,0,3.191,1.43,3.191,3.191c0,3.42,0,6.604,0,7.836c-0.01,0.178-0.016,0.357-0.016,0.539c0,5.211,4.225,9.436,9.438,9.436
			c5.209,0,9.434-4.225,9.434-9.436S49.004,40.818,43.795,40.818z M43.795,54.791c-2.506,0-4.539-2.033-4.539-4.539
			s2.033-4.539,4.539-4.539s4.539,2.033,4.539,4.539S46.301,54.791,43.795,54.791z"/>
	</g>
	<circle fill="#FFB900" cx="31.182" cy="31.228" r="2.27"/>
</g>
</svg>
