<?xml version="1.0" encoding="utf-8"?>
<!-- Generator: Adobe Illustrator 16.0.0, SVG Export Plug-In . SVG Version: 6.00 Build 0)  -->
<!DOCTYPE svg PUBLIC "-//W3C//DTD SVG 1.1//EN" "http://www.w3.org/Graphics/SVG/1.1/DTD/svg11.dtd">
<svg version="1.1" id="Lager_1" xmlns="http://www.w3.org/2000/svg" xmlns:xlink="http://www.w3.org/1999/xlink" x="0px" y="0px"
	 viewBox="0 0 62.362 62.362" enable-background="new 0 0 62.362 62.362" xml:space="preserve">
<g>
	<path fill="#E6007E" d="M42.932,21.644c1.9-3.018,5.043-7.122,5.043-11.847c0-3.604-1.971-6.43-2.906-7.568
		c-0.291-0.354-0.621-0.33-0.877,0.062c-1.563,2.391-7.449,11.397-12.188,18.619c2.709,4.129,4.988,7.59,5.766,8.741
		C39.52,26.972,41.526,23.875,42.932,21.644z"/>
	<g>
		<path fill="#E6007E" d="M28.774,36.998l-0.043-0.063c-1.074-1.59-2.334-3.503-3.608-5.462c-0.804,1.743-0.682,3.471-0.682,4.443
			c0,1.159,0,1.248,0,3.478c0,1.352-0.23,1.931-0.79,1.931c-0.335,0-0.658-0.224-0.93-0.339c-0.497-0.212-1.084-0.434-1.366-0.52
			c-0.806-0.223-1.653-0.345-2.531-0.345c-5.209,0-9.434,4.224-9.434,9.435s4.225,9.436,9.434,9.436
			c5.214,0,9.438-4.225,9.438-9.436c0-0.182-0.006-0.361-0.016-0.54c0-1.232,0-4.415,0-7.835c0-1.162,0.623-2.178,1.553-2.736
			c-0.078-0.081-0.152-0.169-0.223-0.271C29.323,37.81,29.055,37.415,28.774,36.998z M18.824,54.094
			c-2.506,0-4.538-2.032-4.538-4.538c0-2.507,2.032-4.539,4.538-4.539c2.507,0,4.539,2.032,4.539,4.539
			C23.363,52.062,21.331,54.094,18.824,54.094z"/>
		<path fill="#E6007E" d="M44.053,40.122c-0.877,0-1.725,0.122-2.531,0.345c-0.402,0.113-0.826,0.271-1.074,0.38
			c-0.299,0.13-0.613,0.337-0.961,0.452c-0.748,0.156-1.051-0.359-1.051-1.904c0-2.229,0-2.318,0-3.478s0.18-3.387-1.246-5.438
			C35.922,28.658,22.008,7.374,18.902,2.622c-0.392-0.601-0.858-0.691-1.217-0.239c-0.975,1.225-2.783,3.963-2.783,7.415
			c0,4.725,2.839,8.337,4.738,11.354c1.945,3.09,6.728,10.597,9.875,15.254c0.295,0.436,0.639,0.945,0.904,1.324
			c0.195,0.28,0.271,0.335,0.59,0.29c0.119-0.017,0.305-0.031,0.43-0.031c1.762,0,3.191,1.43,3.191,3.192c0,3.42,0,6.603,0,7.835
			c-0.01,0.179-0.016,0.358-0.016,0.54c0,5.211,4.225,9.436,9.438,9.436c5.209,0,9.434-4.225,9.434-9.436
			S49.262,40.122,44.053,40.122z M44.053,54.094c-2.506,0-4.539-2.032-4.539-4.538c0-2.507,2.033-4.539,4.539-4.539
			s4.539,2.032,4.539,4.539C48.592,52.062,46.559,54.094,44.053,54.094z"/>
	</g>
	<circle fill="#FFB900" cx="31.439" cy="30.533" r="2.269"/>
</g>
</svg>
