<?xml version="1.0" encoding="utf-8"?>
<!-- Generator: Adobe Illustrator 16.0.0, SVG Export Plug-In . SVG Version: 6.00 Build 0)  -->
<!DOCTYPE svg PUBLIC "-//W3C//DTD SVG 1.1//EN" "http://www.w3.org/Graphics/SVG/1.1/DTD/svg11.dtd">
<svg version="1.1" id="Lager_1" xmlns="http://www.w3.org/2000/svg" xmlns:xlink="http://www.w3.org/1999/xlink" x="0px" y="0px"
	 viewBox="0 0 62.362 62.362" enable-background="new 0 0 62.362 62.362" xml:space="preserve">
<g>
	<path fill="#FFB900" d="M42.674,22.339c1.9-3.018,5.043-7.123,5.043-11.847c0-3.604-1.971-6.43-2.906-7.568
		c-0.291-0.354-0.621-0.33-0.877,0.062c-1.563,2.391-7.449,11.397-12.188,18.619c2.709,4.129,4.988,7.59,5.766,8.741
		C39.262,27.667,41.268,24.57,42.674,22.339z"/>
	<g>
		<path fill="#FFB900" d="M28.516,37.693l-0.043-0.063c-1.074-1.59-2.334-3.504-3.608-5.463c-0.804,1.744-0.683,3.471-0.683,4.443
			c0,1.16,0,1.248,0,3.479c0,1.352-0.229,1.93-0.789,1.93c-0.335,0-0.658-0.223-0.93-0.338c-0.497-0.213-1.084-0.434-1.366-0.52
			c-0.806-0.223-1.654-0.346-2.531-0.346c-5.209,0-9.434,4.225-9.434,9.436s4.225,9.436,9.434,9.436
			c5.214,0,9.438-4.225,9.438-9.436c0-0.182-0.006-0.361-0.016-0.541c0-1.232,0-4.414,0-7.834c0-1.162,0.623-2.178,1.553-2.736
			c-0.078-0.082-0.152-0.17-0.223-0.271C29.065,38.505,28.797,38.109,28.516,37.693z M18.566,54.789
			c-2.506,0-4.538-2.031-4.538-4.537c0-2.508,2.032-4.539,4.538-4.539c2.507,0,4.539,2.031,4.539,4.539
			C23.105,52.757,21.073,54.789,18.566,54.789z"/>
		<path fill="#FFB900" d="M43.795,40.816c-0.877,0-1.725,0.123-2.531,0.346c-0.402,0.113-0.826,0.271-1.076,0.379
			c-0.297,0.131-0.611,0.338-0.959,0.453c-0.748,0.156-1.051-0.359-1.051-1.904c0-2.23,0-2.318,0-3.479
			c0-1.158,0.18-3.387-1.248-5.438c-1.266-1.82-15.18-23.105-18.286-27.857c-0.393-0.601-0.858-0.691-1.217-0.239
			c-0.975,1.225-2.783,3.963-2.783,7.415c0,4.725,2.839,8.337,4.738,11.354c1.945,3.09,6.728,10.596,9.875,15.254
			c0.293,0.436,0.639,0.945,0.904,1.324c0.195,0.279,0.27,0.334,0.59,0.289c0.119-0.016,0.305-0.031,0.428-0.031
			c1.764,0,3.193,1.43,3.193,3.193c0,3.42,0,6.602,0,7.834c-0.01,0.18-0.016,0.359-0.016,0.541c0,5.211,4.225,9.436,9.438,9.436
			c5.209,0,9.434-4.225,9.434-9.436S49.004,40.816,43.795,40.816z M43.795,54.789c-2.506,0-4.539-2.031-4.539-4.537
			c0-2.508,2.033-4.539,4.539-4.539s4.537,2.031,4.537,4.539C48.333,52.757,46.301,54.789,43.795,54.789z"/>
	</g>
	<circle fill="#009FE4" cx="31.181" cy="31.228" r="2.269"/>
</g>
</svg>
