<?xml version="1.0" encoding="utf-8"?>
<!-- Generator: Adobe Illustrator 16.0.0, SVG Export Plug-In . SVG Version: 6.00 Build 0)  -->
<!DOCTYPE svg PUBLIC "-//W3C//DTD SVG 1.1//EN" "http://www.w3.org/Graphics/SVG/1.1/DTD/svg11.dtd">
<svg version="1.1" id="Lager_1" xmlns="http://www.w3.org/2000/svg" xmlns:xlink="http://www.w3.org/1999/xlink" x="0px" y="0px"
	 viewBox="0 0 500 500" enable-background="new 0 0 500 500" xml:space="preserve">
<g>
	<g>
		<circle fill="#B0CB0B" cx="112.146" cy="323.427" r="58.475"/>
	</g>
	<g>
		<circle fill="#FFFFFF" cx="112.142" cy="323.432" r="29.237"/>
	</g>
	<g>
		<path fill="#009FE4" d="M17.999,210.577c0,0,39.301-3.451,41.934-3.885c2.628-0.443,3.574-2.313,3.574-4.374
			c0-1.143,0-16.445,0-33.265c0-4.603-0.855-7.335-2.76-9.264c-2.866-2.907-8.41-2.358-12.066-2.358
			c-1.883,0-2.989-0.667-2.989-2.984c0-1.143,0-11.742,0-15.627c0-2.545,1.106-3.697,4.433-3.697
			c20.151,0,33.726,7.011,33.726,30.618c0,8.085,0,8.99,0,17.144c0,9.301,0,16.59,0,17.176c0,1.687-0.21,4.131,3.538,3.94
			c3.748-0.197,55.404-4.096,55.404-4.096c4.319-0.388,5.841-1.567,5.841-6.02v-59.243c0-7.125,5.828-12.948,12.952-12.948h68.43
			c7.121,0,14.512,5.613,16.422,12.473l13.616,48.827c1.92,6.852,8.456,15.494,14.534,19.192c0,0,68.146,40.074,76.236,46.011
			c10.375,7.605,13.363,13.393,13.363,23.703c0,1.582,0,6.33,0,10.273c0,8.635,0.841,8.347,12.674,17.63
			c5.431,4.258,10.098,7.313,10.098,7.313c2.417,1.622,4.383,0.58,4.383-1.789V225.59c0-2.376,1.946-4.31,4.318-4.31h5.037
			c2.376,0,5.507,1.526,6.961,3.4l86.491,111.2c1.454,1.864,0.704,3.401-1.667,3.401h-92.873c-4.872,0-7.774-0.394-11.313-3.055
			c-3.541-2.658-13.815-9.41-20.247-14.487c-7.979-6.302-11.463-6.595-13.532-14.461c-3.954-15.005-9.617-21.998-10.792-23.565
			c-12.07-16.006-31.226-26.377-52.775-26.377c-1.33,0-2.641,0.055-3.953,0.133c-9.301,0.555-18.086,3.036-25.96,7.053
			c-21.45,10.946-36.181,33.232-36.181,58.909c0,1.946,0.091,3.867,0.26,5.767c0.115,1.304-0.145,3.857-3.145,3.857
			c-7.961,0-24.703,0-24.703,0c-3.441,0-7.948,0-12.487,0c-5.278,0-6.549-3.284-6.549-9.62c0-36.44-29.645-66.095-66.084-66.095
			c-36.45,0-66.094,29.654-66.094,66.095c0,5.385-2.912,7.419-10.316,3.158l-19.416-11.198c-6.17-3.551-11.211-8.651-11.211-19.405
			v-71.273C5.11,217.597,10.91,211.234,17.999,210.577z"/>
	</g>
	<circle fill="#B0CB0B" cx="290.954" cy="323.427" r="58.475"/>
	<g>
		<circle fill="#FFFFFF" cx="290.954" cy="323.432" r="29.232"/>
	</g>
	<g>
		<path fill="#FFFFFF" d="M252.104,211.861c0.824,3.459-1.411,6.293-4.962,6.293h-78.81c-3.556,0-6.472-2.916-6.472-6.477v-70.034
			c0-3.556,2.917-6.472,6.472-6.472h58.941c3.562,0,7.145,2.834,7.98,6.298L252.104,211.861z"/>
	</g>
</g>
</svg>
