<?xml version="1.0" encoding="utf-8"?>
<!-- Generator: Adobe Illustrator 16.0.0, SVG Export Plug-In . SVG Version: 6.00 Build 0)  -->
<!DOCTYPE svg PUBLIC "-//W3C//DTD SVG 1.1//EN" "http://www.w3.org/Graphics/SVG/1.1/DTD/svg11.dtd">
<svg version="1.1" id="Lager_1" xmlns="http://www.w3.org/2000/svg" xmlns:xlink="http://www.w3.org/1999/xlink" x="0px" y="0px"
	 viewBox="0 0 85.04 85.04" enable-background="new 0 0 85.04 85.04" xml:space="preserve">
<g>
	<g>
		<path fill="#FFCB00" d="M36.418,74.923c-0.026,0.001-0.042,0.003-0.042,0.003L36.418,74.923z"/>
		<g>
			<path fill="#994916" d="M57.413,70.434c-10.974,0-24.747,0-28.636,0c-2.211,0-3.068,0.627-4.086,1.875l-1.703,2.077
				c11.727-0.528,29.611-1.364,40.98-1.9C62.109,71.194,59.85,70.434,57.413,70.434z"/>
		</g>
	</g>
	<path fill="#FFE57E" d="M11.442,65.26L36.861,3.715c0,0,0.508-1.231,0.924-2.232c0.346-0.83,0.96-0.713,1.418-0.602
		c0.65,0.159,1.619,0.684,3.137,1.725c5.35,3.668,17.529,11.662,26.234,28.748c6.086,11.942,7.095,23.964,5.719,32.694
		c-0.229,1.457-1.324,2.168-2.696,2.168s-28.742,0-28.742,0c-1.149,0-1.462-0.734-1.196-1.868c0.945-4.03,4.398-20.151,2.812-34.619
		c-1.433-13.077-4.035-21.702-5.548-25.754c-0.097-0.261-0.156-0.384-0.24-0.609c-0.147-0.397-0.633-0.382-0.633,0.227
		c0,6.934,0,61.573,0,61.573c0,0.577-0.472,1.051-1.049,1.051H12.054C11.478,66.215,11.202,65.786,11.442,65.26z"/>
	<path fill="#FFB900" d="M11.908,74.863l-1.729,0.061c-0.026,0.001-0.043,0.003-0.043,0.003c-0.972,0.031-1.603,0.838-1.399,1.789
		c0,0,0.348,1.738,0.667,3.348c0.617,3.127,2.091,4.174,6.479,4.174h43.043c6.321,0,9.422-0.844,13.135-4.521
		c2.31-2.289,3.641-4.879,4.046-5.818c0.407-0.939,0.485-2.016-1.446-1.918C72.729,72.077,18.456,74.637,11.908,74.863z"/>
</g>
</svg>
