<?xml version="1.0" encoding="utf-8"?>
<!-- Generator: Adobe Illustrator 16.0.0, SVG Export Plug-In . SVG Version: 6.00 Build 0)  -->
<!DOCTYPE svg PUBLIC "-//W3C//DTD SVG 1.1//EN" "http://www.w3.org/Graphics/SVG/1.1/DTD/svg11.dtd">
<svg version="1.1" id="Lager_1" xmlns="http://www.w3.org/2000/svg" xmlns:xlink="http://www.w3.org/1999/xlink" x="0px" y="0px"
	 viewBox="0 0 73.701 73.701" enable-background="new 0 0 73.701 73.701" xml:space="preserve">
<g>
	<path fill="#B0CB0B" d="M39.736,17.456c3.823,1.304,10.813,2.423,15.809-0.14C60.9,14.571,65.117,6.698,66.436,4.851
		c0.45-0.63,0.09-1.215-0.722-1.486c-1.6-0.535-12.131-3.603-18.044-1.439c-7.049,2.581-8.838,9.57-10.035,11.059
		c-0.561,0.698-1.419,0.365-1.419-0.537c0-2.044,0-7.253,0-9.1c0-1.125-0.725-1.773-1.952-1.773c-1.229,0-2.056,0.625-2.056,1.639
		c0,0,0,16.868,0,19.524c0,2.42-1.406,2.91-2.846,2.077c-0.143-0.092-0.288-0.177-0.426-0.28c-2.123-1.611-4.037-2.96-7.245-2.96
		c-4.249,0-14.624,4.249-14.624,19.671c0,17.518,9.494,30.484,18.656,31.233c4.143,0.34,5.385-0.91,8.602-0.91
		c2.854,0,4.2,1.189,8.746,0.816c8.186-0.672,18.512-13.937,18.512-31.14c0-15.422-10.375-19.671-14.623-19.671
		c-3.939,0-4.777,1.186-6.938,2.748c-0.395,0.285-0.843,0.544-1.315,0.775c-1.623,0.691-2.387-0.216-2.387-2.36
		c0-2.656,0-3.668,0-3.668C36.32,17.271,37.122,16.563,39.736,17.456z"/>
	<path fill-rule="evenodd" clip-rule="evenodd" fill="#1E6E32" d="M18.603,45.205c0.803-0.238,1.57-0.521,2.362-0.691
		c1.609-0.35,3.214-0.298,4.767,0.305c1.698,0.661,2.7,1.923,3.059,3.698c0.334,1.648,0.18,3.232-0.705,4.698
		c-0.727,1.203-1.792,1.997-3.107,2.444c-1.662,0.565-3.352,0.636-5.047,0.15c-1.283-0.369-2.336-1.094-3.162-2.138
		c-1.006-1.274-1.517-2.755-1.756-4.339c-0.271-1.776-0.26-3.553,0.117-5.311c0.355-1.663,1.051-3.162,2.315-4.342
		c1.075-1.002,2.364-1.571,3.813-1.761c1.467-0.194,2.917-0.126,4.302,0.452c1.666,0.692,2.649,1.936,2.906,3.73
		c0.035,0.24,0.041,0.483,0.055,0.726c0.014,0.235-0.108,0.374-0.335,0.376c-0.878,0.008-1.756,0.005-2.634,0
		c-0.195-0.001-0.338-0.097-0.357-0.307c-0.088-0.92-0.675-1.442-1.476-1.704c-1.282-0.422-2.509-0.284-3.575,0.612
		c-0.676,0.567-1.035,1.339-1.267,2.172C18.762,44.39,18.689,44.815,18.603,45.205z M22.159,52.884
		c0.104-0.006,0.208-0.01,0.313-0.017c1.547-0.08,2.611-1.06,2.794-2.567c0.172-1.431-0.452-2.501-1.784-2.916
		c-1.672-0.521-3.276-0.219-4.814,0.541c-0.064,0.03-0.113,0.165-0.107,0.248c0.059,0.925,0.226,1.824,0.59,2.682
		C19.723,52.199,20.822,52.942,22.159,52.884z"/>
	<path fill="#1E6E32" d="M56.64,45.49c-0.001-0.405-0.182-0.588-0.583-0.589L53.892,44.9l0.001-0.751l-0.001-1.622
		c0-0.443-0.137-0.579-0.587-0.579h-1.054h-0.637c-0.423,0.001-0.561,0.139-0.561,0.566V44.9h-1.347l-0.919,0.001
		c-0.39,0-0.572,0.183-0.574,0.572c0,0.5,0,1,0,1.499c0.002,0.448,0.178,0.623,0.63,0.623h2.188c0.007,0,0.015,0,0.021,0v0.675
		c0,0.538-0.001,1.078,0,1.617c0.002,0.375,0.148,0.521,0.524,0.522l0.894,0.001l0.894-0.001c0.366-0.001,0.524-0.159,0.525-0.524
		c0.003-0.467,0.002-0.93,0.002-1.395l-0.001-0.896h1.241h0.896c0.421-0.002,0.609-0.188,0.61-0.606
		C56.64,46.491,56.64,45.989,56.64,45.49z"/>
	<path fill-rule="evenodd" clip-rule="evenodd" fill="#1E6E32" d="M31.134,46.856c0.063-2.001,0.393-3.921,1.479-5.633
		c1.541-2.429,3.827-3.467,6.629-3.305c3.629,0.211,6.07,2.458,6.816,6.216c0.479,2.421,0.371,4.829-0.455,7.182
		c-1.093,3.106-3.938,4.926-7.22,4.723c-3.988-0.245-6.284-2.875-6.95-6.519C31.273,48.643,31.23,47.746,31.134,46.856z
		 M34.814,46.881c0.006,1.461,0.162,2.889,0.92,4.184c0.719,1.229,1.813,1.812,3.218,1.77c1.403-0.042,2.479-0.713,2.983-2.013
		c0.361-0.931,0.577-1.942,0.689-2.938c0.178-1.569,0.057-3.14-0.574-4.618c-0.575-1.352-1.588-2.137-3.094-2.188
		c-1.569-0.053-2.717,0.623-3.412,2.037C34.96,44.302,34.817,45.58,34.814,46.881z"/>
</g>
</svg>
