<?xml version="1.0" encoding="utf-8"?>
<!-- Generator: Adobe Illustrator 16.0.0, SVG Export Plug-In . SVG Version: 6.00 Build 0)  -->
<!DOCTYPE svg PUBLIC "-//W3C//DTD SVG 1.1//EN" "http://www.w3.org/Graphics/SVG/1.1/DTD/svg11.dtd">
<svg version="1.1" id="Lager_1" xmlns="http://www.w3.org/2000/svg" xmlns:xlink="http://www.w3.org/1999/xlink" x="0px" y="0px"
	 viewBox="0 0 73.701 73.701" enable-background="new 0 0 73.701 73.701" xml:space="preserve">
<g>
	<path fill="#B0CB0B" d="M65.714,3.365c-1.599-0.535-12.131-3.603-18.043-1.439c-7.05,2.581-8.838,9.57-10.035,11.059
		c-0.561,0.698-1.42,0.365-1.42-0.537c0-2.044,0-7.253,0-9.1c0-1.125-0.724-1.773-1.951-1.773c-1.229,0-2.056,0.625-2.056,1.639
		c0,0,0,16.868,0,19.524c0,2.658-1.697,2.994-3.271,1.797c1.852,1.405,4.29,1.624,5.799,1.624c1.113,0,2.641-0.41,3.971-1.06
		c-1.623,0.69-2.388-0.217-2.388-2.361c0-2.656,0-3.668,0-3.668c0-1.8,0.803-2.508,3.415-1.615
		c3.825,1.304,10.814,2.423,15.811-0.14c5.356-2.745,9.572-10.618,10.891-12.464C66.885,4.221,66.527,3.636,65.714,3.365z"/>
	<path fill="#009FE4" d="M40.022,24.324c2.161-1.563,2.999-2.748,6.939-2.748c4.248,0,14.623,4.249,14.623,19.671
		c0,17.203-10.327,30.467-18.513,31.139c-4.545,0.373-5.891-0.816-8.745-0.816c-3.217,0-4.459,1.25-8.602,0.91
		C16.562,71.731,7.07,58.765,7.07,41.247c0-15.422,10.374-19.671,14.623-19.671c3.208,0,5.121,1.349,7.245,2.96
		c1.852,1.405,4.29,1.624,5.799,1.624S38.519,25.411,40.022,24.324z"/>
	<path fill-rule="evenodd" clip-rule="evenodd" fill="#0A4682" d="M18.605,45.204c0.802-0.238,1.57-0.52,2.361-0.691
		c1.609-0.35,3.214-0.297,4.766,0.305c1.699,0.662,2.701,1.924,3.059,3.699c0.334,1.648,0.181,3.232-0.704,4.697
		c-0.727,1.203-1.793,1.998-3.107,2.445c-1.662,0.564-3.352,0.635-5.047,0.15c-1.283-0.369-2.336-1.094-3.161-2.139
		c-1.008-1.273-1.518-2.754-1.758-4.338c-0.27-1.777-0.26-3.553,0.117-5.311c0.355-1.664,1.052-3.162,2.316-4.342
		c1.074-1.002,2.364-1.572,3.813-1.762c1.466-0.193,2.917-0.125,4.302,0.453c1.665,0.691,2.649,1.936,2.907,3.73
		c0.033,0.24,0.039,0.482,0.054,0.725c0.014,0.236-0.109,0.375-0.335,0.377c-0.878,0.008-1.757,0.004-2.635,0
		c-0.194-0.002-0.337-0.098-0.355-0.307c-0.089-0.92-0.676-1.443-1.477-1.705c-1.281-0.422-2.51-0.283-3.575,0.613
		c-0.676,0.566-1.035,1.338-1.267,2.172C18.763,44.39,18.69,44.815,18.605,45.204z M22.16,52.884
		c0.104-0.006,0.208-0.01,0.313-0.016c1.548-0.08,2.612-1.061,2.794-2.568c0.173-1.43-0.45-2.5-1.783-2.916
		c-1.672-0.52-3.277-0.219-4.814,0.541c-0.063,0.031-0.113,0.166-0.107,0.248c0.059,0.926,0.226,1.824,0.59,2.682
		C19.723,52.198,20.824,52.942,22.16,52.884z"/>
	<path fill="#0A4682" d="M56.64,45.489c0-0.404-0.181-0.588-0.583-0.588l-2.164-0.002l0.001-0.75l-0.001-1.623
		c0-0.443-0.138-0.578-0.587-0.578h-1.054h-0.638c-0.423,0-0.56,0.139-0.56,0.566v2.385h-1.347l-0.919,0.002
		c-0.39,0-0.572,0.182-0.574,0.572c-0.002,0.5-0.001,1,0,1.498c0.001,0.449,0.177,0.623,0.63,0.623h2.188c0.006,0,0.014,0,0.021,0
		v0.676c0,0.537,0,1.078,0,1.617c0.001,0.375,0.148,0.521,0.524,0.521l0.893,0.002l0.895-0.002c0.366,0,0.523-0.158,0.524-0.523
		c0.004-0.467,0.003-0.93,0.003-1.395l-0.001-0.896h1.241h0.896c0.422-0.002,0.61-0.188,0.61-0.605
		C56.641,46.491,56.641,45.989,56.64,45.489z"/>
	<path fill-rule="evenodd" clip-rule="evenodd" fill="#0A4682" d="M31.134,46.856c0.064-2.002,0.394-3.922,1.479-5.633
		c1.54-2.43,3.827-3.467,6.63-3.305c3.627,0.211,6.069,2.457,6.816,6.215c0.478,2.422,0.37,4.83-0.456,7.182
		c-1.094,3.107-3.939,4.926-7.22,4.723c-3.988-0.244-6.285-2.875-6.95-6.518C31.273,48.644,31.231,47.745,31.134,46.856z
		 M34.815,46.882c0.006,1.461,0.162,2.889,0.92,4.184c0.719,1.229,1.813,1.811,3.218,1.77c1.403-0.043,2.479-0.713,2.983-2.014
		c0.361-0.93,0.577-1.941,0.689-2.938c0.177-1.57,0.056-3.141-0.574-4.619c-0.575-1.352-1.588-2.137-3.095-2.188
		c-1.568-0.053-2.716,0.623-3.412,2.037C34.96,44.302,34.817,45.579,34.815,46.882z"/>
</g>
</svg>
