<?xml version="1.0" encoding="utf-8"?>
<!-- Generator: Adobe Illustrator 16.0.0, SVG Export Plug-In . SVG Version: 6.00 Build 0)  -->
<!DOCTYPE svg PUBLIC "-//W3C//DTD SVG 1.1//EN" "http://www.w3.org/Graphics/SVG/1.1/DTD/svg11.dtd">
<svg version="1.1" id="Lager_1" xmlns="http://www.w3.org/2000/svg" xmlns:xlink="http://www.w3.org/1999/xlink" x="0px" y="0px"
	 viewBox="0 0 73.701 73.701" enable-background="new 0 0 73.701 73.701" xml:space="preserve">
<g>
	<g>
		<path fill="#B0CB0B" d="M65.714,3.365c-1.599-0.535-12.131-3.603-18.043-1.439c-7.05,2.581-8.838,9.57-10.035,11.059
			c-0.561,0.698-1.42,0.365-1.42-0.537c0-2.044,0-7.253,0-9.1c0-1.125-0.724-1.773-1.951-1.773c-1.229,0-2.056,0.625-2.056,1.639
			c0,0,0,16.868,0,19.524c0,2.658-1.698,2.994-3.271,1.797c1.852,1.405,4.29,1.624,5.799,1.624c1.113,0,2.641-0.41,3.971-1.06
			c-1.623,0.69-2.388-0.217-2.388-2.361c0-2.656,0-3.668,0-3.668c0-1.8,0.803-2.508,3.415-1.615
			c3.825,1.304,10.814,2.423,15.811-0.14c5.355-2.745,9.572-10.618,10.891-12.464C66.885,4.221,66.527,3.636,65.714,3.365z"/>
	</g>
	<path fill="#FFB900" d="M40.022,24.324c2.161-1.563,2.999-2.748,6.939-2.748c4.248,0,14.623,4.249,14.623,19.671
		c0,17.203-10.327,30.468-18.513,31.14c-4.545,0.373-5.891-0.816-8.745-0.816c-3.217,0-4.459,1.25-8.602,0.91
		C16.562,71.731,7.069,58.764,7.069,41.247c0-15.422,10.375-19.671,14.624-19.671c3.208,0,5.121,1.349,7.245,2.96
		c1.852,1.405,4.29,1.624,5.799,1.624S38.519,25.411,40.022,24.324z"/>
	<path fill-rule="evenodd" clip-rule="evenodd" fill="#994916" d="M18.604,45.205c0.803-0.238,1.57-0.521,2.362-0.691
		c1.609-0.35,3.214-0.298,4.766,0.305c1.699,0.661,2.7,1.923,3.059,3.698c0.334,1.648,0.181,3.232-0.704,4.698
		c-0.727,1.203-1.793,1.997-3.107,2.444c-1.663,0.565-3.352,0.636-5.047,0.15c-1.283-0.369-2.337-1.094-3.162-2.138
		c-1.007-1.274-1.517-2.755-1.757-4.339c-0.271-1.776-0.26-3.553,0.116-5.311c0.357-1.663,1.053-3.162,2.317-4.342
		c1.074-1.002,2.363-1.571,3.813-1.761c1.466-0.194,2.917-0.126,4.302,0.452c1.665,0.692,2.649,1.936,2.906,3.73
		c0.034,0.24,0.04,0.483,0.055,0.726c0.013,0.235-0.109,0.374-0.336,0.376c-0.877,0.008-1.756,0.005-2.634,0
		c-0.194-0.001-0.338-0.097-0.356-0.307c-0.088-0.92-0.675-1.442-1.476-1.704c-1.282-0.422-2.509-0.284-3.575,0.612
		c-0.676,0.567-1.035,1.339-1.267,2.172C18.763,44.39,18.689,44.815,18.604,45.205z M22.159,52.884
		c0.104-0.006,0.209-0.01,0.313-0.017c1.548-0.08,2.612-1.06,2.794-2.567c0.173-1.431-0.45-2.501-1.784-2.916
		c-1.671-0.521-3.276-0.219-4.813,0.541c-0.064,0.03-0.113,0.165-0.108,0.248c0.06,0.925,0.227,1.824,0.591,2.682
		C19.723,52.199,20.823,52.942,22.159,52.884z"/>
	<path fill="#994916" d="M56.641,45.49c-0.001-0.405-0.182-0.588-0.584-0.589L53.893,44.9l0.001-0.751l-0.001-1.622
		c0-0.443-0.138-0.579-0.587-0.579h-1.054h-0.638c-0.423,0.001-0.56,0.139-0.56,0.566V44.9h-1.347l-0.919,0.001
		c-0.39,0-0.572,0.183-0.574,0.572c-0.002,0.5-0.001,1,0,1.499c0.001,0.448,0.177,0.623,0.63,0.623h2.188c0.007,0,0.015,0,0.022,0
		v0.675c0,0.538-0.001,1.078,0,1.617c0.001,0.375,0.148,0.521,0.523,0.522l0.894,0.001l0.895-0.001
		c0.366-0.001,0.523-0.159,0.525-0.524c0.003-0.467,0.002-0.93,0.002-1.395l-0.001-0.896h1.24h0.896
		c0.421-0.002,0.61-0.188,0.611-0.606C56.641,46.491,56.641,45.989,56.641,45.49z"/>
	<path fill-rule="evenodd" clip-rule="evenodd" fill="#994916" d="M31.133,46.856c0.065-2.001,0.395-3.921,1.48-5.633
		c1.539-2.429,3.827-3.467,6.63-3.305c3.627,0.211,6.068,2.458,6.815,6.216c0.479,2.421,0.37,4.829-0.455,7.182
		c-1.094,3.106-3.939,4.926-7.22,4.723c-3.989-0.245-6.285-2.875-6.95-6.519C31.273,48.643,31.231,47.746,31.133,46.856z
		 M34.815,46.881c0.005,1.461,0.162,2.889,0.919,4.184c0.72,1.229,1.813,1.812,3.218,1.77s2.479-0.713,2.984-2.013
		c0.361-0.931,0.577-1.942,0.689-2.938c0.177-1.569,0.056-3.14-0.574-4.618c-0.575-1.352-1.588-2.137-3.095-2.188
		c-1.569-0.053-2.717,0.623-3.412,2.037C34.96,44.302,34.817,45.58,34.815,46.881z"/>
</g>
</svg>
