<?xml version="1.0" encoding="utf-8"?>
<!-- Generator: Adobe Illustrator 16.0.0, SVG Export Plug-In . SVG Version: 6.00 Build 0)  -->
<!DOCTYPE svg PUBLIC "-//W3C//DTD SVG 1.1//EN" "http://www.w3.org/Graphics/SVG/1.1/DTD/svg11.dtd">
<svg version="1.1" id="Lager_1" xmlns="http://www.w3.org/2000/svg" xmlns:xlink="http://www.w3.org/1999/xlink" x="0px" y="0px"
	 viewBox="0 0 87.874 87.874" enable-background="new 0 0 87.874 87.874" xml:space="preserve">
<g>
	<g>
		<path fill="#B0CB0B" d="M86.268,22.155c0,0-14.974-7.327-21.745-10.095c-3.727-1.522-7.043-2.576-11.001-3.185
			c0.043,0.369,0.068,0.745,0.068,1.126c0,5.33-4.322,9.651-9.652,9.651c-5.331,0-9.651-4.321-9.651-9.651
			c0-0.381,0.023-0.757,0.066-1.126c-3.959,0.608-7.275,1.662-11.002,3.185C16.58,14.828,1.605,22.155,1.605,22.155
			c-0.585,0.288-0.848,1.011-0.579,1.608l6.654,14.816c0.268,0.594,0.985,0.891,1.595,0.654l11.785-4.546
			c0.609-0.235,1.109,0.106,1.109,0.761v42.895c0,0.654,0.534,1.188,1.187,1.188h41.16c0.653,0,1.188-0.533,1.188-1.188V35.448
			c0-0.654,0.498-0.996,1.108-0.761l11.785,4.546c0.609,0.236,1.327-0.061,1.596-0.654l6.653-14.816
			C87.115,23.166,86.854,22.443,86.268,22.155z"/>
		<path fill="#7DC8F0" d="M43.938,19.653c5.33,0,9.652-4.321,9.652-9.651c0-0.381-0.025-0.757-0.068-1.126
			c-2.763-0.425-5.839-0.634-9.584-0.634c-3.747,0-6.822,0.209-9.585,0.634c-0.043,0.369-0.066,0.745-0.066,1.126
			C34.286,15.332,38.606,19.653,43.938,19.653z"/>
	</g>
	<path fill="#009FE4" d="M58.932,38.544c0-0.004,0-0.006-0.001-0.01c-0.002-0.014-0.008-0.027-0.01-0.041
		c-0.816-3.53-3.601-6.16-7.254-6.318c-0.241-0.021-0.482-0.033-0.729-0.033c-2.793,0-5.258,1.436-6.748,3.629
		c-0.052,0.078-0.135,0.187-0.253,0.175c-0.119,0.012-0.202-0.097-0.254-0.175c-1.49-2.193-3.953-3.629-6.748-3.629
		c-0.245,0-0.487,0.012-0.727,0.033c-3.654,0.158-6.439,2.788-7.254,6.318c-0.004,0.014-0.008,0.027-0.012,0.041
		c0,0.004-0.001,0.006-0.001,0.01c-0.166,0.67-0.253,1.371-0.253,2.094c0,2.561,0.679,5.031,2.057,7.346
		c1.985,3.34,5.412,6.297,8.904,8.934c2.031,1.537,3.341,2.32,4.287,2.32c0.985,0,2.198-0.783,4.286-2.32
		c3.527-2.59,6.919-5.594,8.904-8.934c1.379-2.314,2.059-4.785,2.059-7.346C59.187,39.915,59.097,39.214,58.932,38.544z"/>
</g>
</svg>
