<?xml version="1.0" encoding="utf-8"?>
<!-- Generator: Adobe Illustrator 16.0.0, SVG Export Plug-In . SVG Version: 6.00 Build 0)  -->
<!DOCTYPE svg PUBLIC "-//W3C//DTD SVG 1.1//EN" "http://www.w3.org/Graphics/SVG/1.1/DTD/svg11.dtd">
<svg version="1.1" id="Lager_1" xmlns="http://www.w3.org/2000/svg" xmlns:xlink="http://www.w3.org/1999/xlink" x="0px" y="0px"
	 viewBox="0 0 87.874 87.874" enable-background="new 0 0 87.874 87.874" xml:space="preserve">
<g>
	<g>
		<path fill="#E6007E" d="M86.267,22.206c0,0-14.973-7.327-21.744-10.095c-3.727-1.522-7.043-2.576-11-3.185
			c0.041,0.369,0.066,0.745,0.066,1.126c0,5.33-4.322,9.651-9.652,9.651c-5.331,0-9.651-4.321-9.651-9.651
			c0-0.381,0.023-0.757,0.066-1.126c-3.959,0.608-7.275,1.662-11.002,3.185C16.58,14.878,1.606,22.206,1.606,22.206
			c-0.586,0.288-0.848,1.011-0.58,1.608L7.679,38.63c0.269,0.594,0.986,0.891,1.597,0.654l11.784-4.546
			c0.61-0.235,1.108,0.106,1.108,0.761v42.895c0,0.654,0.535,1.188,1.188,1.188h41.158c0.654,0,1.189-0.533,1.189-1.188V35.499
			c0-0.654,0.5-0.996,1.109-0.761l11.785,4.546c0.609,0.236,1.326-0.061,1.594-0.654l6.654-14.816
			C87.114,23.216,86.853,22.494,86.267,22.206z"/>
		<path fill="#F0A5C3" d="M43.937,19.704c5.33,0,9.652-4.321,9.652-9.651c0-0.381-0.025-0.757-0.066-1.126
			c-2.764-0.425-5.84-0.634-9.586-0.634c-3.747,0-6.822,0.209-9.584,0.634c-0.043,0.369-0.066,0.745-0.066,1.126
			C34.286,15.382,38.606,19.704,43.937,19.704z"/>
	</g>
	<path fill="#FFB900" d="M58.933,38.595c-0.002-0.004-0.002-0.006-0.002-0.01c-0.004-0.014-0.008-0.027-0.01-0.041
		c-0.816-3.53-3.602-6.16-7.256-6.318c-0.24-0.021-0.482-0.033-0.727-0.033c-2.795,0-5.258,1.436-6.748,3.629
		c-0.053,0.078-0.135,0.187-0.254,0.175c-0.119,0.012-0.201-0.097-0.254-0.175c-1.49-2.193-3.954-3.629-6.748-3.629
		c-0.245,0-0.487,0.012-0.728,0.033c-3.654,0.158-6.438,2.788-7.254,6.318c-0.002,0.014-0.007,0.027-0.01,0.041
		c-0.001,0.004-0.002,0.006-0.002,0.01c-0.165,0.67-0.254,1.371-0.254,2.094c0,2.561,0.681,5.031,2.057,7.346
		c1.987,3.34,5.412,6.297,8.905,8.934c2.033,1.537,3.341,2.32,4.287,2.32c0.984,0,2.199-0.783,4.287-2.32
		c3.527-2.59,6.918-5.594,8.904-8.934c1.377-2.314,2.057-4.785,2.057-7.346C59.185,39.966,59.097,39.265,58.933,38.595z"/>
</g>
</svg>
