<?xml version="1.0" encoding="utf-8"?>
<!-- Generator: Adobe Illustrator 16.0.0, SVG Export Plug-In . SVG Version: 6.00 Build 0)  -->
<!DOCTYPE svg PUBLIC "-//W3C//DTD SVG 1.1//EN" "http://www.w3.org/Graphics/SVG/1.1/DTD/svg11.dtd">
<svg version="1.1" id="Lager_1" xmlns="http://www.w3.org/2000/svg" xmlns:xlink="http://www.w3.org/1999/xlink" x="0px" y="0px"
	 viewBox="0 0 98.618 98.617" enable-background="new 0 0 98.618 98.617" xml:space="preserve">
<g>
	<path fill="#009FE4" d="M22.363,34.687c0.013-0.03,0.028-0.056,0.044-0.081l6.344-10.647c0.453-0.877,1.172-1.378,1.979-1.378
		c0.807,0,1.526,0.501,1.979,1.378l6.343,10.647c0.016,0.025,0.031,0.051,0.045,0.081c0.431,0.86,0.426,1.762-0.011,2.47
		c-0.438,0.707-1.242,1.113-2.205,1.113h-0.413c0.169-0.336,0.241-0.769,0.241-1.237c0-0.474-0.073-0.909-0.245-1.246
		c0.239-0.04,0.289-0.202,0.133-0.466c-1.148-1.926-5.417-9.084-5.552-9.317c-0.155-0.271-0.377-0.426-0.665,0.05
		c-0.244,0.405-4.294,7.205-5.479,9.197c-0.153,0.257-0.083,0.436,0.109,0.508c-0.186,0.342-0.263,0.787-0.263,1.274
		c0,0.469,0.071,0.901,0.242,1.237h-0.413c-0.964,0-1.768-0.406-2.205-1.113C21.936,36.449,21.932,35.547,22.363,34.687z"/>
	<g>
		<path fill="#009FE4" d="M30.728,21.725L30.728,21.725c-0.681,0-1.237-0.553-1.237-1.234l0,0c0-0.686,0.556-1.242,1.237-1.242l0,0
			c0.688,0,1.238,0.557,1.238,1.242C31.966,21.172,31.416,21.725,30.728,21.725z M30.728,18.403L30.728,18.403
			c-0.681,0-1.237-0.553-1.237-1.235l0,0c0-0.685,0.556-1.241,1.237-1.241l0,0c0.688,0,1.238,0.557,1.238,1.241
			C31.966,17.85,31.416,18.403,30.728,18.403z M30.728,15.083L30.728,15.083c-0.681,0-1.237-0.555-1.237-1.24l0,0
			c0-0.683,0.556-1.234,1.237-1.234l0,0c0.688,0,1.238,0.552,1.238,1.234C31.966,14.528,31.416,15.083,30.728,15.083z"/>
	</g>
	<path fill="#009FE4" d="M2.298,29.311c0-0.248,0-14.777,0-14.777c0-2.893,2.354-5.246,5.246-5.246h23.187
		c0.685,0,1.238,0.555,1.238,1.236c0,0.685-0.553,1.238-1.238,1.238H7.544c-1.528,0-2.77,1.243-2.77,2.771c0,0,0,14.461,0,14.749
		s0.181,0.429,0.27,0.47c1.196,0.565,2.027,1.781,2.027,3.193c0,0,0,23.869,0,24.103c0,0.23,0.097,0.324,0.312,0.324
		c0.207,0,70.08,0,75.159,0c0.192,0,0.293-0.059,0.293-0.289s0-10.182,0-10.182c0-1.951,1.582-3.533,3.534-3.533
		s3.536,1.582,3.536,3.533c0,0,0,25.459,0,26.029s0.336,0.627,0.508,0.619c0.103-0.002,0.209-0.006,0.313-0.006
		c4.352,0,7.891,3.543,7.891,7.893c0,4.352-3.539,7.893-7.891,7.893c-4.353,0-7.891-3.541-7.891-7.893c0,0,0-11.613,0-11.893
		s-0.137-0.408-0.371-0.408c-0.223,0-68.882,0-74.964,0c-0.281,0-0.428,0.232-0.428,0.455c0,0.172,0,2.52,0,3.533
		c0,0.355,0.24,0.441,0.361,0.436c0.153-0.01,0.306-0.016,0.46-0.016c4.351,0,7.891,3.543,7.891,7.893
		c0,4.352-3.541,7.893-7.891,7.893c-4.269,0-7.751-3.404-7.886-7.641c-0.004-0.076-0.007-0.156-0.007-0.252V32.946
		c0-1.421,0.84-2.642,2.046-3.203C2.13,29.706,2.298,29.557,2.298,29.311z"/>
	<path fill="#FFFFFF" d="M90.726,85.795c2.401,0,4.355-1.955,4.355-4.357s-1.954-4.355-4.355-4.355
		c-2.402,0-4.356,1.953-4.356,4.355S88.324,85.795,90.726,85.795z"/>
	<path fill="#FFFFFF" d="M7.894,85.795c2.402,0,4.356-1.955,4.356-4.357s-1.954-4.355-4.356-4.355c-2.402,0-4.358,1.953-4.358,4.355
		S5.491,85.795,7.894,85.795z"/>
	<g>
		<path fill="#FFE57E" d="M25.283,57.373v-7.051v-0.15c0-0.555,0.45-1.006,1.002-1.006h9.904c0.55,0,1,0.451,1,1.006v0.133v7.068
			C33.012,57.373,28.972,57.373,25.283,57.373z"/>
		<path fill="#FFB900" d="M82.542,57.373c-2.819,0-25.604,0-45.353,0v-7.068h42.126c1.836,0,3.344,1.396,3.52,3.186
			c0,1.904,0,3.502,0,3.594C82.835,57.314,82.735,57.373,82.542,57.373z"/>
		<path fill="#FFE57E" d="M7.383,57.373c-0.215,0-0.312-0.094-0.312-0.324c0-0.078,0-2.855,0-6.496
			c1.815-1.563,5.277-2.52,9.092-2.52c4.02,0,7.614,1.145,9.027,2.211c0.032,0.023,0.061,0.053,0.093,0.078v7.051
			C14.994,57.373,7.452,57.373,7.383,57.373z"/>
	</g>
	<g>
		<path fill="#E6007E" d="M26.194,38.975h9.074c1.074,0,1.444-0.869,1.444-1.942c0-1.075-0.37-1.946-1.444-1.946h-9.074
			c-1.073,0-1.445,0.871-1.445,1.946C24.749,38.106,25.121,38.975,26.194,38.975z"/>
	</g>
</g>
</svg>
