<?xml version="1.0" encoding="utf-8"?>
<!-- Generator: Adobe Illustrator 16.0.0, SVG Export Plug-In . SVG Version: 6.00 Build 0)  -->
<!DOCTYPE svg PUBLIC "-//W3C//DTD SVG 1.1//EN" "http://www.w3.org/Graphics/SVG/1.1/DTD/svg11.dtd">
<svg version="1.1" id="Lager_1" xmlns="http://www.w3.org/2000/svg" xmlns:xlink="http://www.w3.org/1999/xlink" x="0px" y="0px"
	 viewBox="0 0 98.617 98.617" enable-background="new 0 0 98.617 98.617" xml:space="preserve">
<g>
	<g>
		<path fill="#FFB900" d="M22.365,34.687c0.014-0.03,0.026-0.056,0.043-0.081l6.345-10.647c0.452-0.877,1.171-1.378,1.979-1.378
			c0.806,0,1.527,0.501,1.979,1.378l6.345,10.647c0.015,0.025,0.029,0.051,0.043,0.081c0.431,0.86,0.428,1.762-0.01,2.47
			c-0.437,0.707-1.242,1.113-2.205,1.113h-0.412c0.171-0.336,0.24-0.769,0.24-1.237c0-0.474-0.072-0.909-0.245-1.246
			c0.239-0.04,0.288-0.202,0.133-0.466c-1.148-1.926-5.417-9.084-5.551-9.317c-0.154-0.271-0.38-0.426-0.666,0.05
			c-0.243,0.405-4.292,7.205-5.479,9.197c-0.153,0.257-0.082,0.436,0.109,0.508c-0.185,0.342-0.263,0.787-0.263,1.274
			c0,0.469,0.071,0.901,0.241,1.237h-0.412c-0.965,0-1.769-0.406-2.204-1.113C21.936,36.449,21.932,35.547,22.365,34.687z"/>
	</g>
	<g>
		<path fill="#FFB900" d="M30.73,21.725L30.73,21.725c-0.683,0-1.239-0.553-1.239-1.234l0,0c0-0.686,0.557-1.242,1.239-1.242l0,0
			c0.685,0,1.235,0.557,1.235,1.242C31.965,21.172,31.415,21.725,30.73,21.725z M30.73,18.403L30.73,18.403
			c-0.683,0-1.239-0.553-1.239-1.235l0,0c0-0.685,0.557-1.241,1.239-1.241l0,0c0.685,0,1.235,0.557,1.235,1.241
			C31.965,17.85,31.415,18.403,30.73,18.403z M30.73,15.083L30.73,15.083c-0.683,0-1.239-0.555-1.239-1.24l0,0
			c0-0.683,0.557-1.234,1.239-1.234l0,0c0.685,0,1.235,0.552,1.235,1.234C31.965,14.528,31.415,15.083,30.73,15.083z"/>
	</g>
	<path fill="#FFB900" d="M2.297,29.311c0-0.248,0-14.777,0-14.777c0-2.893,2.355-5.246,5.246-5.246h23.188
		c0.683,0,1.235,0.555,1.235,1.236c0,0.685-0.553,1.238-1.235,1.238H7.543c-1.526,0-2.77,1.243-2.77,2.771c0,0,0,14.461,0,14.749
		s0.184,0.429,0.271,0.47c1.195,0.565,2.025,1.781,2.026,3.193c0,0,0,23.869,0,24.103c0,0.23,0.1,0.324,0.313,0.324
		c0.206,0,70.081,0,75.161,0c0.189,0,0.291-0.059,0.291-0.289s0-10.182,0-10.182c0-1.951,1.582-3.533,3.533-3.533
		c1.953,0,3.536,1.582,3.536,3.533c0,0,0,25.459,0,26.029s0.339,0.627,0.509,0.619c0.104-0.002,0.209-0.006,0.312-0.006
		c4.353,0,7.892,3.543,7.892,7.893c0,4.352-3.539,7.893-7.892,7.893c-4.351,0-7.89-3.541-7.89-7.893c0,0,0-11.613,0-11.893
		s-0.136-0.408-0.368-0.408c-0.223,0-68.883,0-74.966,0c-0.282,0-0.43,0.232-0.43,0.455c0,0.172,0,2.52,0,3.533
		c0,0.355,0.242,0.441,0.362,0.436c0.15-0.01,0.306-0.016,0.46-0.016c4.352,0,7.893,3.543,7.893,7.893
		c0,4.352-3.541,7.893-7.893,7.893c-4.268,0-7.751-3.404-7.885-7.641c-0.004-0.076-0.007-0.156-0.007-0.252V32.946
		c0-1.421,0.839-2.642,2.046-3.203C2.131,29.706,2.297,29.557,2.297,29.311z"/>
	<path fill="#FFFFFF" d="M90.725,85.795c2.403,0,4.357-1.955,4.357-4.357s-1.954-4.355-4.357-4.355
		c-2.401,0-4.356,1.953-4.356,4.355S88.323,85.795,90.725,85.795z"/>
	<path fill="#FFFFFF" d="M7.893,85.795c2.401,0,4.356-1.955,4.356-4.357s-1.955-4.355-4.356-4.355c-2.402,0-4.356,1.953-4.356,4.355
		S5.491,85.795,7.893,85.795z"/>
	<g>
		<path fill="#7DC8F0" d="M25.284,57.373v-7.051v-0.15c0-0.555,0.45-1.006,1-1.006h9.903c0.552,0,1.003,0.451,1.003,1.006v0.133
			v7.068C33.012,57.373,28.971,57.373,25.284,57.373z"/>
		<path fill="#009FE4" d="M82.544,57.373c-2.82,0-25.602,0-45.354,0v-7.068h42.128c1.834,0,3.342,1.396,3.517,3.186
			c0,1.904,0,3.502,0,3.594C82.835,57.314,82.733,57.373,82.544,57.373z"/>
		<path fill="#FFE57E" d="M7.383,57.373c-0.213,0-0.313-0.094-0.313-0.324c0-0.078,0-2.855,0-6.496
			c1.815-1.563,5.277-2.52,9.092-2.52c4.021,0,7.614,1.145,9.028,2.211c0.032,0.023,0.061,0.053,0.093,0.078v7.051
			C14.992,57.373,7.451,57.373,7.383,57.373z"/>
	</g>
	<g>
		<path fill="#E6007E" d="M26.193,38.975h9.074c1.074,0,1.444-0.869,1.444-1.942c0-1.075-0.37-1.946-1.444-1.946h-9.074
			c-1.074,0-1.443,0.871-1.443,1.946C24.75,38.106,25.119,38.975,26.193,38.975z"/>
	</g>
</g>
</svg>
