<?xml version="1.0" encoding="utf-8"?>
<!-- Generator: Adobe Illustrator 16.0.0, SVG Export Plug-In . SVG Version: 6.00 Build 0)  -->
<!DOCTYPE svg PUBLIC "-//W3C//DTD SVG 1.1//EN" "http://www.w3.org/Graphics/SVG/1.1/DTD/svg11.dtd">
<svg version="1.1" id="Lager_1" xmlns="http://www.w3.org/2000/svg" xmlns:xlink="http://www.w3.org/1999/xlink" x="0px" y="0px"
	 viewBox="0 0 96.378 96.378" enable-background="new 0 0 96.378 96.378" xml:space="preserve">
<g>
	<g>
		<g>
			<path fill="#FFB900" d="M38.634,57.316v-0.299V30.461H2.462C2.37,30.699,2.31,30.953,2.308,31.16L2.3,57.174l-0.011,26
				c0,0.385,0.315,0.701,0.701,0.701h60.525V57.316H38.634z"/>
			<path fill="#FFE57E" d="M79.273,39.893c-0.133-0.156-0.346-0.297-0.572-0.396L64.185,56.531l-0.668,0.785v26.559h29.871
				c0.387,0,0.701-0.316,0.701-0.701V58.006c0-0.387-0.203-0.945-0.455-1.236L79.273,39.893z"/>
			<path fill="#994916" d="M2.462,30.461h36.172L53.812,12.64c-0.195-0.085-0.402-0.138-0.584-0.138H18.322
				c-0.385,0-0.904,0.239-1.154,0.532l-7.203,8.446l-7.201,8.446C2.647,30.064,2.542,30.255,2.462,30.461z"/>
			<path fill="#FFE57E" d="M53.812,12.64L38.634,30.461v26.556v0.299l15.29-17.958h15.285v-0.699v-7.524
				c0-0.386-0.205-0.939-0.455-1.233L54.384,13.034C54.25,12.877,54.039,12.737,53.812,12.64z"/>
		</g>
		<path fill="#FFFFFF" d="M10.493,39.891c0,0.137-0.111,0.248-0.248,0.248H6.332c-0.136,0-0.248-0.111-0.248-0.248v-4.57
			c0-0.137,0.112-0.248,0.248-0.248h3.913c0.137,0,0.248,0.111,0.248,0.248V39.891z"/>
		<path fill="#FFFFFF" d="M10.493,48.973c0,0.137-0.111,0.248-0.248,0.248H6.332c-0.136,0-0.248-0.111-0.248-0.248v-4.57
			c0-0.137,0.112-0.248,0.248-0.248h3.913c0.137,0,0.248,0.111,0.248,0.248V48.973z"/>
		<path fill="#FFFFFF" d="M18.692,39.891c0,0.137-0.112,0.248-0.25,0.248h-3.91c-0.138,0-0.249-0.111-0.249-0.248v-4.57
			c0-0.137,0.111-0.248,0.249-0.248h3.91c0.138,0,0.25,0.111,0.25,0.248V39.891z"/>
		<path fill="#FFFFFF" d="M26.89,39.891c0,0.137-0.112,0.248-0.249,0.248h-3.911c-0.137,0-0.247-0.111-0.247-0.248v-4.57
			c0-0.137,0.11-0.248,0.247-0.248h3.911c0.137,0,0.249,0.111,0.249,0.248V39.891z"/>
		<path fill="#FFFFFF" d="M35.067,39.891c0,0.137-0.113,0.248-0.248,0.248h-3.912c-0.138,0-0.25-0.111-0.25-0.248v-4.57
			c0-0.137,0.112-0.248,0.25-0.248h3.912c0.135,0,0.248,0.111,0.248,0.248V39.891z"/>
		<path fill="#FFFFFF" d="M18.692,48.973c0,0.137-0.112,0.248-0.25,0.248h-3.91c-0.138,0-0.249-0.111-0.249-0.248v-4.57
			c0-0.137,0.111-0.248,0.249-0.248h3.91c0.138,0,0.25,0.111,0.25,0.248V48.973z"/>
		<path fill="#FFFFFF" d="M26.89,48.973c0,0.137-0.112,0.248-0.249,0.248h-3.911c-0.137,0-0.247-0.111-0.247-0.248v-4.57
			c0-0.137,0.11-0.248,0.247-0.248h3.911c0.137,0,0.249,0.111,0.249,0.248V48.973z"/>
		<path fill="#FFFFFF" d="M35.067,48.973c0,0.137-0.113,0.248-0.248,0.248h-3.912c-0.138,0-0.25-0.111-0.25-0.248v-4.57
			c0-0.137,0.112-0.248,0.25-0.248h3.912c0.135,0,0.248,0.111,0.248,0.248V48.973z"/>
		<path fill="#FFFFFF" d="M10.493,58.055c0,0.137-0.111,0.248-0.248,0.248H6.332c-0.136,0-0.248-0.111-0.248-0.248v-4.568
			c0-0.137,0.112-0.248,0.248-0.248h3.913c0.137,0,0.248,0.111,0.248,0.248V58.055z"/>
		<path fill="#FFFFFF" d="M18.692,58.055c0,0.137-0.112,0.248-0.25,0.248h-3.91c-0.138,0-0.249-0.111-0.249-0.248v-4.568
			c0-0.137,0.111-0.248,0.249-0.248h3.91c0.138,0,0.25,0.111,0.25,0.248V58.055z"/>
		<path fill="#FFFFFF" d="M26.89,58.055c0,0.137-0.112,0.248-0.249,0.248h-3.911c-0.137,0-0.247-0.111-0.247-0.248v-4.568
			c0-0.137,0.11-0.248,0.247-0.248h3.911c0.137,0,0.249,0.111,0.249,0.248V58.055z"/>
		<path fill="#FFFFFF" d="M35.067,58.055c0,0.137-0.113,0.248-0.248,0.248h-3.912c-0.138,0-0.25-0.111-0.25-0.248v-4.568
			c0-0.137,0.112-0.248,0.25-0.248h3.912c0.135,0,0.248,0.111,0.248,0.248V58.055z"/>
		<path fill="#FFFFFF" d="M10.493,67.137c0,0.135-0.111,0.248-0.248,0.248H6.332c-0.136,0-0.248-0.113-0.248-0.248v-4.57
			c0-0.137,0.112-0.248,0.248-0.248h3.913c0.137,0,0.248,0.111,0.248,0.248V67.137z"/>
		<path fill="#FFFFFF" d="M18.692,67.137c0,0.135-0.112,0.248-0.25,0.248h-3.91c-0.138,0-0.249-0.113-0.249-0.248v-4.57
			c0-0.137,0.111-0.248,0.249-0.248h3.91c0.138,0,0.25,0.111,0.25,0.248V67.137z"/>
		<path fill="#FFFFFF" d="M26.89,67.137c0,0.135-0.112,0.248-0.249,0.248h-3.911c-0.137,0-0.247-0.113-0.247-0.248v-4.57
			c0-0.137,0.11-0.248,0.247-0.248h3.911c0.137,0,0.249,0.111,0.249,0.248V67.137z"/>
		<path fill="#FFFFFF" d="M18.692,76.217c0,0.137-0.112,0.25-0.25,0.25h-3.91c-0.138,0-0.249-0.113-0.249-0.25v-4.568
			c0-0.135,0.111-0.248,0.249-0.248h3.91c0.138,0,0.25,0.113,0.25,0.248V76.217z"/>
		<path fill="#FFFFFF" d="M26.89,76.217c0,0.137-0.112,0.25-0.249,0.25h-3.911c-0.137,0-0.247-0.113-0.247-0.25v-4.568
			c0-0.135,0.11-0.248,0.247-0.248h3.911c0.137,0,0.249,0.113,0.249,0.248V76.217z"/>
		<path fill="#FFFFFF" d="M35.067,67.137c0,0.135-0.113,0.248-0.248,0.248h-3.912c-0.138,0-0.25-0.113-0.25-0.248v-4.57
			c0-0.137,0.112-0.248,0.25-0.248h3.912c0.135,0,0.248,0.111,0.248,0.248V67.137z"/>
		<path fill="#FFFFFF" d="M10.493,76.217c0,0.137-0.111,0.25-0.248,0.25H6.332c-0.136,0-0.248-0.113-0.248-0.25v-4.568
			c0-0.137,0.112-0.248,0.248-0.248h3.913c0.137,0,0.248,0.111,0.248,0.248V76.217z"/>
		<path fill="#FFFFFF" d="M35.067,76.217c0,0.137-0.113,0.25-0.248,0.25h-3.912c-0.138,0-0.25-0.113-0.25-0.25v-4.568
			c0-0.137,0.112-0.248,0.25-0.248h3.912c0.135,0,0.248,0.111,0.248,0.248V76.217z"/>
		<path fill="#FFFFFF" d="M73.07,67.123c0,0.137-0.109,0.248-0.248,0.248h-3.91c-0.137,0-0.248-0.111-0.248-0.248v-4.57
			c0-0.137,0.111-0.246,0.248-0.246h3.91c0.139,0,0.248,0.109,0.248,0.246V67.123z"/>
		<path fill="#FFFFFF" d="M81.269,67.123c0,0.137-0.111,0.248-0.248,0.248h-3.91c-0.139,0-0.25-0.111-0.25-0.248v-4.57
			c0-0.137,0.111-0.246,0.25-0.246h3.91c0.137,0,0.248,0.109,0.248,0.246V67.123z"/>
		<path fill="#FFFFFF" d="M89.447,67.123c0,0.137-0.111,0.248-0.246,0.248h-3.914c-0.137,0-0.248-0.111-0.248-0.248v-4.57
			c0-0.137,0.111-0.246,0.248-0.246h3.914c0.135,0,0.246,0.109,0.246,0.246V67.123z"/>
		<path fill="#FFFFFF" d="M73.07,76.217c0,0.137-0.109,0.25-0.248,0.25h-3.91c-0.137,0-0.248-0.113-0.248-0.25v-4.568
			c0-0.137,0.111-0.248,0.248-0.248h3.91c0.139,0,0.248,0.111,0.248,0.248V76.217z"/>
		<path fill="#FFFFFF" d="M81.269,76.217c0,0.137-0.111,0.25-0.248,0.25h-3.91c-0.139,0-0.25-0.113-0.25-0.25v-4.568
			c0-0.137,0.111-0.248,0.25-0.248h3.91c0.137,0,0.248,0.111,0.248,0.248V76.217z"/>
		<path fill="#FFFFFF" d="M89.447,76.217c0,0.137-0.111,0.25-0.246,0.25h-3.914c-0.137,0-0.248-0.113-0.248-0.25v-4.568
			c0-0.137,0.111-0.248,0.248-0.248h3.914c0.135,0,0.246,0.111,0.246,0.248V76.217z"/>
		<g>
			<path fill="#994916" d="M38.634,57.316h24.881l15.186-17.819c-0.197-0.085-0.404-0.14-0.582-0.14H69.91H53.923L38.634,57.316z"/>
		</g>
	</g>
	<path fill="#FFFFFF" d="M52.183,67.025c-0.248,0-0.449-0.203-0.449-0.449v-3.82c0-0.248-0.203-0.449-0.451-0.449h-3.82
		c-0.248,0-0.449,0.201-0.449,0.449v3.82c0,0.246-0.203,0.449-0.449,0.449h-3.823c-0.246,0-0.449,0.203-0.449,0.449v3.822
		c0,0.246,0.203,0.449,0.449,0.449h3.823c0.246,0,0.449,0.201,0.449,0.449v3.822c0,0.248,0.201,0.449,0.449,0.449h3.82
		c0.248,0,0.451-0.201,0.451-0.449v-3.822c0-0.248,0.201-0.449,0.449-0.449h3.82c0.248,0,0.449-0.203,0.449-0.449v-3.822
		c0-0.246-0.201-0.449-0.449-0.449H52.183z"/>
</g>
</svg>
