<?xml version="1.0" encoding="utf-8"?>
<!-- Generator: Adobe Illustrator 16.0.0, SVG Export Plug-In . SVG Version: 6.00 Build 0)  -->
<!DOCTYPE svg PUBLIC "-//W3C//DTD SVG 1.1//EN" "http://www.w3.org/Graphics/SVG/1.1/DTD/svg11.dtd">
<svg version="1.1" id="Lager_1" xmlns="http://www.w3.org/2000/svg" xmlns:xlink="http://www.w3.org/1999/xlink" x="0px" y="0px"
	 viewBox="0 0 96.378 96.378" enable-background="new 0 0 96.378 96.378" xml:space="preserve">
<g>
	<g>
		<path fill="#009FE4" d="M38.634,57.317v-0.299V30.461H2.464c-0.096,0.237-0.154,0.491-0.156,0.698L2.299,57.173L2.29,83.175
			c-0.001,0.385,0.315,0.701,0.701,0.701h60.525V57.317H38.634z"/>
		<path fill="#7DC8F0" d="M79.274,39.893c-0.135-0.156-0.346-0.297-0.574-0.396L64.186,56.532l-0.67,0.785v26.559h29.873
			c0.385,0,0.699-0.316,0.699-0.701v-25.17c0-0.387-0.203-0.943-0.453-1.234L79.274,39.893z"/>
		<path fill="#994916" d="M2.464,30.461h36.17L53.813,12.64c-0.197-0.085-0.404-0.138-0.586-0.138H18.323
			c-0.385,0-0.905,0.239-1.155,0.532l-7.201,8.446l-7.203,8.446C2.648,30.064,2.543,30.255,2.464,30.461z"/>
		<path fill="#7DC8F0" d="M53.813,12.64L38.634,30.461v26.557v0.299l15.289-17.959h15.285v-0.699v-7.524
			c0-0.386-0.203-0.939-0.453-1.233L54.383,13.034C54.249,12.877,54.038,12.737,53.813,12.64z"/>
	</g>
	<path fill="#FFFFFF" d="M10.494,39.891c0,0.137-0.112,0.249-0.249,0.249H6.333c-0.135,0-0.248-0.112-0.248-0.249v-4.57
		c0-0.137,0.113-0.248,0.248-0.248h3.912c0.137,0,0.249,0.111,0.249,0.248V39.891z"/>
	<path fill="#FFFFFF" d="M10.494,48.972c0,0.139-0.112,0.25-0.249,0.25H6.333c-0.135,0-0.248-0.111-0.248-0.25v-4.568
		c0-0.137,0.113-0.248,0.248-0.248h3.912c0.137,0,0.249,0.111,0.249,0.248V48.972z"/>
	<path fill="#FFFFFF" d="M18.692,39.891c0,0.137-0.112,0.249-0.25,0.249h-3.91c-0.136,0-0.249-0.112-0.249-0.249v-4.57
		c0-0.137,0.113-0.248,0.249-0.248h3.91c0.138,0,0.25,0.111,0.25,0.248V39.891z"/>
	<path fill="#FFFFFF" d="M26.891,39.891c0,0.137-0.112,0.249-0.25,0.249h-3.91c-0.138,0-0.248-0.112-0.248-0.249v-4.57
		c0-0.137,0.11-0.248,0.248-0.248h3.91c0.138,0,0.25,0.111,0.25,0.248V39.891z"/>
	<path fill="#FFFFFF" d="M35.068,39.891c0,0.137-0.114,0.249-0.249,0.249h-3.912c-0.137,0-0.248-0.112-0.248-0.249v-4.57
		c0-0.137,0.111-0.248,0.248-0.248h3.912c0.135,0,0.249,0.111,0.249,0.248V39.891z"/>
	<path fill="#FFFFFF" d="M18.692,48.972c0,0.139-0.112,0.25-0.25,0.25h-3.91c-0.136,0-0.249-0.111-0.249-0.25v-4.568
		c0-0.137,0.113-0.248,0.249-0.248h3.91c0.138,0,0.25,0.111,0.25,0.248V48.972z"/>
	<path fill="#FFFFFF" d="M26.891,48.972c0,0.139-0.112,0.25-0.25,0.25h-3.91c-0.138,0-0.248-0.111-0.248-0.25v-4.568
		c0-0.137,0.11-0.248,0.248-0.248h3.91c0.138,0,0.25,0.111,0.25,0.248V48.972z"/>
	<path fill="#FFFFFF" d="M35.068,48.972c0,0.139-0.114,0.25-0.249,0.25h-3.912c-0.137,0-0.248-0.111-0.248-0.25v-4.568
		c0-0.137,0.111-0.248,0.248-0.248h3.912c0.135,0,0.249,0.111,0.249,0.248V48.972z"/>
	<path fill="#FFFFFF" d="M10.494,58.054c0,0.139-0.112,0.25-0.249,0.25H6.333c-0.135,0-0.248-0.111-0.248-0.25v-4.568
		c0-0.137,0.113-0.246,0.248-0.246h3.912c0.137,0,0.249,0.109,0.249,0.246V58.054z"/>
	<path fill="#FFFFFF" d="M18.692,58.054c0,0.139-0.112,0.25-0.25,0.25h-3.91c-0.136,0-0.249-0.111-0.249-0.25v-4.568
		c0-0.137,0.113-0.246,0.249-0.246h3.91c0.138,0,0.25,0.109,0.25,0.246V58.054z"/>
	<path fill="#FFFFFF" d="M26.891,58.054c0,0.139-0.112,0.25-0.25,0.25h-3.91c-0.138,0-0.248-0.111-0.248-0.25v-4.568
		c0-0.137,0.11-0.246,0.248-0.246h3.91c0.138,0,0.25,0.109,0.25,0.246V58.054z"/>
	<path fill="#FFFFFF" d="M35.068,58.054c0,0.139-0.114,0.25-0.249,0.25h-3.912c-0.137,0-0.248-0.111-0.248-0.25v-4.568
		c0-0.137,0.111-0.246,0.248-0.246h3.912c0.135,0,0.249,0.109,0.249,0.246V58.054z"/>
	<path fill="#FFFFFF" d="M10.494,67.138c0,0.135-0.112,0.248-0.249,0.248H6.333c-0.135,0-0.248-0.113-0.248-0.248v-4.57
		c0-0.137,0.113-0.25,0.248-0.25h3.912c0.137,0,0.249,0.113,0.249,0.25V67.138z"/>
	<path fill="#FFFFFF" d="M18.692,67.138c0,0.135-0.112,0.248-0.25,0.248h-3.91c-0.136,0-0.249-0.113-0.249-0.248v-4.57
		c0-0.137,0.113-0.25,0.249-0.25h3.91c0.138,0,0.25,0.113,0.25,0.25V67.138z"/>
	<path fill="#FFFFFF" d="M26.891,67.138c0,0.135-0.112,0.248-0.25,0.248h-3.91c-0.138,0-0.248-0.113-0.248-0.248v-4.57
		c0-0.137,0.11-0.25,0.248-0.25h3.91c0.138,0,0.25,0.113,0.25,0.25V67.138z"/>
	<path fill="#FFFFFF" d="M18.692,76.218c0,0.137-0.112,0.248-0.25,0.248h-3.91c-0.136,0-0.249-0.111-0.249-0.248v-4.568
		c0-0.137,0.113-0.25,0.249-0.25h3.91c0.138,0,0.25,0.113,0.25,0.25V76.218z"/>
	<path fill="#FFFFFF" d="M26.891,76.218c0,0.137-0.112,0.248-0.25,0.248h-3.91c-0.138,0-0.248-0.111-0.248-0.248v-4.568
		c0-0.137,0.11-0.25,0.248-0.25h3.91c0.138,0,0.25,0.113,0.25,0.25V76.218z"/>
	<path fill="#FFFFFF" d="M35.068,67.138c0,0.135-0.114,0.248-0.249,0.248h-3.912c-0.137,0-0.248-0.113-0.248-0.248v-4.57
		c0-0.137,0.111-0.25,0.248-0.25h3.912c0.135,0,0.249,0.113,0.249,0.25V67.138z"/>
	<path fill="#FFFFFF" d="M10.494,76.218c0,0.137-0.112,0.248-0.249,0.248H6.333c-0.135,0-0.248-0.111-0.248-0.248v-4.568
		c0-0.139,0.113-0.25,0.248-0.25h3.912c0.137,0,0.249,0.111,0.249,0.25V76.218z"/>
	<path fill="#FFFFFF" d="M35.068,76.218c0,0.137-0.114,0.248-0.249,0.248h-3.912c-0.137,0-0.248-0.111-0.248-0.248v-4.568
		c0-0.139,0.111-0.25,0.248-0.25h3.912c0.135,0,0.249,0.111,0.249,0.25V76.218z"/>
	<path fill="#FFFFFF" d="M73.071,67.124c0,0.135-0.111,0.246-0.248,0.246h-3.912c-0.135,0-0.248-0.111-0.248-0.246v-4.57
		c0-0.139,0.113-0.248,0.248-0.248h3.912c0.137,0,0.248,0.109,0.248,0.248V67.124z"/>
	<path fill="#FFFFFF" d="M81.27,67.124c0,0.135-0.113,0.246-0.25,0.246h-3.91c-0.137,0-0.248-0.111-0.248-0.246v-4.57
		c0-0.139,0.111-0.248,0.248-0.248h3.91c0.137,0,0.25,0.109,0.25,0.248V67.124z"/>
	<path fill="#FFFFFF" d="M89.448,67.124c0,0.135-0.113,0.246-0.248,0.246h-3.912c-0.137,0-0.248-0.111-0.248-0.246v-4.57
		c0-0.139,0.111-0.248,0.248-0.248H89.2c0.135,0,0.248,0.109,0.248,0.248V67.124z"/>
	<path fill="#FFFFFF" d="M73.071,76.218c0,0.137-0.111,0.248-0.248,0.248h-3.912c-0.135,0-0.248-0.111-0.248-0.248v-4.568
		c0-0.139,0.113-0.25,0.248-0.25h3.912c0.137,0,0.248,0.111,0.248,0.25V76.218z"/>
	<path fill="#FFFFFF" d="M81.27,76.218c0,0.137-0.113,0.248-0.25,0.248h-3.91c-0.137,0-0.248-0.111-0.248-0.248v-4.568
		c0-0.139,0.111-0.25,0.248-0.25h3.91c0.137,0,0.25,0.111,0.25,0.25V76.218z"/>
	<path fill="#FFFFFF" d="M89.448,76.218c0,0.137-0.113,0.248-0.248,0.248h-3.912c-0.137,0-0.248-0.111-0.248-0.248v-4.568
		c0-0.139,0.111-0.25,0.248-0.25H89.2c0.135,0,0.248,0.111,0.248,0.25V76.218z"/>
	<path fill="#FFFFFF" d="M52.145,67.024c-0.246,0-0.449-0.203-0.449-0.449v-3.82c0-0.248-0.203-0.449-0.451-0.449h-3.82
		c-0.246,0-0.449,0.201-0.449,0.449v3.82c0,0.246-0.203,0.449-0.449,0.449h-3.822c-0.248,0-0.45,0.203-0.45,0.451v3.822
		c0,0.246,0.202,0.449,0.45,0.449h3.822c0.246,0,0.449,0.201,0.449,0.449v3.82c0,0.248,0.203,0.449,0.449,0.449h3.82
		c0.248,0,0.451-0.201,0.451-0.449v-3.82c0-0.248,0.203-0.449,0.449-0.449h3.82c0.25,0,0.451-0.203,0.451-0.449v-3.822
		c0-0.248-0.201-0.451-0.451-0.451H52.145z"/>
	<g>
		<path fill="#994916" d="M38.634,57.317h24.882L78.7,39.498c-0.195-0.085-0.402-0.14-0.582-0.14h-8.209H53.922L38.634,57.317z"/>
	</g>
</g>
</svg>
