<?xml version="1.0" encoding="utf-8"?>
<!-- Generator: Adobe Illustrator 16.0.0, SVG Export Plug-In . SVG Version: 6.00 Build 0)  -->
<!DOCTYPE svg PUBLIC "-//W3C//DTD SVG 1.1//EN" "http://www.w3.org/Graphics/SVG/1.1/DTD/svg11.dtd">
<svg version="1.1" id="Lager_1" xmlns="http://www.w3.org/2000/svg" xmlns:xlink="http://www.w3.org/1999/xlink" x="0px" y="0px"
	 viewBox="0 0 500 500" enable-background="new 0 0 500 500" xml:space="preserve">
<g>
	<path fill="#009FE4" d="M113.382,175.868c0.066-0.152,0.142-0.284,0.223-0.411l32.165-53.981c2.297-4.447,5.942-6.987,10.034-6.987
		s7.737,2.54,10.034,6.987l32.159,53.981c0.082,0.126,0.157,0.258,0.229,0.411c2.185,4.36,2.16,8.933-0.056,12.523
		c-2.22,3.584-6.297,5.643-11.179,5.643h-2.094c0.856-1.704,1.222-3.899,1.222-6.272c0-2.403-0.37-4.608-1.242-6.317
		c1.212-0.203,1.465-1.024,0.674-2.363c-5.82-9.765-27.464-46.057-28.149-47.238c-0.786-1.374-1.912-2.16-3.372,0.253
		c-1.237,2.053-21.771,36.53-27.779,46.629c-0.776,1.303-0.421,2.21,0.552,2.576c-0.943,1.734-1.333,3.99-1.333,6.459
		c0,2.378,0.36,4.568,1.227,6.272h-2.094c-4.888,0-8.964-2.059-11.18-5.643C111.217,184.801,111.197,180.229,113.382,175.868z"/>
	<g>
		<path fill="#009FE4" d="M155.793,110.15L155.793,110.15c-3.453,0-6.271-2.804-6.271-6.256l0,0c0-3.479,2.819-6.297,6.271-6.297
			l0,0c3.488,0,6.277,2.824,6.277,6.297C162.07,107.346,159.281,110.15,155.793,110.15z M155.793,93.307L155.793,93.307
			c-3.453,0-6.271-2.804-6.271-6.262l0,0c0-3.473,2.819-6.292,6.271-6.292l0,0c3.488,0,6.277,2.824,6.277,6.292
			C162.07,90.503,159.281,93.307,155.793,93.307z M155.793,76.475L155.793,76.475c-3.453,0-6.271-2.814-6.271-6.287l0,0
			c0-3.463,2.819-6.256,6.271-6.256l0,0c3.488,0,6.277,2.798,6.277,6.256C162.07,73.661,159.281,76.475,155.793,76.475z"/>
	</g>
	<path fill="#E6007E" d="M11.651,148.611c0-1.257,0-74.92,0-74.92c0-14.667,11.935-26.598,26.598-26.598h117.56
		c3.473,0,6.277,2.814,6.277,6.267c0,3.473-2.804,6.277-6.277,6.277H38.249c-7.747,0-14.044,6.302-14.044,14.049
		c0,0,0,73.318,0,74.778c0,1.46,0.917,2.175,1.369,2.383c6.064,2.865,10.277,9.03,10.277,16.189c0,0,0,121.017,0,122.204
		c0,1.166,0.492,1.643,1.582,1.643c1.05,0,355.311,0,381.061,0c0.974,0,1.486-0.299,1.486-1.465c0-1.167,0-51.624,0-51.624
		c0-9.892,8.021-17.913,17.917-17.913c9.897,0,17.928,8.021,17.928,17.913c0,0,0,129.079,0,131.969s1.704,3.179,2.576,3.138
		c0.521-0.01,1.06-0.029,1.587-0.029c22.064,0,40.008,17.963,40.008,40.018c0,22.064-17.943,40.018-40.008,40.018
		c-22.07,0-40.008-17.953-40.008-40.018c0,0,0-58.879,0-60.299c0-1.419-0.695-2.068-1.882-2.068c-1.13,0-349.236,0-380.072,0
		c-1.424,0-2.17,1.177-2.17,2.307c0,0.873,0,12.777,0,17.913c0,1.8,1.217,2.235,1.831,2.21c0.775-0.051,1.551-0.08,2.332-0.08
		c22.06,0,40.008,17.963,40.008,40.018c0,22.064-17.953,40.018-40.008,40.018c-21.644,0-39.298-17.258-39.982-38.74
		C0.015,413.781,0,413.375,0,412.889V167.041c0-7.205,4.259-13.395,10.374-16.239C10.799,150.614,11.651,149.858,11.651,148.611z"/>
	<path fill="#FFFFFF" d="M459.987,434.989c12.173,0,22.08-9.912,22.08-22.091c0-12.178-9.907-22.08-22.08-22.08
		c-12.179,0-22.086,9.902-22.086,22.08C437.901,425.077,447.809,434.989,459.987,434.989z"/>
	<path fill="#FFFFFF" d="M40.023,434.989c12.179,0,22.085-9.912,22.085-22.091c0-12.178-9.907-22.08-22.085-22.08
		c-12.178,0-22.095,9.902-22.095,22.08C17.928,425.077,27.84,434.989,40.023,434.989z"/>
	<g>
		<path fill="#7DC8F0" d="M128.187,290.888v-35.749v-0.761c0-2.813,2.282-5.101,5.08-5.101h50.214c2.788,0,5.07,2.287,5.07,5.101
			v0.675v35.835C167.373,290.888,146.89,290.888,128.187,290.888z"/>
		<path fill="#009FE4" d="M418.493,290.888c-14.292,0-129.813,0-229.942,0v-35.835h213.582c9.309,0,16.954,7.078,17.847,16.152
			c0,9.654,0,17.756,0,18.223C419.979,290.588,419.472,290.888,418.493,290.888z"/>
		<path fill="#7DC8F0" d="M37.432,290.888c-1.09,0-1.582-0.477-1.582-1.643c0-0.396,0-14.476,0-32.936
			c9.202-7.924,26.754-12.776,46.097-12.776c20.381,0,38.604,5.805,45.767,11.21c0.163,0.116,0.31,0.269,0.472,0.396v35.749
			C76.021,290.888,37.782,290.888,37.432,290.888z"/>
	</g>
	<g>
		<path fill="#E6007E" d="M132.805,197.608h46.006c5.445,0,7.321-4.406,7.321-9.846c0-5.45-1.876-9.866-7.321-9.866h-46.006
			c-5.44,0-7.326,4.416-7.326,9.866C125.479,193.203,127.365,197.608,132.805,197.608z"/>
	</g>
</g>
</svg>
