<?xml version="1.0" encoding="utf-8"?>
<!-- Generator: Adobe Illustrator 16.0.0, SVG Export Plug-In . SVG Version: 6.00 Build 0)  -->
<!DOCTYPE svg PUBLIC "-//W3C//DTD SVG 1.1//EN" "http://www.w3.org/Graphics/SVG/1.1/DTD/svg11.dtd">
<svg version="1.1" id="Lager_1" xmlns="http://www.w3.org/2000/svg" xmlns:xlink="http://www.w3.org/1999/xlink" x="0px" y="0px"
	 viewBox="0 0 98.618 98.617" enable-background="new 0 0 98.618 98.617" xml:space="preserve">
<g>
	<path fill="#7DC8F0" d="M22.364,34.687c0.013-0.03,0.027-0.056,0.043-0.081l6.343-10.647c0.454-0.877,1.172-1.378,1.979-1.378
		s1.528,0.501,1.98,1.378l6.343,10.647c0.017,0.025,0.031,0.051,0.044,0.081c0.431,0.86,0.429,1.762-0.011,2.47
		c-0.436,0.707-1.239,1.113-2.205,1.113h-0.411c0.169-0.336,0.239-0.769,0.239-1.237c0-0.474-0.071-0.909-0.246-1.246
		c0.24-0.04,0.29-0.202,0.134-0.466c-1.148-1.926-5.417-9.084-5.55-9.317c-0.156-0.271-0.381-0.426-0.667,0.05
		c-0.245,0.405-4.293,7.205-5.48,9.197c-0.153,0.257-0.083,0.436,0.109,0.508c-0.184,0.342-0.262,0.787-0.262,1.274
		c0,0.469,0.071,0.901,0.242,1.237h-0.414c-0.964,0-1.767-0.406-2.205-1.113C21.936,36.449,21.933,35.547,22.364,34.687z"/>
	<g>
		<path fill="#7DC8F0" d="M30.729,21.725L30.729,21.725c-0.682,0-1.237-0.553-1.237-1.234l0,0c0-0.686,0.555-1.242,1.237-1.242l0,0
			c0.685,0,1.236,0.557,1.236,1.242C31.966,21.172,31.414,21.725,30.729,21.725z M30.729,18.403L30.729,18.403
			c-0.682,0-1.237-0.553-1.237-1.235l0,0c0-0.685,0.555-1.241,1.237-1.241l0,0c0.685,0,1.236,0.557,1.236,1.241
			C31.966,17.85,31.414,18.403,30.729,18.403z M30.729,15.083L30.729,15.083c-0.682,0-1.237-0.555-1.237-1.24l0,0
			c0-0.683,0.555-1.234,1.237-1.234l0,0c0.685,0,1.236,0.552,1.236,1.234C31.966,14.528,31.414,15.083,30.729,15.083z"/>
	</g>
	<path fill="#7DC8F0" d="M2.3,29.311c0-0.248,0-14.777,0-14.777c0-2.893,2.351-5.246,5.245-5.246h23.185
		c0.684,0,1.236,0.555,1.236,1.236c0,0.685-0.553,1.238-1.236,1.238H7.544c-1.528,0-2.771,1.243-2.771,2.771c0,0,0,14.461,0,14.749
		s0.184,0.429,0.271,0.47c1.198,0.565,2.026,1.781,2.027,3.193c0,0,0,23.869,0,24.103c0,0.23,0.097,0.324,0.312,0.324
		c0.207,0,70.082,0,75.16,0c0.193,0,0.291-0.059,0.291-0.289s0-10.182,0-10.182c0-1.951,1.582-3.533,3.535-3.533
		c1.951,0,3.534,1.582,3.534,3.533c0,0,0,25.459,0,26.029s0.339,0.627,0.511,0.619c0.104-0.002,0.207-0.006,0.313-0.006
		c4.35,0,7.89,3.543,7.89,7.893c0,4.352-3.54,7.893-7.89,7.893c-4.354,0-7.893-3.541-7.893-7.893c0,0,0-11.613,0-11.893
		s-0.136-0.408-0.368-0.408c-0.223,0-68.884,0-74.965,0c-0.283,0-0.43,0.232-0.43,0.455c0,0.172,0,2.52,0,3.533
		c0,0.355,0.24,0.441,0.361,0.436c0.153-0.01,0.305-0.016,0.459-0.016c4.352,0,7.893,3.543,7.893,7.893
		c0,4.352-3.541,7.893-7.893,7.893c-4.267,0-7.75-3.404-7.884-7.641c-0.004-0.076-0.007-0.156-0.007-0.252V32.946
		c0-1.421,0.838-2.642,2.048-3.203C2.129,29.706,2.3,29.557,2.3,29.311z"/>
	<path fill="#FFFFFF" d="M90.727,85.795c2.4,0,4.354-1.955,4.354-4.357s-1.954-4.355-4.354-4.355c-2.402,0-4.357,1.953-4.357,4.355
		S88.325,85.795,90.727,85.795z"/>
	<path fill="#FFFFFF" d="M7.892,85.795c2.402,0,4.357-1.955,4.357-4.357s-1.955-4.355-4.357-4.355c-2.402,0-4.356,1.953-4.356,4.355
		S5.49,85.795,7.892,85.795z"/>
	<g>
		<path fill="#7DC8F0" d="M25.283,57.373v-7.051v-0.15c0-0.555,0.45-1.006,1.002-1.006h9.902c0.551,0,1.003,0.451,1.003,1.006v0.133
			v7.068C33.012,57.373,28.97,57.373,25.283,57.373z"/>
		<path fill="#009FE4" d="M82.543,57.373c-2.818,0-25.603,0-45.353,0v-7.068h42.126c1.835,0,3.342,1.396,3.518,3.186
			c0,1.904,0,3.502,0,3.594C82.834,57.314,82.737,57.373,82.543,57.373z"/>
		<path fill="#7DC8F0" d="M7.383,57.373c-0.215,0-0.312-0.094-0.312-0.324c0-0.078,0-2.855,0-6.496
			c1.817-1.563,5.277-2.52,9.092-2.52c4.019,0,7.616,1.145,9.026,2.211c0.032,0.023,0.062,0.053,0.094,0.078v7.051
			C14.994,57.373,7.45,57.373,7.383,57.373z"/>
	</g>
	<g>
		<path fill="#009FE4" d="M26.192,38.975h9.074c1.073,0,1.443-0.869,1.443-1.942c0-1.075-0.371-1.946-1.443-1.946h-9.074
			c-1.073,0-1.443,0.871-1.443,1.946C24.749,38.106,25.12,38.975,26.192,38.975z"/>
	</g>
</g>
</svg>
