<?xml version="1.0" encoding="utf-8"?>
<!-- Generator: Adobe Illustrator 16.0.0, SVG Export Plug-In . SVG Version: 6.00 Build 0)  -->
<!DOCTYPE svg PUBLIC "-//W3C//DTD SVG 1.1//EN" "http://www.w3.org/Graphics/SVG/1.1/DTD/svg11.dtd">
<svg version="1.1" id="Lager_1" xmlns="http://www.w3.org/2000/svg" xmlns:xlink="http://www.w3.org/1999/xlink" x="0px" y="0px"
	 viewBox="0 0 71.943 71.943" enable-background="new 0 0 71.943 71.943" xml:space="preserve">
<g>
	<path fill="#E6007E" d="M40.591,19.212c-2.541,0-6.699,0-9.24,0h-20.3c-2.541,0-4.219,1.26-5,3.679L0.21,48.332
		c-0.781,2.418,0.66,4.398,3.201,4.398h27.94c2.541,0,6.699,0,9.24,0h27.94c2.541,0,3.981-1.98,3.2-4.398l-5.805-25.417
		c-0.78-2.419-2.494-3.703-5.036-3.703H40.591z"/>
	<path fill="#FAD2E6" d="M51.3,40.102c-1.794-1.076-2.477-2.104-3.946-2.104c-3.059,0-7.646,5.725-14.603,5.725
		c-6.326,0-10.883-4.221-12.229-5.693c-0.28-0.305-0.276-0.546,0.056-0.695c1.03-0.462,1.947-0.905,2.351-1.118
		c0.272-0.145,0.515-0.25,0.602-0.422c0.094-0.186-0.363-0.51-0.856-0.82c-0.828-0.521-1.678-1.058-2.18-1.466
		c-0.352-0.285-0.306-0.553,0-0.869c1.281-1.336,5.271-4.99,11.29-4.99c7.784,0,11.746,5.864,15.479,5.864
		c1.713,0,2.171-1.286,4.189-2.387c2.178-1.188,5.076-0.757,2.569,2.044c-0.795,0.888-1.479,1.683-1.479,2.509
		c0,1.035,0.959,2.029,1.852,3.014C56.196,40.678,53.135,41.201,51.3,40.102z M26.761,34.729c2.631,0.084,2.757-3.929,0.125-4.009
		C24.255,30.636,24.131,34.648,26.761,34.729z"/>
</g>
</svg>
