<?xml version="1.0" encoding="utf-8"?>
<!-- Generator: Adobe Illustrator 16.0.0, SVG Export Plug-In . SVG Version: 6.00 Build 0)  -->
<!DOCTYPE svg PUBLIC "-//W3C//DTD SVG 1.1//EN" "http://www.w3.org/Graphics/SVG/1.1/DTD/svg11.dtd">
<svg version="1.1" id="Lager_1" xmlns="http://www.w3.org/2000/svg" xmlns:xlink="http://www.w3.org/1999/xlink" x="0px" y="0px"
	 viewBox="0 0 71.943 71.943" enable-background="new 0 0 71.943 71.943" xml:space="preserve">
<g>
	<path fill="#FFB900" d="M40.591,27.529c-2.541,0-6.699,0-9.24,0H11.052c-2.542,0-4.22,1.26-5,3.679L0.21,56.65
		c-0.78,2.418,0.66,4.396,3.201,4.396h27.94c2.541,0,6.699,0,9.24,0H68.53c2.541,0,3.982-1.979,3.201-4.396l-5.805-25.417
		c-0.781-2.419-2.495-3.703-5.037-3.703H40.591z"/>
	<path fill="#994916" d="M40.591,27.529h17.512c0-0.025,0.004-0.049,0.004-0.074c0-3.045-2.436-5.522-5.466-5.59
		c-0.042-0.001-0.084-0.001-0.126-0.001c-0.388-0.001-0.235-0.258-0.196-0.4c0.091-0.331,0.143-0.678,0.143-1.037
		c0-2.204-1.787-3.992-3.992-3.992c-0.691,0-1.339,0.18-1.905,0.49c-0.14,0.077-0.39,0.171-0.444-0.215
		c-0.467-3.271-3.205-5.813-6.594-5.813c-2.389,0-4.479,1.258-5.653,3.147c-0.079,0.126-0.289,0.312-0.588,0.095
		c-1.563-1.13-3.449-1.859-5.526-1.858c-5.057,0-9.156,4.1-9.156,9.158c0,0.183,0.006,0.363,0.018,0.542
		c0.008,0.144-0.082,0.397-0.51,0.423c-2.725,0.163-4.892,2.378-4.937,5.126h18.178C33.893,27.529,38.05,27.529,40.591,27.529z"/>
	<path fill="#009FE4" d="M50.407,48.496c-1.794-1.074-2.477-2.102-3.945-2.102c-3.061,0-7.647,5.725-14.604,5.725
		c-6.326,0-10.883-4.221-12.229-5.693c-0.279-0.305-0.276-0.547,0.056-0.695c1.03-0.461,1.947-0.904,2.351-1.119
		c0.272-0.143,0.515-0.248,0.602-0.42c0.094-0.186-0.363-0.51-0.855-0.82c-0.829-0.521-1.679-1.059-2.18-1.467
		c-0.352-0.285-0.306-0.553,0-0.869c1.281-1.336,5.271-4.99,11.29-4.99c7.784,0,11.745,5.865,15.477,5.865
		c1.713,0,2.172-1.287,4.189-2.387c2.179-1.188,5.076-0.758,2.57,2.043c-0.795,0.889-1.48,1.684-1.48,2.508
		c0,1.037,0.959,2.031,1.852,3.016C55.302,49.074,52.242,49.597,50.407,48.496z M25.868,43.125c2.631,0.084,2.757-3.928,0.126-4.008
		C23.362,39.033,23.238,43.044,25.868,43.125z"/>
</g>
</svg>
