<?xml version="1.0" encoding="utf-8"?>
<!-- Generator: Adobe Illustrator 16.0.0, SVG Export Plug-In . SVG Version: 6.00 Build 0)  -->
<!DOCTYPE svg PUBLIC "-//W3C//DTD SVG 1.1//EN" "http://www.w3.org/Graphics/SVG/1.1/DTD/svg11.dtd">
<svg version="1.1" id="Lager_1" xmlns="http://www.w3.org/2000/svg" xmlns:xlink="http://www.w3.org/1999/xlink" x="0px" y="0px"
	 viewBox="0 0 71.121 71.122" enable-background="new 0 0 71.121 71.122" xml:space="preserve">
<g>
	<path fill="#B0CB0B" d="M23.521,23.95l6.829,6.826c0.001,0.002,0.002,0.003,0.002,0.004l0.534,0.533
		c0.435,0.435,0.982,0.678,1.546,0.751c0.112,0.02,0.229,0.034,0.349,0.034c0.687,0,1.372-0.262,1.895-0.785
		c0.073-0.074,0.137-0.153,0.193-0.236c0.836-1.052,0.779-2.58-0.193-3.552L23.521,16.371c-0.294-0.296-0.535-0.878-0.535-1.295
		v-4.699c0-0.418,0.242-0.518,0.536-0.223l6.829,6.827c0,0,0.002,0.002,0.002,0.004l0.534,0.533
		c0.435,0.435,0.982,0.677,1.546,0.751c0.112,0.02,0.229,0.034,0.349,0.034c0.687,0,1.372-0.263,1.895-0.785
		c0.073-0.075,0.137-0.154,0.193-0.237c0.836-1.052,0.779-2.579-0.193-3.553L21.727,0.78c-1.047-1.046-1.795-1.046-2.84,0
		L5.938,13.728c-0.974,0.974-1.029,2.501-0.194,3.553c0.057,0.083,0.12,0.162,0.194,0.237c0.073,0.074,0.154,0.137,0.236,0.194
		c1.051,0.834,2.579,0.777,3.552-0.194l0.534-0.536c0.003-0.001,0.003-0.001,0.003-0.001l6.828-6.827
		c0.295-0.295,0.537-0.195,0.537,0.223v4.699c0,0.417-0.242,0.999-0.536,1.295L5.938,27.525c-0.974,0.972-1.029,2.5-0.194,3.552
		c0.057,0.083,0.12,0.162,0.194,0.236c0.073,0.074,0.154,0.138,0.236,0.194c1.051,0.834,2.579,0.778,3.552-0.194l0.534-0.535
		c0.003,0,0.003-0.001,0.003-0.002l6.828-6.826c0.295-0.296,0.537-0.195,0.537,0.222v4.699c0,0.418-0.242,0.999-0.536,1.296
		L5.938,41.32c-0.974,0.973-1.029,2.501-0.194,3.552c0.057,0.083,0.12,0.164,0.194,0.238c0.073,0.073,0.154,0.136,0.236,0.193
		c1.051,0.835,2.579,0.778,3.552-0.193l0.534-0.537c0.003,0,0.003,0,0.003,0l6.828-6.828c0.295-0.295,0.537-0.195,0.537,0.223v4.699
		c0,0.417-0.242,1-0.536,1.296L5.938,55.117c-0.974,0.972-1.029,2.5-0.194,3.551c0.057,0.083,0.12,0.164,0.194,0.237
		c0.073,0.074,0.154,0.138,0.236,0.194c1.051,0.834,2.579,0.778,3.552-0.194l0.534-0.535c0.003-0.001,0.003-0.001,0.003-0.002
		l6.828-6.827c0.295-0.296,0.537-0.195,0.537,0.223V65.56v4.335v0.76c0,0.259,0.213,0.471,0.472,0.471h4.414
		c0.26,0,0.472-0.212,0.472-0.471v-0.76V65.56V51.763c0-0.418,0.242-0.519,0.536-0.223l6.829,6.827
		c0.001,0.001,0.002,0.003,0.002,0.003l0.534,0.534c0.435,0.434,0.982,0.678,1.546,0.752c0.112,0.019,0.229,0.032,0.349,0.032
		c0.687,0,1.372-0.261,1.895-0.784c0.073-0.073,0.137-0.154,0.193-0.237c0.836-1.051,0.779-2.579-0.193-3.551L23.521,43.962
		c-0.294-0.296-0.535-0.879-0.535-1.296v-4.699c0-0.418,0.242-0.518,0.536-0.223l6.829,6.827c0,0,0.002,0.003,0.002,0.004
		l0.534,0.534c0.435,0.434,0.982,0.677,1.546,0.751c0.112,0.02,0.229,0.033,0.349,0.033c0.687,0,1.372-0.262,1.895-0.784
		c0.073-0.074,0.137-0.155,0.193-0.238c0.836-1.051,0.779-2.579-0.193-3.552L23.521,30.167c-0.294-0.297-0.535-0.878-0.535-1.296
		v-4.699C22.985,23.754,23.228,23.654,23.521,23.95z"/>
	<path fill="#1E6E32" d="M55.55,39.264l5.31,5.309c0.001,0.001,0.002,0.003,0.005,0.003l0.532,0.534
		c0.434,0.435,0.98,0.677,1.545,0.752c0.111,0.019,0.228,0.033,0.35,0.033c0.685,0,1.371-0.262,1.894-0.785
		c0.074-0.074,0.136-0.154,0.193-0.236c0.835-1.052,0.779-2.58-0.193-3.553l-9.635-9.635c-0.295-0.296-0.536-0.878-0.536-1.295v-4.7
		c0-0.418,0.241-0.518,0.536-0.222l5.31,5.308c0,0,0.002,0.003,0.005,0.004l0.532,0.533c0.434,0.435,0.98,0.678,1.545,0.751
		c0.111,0.021,0.228,0.033,0.35,0.033c0.685,0,1.371-0.262,1.894-0.784c0.074-0.073,0.136-0.153,0.193-0.236
		c0.835-1.052,0.779-2.58-0.193-3.553l-11.431-11.43c-1.046-1.046-1.793-1.046-2.84,0l-11.431,11.43
		c-0.972,0.973-1.028,2.501-0.192,3.553c0.056,0.083,0.119,0.163,0.192,0.236c0.074,0.074,0.155,0.137,0.238,0.193
		c1.051,0.836,2.579,0.779,3.551-0.193l0.534-0.535c0.003-0.001,0.003-0.001,0.003-0.001l5.308-5.309
		c0.296-0.296,0.538-0.196,0.538,0.222v4.7c0,0.417-0.242,0.999-0.536,1.295l-9.636,9.635c-0.972,0.973-1.028,2.501-0.192,3.553
		c0.056,0.082,0.119,0.162,0.192,0.236c0.074,0.074,0.155,0.137,0.238,0.193c1.051,0.835,2.579,0.778,3.551-0.193l0.534-0.536
		c0.003,0,0.003-0.001,0.003-0.001l5.308-5.309c0.296-0.295,0.538-0.194,0.538,0.223v4.699c0,0.417-0.242,0.999-0.536,1.296
		l-9.636,9.635c-0.972,0.973-1.028,2.5-0.192,3.552c0.056,0.083,0.119,0.163,0.192,0.237c0.074,0.073,0.155,0.137,0.238,0.194
		c1.051,0.834,2.579,0.777,3.551-0.194l0.534-0.535c0.003-0.001,0.003-0.001,0.004-0.002l5.307-5.309
		c0.296-0.295,0.538-0.195,0.538,0.223v17.372h0.002c0,0.259,0.212,0.471,0.472,0.471h4.414c0.259,0,0.471-0.212,0.471-0.471V65.56
		V53.283c0-0.418,0.241-0.518,0.536-0.223l5.31,5.309c0.001,0.001,0.002,0.002,0.005,0.003l0.532,0.534
		c0.434,0.434,0.98,0.678,1.545,0.751c0.111,0.02,0.228,0.033,0.35,0.033c0.685,0,1.371-0.262,1.894-0.784
		c0.074-0.074,0.136-0.154,0.193-0.237c0.835-1.052,0.779-2.579-0.193-3.552l-9.635-9.635c-0.295-0.297-0.536-0.879-0.536-1.296
		v-4.699C55.014,39.07,55.255,38.969,55.55,39.264z"/>
</g>
</svg>
