<?xml version="1.0" encoding="utf-8"?>
<!-- Generator: Adobe Illustrator 16.0.0, SVG Export Plug-In . SVG Version: 6.00 Build 0)  -->
<!DOCTYPE svg PUBLIC "-//W3C//DTD SVG 1.1//EN" "http://www.w3.org/Graphics/SVG/1.1/DTD/svg11.dtd">
<svg version="1.1" id="Lager_1" xmlns="http://www.w3.org/2000/svg" xmlns:xlink="http://www.w3.org/1999/xlink" x="0px" y="0px"
	 viewBox="0 0 91.502 91.502" enable-background="new 0 0 91.502 91.502" xml:space="preserve">
<g>
	<g>
		<path fill="#009FE4" d="M52.7,43.721l-19.737,4.607c-0.492,0.113-0.594,0.492-0.227,0.84c0,0,0.672,0.631,1.682,1.578
			c0.797,0.115,1.707,0.184,2.752,0.184c3.318,0,6.602-1.283,9.744-3.129c1.617-0.951,3.902-2.488,6.17-4.071
			C52.977,43.695,52.848,43.687,52.7,43.721z"/>
		<path fill="#009FE4" d="M61.192,37.879c1.629-1.263,2.035-2.322,2.447-3.952c0.318-1.264,0.541-2.244,0.566-2.354
			c0.025-0.11,0.123-0.199,0.219-0.199c0.402,0,0.814-0.017,1.051-0.123c0.623-0.276,1.006-0.824,1.006-1.502
			c0-0.646-0.379-1.206-0.926-1.467c-0.213-0.102-0.844-0.158-1.021-0.158c-0.176,0-56.838,0-56.838,0
			c-0.506,0-0.83,0.066-0.979,0.129c-0.582,0.246-0.99,0.823-0.99,1.496S6.135,31,6.717,31.247c0.146,0.062,0.564,0.128,0.852,0.128
			c0.285,0,0.596,0,0.711,0c0.117,0,0.277,0.056,0.355,0.124c0.08,0.068,16.092,13.966,16.092,13.966
			c0.381,0.332,0.994,0.849,1.164,0.96c0.086,0.055,0.18,0.105,0.273,0.154l33.997-7.936C60.778,38.189,61.155,37.907,61.192,37.879
			z"/>
	</g>
	<g>
		<path fill="#009FE4" d="M82.221,37.613c-1.125,0-2.143-0.771-2.408-1.914c-0.313-1.331,0.516-2.663,1.848-2.974l6.799-1.587
			c1.328-0.311,2.662,0.517,2.973,1.849c0.311,1.331-0.516,2.663-1.848,2.974l-6.799,1.587
			C82.598,37.592,82.409,37.613,82.221,37.613z"/>
	</g>
	<g>
		<path fill="#FFB900" d="M79.813,35.699c-0.139-0.594-0.051-1.188,0.209-1.691L22.623,47.405
			c-1.693-4.378-5.941-7.485-10.916-7.485c-6.461,0-11.703,5.238-11.703,11.701s5.242,11.701,11.703,11.701
			c6.463,0,11.701-5.238,11.701-11.701c0-0.355-0.018-0.705-0.049-1.053l4.018-0.938c0.494-0.115,1.199,0.076,1.566,0.424
			c0,0,7.924,7.498,11.467,10.662c1.959,1.75,4.037,2.66,6.004,2.66c0.586,0,1.164-0.082,1.725-0.246
			c2.457-0.721,4.311-2.906,5.215-6.158c1.26-4.518,3.586-13.405,3.586-13.405c0.129-0.49,0.637-0.984,1.131-1.101l22.732-5.306
			C80.321,36.825,79.956,36.317,79.813,35.699z M53.364,44.403c0,0-2.094,7.949-3.139,11.697c-0.586,2.1-1.678,3.525-3,3.914
			c-1.322,0.387-2.973-0.223-4.65-1.721c-2.844-2.539-9.838-9.125-9.838-9.125c-0.367-0.348-0.266-0.727,0.227-0.84L52.7,43.721
			C53.194,43.606,53.491,43.913,53.364,44.403z"/>
	</g>
	<g>
		<path fill="#FFFFFF" d="M11.705,53.247c-0.736,0-1.404-0.506-1.58-1.256c-0.168-0.725,0.176-1.447,0.795-1.791
			c0.127-0.07,0.383-0.15,0.564-0.195c0.082-0.02,0.553-0.129,1.045-0.242l4.281-1c-1.002-1.785-2.912-2.992-5.104-2.992
			c-3.232,0-5.852,2.619-5.852,5.852c0,3.23,2.619,5.85,5.852,5.85c3.129,0,5.686-2.457,5.844-5.545l-5.027,1.168
			C12.031,53.209,11.828,53.247,11.705,53.247z"/>
	</g>
</g>
</svg>
