<?xml version="1.0" encoding="utf-8"?>
<!-- Generator: Adobe Illustrator 16.0.0, SVG Export Plug-In . SVG Version: 6.00 Build 0)  -->
<!DOCTYPE svg PUBLIC "-//W3C//DTD SVG 1.1//EN" "http://www.w3.org/Graphics/SVG/1.1/DTD/svg11.dtd">
<svg version="1.1" id="Lager_1" xmlns="http://www.w3.org/2000/svg" xmlns:xlink="http://www.w3.org/1999/xlink" x="0px" y="0px"
	 viewBox="0 0 92.551 92.551" enable-background="new 0 0 92.551 92.551" xml:space="preserve">
<g>
	<path fill="#009FE4" d="M4.529,57.694h37.225h9.306c2.5,0,4.533,2.033,4.533,4.533c0,2.498-2.033,4.531-4.533,4.531h-9.306H4.529
		c-2.499,0-4.532-2.033-4.532-4.531C-0.003,59.728,2.03,57.694,4.529,57.694z"/>
	<g>
		<circle fill="#FFFFFF" cx="4.528" cy="62.228" r="2.218"/>
	</g>
	<g>
		<circle fill="#FFFFFF" cx="13.835" cy="62.228" r="2.219"/>
	</g>
	<g>
		<circle fill="#FFFFFF" cx="23.142" cy="62.228" r="2.218"/>
	</g>
	<g>
		<circle fill="#FFFFFF" cx="32.448" cy="62.228" r="2.219"/>
	</g>
	<g>
		<circle fill="#FFFFFF" cx="41.755" cy="62.228" r="2.218"/>
	</g>
	<g>
		<circle fill="#FFFFFF" cx="51.061" cy="62.228" r="2.218"/>
	</g>
	<path fill="#009FE4" d="M77.781,63.339c0,0,0.541,0.527,1.293,0.527s3.938,0,3.938,0c5.768,0,6.551-5.381,6.654-7.029
		c0.049-0.797,0.738-1.402,1.533-1.354c0.797,0.051,1.402,0.736,1.354,1.533c-0.281,4.494-2.947,9.742-9.541,9.742H65.177
		c-0.799,0-1.445-0.647-1.445-1.445c0-0.799,0.646-1.447,1.445-1.447c0,0,8.064,0,8.494,0c0.428,0,0.043-0.506,0.043-0.506
		l-8.027-8.025h4.09L77.781,63.339z"/>
	<path fill="#009FE4" d="M39.635,29.283l-0.06,0.06c-0.027-0.515-0.235-1.022-0.629-1.416c-0.394-0.393-0.9-0.602-1.415-0.629
		l1.082-1.083c0.564-0.565,1.48-0.565,2.044,0l8.415,8.415l-2.055,2.034L39.635,29.283z"/>
	<path fill="#009FE4" d="M31.975,49.933H3.309v-5.919c0-1.353,1.106-2.459,2.459-2.459h36.309l-7.297,7.226
		C34.138,49.413,32.875,49.933,31.975,49.933z"/>
	<g>
		<path fill="#FFB900" d="M34.189,34.854c0.555,0,1.109-0.212,1.533-0.636l3.225-3.224c0.846-0.847,0.846-2.22-0.001-3.067
			c-0.848-0.847-2.221-0.847-3.067,0l-3.224,3.224c-0.847,0.848-0.847,2.221,0.001,3.067C33.078,34.642,33.634,34.854,34.189,34.854
			z"/>
	</g>
	<path fill="#FFB900" d="M31.975,49.933c0.9,0,2.163-0.52,2.805-1.152l14.857-14.708c0.641-0.634,1.871-0.94,2.734-0.681
		c0,0,6.477,1.39,14.553,6.492c6,3.791,9.127,8.721,9.127,8.721c0.527,0.73,0.961,2.066,0.961,2.967v2.125
		c0,0.901-0.738,1.639-1.639,1.639H2.748c-0.901,0-1.64-0.737-1.64-1.639v-2.125c0-0.9,0.738-1.639,1.64-1.639H31.975z"/>
</g>
</svg>
