<?xml version="1.0" encoding="utf-8"?>
<!-- Generator: Adobe Illustrator 16.0.0, SVG Export Plug-In . SVG Version: 6.00 Build 0)  -->
<!DOCTYPE svg PUBLIC "-//W3C//DTD SVG 1.1//EN" "http://www.w3.org/Graphics/SVG/1.1/DTD/svg11.dtd">
<svg version="1.1" id="Lager_1" xmlns="http://www.w3.org/2000/svg" xmlns:xlink="http://www.w3.org/1999/xlink" x="0px" y="0px"
	 viewBox="0 0 92.551 92.551" enable-background="new 0 0 92.551 92.551" xml:space="preserve">
<g>
	<path fill="#B0CB0B" d="M4.527,57.694h37.227h9.307c2.498,0,4.531,2.033,4.531,4.533c0,2.498-2.033,4.531-4.531,4.531h-9.307H4.527
		c-2.498,0-4.53-2.033-4.53-4.531C-0.003,59.728,2.029,57.694,4.527,57.694z"/>
	<path fill="#B0CB0B" d="M77.779,63.339c0,0,0.542,0.527,1.295,0.527c0.752,0,3.936,0,3.936,0c5.768,0,6.552-5.381,6.654-7.029
		c0.05-0.797,0.739-1.402,1.533-1.354c0.798,0.051,1.403,0.736,1.354,1.533c-0.28,4.494-2.947,9.742-9.541,9.742H65.178
		c-0.8,0-1.447-0.647-1.447-1.445c0-0.799,0.647-1.447,1.447-1.447c0,0,8.063,0,8.491,0c0.43,0,0.044-0.506,0.044-0.506
		l-8.026-8.025h4.09L77.779,63.339z"/>
	<path fill="#B0CB0B" d="M39.635,29.283l-0.06,0.06c-0.029-0.515-0.236-1.022-0.63-1.416c-0.394-0.393-0.9-0.602-1.416-0.629
		l1.082-1.083c0.564-0.565,1.48-0.565,2.044,0l8.416,8.415l-2.056,2.034L39.635,29.283z"/>
	<path fill="#B0CB0B" d="M31.975,49.933H3.308v-5.919c0-1.353,1.105-2.459,2.459-2.459h36.311l-7.299,7.226
		C34.138,49.413,32.876,49.933,31.975,49.933z"/>
	<g>
		<circle fill="#FFFFFF" cx="4.529" cy="62.228" r="2.218"/>
	</g>
	<g>
		<circle fill="#FFFFFF" cx="13.834" cy="62.228" r="2.218"/>
	</g>
	<g>
		<circle fill="#FFFFFF" cx="23.141" cy="62.228" r="2.218"/>
	</g>
	<g>
		<circle fill="#FFFFFF" cx="32.447" cy="62.228" r="2.218"/>
	</g>
	<g>
		<circle fill="#FFFFFF" cx="41.753" cy="62.228" r="2.218"/>
	</g>
	<g>
		<circle fill="#FFFFFF" cx="51.06" cy="62.228" r="2.219"/>
	</g>
	<g>
		<path fill="#009FE4" d="M34.188,34.854c0.555,0,1.109-0.212,1.533-0.636l3.224-3.224c0.847-0.847,0.847-2.22,0-3.067
			c-0.847-0.847-2.221-0.847-3.067,0l-3.224,3.224c-0.847,0.848-0.847,2.221,0,3.067C33.078,34.642,33.633,34.854,34.188,34.854z"/>
	</g>
	<path fill="#009FE4" d="M31.975,49.933c0.901,0,2.163-0.52,2.804-1.152l14.855-14.708c0.642-0.634,1.873-0.94,2.735-0.681
		c0,0,6.477,1.39,14.552,6.492c6.002,3.791,9.129,8.721,9.129,8.721c0.527,0.73,0.961,2.066,0.961,2.967v2.125
		c0,0.901-0.738,1.639-1.641,1.639H2.747c-0.901,0-1.639-0.737-1.639-1.639v-2.125c0-0.9,0.737-1.639,1.639-1.639H31.975z"/>
</g>
</svg>
