<?xml version="1.0" encoding="utf-8"?>
<!-- Generator: Adobe Illustrator 16.0.0, SVG Export Plug-In . SVG Version: 6.00 Build 0)  -->
<!DOCTYPE svg PUBLIC "-//W3C//DTD SVG 1.1//EN" "http://www.w3.org/Graphics/SVG/1.1/DTD/svg11.dtd">
<svg version="1.1" id="Lager_1" xmlns="http://www.w3.org/2000/svg" xmlns:xlink="http://www.w3.org/1999/xlink" x="0px" y="0px"
	 viewBox="0 0 92.551 92.551" enable-background="new 0 0 92.551 92.551" xml:space="preserve">
<g>
	<path fill="#009FE4" d="M4.528,57.694h37.227h9.306c2.498,0,4.531,2.033,4.531,4.531c0,2.5-2.033,4.533-4.531,4.533h-9.306H4.528
		c-2.498,0-4.53-2.033-4.53-4.533C-0.002,59.728,2.03,57.694,4.528,57.694z"/>
	<g>
		<circle fill="#FFFFFF" cx="4.529" cy="62.226" r="2.218"/>
	</g>
	<g>
		<circle fill="#FFFFFF" cx="13.835" cy="62.226" r="2.218"/>
	</g>
	<g>
		<circle fill="#FFFFFF" cx="23.142" cy="62.226" r="2.218"/>
	</g>
	<g>
		<circle fill="#FFFFFF" cx="32.447" cy="62.226" r="2.218"/>
	</g>
	<g>
		<circle fill="#FFFFFF" cx="41.754" cy="62.226" r="2.219"/>
	</g>
	<g>
		<circle fill="#FFFFFF" cx="51.061" cy="62.226" r="2.219"/>
	</g>
	<path fill="#009FE4" d="M77.779,63.339c0,0,0.543,0.527,1.295,0.527s3.936,0,3.936,0c5.768,0,6.553-5.381,6.654-7.029
		c0.051-0.798,0.74-1.402,1.533-1.354c0.799,0.05,1.404,0.736,1.354,1.533c-0.279,4.494-2.947,9.742-9.541,9.742H65.178
		c-0.799,0-1.447-0.648-1.447-1.446s0.648-1.446,1.447-1.446c0,0,8.063,0,8.492,0s0.043-0.506,0.043-0.506l-8.025-8.025h4.09
		L77.779,63.339z"/>
	<path fill="#009FE4" d="M39.635,29.283l-0.06,0.059c-0.029-0.515-0.237-1.022-0.63-1.415c-0.394-0.394-0.9-0.602-1.416-0.629
		l1.082-1.082c0.564-0.564,1.48-0.564,2.044,0l8.417,8.415l-2.057,2.035L39.635,29.283z"/>
	<path fill="#009FE4" d="M31.975,49.933H3.308v-5.919c0-1.353,1.105-2.46,2.459-2.46h36.311l-7.299,7.226
		C34.138,49.413,32.876,49.933,31.975,49.933z"/>
	<g>
		<path fill="#E6007E" d="M34.189,34.853c0.555,0,1.109-0.212,1.533-0.635l3.224-3.224c0.847-0.847,0.847-2.22,0-3.067
			c-0.847-0.847-2.221-0.847-3.067,0l-3.224,3.224c-0.847,0.847-0.847,2.221,0,3.068C33.079,34.641,33.633,34.853,34.189,34.853z"/>
	</g>
	<path fill="#E6007E" d="M31.975,49.933c0.901,0,2.163-0.52,2.804-1.153l14.856-14.708c0.641-0.634,1.873-0.941,2.734-0.681
		c0,0,6.477,1.391,14.553,6.493c6.002,3.791,9.129,8.721,9.129,8.721c0.527,0.73,0.961,2.065,0.961,2.967v2.124
		c0,0.901-0.738,1.64-1.641,1.64H2.748c-0.901,0-1.639-0.738-1.639-1.64v-2.124c0-0.901,0.737-1.639,1.639-1.639H31.975z"/>
</g>
</svg>
