<?xml version="1.0" encoding="utf-8"?>
<!-- Generator: Adobe Illustrator 16.0.0, SVG Export Plug-In . SVG Version: 6.00 Build 0)  -->
<!DOCTYPE svg PUBLIC "-//W3C//DTD SVG 1.1//EN" "http://www.w3.org/Graphics/SVG/1.1/DTD/svg11.dtd">
<svg version="1.1" id="Lager_1" xmlns="http://www.w3.org/2000/svg" xmlns:xlink="http://www.w3.org/1999/xlink" x="0px" y="0px"
	 viewBox="0 0 85.039 85.039" enable-background="new 0 0 85.039 85.039" xml:space="preserve">
<g>
	<path fill="#009FE4" d="M26.376,40.032H14.985c-0.354,0-0.643,0.289-0.643,0.643v0.277c0,0.709,0.578,1.289,1.287,1.289h28.05
		c0.707,0,1.287-0.58,1.287-1.289v-0.277c0-0.354-0.291-0.643-0.643-0.643H32.932H26.376z"/>
	<path fill="#009FE4" d="M17.315,39.397h24.677c0.711,0,1.289-0.58,1.289-1.287V21.572c0-0.708-0.578-1.289-1.289-1.289H17.315
		c-0.708,0-1.288,0.581-1.288,1.289V38.11C16.027,38.817,16.607,39.397,17.315,39.397 M17.96,22.862c0-0.354,0.29-0.646,0.645-0.646
		h22.098c0.354,0,0.645,0.291,0.645,0.646v13.958c0,0.355-0.291,0.645-0.645,0.645H18.605c-0.354,0-0.645-0.289-0.645-0.645V22.862z
		"/>
	<path fill="#7DC8F0" d="M18.605,37.464h22.098c0.354,0,0.645-0.289,0.645-0.645V22.862c0-0.355-0.291-0.646-0.645-0.646H18.605
		c-0.354,0-0.645,0.29-0.645,0.646v13.958C17.96,37.175,18.25,37.464,18.605,37.464"/>
	<g>
		<path fill="#FFB900" d="M52.176,4.134c0-0.495-0.402-0.896-0.896-0.896s-0.896,0.401-0.896,0.896v1.342h1.793V4.134z"/>
		<path fill="#FFB900" d="M72.346,20.446c-0.305,0-0.594,0.061-0.859,0.168L60.299,9.426c0.107-0.265,0.168-0.555,0.168-0.859
			c0-1.266-1.027-2.293-2.295-2.293c-0.947,0-1.762,0.575-2.111,1.396h-2.186V9.37v0.094h2.186c0.35,0.821,1.164,1.398,2.111,1.398
			c0.305,0,0.594-0.061,0.861-0.168L70.219,21.88c-0.105,0.267-0.166,0.556-0.166,0.86c0,0.448,0.129,0.866,0.354,1.221
			L59.814,39.204h-4.277c-0.848,0-1.535,0.689-1.535,1.537c0,0.85,0.688,1.537,1.535,1.537l10.828-0.002
			c0.85,0,1.537-0.688,1.537-1.535c0-0.85-0.688-1.537-1.537-1.537h-4.367l9.879-14.218c0.15,0.03,0.309,0.048,0.469,0.048
			c1.266,0,2.295-1.027,2.295-2.293C74.641,21.473,73.611,20.446,72.346,20.446z"/>
	</g>
	<g>
		<path fill="#F0A5C3" d="M46.01,80.272V45.298H12.363v34.975c0,0.846-0.685,1.529-1.528,1.529h36.8
			C46.736,81.798,46.01,81.114,46.01,80.272z"/>
	</g>
	<path fill="#E6007E" d="M48.424,11.151c0.184-0.098,0.336-0.32,0.336-0.493V9.529V6.29c0-0.447,0.328-0.813,0.732-0.813h3.648
		c0.404,0,0.734,0.366,0.734,0.813v3.08v1.208c0,0.218,0.117,0.457,0.26,0.53l0.123,0.074c1.805,1.071,3.08,3.091,3.275,5.458
		l0.018,0.211c0.006,0.235,0.01,0.635,0.01,0.89c0,0.254-0.139,0.461-0.309,0.461h-1.041h-9.742h-1.064
		c-0.184,0-0.33-0.207-0.33-0.461c0-0.255,0.008-0.765,0.021-1.132l0.043-0.326c0.281-2.163,1.469-4.002,3.123-5.032L48.424,11.151z
		"/>
	<g>
		<path fill="#E6007E" d="M74.205,42.241H10.834c-0.844,0-1.529,0.684-1.529,1.527v36.504c0,0.846,0.686,1.529,1.529,1.529
			s1.528-0.684,1.528-1.529V45.298H46.01v34.975c0,0.846,0.73,1.529,1.631,1.529h26.463c0.02,0,0.037-0.002,0.055-0.002
			s0.031,0.002,0.047,0.002c0.844,0,1.525-0.682,1.529-1.525c0,0,0-0.002,0-0.004l0,0V43.771v-0.002
			C75.734,42.925,75.049,42.241,74.205,42.241z M73.223,77.925c0,0.506-0.332,0.922-0.74,0.922H49.648
			c-0.408,0-0.742-0.416-0.742-0.922v-7.639c0-0.508,0.334-0.922,0.742-0.922h22.834c0.408,0,0.74,0.414,0.74,0.922V77.925z
			 M73.223,65.892c0,0.508-0.332,0.924-0.74,0.924H49.648c-0.408,0-0.742-0.416-0.742-0.924v-7.639c0-0.508,0.334-0.924,0.742-0.924
			h22.834c0.408,0,0.74,0.416,0.74,0.924V65.892z M73.223,53.86c0,0.506-0.332,0.922-0.74,0.922H49.648
			c-0.408,0-0.742-0.416-0.742-0.922V46.22c0-0.506,0.334-0.922,0.742-0.922h22.834c0.408,0,0.74,0.416,0.74,0.922V53.86z"/>
	</g>
	<g>
		<path fill="#FFB900" d="M72.482,45.298H49.648c-0.408,0-0.742,0.416-0.742,0.922v7.641c0,0.506,0.334,0.922,0.742,0.922h22.834
			c0.408,0,0.74-0.416,0.74-0.922V46.22C73.223,45.714,72.891,45.298,72.482,45.298z M63.469,50.899H58.66
			c-0.475,0-0.857-0.385-0.857-0.859s0.383-0.859,0.857-0.859h4.809c0.475,0,0.859,0.385,0.859,0.859S63.943,50.899,63.469,50.899z"
			/>
		<path fill="#E6007E" d="M63.469,49.181H58.66c-0.475,0-0.857,0.385-0.857,0.859s0.383,0.859,0.857,0.859h4.809
			c0.475,0,0.859-0.385,0.859-0.859S63.943,49.181,63.469,49.181z"/>
		<path fill="#FFB900" d="M72.482,57.329H49.648c-0.408,0-0.742,0.416-0.742,0.924v7.639c0,0.508,0.334,0.924,0.742,0.924h22.834
			c0.408,0,0.74-0.416,0.74-0.924v-7.639C73.223,57.745,72.891,57.329,72.482,57.329z M63.469,62.933H58.66
			c-0.475,0-0.857-0.385-0.857-0.861c0-0.475,0.383-0.859,0.857-0.859h4.809c0.475,0,0.859,0.385,0.859,0.859
			C64.328,62.548,63.943,62.933,63.469,62.933z"/>
		<path fill="#FFB900" d="M72.482,69.364H49.648c-0.408,0-0.742,0.414-0.742,0.922v7.639c0,0.506,0.334,0.922,0.742,0.922h22.834
			c0.408,0,0.74-0.416,0.74-0.922v-7.639C73.223,69.778,72.891,69.364,72.482,69.364z M63.469,74.966H58.66
			c-0.475,0-0.857-0.385-0.857-0.861c0-0.473,0.383-0.859,0.857-0.859h4.809c0.475,0,0.859,0.387,0.859,0.859
			C64.328,74.581,63.943,74.966,63.469,74.966z"/>
		<path fill="#E6007E" d="M63.469,61.212H58.66c-0.475,0-0.857,0.385-0.857,0.859c0,0.477,0.383,0.861,0.857,0.861h4.809
			c0.475,0,0.859-0.385,0.859-0.861C64.328,61.597,63.943,61.212,63.469,61.212z"/>
		<path fill="#E6007E" d="M63.469,73.245H58.66c-0.475,0-0.857,0.387-0.857,0.859c0,0.477,0.383,0.861,0.857,0.861h4.809
			c0.475,0,0.859-0.385,0.859-0.861C64.328,73.632,63.943,73.245,63.469,73.245z"/>
	</g>
</g>
</svg>
