<?xml version="1.0" encoding="utf-8"?>
<!-- Generator: Adobe Illustrator 16.0.0, SVG Export Plug-In . SVG Version: 6.00 Build 0)  -->
<!DOCTYPE svg PUBLIC "-//W3C//DTD SVG 1.1//EN" "http://www.w3.org/Graphics/SVG/1.1/DTD/svg11.dtd">
<svg version="1.1" id="Lager_1" xmlns="http://www.w3.org/2000/svg" xmlns:xlink="http://www.w3.org/1999/xlink" x="0px" y="0px"
	 viewBox="0 0 85.039 85.04" enable-background="new 0 0 85.039 85.04" xml:space="preserve">
<g>
	<path fill="#E6007E" d="M26.376,40.032H14.984c-0.355,0-0.644,0.289-0.644,0.645v0.277c0,0.709,0.578,1.287,1.288,1.287h28.05
		c0.708,0,1.288-0.578,1.288-1.287v-0.277c0-0.355-0.29-0.645-0.644-0.645H32.931H26.376z"/>
	<path fill="#E6007E" d="M17.313,39.399h24.68c0.709,0,1.287-0.58,1.287-1.289V21.572c0-0.708-0.578-1.289-1.287-1.289h-24.68
		c-0.707,0-1.288,0.581-1.288,1.289V38.11C16.025,38.819,16.606,39.399,17.313,39.399 M17.961,22.862
		c0-0.354,0.289-0.646,0.644-0.646h22.1c0.352,0,0.643,0.291,0.643,0.646v13.958c0,0.354-0.291,0.645-0.643,0.645h-22.1
		c-0.354,0-0.644-0.291-0.644-0.645V22.862z"/>
	<path fill="#F0A5C3" d="M18.604,37.465h22.1c0.352,0,0.643-0.291,0.643-0.645V22.862c0-0.355-0.291-0.646-0.643-0.646h-22.1
		c-0.354,0-0.644,0.29-0.644,0.646v13.958C17.961,37.174,18.25,37.465,18.604,37.465"/>
	<g>
		<path fill="#B0CB0B" d="M52.175,4.135c0-0.495-0.401-0.896-0.896-0.896c-0.496,0-0.896,0.401-0.896,0.896v1.342h1.792V4.135z"/>
		<path fill="#B0CB0B" d="M72.345,20.446c-0.304,0-0.594,0.061-0.858,0.168L60.298,9.427c0.108-0.265,0.169-0.555,0.169-0.859
			c0-1.266-1.027-2.293-2.295-2.293c-0.948,0-1.762,0.575-2.111,1.396h-2.187V9.37v0.094h2.187c0.349,0.821,1.163,1.398,2.111,1.398
			c0.306,0,0.593-0.061,0.86-0.168l11.187,11.187c-0.106,0.267-0.167,0.556-0.167,0.86c0,0.448,0.131,0.866,0.354,1.221
			l-10.59,15.242h-4.279c-0.847,0-1.535,0.689-1.535,1.537c0,0.85,0.688,1.537,1.535,1.537h10.83c0.849,0,1.535-0.688,1.535-1.537
			s-0.687-1.537-1.535-1.537h-4.367l9.877-14.217c0.152,0.03,0.309,0.048,0.469,0.048c1.267,0,2.295-1.027,2.295-2.293
			C74.64,21.474,73.611,20.446,72.345,20.446z"/>
	</g>
	<g>
		<path fill="#7DC8F0" d="M46.01,80.274V45.297H12.361v34.975c0,0.846-0.685,1.529-1.527,1.529h36.8
			C46.736,81.799,46.01,81.116,46.01,80.274z"/>
	</g>
	<path fill="#009FE4" d="M48.423,11.151c0.185-0.098,0.336-0.32,0.336-0.493V9.529V6.29c0-0.447,0.329-0.813,0.733-0.813h3.648
		c0.403,0,0.733,0.366,0.733,0.813v3.08v1.208c0,0.218,0.117,0.457,0.261,0.53l0.123,0.074c1.806,1.071,3.079,3.091,3.275,5.458
		l0.018,0.211c0.005,0.235,0.009,0.635,0.009,0.89c0,0.254-0.138,0.461-0.308,0.461H56.21h-9.74h-1.066
		c-0.183,0-0.331-0.207-0.331-0.461c0-0.255,0.011-0.765,0.022-1.132l0.042-0.326c0.282-2.163,1.472-4.002,3.126-5.032
		L48.423,11.151z"/>
	<g>
		<path fill="#009FE4" d="M74.205,42.241H10.834c-0.845,0-1.528,0.684-1.528,1.527v36.504c0,0.846,0.684,1.529,1.528,1.529
			c0.843,0,1.527-0.684,1.527-1.529V45.297H46.01v34.977c0,0.844,0.729,1.527,1.63,1.527h26.464c0.019,0,0.037-0.002,0.056-0.002
			c0.016,0,0.03,0.002,0.046,0.002c0.843,0,1.525-0.682,1.528-1.523c0-0.002,0-0.004,0-0.004v-0.002V43.77v-0.002
			C75.733,42.924,75.049,42.241,74.205,42.241z M73.222,77.924c0,0.508-0.333,0.924-0.74,0.924H49.647
			c-0.408,0-0.742-0.416-0.742-0.924v-7.639c0-0.508,0.334-0.922,0.742-0.922h22.834c0.407,0,0.74,0.414,0.74,0.922V77.924z
			 M73.222,65.893c0,0.508-0.333,0.922-0.74,0.922H49.647c-0.408,0-0.742-0.414-0.742-0.922v-7.639c0-0.508,0.334-0.924,0.742-0.924
			h22.834c0.407,0,0.74,0.416,0.74,0.924V65.893z M73.222,53.86c0,0.506-0.333,0.922-0.74,0.922H49.647
			c-0.408,0-0.742-0.416-0.742-0.922v-7.639c0-0.508,0.334-0.924,0.742-0.924h22.834c0.407,0,0.74,0.416,0.74,0.924V53.86z"/>
	</g>
	<g>
		<path fill="#7DC8F0" d="M72.481,45.297H49.647c-0.408,0-0.742,0.416-0.742,0.924v7.639c0,0.506,0.334,0.922,0.742,0.922h22.834
			c0.407,0,0.74-0.416,0.74-0.922v-7.639C73.222,45.713,72.889,45.297,72.481,45.297z M63.468,50.901H58.66
			c-0.475,0-0.859-0.387-0.859-0.861s0.385-0.859,0.859-0.859h4.808c0.476,0,0.86,0.385,0.86,0.859S63.943,50.901,63.468,50.901z"/>
		<path fill="#009FE4" d="M63.468,49.18H58.66c-0.475,0-0.859,0.385-0.859,0.859s0.385,0.861,0.859,0.861h4.808
			c0.476,0,0.86-0.387,0.86-0.861S63.943,49.18,63.468,49.18z"/>
		<path fill="#7DC8F0" d="M72.481,57.331H49.647c-0.408,0-0.742,0.416-0.742,0.924v7.639c0,0.508,0.334,0.922,0.742,0.922h22.834
			c0.407,0,0.74-0.414,0.74-0.922v-7.639C73.222,57.747,72.889,57.331,72.481,57.331z M63.468,62.932H58.66
			c-0.475,0-0.859-0.385-0.859-0.859s0.385-0.859,0.859-0.859h4.808c0.476,0,0.86,0.385,0.86,0.859S63.943,62.932,63.468,62.932z"/>
		<path fill="#7DC8F0" d="M72.481,69.364H49.647c-0.408,0-0.742,0.414-0.742,0.922v7.639c0,0.508,0.334,0.924,0.742,0.924h22.834
			c0.407,0,0.74-0.416,0.74-0.924v-7.639C73.222,69.778,72.889,69.364,72.481,69.364z M63.468,74.965H58.66
			c-0.475,0-0.859-0.385-0.859-0.859s0.385-0.861,0.859-0.861h4.808c0.476,0,0.86,0.387,0.86,0.861S63.943,74.965,63.468,74.965z"/>
		<path fill="#009FE4" d="M63.468,61.213H58.66c-0.475,0-0.859,0.385-0.859,0.859s0.385,0.859,0.859,0.859h4.808
			c0.476,0,0.86-0.385,0.86-0.859S63.943,61.213,63.468,61.213z"/>
		<path fill="#009FE4" d="M63.468,73.245H58.66c-0.475,0-0.859,0.387-0.859,0.861s0.385,0.859,0.859,0.859h4.808
			c0.476,0,0.86-0.385,0.86-0.859S63.943,73.245,63.468,73.245z"/>
	</g>
</g>
</svg>
