<?xml version="1.0" encoding="utf-8"?>
<!-- Generator: Adobe Illustrator 16.0.0, SVG Export Plug-In . SVG Version: 6.00 Build 0)  -->
<!DOCTYPE svg PUBLIC "-//W3C//DTD SVG 1.1//EN" "http://www.w3.org/Graphics/SVG/1.1/DTD/svg11.dtd">
<svg version="1.1" id="Lager_1" xmlns="http://www.w3.org/2000/svg" xmlns:xlink="http://www.w3.org/1999/xlink" x="0px" y="0px"
	 viewBox="0 0 74.183 74.183" enable-background="new 0 0 74.183 74.183" xml:space="preserve">
<g>
	<circle fill-rule="evenodd" clip-rule="evenodd" fill="#E6007E" cx="29.286" cy="42.067" r="9.052"/>
	<circle fill-rule="evenodd" clip-rule="evenodd" fill="#FFFFFF" cx="29.286" cy="42.066" r="4.526"/>
	<path fill="#FFB900" d="M56.482,23.064c0.318,0,0.58,0.26,0.58,0.578v14.906c0,0.318,0.258,0.578,0.578,0.578h8.947
		c0.318,0,0.578-0.26,0.578-0.578V34.39c0-0.318-0.26-0.578-0.578-0.578h-0.93c-0.502,0-0.883-0.234-0.883-0.697v-0.504
		c0-0.547,0.324-0.84,0.883-0.84h2.262c0.91,0,1.287,0.699,1.287,1.365v10.713c0,0.32,0.246,0.494,0.547,0.391
		c0,0,0.395-0.137,0.918-0.137c1.938,0,3.508,1.572,3.508,3.508s-1.57,3.508-3.508,3.508c-1.693,0-3.105-1.201-3.432-2.797
		c-0.049-0.229-0.049-0.229-0.049-0.229c-0.014-0.266-0.025-0.742-0.025-1.061v-4.387c0-0.318-0.26-0.58-0.578-0.58H40.957
		c-0.318,0-0.598-0.26-0.617-0.576c0,0-0.104-1.463-0.371-2.414c-1.307-4.668-5.602-8.102-10.683-8.102
		c-5.07,0-9.361,3.424-10.678,8.08c-0.271,0.959-0.373,2.436-0.373,2.436c-0.023,0.316-0.302,0.576-0.618,0.576H0.58
		c-0.318,0-0.576-0.26-0.576-0.578V23.643c0-0.318,0.258-0.578,0.576-0.578H56.482z"/>
</g>
</svg>
