<?xml version="1.0" encoding="utf-8"?>
<!-- Generator: Adobe Illustrator 16.0.0, SVG Export Plug-In . SVG Version: 6.00 Build 0)  -->
<!DOCTYPE svg PUBLIC "-//W3C//DTD SVG 1.1//EN" "http://www.w3.org/Graphics/SVG/1.1/DTD/svg11.dtd">
<svg version="1.1" id="Lager_1" xmlns="http://www.w3.org/2000/svg" xmlns:xlink="http://www.w3.org/1999/xlink" x="0px" y="0px"
	 viewBox="0 0 74.183 74.183" enable-background="new 0 0 74.183 74.183" xml:space="preserve">
<g>
	<circle fill-rule="evenodd" clip-rule="evenodd" fill="#009FE4" cx="29.287" cy="42.067" r="9.052"/>
	<circle fill-rule="evenodd" clip-rule="evenodd" fill="#FFFFFF" cx="29.287" cy="42.066" r="4.526"/>
	<path fill="#B0CB0B" d="M56.484,23.064c0.317,0,0.578,0.26,0.578,0.578v14.906c0,0.318,0.261,0.578,0.579,0.578h8.947
		c0.318,0,0.579-0.26,0.579-0.578V34.39c0-0.318-0.261-0.578-0.579-0.578H65.66c-0.504,0-0.885-0.234-0.885-0.697v-0.504
		c0-0.547,0.326-0.84,0.885-0.84h2.262c0.909,0,1.286,0.699,1.286,1.365v10.713c0,0.32,0.247,0.494,0.548,0.391
		c0,0,0.393-0.137,0.918-0.137c1.937,0,3.505,1.572,3.505,3.508s-1.568,3.508-3.505,3.508c-1.69,0-3.105-1.201-3.436-2.797
		c-0.045-0.229-0.045-0.229-0.045-0.229c-0.014-0.266-0.025-0.742-0.025-1.061v-4.387c0-0.318-0.261-0.58-0.579-0.58H40.958
		c-0.317,0-0.597-0.26-0.618-0.576c0,0-0.103-1.463-0.371-2.414c-1.308-4.668-5.601-8.102-10.682-8.102
		c-5.073,0-9.36,3.424-10.676,8.08c-0.272,0.959-0.375,2.436-0.375,2.436c-0.022,0.316-0.303,0.576-0.619,0.576H0.583
		c-0.318,0-0.579-0.26-0.579-0.578V23.643c0-0.318,0.261-0.578,0.579-0.578H56.484z"/>
</g>
</svg>
