<?xml version="1.0" encoding="utf-8"?>
<!-- Generator: Adobe Illustrator 16.0.0, SVG Export Plug-In . SVG Version: 6.00 Build 0)  -->
<!DOCTYPE svg PUBLIC "-//W3C//DTD SVG 1.1//EN" "http://www.w3.org/Graphics/SVG/1.1/DTD/svg11.dtd">
<svg version="1.1" id="Lager_1" xmlns="http://www.w3.org/2000/svg" xmlns:xlink="http://www.w3.org/1999/xlink" x="0px" y="0px"
	 viewBox="0 0 74.183 74.183" enable-background="new 0 0 74.183 74.183" xml:space="preserve">
<g>
	<circle fill-rule="evenodd" clip-rule="evenodd" fill="#FFB900" cx="29.284" cy="42.067" r="9.052"/>
	<circle fill-rule="evenodd" clip-rule="evenodd" fill="#FFFFFF" cx="29.285" cy="42.066" r="4.525"/>
	<path fill="#009FE4" d="M56.482,23.064c0.318,0,0.579,0.26,0.579,0.578v14.906c0,0.318,0.261,0.578,0.578,0.578h8.948
		c0.318,0,0.577-0.26,0.577-0.578V34.39c0-0.318-0.259-0.578-0.577-0.578H65.66c-0.505,0-0.884-0.234-0.884-0.697v-0.504
		c0-0.547,0.323-0.84,0.884-0.84h2.261c0.909,0,1.286,0.699,1.286,1.365v10.713c0,0.32,0.246,0.494,0.547,0.391
		c0,0,0.394-0.137,0.918-0.137c1.937,0,3.508,1.572,3.508,3.508s-1.571,3.508-3.508,3.508c-1.692,0-3.104-1.201-3.433-2.797
		c-0.048-0.229-0.048-0.229-0.048-0.229c-0.014-0.266-0.026-0.742-0.026-1.061v-4.387c0-0.318-0.259-0.58-0.577-0.58H40.956
		c-0.318,0-0.598-0.26-0.619-0.576c0,0-0.102-1.463-0.369-2.414c-1.311-4.668-5.604-8.102-10.684-8.102
		c-5.072,0-9.36,3.424-10.676,8.08c-0.271,0.959-0.375,2.436-0.375,2.436c-0.022,0.316-0.302,0.576-0.619,0.576H0.581
		c-0.318,0-0.578-0.26-0.578-0.578V23.643c0-0.318,0.26-0.578,0.578-0.578H56.482z"/>
</g>
</svg>
