<?xml version="1.0" encoding="utf-8"?>
<!-- Generator: Adobe Illustrator 16.0.0, SVG Export Plug-In . SVG Version: 6.00 Build 0)  -->
<!DOCTYPE svg PUBLIC "-//W3C//DTD SVG 1.1//EN" "http://www.w3.org/Graphics/SVG/1.1/DTD/svg11.dtd">
<svg version="1.1" id="Lager_1" xmlns="http://www.w3.org/2000/svg" xmlns:xlink="http://www.w3.org/1999/xlink" x="0px" y="0px"
	 viewBox="0 0 68.031 68.031" enable-background="new 0 0 68.031 68.031" xml:space="preserve">
<path fill="#C8E6FA" d="M66.548,34.018c0-0.631-0.187-1.047-0.386-1.318c-0.439-0.691-1.207-1.154-2.087-1.154h-1.752h-5.206
	c-0.965,0-1.194-0.557-0.513-1.238l1.246-1.25l2.485-2.484c0.624-0.621,0.838-1.491,0.659-2.29
	c-0.051-0.334-0.212-0.761-0.659-1.206c-0.445-0.446-0.871-0.608-1.206-0.66c-0.799-0.178-1.667,0.038-2.289,0.66l-1.237,1.237
	c0,0.001-0.001,0.001-0.002,0.002l-2.996,2.995l-2.996,2.996c-0.682,0.682-2.027,1.238-2.99,1.238h-6.567
	c-0.963,0-1.356-0.682-0.876-1.516l1.642-2.846l1.642-2.844c0.482-0.834,1.638-1.721,2.568-1.971l4.092-1.097l4.091-1.096
	c0.002,0,0.002,0,0.002,0l1.69-0.453c0.851-0.229,1.471-0.874,1.715-1.654c0.123-0.314,0.199-0.766,0.034-1.374
	c-0.164-0.611-0.451-0.965-0.717-1.175c-0.602-0.554-1.462-0.801-2.311-0.574l-1.692,0.453l0,0l-1.704,0.458l-1.703,0.456
	c-0.931,0.249-1.3-0.229-0.817-1.062l1.302-2.256l1.302-2.256c0.002-0.001,0.002-0.002,0.002-0.003l0.874-1.515
	c0.439-0.762,0.423-1.658,0.043-2.383c-0.136-0.311-0.401-0.68-0.948-0.994c-0.545-0.315-1-0.36-1.336-0.324
	c-0.817,0.035-1.601,0.468-2.041,1.229l-2.178,3.771l-1.302,2.256c-0.48,0.834-1.077,0.755-1.328-0.171l-0.457-1.709l-0.457-1.703
	c0-0.002-0.002-0.005-0.002-0.007l-0.45-1.685c-0.23-0.852-0.876-1.474-1.658-1.716c-0.314-0.122-0.765-0.196-1.371-0.033
	c-0.607,0.162-0.962,0.451-1.174,0.716c-0.553,0.602-0.802,1.462-0.574,2.311l0.451,1.688c0.001,0.003,0.001,0.005,0.001,0.007
	l1.332,4.965l0.864,3.222c0.247,0.93,0.057,2.371-0.423,3.204l-1.643,2.846l-1.644,2.844c-0.479,0.834-1.267,0.834-1.75,0.004
	L31.5,24.71l-1.643-2.846c-0.482-0.833-0.674-2.277-0.423-3.207l0.976-3.642l1.67-6.235c0.229-0.85-0.02-1.71-0.575-2.312
	c-0.212-0.266-0.563-0.554-1.172-0.716c-0.612-0.163-1.062-0.089-1.377,0.033c-0.78,0.244-1.424,0.865-1.651,1.715L26.502,10.5
	l-0.564,2.102c-0.249,0.93-0.847,1.01-1.327,0.179L21.128,6.75c-0.44-0.761-1.223-1.193-2.04-1.229
	c-0.336-0.038-0.791,0.007-1.338,0.324c-0.545,0.315-0.812,0.685-0.948,0.995c-0.379,0.725-0.396,1.62,0.044,2.382l0.872,1.513
	c0.002,0.002,0.003,0.004,0.003,0.005l2.604,4.51c0.482,0.834,0.114,1.313-0.816,1.063l-1.705-0.456l-3.396-0.911
	c-0.85-0.228-1.711,0.021-2.313,0.576c-0.264,0.211-0.552,0.563-0.714,1.173c-0.163,0.608-0.091,1.06,0.032,1.374
	c0.245,0.78,0.865,1.426,1.715,1.654l1.69,0.453c0.001,0,0.001,0,0.002,0l4.093,1.097l4.094,1.098
	c0.932,0.248,2.086,1.136,2.568,1.97l1.642,2.843l1.645,2.846c0.479,0.834,0.084,1.516-0.878,1.516h-6.57
	c-0.964,0-2.31-0.557-2.991-1.238l-2.995-2.996l-2.997-2.995c-0.001-0.001-0.001-0.001-0.002-0.002l-1.237-1.237
	c-0.621-0.623-1.49-0.838-2.29-0.658c-0.335,0.051-0.759,0.213-1.206,0.658c-0.446,0.445-0.606,0.872-0.657,1.206
	c-0.18,0.799,0.036,1.668,0.659,2.29l1.232,1.234c0.002,0.002,0.004,0.004,0.006,0.004l1.247,1.248l1.25,1.25
	c0.678,0.68,0.447,1.236-0.517,1.236H5.709H3.957c-0.879,0-1.646,0.463-2.085,1.154c-0.201,0.271-0.388,0.688-0.388,1.318
	c0,0.629,0.187,1.045,0.388,1.316c0.438,0.693,1.206,1.154,2.085,1.154h1.752h5.206c0.967,0,1.195,0.559,0.513,1.24l-2.493,2.496
	c-0.002,0-0.003,0.002-0.003,0.002l-1.235,1.236c-0.623,0.621-0.839,1.49-0.659,2.291c0.051,0.334,0.212,0.758,0.659,1.205
	c0.481,0.482,1.115,0.723,1.747,0.723s0.632,0,0.632,0c0.074-0.047,0.154-0.102,0.24-0.162c0.318-0.119,0.619-0.303,0.875-0.561
	l4.236-4.234l2.995-2.998c0.682-0.68,2.027-1.238,2.991-1.238h6.57c0.962,0,1.356,0.682,0.878,1.516l-2.301,3.984l-0.986,1.709
	c-0.481,0.832-1.636,1.717-2.566,1.969l-4.096,1.096l-4.093,1.098c-0.001,0-0.002,0.002-0.003,0.002l-1.688,0.451
	c-0.85,0.227-1.47,0.873-1.715,1.654c-0.123,0.314-0.196,0.764-0.033,1.375s0.453,0.965,0.718,1.176
	c0.603,0.551,1.461,0.797,2.311,0.572l1.688-0.455c0,0,0.002,0,0.003,0l1.704-0.455l1.706-0.457c0.93-0.248,1.297,0.23,0.815,1.064
	l-2.604,4.51c0,0-0.001,0.002-0.003,0.004l-0.872,1.514c-0.44,0.76-0.423,1.656-0.044,2.381c0.136,0.311,0.403,0.68,0.948,0.996
	c0.389,0.225,0.813,0.33,1.232,0.33c0.856,0,0.88-0.023,0.88-0.023c0.081-0.076,0.165-0.162,0.251-0.252
	c0.409-0.211,0.767-0.533,1.015-0.961l1.788-3.098l1.692-2.93c0.48-0.836,1.079-0.756,1.329,0.176l0.457,1.705l0.909,3.395
	c0.159,0.59,0.518,1.064,0.982,1.387c0.01,0.016,0.021,0.031,0.029,0.047c0,0,0.283,0.4,1.374,0.4c0.213,0,0.428-0.027,0.643-0.084
	c0.609-0.164,0.961-0.451,1.173-0.715c0.556-0.604,0.802-1.465,0.575-2.314l-0.452-1.688c0,0,0-0.002-0.001-0.004l-1.098-4.092
	l-1.097-4.096c-0.249-0.93-0.059-2.369,0.421-3.203l3.289-5.697c0.483-0.83,1.271-0.83,1.75,0.004l1.644,2.844l1.641,2.846
	c0.483,0.834,0.673,2.277,0.423,3.209l-1.097,4.092l-1.096,4.094l0,0l-0.454,1.691c-0.228,0.85,0.021,1.711,0.576,2.314
	c0.21,0.262,0.564,0.551,1.172,0.713c0.215,0.059,0.43,0.086,0.643,0.086c1.091,0,1.375-0.4,1.375-0.4
	c0.011-0.016,0.02-0.033,0.03-0.047c0.463-0.322,0.824-0.797,0.981-1.387l0.617-2.303l0.749-2.797
	c0.248-0.932,0.847-1.01,1.328-0.176l1.302,2.256l2.178,3.771c0.247,0.428,0.604,0.75,1.013,0.961
	c0.086,0.09,0.171,0.176,0.251,0.252c0,0,0.025,0.023,0.88,0.023c0.419,0,0.845-0.105,1.233-0.33
	c0.547-0.316,0.813-0.686,0.948-0.994c0.38-0.727,0.396-1.621-0.043-2.383l-0.874-1.516c0-0.002,0-0.002-0.002-0.002l-1.302-2.256
	l-1.302-2.256c-0.482-0.834-0.113-1.313,0.817-1.063l1.703,0.457l3.396,0.91c0.847,0.225,1.706-0.021,2.308-0.572
	c0.267-0.211,0.556-0.564,0.72-1.176c0.165-0.611,0.089-1.061-0.034-1.375c-0.244-0.781-0.864-1.428-1.715-1.654l-1.69-0.453
	c0,0,0,0-0.002,0l-8.183-2.191c-0.93-0.252-2.086-1.139-2.568-1.971l-1.642-2.846l-1.642-2.846
	c-0.482-0.834-0.087-1.518,0.875-1.518h6.568c0.962,0,2.306,0.557,2.988,1.238l2.998,2.998l2.996,2.996
	c0.005,0.004,0.009,0.008,0.013,0.012l1.227,1.227c0.257,0.258,0.558,0.441,0.876,0.561c0.085,0.061,0.166,0.115,0.239,0.164
	c0,0,0,0,0.633,0s1.266-0.24,1.747-0.723c0.447-0.449,0.608-0.873,0.659-1.207c0.179-0.801-0.036-1.668-0.659-2.291l-2.486-2.488
	l-1.247-1.248c-0.682-0.68-0.45-1.238,0.513-1.238h5.208h1.752c0.88,0,1.647-0.461,2.087-1.154
	C66.361,35.063,66.548,34.646,66.548,34.018z"/>
</svg>
