<?xml version="1.0" encoding="utf-8"?>
<!-- Generator: Adobe Illustrator 16.0.0, SVG Export Plug-In . SVG Version: 6.00 Build 0)  -->
<!DOCTYPE svg PUBLIC "-//W3C//DTD SVG 1.1//EN" "http://www.w3.org/Graphics/SVG/1.1/DTD/svg11.dtd">
<svg version="1.1" id="Lager_1" xmlns="http://www.w3.org/2000/svg" xmlns:xlink="http://www.w3.org/1999/xlink" x="0px" y="0px"
	 viewBox="0 0 68.032 68.032" enable-background="new 0 0 68.032 68.032" xml:space="preserve">
<path fill="#009FE4" d="M66.547,34.016c0-0.629-0.188-1.045-0.389-1.318c-0.438-0.691-1.204-1.152-2.084-1.152h-1.753h-5.205
	c-0.965,0-1.195-0.559-0.514-1.24l1.246-1.248l2.486-2.484c0.623-0.623,0.837-1.492,0.658-2.291
	c-0.05-0.334-0.212-0.761-0.658-1.206c-0.446-0.446-0.871-0.608-1.207-0.66c-0.799-0.178-1.666,0.038-2.288,0.66l-1.238,1.237
	c0,0.001,0,0.001-0.003,0.002l-2.995,2.994l-2.996,2.998c-0.681,0.68-2.028,1.238-2.99,1.238H40.05
	c-0.963,0-1.356-0.684-0.875-1.518l1.642-2.844l1.642-2.845c0.48-0.834,1.636-1.721,2.568-1.971l4.092-1.097l4.09-1.096
	c0.002,0,0.002,0,0.002,0l1.691-0.453c0.849-0.229,1.471-0.874,1.715-1.654c0.123-0.314,0.197-0.766,0.033-1.374
	c-0.164-0.611-0.452-0.965-0.719-1.175c-0.601-0.554-1.461-0.801-2.31-0.574l-1.69,0.453c-0.001,0-0.001,0-0.001,0l-1.704,0.458
	l-1.703,0.456c-0.93,0.249-1.299-0.229-0.817-1.062l1.303-2.256l1.3-2.256c0.002-0.001,0.002-0.002,0.002-0.003l0.875-1.515
	c0.44-0.762,0.423-1.658,0.043-2.383c-0.136-0.311-0.4-0.68-0.947-0.994c-0.547-0.315-1-0.36-1.336-0.324
	c-0.818,0.035-1.603,0.468-2.042,1.229l-2.177,3.771l-1.302,2.256c-0.48,0.834-1.078,0.755-1.329-0.171l-0.457-1.709l-0.457-1.703
	c0-0.002-0.002-0.005-0.002-0.007l-0.45-1.685C40.5,6.65,39.853,6.028,39.072,5.786c-0.314-0.122-0.765-0.196-1.371-0.033
	c-0.61,0.162-0.963,0.451-1.174,0.716c-0.554,0.602-0.803,1.462-0.574,2.311l0.451,1.688c0.001,0.003,0.001,0.005,0.001,0.007
	l1.331,4.965L38.6,18.66c0.247,0.93,0.058,2.371-0.425,3.204l-1.641,2.846l-1.643,2.845c-0.48,0.832-1.268,0.834-1.75,0.002
	L31.5,24.71l-1.644-2.846c-0.481-0.833-0.673-2.277-0.423-3.207l0.976-3.642L32.08,8.78c0.229-0.85-0.021-1.71-0.576-2.312
	c-0.21-0.266-0.564-0.554-1.172-0.716c-0.611-0.163-1.063-0.089-1.376,0.033c-0.781,0.244-1.425,0.865-1.651,1.715L26.5,10.5
	l-0.563,2.102c-0.249,0.93-0.846,1.01-1.328,0.179l-3.482-6.031c-0.439-0.761-1.222-1.193-2.038-1.229
	c-0.336-0.038-0.792,0.007-1.339,0.324c-0.546,0.315-0.812,0.685-0.947,0.995c-0.381,0.725-0.396,1.62,0.044,2.382l0.871,1.513
	c0.002,0.002,0.002,0.004,0.004,0.005l2.604,4.51c0.482,0.834,0.115,1.313-0.817,1.063l-1.703-0.456l-3.396-0.911
	c-0.851-0.228-1.71,0.021-2.313,0.576c-0.266,0.211-0.553,0.563-0.716,1.173c-0.164,0.608-0.089,1.06,0.033,1.374
	c0.244,0.78,0.866,1.426,1.715,1.654l1.691,0.453c0.001,0,0.001,0,0.002,0l4.093,1.097l4.094,1.098
	c0.93,0.248,2.086,1.136,2.567,1.97l1.643,2.844l1.644,2.846c0.479,0.834,0.085,1.516-0.877,1.516h-6.571
	c-0.964,0-2.309-0.559-2.991-1.238l-2.995-2.998l-2.996-2.994c-0.001-0.001-0.001-0.001-0.002-0.002l-1.237-1.237
	c-0.622-0.623-1.492-0.838-2.29-0.658c-0.335,0.051-0.76,0.213-1.207,0.658c-0.445,0.445-0.606,0.872-0.656,1.206
	c-0.182,0.798,0.035,1.667,0.658,2.291l1.232,1.234c0.002,0,0.005,0.002,0.005,0.004l1.249,1.246l1.249,1.252
	c0.678,0.68,0.446,1.236-0.516,1.236H5.708H3.956c-0.879,0-1.646,0.463-2.085,1.152c-0.2,0.273-0.387,0.689-0.387,1.318
	c0,0.631,0.187,1.047,0.387,1.318c0.438,0.691,1.206,1.154,2.085,1.154h1.753h5.206c0.964,0,1.194,0.557,0.513,1.238l-2.495,2.498
	c0,0-0.001,0-0.003,0.002l-1.234,1.236c-0.623,0.621-0.84,1.488-0.658,2.289c0.05,0.334,0.211,0.76,0.658,1.207
	c0.481,0.48,1.114,0.723,1.747,0.723s0.633,0,0.633,0c0.073-0.047,0.154-0.104,0.239-0.162c0.318-0.121,0.619-0.305,0.876-0.561
	l4.235-4.236l2.995-2.996c0.682-0.682,2.027-1.238,2.991-1.238h6.571c0.962,0,1.356,0.682,0.877,1.516l-2.302,3.982l-0.984,1.709
	c-0.481,0.834-1.637,1.719-2.566,1.971l-4.096,1.096l-4.093,1.098c-0.001,0-0.002,0-0.003,0l-1.689,0.453
	c-0.849,0.227-1.471,0.873-1.715,1.654c-0.122,0.314-0.197,0.764-0.033,1.373c0.163,0.613,0.453,0.967,0.719,1.178
	c0.603,0.551,1.461,0.797,2.308,0.57l1.69-0.453c0.002,0,0.002,0,0.004,0l1.704-0.457l1.705-0.457
	c0.931-0.248,1.298,0.232,0.815,1.064l-2.604,4.51c-0.002,0-0.002,0.002-0.004,0.004l-0.871,1.516
	c-0.44,0.76-0.425,1.654-0.044,2.381c0.136,0.311,0.401,0.68,0.947,0.994c0.39,0.225,0.813,0.332,1.233,0.332
	c0.855,0,0.88-0.025,0.88-0.025c0.08-0.074,0.165-0.162,0.25-0.252c0.409-0.209,0.768-0.533,1.014-0.959l1.789-3.098l1.691-2.93
	c0.482-0.836,1.081-0.756,1.33,0.174l0.457,1.705l0.909,3.396c0.158,0.588,0.519,1.064,0.981,1.387
	c0.011,0.014,0.02,0.029,0.03,0.045c0,0,0.283,0.402,1.375,0.402c0.213,0,0.428-0.029,0.643-0.086
	c0.607-0.162,0.962-0.451,1.172-0.715c0.555-0.602,0.803-1.463,0.576-2.313l-0.452-1.688c0-0.002,0-0.004-0.002-0.006l-1.097-4.092
	l-1.098-4.096c-0.248-0.93-0.059-2.367,0.423-3.203l3.288-5.695c0.482-0.832,1.27-0.83,1.75,0.002l1.643,2.846l1.641,2.844
	c0.482,0.836,0.674,2.279,0.423,3.209l-1.097,4.094l-1.096,4.092v0.002l-0.453,1.689c-0.229,0.852,0.021,1.713,0.575,2.314
	c0.21,0.264,0.563,0.553,1.173,0.715c0.214,0.057,0.43,0.086,0.641,0.086c1.093,0,1.376-0.402,1.376-0.402
	c0.01-0.016,0.021-0.033,0.03-0.045c0.463-0.322,0.822-0.799,0.981-1.389l0.616-2.303l0.75-2.797c0.248-0.93,0.848-1.01,1.329-0.174
	l1.302,2.254l2.177,3.773c0.248,0.426,0.604,0.75,1.013,0.959c0.087,0.09,0.172,0.178,0.252,0.252c0,0,0.024,0.025,0.879,0.025
	c0.419,0,0.845-0.107,1.234-0.332c0.547-0.314,0.813-0.684,0.947-0.994c0.38-0.727,0.397-1.621-0.043-2.381l-0.875-1.518
	c0,0,0-0.002-0.002-0.002l-1.3-2.256l-1.303-2.254c-0.481-0.836-0.112-1.313,0.817-1.064l1.703,0.457l3.396,0.91
	c0.849,0.227,1.707-0.02,2.31-0.572c0.265-0.209,0.555-0.563,0.719-1.176c0.164-0.609,0.09-1.059-0.033-1.373
	c-0.244-0.781-0.866-1.428-1.715-1.654L53.21,47.86c0,0,0,0-0.002,0l-8.182-2.193c-0.931-0.25-2.088-1.137-2.568-1.971l-1.642-2.846
	l-1.642-2.844c-0.482-0.836-0.088-1.518,0.875-1.518h6.567c0.962,0,2.306,0.557,2.989,1.236l2.997,2.998l2.995,2.996
	c0.007,0.004,0.011,0.01,0.015,0.012l1.227,1.229c0.255,0.256,0.557,0.439,0.875,0.561c0.086,0.059,0.166,0.115,0.24,0.162
	c0,0,0,0,0.632,0c0.633,0,1.266-0.24,1.748-0.723c0.446-0.447,0.608-0.873,0.658-1.207c0.179-0.801-0.037-1.668-0.658-2.289
	l-2.486-2.488l-1.248-1.248c-0.682-0.682-0.451-1.238,0.514-1.238h5.207h1.753c0.88,0,1.646-0.463,2.084-1.154
	C66.36,35.063,66.547,34.647,66.547,34.016z"/>
</svg>
