<?xml version="1.0" encoding="utf-8"?>
<!-- Generator: Adobe Illustrator 16.0.0, SVG Export Plug-In . SVG Version: 6.00 Build 0)  -->
<!DOCTYPE svg PUBLIC "-//W3C//DTD SVG 1.1//EN" "http://www.w3.org/Graphics/SVG/1.1/DTD/svg11.dtd">
<svg version="1.1" id="Lager_1" xmlns="http://www.w3.org/2000/svg" xmlns:xlink="http://www.w3.org/1999/xlink" x="0px" y="0px"
	 viewBox="0 0 68.032 68.032" enable-background="new 0 0 68.032 68.032" xml:space="preserve">
<path fill="#7DC8F0" d="M66.548,34.017c0-0.63-0.188-1.046-0.387-1.318c-0.439-0.691-1.207-1.153-2.086-1.153h-1.752h-5.207
	c-0.965,0-1.195-0.558-0.514-1.239l1.246-1.249l2.488-2.484c0.621-0.622,0.836-1.491,0.658-2.29
	c-0.051-0.334-0.213-0.761-0.658-1.206c-0.447-0.446-0.873-0.608-1.209-0.66c-0.797-0.178-1.666,0.038-2.289,0.66l-1.236,1.237
	c-0.002,0.001-0.002,0.001-0.002,0.002l-2.996,2.994l-2.996,2.997c-0.682,0.681-2.027,1.238-2.99,1.238h-6.566
	c-0.965,0-1.357-0.683-0.877-1.517l1.643-2.845l1.643-2.845c0.48-0.834,1.635-1.721,2.566-1.971l4.094-1.097l4.09-1.096l0,0
	l1.691-0.453c0.85-0.229,1.471-0.874,1.715-1.654c0.125-0.314,0.197-0.766,0.033-1.374c-0.164-0.611-0.451-0.965-0.717-1.175
	c-0.602-0.554-1.463-0.801-2.311-0.574l-1.691,0.453l0,0l-1.705,0.458l-1.703,0.456c-0.93,0.249-1.297-0.229-0.816-1.062
	l1.303-2.256l1.301-2.256c0-0.001,0-0.002,0-0.003l0.875-1.515c0.439-0.762,0.424-1.658,0.043-2.383
	c-0.135-0.311-0.4-0.68-0.947-0.994c-0.545-0.315-1-0.36-1.336-0.324c-0.816,0.035-1.602,0.468-2.041,1.229l-2.178,3.771
	l-1.301,2.256c-0.482,0.834-1.078,0.755-1.328-0.171l-0.459-1.709l-0.455-1.703c-0.002-0.002-0.002-0.005-0.004-0.007L40.73,7.502
	c-0.229-0.852-0.877-1.474-1.658-1.716c-0.314-0.122-0.764-0.196-1.371-0.033c-0.609,0.162-0.963,0.451-1.172,0.716
	c-0.555,0.602-0.805,1.462-0.576,2.311l0.453,1.688c0,0.003,0,0.005,0,0.007l1.332,4.965l0.863,3.222
	c0.248,0.93,0.057,2.371-0.424,3.204l-1.643,2.846l-1.641,2.845c-0.482,0.833-1.27,0.834-1.752,0.003L31.5,24.71l-1.642-2.846
	c-0.483-0.833-0.674-2.277-0.423-3.207l0.975-3.642l1.67-6.235c0.229-0.85-0.02-1.71-0.576-2.312
	c-0.21-0.266-0.564-0.554-1.171-0.716c-0.611-0.163-1.062-0.089-1.375,0.033c-0.781,0.244-1.427,0.865-1.653,1.715L26.501,10.5
	l-0.563,2.102c-0.251,0.93-0.847,1.01-1.33,0.179L21.127,6.75c-0.439-0.761-1.222-1.193-2.039-1.229
	c-0.336-0.038-0.792,0.007-1.338,0.324c-0.546,0.315-0.813,0.685-0.947,0.995c-0.381,0.725-0.397,1.62,0.043,2.382l0.872,1.513
	c0.002,0.002,0.002,0.004,0.002,0.005l2.605,4.51c0.481,0.834,0.114,1.313-0.817,1.063l-1.704-0.456l-3.396-0.911
	c-0.851-0.228-1.711,0.021-2.313,0.576c-0.265,0.211-0.552,0.563-0.715,1.173c-0.163,0.608-0.091,1.06,0.032,1.374
	c0.246,0.78,0.866,1.426,1.716,1.654l1.689,0.453c0.001,0,0.002,0,0.002,0l4.093,1.097l4.096,1.098
	c0.93,0.248,2.085,1.136,2.566,1.97l1.643,2.844l1.645,2.846c0.479,0.834,0.084,1.516-0.879,1.516h-6.57
	c-0.963,0-2.308-0.558-2.99-1.238l-2.995-2.997l-2.997-2.994c0-0.001-0.001-0.001-0.002-0.002l-1.236-1.237
	c-0.623-0.623-1.492-0.838-2.291-0.658c-0.334,0.051-0.76,0.213-1.206,0.658s-0.607,0.872-0.657,1.206
	c-0.18,0.799,0.036,1.668,0.657,2.29l1.233,1.234c0.002,0.001,0.004,0.003,0.005,0.004l1.249,1.247l1.249,1.251
	c0.679,0.68,0.447,1.236-0.516,1.236H5.709H3.955c-0.877,0-1.645,0.463-2.085,1.153c-0.198,0.272-0.387,0.688-0.387,1.318
	s0.188,1.046,0.387,1.317c0.44,0.692,1.208,1.154,2.085,1.154h1.754h5.206c0.966,0,1.194,0.558,0.514,1.239l-2.496,2.497
	c-0.001,0-0.001,0.001-0.003,0.002l-1.235,1.236c-0.621,0.621-0.837,1.489-0.657,2.29c0.05,0.334,0.211,0.759,0.657,1.206
	c0.483,0.481,1.116,0.723,1.748,0.723c0.634,0,0.634,0,0.634,0c0.073-0.047,0.153-0.103,0.238-0.162
	c0.319-0.12,0.62-0.304,0.877-0.561l4.235-4.235l2.995-2.997c0.682-0.681,2.027-1.238,2.99-1.238h6.57
	c0.963,0,1.357,0.682,0.879,1.516l-2.301,3.983l-0.986,1.709c-0.481,0.833-1.637,1.718-2.566,1.97l-4.096,1.096l-4.093,1.098
	c-0.002,0-0.003,0.001-0.003,0.001l-1.689,0.452c-0.849,0.227-1.471,0.873-1.715,1.654c-0.123,0.314-0.195,0.764-0.032,1.374
	c0.163,0.612,0.452,0.966,0.719,1.177c0.601,0.551,1.461,0.797,2.309,0.571l1.688-0.454c0.001,0,0.002,0,0.004,0l1.704-0.456
	l1.706-0.457c0.93-0.248,1.297,0.231,0.815,1.064l-2.605,4.51c0,0,0,0.002-0.002,0.004l-0.872,1.515
	c-0.44,0.76-0.424,1.655-0.043,2.381c0.135,0.311,0.401,0.68,0.947,0.995c0.39,0.225,0.813,0.331,1.233,0.331
	c0.854,0,0.878-0.024,0.878-0.024c0.082-0.075,0.165-0.162,0.252-0.252c0.409-0.21,0.766-0.533,1.014-0.96l1.788-3.098l1.693-2.93
	c0.481-0.836,1.079-0.756,1.328,0.175l0.457,1.705l0.91,3.396c0.157,0.589,0.519,1.064,0.982,1.387
	c0.009,0.015,0.02,0.03,0.028,0.046c0,0,0.284,0.401,1.375,0.401c0.214,0,0.427-0.028,0.643-0.085
	c0.607-0.163,0.961-0.451,1.171-0.715c0.557-0.603,0.803-1.464,0.576-2.313l-0.451-1.688c-0.002-0.001-0.002-0.003-0.002-0.005
	l-1.097-4.092l-1.098-4.096c-0.248-0.93-0.058-2.368,0.422-3.203l3.289-5.696c0.482-0.831,1.27-0.83,1.752,0.003l1.641,2.845
	l1.643,2.845c0.482,0.835,0.672,2.278,0.424,3.209l-1.098,4.093l-1.098,4.093v0.001l-0.451,1.69
	c-0.229,0.851,0.02,1.712,0.574,2.314c0.211,0.263,0.564,0.552,1.174,0.714c0.215,0.058,0.428,0.086,0.641,0.086
	c1.092,0,1.375-0.401,1.375-0.401c0.01-0.016,0.02-0.033,0.029-0.046c0.465-0.322,0.824-0.798,0.982-1.388l0.617-2.303l0.748-2.797
	c0.25-0.931,0.848-1.01,1.33-0.175l1.301,2.255l2.178,3.772c0.246,0.427,0.604,0.75,1.012,0.96c0.088,0.09,0.172,0.177,0.254,0.252
	c0,0,0.023,0.024,0.879,0.024c0.42,0,0.842-0.106,1.232-0.331c0.547-0.315,0.813-0.685,0.947-0.994
	c0.381-0.727,0.396-1.621-0.043-2.382l-0.875-1.517c0-0.001,0-0.002,0-0.002l-1.301-2.256l-1.303-2.255
	c-0.48-0.835-0.113-1.313,0.816-1.063l1.703,0.457l3.396,0.91c0.848,0.226,1.707-0.021,2.309-0.572
	c0.266-0.21,0.555-0.563,0.719-1.176c0.164-0.61,0.092-1.06-0.033-1.374c-0.244-0.781-0.865-1.428-1.715-1.654l-1.689-0.453H53.21
	l-8.182-2.192c-0.932-0.251-2.088-1.138-2.568-1.971l-1.643-2.846l-1.643-2.845c-0.482-0.835-0.088-1.518,0.877-1.518h6.566
	c0.963,0,2.305,0.557,2.988,1.237l2.998,2.998l2.996,2.996c0.004,0.004,0.01,0.009,0.014,0.012l1.225,1.228
	c0.258,0.257,0.559,0.44,0.877,0.561c0.086,0.06,0.166,0.115,0.238,0.163c0,0,0,0,0.633,0s1.268-0.24,1.75-0.723
	c0.445-0.448,0.607-0.873,0.658-1.207c0.178-0.801-0.037-1.668-0.658-2.29l-2.488-2.488l-1.248-1.248
	c-0.68-0.681-0.451-1.238,0.514-1.238h5.209h1.752c0.879,0,1.646-0.462,2.086-1.154C66.361,35.063,66.548,34.647,66.548,34.017z"/>
</svg>
