<?xml version="1.0" encoding="utf-8"?>
<!-- Generator: Adobe Illustrator 19.1.0, SVG Export Plug-In . SVG Version: 6.00 Build 0)  -->
<svg version="1.1" id="Lager_1" xmlns="http://www.w3.org/2000/svg" xmlns:xlink="http://www.w3.org/1999/xlink" x="0px" y="0px"
	 viewBox="91 40 62 62" style="enable-background:new 91 40 62 62;" xml:space="preserve">
<style type="text/css">
	.st0{fill:#009FE4;}
	.st1{fill:#FFFFFF;}
</style>
<path class="st0" d="M153,92.6c0,5.2-4.2,9.4-9.4,9.4h-43.2c-5.2,0-9.4-4.2-9.4-9.4V49.4c0-5.2,4.2-9.4,9.4-9.4h43.2
	c5.2,0,9.4,4.2,9.4,9.4V92.6z"/>
<path class="st1" d="M121.7,72l-14.9-7.6c-0.8-0.5-1.8,0.1-1.8,1v16.8c0,0.6,0.6,0.8,1.3,0.8h32c0.6,0,0.7-0.2,0.7-0.8V65.4
	c0-0.9-0.8-1.4-1.5-1L122.8,72C122.4,72.2,122.1,72.2,121.7,72z M137.6,58h-31.1c-1.4,0-1.9,1.6-0.7,2.2l15.5,8.1
	c0.4,0.2,1,0.3,1.4,0l15.5-8.2C139.4,59.6,138.9,58,137.6,58z"/>
</svg>
