<?xml version="1.0" encoding="utf-8"?>
<!-- Generator: Adobe Illustrator 19.1.0, SVG Export Plug-In . SVG Version: 6.00 Build 0)  -->
<svg version="1.1" id="Lager_1" xmlns="http://www.w3.org/2000/svg" xmlns:xlink="http://www.w3.org/1999/xlink" x="0px" y="0px"
	 viewBox="91 -26 62 62" style="enable-background:new 91 -26 62 62;" xml:space="preserve">
<style type="text/css">
	.st0{fill:#62CBEF;}
	.st1{fill:#FFFFFF;}
</style>
<path class="st0" d="M153,26.6c0,5.2-4.2,9.4-9.4,9.4h-43.2c-5.2,0-9.4-4.2-9.4-9.4v-43.2c0-5.2,4.2-9.4,9.4-9.4h43.2
	c5.2,0,9.4,4.2,9.4,9.4C153-16.6,153,26.6,153,26.6z"/>
<path class="st1" d="M144.1-6.3c-1.5,0.6-3,1.1-4.7,1.3c1.7-1,3-2.6,3.6-4.5c-1.6,0.9-3.3,1.6-5.2,2c-1.5-1.6-3.6-2.6-5.9-2.6
	c-4.5,0-8.1,3.6-8.1,8.1c0,0.6,0.1,1.3,0.2,1.9c-6.8-0.3-12.7-3.6-16.7-8.5c-0.7,1.2-1.1,2.6-1.1,4.1c0,2.8,1.4,5.3,3.6,6.8
	c-1.3,0-2.6-0.4-3.7-1v0.1c0,3.9,2.8,7.2,6.5,8c-0.7,0.2-1.4,0.3-2.1,0.3c-0.5,0-1-0.1-1.5-0.1c1,3.2,4,5.6,7.6,5.6
	c-2.8,2.2-6.3,3.5-10.1,3.5c-0.7,0-1.3,0-1.9-0.1c3.6,2.3,7.9,3.6,12.5,3.6c14.9,0,23.1-12.4,23.1-23.1V-2
	C141.7-3.3,143.1-4.7,144.1-6.3z"/>
</svg>
