<?xml version="1.0" encoding="utf-8"?>
<!-- Generator: Adobe Illustrator 19.1.0, SVG Export Plug-In . SVG Version: 6.00 Build 0)  -->
<svg version="1.1" id="Lager_1" xmlns="http://www.w3.org/2000/svg" xmlns:xlink="http://www.w3.org/1999/xlink" x="0px" y="0px"
	 viewBox="157 -26 62 62" style="enable-background:new 157 -26 62 62;" xml:space="preserve">
<style type="text/css">
	.st0{fill:#CB2029;}
	.st1{fill:#FFFFFF;}
</style>
<path class="st0" d="M219,26.6c0,5.2-4.2,9.4-9.4,9.4h-43.2c-5.2,0-9.4-4.2-9.4-9.4v-43.2c0-5.2,4.2-9.4,9.4-9.4h43.2
	c5.2,0,9.4,4.2,9.4,9.4C219-16.6,219,26.6,219,26.6z"/>
<path class="st1" d="M183.5-18.4h-2.7l-1.8,7l-1.9-7h-2.8c0.6,1.7,1.1,3.3,1.7,5c0.9,2.5,1.4,4.4,1.6,5.6v7.2h2.7v-7.2L183.5-18.4
	L183.5-18.4z M190.6-4.9v-4.7c0-1.4-0.2-2.5-0.7-3.1c-0.7-0.8-1.6-1.3-2.9-1.3c-1.2,0-2.1,0.5-2.8,1.4c-0.5,0.7-0.8,1.7-0.8,3.1v4.7
	c0,1.4,0.2,2.5,0.8,3.1c0.7,0.9,1.6,1.4,2.8,1.4c1.2,0,2.1-0.5,2.8-1.4C190.4-2.4,190.6-3.5,190.6-4.9z M188.2-4.4
	c0,1.2-0.4,1.8-1.1,1.8c-0.8,0-1.1-0.6-1.1-1.8V-10c0-1.2,0.4-1.8,1.1-1.8c0.8,0,1.1,0.6,1.1,1.8V-4.4z M199.5-0.6v-13.2h-2.4v10.1
	c-0.5,0.8-1,1.1-1.5,1.1c-0.3,0-0.5-0.2-0.6-0.6v-10.7h-2.4v10.5c0,0.9,0.1,1.6,0.2,2c0.2,0.7,0.8,1,1.5,1c0.9,0,1.8-0.5,2.7-1.6
	v1.4C197-0.6,199.5-0.6,199.5-0.6z M207.3,15.6c0,3.1,0,6.3-0.7,9.3c-0.5,2.1-2.2,3.6-4.3,3.9c-4.9,0.5-9.8,0.5-14.8,0.5
	c-4.9,0-9.9,0-14.8-0.5c-2.1-0.2-3.8-1.8-4.3-3.9c-0.7-3-0.7-6.2-0.7-9.3c0-3.1,0-6.3,0.7-9.3c0.5-2.1,2.2-3.6,4.3-3.9
	c4.9-0.5,9.8-0.5,14.8-0.5c4.9,0,9.9,0,14.8,0.5c2.1,0.2,3.8,1.8,4.3,3.9C207.3,9.2,207.3,12.5,207.3,15.6z"/>
<path class="st0" d="M179.1,8.9V6.4h-8.3v2.5h2.8v15.2h2.6V8.9H179.1z M183.9,24.1v-1.4c-0.9,1.1-1.8,1.6-2.7,1.6
	c-0.8,0-1.3-0.3-1.5-1c-0.1-0.4-0.2-1-0.2-2V10.9h2.4v10.6c0.1,0.4,0.2,0.6,0.6,0.6c0.5,0,1-0.4,1.5-1.1V11h2.4v13.1
	C186.4,24.1,183.9,24.1,183.9,24.1z M193,20.3c0,1.2-0.4,1.8-1,1.8c-0.4,0-0.8-0.2-1.2-0.6v-8c0.4-0.4,0.8-0.6,1.2-0.6
	c0.7,0,1,0.6,1,1.8C193,14.7,193,20.3,193,20.3z M195.4,20.1v-5.2c0-1.2-0.1-2.1-0.2-2.6c-0.3-1-1-1.5-1.9-1.5s-1.7,0.5-2.5,1.4V6.4
	h-2.4V24h2.4v-1.3c0.8,1,1.6,1.5,2.5,1.5s1.6-0.5,1.9-1.5C195.3,22.2,195.4,21.3,195.4,20.1z M202,16h-2.4v-1.2
	c0-1.2,0.4-1.8,1.2-1.8c0.8,0,1.2,0.6,1.2,1.8C202,14.8,202,16,202,16z M204.4,19.9v-0.3H202c0,1,0,1.5-0.1,1.6
	c-0.1,0.6-0.5,1-1.1,1c-0.8,0-1.2-0.6-1.2-1.8v-2.3h4.8v-2.7c0-1.4-0.2-2.4-0.7-3.1c-0.7-0.9-1.6-1.3-2.8-1.3s-2.2,0.4-2.9,1.3
	c-0.5,0.7-0.7,1.7-0.7,3.1V20c0,1.4,0.3,2.4,0.8,3.1c0.7,0.9,1.6,1.3,2.9,1.3c1.2,0,2.2-0.5,2.9-1.4c0.3-0.4,0.5-0.9,0.6-1.4
	C204.3,21.2,204.4,20.6,204.4,19.9L204.4,19.9z"/>
</svg>
