<?xml version="1.0" encoding="utf-8"?>
<!-- Generator: Adobe Illustrator 19.1.0, SVG Export Plug-In . SVG Version: 6.00 Build 0)  -->
<svg version="1.1" id="Lager_1" xmlns="http://www.w3.org/2000/svg" xmlns:xlink="http://www.w3.org/1999/xlink" x="0px" y="0px"
	 viewBox="157 -92 62 62" style="enable-background:new 157 -92 62 62;" xml:space="preserve">
<style type="text/css">
	.st0{fill:#0277B3;}
	.st1{fill:#FFFFFF;}
</style>
<path class="st0" d="M219-39.4c0,5.2-4.2,9.4-9.4,9.4h-43.2c-5.2,0-9.4-4.2-9.4-9.4v-43.2c0-5.2,4.2-9.4,9.4-9.4h43.2
	c5.2,0,9.4,4.2,9.4,9.4V-39.4z"/>
<g>
	<path class="st1" d="M169.9-67.6h7.8v25h-7.8C169.9-42.6,169.9-67.6,169.9-67.6z M173.7-80.1c2.5,0,4.5,2,4.5,4.5s-2,4.5-4.5,4.5
		s-4.5-2-4.5-4.5C169.2-78,171.3-80.1,173.7-80.1"/>
	<path class="st1" d="M182.5-67.6h7.5v3.4h0.1c1-2,3.6-4,7.4-4c7.9,0,9.3,5.2,9.3,11.9v13.7H199v-12.1c0-2.9-0.1-6.6-4-6.6
		c-4,0-4.7,3.2-4.7,6.4v12.4h-7.8V-67.6z"/>
</g>
</svg>
