<?xml version="1.0" encoding="utf-8"?>
<!-- Generator: Adobe Illustrator 19.1.0, SVG Export Plug-In . SVG Version: 6.00 Build 0)  -->
<svg version="1.1" id="Lager_1" xmlns="http://www.w3.org/2000/svg" xmlns:xlink="http://www.w3.org/1999/xlink" x="0px" y="0px"
	 viewBox="91 -92 62 62" style="enable-background:new 91 -92 62 62;" xml:space="preserve">
<style type="text/css">
	.st0{fill:#3A5B99;}
	.st1{fill:#FFFFFF;}
</style>
<path class="st0" d="M153-39.4c0,5.2-4.2,9.4-9.4,9.4h-43.2c-5.2,0-9.4-4.2-9.4-9.4v-43.2c0-5.2,4.2-9.4,9.4-9.4h43.2
	c5.2,0,9.4,4.2,9.4,9.4V-39.4z"/>
<path class="st1" d="M138.6-56.2l1-7.8h-7.7v-5c0-2.3,0.6-3.8,3.9-3.8h4.1v-7c-0.7-0.1-3.2-0.3-6-0.3c-5.9,0-10,3.6-10,10.3v5.8
	h-6.7v7.8h6.7v19.9h8v-19.9H138.6z"/>
</svg>
