<?xml version="1.0" encoding="utf-8"?>
<!-- Generator: Adobe Illustrator 19.1.0, SVG Export Plug-In . SVG Version: 6.00 Build 0)  -->
<svg version="1.1" id="Lager_1" xmlns="http://www.w3.org/2000/svg" xmlns:xlink="http://www.w3.org/1999/xlink" x="0px" y="0px"
	 viewBox="157 40 62 62" style="enable-background:new 157 40 62 62;" xml:space="preserve">
<style type="text/css">
	.st0{fill:#009FE4;}
	.st1{fill:#FFFFFF;}
</style>
<path class="st0" d="M219,92.6c0,5.2-4.2,9.4-9.4,9.4h-43.2c-5.2,0-9.4-4.2-9.4-9.4V49.4c0-5.2,4.2-9.4,9.4-9.4h43.2
	c5.2,0,9.4,4.2,9.4,9.4V92.6z"/>
<g>
	<path class="st1" d="M198.5,57.9c0-1-0.8-1.9-1.9-1.9h-17.2c-1,0-1.9,0.8-1.9,1.9v2.6h20.9L198.5,57.9z M202.7,62.7h-29.4
		c-1,0-1.9,0.8-1.9,1.9v14.1c0,1,0.8,1.9,1.9,1.9h3.2v2.6c0,1.6,1.3,2.9,2.9,2.9h17.2c1.6,0,2.9-1.3,2.9-2.9v-2.6h3.2
		c1,0,1.9-0.8,1.9-1.9V64.6C204.5,63.5,203.7,62.7,202.7,62.7z M197.4,83c0,0.5-0.4,0.8-0.8,0.8h-17.2c-0.5,0-0.8-0.4-0.8-0.8v-8.2
		h18.9C197.5,74.8,197.4,83,197.4,83z"/>
</g>
</svg>
