<?xml version="1.0" encoding="utf-8"?>
<!-- Generator: Adobe Illustrator 16.0.0, SVG Export Plug-In . SVG Version: 6.00 Build 0)  -->
<!DOCTYPE svg PUBLIC "-//W3C//DTD SVG 1.1//EN" "http://www.w3.org/Graphics/SVG/1.1/DTD/svg11.dtd">
<svg version="1.1" id="Lager_1" xmlns="http://www.w3.org/2000/svg" xmlns:xlink="http://www.w3.org/1999/xlink" x="0px" y="0px"
	 viewBox="0 0 70.866 70.866" enable-background="new 0 0 70.866 70.866" xml:space="preserve">
<g>
	<path fill="#E6007E" d="M69.524,35.471c-0.164-1.323,0.035-2.258-6.5-4.847c-3.977-1.576-13.934-5.856-22.07-9.351
		c0.488-0.199,0.902-0.365,1.219-0.487c4.625-1.788,6.807,0.555,9.807,1.588c3.762,1.294,7.896-2.497,4.5-4.624
		c-3.533-2.213-8.662-3.963-15.203-1.315c-1.023,0.415-3.138,1.312-5.843,2.47c-2.705-1.158-4.819-2.055-5.843-2.47
		c-6.542-2.647-11.672-0.897-15.205,1.315c-3.396,2.127,0.74,5.918,4.501,4.624c3.001-1.033,5.183-3.376,9.806-1.588
		c0.318,0.123,0.731,0.288,1.22,0.487c-8.137,3.495-18.093,7.775-22.07,9.351c-6.534,2.589-6.336,3.524-6.499,4.847
		c-0.187,2.375,0.826,3.612,1.335,5.105c0.523,1.533,0.38,2.387,1.414,6.52c0.982,3.93,3.613,7.777,9.74,8.484
		c6.311,0.729,11.388-0.7,14.453-4.242c2.184-2.521,3.021-4.77,4.006-7.069c0.986-2.301,1.581-4.006,3.143-4.006
		s2.156,1.705,3.142,4.006c0.986,2.3,1.823,4.548,4.006,7.069c3.066,3.542,8.143,4.971,14.453,4.242
		c6.127-0.707,8.758-4.555,9.74-8.484c1.033-4.133,0.891-4.986,1.414-6.52C68.698,39.083,69.71,37.846,69.524,35.471z
		 M42.737,33.131c-1.738,0.554-4.21,1.276-7.304,1.311c-3.094-0.035-5.566-0.757-7.306-1.311c-3.531-1.126-7.2-1.625-10.829-1.709
		c4.624-2.013,12.366-5.372,18.135-7.83c5.769,2.458,13.511,5.817,18.136,7.83C49.938,31.506,46.271,32.005,42.737,33.131z"/>
	<path fill="#8C005A" d="M28.756,41.598c-0.116,1.783-0.59,3.508-1.306,5.025c-1.439,3.051-4.115,5.893-10.464,5.872
		c-3.56-0.011-6.062-0.794-7.651-2.43c-1.597-1.642-2.372-4.228-2.372-7.907c0-3.201,0.968-5.312,2.961-6.452
		c1.769-1.013,4.102-1.152,6.36-1.152c3.07,0,7.482,0.218,10.332,2.101C28.379,37.82,28.894,39.482,28.756,41.598z"/>
	<path fill="#8C005A" d="M61.532,50.065c-1.592,1.636-4.094,2.419-7.652,2.43c-6.35,0.021-9.023-2.821-10.465-5.872
		c-0.717-1.518-1.189-3.242-1.305-5.025c-0.139-2.115,0.375-3.777,2.139-4.942c2.85-1.883,7.262-2.101,10.332-2.101
		c2.258,0,4.592,0.139,6.361,1.152c1.992,1.14,2.961,3.25,2.961,6.452C63.903,45.838,63.128,48.424,61.532,50.065z"/>
</g>
</svg>
