<?xml version="1.0" encoding="utf-8"?>
<!-- Generator: Adobe Illustrator 16.0.0, SVG Export Plug-In . SVG Version: 6.00 Build 0)  -->
<!DOCTYPE svg PUBLIC "-//W3C//DTD SVG 1.1//EN" "http://www.w3.org/Graphics/SVG/1.1/DTD/svg11.dtd">
<svg version="1.1" id="Lager_1" xmlns="http://www.w3.org/2000/svg" xmlns:xlink="http://www.w3.org/1999/xlink" x="0px" y="0px"
	 viewBox="0 0 70.866 70.866" enable-background="new 0 0 70.866 70.866" xml:space="preserve">
<g>
	<path fill="#009FE4" d="M69.523,35.471c-0.164-1.323,0.035-2.258-6.5-4.847c-3.977-1.576-13.932-5.856-22.068-9.351
		c0.488-0.199,0.9-0.365,1.219-0.487c4.623-1.788,6.805,0.555,9.807,1.588c3.76,1.294,7.896-2.497,4.5-4.624
		c-3.533-2.213-8.662-3.963-15.203-1.315c-1.024,0.415-3.139,1.312-5.844,2.47c-2.705-1.158-4.818-2.055-5.843-2.47
		c-6.542-2.647-11.672-0.897-15.205,1.315c-3.396,2.127,0.74,5.918,4.501,4.624c3.001-1.033,5.183-3.376,9.807-1.588
		c0.317,0.123,0.73,0.288,1.219,0.487c-8.137,3.495-18.093,7.775-22.07,9.351c-6.534,2.589-6.335,3.524-6.499,4.847
		c-0.188,2.375,0.826,3.612,1.335,5.105c0.523,1.532,0.38,2.386,1.414,6.52c0.982,3.929,3.613,7.776,9.74,8.483
		c6.311,0.729,11.388-0.699,14.453-4.242c2.184-2.521,3.021-4.769,4.006-7.068c0.986-2.301,1.581-4.006,3.143-4.006
		s2.155,1.705,3.142,4.006c0.986,2.3,1.823,4.547,4.007,7.068c3.064,3.543,8.143,4.971,14.453,4.242
		c6.127-0.707,8.756-4.555,9.74-8.483c1.033-4.134,0.891-4.987,1.414-6.52C68.697,39.083,69.711,37.846,69.523,35.471z
		 M42.738,33.131c-1.738,0.554-4.211,1.276-7.305,1.311c-3.094-0.035-5.566-0.757-7.306-1.311c-3.531-1.126-7.2-1.625-10.83-1.709
		c4.626-2.013,12.367-5.372,18.136-7.83c5.77,2.458,13.51,5.817,18.135,7.83C49.939,31.506,46.27,32.005,42.738,33.131z"/>
	<path fill="#0A4682" d="M28.757,41.598c-0.116,1.783-0.589,3.507-1.307,5.024c-1.439,3.051-4.113,5.894-10.463,5.873
		c-3.56-0.012-6.062-0.795-7.652-2.43c-1.596-1.643-2.372-4.229-2.372-7.907c0-3.201,0.969-5.312,2.962-6.452
		c1.769-1.013,4.102-1.152,6.36-1.152c3.07,0,7.482,0.218,10.332,2.101C28.381,37.82,28.895,39.482,28.757,41.598z"/>
	<path fill="#0A4682" d="M61.531,50.066c-1.59,1.635-4.092,2.418-7.652,2.43c-6.35,0.021-9.023-2.822-10.463-5.873
		c-0.717-1.518-1.189-3.241-1.307-5.024c-0.139-2.116,0.377-3.778,2.141-4.942c2.848-1.883,7.262-2.101,10.332-2.101
		c2.258,0,4.592,0.139,6.359,1.152c1.994,1.141,2.961,3.251,2.961,6.452C63.902,45.837,63.127,48.423,61.531,50.066z"/>
</g>
</svg>
