<?xml version="1.0" encoding="utf-8"?>
<!-- Generator: Adobe Illustrator 16.0.0, SVG Export Plug-In . SVG Version: 6.00 Build 0)  -->
<!DOCTYPE svg PUBLIC "-//W3C//DTD SVG 1.1//EN" "http://www.w3.org/Graphics/SVG/1.1/DTD/svg11.dtd">
<svg version="1.1" id="Lager_1" xmlns="http://www.w3.org/2000/svg" xmlns:xlink="http://www.w3.org/1999/xlink" x="0px" y="0px"
	 viewBox="0 0 76.536 76.536" enable-background="new 0 0 76.536 76.536" xml:space="preserve">
<g>
	<path fill="#009FE4" d="M41.6,21.253c1.384-4.145,2.572-7.574,3.43-9.323c1.097-2.237,2.488-2.259,3.114-2.259
		c0.079,0,0.531,0,1.255,0c-0.124-0.248-0.301-0.474-0.53-0.657c-0.856-0.685-2.106-0.546-2.789,0.311L20.875,40.752h5.087
		L41.6,21.253z"/>
	<path fill="#FFE57E" d="M17.807,43.612c-0.423-1.215-0.437-2.566,0.877-2.859H14.8c-1.313,0.293-1.3,1.645-0.877,2.859
		c1.075,3.088,3.853,8.504,9.688,8.525l1.099,0.002h3.883l-1.099-0.002C21.659,52.116,18.881,46.7,17.807,43.612z"/>
	<g>
		<path fill="#FFE57E" d="M27.409,43.612c1.019,2.926,3.568,7.939,8.798,8.475l0.598-0.746c-3.441-1.621-5.271-5.359-6.097-7.729
			c-0.423-1.215-0.437-2.566,0.877-2.859h-3.299C26.972,41.045,26.986,42.397,27.409,43.612z"/>
		<path fill="#FFE57E" d="M24.257,43.612c-0.423-1.215-0.436-2.566,0.877-2.859h-3.299c-1.313,0.293-1.3,1.645-0.877,2.859
			c1.075,3.088,3.852,8.504,9.688,8.525l1.099,0.002h3.298l-1.098-0.002C28.109,52.116,25.333,46.7,24.257,43.612z"/>
		<path fill="#FFE57E" d="M52.294,11.586c-1.059,2.001-2.924,7.615-4.682,12.908c-1.393,4.198-2.972,8.958-4.582,13.305
			c-0.681,1.838-1.362,3.602-2.078,5.248l1.355,1.43l2.596-3.236c0.595-1.412,1.172-2.924,1.753-4.494
			c1.593-4.299,3.163-9.032,4.549-13.207c1.792-5.398,3.149-9.492,4.238-11.711c0.649-1.322,1.605-1.893,2.48-2.114
			c0.061-0.016,0.123-0.03,0.185-0.044c-0.995,0-1.971,0-2.898,0C54.895,9.675,53.242,9.796,52.294,11.586z"/>
		<path fill="#FFE57E" d="M44.101,52.139l-1.543-1.629l-1.1,1.369c0.648,0.164,1.343,0.256,2.088,0.258L44.101,52.139z"/>
		<path fill="#FFE57E" d="M60.296,37.272c1.893-5.109,3.729-10.747,5.315-15.511l-7.119,8.878c-0.818,2.404-1.667,4.84-2.526,7.16
			c-2.079,5.615-4.152,10.586-7.293,13.395l0.769,0.813c0.036-0.006,0.071-0.01,0.106-0.018
			C54.733,51.122,57.395,45.104,60.296,37.272z"/>
		<path fill="#FFE57E" d="M33.859,43.612c0.643,1.844,1.891,4.514,4.033,6.373l1.91-2.383l-3.694-3.898
			c-0.752-0.797-0.714-2.053,0.082-2.803c0.689-0.648,1.719-0.709,2.471-0.201c0.516-1.256,1.021-2.582,1.527-3.953
			c1.594-4.299,3.164-9.032,4.55-13.207c1.792-5.398,3.148-9.492,4.238-11.711c0.617-1.258,1.514-1.836,2.354-2.08
			c0.095-0.028,0.194-0.054,0.295-0.078c-1.99,0-3.337,0-3.48,0c-0.626,0-2.018,0.021-3.114,2.259
			c-1.865,3.803-5.287,15.542-8.916,25.342c-0.448,1.209-0.89,2.373-1.336,3.48h-0.042C33.423,41.045,33.436,42.397,33.859,43.612z"
			/>
		<path fill="#FFE57E" d="M52.714,37.844l-7.024,8.76c-0.171,0.307-0.345,0.602-0.521,0.893l1.416,1.494
			C49.075,46.829,50.897,42.667,52.714,37.844z"/>
		<path fill="#FFE57E" d="M58.762,11.586c-1.06,2.001-2.924,7.615-4.681,12.908c-0.961,2.896-2.012,6.057-3.099,9.167l5.681-7.083
			c0.346-1.034,0.683-2.053,1.01-3.037c1.792-5.398,3.149-9.492,4.238-11.711c0.609-1.24,1.488-1.82,2.318-2.069
			c0.109-0.033,0.223-0.062,0.337-0.089c-0.932,0-1.903,0-2.889,0C61.363,9.675,59.708,9.796,58.762,11.586z"/>
		<path fill="#FFE57E" d="M65.23,11.586c-0.741,1.401-1.879,4.576-3.097,8.171l8.088-10.086c-0.596,0-1.296,0-2.076,0
			C67.83,9.675,66.176,9.796,65.23,11.586z"/>
		<path fill="#FFB900" d="M46.585,48.991l2.088,2.203c3.141-2.809,5.214-7.779,7.293-13.395c0.859-2.32,1.708-4.756,2.526-7.16
			l-5.778,7.205C50.897,42.667,49.075,46.829,46.585,48.991z"/>
		<path fill="#FFB900" d="M61.912,11.829c-1.089,2.219-2.446,6.313-4.238,11.711c-0.327,0.984-0.664,2.003-1.01,3.037l5.47-6.82
			c1.218-3.595,2.355-6.77,3.097-8.171c0.946-1.79,2.6-1.911,2.915-1.915c-1.069,0-2.284,0-3.578,0
			c-0.114,0.027-0.228,0.056-0.337,0.089C63.4,10.009,62.521,10.589,61.912,11.829z"/>
		<path fill="#FFB900" d="M55.444,11.829c-1.089,2.219-2.446,6.313-4.238,11.711c-1.386,4.175-2.956,8.908-4.549,13.207
			c-0.581,1.57-1.158,3.082-1.753,4.494l6.079-7.58c1.087-3.109,2.138-6.271,3.099-9.167c1.757-5.293,3.621-10.907,4.681-12.908
			c0.946-1.79,2.601-1.911,2.916-1.915c-1.188,0-2.392,0-3.569,0c-0.062,0.014-0.124,0.028-0.185,0.044
			C57.049,9.937,56.093,10.507,55.444,11.829z"/>
		<path fill="#FFB900" d="M48.976,11.829c-1.09,2.219-2.446,6.313-4.238,11.711c-1.386,4.175-2.956,8.908-4.55,13.207
			c-0.507,1.371-1.012,2.697-1.527,3.953c0.025,0.018,0.051,0.035,0.075,0.053h0.248c-0.064,0.016-0.123,0.033-0.182,0.053
			c0.067,0.055,0.133,0.113,0.193,0.178l1.957,2.064c0.716-1.646,1.397-3.41,2.078-5.248c1.61-4.348,3.189-9.107,4.582-13.305
			c1.758-5.293,3.623-10.907,4.682-12.908c0.947-1.79,2.601-1.911,2.916-1.915c-1.32,0-2.541,0-3.586,0
			c-0.101,0.024-0.2,0.05-0.295,0.078C50.49,9.993,49.593,10.571,48.976,11.829z"/>
		<path fill="#FFB900" d="M20.958,43.612c-0.423-1.215-0.437-2.566,0.877-2.859h-3.151c-1.313,0.293-1.3,1.645-0.877,2.859
			c1.074,3.088,3.852,8.504,9.687,8.525l1.099,0.002h3.152l-1.099-0.002C24.81,52.116,22.034,46.7,20.958,43.612z"/>
		<path fill="#FFB900" d="M27.409,43.612c-0.423-1.215-0.437-2.566,0.877-2.859h-3.151c-1.313,0.293-1.3,1.645-0.877,2.859
			c1.075,3.088,3.852,8.504,9.688,8.525l1.098,0.002h1.123l0.041-0.053C30.977,51.551,28.427,46.538,27.409,43.612z"/>
		<path fill="#FFB900" d="M43.546,52.137c-0.745-0.002-1.439-0.094-2.088-0.258l-0.206,0.26h0.24h2.608l0,0L43.546,52.137z"/>
		<path fill="#FFB900" d="M30.708,43.612c0.825,2.369,2.655,6.107,6.097,7.729l1.088-1.355c-2.143-1.859-3.391-4.529-4.033-6.373
			c-0.423-1.215-0.436-2.566,0.877-2.859h-3.151C30.271,41.045,30.285,42.397,30.708,43.612z"/>
	</g>
	<path fill="#009FE4" d="M73.288,9.014c-0.856-0.685-2.105-0.546-2.789,0.311l-28.19,35.153l-3.313-3.494
		c-0.751-0.799-2.008-0.834-2.806-0.082c-0.796,0.75-0.834,2.006-0.082,2.803l3.694,3.898l-8.686,10.832l-5.969-6.295h-0.438
		l-1.099-0.002c-5.835-0.021-8.612-5.438-9.688-8.525c-0.382-1.098-0.426-2.303,0.535-2.742c-0.759-0.686-1.93-0.684-2.688,0.031
		c-0.797,0.75-0.835,2.006-0.082,2.803l3.694,3.898L1.788,64.555c-0.683,0.857-0.544,2.105,0.313,2.789s2.104,0.545,2.788-0.311
		l13.25-16.523l10.473,11.049l-2.402,2.996c-0.685,0.857-0.545,2.105,0.312,2.789s2.104,0.545,2.788-0.311l2.058-2.566l2.558,2.699
		c0.752,0.797,2.006,0.832,2.803,0.082c0.799-0.752,0.836-2.008,0.085-2.805l-2.939-3.102l8.687-10.832l15.785,16.656
		c0.751,0.797,2.005,0.832,2.803,0.082c0.799-0.752,0.836-2.008,0.084-2.805L45.064,47.385l28.534-35.584
		C74.283,10.944,74.143,9.696,73.288,9.014z"/>
</g>
</svg>
