<?xml version="1.0" encoding="utf-8"?>
<!-- Generator: Adobe Illustrator 16.0.0, SVG Export Plug-In . SVG Version: 6.00 Build 0)  -->
<!DOCTYPE svg PUBLIC "-//W3C//DTD SVG 1.1//EN" "http://www.w3.org/Graphics/SVG/1.1/DTD/svg11.dtd">
<svg version="1.1" id="Lager_1" xmlns="http://www.w3.org/2000/svg" xmlns:xlink="http://www.w3.org/1999/xlink" x="0px" y="0px"
	 viewBox="0 0 90.709 90.708" enable-background="new 0 0 90.709 90.708" xml:space="preserve">
<g>
	<path fill="#E6007E" d="M88.218,42.71c0,0,0,0-0.01-0.092c-0.129-1.068-0.977-1.917-2.045-2.047
		c-0.094-0.012-0.094-0.012-0.094-0.012c-0.105-0.002-0.533-0.005-0.951-0.005h-2.693c-2.604,0-3.592-2.574-4.09-3.571
		c-0.484-0.968-2.328-4.092-2.674-4.651c-1.396-2.271-2.555-3.838-1.838-6.388c0.773-2.748,2.943-4.725,5.525-5.381
		c0.449-0.113,0.625-0.133,0.625-0.133c0.416-0.048,0.609-0.395,0.432-0.773c0,0-0.125-0.262-0.395-0.712
		c-1.463-2.433-3.818-4.333-6.768-5.163c-5.443-1.531-11.074,1.107-13.484,6.004c-0.217,0.44-0.303,0.664-0.303,0.664
		c-0.148,0.391-0.596,0.609-0.994,0.484c0,0-0.184-0.057-0.646-0.186c-2.85-0.795-5.865-1.262-8.988-1.352
		c-0.365-0.01-0.732-0.016-1.1-0.016c-11.246,0-21.193,4.896-27.256,12.403c-0.391,0.482-1.631,2.305-2.082,2.63
		c-0.486,0.352-0.879,0.43-1.307,0.428c-0.322-0.001-0.643-0.046-0.963-0.111c-0.184-0.037-0.172-0.326,0.01-0.438
		c1.885-1.172,3.055-3.354,2.881-5.592c-0.252-3.233-2.941-5.572-6.123-5.326c-1.615,0.127-3.057,0.873-4.053,2.104
		c-0.785,0.969-1.238,2.188-1.326,3.523c-0.014,0.216-0.168,0.54-0.447,0.118c-0.326-0.49-0.689-1.052-0.984-1.72
		c-0.586-1.331-1.518-2.012-2.549-1.69c-1.307,0.404-1.152,2.275-0.787,3.291c1.313,3.656,3.717,5.123,6.379,6
		c0.271,0.089,0.471,0.256,0.541,0.339c0.297,0.362,0.621,0.7,0.969,1.009c0.998,0.885,2.549,1.854,4.785,2.244
		c0.291,0.051,0.877,0.127,0.549,1.035c-1.061,2.92-1.68,6.021-1.68,9.254c0,9.395,4.836,16.49,10.182,21.303
		c0.172,0.154,0.752,0.662,0.752,0.662c0.264,0.217,0.348,0.68,0.129,1.236c-0.076,0.191-1.789,4.283-1.789,4.283
		c-0.691,1.67,0.109,3.6,1.779,4.293l6.736,2.789c1.67,0.691,3.602-0.107,4.293-1.777c0,0,1.209-2.875,1.586-3.795
		c0.156-0.381,0.395-0.49,0.732-0.416c0,0,0,0,0.258,0.057c2.092,0.449,5.58,0.814,8.066,0.859c0.238,0.004,0.719,0.006,0.719,0.006
		c2.013,0,5.011-0.184,6.736-0.455c0.297-0.047,0.297-0.047,0.297-0.047c0.428-0.086,0.67,0.094,0.77,0.338
		c0.102,0.242,1.475,3.521,1.475,3.521c0.691,1.668,2.623,2.469,4.291,1.777l6.738-2.791c1.668-0.691,2.469-2.623,1.777-4.293
		c0,0-1.203-2.844-1.486-3.557c-0.145-0.369,0.055-0.662,0.232-0.791c0,0,0,0,0.002-0.004c0.012-0.008,0.051-0.037,0.211-0.158
		c1.467-1.113,3.607-2.969,5.15-4.674c0.357-0.393,0.682-0.779,0.959-1.146c2.637-3.492,3.889-7.221,7.557-7.221h2.682
		c0.418,0,0.893-0.006,1.057-0.014c0,0,0,0,0.141-0.027c0.934-0.176,1.672-0.904,1.861-1.832c0.031-0.152,0.031-0.152,0.031-0.152
		c0.008-0.176,0.016-0.412,0.016-0.525s0-0.549,0-0.967V43.661C88.224,43.242,88.222,42.815,88.218,42.71z M13.685,31.155
		c-1.135,0.599-2.051-0.047-2.264-0.912c-0.291-1.194,0.25-2.592,1.488-2.932c1.15-0.314,2.256,0.496,2.203,1.695
		C15.068,30.01,14.39,30.784,13.685,31.155z"/>
	<circle fill="#F0A5C3" cx="71.213" cy="39.365" r="2.356"/>
	<g>
		<path fill="#8C005A" d="M33.554,26.161c-0.146-0.439,0.08-0.953,0.506-1.139c0,0,0.41-0.18,1.018-0.414
			c4.004-1.549,8.359-2.361,12.734-2.361c0.35,0,0.697,0.006,1.045,0.016c1.15,0.033,2.302,0.121,3.441,0.264
			c0.477,0.059,0.588,0.076,0.588,0.076c0.459,0.072,0.805,0.455,0.768,0.853c-0.039,0.397-0.102,1.066-0.141,1.487
			s-0.447,0.714-0.908,0.65c0,0-2.266-0.307-3.833-0.352c-0.318-0.009-0.639-0.014-0.959-0.014c-4.002,0-7.982,0.739-11.639,2.151
			c-0.656,0.253-1.164,0.479-1.164,0.479c-0.424,0.189-0.893-0.016-1.039-0.456L33.554,26.161z"/>
	</g>
	<g>
		<path fill="#FFB900" d="M46.646,7.718C41.46,5.57,35.517,8.032,33.369,13.216c-1.639,3.957-0.59,8.354,2.303,11.172
			c0.893,0.869,1.959,1.588,3.18,2.096c2.887-0.825,5.916-1.256,8.961-1.256c0.32,0,0.641,0.005,0.959,0.014
			c0.023,0.001,0.047,0.002,0.068,0.003c1.009-0.753,1.888-1.7,2.574-2.817c0.275-0.451,0.521-0.929,0.73-1.434
			C54.292,15.808,51.829,9.865,46.646,7.718z"/>
	</g>
	<g>
		<path fill="#FFE57E" d="M46.103,9.027c-1.07-0.444-2.195-0.669-3.346-0.669c-3.549,0-6.721,2.121-8.08,5.4
			c-0.895,2.157-0.895,4.534,0,6.692c0.561,1.351,1.43,2.515,2.527,3.415c0.658,0.537,1.398,0.982,2.205,1.316
			c0.764,0.316,1.553,0.52,2.361,0.611c1.332-0.252,2.688-0.415,4.049-0.498c1.58-0.59,2.957-1.626,3.966-2.994
			c0.414-0.563,0.771-1.182,1.049-1.851C52.681,15.997,50.556,10.872,46.103,9.027z M49.595,19.938
			c-0.363,0.879-0.881,1.658-1.514,2.313c-1.367,1.419-3.273,2.26-5.33,2.26c-0.971,0-1.922-0.191-2.828-0.566
			c-0.373-0.154-0.725-0.344-1.064-0.553c-1.313-0.811-2.34-2.001-2.943-3.454c-0.756-1.827-0.756-3.839,0-5.665
			c1.15-2.778,3.838-4.572,6.842-4.572c0.973,0,1.926,0.189,2.832,0.565C49.361,11.827,51.155,16.167,49.595,19.938z"/>
	</g>
	<g>
		<g>
			<path fill="#FFE57E" d="M40.095,17.907c-0.34,1.021,0.084,2.072,1.162,2.52c0.977,0.404,2.041,0.07,2.471-0.965
				c0.477-1.15-0.133-2.075-1.082-2.469c-0.66-0.273-1.334-0.232-1.82,0.005l-1.379-1.263l3.096-4.223l5.102,2.113l-0.625,1.51
				l-3.938-1.633l-1.551,2.119c0.574-0.25,1.389-0.182,2.049,0.092c1.854,0.768,2.715,2.471,1.904,4.426
				c-0.725,1.754-2.684,2.66-4.84,1.767c-2.012-0.833-2.838-2.741-2.346-4.255L40.095,17.907z"/>
		</g>
	</g>
</g>
</svg>
