<?xml version="1.0" encoding="utf-8"?>
<!-- Generator: Adobe Illustrator 16.0.0, SVG Export Plug-In . SVG Version: 6.00 Build 0)  -->
<!DOCTYPE svg PUBLIC "-//W3C//DTD SVG 1.1//EN" "http://www.w3.org/Graphics/SVG/1.1/DTD/svg11.dtd">
<svg version="1.1" id="Lager_1" xmlns="http://www.w3.org/2000/svg" xmlns:xlink="http://www.w3.org/1999/xlink" x="0px" y="0px"
	 viewBox="0 0 87.874 87.874" enable-background="new 0 0 87.874 87.874" xml:space="preserve">
<g>
	<path fill="#E6007E" d="M86.801,38.089c0,0,0,0-0.01-0.092c-0.129-1.068-0.977-1.917-2.045-2.047
		c-0.094-0.012-0.094-0.012-0.094-0.012c-0.105-0.002-0.533-0.005-0.951-0.005h-2.693c-2.604,0-3.592-2.574-4.09-3.571
		c-0.484-0.968-2.328-4.092-2.674-4.651c-1.396-2.271-2.555-3.838-1.838-6.388c0.773-2.748,2.943-4.725,5.525-5.381
		c0.449-0.113,0.625-0.133,0.625-0.133c0.416-0.048,0.609-0.395,0.432-0.773c0,0-0.125-0.262-0.395-0.712
		c-1.463-2.433-3.818-4.333-6.768-5.163c-5.443-1.531-11.074,1.107-13.484,6.004c-0.217,0.44-0.303,0.664-0.303,0.664
		c-0.148,0.391-0.596,0.609-0.994,0.484c0,0-0.184-0.057-0.646-0.186c-2.85-0.795-5.865-1.262-8.989-1.352
		c-0.365-0.01-0.732-0.016-1.1-0.016c-11.246,0-21.193,4.896-27.256,12.403c-0.391,0.482-1.631,2.305-2.082,2.63
		c-0.486,0.352-0.879,0.43-1.307,0.428c-0.322-0.001-0.643-0.046-0.963-0.111c-0.184-0.037-0.172-0.326,0.01-0.438
		c1.885-1.172,3.055-3.354,2.881-5.592c-0.252-3.233-2.941-5.572-6.123-5.326c-1.615,0.127-3.057,0.873-4.053,2.104
		c-0.785,0.969-1.238,2.188-1.326,3.523c-0.014,0.216-0.168,0.54-0.447,0.118c-0.326-0.49-0.689-1.052-0.984-1.72
		c-0.586-1.331-1.518-2.012-2.549-1.69c-1.307,0.404-1.152,2.275-0.787,3.291c1.313,3.656,3.717,5.123,6.379,6
		c0.271,0.089,0.471,0.256,0.541,0.339c0.297,0.362,0.621,0.7,0.969,1.009c0.998,0.885,2.549,1.854,4.785,2.244
		c0.291,0.051,0.877,0.127,0.549,1.035c-1.061,2.92-1.68,6.021-1.68,9.254c0,9.396,4.836,16.49,10.182,21.302
		c0.172,0.156,0.752,0.662,0.752,0.662c0.264,0.217,0.348,0.68,0.129,1.238c-0.076,0.189-1.789,4.281-1.789,4.281
		c-0.691,1.67,0.109,3.602,1.779,4.293l6.736,2.791c1.67,0.689,3.602-0.109,4.293-1.777c0,0,1.209-2.877,1.586-3.797
		c0.156-0.381,0.395-0.49,0.732-0.414c0,0,0,0,0.258,0.055c2.092,0.449,5.58,0.814,8.066,0.859c0.238,0.006,0.719,0.008,0.719,0.008
		c2.014,0,5.012-0.186,6.737-0.457c0.297-0.047,0.297-0.047,0.297-0.047c0.428-0.086,0.67,0.094,0.77,0.338
		c0.102,0.242,1.475,3.521,1.475,3.521c0.691,1.668,2.623,2.469,4.291,1.777l6.738-2.789c1.668-0.693,2.469-2.625,1.777-4.293
		c0,0-1.203-2.846-1.486-3.559c-0.145-0.367,0.055-0.662,0.232-0.791c0,0,0,0,0.002-0.002c0.012-0.01,0.051-0.039,0.211-0.16
		c1.467-1.111,3.607-2.967,5.15-4.674c0.357-0.393,0.682-0.777,0.959-1.145c2.637-3.494,3.889-7.221,7.557-7.221h2.682
		c0.418,0,0.893-0.008,1.057-0.016c0,0,0,0,0.141-0.025c0.934-0.176,1.672-0.904,1.861-1.832c0.031-0.154,0.031-0.154,0.031-0.154
		c0.008-0.176,0.016-0.412,0.016-0.525c0-0.111,0-0.549,0-0.965V39.041C86.807,38.622,86.805,38.195,86.801,38.089z M12.267,26.535
		c-1.135,0.599-2.051-0.047-2.264-0.912c-0.291-1.194,0.25-2.592,1.488-2.932c1.15-0.314,2.256,0.496,2.203,1.695
		C13.65,25.389,12.972,26.164,12.267,26.535z"/>
	<circle fill="#F0A5C3" cx="69.796" cy="34.745" r="2.356"/>
	<g>
		<path fill="#8C005A" d="M32.136,21.541c-0.146-0.439,0.08-0.953,0.506-1.139c0,0,0.41-0.18,1.018-0.414
			c4.004-1.549,8.359-2.361,12.734-2.361c0.35,0,0.697,0.006,1.045,0.016c1.15,0.033,2.303,0.121,3.442,0.264
			c0.477,0.059,0.588,0.076,0.588,0.076c0.459,0.072,0.805,0.455,0.768,0.853c-0.039,0.397-0.102,1.066-0.141,1.487
			s-0.447,0.714-0.908,0.65c0,0-2.266-0.307-3.834-0.352c-0.318-0.009-0.639-0.014-0.959-0.014c-4.002,0-7.982,0.739-11.639,2.151
			c-0.656,0.253-1.164,0.479-1.164,0.479c-0.424,0.189-0.893-0.016-1.039-0.456L32.136,21.541z"/>
	</g>
</g>
</svg>
