<?xml version="1.0" encoding="utf-8"?>
<!-- Generator: Adobe Illustrator 16.0.0, SVG Export Plug-In . SVG Version: 6.00 Build 0)  -->
<!DOCTYPE svg PUBLIC "-//W3C//DTD SVG 1.1//EN" "http://www.w3.org/Graphics/SVG/1.1/DTD/svg11.dtd">
<svg version="1.1" id="Lager_1" xmlns="http://www.w3.org/2000/svg" xmlns:xlink="http://www.w3.org/1999/xlink" x="0px" y="0px"
	 viewBox="0 0 87.874 87.874" enable-background="new 0 0 87.874 87.874" xml:space="preserve">
<g>
	<path fill="#009FE4" d="M86.801,38.089c0,0,0,0-0.011-0.092c-0.129-1.068-0.976-1.917-2.044-2.047
		c-0.094-0.012-0.094-0.012-0.094-0.012c-0.105-0.002-0.534-0.005-0.952-0.005h-2.693c-2.603,0-3.591-2.574-4.089-3.571
		c-0.484-0.968-2.329-4.092-2.674-4.651c-1.397-2.271-2.556-3.838-1.839-6.388c0.773-2.748,2.944-4.725,5.526-5.381
		c0.449-0.113,0.624-0.133,0.624-0.133c0.417-0.048,0.61-0.395,0.433-0.773c0,0-0.125-0.262-0.395-0.712
		c-1.463-2.433-3.818-4.333-6.768-5.163c-5.444-1.531-11.074,1.107-13.485,6.004c-0.217,0.44-0.302,0.664-0.302,0.664
		c-0.148,0.391-0.596,0.609-0.994,0.484c0,0-0.185-0.057-0.646-0.186c-2.851-0.795-5.865-1.262-8.988-1.352
		c-0.365-0.01-0.732-0.016-1.101-0.016c-11.245,0-21.193,4.896-27.256,12.403c-0.39,0.482-1.63,2.305-2.081,2.63
		c-0.486,0.352-0.88,0.43-1.308,0.428c-0.321-0.001-0.643-0.046-0.962-0.111c-0.185-0.037-0.172-0.326,0.009-0.438
		c1.886-1.172,3.056-3.354,2.882-5.592c-0.252-3.233-2.941-5.572-6.123-5.326c-1.616,0.127-3.057,0.873-4.053,2.104
		c-0.785,0.969-1.238,2.188-1.326,3.523c-0.015,0.216-0.168,0.54-0.448,0.118c-0.325-0.49-0.688-1.052-0.983-1.72
		c-0.586-1.331-1.518-2.012-2.549-1.69c-1.307,0.404-1.153,2.275-0.788,3.291c1.313,3.656,3.718,5.123,6.38,6
		c0.271,0.089,0.471,0.256,0.54,0.339c0.298,0.362,0.622,0.7,0.97,1.009c0.997,0.885,2.549,1.854,4.785,2.244
		c0.291,0.051,0.877,0.127,0.548,1.035c-1.061,2.92-1.679,6.021-1.679,9.254c0,9.395,4.836,16.49,10.182,21.303
		c0.172,0.154,0.751,0.662,0.751,0.662c0.264,0.217,0.349,0.68,0.13,1.236c-0.076,0.191-1.789,4.283-1.789,4.283
		c-0.691,1.67,0.109,3.6,1.778,4.293l6.737,2.789c1.669,0.691,3.601-0.107,4.292-1.777c0,0,1.21-2.875,1.587-3.795
		c0.156-0.381,0.395-0.49,0.732-0.416c0,0,0,0,0.258,0.057c2.092,0.449,5.58,0.814,8.066,0.859c0.238,0.004,0.718,0.006,0.718,0.006
		c2.015,0,5.013-0.184,6.737-0.455c0.296-0.047,0.296-0.047,0.296-0.047c0.428-0.086,0.67,0.094,0.771,0.338
		c0.101,0.242,1.475,3.521,1.475,3.521c0.69,1.668,2.622,2.469,4.291,1.777l6.738-2.791c1.668-0.691,2.469-2.623,1.777-4.293
		c0,0-1.204-2.844-1.486-3.557c-0.145-0.369,0.054-0.662,0.232-0.791c0,0,0,0,0.002-0.004c0.011-0.008,0.051-0.037,0.21-0.158
		c1.467-1.113,3.608-2.969,5.151-4.674c0.357-0.393,0.682-0.779,0.958-1.146c2.637-3.492,3.89-7.221,7.557-7.221h2.682
		c0.418,0,0.894-0.006,1.057-0.014c0,0,0,0,0.142-0.027c0.934-0.176,1.671-0.904,1.86-1.832c0.032-0.152,0.032-0.152,0.032-0.152
		c0.008-0.176,0.016-0.412,0.016-0.525s0-0.549,0-0.967V39.041C86.807,38.622,86.804,38.195,86.801,38.089z M12.267,26.535
		c-1.135,0.599-2.05-0.047-2.263-0.912c-0.292-1.194,0.25-2.592,1.488-2.932c1.15-0.314,2.256,0.496,2.202,1.695
		C13.651,25.389,12.972,26.164,12.267,26.535z"/>
	<circle fill="#7DC8F0" cx="69.796" cy="34.745" r="2.356"/>
	<g>
		<path fill="#0A4682" d="M32.137,21.541c-0.146-0.439,0.08-0.953,0.506-1.139c0,0,0.41-0.18,1.017-0.414
			c4.005-1.549,8.36-2.361,12.734-2.361c0.351,0,0.698,0.006,1.046,0.016c1.15,0.033,2.303,0.121,3.441,0.264
			c0.477,0.059,0.588,0.076,0.588,0.076c0.459,0.072,0.804,0.455,0.767,0.853c-0.038,0.397-0.101,1.066-0.14,1.487
			c-0.04,0.421-0.447,0.714-0.908,0.65c0,0-2.266-0.307-3.834-0.352c-0.319-0.009-0.639-0.014-0.96-0.014
			c-4.001,0-7.981,0.739-11.639,2.151c-0.655,0.253-1.163,0.479-1.163,0.479c-0.424,0.189-0.893-0.016-1.039-0.456L32.137,21.541z"
			/>
	</g>
</g>
</svg>
