<?xml version="1.0" encoding="utf-8"?>
<!-- Generator: Adobe Illustrator 16.0.0, SVG Export Plug-In . SVG Version: 6.00 Build 0)  -->
<!DOCTYPE svg PUBLIC "-//W3C//DTD SVG 1.1//EN" "http://www.w3.org/Graphics/SVG/1.1/DTD/svg11.dtd">
<svg version="1.1" id="Lager_1" xmlns="http://www.w3.org/2000/svg" xmlns:xlink="http://www.w3.org/1999/xlink" x="0px" y="0px"
	 viewBox="0 0 99.751 99.751" enable-background="new 0 0 99.751 99.751" xml:space="preserve">
<g>
	<g>
		<path fill="#E6007E" d="M50.523,84.647c0,0-2.724,4.119-4.085,6.666c-0.171,0.313-0.545,1.061-0.761,1.73
			c-0.217,0.672-0.272,1.268-0.272,1.584c0,2.828,2.291,5.121,5.119,5.121c2.824,0,5.115-2.293,5.115-5.121
			c0-0.316-0.053-0.912-0.271-1.584c-0.215-0.67-0.591-1.418-0.759-1.73C53.245,88.767,50.523,84.647,50.523,84.647L50.523,84.647z"
			/>
	</g>
	<path fill="#E6007E" d="M66.799,15.005c-0.387-0.388-0.922-0.626-1.512-0.626H34.464c-1.181,0-2.138,0.957-2.139,2.137
		c0,1.181,0.958,2.137,2.138,2.138h0.505h3.007c0.278,0,0.505,0.227,0.505,0.504v17.235l0.001,17.235c0,0.277,0.22,0.559,0.49,0.627
		l6.626,1.645h0.001c0.269,0.068,0.49,0.35,0.49,0.629v6.021c0,0.277,0.227,0.506,0.505,0.506h1.117h4.329h1.118
		c0.277,0,0.504-0.229,0.504-0.506l0.002-6.045c0-0.277,0.219-0.559,0.488-0.629l6.379-1.619c0.27-0.068,0.49-0.352,0.49-0.629
		v-34.47c0-0.277,0.227-0.504,0.504-0.504h3.763c1.181,0,2.138-0.957,2.138-2.138C67.425,15.926,67.187,15.391,66.799,15.005z"/>
	<g>
		<path fill="#FFB900" d="M48.217,63.56v13.68c0,0.277,0.14,0.684,0.311,0.904l2.697,3.463c0.172,0.219,0.311,0.17,0.311-0.107
			V63.56c0-0.277,0.227-0.504,0.505-0.504h-4.329C47.989,63.056,48.217,63.282,48.217,63.56z"/>
		<path fill="#FFB900" d="M54.301,13.874l0.001-9.09c0-0.278,0.227-0.505,0.505-0.505h2.139c0.457,0,0.92-0.03,1.111-0.086
			c0.885-0.261,1.531-1.081,1.532-2.051c-0.001-0.59-0.24-1.124-0.627-1.511c-0.229-0.229-0.511-0.408-0.826-0.514
			c-0.215-0.072-0.578-0.112-1.19-0.112H42.807c-0.586,0-1.023,0.048-1.257,0.136c-0.81,0.304-1.386,1.086-1.386,2.002
			c0,0.946,0.615,1.75,1.467,2.031c0.211,0.069,0.584,0.107,1.176,0.107h2.139c0.278,0,0.505,0.227,0.505,0.504v9.09
			c0,0.277-0.228,0.505-0.505,0.505h9.861C54.528,14.378,54.301,14.151,54.301,13.874z"/>
	</g>
	<g>
		<path fill="#FFFFFF" d="M56.799,18.654H42.953c-0.278,0-0.504,0.227-0.504,0.504v10.29l0,10.29c0,0.278,0.227,0.505,0.504,0.505
			h13.846c0.277,0,0.505-0.228,0.505-0.505v-2.602c0-0.277-0.228-0.504-0.504-0.504h-1.825l-1.824,0.001h-0.001h-0.505
			c-0.68,0-1.236-0.512-1.319-1.171c-0.01-0.053-0.017-0.108-0.017-0.166c0-0.058,0.007-0.112,0.018-0.166
			c0.082-0.658,0.639-1.17,1.318-1.17h2.33h1.824c0.277,0,0.506-0.228,0.506-0.505v-1.764c0-0.277-0.229-0.504-0.506-0.504
			l-1.824-0.001h-2.329c-0.681,0.001-1.237-0.511-1.319-1.17c-0.01-0.053-0.018-0.108-0.018-0.165c0-0.058,0.008-0.112,0.018-0.166
			c0.082-0.659,0.637-1.17,1.319-1.17h0.505h3.648c0.277,0,0.506-0.228,0.506-0.505v-1.766c0-0.277-0.229-0.504-0.506-0.504h-1.824
			H53.15l0,0h-0.505c-0.681,0-1.237-0.512-1.319-1.17c-0.01-0.053-0.018-0.108-0.018-0.165c0-0.058,0.008-0.112,0.018-0.166
			c0.082-0.659,0.639-1.171,1.319-1.17h0.505h3.648c0.277,0,0.506-0.228,0.506-0.505v-3.404
			C57.305,18.881,57.076,18.654,56.799,18.654z"/>
	</g>
</g>
</svg>
