<?xml version="1.0" encoding="utf-8"?>
<!-- Generator: Adobe Illustrator 16.0.0, SVG Export Plug-In . SVG Version: 6.00 Build 0)  -->
<!DOCTYPE svg PUBLIC "-//W3C//DTD SVG 1.1//EN" "http://www.w3.org/Graphics/SVG/1.1/DTD/svg11.dtd">
<svg version="1.1" id="Lager_1" xmlns="http://www.w3.org/2000/svg" xmlns:xlink="http://www.w3.org/1999/xlink" x="0px" y="0px"
	 viewBox="0 0 99.751 99.751" enable-background="new 0 0 99.751 99.751" xml:space="preserve">
<g>
	<g>
		<path fill="#7DC8F0" d="M50.524,84.648c0,0-2.724,4.119-4.086,6.664c-0.171,0.314-0.546,1.061-0.761,1.73
			c-0.217,0.674-0.272,1.27-0.272,1.584c0,2.83,2.29,5.123,5.119,5.123c2.823,0,5.114-2.293,5.114-5.123
			c0-0.314-0.053-0.91-0.271-1.584c-0.215-0.67-0.59-1.416-0.758-1.73C53.245,88.767,50.524,84.648,50.524,84.648L50.524,84.648z"/>
	</g>
	<path fill="#009EE2" d="M66.8,15.004c-0.389-0.388-0.923-0.626-1.513-0.626H34.464c-1.181,0-2.138,0.957-2.138,2.137
		c0,1.181,0.958,2.137,2.138,2.138h0.505h3.007c0.278,0,0.505,0.227,0.505,0.504l0,17.235v17.234c0,0.277,0.22,0.561,0.49,0.627
		l6.628,1.646l0,0c0.27,0.066,0.49,0.35,0.49,0.627l0,6.021c0,0.277,0.227,0.508,0.505,0.508h1.118h4.329h1.117
		c0.278,0,0.505-0.23,0.505-0.508l0.001-6.043c0-0.277,0.221-0.561,0.489-0.629l6.379-1.621c0.269-0.066,0.489-0.352,0.489-0.629
		V19.158c0-0.277,0.228-0.504,0.506-0.504h3.762c1.181,0,2.137-0.957,2.137-2.138C67.425,15.925,67.187,15.391,66.8,15.004z"/>
	<g>
		<path fill="#E5007E" d="M48.216,63.56v13.678c0,0.277,0.141,0.684,0.311,0.904l2.698,3.463c0.171,0.219,0.311,0.172,0.311-0.105
			L51.535,63.56c0-0.277,0.229-0.504,0.506-0.504h-4.329C47.99,63.056,48.216,63.283,48.216,63.56z"/>
		<path fill="#E5007E" d="M54.301,13.873l0.001-9.09c0-0.278,0.227-0.505,0.504-0.505h2.14c0.456,0,0.919-0.03,1.11-0.086
			c0.885-0.261,1.532-1.081,1.533-2.051c-0.001-0.59-0.24-1.124-0.627-1.511c-0.23-0.229-0.512-0.408-0.826-0.514
			c-0.215-0.072-0.578-0.112-1.19-0.112h-14.14c-0.585,0-1.022,0.048-1.256,0.136c-0.81,0.304-1.387,1.086-1.387,2.002
			c0,0.946,0.616,1.75,1.468,2.031c0.211,0.069,0.584,0.107,1.176,0.107h2.139c0.277,0,0.505,0.227,0.505,0.504v9.09
			c0,0.277-0.228,0.505-0.505,0.505h9.86C54.529,14.378,54.301,14.15,54.301,13.873z"/>
	</g>
	<g>
		<path fill="#FFFFFF" d="M56.798,18.653H42.953c-0.278,0-0.505,0.227-0.505,0.504v10.29l0.001,10.29
			c0,0.278,0.227,0.505,0.504,0.505h13.845c0.277,0,0.506-0.228,0.506-0.505v-2.602c0-0.277-0.228-0.504-0.505-0.504h-1.825
			l-1.824,0.001h-0.001h-0.504c-0.682,0-1.237-0.512-1.319-1.171c-0.01-0.053-0.017-0.108-0.017-0.166
			c0-0.058,0.007-0.112,0.017-0.166c0.082-0.658,0.638-1.17,1.319-1.17h2.329h1.824c0.277,0,0.506-0.228,0.506-0.505V31.69
			c0-0.277-0.229-0.504-0.506-0.504l-1.824-0.001h-2.329c-0.682,0.001-1.237-0.511-1.319-1.17c-0.01-0.053-0.017-0.108-0.017-0.165
			c0-0.058,0.007-0.112,0.017-0.166c0.082-0.659,0.638-1.17,1.319-1.17h0.505h3.648c0.277,0,0.506-0.228,0.506-0.505v-1.766
			c0-0.277-0.228-0.504-0.505-0.504h-1.825H53.15l0,0h-0.505c-0.682,0-1.237-0.512-1.319-1.17c-0.01-0.053-0.017-0.108-0.017-0.165
			c0-0.058,0.007-0.112,0.017-0.166c0.082-0.659,0.638-1.171,1.319-1.17h0.505h3.648c0.278,0,0.506-0.228,0.506-0.505v-3.404
			C57.304,18.88,57.077,18.653,56.798,18.653z"/>
	</g>
</g>
</svg>
