<?xml version="1.0" encoding="utf-8"?>
<!-- Generator: Adobe Illustrator 16.0.0, SVG Export Plug-In . SVG Version: 6.00 Build 0)  -->
<!DOCTYPE svg PUBLIC "-//W3C//DTD SVG 1.1//EN" "http://www.w3.org/Graphics/SVG/1.1/DTD/svg11.dtd">
<svg version="1.1" id="Lager_1" xmlns="http://www.w3.org/2000/svg" xmlns:xlink="http://www.w3.org/1999/xlink" x="0px" y="0px"
	 viewBox="0 0 81.751 81.751" enable-background="new 0 0 81.751 81.751" xml:space="preserve">
<g>
	<path fill="#7DC8F0" d="M57.8,15.008c-0.388-0.389-0.922-0.627-1.513-0.627H25.464c-1.181,0-2.138,0.958-2.139,2.138
		c0,1.181,0.958,2.137,2.138,2.137h0.506h3.006c0.279,0,0.505,0.229,0.505,0.507l0.001,17.234V53.63c0,0.277,0.22,0.561,0.49,0.627
		l6.627,1.646l0,0c0.269,0.066,0.49,0.35,0.49,0.627v6.021c0,0.277,0.228,0.504,0.504,0.504h1.119h4.328h1.117
		c0.277,0,0.506-0.227,0.506-0.504v-6.043c0-0.279,0.221-0.561,0.489-0.629l6.379-1.621c0.27-0.066,0.49-0.352,0.49-0.629V19.162
		c0-0.277,0.227-0.507,0.504-0.507h3.762c1.181,0,2.139-0.956,2.139-2.137C58.426,15.929,58.186,15.395,57.8,15.008z"/>
	<g>
		<path fill="#FFB900" d="M39.216,63.564l0.001,13.678c0,0.277,0.14,0.684,0.311,0.902l2.698,3.465
			c0.17,0.219,0.31,0.172,0.31-0.105V63.564c0-0.277,0.228-0.508,0.505-0.508h-4.328C38.989,63.056,39.216,63.287,39.216,63.564z"/>
		<path fill="#FFB900" d="M45.302,13.876v-9.09c0-0.277,0.227-0.507,0.505-0.507h2.139c0.456,0,0.919-0.029,1.11-0.084
			c0.887-0.263,1.533-1.081,1.533-2.053c-0.001-0.59-0.24-1.124-0.627-1.511c-0.23-0.23-0.511-0.408-0.826-0.515
			c-0.215-0.072-0.578-0.112-1.19-0.112h-14.14c-0.585,0-1.022,0.048-1.256,0.136c-0.81,0.304-1.386,1.087-1.387,2.002
			c0,0.946,0.616,1.751,1.468,2.03c0.21,0.069,0.583,0.108,1.174,0.108h2.139c0.279,0,0.505,0.228,0.505,0.505v9.09
			c0,0.278-0.227,0.505-0.504,0.505h9.861C45.528,14.381,45.302,14.154,45.302,13.876z"/>
	</g>
	<g>
		<path fill="#FFFFFF" d="M47.798,18.655H33.953c-0.278,0-0.505,0.229-0.505,0.507v10.289l0,10.291c0,0.277,0.227,0.504,0.505,0.504
			h13.844c0.279,0,0.506-0.227,0.506-0.504v-2.604c0-0.275-0.227-0.502-0.504-0.504l-1.826,0.002h-1.824l0,0h-0.504
			c-0.682,0-1.238-0.514-1.32-1.172c-0.01-0.053-0.017-0.107-0.017-0.166c0-0.057,0.007-0.111,0.017-0.164
			c0.082-0.66,0.639-1.172,1.32-1.17h2.328l1.824-0.002c0.279,0,0.506-0.227,0.506-0.506v-1.762c0-0.277-0.227-0.505-0.506-0.505
			h-1.824h-2.328c-0.682,0-1.238-0.512-1.32-1.171c-0.01-0.053-0.017-0.108-0.017-0.165c0-0.058,0.007-0.113,0.017-0.166
			c0.082-0.658,0.639-1.171,1.32-1.171h0.505h3.647c0.279,0,0.506-0.228,0.506-0.505v-1.765c0-0.278-0.227-0.505-0.504-0.505h-1.826
			H44.15h-0.001h-0.504c-0.682,0-1.238-0.511-1.32-1.169c-0.01-0.056-0.017-0.108-0.017-0.166s0.007-0.112,0.017-0.166
			c0.082-0.658,0.639-1.171,1.32-1.171h0.505h3.647c0.279,0,0.506-0.227,0.506-0.505v-3.403
			C48.304,18.885,48.077,18.655,47.798,18.655z"/>
	</g>
</g>
</svg>
