<?xml version="1.0" encoding="utf-8"?>
<!-- Generator: Adobe Illustrator 16.0.0, SVG Export Plug-In . SVG Version: 6.00 Build 0)  -->
<!DOCTYPE svg PUBLIC "-//W3C//DTD SVG 1.1//EN" "http://www.w3.org/Graphics/SVG/1.1/DTD/svg11.dtd">
<svg version="1.1" id="Lager_1" xmlns="http://www.w3.org/2000/svg" xmlns:xlink="http://www.w3.org/1999/xlink" x="0px" y="0px"
	 viewBox="0 0 81.751 81.751" enable-background="new 0 0 81.751 81.751" xml:space="preserve">
<g>
	<path fill="#E6007E" d="M57.8,15.007c-0.388-0.387-0.922-0.627-1.514-0.627H25.464c-1.181,0-2.138,0.958-2.138,2.14
		c0,1.179,0.957,2.137,2.137,2.137h0.505h3.007c0.278,0,0.505,0.228,0.505,0.505v17.235l0.001,17.234
		c0,0.277,0.221,0.559,0.49,0.625l6.628,1.646l0,0c0.269,0.07,0.49,0.35,0.49,0.627v6.025c0,0.277,0.228,0.504,0.505,0.504h1.119
		h4.328h1.117c0.277,0,0.506-0.227,0.506-0.504V56.51c0-0.277,0.22-0.561,0.489-0.629l6.38-1.621
		c0.269-0.068,0.488-0.352,0.488-0.629V19.162c0-0.277,0.228-0.505,0.506-0.505h3.762c1.181,0,2.138-0.958,2.138-2.137
		C58.426,15.928,58.187,15.394,57.8,15.007z"/>
	<g>
		<path fill="#FFB900" d="M39.217,63.563v13.682c0,0.275,0.14,0.682,0.31,0.902l2.698,3.463c0.171,0.221,0.311,0.17,0.311-0.107
			V63.563c0-0.277,0.227-0.504,0.505-0.504h-4.328C38.989,63.059,39.217,63.285,39.217,63.563z"/>
		<path fill="#FFB900" d="M45.302,13.875v-9.09c0-0.277,0.227-0.504,0.505-0.504h2.139c0.456,0,0.919-0.03,1.11-0.087
			c0.886-0.263,1.533-1.081,1.533-2.051c-0.001-0.592-0.24-1.126-0.627-1.513c-0.23-0.229-0.512-0.406-0.826-0.513
			c-0.215-0.072-0.578-0.114-1.19-0.114h-14.14c-0.585,0-1.022,0.05-1.256,0.137c-0.81,0.306-1.386,1.086-1.387,2.003
			c0,0.946,0.616,1.749,1.468,2.031c0.21,0.068,0.583,0.106,1.174,0.106h2.139c0.278,0,0.505,0.227,0.505,0.504v9.09
			c0,0.278-0.227,0.505-0.505,0.505h9.861C45.528,14.38,45.302,14.154,45.302,13.875z"/>
	</g>
	<g>
		<path fill="#FFFFFF" d="M47.798,18.657H33.953c-0.278,0-0.505,0.228-0.505,0.505v10.291l0.001,10.288
			c0,0.279,0.227,0.506,0.504,0.506h13.845c0.279,0,0.506-0.227,0.506-0.506v-2.6c0-0.279-0.227-0.506-0.504-0.506h-1.826h-1.824
			l0,0h-0.506c-0.68,0-1.236-0.51-1.318-1.17c-0.01-0.053-0.017-0.107-0.017-0.166c0-0.057,0.007-0.111,0.017-0.164
			c0.082-0.658,0.639-1.172,1.318-1.172h2.33h1.824c0.279,0,0.506-0.227,0.506-0.504v-1.765c0-0.277-0.227-0.504-0.506-0.504h-1.824
			h-2.328c-0.682,0-1.238-0.511-1.32-1.172c-0.01-0.053-0.017-0.106-0.017-0.165c0-0.058,0.007-0.11,0.017-0.164
			c0.082-0.66,0.638-1.171,1.32-1.171h0.505h3.647c0.279,0,0.506-0.227,0.506-0.505v-1.767c0-0.276-0.227-0.503-0.506-0.505
			l-1.824,0.002H44.15c-0.001,0-0.001,0-0.001,0h-0.504c-0.682,0-1.238-0.513-1.32-1.171c-0.01-0.054-0.017-0.108-0.017-0.166
			s0.007-0.112,0.017-0.166c0.082-0.658,0.639-1.171,1.32-1.171h0.505h3.647c0.279,0,0.506-0.227,0.506-0.505v-3.403
			C48.304,18.884,48.077,18.657,47.798,18.657z"/>
	</g>
</g>
</svg>
