<?xml version="1.0" encoding="utf-8"?>
<!-- Generator: Adobe Illustrator 16.0.0, SVG Export Plug-In . SVG Version: 6.00 Build 0)  -->
<!DOCTYPE svg PUBLIC "-//W3C//DTD SVG 1.1//EN" "http://www.w3.org/Graphics/SVG/1.1/DTD/svg11.dtd">
<svg version="1.1" id="Lager_1" xmlns="http://www.w3.org/2000/svg" xmlns:xlink="http://www.w3.org/1999/xlink" x="0px" y="0px"
	 viewBox="0 0 99.751 99.751" enable-background="new 0 0 99.751 99.751" xml:space="preserve">
<g>
	<g>
		<path fill="#7DC8F0" d="M50.523,84.648c0,0-2.725,4.117-4.087,6.662c-0.17,0.314-0.545,1.063-0.76,1.732
			c-0.216,0.67-0.272,1.268-0.272,1.582c0,2.832,2.29,5.125,5.119,5.125c2.823,0,5.114-2.293,5.114-5.125
			c0-0.314-0.053-0.912-0.271-1.582c-0.215-0.67-0.59-1.418-0.759-1.732C53.244,88.766,50.523,84.648,50.523,84.648L50.523,84.648z"
			/>
	</g>
	<path fill="#7DC8F0" d="M66.799,15.004c-0.388-0.388-0.922-0.627-1.513-0.627H34.463c-1.181,0-2.137,0.957-2.138,2.138
		c0.001,1.181,0.958,2.137,2.138,2.138h0.505h3.007c0.278,0,0.504,0.227,0.504,0.505l0.001,17.235v17.235
		c0,0.277,0.22,0.561,0.49,0.627l6.627,1.646l0,0c0.271,0.066,0.49,0.348,0.49,0.625l0,6.023c0,0.277,0.227,0.504,0.504,0.504h1.118
		h4.329h1.117c0.278,0,0.505-0.227,0.505-0.504v-6.043c0-0.279,0.221-0.563,0.49-0.629l6.379-1.621
		c0.269-0.068,0.489-0.352,0.489-0.629v-34.47c0-0.278,0.227-0.505,0.506-0.505h3.761c1.182,0,2.139-0.957,2.139-2.138
		C67.425,15.925,67.187,15.39,66.799,15.004z"/>
	<g>
		<path fill="#FFB900" d="M48.216,63.559v13.68c0,0.277,0.141,0.684,0.311,0.902l2.698,3.465c0.171,0.219,0.311,0.172,0.311-0.107
			l-0.001-17.939c0-0.279,0.228-0.506,0.506-0.506h-4.329C47.989,63.053,48.216,63.279,48.216,63.559z"/>
		<path fill="#FFB900" d="M54.301,13.872l0.001-9.09c0-0.277,0.227-0.504,0.504-0.504h2.139c0.457,0,0.919-0.031,1.111-0.087
			c0.886-0.261,1.532-1.081,1.532-2.051c0-0.59-0.239-1.125-0.626-1.511c-0.23-0.229-0.512-0.408-0.826-0.514
			c-0.215-0.072-0.578-0.112-1.191-0.112H42.805c-0.585,0-1.022,0.048-1.256,0.136c-0.81,0.304-1.386,1.085-1.387,2.001
			c0,0.946,0.616,1.75,1.469,2.031c0.21,0.069,0.583,0.107,1.175,0.107h2.14c0.277,0,0.504,0.227,0.504,0.505l0.001,9.09
			c0,0.277-0.228,0.505-0.505,0.505h9.86C54.528,14.377,54.301,14.149,54.301,13.872z"/>
	</g>
	<g>
		<path fill="#FFFFFF" d="M56.798,18.652H42.952c-0.278,0-0.505,0.227-0.505,0.505v10.29v10.29c0,0.277,0.227,0.505,0.505,0.505
			h13.845c0.277,0,0.506-0.228,0.506-0.505v-2.602c0-0.277-0.228-0.504-0.505-0.504h-1.825l-1.825,0h-0.001h-0.503
			c-0.682,0.001-1.237-0.511-1.319-1.17c-0.01-0.054-0.018-0.108-0.018-0.166c0-0.058,0.008-0.112,0.018-0.166
			c0.082-0.658,0.638-1.171,1.319-1.171h2.329h1.824c0.277,0,0.506-0.227,0.506-0.505V31.69c0-0.277-0.229-0.505-0.506-0.505h-1.824
			h-2.329c-0.682,0-1.237-0.512-1.319-1.171c-0.01-0.053-0.018-0.107-0.018-0.165c0-0.058,0.008-0.112,0.018-0.166
			c0.082-0.659,0.638-1.171,1.319-1.171h0.505h3.648c0.277,0,0.506-0.228,0.506-0.505v-1.765c0-0.277-0.228-0.505-0.505-0.505
			h-1.825h-1.824h-0.001h-0.504c-0.682,0.001-1.237-0.511-1.319-1.17c-0.01-0.053-0.018-0.108-0.018-0.165
			c0-0.058,0.008-0.112,0.018-0.166c0.082-0.659,0.638-1.171,1.319-1.17h0.505h3.648c0.278,0,0.506-0.228,0.506-0.505v-3.404
			C57.304,18.879,57.076,18.652,56.798,18.652z"/>
	</g>
</g>
</svg>
