<?xml version="1.0" encoding="utf-8"?>
<!-- Generator: Adobe Illustrator 16.0.0, SVG Export Plug-In . SVG Version: 6.00 Build 0)  -->
<!DOCTYPE svg PUBLIC "-//W3C//DTD SVG 1.1//EN" "http://www.w3.org/Graphics/SVG/1.1/DTD/svg11.dtd">
<svg version="1.1" id="Lager_1" xmlns="http://www.w3.org/2000/svg" xmlns:xlink="http://www.w3.org/1999/xlink" x="0px" y="0px"
	 viewBox="0 0 81.751 81.751" enable-background="new 0 0 81.751 81.751" xml:space="preserve">
<g>
	<path fill="#009FE4" d="M57.799,15.007c-0.387-0.387-0.922-0.627-1.512-0.627H25.463c-1.181,0-2.138,0.958-2.138,2.14
		c0,1.179,0.958,2.137,2.138,2.137h0.506h3.006c0.278,0,0.505,0.228,0.505,0.505v17.236l0,17.234c0,0.275,0.221,0.559,0.49,0.625
		l6.627,1.646l0,0c0.27,0.068,0.49,0.35,0.49,0.627v6.023c0,0.277,0.228,0.504,0.506,0.504h1.117h4.328h1.119
		c0.277,0,0.505-0.227,0.505-0.504v-6.043c0-0.279,0.22-0.563,0.489-0.629l6.379-1.621c0.27-0.068,0.489-0.354,0.489-0.629v-34.47
		c0-0.277,0.228-0.505,0.505-0.505h3.762c1.182,0,2.139-0.958,2.139-2.137C58.426,15.928,58.186,15.394,57.799,15.007z"/>
	<g>
		<path fill="#E6007E" d="M39.217,63.563v13.68c0,0.275,0.139,0.682,0.311,0.902l2.697,3.463c0.171,0.221,0.311,0.172,0.311-0.105
			V63.563c0-0.277,0.227-0.506,0.504-0.506h-4.328C38.989,63.058,39.217,63.286,39.217,63.563z"/>
		<path fill="#E6007E" d="M45.301,13.875v-9.09c0-0.277,0.228-0.504,0.506-0.504h2.139c0.456,0,0.918-0.03,1.111-0.087
			c0.885-0.263,1.531-1.081,1.531-2.051c0-0.592-0.238-1.126-0.627-1.513c-0.229-0.229-0.512-0.406-0.825-0.513
			c-0.216-0.072-0.579-0.114-1.19-0.114h-14.14c-0.585,0-1.022,0.05-1.256,0.137c-0.81,0.306-1.386,1.086-1.387,2.003
			c0,0.946,0.616,1.749,1.468,2.031c0.21,0.068,0.584,0.106,1.175,0.106h2.139c0.278,0,0.505,0.227,0.505,0.504v9.09
			c0,0.278-0.227,0.505-0.505,0.505h9.861C45.527,14.38,45.301,14.154,45.301,13.875z"/>
	</g>
	<g>
		<path fill="#FFFFFF" d="M47.799,18.657H33.953c-0.278,0-0.505,0.228-0.505,0.505v10.291l0,10.289c0,0.277,0.227,0.504,0.505,0.504
			h13.846c0.277,0,0.504-0.227,0.504-0.504V37.14c0-0.277-0.227-0.504-0.504-0.504h-1.825h-1.824h-0.001h-0.504
			c-0.682,0-1.238-0.512-1.319-1.172c-0.011-0.051-0.017-0.105-0.017-0.166c0-0.057,0.006-0.109,0.018-0.162
			c0.081-0.66,0.637-1.172,1.318-1.172h2.329h1.825c0.277,0,0.505-0.227,0.505-0.506v-1.764c0-0.277-0.228-0.504-0.505-0.504h-1.825
			h-2.329c-0.682,0-1.238-0.511-1.318-1.172c-0.011-0.053-0.018-0.106-0.018-0.165c0-0.058,0.007-0.11,0.018-0.164
			c0.081-0.66,0.637-1.171,1.318-1.171h0.506h3.648c0.277,0,0.505-0.227,0.505-0.505v-1.767c0-0.276-0.228-0.503-0.505-0.505
			l-1.825,0.002H44.15c-0.001,0-0.001,0-0.001,0h-0.505c-0.682,0-1.237-0.513-1.318-1.171c-0.011-0.054-0.018-0.108-0.018-0.166
			s0.007-0.112,0.018-0.166c0.08-0.658,0.637-1.171,1.318-1.171h0.506h3.648c0.277,0,0.505-0.227,0.505-0.505v-3.403
			C48.304,18.884,48.076,18.657,47.799,18.657z"/>
	</g>
</g>
</svg>
