<?xml version="1.0" encoding="utf-8"?>
<!-- Generator: Adobe Illustrator 16.0.0, SVG Export Plug-In . SVG Version: 6.00 Build 0)  -->
<!DOCTYPE svg PUBLIC "-//W3C//DTD SVG 1.1//EN" "http://www.w3.org/Graphics/SVG/1.1/DTD/svg11.dtd">
<svg version="1.1" id="Lager_1" xmlns="http://www.w3.org/2000/svg" xmlns:xlink="http://www.w3.org/1999/xlink" x="0px" y="0px"
	 viewBox="0 0 77.726 77.726" enable-background="new 0 0 77.726 77.726" xml:space="preserve">
<g>
	<path fill="#994916" d="M6.546,32.261c0.37-0.152,0.756-0.348,0.892-0.443c0.184-0.131,0.453-0.285,0.61-0.664s0.157-0.795,0-1.174
		c-0.238-0.575-0.795-0.946-1.417-0.946c-0.201,0-0.477,0.092-0.669,0.163c-0.191,0.072-0.404,0.155-0.589,0.232l-5.369,2.223v3.318
		L6.546,32.261z"/>
	<path fill="#994916" d="M69.931,59.025c-0.199,0.082-0.459,0.211-0.709,0.346c-0.213,0.115-0.637,0.383-0.793,0.762
		c-0.158,0.379-0.158,0.795,0,1.174c0.238,0.574,0.795,0.947,1.416,0.947c0.201,0,0.484-0.094,0.678-0.168
		c0.191-0.07,0.4-0.152,0.58-0.229l6.619-2.74v-3.32L69.931,59.025z"/>
	<path fill="#994916" d="M59.841,42.96L59.841,42.96c0.008-0.047,0.02-0.092,0.035-0.139c0.002-0.004,0.002-0.01,0.004-0.016
		c0.004-0.014,0.012-0.027,0.018-0.041c0.111-0.287,0.338-0.549,0.602-0.658l17.223-7.135v-3.32l-9.838,4.076h-0.002L60.5,38.787
		c-0.369,0.152-0.674-0.049-0.674-0.449v-3.273c0-0.4,0.305-0.854,0.674-1.006l4.336-1.797c0.203-0.084,0.469-0.215,0.721-0.352
		c0.207-0.113,0.623-0.377,0.781-0.756c0.156-0.379,0.156-0.795,0-1.174c-0.238-0.575-0.795-0.946-1.418-0.946
		c-0.201,0-0.453,0.083-0.627,0.148c-0.201,0.074-0.432,0.164-0.631,0.247L60.5,30.739c-0.369,0.151-0.674-0.05-0.674-0.45V17.738
		v-0.005c0-1.032-0.199-1.593-0.516-1.874c-0.014-0.012-0.031-0.021-0.045-0.033c-0.264-0.219-0.602-0.354-0.973-0.354
		c-0.133,0-0.264,0.02-0.387,0.053c-0.266,0.069-0.506,0.208-0.695,0.397c-0.068,0.068-0.131,0.152-0.186,0.254
		c-0.166,0.309-0.266,0.788-0.266,1.557V31.56c0,0.4-0.303,0.854-0.67,1.006l-34.45,14.27c-0.37,0.152-0.673-0.049-0.673-0.449
		v-3.275c0-0.398,0.303-0.852,0.673-1.004l23.766-9.846c0.262-0.107,0.625-0.293,0.934-0.471c0.127-0.074,0.41-0.258,0.568-0.637
		c0.156-0.379,0.156-0.795,0-1.174c-0.238-0.575-0.795-0.946-1.418-0.946c-0.201,0-0.346,0.047-0.443,0.081
		c-0.236,0.085-0.553,0.205-0.814,0.314L21.64,38.787c-0.37,0.152-0.673-0.049-0.673-0.449v-3.273c0-0.4,0.303-0.854,0.673-1.006
		l4.336-1.797c0.24-0.1,0.563-0.262,0.854-0.426c0.157-0.09,0.49-0.303,0.647-0.682s0.157-0.795,0-1.174
		c-0.238-0.575-0.795-0.946-1.419-0.946c-0.199,0-0.382,0.059-0.506,0.104c-0.227,0.083-0.512,0.193-0.75,0.292l-3.163,1.311
		c-0.37,0.151-0.673-0.05-0.673-0.45V17.733c0-1.098-0.192-1.578-0.5-1.859c-0.273-0.249-0.636-0.401-1.033-0.401
		c-0.378,0-0.727,0.139-0.994,0.368c-0.33,0.282-0.539,0.746-0.539,1.893V31.56c0,0.4-0.303,0.854-0.671,1.006L0.004,39.699v3.32
		l17.226-7.135c0.368-0.152,0.671,0.049,0.671,0.449v3.273c0,0.4-0.303,0.854-0.671,1.006L0.004,47.75v3.318l17.226-7.137
		c0.368-0.15,0.671,0.051,0.671,0.451v3.273c0,0.4-0.303,0.854-0.671,1.006L0.004,55.796v3.32l17.226-7.137
		c0.368-0.152,0.671,0.049,0.671,0.451v3.273c0,0.398-0.303,0.852-0.671,1.004l-5.588,2.316c-0.217,0.09-0.506,0.232-0.773,0.381
		c-0.188,0.105-0.572,0.348-0.729,0.727c-0.157,0.379-0.157,0.795,0,1.174c0.238,0.574,0.795,0.947,1.417,0.947
		c0.201,0,0.449-0.082,0.622-0.146c0.203-0.076,0.436-0.166,0.636-0.25l4.415-1.828c0.368-0.152,0.671,0.049,0.671,0.449v0.619
		c0,0.4,0.327,0.727,0.729,0.727h1.611c0.401,0,0.727-0.326,0.727-0.727v-1.889c0-0.4,0.303-0.854,0.673-1.006l34.45-14.271
		c0.367-0.15,0.67,0.051,0.67,0.451v3.273c0,0.4-0.303,0.854-0.67,1.006L31.071,59.025c-0.197,0.08-0.451,0.207-0.696,0.34
		c-0.215,0.115-0.649,0.389-0.806,0.768c-0.157,0.379-0.157,0.795,0,1.174c0.238,0.574,0.795,0.947,1.417,0.947
		c0.201,0,0.465-0.088,0.649-0.156c0.197-0.074,0.416-0.16,0.608-0.24l23.845-9.877c0.367-0.152,0.67,0.049,0.67,0.451v3.273
		c0,0.398-0.303,0.852-0.67,1.004l-5.588,2.316c-0.205,0.084-0.473,0.217-0.729,0.357c-0.205,0.111-0.617,0.371-0.773,0.75
		c-0.158,0.379-0.158,0.795,0,1.174c0.238,0.574,0.795,0.947,1.416,0.947c0.201,0,0.428-0.074,0.586-0.133
		c0.213-0.078,0.461-0.176,0.672-0.264l4.416-1.828c0.367-0.152,0.67,0.049,0.67,0.449v0.619c0,0.4,0.328,0.727,0.729,0.727h1.611
		c0.402,0,0.727-0.326,0.727-0.727v-1.889c0-0.4,0.303-0.854,0.674-1.006l17.223-7.135V47.75l-9.838,4.074c0,0,0,0-0.002,0.002
		L60.5,54.882c-0.369,0.154-0.674-0.049-0.674-0.449V51.16c0-0.4,0.303-0.852,0.674-1.006l17.223-7.133v-3.32l-9.836,4.074
		c-0.002,0.002-0.002,0.002-0.004,0.002L60.5,46.835c-0.369,0.152-0.674-0.049-0.674-0.449v-3.273
		C59.826,43.062,59.832,43.011,59.841,42.96z M56.759,39.607c0,0.4-0.303,0.854-0.67,1.006l-34.45,14.27
		c-0.37,0.154-0.673-0.049-0.673-0.449V51.16c0-0.4,0.303-0.852,0.673-1.006l34.45-14.27c0.367-0.152,0.67,0.049,0.67,0.449V39.607z
		"/>
</g>
</svg>
