<?xml version="1.0" encoding="utf-8"?>
<!-- Generator: Adobe Illustrator 16.0.0, SVG Export Plug-In . SVG Version: 6.00 Build 0)  -->
<!DOCTYPE svg PUBLIC "-//W3C//DTD SVG 1.1//EN" "http://www.w3.org/Graphics/SVG/1.1/DTD/svg11.dtd">
<svg version="1.1" id="Lager_1" xmlns="http://www.w3.org/2000/svg" xmlns:xlink="http://www.w3.org/1999/xlink" x="0px" y="0px"
	 viewBox="0 0 77.726 77.726" enable-background="new 0 0 77.726 77.726" xml:space="preserve">
<g>
	<path fill="#8C005A" d="M6.545,32.263c0.37-0.154,0.754-0.348,0.892-0.445c0.184-0.129,0.453-0.283,0.61-0.663
		c0.157-0.378,0.157-0.796,0-1.174c-0.238-0.576-0.795-0.946-1.419-0.946c-0.199,0-0.477,0.091-0.667,0.162
		c-0.191,0.072-0.404,0.156-0.589,0.232l-5.369,2.224v3.318L6.545,32.263z"/>
	<path fill="#8C005A" d="M69.93,59.026c-0.199,0.082-0.459,0.209-0.709,0.346c-0.212,0.113-0.637,0.383-0.793,0.762
		c-0.157,0.377-0.157,0.795,0,1.174c0.238,0.574,0.795,0.945,1.417,0.945c0.201,0,0.484-0.094,0.678-0.166
		c0.19-0.072,0.397-0.152,0.58-0.229l6.619-2.742v-3.318L69.93,59.026z"/>
	<path fill="#8C005A" d="M59.839,42.962V42.96c0.01-0.045,0.021-0.092,0.037-0.137c0.002-0.006,0.002-0.012,0.004-0.016
		c0.004-0.014,0.011-0.027,0.017-0.041c0.109-0.287,0.338-0.551,0.602-0.66l17.224-7.135v-3.318l-9.839,4.076
		c-0.002,0-0.002,0-0.002,0l-7.383,3.059c-0.368,0.152-0.673-0.051-0.673-0.449v-3.275c0-0.4,0.305-0.852,0.673-1.004l4.336-1.797
		c0.203-0.084,0.469-0.215,0.721-0.354c0.208-0.111,0.624-0.375,0.781-0.754c0.157-0.378,0.157-0.796,0-1.174
		c-0.238-0.576-0.795-0.946-1.417-0.946c-0.201,0-0.453,0.083-0.628,0.147c-0.201,0.074-0.432,0.165-0.63,0.247l-3.163,1.311
		c-0.368,0.152-0.673-0.05-0.673-0.45V17.739v-0.004c0-1.032-0.199-1.594-0.516-1.875c-0.016-0.013-0.031-0.021-0.047-0.033
		c-0.263-0.219-0.601-0.354-0.971-0.354c-0.134,0-0.264,0.02-0.388,0.052c-0.266,0.07-0.506,0.209-0.695,0.398
		c-0.068,0.068-0.131,0.152-0.185,0.253c-0.169,0.31-0.266,0.79-0.266,1.559V31.56c0,0.4-0.303,0.854-0.673,1.008L21.639,46.835
		c-0.37,0.154-0.673-0.049-0.673-0.449v-3.273c0-0.4,0.303-0.852,0.673-1.006l23.766-9.844c0.262-0.107,0.626-0.295,0.934-0.473
		c0.127-0.074,0.411-0.256,0.568-0.635c0.157-0.378,0.157-0.796,0-1.174c-0.238-0.576-0.795-0.946-1.417-0.946
		c-0.201,0-0.347,0.046-0.443,0.081c-0.237,0.084-0.553,0.204-0.814,0.313l-22.593,9.359c-0.37,0.152-0.673-0.051-0.673-0.449
		v-3.275c0-0.4,0.303-0.852,0.673-1.004l4.336-1.797c0.24-0.1,0.563-0.264,0.854-0.428c0.157-0.088,0.49-0.301,0.647-0.68
		c0.157-0.378,0.157-0.796,0-1.174c-0.238-0.576-0.795-0.946-1.419-0.946c-0.199,0-0.382,0.059-0.506,0.103
		c-0.227,0.084-0.512,0.192-0.75,0.292l-3.163,1.311c-0.37,0.152-0.673-0.05-0.673-0.45V17.735c0-1.1-0.192-1.579-0.5-1.86
		c-0.273-0.248-0.636-0.401-1.033-0.401c-0.378,0-0.727,0.14-0.994,0.368c-0.33,0.282-0.539,0.747-0.539,1.894V31.56
		c0,0.4-0.303,0.854-0.671,1.008L0.003,39.7v3.32l17.226-7.135c0.368-0.154,0.671,0.049,0.671,0.449v3.273
		c0,0.4-0.303,0.854-0.671,1.006L0.003,47.749v3.32l17.226-7.135c0.368-0.154,0.671,0.047,0.671,0.447v3.275
		c0,0.398-0.303,0.852-0.671,1.006L0.003,55.798v3.318l17.226-7.135c0.368-0.152,0.671,0.049,0.671,0.449v3.273
		c0,0.4-0.303,0.854-0.671,1.006l-5.588,2.316c-0.217,0.088-0.506,0.232-0.773,0.381c-0.188,0.104-0.572,0.348-0.729,0.727
		c-0.157,0.377-0.157,0.795,0,1.174c0.238,0.574,0.795,0.945,1.417,0.945c0.201,0,0.449-0.082,0.622-0.145
		c0.203-0.076,0.436-0.166,0.636-0.25l4.415-1.828c0.368-0.154,0.671,0.049,0.671,0.449v0.617c0,0.402,0.327,0.729,0.727,0.729
		h1.613c0.401,0,0.727-0.326,0.727-0.729v-1.889c0-0.4,0.303-0.852,0.673-1.006l34.447-14.268c0.37-0.154,0.673,0.047,0.673,0.447
		v3.275c0,0.398-0.303,0.852-0.673,1.006L31.071,59.026c-0.197,0.08-0.451,0.205-0.696,0.338c-0.215,0.117-0.649,0.391-0.806,0.77
		c-0.157,0.377-0.157,0.795,0,1.174c0.238,0.574,0.795,0.945,1.417,0.945c0.201,0,0.465-0.088,0.649-0.154
		c0.197-0.074,0.416-0.16,0.608-0.24l23.843-9.877c0.37-0.152,0.673,0.049,0.673,0.449v3.273c0,0.4-0.303,0.854-0.673,1.006
		L50.5,59.026c-0.205,0.084-0.473,0.217-0.729,0.355c-0.204,0.111-0.617,0.373-0.773,0.752c-0.157,0.377-0.157,0.795,0,1.174
		c0.238,0.574,0.795,0.945,1.417,0.945c0.201,0,0.428-0.074,0.585-0.133c0.213-0.078,0.461-0.174,0.673-0.262l4.413-1.828
		c0.37-0.154,0.673,0.049,0.673,0.449v0.617c0,0.402,0.327,0.729,0.729,0.729h1.611c0.399,0,0.727-0.326,0.727-0.729v-1.889
		c0-0.4,0.303-0.852,0.673-1.004l17.224-7.135v-3.32l-9.839,4.076h-0.002l-7.383,3.059c-0.368,0.152-0.673-0.049-0.673-0.449v-3.273
		c0-0.4,0.303-0.854,0.673-1.006l17.224-7.135v-3.318l-9.837,4.074c-0.002,0-0.002,0-0.004,0l-7.383,3.059
		c-0.368,0.154-0.673-0.049-0.673-0.449v-3.273C59.826,43.062,59.832,43.013,59.839,42.962z M56.759,39.608
		c0,0.4-0.303,0.854-0.673,1.006l-34.447,14.27c-0.37,0.152-0.673-0.049-0.673-0.449v-3.273c0-0.4,0.303-0.854,0.673-1.006
		l34.447-14.27c0.37-0.154,0.673,0.049,0.673,0.449V39.608z"/>
</g>
</svg>
