<?xml version="1.0" encoding="utf-8"?>
<!-- Generator: Adobe Illustrator 16.0.0, SVG Export Plug-In . SVG Version: 6.00 Build 0)  -->
<!DOCTYPE svg PUBLIC "-//W3C//DTD SVG 1.1//EN" "http://www.w3.org/Graphics/SVG/1.1/DTD/svg11.dtd">
<svg version="1.1" id="Lager_1" xmlns="http://www.w3.org/2000/svg" xmlns:xlink="http://www.w3.org/1999/xlink" x="0px" y="0px"
	 viewBox="0 0 77.726 77.726" enable-background="new 0 0 77.726 77.726" xml:space="preserve">
<g>
	<path fill="#0A4682" d="M52.678,13.6c0,0.022,0.002,0.044,0.004,0.067C52.68,13.644,52.678,13.623,52.678,13.6z"/>
	<path fill="#0A4682" d="M52.775,12.407c-0.014,0.051-0.025,0.101-0.039,0.151C52.75,12.507,52.762,12.458,52.775,12.407z"/>
	<path fill="#0A4682" d="M52.676,12.929c-0.008,0.09-0.014,0.182-0.014,0.273C52.662,13.111,52.668,13.019,52.676,12.929z"/>
	<path fill="#0A4682" d="M52.713,12.665c-0.01,0.058-0.02,0.115-0.025,0.174C52.693,12.78,52.703,12.722,52.713,12.665z"/>
	<path fill="#0A4682" d="M58.158,19.105c-0.027-0.002-0.055-0.005-0.08-0.007C58.104,19.1,58.131,19.103,58.158,19.105z"/>
	<path fill="#0A4682" d="M52.678,13.6c-0.01-0.132-0.016-0.265-0.016-0.397c0-0.092,0.006-0.184,0.014-0.273
		c0.002-0.031,0.008-0.062,0.012-0.091c0.006-0.059,0.016-0.116,0.025-0.174c0.008-0.036,0.016-0.071,0.023-0.106
		c0.014-0.051,0.025-0.101,0.039-0.151c0.012-0.036,0.023-0.072,0.035-0.108c0.008-0.021,0.012-0.042,0.02-0.063
		c-0.023,0.062-0.031,0.092-0.031,0.092c-0.029,0.105-0.113,0.222-0.184,0.255c-0.072,0.034-0.211,0.103-0.311,0.15l-0.797,0.383
		c-0.102,0.048-0.102,0.126,0,0.174l1.01,0.484c0.098,0.047,0.186,0.168,0.205,0.274c-0.018-0.126-0.031-0.253-0.041-0.381
		C52.68,13.644,52.678,13.623,52.678,13.6z"/>
	<path fill="#994916" d="M57.904,20.65l0.557-1.345c0.043-0.102,0.078-0.185,0.076-0.185l0,0l0,0c0,0-0.002,0-0.006,0
		c-0.125-0.001-0.248-0.008-0.373-0.016c-0.027-0.002-0.055-0.005-0.08-0.007c-0.119-0.01-0.238-0.022-0.355-0.04
		c-0.006,0-0.012-0.001-0.018-0.002c0.023,0.004,0.037,0.005,0.037,0.005c0.107,0.014,0.164,0.108,0.121,0.21l-0.84,2.024
		c0,0.002,0,0.004,0,0.006c0.055-0.102,0.117-0.186,0.186-0.254C57.398,20.858,57.639,20.719,57.904,20.65z"/>
	<path fill="#994916" d="M59.266,19.322v1.629c0.014,0.012,0.031,0.021,0.045,0.033c0.314,0.281,0.518,0.842,0.518,1.874v0.005
		c0-0.008,0.002-0.014,0.002-0.021v-3.521c0-0.11,0.09-0.2,0.201-0.2h-0.967C59.174,19.122,59.266,19.211,59.266,19.322z"/>
	<path fill="#009FE4" d="M58.158,19.105c0.125,0.008,0.246,0.015,0.373,0.016c0.018,0,0.031,0.001,0.049,0.001h0.484h0.967h2.094
		h3.146c0.111,0,0.137-0.064,0.059-0.142l-2.107-2.107l-2.193-2.193l-1.475-1.477c0,0-1.623-1.733-2.293-2.259
		c-0.469-0.368-1.111-0.596-1.746-0.596c-1.26,0-2.328,0.817-2.705,1.95c-0.012,0.036-0.023,0.072-0.035,0.108
		c-0.014,0.051-0.025,0.101-0.039,0.151c-0.008,0.035-0.016,0.07-0.023,0.106c-0.01,0.058-0.02,0.115-0.025,0.174
		c-0.004,0.029-0.01,0.06-0.012,0.091c-0.008,0.09-0.014,0.182-0.014,0.273c0,0.133,0.006,0.266,0.016,0.397
		c0,0.022,0.002,0.044,0.004,0.067c0.01,0.128,0.023,0.256,0.041,0.382v-0.001c0.371,2.588,2.414,4.634,5,5.01
		c0.117,0.018,0.236,0.03,0.355,0.04C58.104,19.1,58.131,19.103,58.158,19.105z M55.037,13.49c-0.393,0-0.713-0.319-0.713-0.714
		s0.32-0.714,0.713-0.714c0.396,0,0.715,0.319,0.715,0.714S55.434,13.49,55.037,13.49z M58.174,13.838
		c0.145-0.135,0.475-0.358,0.898,0.065c0.428,0.424,4.303,4.301,4.303,4.301c0.076,0.078,0.051,0.142-0.059,0.142h-3.148
		c-0.109,0-0.207-0.001-0.215-0.001c0,0,0,0-0.008,0c-1.436,0-2.602-1.165-2.602-2.602C57.344,14.991,57.664,14.313,58.174,13.838z"
		/>
	<path fill="#0A4682" d="M52.682,13.667c0.01,0.128,0.023,0.255,0.041,0.381v0.001C52.705,13.923,52.691,13.795,52.682,13.667z"/>
	<path fill="#0A4682" d="M52.688,12.838c-0.004,0.029-0.01,0.06-0.012,0.091C52.678,12.898,52.684,12.868,52.688,12.838z"/>
	<path fill="#0A4682" d="M52.736,12.558c-0.008,0.035-0.016,0.07-0.023,0.106C52.721,12.628,52.729,12.593,52.736,12.558z"/>
	<path fill="#0A4682" d="M52.811,12.298c-0.012,0.036-0.023,0.072-0.035,0.108C52.787,12.371,52.799,12.334,52.811,12.298z"/>
	<path fill="#0A4682" d="M52.662,13.203c0,0.133,0.006,0.266,0.016,0.397C52.668,13.468,52.662,13.335,52.662,13.203z"/>
	<path fill="#0A4682" d="M58.531,19.121c-0.127-0.001-0.248-0.008-0.373-0.016C58.283,19.113,58.406,19.12,58.531,19.121z"/>
	<path fill="#0A4682" d="M57.723,19.058c0.117,0.018,0.236,0.03,0.355,0.04C57.959,19.088,57.84,19.076,57.723,19.058z"/>
	<path fill="#0A4682" d="M55.037,12.062c-0.393,0-0.713,0.319-0.713,0.714s0.32,0.714,0.713,0.714c0.396,0,0.715-0.319,0.715-0.714
		S55.434,12.062,55.037,12.062z"/>
	<path fill="#0A4682" d="M59.945,18.345c0.008,0,0.008,0,0.008,0c0.008,0,0.105,0.001,0.215,0.001h3.148
		c0.109,0,0.135-0.063,0.059-0.142c0,0-3.875-3.877-4.303-4.301c-0.424-0.424-0.754-0.2-0.898-0.065
		c-0.51,0.475-0.83,1.152-0.83,1.905C57.344,17.18,58.51,18.345,59.945,18.345z"/>
	<path fill="#994916" d="M6.544,37.386c0.371-0.152,0.757-0.348,0.892-0.443c0.183-0.131,0.454-0.285,0.611-0.664
		c0.156-0.379,0.156-0.795,0-1.174c-0.238-0.576-0.795-0.947-1.417-0.947c-0.202,0-0.479,0.092-0.669,0.164
		c-0.191,0.072-0.405,0.154-0.589,0.232l-5.369,2.223v3.318L6.544,37.386z"/>
	<path fill="#994916" d="M69.93,64.149c-0.199,0.082-0.459,0.211-0.709,0.346c-0.211,0.115-0.637,0.383-0.793,0.762
		s-0.156,0.795,0,1.174c0.238,0.574,0.795,0.947,1.416,0.947c0.203,0,0.484-0.094,0.68-0.168c0.189-0.07,0.396-0.152,0.578-0.229
		l6.621-2.74v-3.32L69.93,64.149z"/>
	<path fill="#994916" d="M59.84,48.085L59.84,48.085c0.008-0.047,0.02-0.092,0.035-0.139c0.002-0.004,0.002-0.01,0.004-0.016
		c0.004-0.014,0.012-0.027,0.018-0.041c0.109-0.287,0.338-0.549,0.602-0.658l17.225-7.135v-3.32l-9.84,4.076
		c-0.002,0-0.002,0-0.002,0l-7.383,3.059c-0.369,0.152-0.67-0.049-0.67-0.449v-3.273c0-0.4,0.301-0.854,0.67-1.006l4.336-1.797
		c0.203-0.084,0.469-0.215,0.721-0.352c0.207-0.113,0.625-0.377,0.781-0.756s0.156-0.795,0-1.174
		c-0.238-0.576-0.795-0.947-1.416-0.947c-0.203,0-0.455,0.084-0.629,0.148c-0.201,0.074-0.43,0.164-0.629,0.248l-3.164,1.311
		c-0.369,0.15-0.67-0.051-0.67-0.451v-12.55v-0.005c0-1.032-0.203-1.593-0.518-1.874c-0.014-0.012-0.031-0.021-0.045-0.033
		c-0.266-0.219-0.604-0.354-0.973-0.354c-0.135,0-0.264,0.02-0.389,0.053c-0.266,0.069-0.506,0.208-0.695,0.397
		c-0.068,0.068-0.131,0.152-0.186,0.254c-0.166,0.309-0.264,0.788-0.264,1.557v13.827c0,0.4-0.303,0.854-0.672,1.006l-34.45,14.27
		c-0.368,0.152-0.672-0.049-0.672-0.449v-3.275c0-0.398,0.304-0.852,0.672-1.004l23.766-9.846c0.262-0.107,0.625-0.293,0.934-0.471
		c0.127-0.074,0.412-0.258,0.568-0.637s0.156-0.795,0-1.174c-0.238-0.576-0.795-0.947-1.416-0.947c-0.203,0-0.348,0.047-0.445,0.082
		c-0.236,0.084-0.551,0.205-0.813,0.314l-22.594,9.357c-0.368,0.152-0.672-0.049-0.672-0.449v-3.273c0-0.4,0.304-0.854,0.672-1.006
		l4.336-1.797c0.239-0.1,0.564-0.262,0.855-0.426c0.157-0.09,0.49-0.303,0.647-0.682c0.156-0.379,0.156-0.795,0-1.174
		c-0.238-0.576-0.795-0.947-1.417-0.947c-0.202,0-0.384,0.059-0.508,0.104c-0.227,0.084-0.512,0.193-0.75,0.293l-3.164,1.311
		c-0.368,0.15-0.672-0.051-0.672-0.451V22.858c0-1.098-0.192-1.578-0.5-1.859c-0.273-0.249-0.636-0.401-1.033-0.401
		c-0.378,0-0.728,0.139-0.995,0.368c-0.329,0.282-0.538,0.746-0.538,1.893v13.827c0,0.4-0.303,0.854-0.673,1.006L0.003,44.823v3.32
		l17.224-7.135c0.37-0.152,0.673,0.049,0.673,0.449v3.273c0,0.4-0.303,0.854-0.673,1.006L0.003,52.874v3.318l17.224-7.137
		c0.37-0.15,0.673,0.051,0.673,0.451v3.273c0,0.4-0.303,0.854-0.673,1.006L0.003,60.921v3.32l17.224-7.137
		c0.37-0.152,0.673,0.049,0.673,0.451v3.273c0,0.398-0.303,0.852-0.673,1.004l-5.586,2.316c-0.218,0.09-0.506,0.232-0.773,0.381
		c-0.188,0.105-0.572,0.348-0.729,0.727c-0.156,0.379-0.156,0.795,0,1.174c0.238,0.574,0.795,0.947,1.417,0.947
		c0.202,0,0.45-0.082,0.622-0.146c0.204-0.076,0.437-0.166,0.636-0.25l4.414-1.828c0.37-0.152,0.673,0.049,0.673,0.449v0.619
		c0,0.4,0.327,0.727,0.729,0.727h1.61c0.401,0,0.728-0.326,0.728-0.727v-1.889c0-0.4,0.304-0.854,0.672-1.006l34.45-14.271
		c0.369-0.15,0.672,0.051,0.672,0.451v3.273c0,0.4-0.303,0.854-0.672,1.006L31.071,64.149c-0.198,0.08-0.452,0.207-0.696,0.34
		c-0.215,0.115-0.649,0.389-0.807,0.768c-0.156,0.379-0.156,0.795,0,1.174c0.238,0.574,0.795,0.947,1.417,0.947
		c0.202,0,0.468-0.088,0.649-0.156c0.198-0.074,0.417-0.16,0.608-0.24l23.845-9.877c0.369-0.152,0.672,0.049,0.672,0.451v3.273
		c0,0.398-0.303,0.852-0.672,1.004L50.5,64.149c-0.205,0.084-0.473,0.217-0.729,0.357c-0.203,0.111-0.617,0.371-0.773,0.75
		s-0.156,0.795,0,1.174c0.238,0.574,0.795,0.947,1.418,0.947c0.201,0,0.428-0.074,0.584-0.133c0.213-0.078,0.459-0.176,0.672-0.264
		l4.416-1.828c0.369-0.152,0.672,0.049,0.672,0.449v0.619c0,0.4,0.326,0.727,0.729,0.727h1.609c0.402,0,0.73-0.326,0.73-0.727
		v-1.889c0-0.4,0.299-0.854,0.67-1.006l17.225-7.135v-3.318l-9.84,4.074c0,0-0.002,0-0.002,0.002l-7.383,3.057
		c-0.369,0.154-0.67-0.049-0.67-0.449v-3.273c0-0.4,0.299-0.852,0.67-1.006l17.225-7.133v-3.32l-9.838,4.074
		c-0.002,0.002-0.002,0.002-0.004,0.002l-7.383,3.059c-0.369,0.152-0.67-0.049-0.67-0.449v-3.273
		C59.828,48.187,59.832,48.136,59.84,48.085z M56.76,44.731c0,0.4-0.303,0.854-0.672,1.006l-34.45,14.27
		c-0.368,0.154-0.672-0.049-0.672-0.449v-3.273c0-0.4,0.304-0.852,0.672-1.006l34.45-14.27c0.369-0.152,0.672,0.049,0.672,0.449
		V44.731z"/>
</g>
</svg>
