<?xml version="1.0" encoding="utf-8"?>
<!-- Generator: Adobe Illustrator 16.0.0, SVG Export Plug-In . SVG Version: 6.00 Build 0)  -->
<!DOCTYPE svg PUBLIC "-//W3C//DTD SVG 1.1//EN" "http://www.w3.org/Graphics/SVG/1.1/DTD/svg11.dtd">
<svg version="1.1" id="Lager_1" xmlns="http://www.w3.org/2000/svg" xmlns:xlink="http://www.w3.org/1999/xlink" x="0px" y="0px"
	 viewBox="0 0 77.726 77.726" enable-background="new 0 0 77.726 77.726" xml:space="preserve">
<g>
	<path fill="none" d="M52.677,13.6c0.001,0.023,0.003,0.045,0.005,0.068C52.68,13.645,52.678,13.623,52.677,13.6z"/>
	<path fill="none" d="M52.776,12.408c-0.014,0.05-0.027,0.1-0.039,0.15C52.749,12.507,52.762,12.458,52.776,12.408z"/>
	<path fill="none" d="M52.675,12.929c-0.008,0.09-0.014,0.182-0.014,0.273C52.662,13.111,52.667,13.02,52.675,12.929z"/>
	<path fill="none" d="M52.713,12.665c-0.01,0.057-0.02,0.115-0.027,0.173C52.694,12.78,52.704,12.722,52.713,12.665z"/>
	<path fill="none" d="M58.159,19.104c-0.027-0.001-0.055-0.003-0.08-0.006C58.104,19.101,58.131,19.103,58.159,19.104z"/>
	<path fill="#8C005A" d="M52.677,13.6c-0.01-0.131-0.016-0.263-0.016-0.397c0-0.092,0.006-0.183,0.014-0.273
		c0.003-0.031,0.009-0.061,0.011-0.091c0.008-0.058,0.018-0.116,0.027-0.173c0.008-0.037,0.016-0.072,0.023-0.107
		c0.012-0.05,0.025-0.1,0.039-0.15c0.012-0.037,0.023-0.073,0.035-0.109c0.006-0.021,0.011-0.042,0.019-0.063
		c-0.022,0.062-0.03,0.092-0.03,0.092c-0.029,0.106-0.113,0.222-0.185,0.255c-0.071,0.034-0.211,0.102-0.312,0.15l-0.795,0.383
		c-0.102,0.048-0.102,0.125,0,0.173l1.01,0.485c0.097,0.046,0.186,0.167,0.205,0.274c-0.018-0.126-0.031-0.253-0.041-0.381
		C52.68,13.645,52.678,13.623,52.677,13.6z"/>
	<path fill="#8C005A" d="M57.905,20.649l0.556-1.344c0.043-0.102,0.078-0.186,0.076-0.186l0,0l0,0c-0.002,0-0.004,0-0.006,0
		c-0.124,0-0.248-0.007-0.372-0.016c-0.027-0.001-0.055-0.003-0.08-0.006c-0.12-0.01-0.238-0.022-0.356-0.04
		c-0.006,0-0.012-0.001-0.018-0.002c0.023,0.004,0.037,0.005,0.037,0.005c0.108,0.014,0.163,0.108,0.122,0.211l-0.84,2.023
		c0,0.002,0,0.004,0,0.005c0.055-0.101,0.117-0.185,0.185-0.253C57.399,20.858,57.639,20.719,57.905,20.649z"/>
	<path fill="#8C005A" d="M59.265,19.322v1.629c0.014,0.012,0.031,0.021,0.045,0.033c0.315,0.281,0.516,0.843,0.516,1.875v0.004
		c0.002-0.007,0.004-0.013,0.004-0.02v-3.521c0-0.11,0.091-0.2,0.201-0.2h-0.967C59.174,19.122,59.265,19.211,59.265,19.322z"/>
	<path fill="#E6007E" d="M58.159,19.104c0.124,0.009,0.246,0.016,0.372,0.016c0.018,0,0.032,0.002,0.05,0.002h0.483h0.967h2.094
		h3.147c0.108,0,0.136-0.064,0.059-0.142l-2.107-2.107l-2.194-2.194l-1.477-1.476c0,0-1.62-1.732-2.291-2.259
		c-0.468-0.367-1.111-0.595-1.745-0.595c-1.26,0-2.328,0.817-2.705,1.95c-0.012,0.036-0.023,0.073-0.035,0.109
		c-0.014,0.05-0.027,0.1-0.039,0.15c-0.008,0.035-0.016,0.071-0.023,0.107c-0.01,0.057-0.02,0.115-0.027,0.173
		c-0.002,0.031-0.008,0.061-0.011,0.091c-0.008,0.09-0.014,0.182-0.014,0.273c0,0.134,0.006,0.266,0.016,0.397
		c0.001,0.023,0.003,0.045,0.005,0.068c0.01,0.129,0.023,0.256,0.041,0.383c0,0,0-0.001,0-0.001c0.37,2.587,2.413,4.633,4.999,5.009
		c0.118,0.018,0.236,0.03,0.356,0.04C58.104,19.101,58.131,19.103,58.159,19.104z M55.038,13.49c-0.394,0-0.713-0.319-0.713-0.713
		c0-0.395,0.319-0.714,0.713-0.714c0.396,0,0.715,0.319,0.715,0.714C55.752,13.17,55.433,13.49,55.038,13.49z M58.174,13.839
		c0.145-0.136,0.475-0.359,0.898,0.065c0.425,0.424,4.302,4.301,4.302,4.301c0.077,0.078,0.052,0.142-0.059,0.142h-3.147
		c-0.11,0-0.207,0-0.215,0c0,0,0,0-0.008,0c-1.437,0-2.602-1.165-2.602-2.603C57.344,14.992,57.665,14.314,58.174,13.839z"/>
	<path fill="#E5007E" d="M52.682,13.667c0.01,0.128,0.023,0.255,0.041,0.381c0,0,0,0.001,0,0.001
		C52.706,13.924,52.692,13.796,52.682,13.667z"/>
	<path fill="#E5007E" d="M52.686,12.838c-0.002,0.031-0.008,0.061-0.011,0.091C52.678,12.898,52.684,12.869,52.686,12.838z"/>
	<path fill="#E5007E" d="M52.737,12.558c-0.008,0.036-0.016,0.071-0.023,0.107C52.721,12.628,52.729,12.593,52.737,12.558z"/>
	<path fill="#E5007E" d="M52.811,12.298c-0.012,0.036-0.023,0.073-0.035,0.109C52.788,12.371,52.799,12.334,52.811,12.298z"/>
	<path fill="#E5007E" d="M52.662,13.203c0,0.134,0.006,0.266,0.016,0.397C52.667,13.468,52.662,13.336,52.662,13.203z"/>
	<path fill="#E5007E" d="M58.531,19.12c-0.126,0-0.248-0.007-0.372-0.016C58.283,19.113,58.407,19.12,58.531,19.12z"/>
	<path fill="#E5007E" d="M57.722,19.058c0.118,0.018,0.236,0.03,0.356,0.04C57.958,19.088,57.84,19.076,57.722,19.058z"/>
	<circle fill="#8C005A" cx="55.038" cy="12.776" r="0.714"/>
	<path fill="#8C005A" d="M59.946,18.346c0.008,0,0.008,0,0.008,0c0.008,0,0.104,0,0.215,0h3.147c0.11,0,0.136-0.063,0.059-0.142
		c0,0-3.877-3.876-4.302-4.301c-0.424-0.424-0.754-0.201-0.898-0.065c-0.51,0.476-0.83,1.153-0.83,1.905
		C57.344,17.181,58.509,18.346,59.946,18.346z"/>
	<path fill="#8C005A" d="M6.544,37.387c0.371-0.154,0.755-0.349,0.89-0.445c0.185-0.13,0.456-0.284,0.613-0.663
		c0.156-0.378,0.156-0.796,0-1.174c-0.238-0.576-0.795-0.946-1.417-0.946c-0.202,0-0.479,0.091-0.669,0.162
		c-0.191,0.072-0.405,0.156-0.589,0.232l-5.369,2.224v3.319L6.544,37.387z"/>
	<path fill="#8C005A" d="M69.93,64.15c-0.2,0.082-0.46,0.21-0.71,0.346c-0.211,0.114-0.636,0.383-0.793,0.762
		c-0.156,0.378-0.156,0.796,0,1.174c0.239,0.574,0.795,0.946,1.417,0.946c0.202,0,0.484-0.095,0.679-0.167
		c0.19-0.071,0.397-0.152,0.579-0.229l6.62-2.741v-3.319L69.93,64.15z"/>
	<path fill="#8C005A" d="M59.84,48.085L59.84,48.085c0.008-0.046,0.02-0.093,0.035-0.139c0.002-0.005,0.002-0.011,0.004-0.015
		c0.004-0.014,0.012-0.027,0.018-0.042c0.108-0.287,0.338-0.55,0.601-0.659l17.225-7.135v-3.319l-9.839,4.076
		c-0.002,0.001-0.002,0.001-0.002,0.001l-7.384,3.058c-0.37,0.153-0.672-0.05-0.672-0.449v-3.274c0-0.4,0.302-0.852,0.672-1.005
		l4.337-1.796c0.203-0.085,0.469-0.215,0.721-0.354c0.207-0.112,0.624-0.376,0.781-0.755c0.156-0.378,0.156-0.796,0-1.174
		c-0.238-0.576-0.795-0.946-1.417-0.946c-0.202,0-0.454,0.083-0.628,0.147c-0.202,0.074-0.433,0.165-0.63,0.247l-3.164,1.311
		c-0.37,0.152-0.672-0.05-0.672-0.45V22.863v-0.004c0-1.032-0.2-1.594-0.516-1.875c-0.014-0.013-0.031-0.021-0.045-0.033
		c-0.266-0.219-0.603-0.354-0.973-0.354c-0.134,0-0.264,0.02-0.388,0.052c-0.266,0.07-0.506,0.209-0.696,0.398
		c-0.067,0.068-0.13,0.152-0.185,0.253c-0.166,0.31-0.265,0.79-0.265,1.559v13.825c0,0.4-0.303,0.854-0.671,1.007l-34.45,14.269
		c-0.37,0.153-0.672-0.049-0.672-0.449v-3.274c0-0.399,0.302-0.852,0.672-1.006l23.767-9.843c0.261-0.108,0.625-0.295,0.934-0.473
		c0.126-0.074,0.411-0.257,0.568-0.636c0.156-0.378,0.156-0.796,0-1.174c-0.238-0.576-0.795-0.946-1.417-0.946
		c-0.202,0-0.347,0.046-0.444,0.081c-0.236,0.084-0.552,0.204-0.813,0.313l-22.594,9.358c-0.37,0.153-0.672-0.05-0.672-0.449v-3.274
		c0-0.4,0.302-0.852,0.672-1.005l4.336-1.796c0.239-0.1,0.564-0.264,0.855-0.428c0.157-0.088,0.49-0.302,0.647-0.681
		c0.156-0.378,0.156-0.796,0-1.174c-0.238-0.576-0.795-0.946-1.417-0.946c-0.202,0-0.384,0.059-0.508,0.103
		c-0.227,0.084-0.512,0.192-0.75,0.292l-3.164,1.311c-0.37,0.152-0.672-0.05-0.672-0.45V22.859c0-1.1-0.192-1.579-0.5-1.86
		c-0.273-0.248-0.636-0.401-1.033-0.401c-0.378,0-0.728,0.14-0.995,0.368c-0.329,0.282-0.538,0.747-0.538,1.894v13.825
		c0,0.4-0.303,0.854-0.673,1.007L0.003,44.825v3.319l17.224-7.134c0.37-0.154,0.673,0.048,0.673,0.448v3.273
		c0,0.4-0.303,0.854-0.673,1.007L0.003,52.874v3.319l17.224-7.135c0.37-0.153,0.673,0.048,0.673,0.448v3.274
		c0,0.399-0.303,0.853-0.673,1.006L0.003,60.921v3.319l17.224-7.135c0.37-0.153,0.673,0.048,0.673,0.448v3.274
		c0,0.4-0.303,0.853-0.673,1.006l-5.586,2.315c-0.218,0.089-0.506,0.233-0.773,0.381c-0.188,0.104-0.572,0.348-0.729,0.727
		c-0.156,0.378-0.156,0.796,0,1.174c0.238,0.574,0.795,0.946,1.417,0.946c0.202,0,0.45-0.082,0.622-0.146
		c0.204-0.076,0.437-0.166,0.636-0.25l4.414-1.828C17.597,65,17.9,65.203,17.9,65.603v0.618c0,0.401,0.327,0.729,0.727,0.729h1.612
		c0.401,0,0.728-0.327,0.728-0.729v-1.889c0-0.4,0.302-0.853,0.672-1.006l34.45-14.269c0.368-0.153,0.671,0.048,0.671,0.448v3.274
		c0,0.399-0.303,0.853-0.671,1.006L31.071,64.15c-0.198,0.08-0.452,0.206-0.696,0.338c-0.215,0.117-0.649,0.391-0.807,0.77
		c-0.156,0.378-0.156,0.796,0,1.174c0.238,0.574,0.795,0.946,1.417,0.946c0.202,0,0.468-0.088,0.649-0.155
		c0.198-0.074,0.417-0.16,0.608-0.24l23.846-9.876c0.368-0.153,0.671,0.048,0.671,0.448v3.274c0,0.4-0.303,0.853-0.671,1.006
		L50.5,64.15c-0.206,0.084-0.474,0.217-0.729,0.356c-0.203,0.111-0.616,0.372-0.773,0.751c-0.156,0.378-0.156,0.796,0,1.174
		c0.239,0.574,0.795,0.946,1.417,0.946c0.202,0,0.429-0.075,0.586-0.133c0.213-0.078,0.459-0.174,0.672-0.263l4.416-1.828
		c0.368-0.153,0.671,0.049,0.671,0.449v0.618c0,0.401,0.327,0.729,0.727,0.729h1.612c0.399,0,0.728-0.327,0.728-0.729v-1.889
		c0-0.4,0.302-0.853,0.672-1.005l17.225-7.135v-3.319l-9.839,4.075c0,0-0.002,0-0.002,0.001l-7.384,3.058
		c-0.37,0.153-0.672-0.049-0.672-0.449v-3.273c0-0.4,0.302-0.853,0.672-1.006l17.225-7.134v-3.319L67.885,48.9
		c-0.002,0.001-0.002,0.001-0.004,0.001l-7.384,3.059c-0.37,0.153-0.672-0.049-0.672-0.449v-3.273
		C59.826,48.186,59.832,48.136,59.84,48.085z M56.759,44.732c0,0.4-0.303,0.854-0.671,1.007l-34.45,14.269
		c-0.37,0.153-0.672-0.049-0.672-0.449v-3.273c0-0.4,0.302-0.853,0.672-1.006l34.45-14.269c0.368-0.154,0.671,0.048,0.671,0.448
		V44.732z"/>
</g>
</svg>
