<?xml version="1.0" encoding="utf-8"?>
<!-- Generator: Adobe Illustrator 16.0.0, SVG Export Plug-In . SVG Version: 6.00 Build 0)  -->
<!DOCTYPE svg PUBLIC "-//W3C//DTD SVG 1.1//EN" "http://www.w3.org/Graphics/SVG/1.1/DTD/svg11.dtd">
<svg version="1.1" id="Lager_1" xmlns="http://www.w3.org/2000/svg" xmlns:xlink="http://www.w3.org/1999/xlink" x="0px" y="0px"
	 viewBox="0 0 76.563 76.564" enable-background="new 0 0 76.563 76.564" xml:space="preserve">
<g>
	<g>
		<path fill="none" d="M52.64,13.018c0.002,0.023,0.004,0.045,0.006,0.068C52.644,13.063,52.642,13.041,52.64,13.018z"/>
		<path fill="none" d="M52.74,11.826c-0.015,0.05-0.026,0.1-0.038,0.15C52.714,11.926,52.726,11.876,52.74,11.826z"/>
		<path fill="none" d="M52.64,12.348c-0.01,0.09-0.014,0.182-0.014,0.273C52.626,12.529,52.63,12.438,52.64,12.348z"/>
		<path fill="none" d="M52.679,12.083c-0.012,0.057-0.02,0.115-0.027,0.173C52.659,12.198,52.667,12.141,52.679,12.083z"/>
		<path fill="none" d="M58.121,18.522c-0.024-0.001-0.052-0.003-0.079-0.006C58.069,18.52,58.097,18.521,58.121,18.522z"/>
		<path fill="#8C005A" d="M52.64,13.018c-0.008-0.131-0.014-0.263-0.014-0.397c0-0.092,0.004-0.183,0.014-0.273
			c0.002-0.031,0.008-0.061,0.012-0.091c0.008-0.058,0.016-0.116,0.027-0.173c0.006-0.037,0.016-0.072,0.023-0.107
			c0.012-0.05,0.023-0.1,0.038-0.15c0.01-0.037,0.021-0.073,0.033-0.109c0.008-0.021,0.014-0.042,0.02-0.063
			c-0.021,0.062-0.031,0.092-0.031,0.092c-0.029,0.106-0.112,0.222-0.184,0.255c-0.072,0.034-0.212,0.102-0.311,0.15l-0.797,0.383
			c-0.099,0.048-0.099,0.125,0,0.173l1.012,0.485c0.096,0.046,0.185,0.167,0.204,0.274c-0.018-0.126-0.031-0.253-0.041-0.381
			C52.644,13.063,52.642,13.041,52.64,13.018z"/>
		<path fill="#E6007E" d="M58.121,18.522c0.124,0.009,0.248,0.016,0.372,0.016c0.018,0,0.033,0.002,0.051,0.002h0.482h0.968h2.093
			h3.148c0.11,0,0.138-0.064,0.058-0.142l-2.106-2.107l-2.192-2.194l-1.478-1.476c0,0-1.622-1.732-2.293-2.259
			c-0.467-0.367-1.11-0.595-1.744-0.595c-1.26,0-2.326,0.817-2.706,1.95c-0.012,0.036-0.023,0.073-0.033,0.109
			c-0.015,0.05-0.026,0.1-0.038,0.15c-0.008,0.035-0.018,0.071-0.023,0.107c-0.012,0.057-0.02,0.115-0.027,0.173
			c-0.004,0.031-0.01,0.061-0.012,0.091c-0.01,0.09-0.014,0.182-0.014,0.273c0,0.134,0.004,0.266,0.014,0.397
			c0.002,0.023,0.004,0.045,0.006,0.068c0.01,0.129,0.023,0.256,0.041,0.383v-0.001c0.37,2.587,2.413,4.633,4.999,5.009
			c0.118,0.018,0.236,0.03,0.356,0.04C58.069,18.52,58.097,18.521,58.121,18.522z M55.003,12.908c-0.396,0-0.714-0.319-0.714-0.713
			c0-0.395,0.318-0.714,0.714-0.714c0.394,0,0.713,0.319,0.713,0.714C55.716,12.589,55.396,12.908,55.003,12.908z M58.137,13.257
			c0.147-0.136,0.477-0.359,0.901,0.065c0.425,0.424,4.3,4.301,4.3,4.301c0.079,0.078,0.052,0.142-0.059,0.142h-3.147
			c-0.111,0-0.208,0-0.216,0c0,0,0,0-0.006,0c-1.438,0-2.603-1.165-2.603-2.603C57.308,14.41,57.627,13.733,58.137,13.257z"/>
		<path fill="#E5007E" d="M52.646,13.086c0.01,0.128,0.023,0.255,0.041,0.381v0.001C52.669,13.342,52.655,13.215,52.646,13.086z"/>
		<path fill="#E5007E" d="M52.651,12.256c-0.004,0.031-0.01,0.061-0.012,0.091C52.642,12.317,52.647,12.287,52.651,12.256z"/>
		<path fill="#E5007E" d="M52.702,11.976c-0.008,0.036-0.018,0.071-0.023,0.107C52.685,12.047,52.694,12.011,52.702,11.976z"/>
		<path fill="#E5007E" d="M52.773,11.717c-0.012,0.036-0.023,0.073-0.033,0.109C52.75,11.79,52.762,11.753,52.773,11.717z"/>
		<path fill="#E5007E" d="M52.626,12.621c0,0.134,0.006,0.266,0.014,0.397C52.63,12.887,52.626,12.755,52.626,12.621z"/>
		<path fill="#E5007E" d="M58.493,18.538c-0.124,0-0.248-0.007-0.372-0.016C58.245,18.531,58.369,18.538,58.493,18.538z"/>
		<path fill="#E5007E" d="M57.686,18.477c0.118,0.018,0.236,0.03,0.356,0.04C57.922,18.507,57.804,18.494,57.686,18.477z"/>
		<circle fill="#8C005A" cx="55.003" cy="12.195" r="0.714"/>
		<path fill="#8C005A" d="M59.91,17.765c0.006,0,0.006,0,0.006,0c0.008,0,0.104,0,0.216,0h3.147c0.11,0,0.138-0.063,0.059-0.142
			c0,0-3.875-3.876-4.3-4.301c-0.425-0.424-0.754-0.201-0.901-0.065c-0.51,0.476-0.829,1.153-0.829,1.905
			C57.308,16.6,58.473,17.765,59.91,17.765z"/>
	</g>
	<g>
		<path fill="#8C005A" d="M60.461,54.697l14.485-5.998c0.262-0.109,0.624-0.295,0.932-0.473c0.128-0.074,0.413-0.258,0.568-0.637
			c0.157-0.379,0.157-0.795,0-1.174c-0.236-0.574-0.793-0.945-1.417-0.945c-0.029,0-0.056,0.002-0.083,0.004
			c-0.157,0.012-0.277,0.047-0.359,0.076c-0.215,0.076-0.492,0.184-0.738,0.283c-0.025,0.01-0.052,0.021-0.077,0.031l-13.311,5.514
			c-0.368,0.152-0.671-0.049-0.671-0.449v-3.273c0-0.051,0.004-0.102,0.014-0.152l0,0c0.008-0.045,0.02-0.092,0.035-0.139
			c0.002-0.004,0.002-0.01,0.004-0.014c0.006-0.014,0.012-0.027,0.018-0.043c0.11-0.287,0.337-0.549,0.601-0.658l14.485-6
			c0.262-0.107,0.624-0.293,0.932-0.473c0.128-0.074,0.413-0.256,0.568-0.637c0.157-0.377,0.157-0.793,0-1.172
			c-0.236-0.576-0.793-0.947-1.417-0.947c-0.029,0-0.056,0.002-0.083,0.004c-0.157,0.012-0.277,0.049-0.359,0.076
			c-0.234,0.084-0.548,0.205-0.808,0.313c-0.002,0-0.006,0.002-0.008,0.002L60.461,43.33c-0.368,0.154-0.671-0.049-0.671-0.449
			v-3.273c0-0.4,0.303-0.852,0.671-1.006l4.338-1.795c0.202-0.086,0.467-0.215,0.719-0.354c0.208-0.113,0.625-0.377,0.781-0.756
			c0.157-0.377,0.157-0.795,0-1.174c-0.238-0.576-0.794-0.945-1.417-0.945c-0.201,0-0.453,0.082-0.628,0.146
			c-0.201,0.074-0.43,0.166-0.63,0.248l-3.163,1.311c-0.368,0.152-0.671-0.051-0.671-0.451v-12.55c0-0.007,0.004-0.013,0.004-0.02
			V18.74c0-0.11,0.09-0.2,0.2-0.2h-0.968c0.11,0,0.202,0.09,0.202,0.2c0,0,0,1.468,0,1.528c0,0.063-0.047,0.064-0.07,0.047
			c-0.254-0.188-0.563-0.3-0.901-0.3c-0.095,0-0.186,0.01-0.275,0.026c-0.038,0.008-0.091-0.014-0.062-0.099
			c0.031-0.086,0.504-1.22,0.504-1.22c0.043-0.102,0.077-0.186,0.077-0.186c-0.002,0-0.002,0-0.002,0s-0.004,0-0.006,0
			c-0.124,0-0.248-0.007-0.372-0.016c-0.024-0.001-0.052-0.003-0.079-0.006c-0.12-0.01-0.238-0.022-0.356-0.04
			c-0.004,0-0.012-0.001-0.016-0.002c0.023,0.004,0.035,0.005,0.035,0.005c0.108,0.014,0.164,0.108,0.122,0.211l-0.665,1.606
			c0,0-0.24,0.558-0.27,0.638c-0.108,0.306-0.171,0.732-0.171,1.343v13.826c0,0.4-0.3,0.854-0.67,1.006l-34.449,14.27
			c-0.369,0.152-0.672-0.049-0.672-0.449v-3.275c0-0.398,0.303-0.852,0.672-1.006l23.765-9.842c0.262-0.109,0.626-0.295,0.935-0.473
			c0.128-0.074,0.411-0.258,0.567-0.637c0.157-0.377,0.157-0.795,0-1.174c-0.238-0.576-0.794-0.945-1.417-0.945
			c-0.201,0-0.347,0.045-0.443,0.08c-0.236,0.084-0.553,0.205-0.814,0.314L21.603,43.33c-0.369,0.154-0.672-0.049-0.672-0.449
			v-3.273c0-0.4,0.303-0.852,0.672-1.006l4.336-1.795c0.238-0.1,0.563-0.264,0.854-0.428c0.158-0.088,0.491-0.303,0.648-0.682
			c0.156-0.377,0.156-0.795,0-1.174c-0.238-0.576-0.795-0.945-1.418-0.945c-0.201,0-0.383,0.059-0.507,0.102
			c-0.228,0.084-0.512,0.193-0.751,0.293l-3.162,1.311c-0.369,0.152-0.672-0.051-0.672-0.451V22.277c0-1.1-0.193-1.579-0.502-1.86
			c-0.271-0.248-0.635-0.401-1.031-0.401c-0.381,0-0.729,0.14-0.996,0.368c-0.329,0.282-0.538,0.747-0.538,1.894v13.826
			c0,0.4-0.303,0.854-0.672,1.006L2.792,43.074l0,0L1.618,43.56c-0.217,0.088-0.505,0.232-0.773,0.381
			c-0.188,0.104-0.57,0.348-0.729,0.727c-0.156,0.379-0.156,0.795,0,1.174c0.238,0.574,0.795,0.947,1.418,0.947
			c0.201,0,0.449-0.084,0.621-0.146c0.204-0.076,0.436-0.166,0.637-0.25l14.399-5.963c0.369-0.154,0.672,0.047,0.672,0.447v3.273
			c0,0.4-0.303,0.854-0.672,1.008L2.792,51.121l0,0l-1.174,0.486c-0.217,0.09-0.505,0.234-0.773,0.383
			c-0.188,0.104-0.57,0.348-0.729,0.727c-0.156,0.377-0.156,0.795,0,1.172c0.238,0.576,0.795,0.947,1.418,0.947
			c0.201,0,0.449-0.082,0.621-0.145c0.204-0.076,0.436-0.168,0.637-0.25l14.399-5.965c0.369-0.152,0.672,0.049,0.672,0.449v3.273
			c0,0.4-0.303,0.854-0.672,1.006L2.792,59.169l0,0l-1.174,0.486c-0.217,0.088-0.505,0.232-0.773,0.381
			c-0.188,0.104-0.57,0.348-0.729,0.727c-0.156,0.379-0.156,0.795,0,1.174c0.238,0.574,0.795,0.947,1.418,0.947
			c0.201,0,0.449-0.082,0.621-0.146c0.204-0.074,0.436-0.166,0.637-0.25l14.399-5.963c0.369-0.154,0.672,0.049,0.672,0.447v3.275
			c0,0.4-0.303,0.852-0.672,1.006l-5.588,2.314c-0.218,0.09-0.505,0.234-0.773,0.381c-0.188,0.105-0.572,0.348-0.728,0.727
			c-0.158,0.379-0.158,0.797,0,1.174c0.238,0.574,0.794,0.947,1.416,0.947c0.202,0,0.45-0.082,0.621-0.146
			c0.205-0.076,0.437-0.166,0.637-0.25l4.415-1.828c0.369-0.152,0.672,0.049,0.672,0.449v0.619c0,0.4,0.327,0.729,0.728,0.729h1.611
			c0.4,0,0.729-0.328,0.729-0.729v-1.889c0-0.4,0.303-0.854,0.672-1.006l34.449-14.27c0.37-0.152,0.67,0.049,0.67,0.449v3.273
			c0,0.4-0.3,0.854-0.67,1.006L31.033,63.568c-0.196,0.08-0.45,0.207-0.695,0.338c-0.216,0.117-0.649,0.391-0.806,0.77
			c-0.158,0.379-0.158,0.797,0,1.174c0.238,0.574,0.794,0.947,1.418,0.947c0.2,0,0.465-0.088,0.646-0.156
			c0.198-0.074,0.418-0.16,0.609-0.24l23.846-9.875c0.37-0.154,0.67,0.049,0.67,0.447v3.275c0,0.4-0.3,0.852-0.67,1.006
			l-5.589,2.314c-0.205,0.084-0.473,0.217-0.729,0.357c-0.203,0.111-0.616,0.371-0.773,0.75s-0.157,0.797,0,1.174
			c0.238,0.574,0.795,0.947,1.419,0.947c0.199,0,0.427-0.076,0.583-0.133c0.214-0.078,0.462-0.174,0.675-0.264l4.414-1.828
			c0.37-0.152,0.67,0.049,0.67,0.449v0.619c0,0.4,0.328,0.729,0.729,0.729h1.612c0.399,0,0.727-0.328,0.727-0.729v-1.889
			c0-0.4,0.303-0.854,0.671-1.006l14.485-6l0,0c0.262-0.107,0.624-0.293,0.932-0.471c0.128-0.076,0.413-0.258,0.568-0.637
			c0.157-0.379,0.157-0.795,0-1.174c-0.236-0.576-0.793-0.947-1.417-0.947c-0.029,0-0.056,0.002-0.083,0.006
			c-0.157,0.01-0.277,0.047-0.359,0.076c-0.215,0.076-0.49,0.182-0.736,0.281c-0.025,0.01-0.054,0.021-0.079,0.031l-13.311,5.514
			c-0.368,0.154-0.671-0.049-0.671-0.449v-3.273C59.79,55.302,60.093,54.851,60.461,54.697z M56.722,44.15
			c0,0.4-0.3,0.854-0.67,1.008L21.603,59.425c-0.369,0.154-0.672-0.049-0.672-0.449v-3.273c0-0.4,0.303-0.852,0.672-1.006
			l34.449-14.268c0.37-0.154,0.67,0.047,0.67,0.447V44.15z"/>
	</g>
</g>
</svg>
