<?xml version="1.0" encoding="utf-8"?>
<!-- Generator: Adobe Illustrator 16.0.0, SVG Export Plug-In . SVG Version: 6.00 Build 0)  -->
<!DOCTYPE svg PUBLIC "-//W3C//DTD SVG 1.1//EN" "http://www.w3.org/Graphics/SVG/1.1/DTD/svg11.dtd">
<svg version="1.1" id="Lager_1" xmlns="http://www.w3.org/2000/svg" xmlns:xlink="http://www.w3.org/1999/xlink" x="0px" y="0px"
	 viewBox="0 0 800 800" enable-background="new 0 0 800 800" xml:space="preserve">
<g>
	<path fill="#F0A5C3" d="M156.214,197.404c1.401-1.326,1.949-1.955,3.271-2.612l157.743,150.138v261.279c-1.614,0-3.222,0-4.437,0
		H4.786c-2.432,0-4.437-1.991-4.437-4.436V351.756c0-6.4,0.796-8.433,4.501-11.893C8.554,336.409,156.214,197.404,156.214,197.404z"
		/>
	<path fill="#8C005A" d="M317.229,344.929L159.486,194.792c1.223-0.611,2.901-0.999,5.126-0.999h470.584
		c3.739,0,6.64,2.122,8.574,3.611l151.365,142.033c2.068,1.941,3.206,4.128,3.668,5.492H317.229z"/>
	<g>
		<path fill="#E6007E" d="M798.803,344.929H317.229v261.279c1.599,0,477.982,0,477.982,0c2.44,0,4.438-1.991,4.438-4.436V351.798
			C799.65,348.797,799.308,346.452,798.803,344.929z"/>
	</g>
	<g>
		<g>
			<polygon fill="#F0A5C3" points="386.686,606.208 453.847,606.208 420.266,576.404 			"/>
			<polygon fill="#F0A5C3" points="464.817,596.468 464.817,536.858 431.237,566.664 			"/>
			<polygon fill="#F0A5C3" points="453.847,527.118 386.686,527.118 420.266,556.922 			"/>
			<polygon fill="#F0A5C3" points="375.708,536.858 375.708,596.468 409.282,566.664 			"/>
			<polygon fill="#F0A5C3" points="527.4,606.208 594.554,606.208 560.973,576.404 			"/>
			<polygon fill="#F0A5C3" points="594.554,527.118 527.4,527.118 560.973,556.922 			"/>
			<polygon fill="#F0A5C3" points="516.422,536.858 516.422,596.468 549.997,566.664 			"/>
			<polygon fill="#F0A5C3" points="605.526,596.468 605.526,536.858 571.952,566.664 			"/>
			<polygon fill="#F0A5C3" points="668.108,606.208 735.254,606.208 701.687,576.404 			"/>
			<polygon fill="#F0A5C3" points="746.24,596.468 746.24,536.858 712.658,566.664 			"/>
			<polygon fill="#F0A5C3" points="657.135,536.858 657.135,596.468 690.709,566.664 			"/>
			<polygon fill="#F0A5C3" points="735.254,527.118 668.108,527.118 701.687,556.922 			"/>
		</g>
	</g>
	<path fill="#8C005A" d="M462.094,456.088c-11.205-9.727-25.822-15.629-41.828-15.629c-16.012,0-30.629,5.902-41.835,15.629
		c-0.931,0.81-1.841,1.635-2.723,2.488v68.541h89.108v-68.541C463.936,457.723,463.033,456.898,462.094,456.088z"/>
	<path fill="#8C005A" d="M602.801,456.088c-11.198-9.727-25.816-15.629-41.828-15.629c-16.004,0-30.622,5.902-41.834,15.629
		c-0.933,0.81-1.843,1.635-2.717,2.488v68.541h89.104v-68.541C604.652,457.723,603.733,456.898,602.801,456.088z"/>
	<path fill="#8C005A" d="M743.516,456.088c-11.212-9.727-25.823-15.629-41.829-15.629c-16.019,0-30.628,5.902-41.834,15.629
		c-0.932,0.81-1.849,1.635-2.725,2.488v68.541h89.111v-68.541C745.358,457.723,744.448,456.898,743.516,456.088z"/>
	<g>
		<path fill="#E6007E" d="M151.188,433.109c-29.187,1.635-55.749,13.068-76.476,31.041c-1.855,1.622-3.676,3.285-5.438,5.006
			v137.053h89.103V432.894C155.965,432.894,153.57,432.98,151.188,433.109z"/>
		<path fill="#8C005A" d="M247.493,606.208V469.156c-1.77-1.721-3.59-3.384-5.446-5.006c-20.725-17.973-47.281-29.406-76.475-31.041
			c-2.374-0.129-4.778-0.215-7.195-0.215v173.314H247.493z"/>
	</g>
</g>
</svg>
