<?xml version="1.0" encoding="utf-8"?>
<!-- Generator: Adobe Illustrator 16.0.0, SVG Export Plug-In . SVG Version: 6.00 Build 0)  -->
<!DOCTYPE svg PUBLIC "-//W3C//DTD SVG 1.1//EN" "http://www.w3.org/Graphics/SVG/1.1/DTD/svg11.dtd">
<svg version="1.1" id="Lager_1" xmlns="http://www.w3.org/2000/svg" xmlns:xlink="http://www.w3.org/1999/xlink" x="0px" y="0px"
	 viewBox="0 0 85.039 85.039" enable-background="new 0 0 85.039 85.039" xml:space="preserve">
<g>
	<g>
		<path fill="#009FE4" d="M70.671,8.697c-1.693-2.804-4.598-4.63-8.352-5.318c0.354,0.581,0.563,1.261,0.563,1.99
			c0,1.007-0.393,1.92-1.029,2.604c2.252,0.486,3.941,1.545,4.881,3.103c1.326,2.198,1.084,5.25-0.676,8.602l-9.41,17.88
			l-1.332,2.531c-1.709,3.242-3.906,5.101-6.029,5.101c-0.002,0-0.006,0-0.006,0c-2.129-0.004-4.323-1.875-6.023-5.129
			l-10.618-20.35c-1.756-3.355-1.985-6.42-0.648-8.62c0.92-1.523,2.547-2.572,4.71-3.078c-0.656-0.688-1.063-1.617-1.063-2.643
			c0-0.711,0.198-1.375,0.535-1.945c-3.632,0.721-6.45,2.533-8.113,5.279c-2.205,3.631-2.024,8.297,0.501,13.137l9.316,17.851
			c0,0,5.342,10.11,6.709,12.856c1.368,2.746,2.32,5.115,2.32,9.299c0,2.119,0,5.297,0,5.297c0,4.371-2.182,11.764-10.365,11.764
			c-7.316,0-11.686-4.186-11.686-11.193V53.78c-0.736,0.18-1.506,0.277-2.299,0.277c-0.792,0-1.561-0.098-2.299-0.277v13.932
			c0,9.594,6.391,15.789,16.283,15.789c9.822,0,14.963-8.229,14.963-16.359c0,0,0-1.365,0-2.375c0-4.586,0.086-7.635,1.729-10.848
			c1.646-3.215,6.152-11.692,6.152-11.692c0-0.003,0.002-0.003,0.002-0.004l10.738-20.405C72.667,16.986,72.86,12.328,70.671,8.697z
			"/>
	</g>
	<g>
		<path fill="#E6007E" d="M22.557,54.058c-5.351,0-9.701-4.352-9.701-9.701c0-5.349,4.351-9.704,9.701-9.704
			c5.352,0,9.702,4.354,9.702,9.704C32.259,49.706,27.909,54.058,22.557,54.058z"/>
	</g>
	<g>
		<path fill="#FFFFFF" d="M26.621,44.356c0,2.246-1.821,4.064-4.063,4.064c-2.248,0-4.064-1.818-4.064-4.064
			c0-2.246,1.816-4.061,4.064-4.061C24.799,40.295,26.621,42.111,26.621,44.356z"/>
	</g>
	<g>
		<path fill="#E6007E" d="M41.872,9.2h-2.402c-2.115,0-3.831-1.715-3.831-3.831c0-2.115,1.716-3.831,3.831-3.831h2.402
			c2.116,0,3.832,1.716,3.832,3.831C45.704,7.485,43.988,9.2,41.872,9.2z"/>
	</g>
	<g>
		<path fill="#E6007E" d="M59.048,9.2h-2.398c-2.119,0-3.832-1.715-3.832-3.831c0-2.115,1.713-3.831,3.832-3.831h2.398
			c2.117,0,3.834,1.716,3.834,3.831C62.882,7.485,61.165,9.2,59.048,9.2z"/>
	</g>
</g>
</svg>
