<?xml version="1.0" encoding="utf-8"?>
<!-- Generator: Adobe Illustrator 16.0.0, SVG Export Plug-In . SVG Version: 6.00 Build 0)  -->
<!DOCTYPE svg PUBLIC "-//W3C//DTD SVG 1.1//EN" "http://www.w3.org/Graphics/SVG/1.1/DTD/svg11.dtd">
<svg version="1.1" id="Lager_1" xmlns="http://www.w3.org/2000/svg" xmlns:xlink="http://www.w3.org/1999/xlink" x="0px" y="0px"
	 viewBox="0 0 71.519 71.519" enable-background="new 0 0 71.519 71.519" xml:space="preserve">
<g>
	<g>
		<path fill="#0A4682" d="M28.83,70.835c0,0.375-0.308,0.683-0.683,0.683h-0.74c-0.375,0-0.683-0.308-0.683-0.683V48.574
			c0.674-0.075,1.377-0.175,2.105-0.313V70.835z"/>
		<path fill="#0A4682" d="M22.807,48.757c0.552,0.009,1.16,0.004,1.813-0.023v22.102c0,0.375-0.308,0.683-0.683,0.683h-0.741
			c-0.375,0-0.682-0.308-0.682-0.683V48.747C22.611,48.749,22.712,48.755,22.807,48.757z"/>
	</g>
	<g>
		<path fill="#009FE4" d="M6.315,44.722c1.225-2.056,6.256-9.802,10.949-13.646c0.635,0.957,1.721,1.589,2.955,1.589
			c0.79,0,1.517-0.261,2.105-0.698c0.188,1.783,1.694,3.172,3.526,3.172c0.79,0,1.517-0.262,2.105-0.698
			c0.188,1.782,1.694,3.172,3.525,3.172c0.79,0,1.517-0.261,2.105-0.698c0.188,1.783,1.694,3.172,3.525,3.172
			c1.506,0,2.873-1.77,2.827-1.328c-0.232,2.281-5.788,5.264-10.876,6.607c-5.088,1.346-15.556,2.457-19.123,2.924
			C6.375,48.757,4.854,47.177,6.315,44.722z"/>
	</g>
	<g>
		<path fill="#FEFAD8" d="M15.12,47.649c2.391,0.693,5.324,1.07,7.687,1.107c3.743,0.059,10-0.469,16.047-4.615
			c4.432-3.041,8.413-9.178,8.413-15.553c0-6.373-2.294-10.027-3.484-13.682c-0.398-1.224-0.601-2.549-0.38-3.613
			c0.205-0.993,0.834-1.169,1.846-1.779c0.231-0.108,0.431-0.232,0.598-0.369c0.494-0.74-0.634-1.276-0.54-2.156
			c0.095-0.898,1.464-1.583,1.174-2.464c-0.056-0.134-0.12-0.259-0.19-0.37c-0.828-1.474-2.722-3.1-5.736-3.1
			c-5.014,0-6.05,3.583-5.778,6.289c0.188,1.866,1.423,3.913,2.75,6.126c1.694,2.824,3.539,5.919,3.539,9.255
			c0,5.949-7.284,4.292-10.216,4.292c-4.332,0-8.967,0.421-13.579,4.064c0.635,0.953,1.72,1.583,2.951,1.583
			c0.79,0,1.517-0.261,2.105-0.698c0.188,1.783,1.694,3.172,3.526,3.172c0.79,0,1.517-0.262,2.105-0.698
			c0.188,1.782,1.694,3.172,3.525,3.172c0.79,0,1.517-0.261,2.105-0.698c0.188,1.783,1.694,3.172,3.525,3.172
			c1.506,0,2.873-1.77,2.827-1.328c-0.232,2.281-5.788,5.264-10.876,6.607C25.613,46.276,19.688,47.081,15.12,47.649z M40.675,5.465
			c0-0.752,0.61-1.362,1.362-1.362s1.361,0.609,1.361,1.362c0,0.752-0.609,1.362-1.361,1.362S40.675,6.217,40.675,5.465z"/>
		<circle fill="#0A4682" cx="42.037" cy="5.465" r="1.362"/>
	</g>
	<g>
		<path fill="#0A4682" d="M52.157,5.481c-0.04-0.036-0.08-0.072-0.119-0.111C52,5.332,51.964,5.292,51.928,5.252
			c-1.543-1.704-1.584-5.251-1.584-5.251s3.566,0.063,5.251,1.583c0.04,0.036,0.08,0.072,0.118,0.112
			c0.039,0.038,0.075,0.077,0.11,0.117c1.02,1.126,1.384,3.057,1.513,4.238c0.132-1.182,0.497-3.099,1.511-4.218
			c0.036-0.04,0.072-0.08,0.111-0.118c0.038-0.039,0.078-0.076,0.118-0.111c1.685-1.519,5.251-1.583,5.251-1.583
			s-0.041,3.548-1.585,5.252c-0.035,0.04-0.071,0.079-0.109,0.117c-0.039,0.039-0.079,0.076-0.119,0.111
			c-1.052,0.948-2.837,1.33-4.029,1.482c-1.878-0.374-3.982-0.792-5.9-1.177C52.433,5.706,52.288,5.599,52.157,5.481z"/>
	</g>
	<g>
		<path fill="#0A4682" d="M56.696,8.104l1.124,0.102c0.806,1.555,2.325,4.529,3.821,7.679c2.08,4.381,4.113,7.622,4.113,10.823
			c0,4.708-3.816,8.523-8.522,8.523c-4.707,0-8.522-3.815-8.522-8.523c0-3.327,1.933-6.208,3.958-10.495
			C54.246,12.871,55.879,9.68,56.696,8.104z"/>
	</g>
	<g>
		<path fill="#009FE4" d="M45.306,6.99c0.095-0.901,1.475-1.588,1.171-2.474c0.855,0.277,11.168,2.288,15.595,3.185
			c0.45,0.091,0.774,0.39,0.774,0.72c0,0.44-0.362,0.61-0.766,0.645c-0.488,0.042-1.933,0.064-3.777,0.075
			c-0.18-0.35-0.343-0.666-0.482-0.936l-1.124-0.102c-0.153,0.295-0.335,0.647-0.539,1.046c-4.095,0.008-8.974-0.015-10.312-0.003
			C46.34,8.407,45.212,7.87,45.306,6.99z"/>
	</g>
</g>
</svg>
