<?xml version="1.0" encoding="utf-8"?>
<!-- Generator: Adobe Illustrator 16.0.0, SVG Export Plug-In . SVG Version: 6.00 Build 0)  -->
<!DOCTYPE svg PUBLIC "-//W3C//DTD SVG 1.1//EN" "http://www.w3.org/Graphics/SVG/1.1/DTD/svg11.dtd">
<svg version="1.1" id="Lager_1" xmlns="http://www.w3.org/2000/svg" xmlns:xlink="http://www.w3.org/1999/xlink" x="0px" y="0px"
	 viewBox="0 0 71.518 71.518" enable-background="new 0 0 71.518 71.518" xml:space="preserve">
<g>
	<g>
		<path fill="#E6007E" d="M28.83,70.835c0,0.375-0.307,0.682-0.682,0.682h-0.741c-0.375,0-0.682-0.307-0.682-0.682V48.574
			c0.673-0.074,1.376-0.175,2.104-0.313V70.835z"/>
		<path fill="#E6007E" d="M22.807,48.757c0.552,0.008,1.161,0.004,1.813-0.023v22.102c0,0.375-0.307,0.682-0.682,0.682h-0.741
			c-0.375,0-0.682-0.307-0.682-0.682V48.747C22.611,48.75,22.712,48.755,22.807,48.757z"/>
	</g>
	<g>
		<path fill="#8C005A" d="M6.316,44.721c1.223-2.056,6.255-9.802,10.948-13.646c0.636,0.957,1.721,1.588,2.955,1.588
			c0.789,0,1.517-0.26,2.106-0.697c0.187,1.782,1.693,3.171,3.524,3.171c0.791,0,1.517-0.261,2.106-0.698
			c0.187,1.783,1.694,3.172,3.527,3.172c0.789,0,1.516-0.261,2.105-0.697c0.186,1.782,1.693,3.171,3.525,3.171
			c1.504,0,2.871-1.769,2.826-1.328c-0.234,2.281-5.791,5.265-10.876,6.608c-5.087,1.345-15.556,2.456-19.122,2.924
			C6.375,48.757,4.855,47.177,6.316,44.721z"/>
	</g>
	<g>
		<path fill="#FFE57E" d="M15.12,47.65c2.391,0.692,5.324,1.07,7.687,1.107c3.743,0.058,10-0.469,16.048-4.616
			c4.43-3.04,8.41-9.178,8.41-15.552c0-6.373-2.293-10.028-3.482-13.682c-0.398-1.224-0.602-2.549-0.381-3.613
			c0.207-0.993,0.836-1.169,1.846-1.779c0.232-0.108,0.432-0.232,0.598-0.369c0.494-0.74-0.633-1.276-0.539-2.156
			c0.096-0.898,1.463-1.583,1.174-2.464c-0.057-0.134-0.119-0.259-0.191-0.37c-0.828-1.474-2.721-3.1-5.734-3.1
			c-5.014,0-6.051,3.583-5.779,6.289c0.188,1.866,1.422,3.913,2.75,6.126c1.693,2.824,3.539,5.919,3.539,9.255
			c0,5.95-7.285,4.292-10.216,4.292c-4.332,0-8.967,0.421-13.58,4.063c0.636,0.954,1.721,1.583,2.952,1.583
			c0.789,0,1.517-0.26,2.106-0.697c0.187,1.782,1.693,3.171,3.524,3.171c0.791,0,1.517-0.261,2.106-0.698
			c0.187,1.783,1.694,3.172,3.527,3.172c0.789,0,1.516-0.261,2.105-0.697c0.186,1.782,1.693,3.171,3.525,3.171
			c1.504,0,2.871-1.769,2.826-1.328c-0.234,2.281-5.791,5.265-10.876,6.608C25.614,46.277,19.689,47.082,15.12,47.65z M40.675,5.465
			c0-0.752,0.609-1.362,1.361-1.362s1.361,0.609,1.361,1.362c0,0.752-0.609,1.362-1.361,1.362S40.675,6.217,40.675,5.465z"/>
		<circle fill="#8C005A" cx="42.037" cy="5.465" r="1.362"/>
	</g>
	<g>
		<path fill="#009FE4" d="M52.156,5.481c-0.039-0.036-0.078-0.072-0.117-0.111c-0.037-0.039-0.074-0.078-0.109-0.118
			c-1.545-1.704-1.586-5.251-1.586-5.251s3.566,0.063,5.252,1.583c0.041,0.036,0.08,0.072,0.117,0.112
			c0.039,0.038,0.076,0.077,0.109,0.117c1.021,1.126,1.385,3.057,1.514,4.238c0.133-1.182,0.498-3.099,1.512-4.218
			c0.035-0.04,0.072-0.08,0.111-0.118c0.037-0.039,0.076-0.076,0.117-0.111c1.686-1.519,5.25-1.583,5.25-1.583
			s-0.041,3.548-1.584,5.252c-0.033,0.04-0.072,0.079-0.109,0.117c-0.037,0.039-0.078,0.076-0.119,0.111
			c-1.051,0.948-2.836,1.33-4.029,1.482c-1.877-0.374-3.98-0.792-5.9-1.177C52.433,5.706,52.289,5.599,52.156,5.481z"/>
	</g>
	<g>
		<path fill="#009FE4" d="M56.697,8.104l1.123,0.102c0.807,1.555,2.326,4.529,3.822,7.679c2.08,4.381,4.111,7.622,4.111,10.823
			c0,4.707-3.814,8.522-8.521,8.522c-4.705,0-8.521-3.815-8.521-8.522c0-3.327,1.932-6.208,3.957-10.495
			C54.246,12.871,55.878,9.68,56.697,8.104z"/>
	</g>
	<g>
		<path fill="#E6007E" d="M45.306,6.99c0.096-0.901,1.475-1.588,1.17-2.474c0.855,0.277,11.168,2.288,15.594,3.185
			c0.453,0.091,0.775,0.39,0.775,0.72c0,0.44-0.363,0.61-0.766,0.645c-0.488,0.042-1.932,0.064-3.777,0.075
			c-0.18-0.35-0.342-0.666-0.482-0.936l-1.123-0.102c-0.154,0.295-0.336,0.647-0.539,1.046c-4.094,0.008-8.975-0.015-10.313-0.003
			C46.339,8.407,45.212,7.87,45.306,6.99z"/>
	</g>
</g>
</svg>
