<?xml version="1.0" encoding="utf-8"?>
<!-- Generator: Adobe Illustrator 16.0.0, SVG Export Plug-In . SVG Version: 6.00 Build 0)  -->
<!DOCTYPE svg PUBLIC "-//W3C//DTD SVG 1.1//EN" "http://www.w3.org/Graphics/SVG/1.1/DTD/svg11.dtd">
<svg version="1.1" id="Lager_1" xmlns="http://www.w3.org/2000/svg" xmlns:xlink="http://www.w3.org/1999/xlink" x="0px" y="0px"
	 viewBox="0 0 71.519 71.519" enable-background="new 0 0 71.519 71.519" xml:space="preserve">
<g>
	<g>
		<path fill="#E6007E" d="M28.829,70.836c0,0.375-0.307,0.682-0.682,0.682h-0.741c-0.376,0-0.682-0.307-0.682-0.682V48.574
			c0.673-0.074,1.376-0.176,2.104-0.313V70.836z"/>
		<path fill="#E6007E" d="M22.807,48.757c0.552,0.009,1.16,0.004,1.813-0.023v22.103c0,0.375-0.308,0.682-0.683,0.682h-0.741
			c-0.375,0-0.682-0.307-0.682-0.682v-22.09C22.61,48.749,22.711,48.755,22.807,48.757z"/>
	</g>
	<g>
		<path fill="#8C005A" d="M6.315,44.721c1.224-2.055,6.255-9.801,10.949-13.645c0.634,0.957,1.72,1.588,2.955,1.588
			c0.789,0,1.517-0.261,2.105-0.697c0.187,1.781,1.693,3.17,3.525,3.17c0.79,0,1.517-0.26,2.105-0.697
			c0.188,1.782,1.694,3.172,3.525,3.172c0.79,0,1.517-0.262,2.105-0.697c0.188,1.781,1.694,3.17,3.527,3.17
			c1.505,0,2.871-1.769,2.826-1.328c-0.234,2.281-5.79,5.265-10.877,6.609c-5.087,1.344-15.556,2.455-19.123,2.924
			C6.374,48.757,4.854,47.178,6.315,44.721z"/>
	</g>
	<g>
		<path fill="#7DC8F0" d="M15.12,47.65c2.39,0.691,5.323,1.069,7.687,1.106c3.742,0.058,9.999-0.468,16.047-4.616
			c4.432-3.04,8.412-9.178,8.412-15.551c0-6.374-2.294-10.028-3.484-13.683c-0.397-1.224-0.6-2.549-0.38-3.613
			c0.206-0.993,0.834-1.169,1.846-1.779c0.231-0.108,0.432-0.232,0.599-0.369c0.493-0.74-0.634-1.276-0.541-2.156
			c0.096-0.898,1.464-1.583,1.173-2.464c-0.054-0.134-0.118-0.259-0.189-0.37c-0.828-1.474-2.722-3.1-5.735-3.1
			c-5.015,0-6.049,3.583-5.779,6.289c0.188,1.866,1.424,3.913,2.751,6.126c1.694,2.824,3.538,5.919,3.538,9.255
			c0,5.949-7.284,4.292-10.216,4.292c-4.332,0-8.967,0.421-13.579,4.063c0.636,0.955,1.72,1.584,2.952,1.584
			c0.789,0,1.517-0.261,2.105-0.697c0.187,1.781,1.693,3.17,3.525,3.17c0.79,0,1.517-0.26,2.105-0.697
			c0.188,1.782,1.694,3.172,3.525,3.172c0.79,0,1.517-0.262,2.105-0.697c0.188,1.781,1.694,3.17,3.527,3.17
			c1.505,0,2.871-1.769,2.826-1.328c-0.234,2.281-5.79,5.265-10.877,6.609C25.613,46.277,19.689,47.081,15.12,47.65z M40.675,5.465
			c0-0.752,0.609-1.362,1.361-1.362s1.362,0.609,1.362,1.362c0,0.752-0.61,1.362-1.362,1.362S40.675,6.217,40.675,5.465z"/>
		<circle fill="#8C005A" cx="42.036" cy="5.465" r="1.362"/>
	</g>
	<g>
		<path fill="#FFB900" d="M52.156,5.481c-0.04-0.036-0.08-0.072-0.119-0.111C52,5.332,51.963,5.292,51.928,5.252
			c-1.544-1.704-1.585-5.251-1.585-5.251s3.566,0.063,5.25,1.583c0.041,0.036,0.081,0.072,0.119,0.112
			c0.039,0.038,0.075,0.077,0.11,0.117c1.021,1.126,1.384,3.057,1.514,4.238c0.131-1.182,0.497-3.099,1.511-4.218
			c0.035-0.04,0.072-0.08,0.11-0.118c0.038-0.039,0.078-0.076,0.118-0.111c1.685-1.519,5.251-1.583,5.251-1.583
			s-0.041,3.548-1.584,5.252c-0.036,0.04-0.072,0.079-0.11,0.117c-0.038,0.039-0.079,0.076-0.119,0.111
			c-1.051,0.948-2.837,1.33-4.029,1.482c-1.877-0.374-3.981-0.792-5.901-1.177C52.433,5.706,52.287,5.599,52.156,5.481z"/>
	</g>
	<g>
		<path fill="#FFB900" d="M56.695,8.104l1.124,0.102c0.806,1.555,2.326,4.529,3.822,7.679c2.08,4.381,4.113,7.622,4.113,10.823
			c0,4.708-3.816,8.522-8.523,8.522s-8.522-3.814-8.522-8.522c0-3.327,1.933-6.208,3.958-10.495
			C54.245,12.871,55.878,9.68,56.695,8.104z"/>
	</g>
	<g>
		<path fill="#E6007E" d="M45.305,6.99c0.096-0.901,1.476-1.588,1.172-2.474c0.854,0.277,11.167,2.288,15.594,3.185
			c0.451,0.091,0.774,0.39,0.774,0.72c0,0.44-0.362,0.61-0.766,0.645c-0.488,0.042-1.932,0.064-3.777,0.075
			c-0.18-0.35-0.342-0.666-0.482-0.936l-1.124-0.102c-0.152,0.295-0.335,0.647-0.539,1.046c-4.094,0.008-8.974-0.015-10.312-0.003
			C46.34,8.407,45.212,7.87,45.305,6.99z"/>
	</g>
</g>
</svg>
