<?xml version="1.0" encoding="utf-8"?>
<!-- Generator: Adobe Illustrator 16.0.0, SVG Export Plug-In . SVG Version: 6.00 Build 0)  -->
<!DOCTYPE svg PUBLIC "-//W3C//DTD SVG 1.1//EN" "http://www.w3.org/Graphics/SVG/1.1/DTD/svg11.dtd">
<svg version="1.1" id="Lager_1" xmlns="http://www.w3.org/2000/svg" xmlns:xlink="http://www.w3.org/1999/xlink" x="0px" y="0px"
	 viewBox="0 0 68.797 68.797" enable-background="new 0 0 68.797 68.797" xml:space="preserve">
<g>
	<path fill="#FFE57E" d="M67.859,28.962c2.213-5.206,0.438-11.436-4.781-13.333c-5.424-1.972-14.73-4.106-27.557-4.106
		c-16.94,0-24.957,2.866-29.171,4.588c-5.793,2.367-7.465,7.126-5.645,12.332c0.477,1.357,1.065,3.061,1.681,4.838
		c0.076,0.227,0.213,0.74,0.333,1.291c20.687-2.447,42.456-2.557,63.155-0.326c0.14-0.602,0.295-1.143,0.386-1.371
		C66.853,31.388,67.405,30.03,67.859,28.962z"/>
	<path fill="#8C005A" d="M2.72,34.571c0.099,0.455,0.186,0.934,0.22,1.297c0.119,1.273,0.098,3.068,0.539,5.117
		c0.492,2.281,1.815,3.691,3.358,3.572c-0.209-0.344-0.348-0.611-0.421-0.775c-0.113-0.258-0.203-0.67,0.386-0.738
		c0.425-0.047,0.854-0.088,1.284-0.133c15.854-1.596,36.048-1.574,51.988-0.17c0.611,0.055,1.221,0.094,1.821,0.168
		c0.347,0.043,0.45,0.191,0.306,0.57c-0.105,0.275-0.243,0.58-0.413,0.904c1.466-0.104,2.701-1.535,3.125-3.398
		c0.316-1.391,0.625-4.449,0.688-5.176c0.038-0.447,0.149-1.029,0.274-1.564C45.176,32.015,23.406,32.124,2.72,34.571z
		 M34.021,40.747c-1.941,0-3.514-1.574-3.514-3.516s1.572-3.514,3.514-3.514s3.515,1.572,3.515,3.514S35.962,40.747,34.021,40.747z"
		/>
	<path fill="#FFB900" d="M34.021,33.718c-1.941,0-3.514,1.572-3.514,3.514s1.572,3.516,3.514,3.516s3.515-1.574,3.515-3.516
		S35.962,33.718,34.021,33.718z M34.021,38.638c-0.776,0-1.405-0.629-1.405-1.406c0-0.775,0.629-1.404,1.405-1.404
		c0.778,0,1.406,0.629,1.406,1.404C35.427,38.009,34.799,38.638,34.021,38.638z"/>
	<circle fill="#009FE4" cx="34.021" cy="37.232" r="1.405"/>
	<path fill="#0A4682" d="M61.896,42.909c-0.601-0.074-1.21-0.113-1.821-0.168c-15.94-1.404-36.134-1.426-51.988,0.17
		c-0.431,0.045-0.859,0.086-1.284,0.133c-0.589,0.068-0.499,0.48-0.386,0.738c0.398,0.914,2.854,4.93,7.95,8.408
		c5.579,3.807,13.485,5.084,20.091,5.084c9.671,0,21.162-4.768,26.242-11.215c0.718-0.91,1.226-1.857,1.502-2.58
		C62.346,43.101,62.242,42.952,61.896,42.909z M21.319,45.417c0.11-0.572,0.662-0.945,1.234-0.836
		c0.014,0.002,1.217,0.232,1.961,0.285c0.813,0.061,1.469,0.064,1.477,0.064c0.581,0.004,1.051,0.477,1.049,1.059
		c-0.004,0.58-0.475,1.049-1.055,1.049c-0.002,0-0.003,0-0.004,0c-0.03,0-0.736-0.004-1.618-0.066
		c-0.871-0.064-2.154-0.311-2.209-0.32C21.584,46.54,21.21,45.989,21.319,45.417z M20.249,48.681
		c0.139-0.564,0.707-0.91,1.273-0.775c0.015,0.006,1.4,0.34,2.688,0.523c1.292,0.184,2.506,0.25,2.519,0.25
		c0.58,0.031,1.025,0.529,0.996,1.107c-0.031,0.564-0.497,1-1.053,1c-0.019,0-0.038,0-0.058-0.002
		c-0.052-0.002-1.313-0.07-2.699-0.268c-1.394-0.197-2.831-0.547-2.891-0.561C20.459,49.817,20.111,49.249,20.249,48.681z
		 M26.696,54.726c-0.031,0-0.064,0-0.097-0.004c-0.043-0.004-1.059-0.1-3.173-0.529c-1.944-0.396-3.546-0.988-3.612-1.012
		c-0.545-0.203-0.822-0.811-0.621-1.357c0.204-0.545,0.811-0.822,1.355-0.619c0.016,0.006,1.522,0.561,3.298,0.922
		c1.98,0.404,2.936,0.494,2.945,0.496c0.579,0.055,1.006,0.566,0.952,1.146C27.693,54.315,27.236,54.726,26.696,54.726z"/>
	<path fill="#7DC8F0" d="M26.792,52.622c-0.01-0.002-0.965-0.092-2.945-0.496c-1.775-0.361-3.282-0.916-3.298-0.922
		c-0.545-0.203-1.151,0.074-1.355,0.619c-0.201,0.547,0.076,1.154,0.621,1.357c0.066,0.023,1.668,0.615,3.612,1.012
		c2.114,0.43,3.13,0.525,3.173,0.529c0.032,0.004,0.065,0.004,0.097,0.004c0.54,0,0.997-0.41,1.048-0.957
		C27.798,53.188,27.371,52.677,26.792,52.622z"/>
	<path fill="#7DC8F0" d="M21.024,49.956c0.06,0.014,1.497,0.363,2.891,0.561c1.387,0.197,2.647,0.266,2.699,0.268
		c0.02,0.002,0.039,0.002,0.058,0.002c0.556,0,1.021-0.436,1.053-1c0.029-0.578-0.416-1.076-0.996-1.107
		c-0.013,0-1.227-0.066-2.519-0.25c-1.287-0.184-2.673-0.518-2.688-0.523c-0.566-0.135-1.135,0.211-1.273,0.775
		C20.111,49.249,20.459,49.817,21.024,49.956z"/>
	<path fill="#7DC8F0" d="M22.154,46.651c0.055,0.01,1.338,0.256,2.209,0.32c0.882,0.063,1.588,0.066,1.618,0.066
		c0.001,0,0.002,0,0.004,0c0.58,0,1.051-0.469,1.055-1.049c0.002-0.582-0.468-1.055-1.049-1.059c-0.008,0-0.663-0.004-1.477-0.064
		c-0.744-0.053-1.947-0.283-1.961-0.285c-0.572-0.109-1.124,0.264-1.234,0.836C21.21,45.989,21.584,46.54,22.154,46.651z"/>
</g>
</svg>
