<?xml version="1.0" encoding="utf-8"?>
<!-- Generator: Adobe Illustrator 16.0.0, SVG Export Plug-In . SVG Version: 6.00 Build 0)  -->
<!DOCTYPE svg PUBLIC "-//W3C//DTD SVG 1.1//EN" "http://www.w3.org/Graphics/SVG/1.1/DTD/svg11.dtd">
<svg version="1.1" id="Lager_1" xmlns="http://www.w3.org/2000/svg" xmlns:xlink="http://www.w3.org/1999/xlink" x="0px" y="0px"
	 viewBox="0 0 68.797 68.797" enable-background="new 0 0 68.797 68.797" xml:space="preserve">
<g>
	<path fill="#7DC8F0" d="M67.859,28.962c2.212-5.206,0.437-11.436-4.782-13.333c-5.424-1.972-14.729-4.106-27.557-4.106
		c-16.939,0-24.957,2.866-29.171,4.588c-5.793,2.367-7.465,7.126-5.644,12.332c0.476,1.357,1.065,3.061,1.679,4.838
		c0.078,0.227,0.215,0.74,0.335,1.291c20.686-2.447,42.455-2.557,63.154-0.326c0.14-0.602,0.296-1.143,0.386-1.371
		C66.852,31.388,67.404,30.03,67.859,28.962z"/>
	<path fill="#0A4682" d="M2.72,34.571c0.099,0.455,0.185,0.934,0.22,1.297c0.119,1.273,0.097,3.068,0.538,5.117
		c0.492,2.281,1.815,3.691,3.359,3.572c-0.21-0.344-0.35-0.611-0.421-0.775c-0.113-0.258-0.202-0.67,0.385-0.738
		c0.425-0.047,0.854-0.088,1.284-0.133c15.854-1.596,36.047-1.574,51.987-0.17c0.613,0.055,1.223,0.094,1.821,0.168
		c0.348,0.043,0.453,0.191,0.307,0.57c-0.104,0.275-0.242,0.58-0.413,0.904c1.466-0.104,2.702-1.535,3.125-3.398
		c0.316-1.391,0.626-4.449,0.688-5.176c0.039-0.447,0.149-1.029,0.274-1.564C45.175,32.015,23.405,32.124,2.72,34.571z
		 M37.533,37.231c0,1.941-1.572,3.516-3.514,3.516c-1.939,0-3.514-1.574-3.514-3.516s1.574-3.514,3.514-3.514
		C35.961,33.718,37.533,35.29,37.533,37.231z"/>
	<path fill="#FFB900" d="M30.506,37.231c0,1.941,1.574,3.516,3.514,3.516c1.941,0,3.514-1.574,3.514-3.516s-1.572-3.514-3.514-3.514
		C32.08,33.718,30.506,35.29,30.506,37.231z M35.426,37.231c0,0.777-0.629,1.406-1.406,1.406c-0.775,0-1.404-0.629-1.404-1.406
		c0-0.775,0.629-1.404,1.404-1.404C34.797,35.827,35.426,36.456,35.426,37.231z"/>
	<circle fill="#009FE4" cx="34.021" cy="37.231" r="1.405"/>
	<path fill="#8C005A" d="M61.894,42.909c-0.599-0.074-1.208-0.113-1.821-0.168c-15.94-1.404-36.133-1.426-51.987,0.17
		c-0.431,0.045-0.859,0.086-1.284,0.133c-0.587,0.068-0.498,0.48-0.385,0.738c0.398,0.914,2.853,4.93,7.949,8.408
		c5.578,3.807,13.485,5.084,20.091,5.084c9.671,0,21.163-4.768,26.241-11.215c0.718-0.91,1.228-1.857,1.503-2.58
		C62.347,43.101,62.241,42.952,61.894,42.909z M21.319,45.417c0.11-0.572,0.662-0.945,1.233-0.836
		c0.014,0.002,1.217,0.232,1.963,0.285c0.811,0.061,1.468,0.064,1.474,0.064c0.582,0.004,1.052,0.477,1.05,1.059
		c-0.004,0.58-0.475,1.049-1.055,1.049c-0.001,0-0.003,0-0.005,0c-0.029,0-0.735-0.004-1.618-0.066
		c-0.87-0.064-2.152-0.311-2.207-0.32C21.583,46.54,21.209,45.989,21.319,45.417z M20.248,48.681
		c0.139-0.564,0.707-0.91,1.273-0.775c0.014,0.006,1.401,0.34,2.688,0.523c1.292,0.184,2.506,0.25,2.519,0.25
		c0.58,0.031,1.025,0.529,0.995,1.107c-0.029,0.564-0.496,1-1.052,1c-0.019,0-0.038,0-0.057-0.002
		c-0.053-0.002-1.313-0.07-2.7-0.268c-1.392-0.197-2.83-0.547-2.89-0.561C20.458,49.817,20.111,49.249,20.248,48.681z
		 M26.695,54.726c-0.031,0-0.064,0-0.097-0.004c-0.042-0.004-1.058-0.1-3.173-0.529c-1.945-0.396-3.546-0.988-3.613-1.012
		c-0.545-0.203-0.823-0.811-0.62-1.357c0.204-0.545,0.811-0.822,1.356-0.619c0.015,0.006,1.521,0.561,3.297,0.922
		c1.981,0.404,2.936,0.494,2.945,0.496c0.579,0.055,1.007,0.566,0.953,1.146C27.693,54.315,27.234,54.726,26.695,54.726z"/>
	<path fill="#F0A5C3" d="M26.791,52.622c-0.01-0.002-0.964-0.092-2.945-0.496c-1.775-0.361-3.282-0.916-3.297-0.922
		c-0.546-0.203-1.152,0.074-1.356,0.619c-0.203,0.547,0.075,1.154,0.62,1.357c0.067,0.023,1.668,0.615,3.613,1.012
		c2.115,0.43,3.131,0.525,3.173,0.529c0.032,0.004,0.065,0.004,0.097,0.004c0.539,0,0.998-0.41,1.049-0.957
		C27.798,53.188,27.37,52.677,26.791,52.622z"/>
	<path fill="#F0A5C3" d="M21.024,49.956c0.06,0.014,1.498,0.363,2.89,0.561c1.387,0.197,2.647,0.266,2.7,0.268
		c0.019,0.002,0.038,0.002,0.057,0.002c0.556,0,1.022-0.436,1.052-1c0.03-0.578-0.415-1.076-0.995-1.107
		c-0.013,0-1.227-0.066-2.519-0.25c-1.286-0.184-2.674-0.518-2.688-0.523c-0.566-0.135-1.135,0.211-1.273,0.775
		C20.111,49.249,20.458,49.817,21.024,49.956z"/>
	<path fill="#F0A5C3" d="M22.154,46.651c0.055,0.01,1.337,0.256,2.207,0.32c0.883,0.063,1.589,0.066,1.618,0.066
		c0.002,0,0.004,0,0.005,0c0.58,0,1.051-0.469,1.055-1.049c0.002-0.582-0.468-1.055-1.05-1.059c-0.006,0-0.663-0.004-1.474-0.064
		c-0.746-0.053-1.949-0.283-1.963-0.285c-0.571-0.109-1.123,0.264-1.233,0.836S21.583,46.54,22.154,46.651z"/>
</g>
</svg>
