<?xml version="1.0" encoding="utf-8"?>
<!-- Generator: Adobe Illustrator 16.0.0, SVG Export Plug-In . SVG Version: 6.00 Build 0)  -->
<!DOCTYPE svg PUBLIC "-//W3C//DTD SVG 1.1//EN" "http://www.w3.org/Graphics/SVG/1.1/DTD/svg11.dtd">
<svg version="1.1" id="Lager_1" xmlns="http://www.w3.org/2000/svg" xmlns:xlink="http://www.w3.org/1999/xlink" x="0px" y="0px"
	 viewBox="0 0 76.535 76.535" enable-background="new 0 0 76.535 76.535" xml:space="preserve">
<g>
	<path fill="#FFB900" d="M70.278,66.425c-0.582-1.002-1.393-1.711-1.777-3.203c-0.402-1.553,0.09-2.602,0.709-3.732
		c0.611-1.123,1.375-2.518,1.375-4.848c0-2.451-0.588-3.734-1.109-4.869c-0.447-0.975-0.803-1.748-0.803-3.461
		c0-1.715,0.355-2.486,0.803-3.463c0.521-1.133,1.109-2.418,1.109-4.869c0-2.45-0.588-3.734-1.109-4.866
		c-0.447-0.978-0.803-1.749-0.803-3.463c0-1.28,0.678-2.419,1.332-3.521c1.031-1.734,2.16-4.819-0.365-6.831
		c-2.145-1.709-4.615-0.786-6.211,0.139c-0.963,0.558-1.828,1.155-2.938,1.155c-1.455,0-2.086-0.323-2.957-0.77
		c-0.99-0.508-2.225-1.14-4.494-1.14c-0.309,0-0.598,0.012-0.871,0.035L40.948,7.496c0.344-0.525,0.546-1.152,0.546-1.826
		c0-1.848-1.498-3.346-3.345-3.346s-3.344,1.498-3.344,3.346c0,0.674,0.201,1.301,0.545,1.826L24.129,18.717
		c-0.274-0.022-0.565-0.035-0.877-0.035c-2.269,0-3.501,0.633-4.492,1.14c-0.87,0.447-1.499,0.77-2.953,0.77
		c-1.107,0-1.953-0.635-2.935-1.155c-1.763-0.935-4.245-1.481-6.094,0.382c-2.107,2.125-1.512,4.579-0.482,6.313
		c0.655,1.103,1.335,2.244,1.335,3.524c0,1.715-0.354,2.488-0.804,3.465c-0.52,1.134-1.108,2.418-1.108,4.87
		c0,2.452,0.589,3.734,1.108,4.869c0.449,0.975,0.804,1.746,0.804,3.461s-0.354,2.488-0.804,3.463
		c-0.52,1.133-1.108,2.418-1.108,4.869s0.589,3.734,1.108,4.867c0.449,0.977,0.804,1.748,0.804,3.463
		c0,1.279-0.679,2.42-1.334,3.521c-1.03,1.734-1.994,4.969,0.366,6.828c1.598,1.26,4.104,1.109,6.211-0.137
		c0.958-0.566,1.829-1.156,2.938-1.156c1.456,0,2.087,0.322,2.957,0.77c0.991,0.51,2.226,1.141,4.494,1.141
		c2.27,0,3.502-0.633,4.493-1.141c0.871-0.447,1.5-0.77,2.953-0.77c1.455,0,2.085,0.322,2.957,0.77
		c0.989,0.508,2.223,1.141,4.492,1.141s3.503-0.633,4.495-1.141c0.869-0.447,1.499-0.77,2.952-0.77c1.455,0,2.084,0.322,2.955,0.77
		c0.99,0.508,2.221,1.141,4.49,1.141s3.502-0.633,4.492-1.141c0.871-0.447,1.498-0.77,2.953-0.77c1.107,0,1.996,0.561,2.936,1.156
		c1.836,1.162,4.496,1.416,6.209,0.135C72.196,71.425,71.386,68.337,70.278,66.425z M36.322,8.468
		c0.525,0.344,1.152,0.546,1.827,0.546s1.302-0.202,1.827-0.546l10.536,10.537c-0.813,0.228-1.426,0.542-1.967,0.817
		c-0.869,0.447-1.498,0.77-2.955,0.77c-1.455,0-2.082-0.323-2.955-0.77c-0.989-0.508-2.223-1.14-4.492-1.14
		c-2.269,0-3.501,0.633-4.492,1.14c-0.871,0.447-1.499,0.77-2.955,0.77c-1.453,0-2.083-0.323-2.952-0.77
		c-0.539-0.276-1.15-0.588-1.959-0.816L36.322,8.468z M59.722,62.019c0,0.537-0.439,0.975-0.977,0.975H17.553
		c-0.536,0-0.975-0.438-0.975-0.975V30.615c0-0.535,0.438-0.974,0.975-0.974h41.192c0.537,0,0.977,0.439,0.977,0.974V62.019z"/>
	<path fill="#E6007E" d="M24.857,43.146c0.386,0.896,1.012,2.463,2.551,2.463c1.377,0,2.118-1.287,2.543-1.863
		c0.68-0.916,1.834-0.945,2.572-0.059c0.814,0.979,1.767,1.219,2.665,0.988l1.051,2.906l5.569,15.412H42.2l3.369-9.324l0.885-2.449
		l0.65-1.803c0.404-1.115,1.037-2.027,2.215-2.027c1.184,0,1.807,0.912,2.211,2.027l0.32,0.889l1.727,4.777l2.857,7.91h2.311
		c0.537,0,0.977-0.438,0.977-0.975V30.615c0-0.535-0.439-0.974-0.977-0.974H17.553c-0.536,0-0.975,0.439-0.975,0.974v31.403
		c0,0.537,0.438,0.975,0.975,0.975h0.131l6.349-17.568L24.857,43.146z"/>
	<path fill="#8C005A" d="M51.851,50.306l-0.32-0.889c-0.404-1.115-1.027-2.027-2.211-2.027c-1.178,0-1.811,0.912-2.215,2.027
		l-0.65,1.803l-0.885,2.449L42.2,62.993h14.234l-2.857-7.91L51.851,50.306z"/>
	<path fill="#8C005A" d="M36.239,47.581l-1.051-2.906c-0.898,0.23-1.851-0.01-2.665-0.988c-0.738-0.887-1.893-0.857-2.572,0.059
		c-0.425,0.576-1.166,1.863-2.543,1.863c-1.539,0-2.165-1.566-2.551-2.463l-0.825,2.279l-6.349,17.568h24.125L36.239,47.581z"/>
	<circle fill="#FFB900" cx="49.188" cy="39.021" r="4.702"/>
	<path fill="#FFFFFF" d="M27.408,45.608c1.377,0,2.118-1.287,2.543-1.863c0.68-0.916,1.834-0.945,2.572-0.059
		c0.814,0.979,1.767,1.219,2.665,0.988l-2.069-5.728c-0.615-1.702-1.565-3.095-3.373-3.095c-1.793,0-2.758,1.394-3.371,3.095
		l-1.518,4.198C25.243,44.042,25.869,45.608,27.408,45.608z"/>
</g>
</svg>
