<?xml version="1.0" encoding="utf-8"?>
<!-- Generator: Adobe Illustrator 16.0.0, SVG Export Plug-In . SVG Version: 6.00 Build 0)  -->
<!DOCTYPE svg PUBLIC "-//W3C//DTD SVG 1.1//EN" "http://www.w3.org/Graphics/SVG/1.1/DTD/svg11.dtd">
<svg version="1.1" id="Lager_1" xmlns="http://www.w3.org/2000/svg" xmlns:xlink="http://www.w3.org/1999/xlink" x="0px" y="0px"
	 viewBox="0 0 76.536 76.536" enable-background="new 0 0 76.536 76.536" xml:space="preserve">
<g>
	<path fill="#FFB900" d="M70.28,66.427c-0.582-1.004-1.391-1.713-1.777-3.205c-0.4-1.553,0.09-2.601,0.709-3.732
		c0.611-1.122,1.375-2.518,1.375-4.848c0-2.451-0.588-3.734-1.109-4.867c-0.447-0.977-0.801-1.748-0.801-3.462
		c0-1.716,0.354-2.486,0.801-3.464c0.521-1.133,1.109-2.418,1.109-4.869c0-2.45-0.588-3.734-1.109-4.866
		c-0.447-0.978-0.801-1.749-0.801-3.463c0-1.28,0.676-2.419,1.332-3.521c1.031-1.734,2.16-4.819-0.367-6.831
		c-2.145-1.709-4.613-0.786-6.211,0.139c-0.963,0.558-1.828,1.155-2.938,1.155c-1.455,0-2.086-0.323-2.957-0.77
		c-0.99-0.508-2.225-1.14-4.494-1.14c-0.311,0-0.598,0.012-0.871,0.035L40.95,7.497c0.344-0.525,0.545-1.152,0.545-1.826
		c0-1.848-1.498-3.346-3.344-3.346c-1.847,0-3.345,1.498-3.345,3.346c0,0.674,0.202,1.301,0.545,1.826L24.13,18.718
		c-0.274-0.022-0.564-0.035-0.877-0.035c-2.269,0-3.501,0.633-4.492,1.14c-0.87,0.447-1.499,0.77-2.953,0.77
		c-1.107,0-1.952-0.635-2.935-1.155c-1.763-0.935-4.244-1.481-6.093,0.382c-2.108,2.125-1.513,4.579-0.483,6.313
		c0.656,1.103,1.335,2.244,1.335,3.524c0,1.715-0.354,2.488-0.804,3.465c-0.52,1.134-1.108,2.418-1.108,4.87
		c0,2.453,0.589,3.736,1.108,4.869c0.449,0.977,0.804,1.746,0.804,3.462s-0.354,2.487-0.804,3.464
		c-0.52,1.133-1.108,2.418-1.108,4.867c0,2.452,0.589,3.735,1.108,4.868c0.449,0.977,0.804,1.747,0.804,3.462
		c0,1.279-0.679,2.421-1.333,3.521c-1.03,1.734-1.995,4.97,0.365,6.83c1.599,1.26,4.104,1.108,6.212-0.139
		c0.957-0.565,1.829-1.155,2.938-1.155c1.456,0,2.087,0.321,2.957,0.77c0.992,0.509,2.227,1.14,4.495,1.14s3.501-0.632,4.492-1.14
		c0.871-0.448,1.5-0.77,2.954-0.77c1.455,0,2.085,0.321,2.957,0.77c0.989,0.508,2.223,1.14,4.492,1.14s3.502-0.632,4.494-1.14
		c0.87-0.448,1.5-0.77,2.955-0.77c1.453,0,2.082,0.321,2.953,0.77c0.99,0.508,2.221,1.14,4.49,1.14s3.502-0.632,4.492-1.14
		c0.871-0.448,1.5-0.77,2.953-0.77c1.107,0,1.998,0.56,2.938,1.155c1.834,1.163,4.494,1.418,6.207,0.136
		C72.198,71.425,71.387,68.337,70.28,66.427z M36.323,8.469c0.526,0.344,1.152,0.546,1.828,0.546c0.675,0,1.301-0.202,1.827-0.546
		l10.536,10.537c-0.813,0.228-1.426,0.542-1.965,0.817c-0.871,0.447-1.5,0.77-2.955,0.77s-2.084-0.323-2.957-0.77
		c-0.99-0.508-2.224-1.14-4.493-1.14c-2.268,0-3.501,0.633-4.492,1.14c-0.87,0.447-1.499,0.77-2.954,0.77
		c-1.454,0-2.084-0.323-2.952-0.77c-0.539-0.276-1.151-0.588-1.96-0.816L36.323,8.469z M59.723,62.021
		c0,0.535-0.439,0.974-0.975,0.974H17.554c-0.535,0-0.975-0.438-0.975-0.974V30.616c0-0.535,0.439-0.974,0.975-0.974h41.195
		c0.535,0,0.975,0.439,0.975,0.974V62.021z"/>
	<path fill="#7DC8F0" d="M24.858,43.146c0.387,0.896,1.012,2.465,2.552,2.465c1.376,0,2.117-1.289,2.543-1.863
		c0.68-0.916,1.833-0.946,2.572-0.059c0.813,0.977,1.766,1.217,2.664,0.986l1.051,2.906l5.569,15.413h0.392l3.37-9.325l0.885-2.447
		l0.65-1.804c0.404-1.116,1.037-2.028,2.215-2.028c1.184,0,1.807,0.912,2.211,2.028l0.32,0.888l1.727,4.778l2.859,7.91h2.311
		c0.535,0,0.975-0.438,0.975-0.974V30.616c0-0.535-0.439-0.974-0.975-0.974H17.554c-0.535,0-0.975,0.439-0.975,0.974v31.405
		c0,0.535,0.439,0.974,0.975,0.974h0.132l6.349-17.567L24.858,43.146z"/>
	<path fill="#009FE4" d="M36.24,47.582l-1.051-2.906c-0.898,0.23-1.851-0.01-2.664-0.986c-0.739-0.888-1.893-0.857-2.572,0.059
		c-0.426,0.574-1.167,1.863-2.543,1.863c-1.54,0-2.165-1.568-2.552-2.465l-0.824,2.281l-6.349,17.567H41.81L36.24,47.582z"/>
	<path fill="#009FE4" d="M51.852,50.306l-0.32-0.888c-0.404-1.116-1.027-2.028-2.211-2.028c-1.178,0-1.811,0.912-2.215,2.028
		l-0.65,1.804l-0.885,2.447l-3.37,9.325h14.237l-2.859-7.91L51.852,50.306z"/>
	<circle fill="#FFB900" cx="49.189" cy="39.022" r="4.702"/>
	<path fill="#FFFFFF" d="M27.41,45.611c1.376,0,2.117-1.289,2.543-1.863c0.68-0.916,1.833-0.946,2.572-0.059
		c0.813,0.977,1.766,1.217,2.664,0.986l-2.069-5.727c-0.615-1.702-1.564-3.095-3.373-3.095c-1.793,0-2.757,1.394-3.371,3.095
		l-1.518,4.198C25.245,44.042,25.87,45.611,27.41,45.611z"/>
</g>
</svg>
