<?xml version="1.0" encoding="utf-8"?>
<!-- Generator: Adobe Illustrator 16.0.0, SVG Export Plug-In . SVG Version: 6.00 Build 0)  -->
<!DOCTYPE svg PUBLIC "-//W3C//DTD SVG 1.1//EN" "http://www.w3.org/Graphics/SVG/1.1/DTD/svg11.dtd">
<svg version="1.1" id="Lager_1" xmlns="http://www.w3.org/2000/svg" xmlns:xlink="http://www.w3.org/1999/xlink" x="0px" y="0px"
	 viewBox="0 0 76.535 76.535" enable-background="new 0 0 76.535 76.535" xml:space="preserve">
<g>
	<path fill="#E6007E" d="M70.277,66.425c-0.58-1.002-1.391-1.711-1.775-3.203c-0.402-1.553,0.088-2.602,0.709-3.732
		c0.611-1.123,1.375-2.518,1.375-4.848c0-2.451-0.588-3.734-1.109-4.869c-0.447-0.975-0.803-1.748-0.803-3.461
		c0-1.715,0.355-2.486,0.803-3.463c0.521-1.133,1.109-2.418,1.109-4.869c0-2.45-0.588-3.734-1.109-4.866
		c-0.447-0.978-0.803-1.749-0.803-3.463c0-1.28,0.678-2.419,1.332-3.521c1.031-1.734,2.16-4.819-0.365-6.831
		c-2.145-1.709-4.615-0.786-6.213,0.139c-0.961,0.558-1.826,1.155-2.936,1.155c-1.457,0-2.086-0.323-2.957-0.77
		c-0.99-0.508-2.225-1.14-4.494-1.14c-0.311,0-0.598,0.012-0.871,0.035L40.949,7.496c0.344-0.525,0.545-1.152,0.545-1.826
		c0-1.848-1.498-3.346-3.344-3.346c-1.847,0-3.344,1.498-3.344,3.346c0,0.674,0.201,1.301,0.545,1.826L24.129,18.717
		c-0.275-0.022-0.565-0.035-0.877-0.035c-2.27,0-3.501,0.633-4.492,1.14c-0.871,0.447-1.499,0.77-2.953,0.77
		c-1.107,0-1.953-0.635-2.936-1.155c-1.763-0.935-4.244-1.481-6.093,0.382c-2.107,2.125-1.513,4.579-0.482,6.313
		c0.655,1.103,1.334,2.244,1.334,3.524c0,1.715-0.354,2.488-0.804,3.465c-0.52,1.134-1.107,2.418-1.107,4.87
		c0,2.452,0.588,3.734,1.107,4.869c0.449,0.975,0.804,1.746,0.804,3.461s-0.354,2.488-0.804,3.463
		c-0.52,1.133-1.107,2.418-1.107,4.869s0.588,3.734,1.107,4.867c0.449,0.977,0.804,1.748,0.804,3.463
		c0,1.279-0.679,2.42-1.334,3.521c-1.029,1.734-1.994,4.969,0.366,6.828c1.599,1.26,4.104,1.109,6.212-0.137
		c0.958-0.566,1.829-1.156,2.938-1.156c1.455,0,2.086,0.322,2.956,0.77c0.991,0.51,2.227,1.141,4.495,1.141s3.501-0.633,4.492-1.141
		c0.871-0.447,1.501-0.77,2.954-0.77c1.455,0,2.085,0.322,2.957,0.77c0.989,0.508,2.223,1.141,4.492,1.141s3.503-0.633,4.494-1.141
		c0.87-0.447,1.499-0.77,2.954-0.77c1.453,0,2.084,0.322,2.953,0.77c0.992,0.508,2.223,1.141,4.492,1.141s3.502-0.633,4.492-1.141
		c0.871-0.447,1.498-0.77,2.953-0.77c1.107,0,1.996,0.561,2.936,1.156c1.834,1.162,4.496,1.416,6.209,0.135
		C72.197,71.425,71.387,68.337,70.277,66.425z M36.323,8.468c0.525,0.344,1.152,0.546,1.827,0.546s1.302-0.202,1.827-0.546
		l10.537,10.537c-0.813,0.228-1.426,0.542-1.967,0.817c-0.871,0.447-1.498,0.77-2.955,0.77c-1.455,0-2.084-0.323-2.956-0.77
		c-0.99-0.508-2.224-1.14-4.493-1.14c-2.268,0-3.501,0.633-4.492,1.14c-0.87,0.447-1.498,0.77-2.954,0.77
		c-1.454,0-2.084-0.323-2.952-0.77c-0.539-0.276-1.15-0.588-1.96-0.816L36.323,8.468z M59.723,62.019
		c0,0.537-0.439,0.975-0.977,0.975H17.553c-0.537,0-0.976-0.438-0.976-0.975V30.615c0-0.535,0.438-0.974,0.976-0.974h41.193
		c0.537,0,0.977,0.439,0.977,0.974V62.019z"/>
	<path fill="#FFE57E" d="M24.857,43.146c0.387,0.896,1.013,2.463,2.552,2.463c1.377,0,2.117-1.287,2.543-1.863
		c0.68-0.916,1.833-0.945,2.572-0.059c0.814,0.979,1.767,1.219,2.665,0.988l1.05,2.906l5.57,15.412H42.2l3.369-9.324l0.887-2.449
		l0.65-1.803c0.402-1.115,1.037-2.027,2.213-2.027c1.186,0,1.809,0.912,2.213,2.027l0.32,0.889l1.727,4.777l2.857,7.91h2.311
		c0.537,0,0.977-0.438,0.977-0.975V30.615c0-0.535-0.439-0.974-0.977-0.974H17.553c-0.537,0-0.976,0.439-0.976,0.974v31.403
		c0,0.537,0.438,0.975,0.976,0.975h0.131l6.349-17.568L24.857,43.146z"/>
	<path fill="#FFB900" d="M36.239,47.581l-1.05-2.906c-0.898,0.23-1.851-0.01-2.665-0.988c-0.739-0.887-1.893-0.857-2.572,0.059
		c-0.426,0.576-1.166,1.863-2.543,1.863c-1.539,0-2.165-1.566-2.552-2.463l-0.824,2.279l-6.349,17.568h24.125L36.239,47.581z"/>
	<path fill="#FFB900" d="M51.852,50.306l-0.32-0.889c-0.404-1.115-1.027-2.027-2.213-2.027c-1.176,0-1.811,0.912-2.213,2.027
		l-0.65,1.803l-0.887,2.449L42.2,62.993h14.236l-2.857-7.91L51.852,50.306z"/>
	<path fill="#FFFFFF" d="M27.409,45.608c1.377,0,2.117-1.287,2.543-1.863c0.68-0.916,1.833-0.945,2.572-0.059
		c0.814,0.979,1.767,1.219,2.665,0.988l-2.069-5.728c-0.616-1.702-1.565-3.095-3.374-3.095c-1.792,0-2.757,1.394-3.37,3.095
		l-1.519,4.198C25.244,44.042,25.87,45.608,27.409,45.608z"/>
	<circle fill="#FFFFFF" cx="49.188" cy="39.021" r="4.701"/>
</g>
</svg>
