<?xml version="1.0" encoding="utf-8"?>
<!-- Generator: Adobe Illustrator 16.0.0, SVG Export Plug-In . SVG Version: 6.00 Build 0)  -->
<!DOCTYPE svg PUBLIC "-//W3C//DTD SVG 1.1//EN" "http://www.w3.org/Graphics/SVG/1.1/DTD/svg11.dtd">
<svg version="1.1" id="Lager_1" xmlns="http://www.w3.org/2000/svg" xmlns:xlink="http://www.w3.org/1999/xlink" x="0px" y="0px"
	 viewBox="0 0 77.556 77.556" enable-background="new 0 0 77.556 77.556" xml:space="preserve">
<g>
	<g>
		<path fill="#009FE4" d="M54.591,26.47c0.178-0.309,0.684-1.174,0.684-1.174c0.117-0.204,0.256-0.443,0.307-0.53
			c0.051-0.088,0.176-0.114,0.279-0.059c0,0,0,0,0.08,0.031c0.666,0.26,1.43,0.073,1.902-0.454c0.076-0.086,0.076-0.086,0.076-0.086
			c0.072-0.109,0.227-0.366,0.344-0.57l1.561-2.703c0.117-0.204,0.248-0.436,0.289-0.514c0,0,0,0,0.031-0.074
			c0.268-0.666,0.086-1.435-0.441-1.912c-0.088-0.078-0.088-0.078-0.088-0.078c-0.113-0.074-0.371-0.229-0.576-0.348l-2.701-1.561
			c-0.205-0.117-0.492-0.273-0.641-0.346c0,0,0,0-0.141-0.038c-0.607-0.163-1.266,0.022-1.697,0.483
			c-0.088,0.094-0.088,0.094-0.088,0.094c-0.08,0.121-0.242,0.387-0.359,0.591l-1.561,2.702c-0.119,0.205-0.254,0.448-0.303,0.541
			c0,0,0,0-0.033,0.088c-0.229,0.614-0.082,1.307,0.361,1.776c0.08,0.085,0.08,0.085,0.08,0.085c0.102,0.079,0.09,0.312-0.027,0.516
			c0,0-0.809,1.391-0.945,1.622c-0.137,0.232-0.387,0.208-0.629,0.105c-0.139-0.059-0.275-0.125-0.412-0.186
			c-2.662-1.173-5.543-1.938-8.567-2.22c-0.186-0.018-0.558-0.02-0.558-0.445c0-0.424,0-0.941,0-0.941
			c0-0.235,0.188-0.47,0.419-0.52c0,0,0.053-0.012,0.283-0.076c4.366-1.204,7.583-5.21,7.583-9.953
			c0-5.693-4.633-10.324-10.325-10.324c-5.693,0-10.324,4.631-10.324,10.324c0,4.682,3.133,8.646,7.414,9.905
			c0.285,0.084,0.451,0.122,0.451,0.122c0.23,0.051,0.418,0.286,0.418,0.521c0,0,0,0.387,0,0.846s-0.35,0.521-0.525,0.538
			c-14.104,1.295-25.148,13.155-25.148,27.597c0,15.305,12.408,27.715,27.715,27.715c15.307,0,27.715-12.41,27.715-27.715
			c0-9.168-4.451-17.294-11.311-22.34c-0.15-0.11-0.307-0.213-0.455-0.327C54.468,26.98,54.412,26.779,54.591,26.47z M36.373,17.213
			c0,0,0,0-0.177-0.067c-2.756-1.045-4.72-3.711-4.72-6.828c0-4.026,3.275-7.302,7.302-7.302c4.025,0,7.301,3.275,7.301,7.302
			c0,3.15-2.007,5.841-4.809,6.861c-0.148,0.055-0.148,0.055-0.148,0.055c-0.168,0.051-0.304-0.1-0.304-0.335v-1.716
			c0-0.235,0.114-0.434,0.255-0.439c0,0,0,0,0.104-0.02c0.693-0.131,1.241-0.684,1.367-1.377c0.019-0.1,0.019-0.1,0.019-0.1
			c0.005-0.113,0.01-0.399,0.01-0.635V9.492c0-0.236-0.005-0.523-0.01-0.639c0,0,0,0-0.019-0.101
			c-0.131-0.707-0.699-1.266-1.412-1.381c-0.089-0.015-0.089-0.015-0.089-0.015c-0.102-0.004-0.378-0.008-0.613-0.008h-3.12
			c-0.236,0-0.522,0.004-0.638,0.01c0,0,0,0-0.1,0.019c-0.702,0.129-1.259,0.69-1.38,1.394c-0.017,0.096-0.017,0.096-0.017,0.096
			c-0.005,0.107-0.009,0.389-0.009,0.625v3.121c0,0.235,0.016,0.604,0.034,0.818c0,0,0,0,0.063,0.178
			c0.189,0.535,0.641,0.951,1.197,1.092c0.09,0.023,0.09,0.023,0.09,0.023c0.103,0.013,0.186,0.216,0.186,0.451v1.724
			C36.737,17.134,36.573,17.276,36.373,17.213z"/>
		<circle fill="#C8E6FA" cx="38.778" cy="49.847" r="22.009"/>
	</g>
	<path fill="#E6007E" d="M42.856,49.848c0-1.748-1.1-3.234-2.645-3.814c0,0-0.822-16.431-0.822-16.694
		c0-0.295-0.209-0.541-0.486-0.599c-0.041-0.009-0.082-0.013-0.125-0.013s-0.084,0.005-0.125,0.013
		c-0.277,0.058-0.486,0.304-0.486,0.599c0,0.263-0.823,16.694-0.823,16.694C35.8,46.613,34.7,48.1,34.7,49.848
		c0,1.746,1.1,3.232,2.644,3.813v8.807c0,0.793,0.642,1.436,1.435,1.436s1.435-0.643,1.435-1.436c0-0.002-0.001-0.004-0.001-0.006
		V53.66C41.757,53.08,42.856,51.594,42.856,49.848z"/>
	<circle fill="#7DC8F0" cx="38.778" cy="49.848" r="1.48"/>
	<circle fill="#009FE4" cx="20.431" cy="49.912" r="1.406"/>
	<circle fill="#009FE4" cx="22.889" cy="59.086" r="1.406"/>
	<circle fill="#009FE4" cx="29.604" cy="65.801" r="1.407"/>
	<circle fill="#009FE4" cx="38.777" cy="68.26" r="1.406"/>
	<circle fill="#009FE4" cx="47.951" cy="65.801" r="1.407"/>
	<circle fill="#009FE4" cx="54.667" cy="59.086" r="1.406"/>
	<circle fill="#009FE4" cx="57.125" cy="49.912" r="1.406"/>
	<circle fill="#009FE4" cx="54.667" cy="40.739" r="1.406"/>
	<circle fill="#009FE4" cx="47.951" cy="34.023" r="1.407"/>
	<circle fill="#009FE4" cx="29.604" cy="34.023" r="1.406"/>
	<circle fill="#009FE4" cx="22.889" cy="40.738" r="1.406"/>
</g>
</svg>
