<?xml version="1.0" encoding="utf-8"?>
<!-- Generator: Adobe Illustrator 16.0.0, SVG Export Plug-In . SVG Version: 6.00 Build 0)  -->
<!DOCTYPE svg PUBLIC "-//W3C//DTD SVG 1.1//EN" "http://www.w3.org/Graphics/SVG/1.1/DTD/svg11.dtd">
<svg version="1.1" id="Lager_1" xmlns="http://www.w3.org/2000/svg" xmlns:xlink="http://www.w3.org/1999/xlink" x="0px" y="0px"
	 viewBox="0 0 90.709 90.708" enable-background="new 0 0 90.709 90.708" xml:space="preserve">
<g>
	<path fill="#994916" d="M67.896,85.16c0,0.487,0.224,0.689,0.712,0.689h3.081c0.486,0,0.712-0.202,0.712-0.689v-8.765h-4.505V85.16
		z"/>
	<path fill="#C8E6FA" d="M76.298,40.637c-1.724-4.59-2.453-8.104-5.605-8.357c-3.393-0.271-4.899,2.521-6.616,6.904
		c-1.173,2.99-4.555,7.738-2.293,10.142c1.227,1.304,3.75,1.435,5.758,0.892c1.109-0.299,3.143-0.721,5.344,1.445
		c1.375,1.357,3.697,2.021,5.114,1.131c1.439-0.908,2.059-2.779,0.978-5.872C78.121,44.477,77.218,43.084,76.298,40.637z"/>
	<path fill="#1E6E32" d="M86.555,75.556l-8.043-23.164c-0.156,0.149-0.328,0.284-0.513,0.401c-1.417,0.891-3.739,0.227-5.114-1.131
		c-2.201-2.166-4.234-1.744-5.344-1.445c-1.619,0.438-3.571,0.438-4.91-0.263l-2.197,6.328c1.986,2.358,3.593,3.618,4.704,6.009
		c1.759,3.794-0.103,6.881-3.605,6.881c-0.271,0-0.637,0-1.084,0v7.223h2.114h4.446h6.278h3.716h8.955
		C86.446,76.395,86.715,76.016,86.555,75.556z"/>
	<path fill="#C8E6FA" d="M35.209,1c0,0,3.854,3.26,2.831,9.006c-0.795,4.466-3.532,5.409-4.489,10.49
		c-0.76,4.031,1.99,6.619,1.99,6.619s-0.687-2.758,0.783-6.118c1.776-4.055,4.809-5.847,6.081-9.236
		C44.477,6.249,41.477,1.091,35.209,1z"/>
	<path fill="#009FE4" d="M36.947,68.165v0.6v17.085c3.539,0,2.813,0,3.211,0h19.548c0.45,0,0.742-0.27,0.742-0.834V69.172
		c-3.772,0-13.263,0-18.673,0C39.737,69.172,38.282,68.932,36.947,68.165z"/>
	<path fill="#FFFFFF" d="M49.449,71.707c0-0.112,0.091-0.203,0.202-0.203h2.606c0.111,0,0.202,0.091,0.202,0.203v2.606
		c0,0.111-0.091,0.202-0.202,0.202h-2.606c-0.111,0-0.202-0.091-0.202-0.202V71.707z"/>
	<path fill="#FFFFFF" d="M49.449,76.079c0-0.111,0.091-0.203,0.202-0.203h2.606c0.111,0,0.202,0.092,0.202,0.203v2.606
		c0,0.11-0.091,0.202-0.202,0.202h-2.606c-0.111,0-0.202-0.092-0.202-0.202V76.079z"/>
	<path fill="#FFFFFF" d="M45.077,71.707c0-0.112,0.091-0.203,0.202-0.203h2.605c0.11,0,0.203,0.091,0.203,0.203v2.606
		c0,0.111-0.093,0.202-0.203,0.202h-2.605c-0.111,0-0.202-0.091-0.202-0.202V71.707z"/>
	<path fill="#FFFFFF" d="M45.077,76.079c0-0.111,0.091-0.203,0.202-0.203h2.605c0.11,0,0.203,0.092,0.203,0.203v2.606
		c0,0.11-0.093,0.202-0.203,0.202h-2.605c-0.111,0-0.202-0.092-0.202-0.202V76.079z"/>
	<path fill="#7DC8F0" d="M36.945,68.163c-1.406-0.811-2.674-2.206-4.337-4.531c-3.742-5.226-6.552-9.397-7.659-10.935L12.436,67.266
		v0.928v1.641v15.201c0,0.592,0.273,0.813,0.824,0.813h23.688V68.764L36.945,68.163z"/>
	<path fill="#FFFFFF" d="M23.771,78.685c0,0.11-0.093,0.202-0.203,0.202H20.96c-0.11,0-0.2-0.092-0.2-0.202v-2.606
		c0-0.111,0.09-0.203,0.2-0.203h2.607c0.11,0,0.203,0.092,0.203,0.203V78.685z"/>
	<path fill="#FFFFFF" d="M23.771,74.313c0,0.111-0.093,0.202-0.203,0.202H20.96c-0.11,0-0.2-0.091-0.2-0.202v-2.606
		c0-0.112,0.09-0.203,0.2-0.203h2.607c0.11,0,0.203,0.091,0.203,0.203V74.313z"/>
	<path fill="#FFFFFF" d="M28.141,78.685c0,0.11-0.091,0.202-0.202,0.202h-2.604c-0.111,0-0.202-0.092-0.202-0.202v-2.606
		c0-0.111,0.091-0.203,0.202-0.203h2.604c0.111,0,0.202,0.092,0.202,0.203V78.685z"/>
	<path fill="#FFFFFF" d="M28.141,74.313c0,0.111-0.091,0.202-0.202,0.202h-2.604c-0.111,0-0.202-0.091-0.202-0.202v-2.606
		c0-0.112,0.091-0.203,0.202-0.203h2.604c0.111,0,0.202,0.091,0.202,0.203V74.313z"/>
	<path fill="#009FE4" d="M39.559,41.047c0-1.466,0-2.692,0-3.166c0-0.057,0.018-0.174,0.161-0.174c0.146,0,0.584,0,0.584,0
		c0.426,0,0.772-0.346,0.772-0.77V34.87c-0.517,0.089-1.087,0.083-1.68-0.014c-0.94-0.153-2.238-0.38-4.901-0.042
		c-1.989,0.253-3.53,0.458-4.746,0.175v1.95c0,0.424,0.348,0.77,0.771,0.77c0,0,0.515,0,0.626,0c0.114,0,0.158,0.124,0.158,0.185
		c0,0.483,0,1.712,0,3.178c0.814,0.045,1.658,0.078,2.544,0.083C36.294,41.167,37.968,41.118,39.559,41.047z"/>
	<g>
		<path fill="#C8E6FA" d="M12.436,67.266v2.568c0,0-1.57-0.02-3.397-0.02c-4.663,0-6.866-5.746-2.792-10.173
			c3.41-3.704,7.354-9.192,9.412-12.948c2.055-3.755,5.183-5.898,9.116-5.943c2.95-0.033,5.709,0.383,9.073,0.402
			c5.017,0.027,6.79-0.204,11.234-0.357c3.484-0.12,6.245,1.166,8.095,3.32c2.468,2.871,4.517,8.554,5.986,10.555
			c2.575,3.502,4.635,4.738,5.975,7.621c1.759,3.794-0.103,6.881-3.605,6.881c-2.563,0-13.709,0-19.757,0
			c-4.188,0-5.924-1.01-9.167-5.541c-4.34-6.063-7.431-10.709-8.059-11.467c-0.943-1.135-2.157-1.376-3.403,0.052
			c-0.735,0.843-8.585,10.125-11.166,13.103c-0.847,0.977-0.229,1.944,1.009,1.944c0.447,0,1.372,0,1.372,0L12.436,67.266z"/>
	</g>
	<path fill="#C8E6FA" d="M36.691,28.594c-1.752,0.374-2.724-0.065-4.394-0.338c-2.576-0.422-4.303,0.912-4.816,1.953
		c-0.775,1.58-0.282,3.375,1.142,4.309c1.352,0.888,3.212,0.634,5.872,0.296c2.663-0.337,3.961-0.111,4.901,0.042
		c2.07,0.338,3.886-0.38,3.971-2.704C43.444,30.039,41.044,27.665,36.691,28.594z"/>
	<g>
		<path fill="#009FE4" d="M21.146,52.216c-0.735,0.843-8.585,10.125-11.166,13.103c-0.847,0.977-0.229,1.944,1.009,1.944
			c0.447,0,1.372,0,1.372,0l0.074,0.003l12.514-14.569c-0.178-0.246-0.313-0.428-0.399-0.532
			C23.606,51.03,22.393,50.789,21.146,52.216z"/>
	</g>
</g>
</svg>
