<?xml version="1.0" encoding="utf-8"?>
<!-- Generator: Adobe Illustrator 16.0.0, SVG Export Plug-In . SVG Version: 6.00 Build 0)  -->
<!DOCTYPE svg PUBLIC "-//W3C//DTD SVG 1.1//EN" "http://www.w3.org/Graphics/SVG/1.1/DTD/svg11.dtd">
<svg version="1.1" id="Lager_1" xmlns="http://www.w3.org/2000/svg" xmlns:xlink="http://www.w3.org/1999/xlink" x="0px" y="0px"
	 viewBox="0 0 90.709 90.709" enable-background="new 0 0 90.709 90.709" xml:space="preserve">
<g>
	<path fill="#994916" d="M67.896,85.159c0,0.488,0.224,0.689,0.712,0.689h3.082c0.488,0,0.712-0.201,0.712-0.689v-8.766h-4.506
		V85.159z"/>
	<path fill="#F2EEE6" d="M76.298,40.638c-1.726-4.591-2.453-8.105-5.606-8.358c-3.394-0.271-4.899,2.521-6.615,6.903
		c-1.174,2.992-4.556,7.738-2.294,10.143c1.227,1.305,3.751,1.436,5.759,0.893c1.109-0.301,3.142-0.721,5.343,1.445
		c1.376,1.355,3.698,2.021,5.112,1.129c1.441-0.906,2.06-2.777,0.98-5.871C78.121,44.476,77.217,43.083,76.298,40.638z"/>
	<path fill="#1E6E32" d="M78.511,52.392c-0.156,0.15-0.328,0.285-0.515,0.4c-1.414,0.893-3.736,0.227-5.112-1.129
		c-2.201-2.166-4.233-1.746-5.343-1.445c-1.619,0.438-3.571,0.436-4.91-0.264l-2.197,6.328c1.986,2.359,3.593,3.617,4.702,6.01
		c1.763,3.793-0.104,6.881-3.604,6.881c-0.271,0-0.64,0-1.085,0v7.221h2.114h4.447h6.278h3.715h8.956
		c0.488,0,0.756-0.377,0.597-0.838L78.511,52.392z"/>
	<path fill="#F2EEE6" d="M35.209,1c0,0,3.854,3.26,2.829,9.006c-0.795,4.467-3.53,5.409-4.488,10.49
		c-0.76,4.031,1.99,6.618,1.99,6.618s-0.688-2.757,0.783-6.117c1.777-4.055,4.809-5.847,6.082-9.237
		C44.476,6.249,41.476,1.09,35.209,1z"/>
	<path fill="#994916" d="M36.946,68.165v0.6v17.084c3.539,0,2.814,0,3.212,0h19.546c0.452,0,0.743-0.27,0.743-0.834V69.173
		c-3.774,0-13.261,0-18.674,0C39.736,69.173,38.28,68.931,36.946,68.165z"/>
	<path fill="#FFFFFF" d="M49.447,71.706c0-0.111,0.092-0.203,0.204-0.203h2.605c0.111,0,0.202,0.092,0.202,0.203v2.607
		c0,0.111-0.091,0.201-0.202,0.201h-2.605c-0.112,0-0.204-0.09-0.204-0.201V71.706z"/>
	<path fill="#FFFFFF" d="M49.447,76.079c0-0.111,0.092-0.203,0.204-0.203h2.605c0.111,0,0.202,0.092,0.202,0.203v2.605
		c0,0.111-0.091,0.203-0.202,0.203h-2.605c-0.112,0-0.204-0.092-0.204-0.203V76.079z"/>
	<path fill="#FFFFFF" d="M45.076,71.706c0-0.111,0.091-0.203,0.202-0.203h2.607c0.109,0,0.201,0.092,0.201,0.203v2.607
		c0,0.111-0.092,0.201-0.201,0.201h-2.607c-0.111,0-0.202-0.09-0.202-0.201V71.706z"/>
	<path fill="#FFFFFF" d="M45.076,76.079c0-0.111,0.091-0.203,0.202-0.203h2.607c0.109,0,0.201,0.092,0.201,0.203v2.605
		c0,0.111-0.092,0.203-0.201,0.203h-2.607c-0.111,0-0.202-0.092-0.202-0.203V76.079z"/>
	<path fill="#FFB900" d="M32.606,63.63c-3.74-5.225-6.551-9.396-7.658-10.934l-12.513,14.57v0.928v1.641v15.199
		c0,0.594,0.273,0.814,0.822,0.814h23.688V68.765l-0.001-0.602C35.539,67.353,34.272,65.956,32.606,63.63z"/>
	<path fill="#FFFFFF" d="M23.769,78.685c0,0.111-0.091,0.203-0.201,0.203H20.96c-0.111,0-0.202-0.092-0.202-0.203v-2.605
		c0-0.111,0.091-0.203,0.202-0.203h2.607c0.11,0,0.201,0.092,0.201,0.203V78.685z"/>
	<path fill="#FFFFFF" d="M23.769,74.313c0,0.111-0.091,0.201-0.201,0.201H20.96c-0.111,0-0.202-0.09-0.202-0.201v-2.607
		c0-0.111,0.091-0.203,0.202-0.203h2.607c0.11,0,0.201,0.092,0.201,0.203V74.313z"/>
	<path fill="#FFFFFF" d="M28.141,78.685c0,0.111-0.092,0.203-0.202,0.203h-2.606c-0.11,0-0.202-0.092-0.202-0.203v-2.605
		c0-0.111,0.092-0.203,0.202-0.203h2.606c0.11,0,0.202,0.092,0.202,0.203V78.685z"/>
	<path fill="#FFFFFF" d="M28.141,74.313c0,0.111-0.092,0.201-0.202,0.201h-2.606c-0.11,0-0.202-0.09-0.202-0.201v-2.607
		c0-0.111,0.092-0.203,0.202-0.203h2.606c0.11,0,0.202,0.092,0.202,0.203V74.313z"/>
	<path fill="#994916" d="M39.558,41.048c0-1.467,0-2.693,0-3.166c0-0.059,0.017-0.174,0.161-0.174s0.584,0,0.584,0
		c0.425,0,0.771-0.346,0.771-0.771V34.87c-0.516,0.088-1.087,0.082-1.679-0.015c-0.94-0.153-2.239-0.38-4.902-0.042
		c-1.988,0.252-3.53,0.457-4.745,0.174v1.95c0,0.425,0.348,0.771,0.771,0.771c0,0,0.514,0,0.627,0s0.157,0.123,0.157,0.184
		c0,0.484,0,1.713,0,3.178c0.815,0.045,1.659,0.078,2.543,0.084C36.293,41.165,37.968,41.118,39.558,41.048z"/>
	<g>
		<path fill="#F2EEE6" d="M12.436,67.267v2.568c0,0-1.571-0.02-3.398-0.02c-4.662,0-6.866-5.748-2.791-10.174
			c3.409-3.703,7.354-9.191,9.41-12.947c2.058-3.756,5.185-5.9,9.116-5.943c2.953-0.035,5.709,0.383,9.073,0.402
			c5.019,0.027,6.792-0.205,11.235-0.359c3.486-0.119,6.245,1.168,8.096,3.322c2.465,2.869,4.514,8.553,5.985,10.555
			c2.576,3.502,4.635,4.736,5.974,7.621c1.763,3.793-0.104,6.881-3.604,6.881c-2.563,0-13.71,0-19.759,0
			c-4.186,0-5.922-1.01-9.167-5.543c-4.339-6.061-7.43-10.709-8.059-11.465c-0.943-1.137-2.155-1.377-3.401,0.051
			C20.411,53.06,12.561,62.341,9.98,65.319c-0.846,0.975-0.229,1.943,1.008,1.943c0.446,0,1.372,0,1.372,0L12.436,67.267z"/>
	</g>
	<path fill="#F2EEE6" d="M36.691,28.593c-1.752,0.375-2.726-0.064-4.394-0.338c-2.578-0.421-4.304,0.913-4.816,1.953
		c-0.777,1.579-0.283,3.375,1.141,4.309c1.352,0.887,3.211,0.634,5.871,0.296c2.663-0.338,3.962-0.111,4.902,0.042
		c2.07,0.338,3.887-0.38,3.971-2.704C43.442,30.039,41.042,27.664,36.691,28.593z"/>
	<g>
		<path fill="#994916" d="M21.146,52.216C20.411,53.06,12.561,62.341,9.98,65.319c-0.846,0.975-0.229,1.943,1.008,1.943
			c0.446,0,1.372,0,1.372,0l0.075,0.004l12.513-14.57c-0.178-0.246-0.313-0.428-0.4-0.531
			C23.604,51.028,22.393,50.788,21.146,52.216z"/>
	</g>
</g>
</svg>
