<?xml version="1.0" encoding="utf-8"?>
<!-- Generator: Adobe Illustrator 16.0.0, SVG Export Plug-In . SVG Version: 6.00 Build 0)  -->
<!DOCTYPE svg PUBLIC "-//W3C//DTD SVG 1.1//EN" "http://www.w3.org/Graphics/SVG/1.1/DTD/svg11.dtd">
<svg version="1.1" id="Lager_1" xmlns="http://www.w3.org/2000/svg" xmlns:xlink="http://www.w3.org/1999/xlink" x="0px" y="0px"
	 viewBox="0 0 56.693 56.693" enable-background="new 0 0 56.693 56.693" xml:space="preserve">
<g>
	<circle fill="#E6007E" cx="17.546" cy="24.392" r="17.1"/>
	<path fill="#F0A5C3" d="M39.147,7.292H17.546c9.444,0,17.1,7.656,17.1,17.1l0.002,0.003v24.83c0,0.181,0.097,0.217,0.213,0.078
		l0.93-1.09c0.117-0.137,0.31-0.137,0.427,0l0.924,1.084c0.117,0.138,0.31,0.138,0.427,0l0.926-1.076
		c0.116-0.138,0.311-0.138,0.427,0l0.924,1.076c0.117,0.137,0.311,0.137,0.428,0l0.924-1.076c0.117-0.137,0.311-0.137,0.429,0
		l0.923,1.075c0.117,0.138,0.311,0.138,0.428,0l0.928-1.083c0.119-0.138,0.311-0.137,0.428,0l0.918,1.082
		c0.117,0.138,0.31,0.139,0.428,0.001l0.931-1.083c0.118-0.138,0.31-0.137,0.427,0l0.917,1.08c0.117,0.138,0.308,0.138,0.427,0
		l0.913-1.079c0.118-0.138,0.31-0.139,0.428-0.001l0.933,1.08c0.115,0.137,0.31,0.137,0.427-0.002l0.913-1.077
		c0.118-0.138,0.311-0.139,0.429-0.001l0.93,1.078c0.117,0.137,0.311,0.136,0.427-0.002l0.912-1.075
		c0.117-0.138,0.309-0.14,0.427-0.002l0.917,1.06c0.119,0.137,0.216,0.102,0.216-0.08V24.395v-0.003
		C56.248,14.948,48.591,7.292,39.147,7.292z"/>
	<circle fill="#8C005A" cx="17.546" cy="24.392" r="6.926"/>
	<g>
		<path fill="#8C005A" d="M34.646,24.392c0,9.444-7.656,17.101-17.1,17.101h17.102V24.395L34.646,24.392z"/>
	</g>
</g>
</svg>
