<?xml version="1.0" encoding="utf-8"?>
<!-- Generator: Adobe Illustrator 16.0.0, SVG Export Plug-In . SVG Version: 6.00 Build 0)  -->
<!DOCTYPE svg PUBLIC "-//W3C//DTD SVG 1.1//EN" "http://www.w3.org/Graphics/SVG/1.1/DTD/svg11.dtd">
<svg version="1.1" id="Lager_1" xmlns="http://www.w3.org/2000/svg" xmlns:xlink="http://www.w3.org/1999/xlink" x="0px" y="0px"
	 viewBox="0 0 56.693 56.692" enable-background="new 0 0 56.693 56.692" xml:space="preserve">
<g>
	<circle fill="#FFB900" cx="17.546" cy="24.392" r="17.1"/>
	<path fill="#FFE57E" d="M39.146,7.292h-21.6c9.444,0,17.1,7.656,17.1,17.1l0.001,0.003v24.83c0,0.182,0.097,0.217,0.214,0.079
		l0.929-1.091c0.118-0.137,0.31-0.137,0.427,0l0.924,1.084c0.118,0.139,0.31,0.139,0.428,0.001l0.925-1.077
		c0.118-0.137,0.31-0.137,0.429,0l0.922,1.076c0.118,0.137,0.311,0.137,0.429,0l0.923-1.075c0.117-0.138,0.313-0.138,0.43,0
		l0.922,1.075c0.118,0.137,0.311,0.137,0.428,0l0.93-1.084c0.117-0.137,0.309-0.137,0.427,0l0.918,1.082
		c0.117,0.139,0.31,0.139,0.427,0.002l0.932-1.084c0.117-0.137,0.309-0.137,0.426,0l0.918,1.08c0.117,0.139,0.309,0.139,0.426,0
		l0.914-1.078c0.117-0.139,0.31-0.139,0.428-0.002l0.932,1.08c0.117,0.138,0.31,0.137,0.427-0.002l0.915-1.076
		c0.116-0.139,0.309-0.139,0.428-0.002l0.93,1.078c0.117,0.137,0.309,0.137,0.427-0.002l0.911-1.074
		c0.117-0.139,0.309-0.14,0.428-0.002l0.916,1.059c0.119,0.137,0.217,0.102,0.217-0.08V24.395v-0.003
		C56.248,14.948,48.591,7.292,39.146,7.292z"/>
	<circle fill="#994916" cx="17.546" cy="24.392" r="6.926"/>
	<g>
		<path fill="#994916" d="M34.646,24.392c0,9.444-7.656,17.1-17.1,17.1h17.101V24.395L34.646,24.392z"/>
	</g>
</g>
</svg>
