<?xml version="1.0" encoding="utf-8"?>
<!-- Generator: Adobe Illustrator 16.0.0, SVG Export Plug-In . SVG Version: 6.00 Build 0)  -->
<!DOCTYPE svg PUBLIC "-//W3C//DTD SVG 1.1//EN" "http://www.w3.org/Graphics/SVG/1.1/DTD/svg11.dtd">
<svg version="1.1" id="Lager_1" xmlns="http://www.w3.org/2000/svg" xmlns:xlink="http://www.w3.org/1999/xlink" x="0px" y="0px"
	 viewBox="0 0 59.527 59.527" enable-background="new 0 0 59.527 59.527" xml:space="preserve">
<g>
	<path fill="#FFB900" d="M31.778,14.476c0-6.683,5.418-12.1,12.1-12.1c7.533,0,12.316,6.456,12.316,13.139
		c0,4.538-1.223,9.521-2.086,13.418c-1.24,5.595-3.74,15.471-4.588,18.664c-0.719,2.709-1.254,4.468-2.209,5.796
		c-1.494,2.265-4.059,3.76-6.975,3.76c-3.404,0-6.332-2.04-7.629-4.964c-0.166-0.371-0.686-1.597-0.783-3.833
		C31.591,40.785,31.778,18.774,31.778,14.476z"/>
	<g>
		<path fill="#994916" d="M38.964,22.266c2.99,0,5.951,1.381,8.564,3.993c1.924,1.926,2.789,4.482,2.498,7.396
			c-0.316,3.144-2.625,13.96-3.992,16.877c-1.365,2.919-3.354,4.214-5.844,4.214h-0.002c-0.303,0-0.623-0.021-0.949-0.062
			c-1.896-0.236-5.078-1.606-5.078-8.13c0-1.792-0.1-5.343-0.195-8.776c-0.096-3.472-0.195-7.061-0.195-8.886
			C33.771,24.434,35.468,22.266,38.964,22.266z"/>
	</g>
	<circle fill="#FFE57E" cx="34.546" cy="19.75" r="1.395"/>
	<circle fill="#FFE57E" cx="39.444" cy="18.392" r="1.395"/>
	<circle fill="#FFE57E" cx="44.13" cy="19.679" r="1.395"/>
	<circle fill="#FFE57E" cx="48.276" cy="22.11" r="1.395"/>
	<circle fill="#FFE57E" cx="51.351" cy="25.829" r="1.395"/>
	<path fill="#FFB900" d="M27.749,14.476c0-6.683-5.417-12.1-12.099-12.1c-7.533,0-12.317,6.456-12.317,13.139
		c0,4.538,1.225,9.521,2.088,13.418c1.239,5.595,3.739,15.471,4.587,18.664c0.719,2.709,1.255,4.468,2.209,5.796
		c1.494,2.265,4.059,3.76,6.975,3.76c3.404,0,6.332-2.04,7.63-4.964c0.164-0.371,0.684-1.597,0.781-3.833
		C27.937,40.785,27.749,18.774,27.749,14.476z"/>
	<g>
		<path fill="#994916" d="M20.565,22.266c-2.991,0-5.952,1.381-8.564,3.993c-1.926,1.926-2.789,4.482-2.498,7.396
			c0.314,3.144,2.625,13.96,3.99,16.877c1.366,2.919,3.354,4.214,5.846,4.214l0,0c0.305,0,0.624-0.021,0.95-0.062
			c1.896-0.236,5.079-1.606,5.079-8.13c0-1.792,0.099-5.343,0.194-8.776c0.096-3.472,0.196-7.061,0.196-8.886
			C25.758,24.434,24.06,22.266,20.565,22.266z"/>
	</g>
	<circle fill="#FFE57E" cx="24.982" cy="19.75" r="1.394"/>
	<circle fill="#FFE57E" cx="20.083" cy="18.392" r="1.395"/>
	<circle fill="#FFE57E" cx="15.399" cy="19.679" r="1.395"/>
	<circle fill="#FFE57E" cx="11.251" cy="22.11" r="1.395"/>
	<circle fill="#FFE57E" cx="8.176" cy="25.829" r="1.395"/>
</g>
</svg>
