<?xml version="1.0" encoding="utf-8"?>
<!-- Generator: Adobe Illustrator 16.0.0, SVG Export Plug-In . SVG Version: 6.00 Build 0)  -->
<!DOCTYPE svg PUBLIC "-//W3C//DTD SVG 1.1//EN" "http://www.w3.org/Graphics/SVG/1.1/DTD/svg11.dtd">
<svg version="1.1" id="Lager_1" xmlns="http://www.w3.org/2000/svg" xmlns:xlink="http://www.w3.org/1999/xlink" x="0px" y="0px"
	 viewBox="0 0 59.528 59.527" enable-background="new 0 0 59.528 59.527" xml:space="preserve">
<g>
	<path fill="#009FE4" d="M31.779,15.475c0-6.683,5.417-12.1,12.1-12.1c7.532,0,12.316,6.456,12.316,13.139
		c0,4.538-1.225,9.521-2.087,13.418c-1.239,5.596-3.74,15.471-4.587,18.664c-0.719,2.709-1.255,4.469-2.21,5.797
		c-1.493,2.264-4.058,3.76-6.974,3.76c-3.404,0-6.332-2.041-7.631-4.965c-0.164-0.371-0.684-1.596-0.782-3.832
		C31.591,41.785,31.779,19.773,31.779,15.475z"/>
	<g>
		<g>
			<path fill="#0A4682" d="M38.963,23.266c2.99,0,5.952,1.381,8.564,3.992c1.925,1.926,2.789,4.482,2.498,7.396
				c-0.314,3.145-2.625,13.961-3.991,16.877c-1.365,2.92-3.354,4.215-5.845,4.215h-0.001c-0.304,0-0.623-0.021-0.949-0.063
				c-1.896-0.236-5.079-1.605-5.079-8.129c0-1.793-0.099-5.344-0.194-8.777c-0.097-3.471-0.196-7.061-0.196-8.885
				C33.77,25.434,35.469,23.266,38.963,23.266z"/>
		</g>
	</g>
	<path fill="#009FE4" d="M27.75,15.475c0-6.683-5.417-12.1-12.099-12.1c-7.534,0-12.318,6.456-12.318,13.139
		c0,4.538,1.224,9.521,2.087,13.418c1.239,5.596,3.739,15.471,4.587,18.664c0.719,2.709,1.255,4.469,2.21,5.797
		c1.493,2.264,4.058,3.76,6.974,3.76c3.404,0,6.332-2.041,7.63-4.965c0.165-0.371,0.685-1.596,0.783-3.832
		C27.937,41.785,27.75,19.773,27.75,15.475z"/>
	<g>
		<g>
			<path fill="#0A4682" d="M20.565,23.266c-2.99,0-5.952,1.381-8.564,3.992c-1.926,1.926-2.789,4.482-2.498,7.396
				c0.314,3.145,2.625,13.961,3.99,16.877c1.366,2.92,3.354,4.215,5.846,4.215l0,0c0.304,0,0.624-0.021,0.949-0.063
				c1.897-0.236,5.08-1.605,5.08-8.129c0-1.793,0.099-5.344,0.194-8.777c0.097-3.471,0.196-7.061,0.196-8.885
				C25.758,25.434,24.059,23.266,20.565,23.266z"/>
		</g>
	</g>
	<g>
		<path fill="#0A4682" d="M50.318,26.871c-0.106-0.207-0.221-0.412-0.338-0.607c-0.247-0.414-0.112-0.949,0.302-1.197
			c0.415-0.248,0.95-0.113,1.198,0.301c0.135,0.227,0.266,0.463,0.39,0.701c0.222,0.428,0.055,0.955-0.374,1.176
			c-0.129,0.068-0.266,0.1-0.4,0.1C50.779,27.344,50.474,27.172,50.318,26.871z M48.273,24.094c-0.163-0.162-0.335-0.32-0.51-0.473
			c-0.364-0.316-0.403-0.868-0.087-1.232c0.316-0.363,0.868-0.403,1.231-0.086c0.202,0.175,0.4,0.357,0.59,0.544
			c0.344,0.339,0.35,0.892,0.011,1.235c-0.171,0.174-0.396,0.26-0.623,0.26C48.665,24.342,48.444,24.26,48.273,24.094z
			 M45.457,22.046c-0.206-0.11-0.419-0.218-0.631-0.318c-0.436-0.207-0.622-0.729-0.414-1.164c0.207-0.436,0.728-0.621,1.163-0.414
			c0.238,0.113,0.476,0.233,0.706,0.356c0.425,0.228,0.586,0.757,0.358,1.183c-0.158,0.294-0.46,0.461-0.771,0.461
			C45.729,22.149,45.587,22.116,45.457,22.046z M33.949,21.364c-0.341-0.342-0.341-0.895,0.001-1.235
			c0.044-0.044,0.291-0.282,0.748-0.571c0.408-0.258,0.947-0.136,1.205,0.272c0.257,0.407,0.136,0.947-0.272,1.204
			c-0.288,0.183-0.44,0.325-0.451,0.335c-0.171,0.168-0.392,0.251-0.613,0.251C34.342,21.62,34.12,21.534,33.949,21.364z
			 M42.151,20.714c-0.237-0.071-0.471-0.138-0.697-0.199c-0.466-0.126-0.741-0.605-0.615-1.071c0.127-0.465,0.607-0.741,1.071-0.614
			c0.242,0.064,0.49,0.136,0.744,0.212c0.462,0.139,0.724,0.625,0.585,1.088c-0.114,0.378-0.461,0.622-0.837,0.622
			C42.319,20.751,42.235,20.739,42.151,20.714z M37.11,19.443c-0.058-0.479,0.285-0.912,0.764-0.97
			c0.271-0.032,0.549-0.052,0.826-0.06c0.483-0.008,0.884,0.368,0.896,0.851s-0.368,0.884-0.851,0.896
			c-0.225,0.006-0.448,0.022-0.666,0.048c-0.035,0.004-0.069,0.006-0.104,0.006C37.54,20.214,37.162,19.888,37.11,19.443z"/>
	</g>
	<g>
		<path fill="#0A4682" d="M8.433,27.344c-0.135,0-0.272-0.031-0.4-0.1c-0.429-0.221-0.596-0.748-0.374-1.176
			c0.123-0.238,0.255-0.475,0.39-0.701c0.248-0.414,0.783-0.549,1.198-0.301c0.414,0.248,0.549,0.783,0.301,1.197
			c-0.116,0.195-0.23,0.4-0.337,0.607C9.054,27.172,8.75,27.344,8.433,27.344z M10.643,24.342c-0.227,0-0.452-0.086-0.623-0.26
			c-0.339-0.344-0.334-0.896,0.011-1.235c0.189-0.187,0.388-0.369,0.589-0.544c0.364-0.317,0.916-0.277,1.232,0.086
			c0.316,0.364,0.277,0.916-0.088,1.232c-0.175,0.152-0.346,0.311-0.51,0.473C11.084,24.26,10.864,24.342,10.643,24.342z
			 M13.661,22.149c-0.313,0-0.614-0.167-0.771-0.461c-0.228-0.426-0.067-0.955,0.358-1.183c0.23-0.123,0.468-0.243,0.706-0.356
			c0.436-0.207,0.956-0.021,1.163,0.414s0.021,0.957-0.414,1.164c-0.213,0.101-0.425,0.208-0.631,0.318
			C13.941,22.116,13.799,22.149,13.661,22.149z M24.961,21.62c-0.221,0-0.442-0.083-0.612-0.251
			c-0.011-0.01-0.163-0.152-0.451-0.335c-0.408-0.257-0.53-0.797-0.272-1.204c0.258-0.408,0.797-0.53,1.204-0.272
			c0.458,0.289,0.705,0.527,0.749,0.571c0.342,0.341,0.342,0.894,0.001,1.235C25.409,21.534,25.185,21.62,24.961,21.62z
			 M17.126,20.751c-0.376,0-0.723-0.244-0.837-0.622c-0.139-0.463,0.123-0.949,0.585-1.088c0.254-0.076,0.502-0.147,0.744-0.212
			c0.464-0.127,0.944,0.149,1.071,0.614c0.126,0.466-0.149,0.945-0.615,1.071c-0.227,0.062-0.46,0.128-0.697,0.199
			C17.293,20.739,17.208,20.751,17.126,20.751z M21.552,20.214c-0.034,0-0.069-0.002-0.104-0.006
			c-0.218-0.025-0.441-0.042-0.666-0.048c-0.482-0.012-0.863-0.413-0.851-0.896s0.412-0.858,0.896-0.851
			c0.278,0.008,0.556,0.027,0.827,0.06c0.479,0.058,0.82,0.491,0.764,0.97C22.366,19.888,21.989,20.214,21.552,20.214z"/>
	</g>
</g>
</svg>
