<?xml version="1.0" encoding="utf-8"?>
<!-- Generator: Adobe Illustrator 16.0.0, SVG Export Plug-In . SVG Version: 6.00 Build 0)  -->
<!DOCTYPE svg PUBLIC "-//W3C//DTD SVG 1.1//EN" "http://www.w3.org/Graphics/SVG/1.1/DTD/svg11.dtd">
<svg version="1.1" id="Lager_1" xmlns="http://www.w3.org/2000/svg" xmlns:xlink="http://www.w3.org/1999/xlink" x="0px" y="0px"
	 viewBox="0 0 59.527 59.527" enable-background="new 0 0 59.527 59.527" xml:space="preserve">
<g>
	<path fill="#B0CB0B" d="M31.86,14.528c0-6.683,5.416-12.1,12.098-12.1c7.535,0,12.318,6.456,12.318,13.139
		c0,4.538-1.225,9.521-2.088,13.418c-1.238,5.595-3.74,15.471-4.586,18.664c-0.719,2.709-1.256,4.468-2.211,5.796
		c-1.492,2.265-4.057,3.76-6.973,3.76c-3.406,0-6.332-2.04-7.631-4.964c-0.164-0.371-0.684-1.597-0.783-3.833
		C31.673,40.838,31.86,18.827,31.86,14.528z"/>
	<g>
		<path fill="#1E6E32" d="M39.044,22.318c2.99,0,5.953,1.381,8.564,3.993c1.926,1.926,2.789,4.482,2.498,7.396
			c-0.314,3.144-2.625,13.96-3.99,16.877c-1.365,2.919-3.354,4.214-5.846,4.214l0,0c-0.305,0-0.623-0.021-0.949-0.062
			c-1.898-0.236-5.08-1.606-5.08-8.13c0-1.792-0.098-5.343-0.193-8.776c-0.098-3.472-0.197-7.061-0.197-8.886
			C33.851,24.486,35.55,22.318,39.044,22.318z"/>
	</g>
	<path fill="#B0CB0B" d="M27.831,14.528c0-6.683-5.417-12.1-12.1-12.1c-7.533,0-12.317,6.456-12.317,13.139
		c0,4.538,1.225,9.521,2.088,13.418c1.239,5.595,3.739,15.471,4.587,18.664c0.719,2.709,1.255,4.468,2.21,5.796
		c1.493,2.265,4.058,3.76,6.974,3.76c3.404,0,6.332-2.04,7.631-4.964c0.164-0.371,0.684-1.597,0.781-3.833
		C28.017,40.838,27.831,18.827,27.831,14.528z"/>
	<g>
		<path fill="#1E6E32" d="M20.646,22.318c-2.99,0-5.952,1.381-8.565,3.993c-1.925,1.926-2.788,4.482-2.497,7.396
			c0.314,3.144,2.625,13.96,3.991,16.877c1.365,2.919,3.354,4.214,5.845,4.214l0,0c0.304,0,0.624-0.021,0.95-0.062
			c1.896-0.236,5.079-1.606,5.079-8.13c0-1.792,0.099-5.343,0.194-8.776c0.097-3.472,0.196-7.061,0.196-8.886
			C25.839,24.486,24.14,22.318,20.646,22.318z"/>
	</g>
	<g>
		<path fill="#1E6E32" d="M51.858,28.04L51.858,28.04c-0.35,0-0.678-0.209-0.813-0.554l0,0c-0.178-0.449,0.045-0.955,0.494-1.133
			l0,0c0.449-0.175,0.955,0.048,1.131,0.497l0,0c0.176,0.446-0.047,0.955-0.496,1.13C52.071,28.023,51.964,28.04,51.858,28.04z
			 M50.448,25.408L50.448,25.408c-0.273,0-0.543-0.13-0.715-0.372l0,0c-0.275-0.395-0.18-0.938,0.215-1.216l0,0
			c0.395-0.276,0.939-0.182,1.217,0.213l0,0c0.275,0.396,0.18,0.94-0.215,1.218C50.798,25.358,50.624,25.408,50.448,25.408z
			 M48.456,23.185L48.456,23.185c-0.207,0-0.412-0.072-0.58-0.217l0,0c0-0.003,0-0.003,0-0.003l0,0
			c-0.361-0.319-0.395-0.871-0.074-1.232l0,0c0.318-0.362,0.871-0.395,1.232-0.075l0,0c0.361,0.32,0.395,0.871,0.074,1.233
			C48.937,23.085,48.698,23.185,48.456,23.185z M46.017,21.456L46.017,21.456c-0.146,0-0.293-0.036-0.432-0.113l0,0
			c-0.418-0.239-0.566-0.771-0.328-1.19l0,0c0.238-0.421,0.771-0.568,1.189-0.329l0,0c0.42,0.237,0.568,0.769,0.33,1.19
			C46.616,21.296,46.319,21.456,46.017,21.456z M34.649,20.674L34.649,20.674c-0.258,0-0.512-0.112-0.684-0.326l0,0
			c-0.303-0.377-0.24-0.929,0.137-1.228l0,0c0.377-0.303,0.926-0.242,1.227,0.134l0,0c0.303,0.377,0.24,0.927-0.137,1.229
			C35.032,20.611,34.841,20.674,34.649,20.674z M43.292,20.223L43.292,20.223c-0.098,0-0.193-0.015-0.291-0.048l0,0
			c-0.455-0.162-0.693-0.658-0.535-1.114l0,0c0.16-0.454,0.66-0.694,1.113-0.534l0,0c0.457,0.159,0.697,0.658,0.537,1.112
			C43.989,19.998,43.651,20.223,43.292,20.223z M37.405,19.571L37.405,19.571c-0.41,0-0.777-0.295-0.855-0.716l0,0
			c-0.09-0.474,0.225-0.929,0.699-1.016l0,0c0.475-0.09,0.93,0.225,1.018,0.698l0,0c0.088,0.475-0.225,0.931-0.699,1.019
			C37.513,19.566,37.458,19.571,37.405,19.571z M40.39,19.504L40.39,19.504c-0.035,0-0.072-0.003-0.109-0.007l0,0l0,0l0,0
			c-0.479-0.061-0.818-0.497-0.758-0.977l0,0c0.063-0.479,0.498-0.815,0.979-0.756l0,0c0.475,0.06,0.814,0.496,0.756,0.976
			C41.2,19.182,40.825,19.504,40.39,19.504z"/>
	</g>
	<g>
		<path fill="#1E6E32" d="M7.552,27.98c-0.449-0.175-0.671-0.684-0.494-1.13l0,0c0.175-0.449,0.681-0.672,1.13-0.497l0,0
			c0.449,0.178,0.672,0.684,0.495,1.133l0,0C8.547,27.831,8.218,28.04,7.87,28.04l0,0C7.764,28.04,7.657,28.023,7.552,27.98z
			 M8.778,25.251c-0.395-0.277-0.489-0.821-0.215-1.218l0,0c0.276-0.395,0.823-0.489,1.218-0.213l0,0
			c0.395,0.277,0.489,0.821,0.215,1.216l0,0c-0.173,0.242-0.441,0.372-0.717,0.372l0,0C9.105,25.408,8.93,25.358,8.778,25.251z
			 M10.62,22.891c-0.32-0.362-0.287-0.913,0.074-1.233l0,0c0.362-0.319,0.913-0.287,1.232,0.075l0,0
			c0.319,0.361,0.287,0.913-0.074,1.232l0,0c0,0,0,0,0,0.003l0,0c-0.168,0.145-0.372,0.217-0.579,0.217l0,0
			C11.031,23.185,10.792,23.085,10.62,22.891z M12.952,21.014c-0.239-0.422-0.089-0.953,0.33-1.19l0,0
			c0.419-0.239,0.951-0.092,1.189,0.329l0,0c0.237,0.419,0.09,0.951-0.329,1.19l0,0c-0.137,0.077-0.284,0.113-0.431,0.113l0,0
			C13.409,21.456,13.112,21.296,12.952,21.014z M24.536,20.482c-0.377-0.302-0.439-0.852-0.137-1.229l0,0
			c0.301-0.376,0.851-0.437,1.228-0.134l0,0c0.377,0.299,0.438,0.851,0.137,1.228l0,0c-0.172,0.214-0.427,0.326-0.684,0.326l0,0
			C24.887,20.674,24.695,20.611,24.536,20.482z M15.613,19.639c-0.16-0.454,0.079-0.953,0.536-1.112l0,0
			c0.454-0.16,0.953,0.08,1.112,0.534l0,0c0.16,0.456-0.079,0.952-0.533,1.114l0,0c-0.098,0.033-0.195,0.048-0.292,0.048l0,0
			C16.077,20.223,15.74,19.998,15.613,19.639z M22.16,19.557c-0.474-0.088-0.785-0.544-0.698-1.019l0,0
			c0.087-0.474,0.544-0.788,1.018-0.698l0,0c0.475,0.087,0.789,0.542,0.699,1.016l0,0c-0.077,0.421-0.444,0.716-0.855,0.716l0,0
			C22.27,19.571,22.215,19.566,22.16,19.557z M18.472,18.74c-0.06-0.479,0.279-0.916,0.756-0.976l0,0
			c0.479-0.06,0.916,0.277,0.979,0.756l0,0c0.06,0.479-0.28,0.916-0.759,0.977l0,0l0,0l0,0c-0.037,0.004-0.074,0.007-0.11,0.007l0,0
			C18.904,19.504,18.527,19.182,18.472,18.74z"/>
	</g>
</g>
</svg>
