<?xml version="1.0" encoding="utf-8"?>
<!-- Generator: Adobe Illustrator 16.0.0, SVG Export Plug-In . SVG Version: 6.00 Build 0)  -->
<!DOCTYPE svg PUBLIC "-//W3C//DTD SVG 1.1//EN" "http://www.w3.org/Graphics/SVG/1.1/DTD/svg11.dtd">
<svg version="1.1" id="Lager_1" xmlns="http://www.w3.org/2000/svg" xmlns:xlink="http://www.w3.org/1999/xlink" x="0px" y="0px"
	 viewBox="0 0 62.362 62.362" enable-background="new 0 0 62.362 62.362" xml:space="preserve">
<g>
	<path fill="#009FE4" d="M50.542,49.503c0,0-2.705,0-3.59,0c-0.887,0-1.086-0.471-1.213-1.07
		c-0.129-0.598-2.539-11.174-2.539-11.174H19.165c0,0-2.45,10.813-2.548,11.205c-0.184,0.746-0.545,1.039-1.439,1.039
		c-0.71,0-3.356,0-3.356,0c-1.35,0-2.453,1.104-2.453,2.455v3.85c0,1.35,1.104,2.453,2.453,2.453h38.721
		c1.348,0,2.451-1.104,2.451-2.453v-3.85C52.994,50.607,51.89,49.503,50.542,49.503z"/>
	<path fill="#009FE4" d="M36.73,8.79l-0.15-0.665c-0.447-1.497-1.498-2.729-2.87-3.421c-0.762-0.383-1.619-0.604-2.528-0.604
		c-0.647,0-1.267,0.114-1.846,0.315c-1.669,0.579-2.981,1.916-3.521,3.603l-0.199,0.872l-3.018,13.271h17.17L36.73,8.79z"/>
	<polygon fill="#7DC8F0" points="22.599,22.161 19.165,37.259 43.201,37.259 39.769,22.161 	"/>
</g>
</svg>
