<?xml version="1.0" encoding="utf-8"?>
<!-- Generator: Adobe Illustrator 16.0.0, SVG Export Plug-In . SVG Version: 6.00 Build 0)  -->
<!DOCTYPE svg PUBLIC "-//W3C//DTD SVG 1.1//EN" "http://www.w3.org/Graphics/SVG/1.1/DTD/svg11.dtd">
<svg version="1.1" id="Lager_1" xmlns="http://www.w3.org/2000/svg" xmlns:xlink="http://www.w3.org/1999/xlink" x="0px" y="0px"
	 viewBox="0 0 62.362 62.362" enable-background="new 0 0 62.362 62.362" xml:space="preserve">
<g>
	<path fill="#E6007E" d="M50.541,49.504c0,0-2.702,0-3.588,0s-1.087-0.472-1.214-1.07C45.611,47.835,43.2,37.259,43.2,37.259H19.166
		c0,0-2.451,10.813-2.549,11.205c-0.184,0.746-0.545,1.04-1.439,1.04c-0.709,0-3.356,0-3.356,0c-1.35,0-2.453,1.104-2.453,2.454
		v3.85c0,1.35,1.104,2.453,2.453,2.453h38.72c1.35,0,2.453-1.104,2.453-2.453v-3.85C52.994,50.607,51.891,49.504,50.541,49.504z"/>
	<path fill="#E6007E" d="M36.73,8.79l-0.151-0.665c-0.445-1.497-1.497-2.729-2.87-3.421c-0.761-0.383-1.618-0.604-2.528-0.604
		c-0.646,0-1.267,0.114-1.845,0.315c-1.668,0.579-2.981,1.916-3.521,3.603l-0.197,0.872l-3.019,13.271h17.17L36.73,8.79z"/>
	<polygon fill="#F0A5C3" points="22.599,22.161 19.166,37.259 43.2,37.259 39.769,22.161 	"/>
</g>
</svg>
