<?xml version="1.0" encoding="utf-8"?>
<!-- Generator: Adobe Illustrator 16.0.0, SVG Export Plug-In . SVG Version: 6.00 Build 0)  -->
<!DOCTYPE svg PUBLIC "-//W3C//DTD SVG 1.1//EN" "http://www.w3.org/Graphics/SVG/1.1/DTD/svg11.dtd">
<svg version="1.1" id="Lager_1" xmlns="http://www.w3.org/2000/svg" xmlns:xlink="http://www.w3.org/1999/xlink" x="0px" y="0px"
	 viewBox="0 0 62.362 62.362" enable-background="new 0 0 62.362 62.362" xml:space="preserve">
<g>
	<path fill="#FFB900" d="M50.54,49.504c0,0-2.703,0-3.588,0c-0.887,0-1.086-0.473-1.215-1.07c-0.127-0.6-2.539-11.176-2.539-11.176
		H19.166c0,0-2.452,10.813-2.549,11.205c-0.184,0.746-0.545,1.041-1.439,1.041c-0.709,0-3.356,0-3.356,0
		c-1.349,0-2.452,1.104-2.452,2.453v3.85c0,1.35,1.104,2.453,2.452,2.453H50.54c1.35,0,2.453-1.104,2.453-2.453v-3.85
		C52.993,50.608,51.89,49.504,50.54,49.504z"/>
	<path fill="#FFB900" d="M36.729,8.79l-0.15-0.665c-0.445-1.497-1.499-2.729-2.871-3.421c-0.761-0.383-1.617-0.604-2.527-0.604
		c-0.647,0-1.267,0.114-1.846,0.315c-1.668,0.579-2.982,1.916-3.521,3.603l-0.197,0.872l-3.019,13.271h17.17L36.729,8.79z"/>
	<polygon fill="#FFE57E" points="22.598,22.161 19.166,37.258 43.198,37.258 39.769,22.161 	"/>
</g>
</svg>
