<?xml version="1.0" encoding="utf-8"?>
<!-- Generator: Adobe Illustrator 16.0.0, SVG Export Plug-In . SVG Version: 6.00 Build 0)  -->
<!DOCTYPE svg PUBLIC "-//W3C//DTD SVG 1.1//EN" "http://www.w3.org/Graphics/SVG/1.1/DTD/svg11.dtd">
<svg version="1.1" id="Lager_1" xmlns="http://www.w3.org/2000/svg" xmlns:xlink="http://www.w3.org/1999/xlink" x="0px" y="0px"
	 viewBox="0 0 97.399 97.398" enable-background="new 0 0 97.399 97.398" xml:space="preserve">
<g>
	<path fill="#C8E6FA" d="M32.945,56.562c2.147-0.791,4.559-1.35,8.324-1.93c3.221-0.494,3.891-0.623,5.118-0.975
		c0.688-0.197,1.266-0.393,1.766-0.596c4.174-1.699,6.404-4.91,6.123-8.805c-0.453-6.227-4.658-9.384-12.5-9.384h-1.221l3.517,10.13
		c0.113,0.328-0.078,0.598-0.427,0.598h-6.41h-2.659h-0.635v6.135c0,0.348-0.285,0.633-0.634,0.633h-1.955
		c-0.349,0-0.635-0.285-0.635-0.633v-6.135h-0.635H26.9h-3.627C12.441,62.298,0.252,81.075,0.252,81.075
		c-0.633,1.291-0.103,3.311,1.773,3.311h23.093c-2.529-2.969-3.982-6.793-3.982-11.104C21.136,65.88,25.883,59.161,32.945,56.562z"
		/>
	<path fill="#7DC8F0" d="M51.184,84.382c-3.271,0-8.716,0-12.181-0.242c-6.824-0.473-11.233-4.734-11.233-10.857
		c0-4.707,2.932-8.826,7.468-10.496c1.703-0.625,3.743-1.09,7.041-1.598c3.288-0.504,4.3-0.686,5.939-1.154
		c0.918-0.264,1.715-0.535,2.438-0.828c6.805-2.771,10.727-8.684,10.236-15.43c-0.705-9.729-7.852-15.538-19.115-15.538h-3.524
		l2.304,6.635h1.221c7.841,0,12.046,3.157,12.5,9.384c0.281,3.895-1.949,7.105-6.123,8.805c-0.5,0.203-1.078,0.398-1.766,0.596
		c-1.227,0.352-1.897,0.48-5.118,0.975c-3.766,0.58-6.177,1.139-8.324,1.93c-7.063,2.6-11.81,9.318-11.81,16.721
		c0,4.311,1.453,8.135,3.982,11.104H48.7h2.973c-0.102,0-0.195-0.004-0.297-0.004H51.184z"/>
	<path fill="#1E6E32" d="M37.961,27.399c-1.176,1.423-4.439,0.726-6.535,0.726c-2.256,0-2.888,2.706-4.241,3.608
		c-0.618,0.412-1.385,0.35-1.961-0.085l-4.637,13.354c-0.114,0.328,0.078,0.598,0.427,0.598H26.9h3.183h4.493h2.659h6.41
		c0.349,0,0.54-0.27,0.427-0.598L37.961,27.399z"/>
	<path fill="#994916" d="M30.718,51.735c0,0.348,0.286,0.633,0.635,0.633h1.955c0.349,0,0.634-0.285,0.634-0.633v-6.135h-3.224
		V51.735z"/>
	<path fill="#F2EEE6" d="M32.552,13.618c-2.429-0.194-3.563,1.783-4.735,4.941c-1.174,3.157-2.437,7.488-3.249,10.106
		c-0.813,2.617,1.264,3.97,2.617,3.067s1.985-3.608,4.241-3.608c2.255,0,5.865,0.811,6.768-1.084c0.902-1.896-0.18-3.88-1.264-7.218
		C35.847,16.483,34.808,13.799,32.552,13.618z"/>
	<path fill="#C8E6FA" d="M97.147,81.075c0,0-37.744-58.146-39.422-60.782c-2.234-3.513-5.029-7.28-9.021-7.28h-0.002H48.7h-0.004
		c-3.993,0-6.788,3.768-9.023,7.28c-0.179,0.282-0.772,1.2-1.686,2.612c0.541,1.644,0.79,2.91,0.206,4.136
		c-0.064,0.135-0.145,0.252-0.235,0.361c0.001-0.002,0.003-0.002,0.003-0.003l0.291,0.839h3.524c11.263,0,18.41,5.809,19.115,15.538
		c0.49,6.746-3.432,12.658-10.236,15.43c-0.723,0.293-1.52,0.564-2.438,0.828c-1.639,0.469-2.651,0.65-5.939,1.154
		c-3.298,0.508-5.338,0.973-7.041,1.598c-4.536,1.67-7.468,5.789-7.468,10.496c0,6.123,4.409,10.385,11.233,10.857
		c3.465,0.242,8.91,0.242,12.181,0.242h0.191c0.102,0,0.195,0.004,0.297,0.004h43.699C97.249,84.386,97.78,82.366,97.147,81.075z
		 M79.491,74.569h-6.41h-2.66h-0.633v6.133c0,0.348-0.287,0.633-0.635,0.633h-1.955c-0.35,0-0.635-0.285-0.635-0.633v-6.133h-0.635
		h-3.184h-5.887c-0.35,0-0.541-0.271-0.426-0.6l6.361-18.324c0.002,0,0.002,0,0.004,0.002c-0.232-0.121-0.439-0.27-0.609-0.451
		c-1.619-1.721,0.801-5.117,1.641-7.26c1.229-3.137,2.307-5.135,4.734-4.939c2.256,0.18,2.777,2.695,4.014,5.98
		c0.656,1.75,1.303,2.748,1.916,4.498c0.674,1.928,0.424,3.191-0.332,3.914l5.756,16.58C80.032,74.298,79.838,74.569,79.491,74.569z
		"/>
	<path fill="#994916" d="M66.563,80.702c0,0.348,0.285,0.633,0.635,0.633h1.955c0.348,0,0.635-0.285,0.635-0.633v-6.133h-3.225
		V80.702z"/>
	<path fill="#1E6E32" d="M79.917,73.97l-5.756-16.58c-0.113,0.107-0.236,0.203-0.369,0.289c-1.014,0.637-2.674,0.16-3.66-0.811
		c-1.574-1.551-3.029-1.248-3.822-1.033c-1.158,0.313-2.557,0.313-3.516-0.189L56.432,73.97c-0.115,0.328,0.076,0.6,0.426,0.6h5.887
		h3.184h4.492h2.66h6.41C79.838,74.569,80.032,74.298,79.917,73.97z"/>
	<path fill="#F2EEE6" d="M72.577,48.978c-1.236-3.285-1.758-5.801-4.014-5.98c-2.428-0.195-3.506,1.803-4.734,4.939
		c-0.84,2.143-3.26,5.539-1.641,7.26c0.877,0.932,2.684,1.025,4.121,0.639c0.793-0.215,2.248-0.518,3.822,1.033
		c0.986,0.971,2.646,1.447,3.66,0.811c1.031-0.652,1.475-1.99,0.701-4.203C73.879,51.726,73.233,50.728,72.577,48.978z"/>
</g>
</svg>
