<?xml version="1.0" encoding="utf-8"?>
<!-- Generator: Adobe Illustrator 16.0.0, SVG Export Plug-In . SVG Version: 6.00 Build 0)  -->
<!DOCTYPE svg PUBLIC "-//W3C//DTD SVG 1.1//EN" "http://www.w3.org/Graphics/SVG/1.1/DTD/svg11.dtd">
<svg version="1.1" id="Lager_1" xmlns="http://www.w3.org/2000/svg" xmlns:xlink="http://www.w3.org/1999/xlink" x="0px" y="0px"
	 viewBox="0 0 97.398 97.398" enable-background="new 0 0 97.398 97.398" xml:space="preserve">
<g>
	<path fill="#7DC8F0" d="M32.946,56.562c2.146-0.791,4.559-1.35,8.324-1.93c3.221-0.494,3.891-0.623,5.118-0.975
		c0.687-0.197,1.264-0.393,1.766-0.598c4.173-1.699,6.404-4.908,6.122-8.803c-0.452-6.227-4.657-9.384-12.499-9.384h-1.221
		l3.516,10.128c0.114,0.328-0.077,0.6-0.426,0.6h-6.41h-2.659h-0.635v6.133c0,0.348-0.285,0.635-0.635,0.635h-1.955
		c-0.348,0-0.635-0.287-0.635-0.635v-6.133h-0.634h-3.183h-3.628C12.442,62.296,0.252,81.075,0.252,81.075
		c-0.634,1.289-0.103,3.311,1.773,3.311h23.093c-2.529-2.971-3.982-6.795-3.982-11.105C21.136,65.88,25.881,59.161,32.946,56.562z"
		/>
	<path fill="#C8E6FA" d="M51.184,84.38c-3.271,0-8.716,0-12.181-0.24C32.179,83.665,27.77,79.403,27.77,73.28
		c0-4.705,2.932-8.824,7.468-10.494c1.703-0.627,3.743-1.09,7.041-1.598c3.288-0.506,4.301-0.686,5.939-1.154
		c0.917-0.264,1.714-0.535,2.438-0.83c6.804-2.771,10.726-8.684,10.237-15.428c-0.706-9.729-7.853-15.538-19.116-15.538h-3.525
		l2.305,6.635h1.221c7.842,0,12.047,3.157,12.499,9.384c0.282,3.895-1.949,7.104-6.122,8.803c-0.502,0.205-1.079,0.4-1.766,0.598
		c-1.228,0.352-1.897,0.48-5.118,0.975c-3.766,0.58-6.178,1.139-8.324,1.93c-7.064,2.6-11.81,9.318-11.81,16.719
		c0,4.311,1.453,8.135,3.982,11.105H48.7h2.973c-0.101-0.002-0.195-0.006-0.297-0.006H51.184z"/>
	<path fill="#1E6E32" d="M37.96,27.399c-1.175,1.423-4.438,0.726-6.534,0.726c-2.257,0-2.888,2.706-4.241,3.608
		c-0.618,0.412-1.385,0.35-1.961-0.085l-4.637,13.353c-0.114,0.328,0.078,0.6,0.427,0.6h5.887h3.183h4.493h2.659h6.41
		c0.349,0,0.54-0.271,0.426-0.6L37.96,27.399z"/>
	<path fill="#994916" d="M30.717,51.733c0,0.348,0.287,0.635,0.635,0.635h1.955c0.35,0,0.635-0.287,0.635-0.635v-6.133h-3.225
		V51.733z"/>
	<path fill="#C8E6FA" d="M32.552,13.618c-2.429-0.194-3.563,1.783-4.736,4.941c-1.173,3.157-2.437,7.488-3.248,10.106
		c-0.813,2.617,1.263,3.97,2.617,3.067c1.354-0.902,1.984-3.608,4.241-3.608c2.255,0,5.864,0.811,6.768-1.084
		c0.902-1.896-0.181-3.88-1.264-7.218C35.847,16.483,34.808,13.799,32.552,13.618z"/>
	<path fill="#7DC8F0" d="M57.726,20.293c-2.235-3.513-5.03-7.28-9.023-7.28l0,0H48.7h-0.003h-0.001c-3.993,0-6.787,3.768-9.022,7.28
		c-0.181,0.282-0.772,1.2-1.686,2.612c0.54,1.644,0.789,2.91,0.206,4.136c-0.064,0.135-0.146,0.252-0.235,0.361
		c0-0.002,0.001-0.002,0.002-0.003l0.291,0.839h3.525c11.264,0,18.41,5.809,19.116,15.538c0.488,6.744-3.434,12.656-10.237,15.428
		c-0.724,0.295-1.521,0.566-2.438,0.83c-1.639,0.469-2.651,0.648-5.939,1.154c-3.298,0.508-5.338,0.971-7.041,1.598
		c-4.536,1.67-7.468,5.789-7.468,10.494c0,6.123,4.409,10.385,11.233,10.859c3.465,0.24,8.909,0.24,12.181,0.24h0.191
		c0.102,0,0.196,0.004,0.297,0.006h43.701c1.876,0,2.406-2.021,1.772-3.311C97.146,81.075,59.404,22.93,57.726,20.293z
		 M79.491,74.567H73.08h-2.658h-0.634V80.7c0,0.35-0.286,0.635-0.637,0.635h-1.953c-0.35,0-0.635-0.285-0.635-0.635v-6.133h-0.636
		h-3.182h-5.888c-0.349,0-0.54-0.27-0.426-0.6l6.362-18.322c0.001,0,0.002,0,0.003,0c-0.231-0.119-0.438-0.27-0.609-0.451
		c-1.618-1.721,0.802-5.117,1.641-7.26c1.229-3.135,2.307-5.133,4.734-4.939c2.257,0.18,2.778,2.695,4.013,5.98
		c0.658,1.752,1.305,2.748,1.917,4.498c0.674,1.928,0.424,3.193-0.332,3.916l5.756,16.578
		C80.031,74.298,79.839,74.567,79.491,74.567z"/>
	<path fill="#994916" d="M66.563,80.7c0,0.35,0.285,0.635,0.635,0.635h1.953c0.351,0,0.637-0.285,0.637-0.635v-6.133h-3.225V80.7z"
		/>
	<path fill="#1E6E32" d="M79.917,73.968L74.161,57.39c-0.113,0.107-0.235,0.203-0.369,0.287c-1.013,0.637-2.674,0.162-3.659-0.809
		c-1.574-1.551-3.029-1.248-3.823-1.035c-1.159,0.314-2.557,0.313-3.515-0.188l-6.362,18.322c-0.114,0.33,0.077,0.6,0.426,0.6h5.888
		h3.182h4.494h2.658h6.411C79.839,74.567,80.031,74.298,79.917,73.968z"/>
	<path fill="#C8E6FA" d="M72.576,48.976c-1.234-3.285-1.756-5.801-4.013-5.98c-2.428-0.193-3.506,1.805-4.734,4.939
		c-0.839,2.143-3.259,5.539-1.641,7.26c0.878,0.934,2.683,1.027,4.121,0.639c0.794-0.215,2.249-0.516,3.823,1.035
		c0.985,0.971,2.646,1.445,3.659,0.809c1.032-0.65,1.474-1.99,0.701-4.203C73.88,51.724,73.234,50.728,72.576,48.976z"/>
</g>
</svg>
