<?xml version="1.0" encoding="utf-8"?>
<!-- Generator: Adobe Illustrator 16.0.0, SVG Export Plug-In . SVG Version: 6.00 Build 0)  -->
<!DOCTYPE svg PUBLIC "-//W3C//DTD SVG 1.1//EN" "http://www.w3.org/Graphics/SVG/1.1/DTD/svg11.dtd">
<svg version="1.1" id="Lager_1" xmlns="http://www.w3.org/2000/svg" xmlns:xlink="http://www.w3.org/1999/xlink" x="0px" y="0px"
	 viewBox="0 0 70.866 70.866" enable-background="new 0 0 70.866 70.866" xml:space="preserve">
<g>
	<path fill="#FFB900" d="M8.103,4.189C6.255,4.835,3.87,6.828,4.699,11.576c0.59,3.375,2.856,5.161,4.88,8.487
		c1.82,2.99,1.576,6.561,1.126,10.39c-0.52,4.415-1.219,9.9,0.9,15.373c1.785,4.609,0.272,8.621-0.311,10.582
		c-0.828,2.789-4.626,3.459-4.747,6.631c-0.122,3.174,2.638,4.146,5.79,3.779c3.209-0.375,4.722-2.6,5.735-5.371
		c1.182-3.225,1.678-6.877,4.208-7.971c2.16-0.934,3.761-0.004,5.104,0.973c1.343,0.977,1.28,2.641,0.067,3.506
		c-1.734,1.24-5.537-0.408-7.273,2.77c-1.559,2.859,0.507,6.094,5.27,6.094c6.347,0,8.002,0,13.073,0
		c5.716,0,8.326-1.59,12.625-2.109c4.578-0.557,10.508-0.52,13.66-5.66c4.063-6.627-0.816-14.859-4.76-15.5
		c-3.428-0.557-3.682,2.564-2.031,6.182c1.818,3.982-0.625,6.016-3.025,5.631c-3.813-0.609-2.805-5.916-5.979-12.385
		c-3.172-6.468-7.344-8.624-10.517-11.552s-5.004-5.247-4.759-10.494c0.244-5.249,0.205-10.132-4.676-14.114
		c-4.524-3.69-9.512-1.779-12.198-1.502C13.106,5.702,10.774,3.255,8.103,4.189z"/>
	<circle fill="#FFE57E" cx="17.081" cy="9.959" r="2.428"/>
	<path fill="#FFE57E" d="M28.537,22.674c-1.496,1.881-5.4,1.555-6.356-1.715c-0.7-2.394,0.006-5.25,0.779-7.033
		c1.179-2.715,3.905-3.672,5.529-1.507C30.905,15.642,30.208,20.576,28.537,22.674z"/>
</g>
</svg>
