<?xml version="1.0" encoding="utf-8"?>
<!-- Generator: Adobe Illustrator 16.0.0, SVG Export Plug-In . SVG Version: 6.00 Build 0)  -->
<!DOCTYPE svg PUBLIC "-//W3C//DTD SVG 1.1//EN" "http://www.w3.org/Graphics/SVG/1.1/DTD/svg11.dtd">
<svg version="1.1" id="Lager_1" xmlns="http://www.w3.org/2000/svg" xmlns:xlink="http://www.w3.org/1999/xlink" x="0px" y="0px"
	 viewBox="0 0 85.805 85.805" enable-background="new 0 0 85.805 85.805" xml:space="preserve">
<g>
	<path fill="#FFB900" d="M18.283,15.896c-7.611,0-9.439,4.975-11.063,6.294s-2.653,1.702-4.651,2.13
		c-2.008,0.43-3.514,2.904-1.845,6.701c1.416,3.221,4.365,4.161,8.933,5.279c4.568,1.115,7.613,3.553,10.658,8.627
		c3.045,5.076,5.294,6.66,7.714,10.15c1.763,2.543,1.016,6.598,0.406,9.033c-0.609,2.438-3.89,1.594-4.257,5.242
		c-0.283,2.82,2.492,4.227,5.875,3.896c2.708-0.268,4.682-1.543,5.995-5.18c1.314-3.637,1.93-5.537,2.638-7.365
		c1.211-3.123,4.076-4.004,9.557-4.004c3.35,0,5.16,0,8.307,0s5.076,0.508,6.395,2.842c1.32,2.336,2.01,4.9,0,6.295
		c-1.553,1.078-3.174,2.699-2.658,4.613c0.676,2.514,3.268,3.004,5.375,2.799c2.584-0.254,5.105-1.848,6.42-5.891
		c1.313-4.043,2.943-7.105,2.334-11.266c-0.609-4.162-0.248-8.191,0.203-10.963c0.811-4.973,4.975-8.46,8.324-13.841
		c3.35-5.38,3.795-11.392,1.115-16.14c-2.232-3.959-6.191-3.24-5.705,0.641c0.375,3.008,0.523,8.794-3.639,12.246
		c-4.162,3.45-7.811,2.441-17.453,2.441c-6.191,0-5.58,0-11.469,0c-5.887,0-11.667-3.271-15.124-6.765S24.983,15.896,18.283,15.896z
		"/>
	<circle fill="#FFE57E" cx="12.829" cy="24.212" r="2.428"/>
	<path fill="#FFE57E" d="M25.896,27.47c-0.146,2.093-1.618,5.981-5.641,4.822c-4.585-1.32-2.311-7.688-1.447-9.414
		c0.966-1.933,3.463-3.061,5.316-1.127C25.977,23.684,26.026,25.585,25.896,27.47z"/>
</g>
</svg>
