<?xml version="1.0" encoding="utf-8"?>
<!-- Generator: Adobe Illustrator 16.0.0, SVG Export Plug-In . SVG Version: 6.00 Build 0)  -->
<!DOCTYPE svg PUBLIC "-//W3C//DTD SVG 1.1//EN" "http://www.w3.org/Graphics/SVG/1.1/DTD/svg11.dtd">
<svg version="1.1" id="Lager_1" xmlns="http://www.w3.org/2000/svg" xmlns:xlink="http://www.w3.org/1999/xlink" x="0px" y="0px"
	 viewBox="0 0 88.385 88.383" enable-background="new 0 0 88.385 88.383" xml:space="preserve">
<g>
	<path fill="#FFB900" d="M78.538,12.703H9.846c-1.3,0-2.363,1.064-2.363,2.364v46.885c0,1.301,1.063,2.365,2.363,2.365h7.068v9
		c0,1.297,1.063,2.362,2.361,2.362h4.704c1.302,0,2.363-1.065,2.363-2.362v-9h35.571v9c0,1.297,1.063,2.362,2.362,2.362h4.704
		c1.301,0,2.363-1.065,2.363-2.362v-9h7.194c1.298,0,2.364-1.064,2.364-2.365V15.067C80.902,13.768,79.836,12.703,78.538,12.703
		 M33.29,59.944c-11.839,0-21.435-9.606-21.435-21.435c0-11.856,9.596-21.458,21.435-21.458c11.854,0,21.455,9.602,21.455,21.458
		C54.745,50.338,45.144,59.944,33.29,59.944 M61.835,17.971c2.153,0,3.898,1.743,3.898,3.896c0,2.146-1.745,3.894-3.898,3.894
		c-2.148,0-3.892-1.747-3.892-3.894C57.943,19.714,59.687,17.971,61.835,17.971 M74.324,58.189H60.316
		c-0.807,0-1.46-0.653-1.46-1.461c0-0.804,0.653-1.458,1.46-1.458h14.008c0.805,0,1.458,0.654,1.458,1.458
		C75.782,57.536,75.129,58.189,74.324,58.189 M74.324,51.862H60.316c-0.807,0-1.46-0.653-1.46-1.457c0-0.807,0.653-1.459,1.46-1.459
		h14.008c0.805,0,1.458,0.652,1.458,1.459C75.782,51.209,75.129,51.862,74.324,51.862 M74.324,45.54H60.316
		c-0.807,0-1.46-0.657-1.46-1.461c0-0.805,0.653-1.46,1.46-1.46h14.008c0.805,0,1.458,0.655,1.458,1.46
		C75.782,44.883,75.129,45.54,74.324,45.54 M74.324,39.213H60.316c-0.807,0-1.46-0.653-1.46-1.46c0-0.806,0.653-1.459,1.46-1.459
		h14.008c0.805,0,1.458,0.653,1.458,1.459C75.782,38.56,75.129,39.213,74.324,39.213 M74.324,32.887H60.316
		c-0.807,0-1.46-0.654-1.46-1.459c0-0.806,0.653-1.459,1.46-1.459h14.008c0.805,0,1.458,0.653,1.458,1.459
		C75.782,32.232,75.129,32.887,74.324,32.887 M72.603,25.761c-2.148,0-3.893-1.747-3.893-3.894c0-2.153,1.744-3.896,3.893-3.896
		c2.154,0,3.898,1.743,3.898,3.896C76.501,24.014,74.757,25.761,72.603,25.761"/>
	<path fill="#994916" d="M61.835,25.761c2.153,0,3.898-1.747,3.898-3.894c0-2.153-1.745-3.896-3.898-3.896
		c-2.148,0-3.892,1.743-3.892,3.896C57.943,24.014,59.687,25.761,61.835,25.761"/>
	<path fill="#994916" d="M72.603,17.971c-2.148,0-3.893,1.743-3.893,3.896c0,2.147,1.744,3.894,3.893,3.894
		c2.154,0,3.898-1.746,3.898-3.894C76.501,19.714,74.757,17.971,72.603,17.971"/>
	<path fill="#994916" d="M74.324,55.271H60.316c-0.807,0-1.46,0.654-1.46,1.458c0,0.808,0.653,1.461,1.46,1.461h14.008
		c0.804,0,1.458-0.653,1.458-1.461C75.782,55.925,75.128,55.271,74.324,55.271"/>
	<path fill="#994916" d="M74.324,48.946H60.316c-0.807,0-1.46,0.65-1.46,1.459c0,0.805,0.653,1.457,1.46,1.457h14.008
		c0.804,0,1.458-0.652,1.458-1.457C75.782,49.597,75.128,48.946,74.324,48.946"/>
	<path fill="#994916" d="M74.324,42.619H60.316c-0.807,0-1.46,0.656-1.46,1.46s0.653,1.459,1.46,1.459h14.008
		c0.804,0,1.458-0.655,1.458-1.459S75.128,42.619,74.324,42.619"/>
	<path fill="#994916" d="M74.324,36.294H60.316c-0.807,0-1.46,0.653-1.46,1.459c0,0.807,0.653,1.46,1.46,1.46h14.008
		c0.804,0,1.458-0.653,1.458-1.46C75.782,36.947,75.128,36.294,74.324,36.294"/>
	<path fill="#994916" d="M74.324,29.969H60.316c-0.807,0-1.46,0.653-1.46,1.459c0,0.805,0.653,1.459,1.46,1.459h14.008
		c0.804,0,1.458-0.654,1.458-1.459C75.782,30.622,75.128,29.969,74.324,29.969"/>
	<path fill="#994916" d="M33.289,17.052c-11.838,0-21.434,9.602-21.434,21.458c0,11.829,9.596,21.435,21.434,21.435
		c11.854,0,21.456-9.605,21.456-21.435C54.745,26.653,45.144,17.052,33.289,17.052 M47.17,40.28
		c-2.514,1.828-5.617,2.256-8.386,1.435c-0.102,0.176-0.215,0.347-0.332,0.513l10.856,7.89c-3.118,4.292-9.126,5.243-13.417,2.124
		c-2.511-1.823-3.875-4.636-3.957-7.516c-0.202-0.043-0.398-0.097-0.597-0.159l-4.141,12.748c-5.045-1.642-7.807-7.06-6.166-12.106
		c0.957-2.95,3.211-5.119,5.927-6.082c-0.021-0.202-0.031-0.407-0.031-0.613V38.51L13.52,38.508c0-5.306,4.301-9.606,9.605-9.606
		c3.109,0,5.874,1.481,7.629,3.772c0.188-0.081,0.378-0.153,0.573-0.216l-4.15-12.768c5.047-1.641,10.465,1.121,12.105,6.166
		c0.963,2.959,0.405,6.052-1.235,8.432c0.134,0.151,0.263,0.308,0.381,0.472l10.868-7.896C52.415,31.154,51.462,37.163,47.17,40.28"
		/>
	<path fill="#FFB900" d="M38.047,34.288c1.641-2.38,2.198-5.471,1.235-8.433c-1.641-5.044-7.059-7.806-12.104-6.166l4.149,12.769
		c-0.196,0.062-0.386,0.134-0.573,0.216c-1.756-2.291-4.519-3.772-7.628-3.772c-5.306,0-9.605,4.301-9.605,9.606h13.406v0.005
		c0,0.206,0.012,0.411,0.031,0.613c-2.715,0.962-4.969,3.132-5.928,6.082c-1.641,5.047,1.122,10.465,6.167,12.106l4.142-12.748
		c0.197,0.063,0.394,0.116,0.597,0.159c0.08,2.88,1.445,5.692,3.956,7.516c4.291,3.119,10.299,2.167,13.417-2.124l-10.856-7.89
		c0.116-0.166,0.229-0.336,0.334-0.513c2.766,0.821,5.871,0.393,8.384-1.435c4.292-3.118,5.246-9.124,2.126-13.418L38.429,34.76
		C38.308,34.596,38.181,34.439,38.047,34.288 M33.29,41.784c-1.809,0-3.273-1.468-3.273-3.274c0-1.808,1.465-3.274,3.273-3.274
		c1.808,0,3.274,1.467,3.274,3.274C36.564,40.316,35.098,41.784,33.29,41.784"/>
	<path fill="#994916" d="M33.29,35.236c-1.809,0-3.273,1.466-3.273,3.274c0,1.807,1.465,3.273,3.273,3.273
		c1.808,0,3.274-1.467,3.274-3.273C36.564,36.702,35.098,35.236,33.29,35.236"/>
</g>
</svg>
