<?xml version="1.0" encoding="utf-8"?>
<!-- Generator: Adobe Illustrator 16.0.0, SVG Export Plug-In . SVG Version: 6.00 Build 0)  -->
<!DOCTYPE svg PUBLIC "-//W3C//DTD SVG 1.1//EN" "http://www.w3.org/Graphics/SVG/1.1/DTD/svg11.dtd">
<svg version="1.1" id="Lager_1" xmlns="http://www.w3.org/2000/svg" xmlns:xlink="http://www.w3.org/1999/xlink" x="0px" y="0px"
	 viewBox="0 0 76.536 76.535" enable-background="new 0 0 76.536 76.535" xml:space="preserve">
<g>
	<g>
		<path fill="#009FE4" d="M18.504,22.884v1.267c0,0.92-0.477,1.991-1.015,2.477c-1.411,1.274-2.597,0.803-4.211,2.419
			c-1.779,1.781-1.813,3.604-3.076,4.869c-0.499,0.498-1.437,0.809-2.193,0.809H6.665v24.747h1.344c0.757,0,1.694,0.31,2.193,0.809
			c1.264,1.264,1.297,3.089,3.076,4.87c1.614,1.615,2.8,1.143,4.211,2.418c0.538,0.485,1.015,1.557,1.015,2.477v1.266h-6.98
			c-2.672,0-4.858-2.187-4.858-4.857l0,0c0,2.672,2.187,4.857,4.858,4.857h9.325V22.884H18.504z"/>
		<path fill="#009FE4" d="M66.333,33.915c-1.264-1.265-1.297-3.088-3.076-4.869c-1.613-1.616-2.801-1.145-4.211-2.419
			c-0.537-0.485-1.014-1.557-1.014-2.477v-1.267h-2.861V71.31h9.842c2.672,0,4.857-2.186,4.857-4.857l0,0
			c0,2.671-2.186,4.857-4.857,4.857h-6.98v-1.266c0-0.92,0.477-1.991,1.014-2.477c1.41-1.275,2.598-0.803,4.211-2.418
			c1.779-1.781,1.813-3.606,3.076-4.87c0.5-0.499,1.438-0.809,2.193-0.809h1.344V34.724h-1.344
			C67.771,34.724,66.833,34.413,66.333,33.915z"/>
		<path fill="#FFB900" d="M10.202,33.915c1.264-1.265,1.297-3.088,3.076-4.869c1.614-1.616,2.8-1.145,4.211-2.419
			c0.538-0.485,1.015-1.557,1.015-2.477v-1.267h-6.98c-2.672,0-4.858,2.187-4.858,4.859v6.98h1.344
			C8.766,34.724,9.703,34.413,10.202,33.915z"/>
		<path fill="#FFB900" d="M11.523,71.31h6.98v-1.266c0-0.92-0.477-1.991-1.015-2.477c-1.411-1.275-2.597-0.803-4.211-2.418
			c-1.779-1.781-1.813-3.606-3.076-4.87c-0.499-0.499-1.437-0.809-2.193-0.809H6.665v6.981C6.665,69.123,8.852,71.31,11.523,71.31z"
			/>
		<path fill="#FFB900" d="M65.013,22.884h-6.98v1.267c0,0.92,0.477,1.991,1.014,2.477c1.41,1.274,2.598,0.803,4.211,2.419
			c1.779,1.781,1.813,3.604,3.076,4.869c0.5,0.498,1.438,0.809,2.193,0.809h1.344v-6.98C69.871,25.07,67.685,22.884,65.013,22.884z"
			/>
		<path fill="#FFB900" d="M66.333,60.279c-1.264,1.264-1.297,3.089-3.076,4.87c-1.613,1.615-2.801,1.143-4.211,2.418
			c-0.537,0.485-1.014,1.557-1.014,2.477v1.266h6.98c2.672,0,4.857-2.187,4.857-4.857v-6.981h-1.344
			C67.771,59.471,66.833,59.78,66.333,60.279z"/>
		<path fill="#FFB900" d="M31.986,19.003c0-0.687,0.58-1.267,1.266-1.267h9.516c0.687,0,1.267,0.58,1.267,1.267v3.881h4.408v-3.881
			c0-3.129-2.547-5.674-5.675-5.674h-9.516c-3.128,0-5.674,2.545-5.674,5.674v3.881h4.408V19.003z"/>
		<rect x="20.849" y="22.884" fill="#FFB900" width="4.407" height="48.426"/>
		<rect x="50.763" y="22.884" fill="#FFB900" width="4.408" height="48.426"/>
		<path fill="#7DC8F0" d="M56.48,21.168c0.322-0.008,0.717-0.185,0.949-0.414c3.533-3.501,7.045-7.023,10.625-10.604
			c-2.363-2.364-4.623-4.624-6.924-6.925c-3.58,3.58-7.1,7.095-10.607,10.62c-0.188,0.189-0.398,0.47-0.4,0.711
			c-0.033,2.187-0.02,4.376-0.021,6.667C52.326,21.211,54.402,21.217,56.48,21.168z M52.564,15.963
			c0.723-0.733,2.02-0.742,2.754-0.016c0.732,0.723,0.74,2.02,0.016,2.753c-0.723,0.734-2.02,0.741-2.754,0.016
			C51.845,17.994,51.839,16.697,52.564,15.963z"/>
	</g>
	<path fill="#009FE4" d="M54.566,16.642c-0.43-0.431-1.129-0.431-1.559,0l-6.242,6.242h-2.73H31.986h-4.408h-2.322V71.31h25.507
		V22.884h-0.881l4.684-4.684C54.996,17.77,54.996,17.071,54.566,16.642z"/>
</g>
</svg>
