<?xml version="1.0" encoding="utf-8"?>
<!-- Generator: Adobe Illustrator 16.0.0, SVG Export Plug-In . SVG Version: 6.00 Build 0)  -->
<!DOCTYPE svg PUBLIC "-//W3C//DTD SVG 1.1//EN" "http://www.w3.org/Graphics/SVG/1.1/DTD/svg11.dtd">
<svg version="1.1" id="Lager_1" xmlns="http://www.w3.org/2000/svg" xmlns:xlink="http://www.w3.org/1999/xlink" x="0px" y="0px"
	 viewBox="0 0 76.536 76.535" enable-background="new 0 0 76.536 76.535" xml:space="preserve">
<g>
	<g>
		<path fill="#E6007E" d="M18.504,22.884v1.266c0,0.92-0.478,1.992-1.015,2.477c-1.411,1.275-2.597,0.803-4.211,2.419
			c-1.779,1.781-1.813,3.605-3.076,4.869c-0.499,0.499-1.437,0.809-2.193,0.809H6.664V59.47h1.345c0.757,0,1.694,0.311,2.193,0.809
			c1.264,1.264,1.297,3.09,3.076,4.871c1.614,1.615,2.8,1.143,4.211,2.418c0.537,0.484,1.015,1.557,1.015,2.477v1.266h-6.98
			c-2.672,0-4.859-2.188-4.859-4.857l0,0c0,2.672,2.188,4.857,4.859,4.857h9.325V22.884H18.504z"/>
		<path fill="#E6007E" d="M66.334,33.915c-1.264-1.264-1.297-3.088-3.076-4.869c-1.615-1.616-2.801-1.144-4.213-2.419
			c-0.537-0.485-1.014-1.557-1.014-2.477v-1.266h-2.859V71.31h9.84c2.672,0,4.859-2.186,4.859-4.857l0,0
			c0,2.67-2.188,4.857-4.859,4.857h-6.98v-1.266c0-0.92,0.477-1.992,1.014-2.477c1.412-1.275,2.598-0.803,4.213-2.418
			c1.779-1.781,1.813-3.607,3.076-4.871c0.498-0.498,1.436-0.809,2.193-0.809h1.344V34.723h-1.344
			C67.77,34.723,66.833,34.413,66.334,33.915z"/>
		<path fill="#FFB900" d="M10.202,33.915c1.264-1.264,1.297-3.088,3.076-4.869c1.614-1.616,2.8-1.144,4.211-2.419
			c0.537-0.485,1.015-1.557,1.015-2.477v-1.266h-6.98c-2.672,0-4.859,2.186-4.859,4.859v6.98h1.345
			C8.766,34.723,9.703,34.413,10.202,33.915z"/>
		<path fill="#FFB900" d="M11.523,71.31h6.98v-1.266c0-0.92-0.478-1.992-1.015-2.477c-1.411-1.275-2.597-0.803-4.211-2.418
			c-1.779-1.781-1.813-3.607-3.076-4.871C9.703,59.78,8.766,59.47,8.009,59.47H6.664v6.982C6.664,69.122,8.852,71.31,11.523,71.31z"
			/>
		<path fill="#FFB900" d="M65.012,22.884h-6.98v1.266c0,0.92,0.477,1.992,1.014,2.477c1.412,1.275,2.598,0.803,4.213,2.419
			c1.779,1.781,1.813,3.605,3.076,4.869c0.498,0.499,1.436,0.809,2.193,0.809h1.344v-6.98C69.872,25.07,67.684,22.884,65.012,22.884
			z"/>
		<path fill="#FFB900" d="M66.334,60.278c-1.264,1.264-1.297,3.09-3.076,4.871c-1.615,1.615-2.801,1.143-4.213,2.418
			c-0.537,0.484-1.014,1.557-1.014,2.477v1.266h6.98c2.672,0,4.859-2.188,4.859-4.857V59.47h-1.344
			C67.77,59.47,66.833,59.78,66.334,60.278z"/>
		<path fill="#E6007E" d="M31.986,19.003c0-0.687,0.58-1.267,1.267-1.267h9.515c0.686,0,1.266,0.581,1.266,1.267v3.881h4.408v-3.881
			c0-3.129-2.545-5.674-5.674-5.674h-9.515c-3.129,0-5.675,2.545-5.675,5.674v3.881h4.408V19.003z"/>
		<rect x="20.849" y="22.884" fill="#FFB900" width="4.407" height="48.426"/>
		<rect x="50.764" y="22.884" fill="#FFB900" width="4.408" height="48.426"/>
		<path fill="#F0A5C3" d="M56.479,21.167c0.324-0.007,0.719-0.185,0.951-0.414c3.533-3.5,7.045-7.023,10.625-10.603
			c-2.363-2.364-4.623-4.624-6.926-6.925c-3.578,3.58-7.098,7.094-10.607,10.62c-0.188,0.189-0.398,0.469-0.4,0.71
			c-0.031,2.187-0.02,4.376-0.02,6.667C52.325,21.21,54.403,21.216,56.479,21.167z M52.563,15.962
			c0.725-0.733,2.02-0.742,2.754-0.016c0.734,0.723,0.742,2.02,0.018,2.753s-2.02,0.741-2.754,0.016
			C51.846,17.994,51.838,16.697,52.563,15.962z"/>
	</g>
	<path fill="#E6007E" d="M54.567,16.641c-0.432-0.43-1.129-0.43-1.559,0l-6.242,6.243h-2.732H31.986h-4.408h-2.322V71.31h25.508
		V22.884h-0.883l4.686-4.684C54.997,17.769,54.997,17.071,54.567,16.641z"/>
</g>
</svg>
