<?xml version="1.0" encoding="utf-8"?>
<!-- Generator: Adobe Illustrator 16.0.0, SVG Export Plug-In . SVG Version: 6.00 Build 0)  -->
<!DOCTYPE svg PUBLIC "-//W3C//DTD SVG 1.1//EN" "http://www.w3.org/Graphics/SVG/1.1/DTD/svg11.dtd">
<svg version="1.1" id="Lager_1" xmlns="http://www.w3.org/2000/svg" xmlns:xlink="http://www.w3.org/1999/xlink" x="0px" y="0px"
	 viewBox="0 0 76.535 76.535" enable-background="new 0 0 76.535 76.535" xml:space="preserve">
<g>
	<g>
		<path fill="#B0CB0B" d="M18.504,22.884v1.266c0,0.92-0.478,1.992-1.015,2.477c-1.411,1.275-2.597,0.803-4.211,2.419
			c-1.779,1.781-1.813,3.604-3.076,4.869c-0.499,0.499-1.437,0.809-2.193,0.809H6.664V59.47h1.345c0.757,0,1.694,0.312,2.193,0.81
			c1.264,1.264,1.297,3.09,3.076,4.871c1.614,1.615,2.8,1.143,4.211,2.418c0.537,0.483,1.015,1.557,1.015,2.477v1.266h-6.98
			c-2.672,0-4.859-2.188-4.859-4.856l0,0c0,2.672,2.188,4.856,4.859,4.856h9.325V22.884H18.504z"/>
		<path fill="#B0CB0B" d="M66.334,33.914c-1.264-1.265-1.297-3.088-3.076-4.869c-1.615-1.616-2.801-1.144-4.213-2.419
			c-0.537-0.484-1.014-1.557-1.014-2.477v-1.266h-2.859v48.428h9.84c2.672,0,4.859-2.187,4.859-4.857l0,0
			c0,2.67-2.188,4.857-4.859,4.857h-6.979v-1.267c0-0.92,0.477-1.992,1.014-2.478c1.412-1.274,2.599-0.803,4.213-2.418
			c1.779-1.78,1.813-3.606,3.076-4.871c0.498-0.497,1.437-0.809,2.192-0.809h1.345V34.723h-1.345
			C67.77,34.723,66.832,34.413,66.334,33.914z"/>
		<path fill="#D2E182" d="M10.202,33.914c1.264-1.265,1.297-3.088,3.076-4.869c1.614-1.616,2.8-1.144,4.211-2.419
			c0.537-0.484,1.015-1.557,1.015-2.477v-1.266h-6.98c-2.672,0-4.859,2.186-4.859,4.858v6.98H8.01
			C8.766,34.723,9.703,34.413,10.202,33.914z"/>
		<path fill="#D2E182" d="M11.523,71.311h6.98v-1.267c0-0.92-0.478-1.992-1.015-2.478c-1.411-1.274-2.597-0.803-4.211-2.418
			c-1.779-1.78-1.813-3.606-3.076-4.871C9.703,59.78,8.766,59.47,8.009,59.47H6.664v6.982C6.664,69.122,8.852,71.311,11.523,71.311z
			"/>
		<path fill="#D2E182" d="M65.012,22.884h-6.979v1.266c0,0.92,0.477,1.992,1.014,2.477c1.412,1.275,2.599,0.803,4.213,2.419
			c1.779,1.781,1.813,3.604,3.076,4.869c0.498,0.499,1.437,0.809,2.192,0.809h1.345v-6.98
			C69.871,25.069,67.684,22.884,65.012,22.884z"/>
		<path fill="#D2E182" d="M66.334,60.277c-1.264,1.265-1.297,3.091-3.076,4.871c-1.615,1.615-2.801,1.144-4.213,2.418
			c-0.537,0.484-1.014,1.558-1.014,2.478v1.267h6.979c2.673,0,4.859-2.188,4.859-4.857V59.47h-1.345
			C67.77,59.47,66.832,59.78,66.334,60.277z"/>
		<path fill="#B0CB0B" d="M31.986,19.002c0-0.686,0.58-1.267,1.266-1.267h9.516c0.687,0,1.267,0.581,1.267,1.267v3.882h4.407v-3.882
			c0-3.129-2.545-5.674-5.674-5.674h-9.516c-3.128,0-5.674,2.545-5.674,5.674v3.882h4.408V19.002z"/>
		<rect x="20.849" y="22.884" fill="#D2E182" width="4.407" height="48.427"/>
		<rect x="50.764" y="22.884" fill="#D2E182" width="4.408" height="48.427"/>
		<path fill="#D2E182" d="M56.479,21.167c0.324-0.007,0.72-0.185,0.951-0.414c3.533-3.5,7.045-7.022,10.625-10.603
			c-2.365-2.364-4.623-4.624-6.926-6.925c-3.578,3.579-7.098,7.094-10.607,10.62c-0.188,0.188-0.397,0.469-0.399,0.71
			c-0.031,2.188-0.021,4.376-0.021,6.668C52.324,21.21,54.402,21.216,56.479,21.167z M52.563,15.962
			c0.726-0.733,2.021-0.741,2.754-0.016c0.734,0.723,0.742,2.02,0.019,2.754c-0.726,0.733-2.021,0.74-2.754,0.016
			C51.846,17.993,51.838,16.697,52.563,15.962z"/>
	</g>
	<path fill="#B0CB0B" d="M54.566,16.641c-0.433-0.43-1.129-0.43-1.56,0l-6.241,6.243h-2.732H31.986h-4.408h-2.322v48.427h25.508
		V22.884h-0.883l4.686-4.685C54.996,17.769,54.996,17.071,54.566,16.641z"/>
</g>
</svg>
