<?xml version="1.0" encoding="utf-8"?>
<!-- Generator: Adobe Illustrator 16.0.0, SVG Export Plug-In . SVG Version: 6.00 Build 0)  -->
<!DOCTYPE svg PUBLIC "-//W3C//DTD SVG 1.1//EN" "http://www.w3.org/Graphics/SVG/1.1/DTD/svg11.dtd">
<svg version="1.1" id="Lager_1" xmlns="http://www.w3.org/2000/svg" xmlns:xlink="http://www.w3.org/1999/xlink" x="0px" y="0px"
	 viewBox="0 0 76.536 76.535" enable-background="new 0 0 76.536 76.535" xml:space="preserve">
<g>
	<g>
		<path fill="#FFB900" d="M18.504,21.339v1.266c0,0.92-0.477,1.992-1.015,2.477c-1.411,1.275-2.597,0.803-4.211,2.419
			c-1.779,1.781-1.813,3.604-3.076,4.869c-0.499,0.499-1.437,0.809-2.193,0.809H6.665v24.746h1.344c0.757,0,1.694,0.311,2.193,0.809
			c1.264,1.264,1.297,3.09,3.076,4.871c1.614,1.615,2.8,1.143,4.211,2.418c0.538,0.484,1.015,1.557,1.015,2.477v1.266h-6.98
			c-2.672,0-4.858-2.188-4.858-4.857l0,0c0,2.672,2.187,4.857,4.858,4.857h9.325V21.339H18.504z"/>
		<path fill="#FFB900" d="M66.333,32.37c-1.264-1.265-1.297-3.088-3.076-4.869c-1.613-1.616-2.801-1.144-4.211-2.419
			c-0.537-0.485-1.014-1.557-1.014-2.477v-1.266h-2.861v48.425h9.842c2.672,0,4.857-2.186,4.857-4.857l0,0
			c0,2.67-2.186,4.857-4.857,4.857h-6.98v-1.266c0-0.92,0.477-1.992,1.014-2.477c1.41-1.275,2.598-0.803,4.211-2.418
			c1.779-1.781,1.813-3.607,3.076-4.871c0.5-0.498,1.438-0.809,2.193-0.809h1.344V33.179h-1.344
			C67.771,33.179,66.833,32.869,66.333,32.37z"/>
		<path fill="#FFE57E" d="M10.202,32.37c1.264-1.265,1.297-3.088,3.076-4.869c1.614-1.616,2.8-1.144,4.211-2.419
			c0.538-0.485,1.015-1.557,1.015-2.477v-1.266h-6.98c-2.672,0-4.858,2.186-4.858,4.859v6.98h1.344
			C8.766,33.179,9.703,32.869,10.202,32.37z"/>
		<path fill="#FFE57E" d="M11.523,69.765h6.98v-1.266c0-0.92-0.477-1.992-1.015-2.477c-1.411-1.275-2.597-0.803-4.211-2.418
			c-1.779-1.781-1.813-3.607-3.076-4.871c-0.499-0.498-1.437-0.809-2.193-0.809H6.665v6.982
			C6.665,67.577,8.852,69.765,11.523,69.765z"/>
		<path fill="#FFE57E" d="M65.013,21.339h-6.98v1.266c0,0.92,0.477,1.992,1.014,2.477c1.41,1.275,2.598,0.803,4.211,2.419
			c1.779,1.781,1.813,3.604,3.076,4.869c0.5,0.499,1.438,0.809,2.193,0.809h1.344v-6.98C69.871,23.525,67.685,21.339,65.013,21.339z
			"/>
		<path fill="#FFE57E" d="M66.333,58.733c-1.264,1.264-1.297,3.09-3.076,4.871c-1.613,1.615-2.801,1.143-4.211,2.418
			c-0.537,0.484-1.014,1.557-1.014,2.477v1.266h6.98c2.672,0,4.857-2.188,4.857-4.857v-6.982h-1.344
			C67.771,57.925,66.833,58.235,66.333,58.733z"/>
		<path fill="#FFB900" d="M31.986,17.458c0-0.686,0.58-1.267,1.266-1.267h9.516c0.687,0,1.267,0.581,1.267,1.267v3.881h4.408v-3.881
			c0-3.129-2.547-5.674-5.675-5.674h-9.516c-3.128,0-5.674,2.545-5.674,5.674v3.881h4.408V17.458z"/>
		<rect x="20.849" y="21.339" fill="#FFE57E" width="4.407" height="48.425"/>
		<rect x="50.763" y="21.339" fill="#FFE57E" width="4.408" height="48.425"/>
		<path fill="#FFE57E" d="M56.48,19.623c0.322-0.007,0.717-0.185,0.949-0.414c3.533-3.5,7.045-7.023,10.625-10.603
			c-2.363-2.364-4.623-4.624-6.924-6.925c-3.58,3.58-7.1,7.094-10.607,10.62c-0.188,0.189-0.398,0.469-0.4,0.71
			c-0.033,2.187-0.02,4.376-0.021,6.667C52.326,19.666,54.402,19.672,56.48,19.623z M52.564,14.417
			c0.723-0.733,2.02-0.741,2.754-0.015c0.732,0.723,0.74,2.02,0.016,2.753c-0.723,0.734-2.02,0.741-2.754,0.016
			C51.845,16.449,51.839,15.153,52.564,14.417z"/>
	</g>
	<path fill="#FFB900" d="M54.566,15.097c-0.43-0.43-1.129-0.43-1.559,0l-6.242,6.243h-2.73H31.986h-4.408h-2.322v48.425h25.507
		V21.339h-0.881l4.684-4.684C54.996,16.225,54.996,15.527,54.566,15.097z"/>
</g>
</svg>
