<?xml version="1.0" encoding="utf-8"?>
<!-- Generator: Adobe Illustrator 16.0.0, SVG Export Plug-In . SVG Version: 6.00 Build 0)  -->
<!DOCTYPE svg PUBLIC "-//W3C//DTD SVG 1.1//EN" "http://www.w3.org/Graphics/SVG/1.1/DTD/svg11.dtd">
<svg version="1.1" id="Lager_1" xmlns="http://www.w3.org/2000/svg" xmlns:xlink="http://www.w3.org/1999/xlink" x="0px" y="0px"
	 viewBox="0 0 88.214 88.214" enable-background="new 0 0 88.214 88.214" xml:space="preserve">
<g>
	<g>
		<path fill="#009FE4" d="M21.535,15.972c-0.18,0.09-0.343,0.214-0.443,0.354l-10.37,14.587L0.352,45.501
			c-0.191,0.269-0.347,0.758-0.347,1.087v25.188c0,0.33,0.27,0.6,0.599,0.6h41.671c0.165,0,0.382,0,0.599,0V45.989L21.535,15.972z"
			/>
		<path fill="#FFFFFF" d="M11.814,63.328c0,0.145-0.119,0.264-0.263,0.264H8.157c-0.145,0-0.263-0.119-0.263-0.264v-3.395
			c0-0.145,0.119-0.264,0.263-0.264h3.395c0.145,0,0.263,0.119,0.263,0.264V63.328z"/>
		<path fill="#FFFFFF" d="M11.814,57.634c0,0.145-0.119,0.263-0.263,0.263H8.157c-0.145,0-0.263-0.118-0.263-0.263V54.24
			c0-0.145,0.119-0.264,0.263-0.264h3.395c0.145,0,0.263,0.119,0.263,0.264V57.634z"/>
		<path fill="#FFFFFF" d="M17.507,63.328c0,0.145-0.119,0.264-0.264,0.264H13.85c-0.145,0-0.264-0.119-0.264-0.264v-3.395
			c0-0.145,0.119-0.264,0.264-0.264h3.393c0.145,0,0.264,0.119,0.264,0.264V63.328z"/>
		<path fill="#FFFFFF" d="M17.507,57.634c0,0.145-0.119,0.263-0.264,0.263H13.85c-0.145,0-0.264-0.118-0.264-0.263V54.24
			c0-0.145,0.119-0.264,0.264-0.264h3.393c0.145,0,0.264,0.119,0.264,0.264V57.634z"/>
		<path fill="#FFFFFF" d="M20.554,46.164c0,0.144-0.119,0.264-0.264,0.264h-3.393c-0.146,0-0.264-0.12-0.264-0.264v-3.396
			c0-0.145,0.119-0.264,0.264-0.264h3.393c0.145,0,0.264,0.119,0.264,0.264V46.164z"/>
		<path fill="#FFFFFF" d="M20.554,40.469c0,0.146-0.119,0.264-0.264,0.264h-3.393c-0.146,0-0.264-0.119-0.264-0.264v-3.394
			c0-0.146,0.119-0.264,0.264-0.264h3.393c0.145,0,0.264,0.119,0.264,0.264V40.469z"/>
		<path fill="#FFFFFF" d="M22.326,37.075c0-0.146,0.119-0.264,0.263-0.264h3.394c0.145,0,0.264,0.119,0.264,0.264v3.394
			c0,0.146-0.119,0.264-0.264,0.264h-3.394c-0.144,0-0.263-0.119-0.263-0.264V37.075z"/>
		<path fill="#FFFFFF" d="M22.326,46.164v-3.396c0-0.145,0.119-0.264,0.263-0.264h3.394c0.145,0,0.264,0.119,0.264,0.264v3.396
			c0,0.144-0.119,0.264-0.264,0.264h-3.394C22.445,46.427,22.326,46.307,22.326,46.164z"/>
		<path fill="#FFFFFF" d="M29.293,63.328c0,0.145-0.119,0.264-0.264,0.264h-3.394c-0.145,0-0.263-0.119-0.263-0.264v-3.395
			c0-0.145,0.119-0.264,0.263-0.264h3.394c0.145,0,0.264,0.119,0.264,0.264V63.328z"/>
		<path fill="#FFFFFF" d="M29.293,57.634c0,0.145-0.119,0.263-0.264,0.263h-3.394c-0.145,0-0.263-0.118-0.263-0.263V54.24
			c0-0.145,0.119-0.264,0.263-0.264h3.394c0.145,0,0.264,0.119,0.264,0.264V57.634z"/>
		<path fill="#FFFFFF" d="M34.986,63.328c0,0.145-0.119,0.264-0.264,0.264h-3.393c-0.145,0-0.264-0.119-0.264-0.264v-3.395
			c0-0.145,0.119-0.264,0.264-0.264h3.393c0.145,0,0.264,0.119,0.264,0.264V63.328z"/>
		<path fill="#FFFFFF" d="M34.986,57.634c0,0.145-0.119,0.263-0.264,0.263h-3.393c-0.145,0-0.264-0.118-0.264-0.263V54.24
			c0-0.145,0.119-0.264,0.264-0.264h3.393c0.145,0,0.264,0.119,0.264,0.264V57.634z"/>
	</g>
	<g>
		<path fill="#0A4682" d="M54.225,45.989c0.33,0,0.756-0.22,0.947-0.488l10.023-14.1c0.19-0.269,0.503-0.269,0.693,0l10.023,14.1
			c0.191,0.269,0.617,0.488,0.947,0.488h4.496h6.738c-0.062-0.185-0.143-0.362-0.231-0.488L77.491,30.913L67.119,16.326
			c-0.191-0.269-0.617-0.489-0.945-0.489H22.038c-0.158,0-0.337,0.052-0.503,0.135l21.34,30.017h7.428H54.225z"/>
	</g>
	<g>
		<path fill="#7DC8F0" d="M88.094,45.989h-6.738h-4.496c-0.33,0-0.756-0.22-0.947-0.488l-10.023-14.1
			c-0.19-0.269-0.503-0.269-0.693,0l-10.023,14.1c-0.191,0.269-0.617,0.488-0.947,0.488h-3.922h-7.428v26.387
			c0.217,0,0.434,0,0.599,0h44.136c0.33,0,0.6-0.27,0.6-0.6V46.588C88.209,46.414,88.164,46.197,88.094,45.989z"/>
		<path fill="#FFFFFF" d="M55.916,63.328c0,0.145-0.119,0.264-0.264,0.264h-3.394c-0.145,0-0.263-0.119-0.263-0.264v-3.395
			c0-0.145,0.118-0.264,0.263-0.264h3.394c0.145,0,0.264,0.119,0.264,0.264V63.328z"/>
		<path fill="#FFFFFF" d="M55.916,57.634c0,0.145-0.119,0.263-0.264,0.263h-3.394c-0.145,0-0.263-0.118-0.263-0.263V54.24
			c0-0.145,0.118-0.264,0.263-0.264h3.394c0.145,0,0.264,0.119,0.264,0.264V57.634z"/>
		<path fill="#FFFFFF" d="M61.609,63.328c0,0.145-0.119,0.264-0.264,0.264h-3.395c-0.145,0-0.264-0.119-0.264-0.264v-3.395
			c0-0.145,0.119-0.264,0.264-0.264h3.395c0.145,0,0.264,0.119,0.264,0.264V63.328z"/>
		<path fill="#FFFFFF" d="M61.609,57.634c0,0.145-0.119,0.263-0.264,0.263h-3.395c-0.145,0-0.264-0.118-0.264-0.263V54.24
			c0-0.145,0.119-0.264,0.264-0.264h3.395c0.145,0,0.264,0.119,0.264,0.264V57.634z"/>
		<path fill="#FFFFFF" d="M73.395,63.328c0,0.145-0.119,0.264-0.264,0.264h-3.393c-0.145,0-0.264-0.119-0.264-0.264v-3.395
			c0-0.145,0.119-0.264,0.264-0.264h3.393c0.145,0,0.264,0.119,0.264,0.264V63.328z"/>
		<path fill="#FFFFFF" d="M73.395,57.634c0,0.145-0.119,0.263-0.264,0.263h-3.393c-0.145,0-0.264-0.118-0.264-0.263V54.24
			c0-0.145,0.119-0.264,0.264-0.264h3.393c0.145,0,0.264,0.119,0.264,0.264V57.634z"/>
		<path fill="#FFFFFF" d="M79.088,63.328c0,0.145-0.119,0.264-0.264,0.264H75.43c-0.145,0-0.263-0.119-0.263-0.264v-3.395
			c0-0.145,0.118-0.264,0.263-0.264h3.395c0.145,0,0.264,0.119,0.264,0.264V63.328z"/>
		<path fill="#FFFFFF" d="M79.088,57.634c0,0.145-0.119,0.263-0.264,0.263H75.43c-0.145,0-0.263-0.118-0.263-0.263V54.24
			c0-0.145,0.118-0.264,0.263-0.264h3.395c0.145,0,0.264,0.119,0.264,0.264V57.634z"/>
	</g>
</g>
</svg>
