<?xml version="1.0" encoding="utf-8"?>
<!-- Generator: Adobe Illustrator 16.0.0, SVG Export Plug-In . SVG Version: 6.00 Build 0)  -->
<!DOCTYPE svg PUBLIC "-//W3C//DTD SVG 1.1//EN" "http://www.w3.org/Graphics/SVG/1.1/DTD/svg11.dtd">
<svg version="1.1" id="Lager_1" xmlns="http://www.w3.org/2000/svg" xmlns:xlink="http://www.w3.org/1999/xlink" x="0px" y="0px"
	 viewBox="0 0 88.243 88.242" enable-background="new 0 0 88.243 88.242" xml:space="preserve">
<g>
	<g>
		<path fill="#FFB900" d="M21.548,15.986c-0.18,0.09-0.343,0.214-0.443,0.354l-10.37,14.587L0.365,45.515
			c-0.191,0.269-0.347,0.757-0.347,1.087v25.189c0,0.328,0.27,0.598,0.599,0.598h41.671c0.165,0,0.382,0,0.599,0V46.002
			L21.548,15.986z"/>
		<path fill="#FFFFFF" d="M11.828,63.34c0,0.146-0.119,0.264-0.263,0.264H8.17c-0.145,0-0.263-0.117-0.263-0.264v-3.395
			c0-0.143,0.119-0.264,0.263-0.264h3.395c0.145,0,0.263,0.121,0.263,0.264V63.34z"/>
		<path fill="#FFFFFF" d="M11.828,57.646c0,0.146-0.119,0.264-0.263,0.264H8.17c-0.145,0-0.263-0.117-0.263-0.264v-3.393
			c0-0.146,0.119-0.264,0.263-0.264h3.395c0.145,0,0.263,0.117,0.263,0.264V57.646z"/>
		<path fill="#FFFFFF" d="M17.52,63.34c0,0.146-0.119,0.264-0.264,0.264h-3.393c-0.145,0-0.264-0.117-0.264-0.264v-3.395
			c0-0.143,0.119-0.264,0.264-0.264h3.393c0.145,0,0.264,0.121,0.264,0.264V63.34z"/>
		<path fill="#FFFFFF" d="M17.52,57.646c0,0.146-0.119,0.264-0.264,0.264h-3.393c-0.145,0-0.264-0.117-0.264-0.264v-3.393
			c0-0.146,0.119-0.264,0.264-0.264h3.393c0.145,0,0.264,0.117,0.264,0.264V57.646z"/>
		<path fill="#FFFFFF" d="M20.567,46.176c0,0.145-0.119,0.264-0.264,0.264H16.91c-0.146,0-0.264-0.119-0.264-0.264v-3.395
			c0-0.145,0.119-0.263,0.264-0.263h3.393c0.145,0,0.264,0.119,0.264,0.263V46.176z"/>
		<path fill="#FFFFFF" d="M20.567,40.482c0,0.146-0.119,0.264-0.264,0.264H16.91c-0.146,0-0.264-0.119-0.264-0.264v-3.393
			c0-0.146,0.119-0.264,0.264-0.264h3.393c0.145,0,0.264,0.119,0.264,0.264V40.482z"/>
		<path fill="#FFFFFF" d="M22.339,37.089c0-0.146,0.119-0.264,0.264-0.264h3.393c0.145,0,0.264,0.119,0.264,0.264v3.393
			c0,0.146-0.119,0.264-0.264,0.264h-3.393c-0.145,0-0.264-0.119-0.264-0.264V37.089z"/>
		<path fill="#FFFFFF" d="M22.339,46.176v-3.395c0-0.145,0.119-0.263,0.264-0.263h3.393c0.145,0,0.264,0.119,0.264,0.263v3.395
			c0,0.145-0.119,0.264-0.264,0.264h-3.393C22.458,46.439,22.339,46.32,22.339,46.176z"/>
		<path fill="#FFFFFF" d="M29.307,63.34c0,0.146-0.119,0.264-0.264,0.264h-3.394c-0.145,0-0.263-0.117-0.263-0.264v-3.395
			c0-0.143,0.119-0.264,0.263-0.264h3.394c0.145,0,0.264,0.121,0.264,0.264V63.34z"/>
		<path fill="#FFFFFF" d="M29.307,57.646c0,0.146-0.119,0.264-0.264,0.264h-3.394c-0.145,0-0.263-0.117-0.263-0.264v-3.393
			c0-0.146,0.119-0.264,0.263-0.264h3.394c0.145,0,0.264,0.117,0.264,0.264V57.646z"/>
		<path fill="#FFFFFF" d="M34.999,63.34c0,0.146-0.119,0.264-0.264,0.264h-3.393c-0.145,0-0.264-0.117-0.264-0.264v-3.395
			c0-0.143,0.119-0.264,0.264-0.264h3.393c0.145,0,0.264,0.121,0.264,0.264V63.34z"/>
		<path fill="#FFFFFF" d="M34.999,57.646c0,0.146-0.119,0.264-0.264,0.264h-3.393c-0.145,0-0.264-0.117-0.264-0.264v-3.393
			c0-0.146,0.119-0.264,0.264-0.264h3.393c0.145,0,0.264,0.117,0.264,0.264V57.646z"/>
	</g>
	<g>
		<path fill="#994916" d="M54.239,46.002c0.33,0,0.756-0.219,0.947-0.488l10.021-14.1c0.191-0.269,0.504-0.269,0.695,0l10.023,14.1
			c0.191,0.269,0.617,0.488,0.945,0.488h4.498h6.738c-0.063-0.185-0.143-0.362-0.232-0.488L77.504,30.927L67.133,16.34
			c-0.191-0.269-0.617-0.489-0.947-0.489H22.051c-0.158,0-0.337,0.052-0.503,0.135l21.34,30.017h7.429H54.239z"/>
	</g>
	<g>
		<path fill="#FFE57E" d="M88.108,46.002H81.37h-4.498c-0.328,0-0.754-0.219-0.945-0.488l-10.023-14.1
			c-0.191-0.269-0.504-0.269-0.695,0l-10.021,14.1c-0.191,0.269-0.617,0.488-0.947,0.488h-3.922h-7.429v26.386
			c0.217,0,0.435,0,0.599,0h44.137c0.33,0,0.6-0.27,0.6-0.598V46.602C88.223,46.426,88.178,46.209,88.108,46.002z"/>
		<path fill="#FFFFFF" d="M55.928,63.34c0,0.146-0.117,0.264-0.262,0.264h-3.395c-0.145,0-0.264-0.117-0.264-0.264v-3.395
			c0-0.143,0.119-0.264,0.264-0.264h3.395c0.145,0,0.262,0.121,0.262,0.264V63.34z"/>
		<path fill="#FFFFFF" d="M55.928,57.646c0,0.146-0.117,0.264-0.262,0.264h-3.395c-0.145,0-0.264-0.117-0.264-0.264v-3.393
			c0-0.146,0.119-0.264,0.264-0.264h3.395c0.145,0,0.262,0.117,0.262,0.264V57.646z"/>
		<path fill="#FFFFFF" d="M61.622,63.34c0,0.146-0.117,0.264-0.264,0.264h-3.393c-0.145,0-0.264-0.117-0.264-0.264v-3.395
			c0-0.143,0.119-0.264,0.264-0.264h3.393c0.146,0,0.264,0.121,0.264,0.264V63.34z"/>
		<path fill="#FFFFFF" d="M61.622,57.646c0,0.146-0.117,0.264-0.264,0.264h-3.393c-0.145,0-0.264-0.117-0.264-0.264v-3.393
			c0-0.146,0.119-0.264,0.264-0.264h3.393c0.146,0,0.264,0.117,0.264,0.264V57.646z"/>
		<path fill="#FFFFFF" d="M73.409,63.34c0,0.146-0.119,0.264-0.264,0.264H69.75c-0.145,0-0.262-0.117-0.262-0.264v-3.395
			c0-0.143,0.117-0.264,0.262-0.264h3.395c0.145,0,0.264,0.121,0.264,0.264V63.34z"/>
		<path fill="#FFFFFF" d="M73.409,57.646c0,0.146-0.119,0.264-0.264,0.264H69.75c-0.145,0-0.262-0.117-0.262-0.264v-3.393
			c0-0.146,0.117-0.264,0.262-0.264h3.395c0.145,0,0.264,0.117,0.264,0.264V57.646z"/>
		<path fill="#FFFFFF" d="M79.102,63.34c0,0.146-0.119,0.264-0.264,0.264h-3.395c-0.145,0-0.264-0.117-0.264-0.264v-3.395
			c0-0.143,0.119-0.264,0.264-0.264h3.395c0.145,0,0.264,0.121,0.264,0.264V63.34z"/>
		<path fill="#FFFFFF" d="M79.102,57.646c0,0.146-0.119,0.264-0.264,0.264h-3.395c-0.145,0-0.264-0.117-0.264-0.264v-3.393
			c0-0.146,0.119-0.264,0.264-0.264h3.395c0.145,0,0.264,0.117,0.264,0.264V57.646z"/>
	</g>
</g>
</svg>
