<?xml version="1.0" encoding="utf-8"?>
<!-- Generator: Adobe Illustrator 16.0.0, SVG Export Plug-In . SVG Version: 6.00 Build 0)  -->
<!DOCTYPE svg PUBLIC "-//W3C//DTD SVG 1.1//EN" "http://www.w3.org/Graphics/SVG/1.1/DTD/svg11.dtd">
<svg version="1.1" id="Lager_1" xmlns="http://www.w3.org/2000/svg" xmlns:xlink="http://www.w3.org/1999/xlink" x="0px" y="0px"
	 viewBox="0 0 88.214 88.214" enable-background="new 0 0 88.214 88.214" xml:space="preserve">
<g>
	<g>
		<path fill="#E6007E" d="M21.534,15.972c-0.18,0.089-0.344,0.213-0.444,0.354L10.721,30.912L0.352,45.5
			c-0.191,0.269-0.348,0.757-0.348,1.087v25.189c0,0.328,0.27,0.598,0.6,0.598h41.671c0.165,0,0.382,0,0.599,0V45.988L21.534,15.972
			z"/>
		<path fill="#FFFFFF" d="M11.814,63.328c0,0.145-0.119,0.262-0.264,0.262H8.156c-0.145,0-0.263-0.117-0.263-0.262v-3.396
			c0-0.143,0.119-0.264,0.263-0.264h3.394c0.145,0,0.264,0.121,0.264,0.264V63.328z"/>
		<path fill="#FFFFFF" d="M11.814,57.632c0,0.146-0.119,0.264-0.264,0.264H8.156c-0.145,0-0.263-0.117-0.263-0.264V54.24
			c0-0.146,0.119-0.264,0.263-0.264h3.394c0.145,0,0.264,0.117,0.264,0.264V57.632z"/>
		<path fill="#FFFFFF" d="M17.506,63.328c0,0.145-0.118,0.262-0.263,0.262H13.85c-0.145,0-0.264-0.117-0.264-0.262v-3.396
			c0-0.143,0.119-0.264,0.264-0.264h3.393c0.145,0,0.263,0.121,0.263,0.264V63.328z"/>
		<path fill="#FFFFFF" d="M17.506,57.632c0,0.146-0.118,0.264-0.263,0.264H13.85c-0.145,0-0.264-0.117-0.264-0.264V54.24
			c0-0.146,0.119-0.264,0.264-0.264h3.393c0.145,0,0.263,0.117,0.263,0.264V57.632z"/>
		<path fill="#FFFFFF" d="M20.554,46.162c0,0.145-0.12,0.264-0.264,0.264h-3.394c-0.146,0-0.264-0.119-0.264-0.264v-3.395
			c0-0.145,0.119-0.263,0.264-0.263h3.394c0.145,0,0.264,0.119,0.264,0.263V46.162z"/>
		<path fill="#FFFFFF" d="M20.554,40.468c0,0.146-0.12,0.264-0.264,0.264h-3.394c-0.146,0-0.264-0.119-0.264-0.264v-3.394
			c0-0.146,0.119-0.264,0.264-0.264h3.394c0.145,0,0.264,0.119,0.264,0.264V40.468z"/>
		<path fill="#FFFFFF" d="M22.325,37.074c0-0.146,0.119-0.264,0.263-0.264h3.394c0.145,0,0.264,0.119,0.264,0.264v3.394
			c0,0.146-0.12,0.264-0.264,0.264h-3.394c-0.144,0-0.263-0.119-0.263-0.264V37.074z"/>
		<path fill="#FFFFFF" d="M22.325,46.162v-3.395c0-0.145,0.119-0.263,0.263-0.263h3.394c0.145,0,0.264,0.119,0.264,0.263v3.395
			c0,0.145-0.12,0.264-0.264,0.264h-3.394C22.444,46.425,22.325,46.306,22.325,46.162z"/>
		<path fill="#FFFFFF" d="M29.293,63.328c0,0.145-0.119,0.262-0.264,0.262h-3.394c-0.145,0-0.264-0.117-0.264-0.262v-3.396
			c0-0.143,0.119-0.264,0.264-0.264h3.394c0.145,0,0.264,0.121,0.264,0.264V63.328z"/>
		<path fill="#FFFFFF" d="M29.293,57.632c0,0.146-0.119,0.264-0.264,0.264h-3.394c-0.145,0-0.264-0.117-0.264-0.264V54.24
			c0-0.146,0.119-0.264,0.264-0.264h3.394c0.145,0,0.264,0.117,0.264,0.264V57.632z"/>
		<path fill="#FFFFFF" d="M34.985,63.328c0,0.145-0.119,0.262-0.263,0.262h-3.394c-0.145,0-0.264-0.117-0.264-0.262v-3.396
			c0-0.143,0.12-0.264,0.264-0.264h3.394c0.145,0,0.263,0.121,0.263,0.264V63.328z"/>
		<path fill="#FFFFFF" d="M34.985,57.632c0,0.146-0.119,0.264-0.263,0.264h-3.394c-0.145,0-0.264-0.117-0.264-0.264V54.24
			c0-0.146,0.12-0.264,0.264-0.264h3.394c0.145,0,0.263,0.117,0.263,0.264V57.632z"/>
	</g>
	<g>
		<g>
			<path fill="#8C005A" d="M54.225,45.988c0.33,0,0.756-0.22,0.947-0.488l10.021-14.1c0.191-0.269,0.504-0.269,0.695,0l10.023,14.1
				c0.189,0.269,0.617,0.488,0.945,0.488h4.498h6.738c-0.063-0.185-0.143-0.362-0.232-0.488L77.49,30.912L67.119,16.325
				c-0.191-0.269-0.617-0.488-0.947-0.488H22.037c-0.158,0-0.337,0.052-0.503,0.135l21.34,30.017h7.429H54.225z"/>
		</g>
	</g>
	<g>
		<path fill="#F0A5C3" d="M88.094,45.988h-6.738h-4.498c-0.328,0-0.756-0.22-0.945-0.488L65.889,31.4
			c-0.191-0.269-0.504-0.269-0.695,0L55.172,45.5c-0.191,0.269-0.617,0.488-0.947,0.488h-3.922h-7.429v26.386
			c0.217,0,0.434,0,0.599,0h44.136c0.33,0,0.598-0.27,0.598-0.598V46.587C88.207,46.412,88.164,46.195,88.094,45.988z"/>
		<path fill="#FFFFFF" d="M55.914,63.328c0,0.145-0.117,0.262-0.262,0.262h-3.395c-0.145,0-0.264-0.117-0.264-0.262v-3.396
			c0-0.143,0.119-0.264,0.264-0.264h3.395c0.145,0,0.262,0.121,0.262,0.264V63.328z"/>
		<path fill="#FFFFFF" d="M55.914,57.632c0,0.146-0.117,0.264-0.262,0.264h-3.395c-0.145,0-0.264-0.117-0.264-0.264V54.24
			c0-0.146,0.119-0.264,0.264-0.264h3.395c0.145,0,0.262,0.117,0.262,0.264V57.632z"/>
		<path fill="#FFFFFF" d="M61.607,63.328c0,0.145-0.117,0.262-0.264,0.262h-3.393c-0.146,0-0.264-0.117-0.264-0.262v-3.396
			c0-0.143,0.117-0.264,0.264-0.264h3.393c0.146,0,0.264,0.121,0.264,0.264V63.328z"/>
		<path fill="#FFFFFF" d="M61.607,57.632c0,0.146-0.117,0.264-0.264,0.264h-3.393c-0.146,0-0.264-0.117-0.264-0.264V54.24
			c0-0.146,0.117-0.264,0.264-0.264h3.393c0.146,0,0.264,0.117,0.264,0.264V57.632z"/>
		<path fill="#FFFFFF" d="M73.395,63.328c0,0.145-0.119,0.262-0.264,0.262h-3.395c-0.145,0-0.264-0.117-0.264-0.262v-3.396
			c0-0.143,0.119-0.264,0.264-0.264h3.395c0.145,0,0.264,0.121,0.264,0.264V63.328z"/>
		<path fill="#FFFFFF" d="M73.395,57.632c0,0.146-0.119,0.264-0.264,0.264h-3.395c-0.145,0-0.264-0.117-0.264-0.264V54.24
			c0-0.146,0.119-0.264,0.264-0.264h3.395c0.145,0,0.264,0.117,0.264,0.264V57.632z"/>
		<path fill="#FFFFFF" d="M79.086,63.328c0,0.145-0.117,0.262-0.262,0.262H75.43c-0.145,0-0.264-0.117-0.264-0.262v-3.396
			c0-0.143,0.119-0.264,0.264-0.264h3.395c0.145,0,0.262,0.121,0.262,0.264V63.328z"/>
		<path fill="#FFFFFF" d="M79.086,57.632c0,0.146-0.117,0.264-0.262,0.264H75.43c-0.145,0-0.264-0.117-0.264-0.264V54.24
			c0-0.146,0.119-0.264,0.264-0.264h3.395c0.145,0,0.262,0.117,0.262,0.264V57.632z"/>
	</g>
</g>
</svg>
