<svg version="1.1" id="Lager_1" xmlns="http://www.w3.org/2000/svg" xmlns:xlink="http://www.w3.org/1999/xlink" x="0px" y="0px"
	 viewBox="0 0 500 286" enable-background="new 0 0 500 286" xml:space="preserve">
<path fill-rule="evenodd" clip-rule="evenodd" fill="#83D0F5" d="M305.812,285.971c-39.941,0-79.892,0.1-119.843-0.069
	c-10.29-0.04-20.59-0.854-30.378-4.608c-10.936-4.194-20.273-10.616-27.842-19.623c-7.895-9.418-13.031-20.1-14.761-32.255
	c-2.769-19.556,1.64-37.229,14.313-52.686c5.86-7.149,12.976-12.696,21.029-17.126c5.596-3.088,7.044-5.965,6.02-12.326
	c-2.631-16.196-1.239-32.022,4.833-47.295c7.485-18.824,20.195-33.277,37.615-43.572c10.798-6.391,22.48-9.953,34.975-11.184
	c16.058-1.579,31.419,0.83,46.042,7.566c8.155,3.764,15.6,8.688,22.13,14.908c2.464,2.344,4.833,4.793,7.238,7.199
	c4.954,4.943,7.176,5.088,12.804,1.02c9.58-6.921,20.047-11.853,31.772-13.902c23.159-4.037,44.15,1.148,62.154,16.106
	c15.557,12.93,25.039,29.597,26.956,50.082c0.133,1.353,0.427,2.706,0.427,4.044c-0.007,5.243,2.462,8.666,7.364,10.421
	c6.925,2.477,13.579,5.473,19.599,9.767c16.715,11.924,27.487,27.801,30.683,48.109c4.109,26.059-3.772,48.451-23.102,66.383
	c-12.228,11.336-27.082,17.295-43.812,18.621c-5.636,0.447-11.234,0.395-16.839,0.4
	C378.736,285.987,342.274,285.971,305.812,285.971z"/>
<path fill="#e6007e" d="M131.138,27.705c-0.003-0.014-0.006-0.027-0.009-0.04c-0.014-0.061-0.031-0.12-0.045-0.181
	C127.549,12.217,115.475,0.838,99.63,0.15C98.589,0.058,97.542,0,96.479,0c-12.118,0-22.801,6.221-29.26,15.707
	c-0.232,0.34-0.587,0.804-1.102,0.756c-0.515,0.048-0.871-0.416-1.102-0.756C58.556,6.221,47.874,0,35.755,0
	c-1.062,0-2.111,0.058-3.15,0.15C16.759,0.838,4.686,12.217,1.15,27.483c-0.015,0.061-0.031,0.12-0.045,0.181
	c-0.003,0.014-0.006,0.027-0.009,0.04C0.383,30.601,0,33.633,0,36.758c0,11.077,2.946,21.767,8.916,31.78
	c8.614,14.447,23.466,27.237,38.614,38.653c8.807,6.637,14.486,10.029,18.586,10.029c4.27,0,9.53-3.392,18.587-10.029
	c15.294-11.208,30-24.206,38.614-38.653c5.971-10.013,8.916-20.703,8.916-31.78C132.234,33.633,131.852,30.601,131.138,27.705z"/>
</svg>
