<svg xmlns="http://www.w3.org/2000/svg" viewBox="0 0 120 75" enable-background="new 0 0 120 75"><path fill="#fff" d="M66.62 55.077c.045-.45.114-.903.114-1.37 0-4.608-3.735-8.343-8.343-8.343-1.54 0-2.95.473-4.22 1.143-.383.203-.76.125-.775-.43-.002-.1-.057-.668-.082-.85-.74-5.44-5.402-9.63-11.043-9.63-3.134 0-6.027 1.234-7.987 3.375-.415.453-.927.69-1.472.197C30.008 36.634 26.348 35 22.27 35 13.75 35 6.844 41.905 6.844 50.423c0 1.614.25 3.168.71 4.63l.085.256c.08.245.14.57-.39.702C3.1 57.038 0 60.738 0 65.198c0 5.217 4.23 9.445 9.445 9.445h56.11c5.216 0 9.445-4.228 9.445-9.445 0-4.704-3.453-8.53-7.942-9.325-.474-.084-.493-.26-.44-.796z"/></svg>