<?xml version="1.0" encoding="utf-8"?>
<!-- Generator: Adobe Illustrator 18.0.0, SVG Export Plug-In . SVG Version: 6.00 Build 0)  -->
<!DOCTYPE svg PUBLIC "-//W3C//DTD SVG 1.1//EN" "http://www.w3.org/Graphics/SVG/1.1/DTD/svg11.dtd">
<svg version="1.1" id="Lager_1" xmlns="http://www.w3.org/2000/svg" xmlns:xlink="http://www.w3.org/1999/xlink" x="0px" y="0px"
	 viewBox="0 0 193 155" enable-background="new 0 0 193 155" xml:space="preserve">
<g>
	<g>
		<path fill="none" d="M84.367,20.22c-0.079,0.128-0.156,0.26-0.23,0.392c0,0,0-0.001,0.002-0.003
			c0.038-0.058,0.12-0.189,0.235-0.378L84.367,20.22z"/>
		<polygon fill="#E690B4" points="102.957,29.866 102.957,29.866 100.212,25.375 		"/>
		<path fill="#E690B4" d="M84.124,20.631c0.003-0.005,0.01-0.015,0.015-0.022c-0.002,0.001-0.002,0.001-0.002,0.001
			C84.132,20.619,84.127,20.625,84.124,20.631z"/>
		<path fill="#E690B4" d="M84.139,20.609c0.082-0.099,0.424-0.076,0.639,0.275l-0.403-0.653
			C84.259,20.421,84.178,20.552,84.139,20.609z"/>
		<polygon fill="#E690B4" points="90.319,29.866 90.319,29.866 87.548,25.375 		"/>
		<path fill="#E690B4" d="M103.774,29.868c0,0,0,0,0.003,0l5.569-8.985c0.22-0.361,0.442-0.593,0.488-0.523
			c-0.013-0.022-0.038-0.063-0.082-0.134L103.774,29.868z"/>
		<path fill="#E690B4" d="M93.897,25.375l2.758-4.492c0.225-0.366,0.59-0.366,0.812,0l-0.406-0.666L93.897,25.375z"/>
		<path fill="#E690B4" d="M109.836,20.36c0,0,0,0-0.003,0C109.849,20.381,109.852,20.386,109.836,20.36z"/>
		<polygon fill="#E690B4" points="84.778,20.884 87.548,25.375 84.778,20.884 		"/>
		<path fill="#E690B4" d="M102.957,29.866l0.406,0.666l0.411-0.663C103.549,30.231,103.182,30.231,102.957,29.866z"/>
		<polygon fill="#E690B4" points="97.466,20.882 100.212,25.375 97.469,20.883 		"/>
		<path fill="#E690B4" d="M90.319,29.866l0.411,0.666l3.166-5.157l-2.758,4.491C90.916,30.231,90.546,30.231,90.319,29.866z"/>
		<path fill="#F0A5C3" d="M97.53,0.329l-0.041-0.063c-0.005-0.004-0.008-0.009-0.01-0.013c-0.235-0.338-0.6-0.338-0.835,0
			c-0.003,0.004-0.008,0.009-0.01,0.013l-0.041,0.063c-1.785,2.738-8.325,12.862-12.582,20.496c0.038-0.064,0.074-0.129,0.112-0.194
			c-0.013,0.019-0.018,0.023,0.003-0.01c0,0,0.008-0.005,0.01-0.009c0.074-0.132,0.151-0.264,0.23-0.392l0.008,0.012l0.403,0.653
			l2.771,4.49l2.77,4.491c0.227,0.365,0.598,0.365,0.82,0l2.758-4.491l3.164-5.158l0.406,0.666l0.003,0.001l2.742,4.491l2.745,4.491
			c0.225,0.365,0.593,0.365,0.817,0.002l5.978-9.642l0.005-0.006c0.084,0.136,0.161,0.28,0.245,0.416
			C105.738,13.027,99.3,3.049,97.53,0.329z"/>
		<path fill="#E690B4" d="M84.127,20.621c-0.02,0.033-0.015,0.03-0.003,0.01c0.003-0.006,0.008-0.013,0.013-0.019
			C84.134,20.616,84.127,20.619,84.127,20.621z"/>
	</g>
	<g>
		<path fill="#E6007E" d="M113.914,29.025c-0.575-1.8-1.476-3.756-2.127-5.067c-0.529-1.141-1.129-2.252-1.785-3.321
			c-0.084-0.136-0.161-0.28-0.245-0.416l-6.394,10.312l-6.302-10.316l-6.33,10.316L84.367,20.22
			c-0.125,0.197-0.235,0.404-0.355,0.605c-0.59,0.968-1.139,1.97-1.619,3.001c-0.662,1.309-1.601,3.334-2.194,5.198
			c-0.756,2.352-0.947,4.437-0.947,5.543c0,9.917,7.972,17.943,17.809,17.943c0.602,0,1.195-0.031,1.782-0.087
			c8.989-0.9,16.016-8.545,16.016-17.856C114.859,33.462,114.675,31.378,113.914,29.025z"/>
	</g>
	<g>
		<g>
			<path fill="#994916" d="M121.961,101.496H71.936c-3.333,0-6.039,2.72-6.039,6.077c0,3.363,2.707,6.083,6.039,6.083h0.807
				l5.051,38.239c0.222,1.712,1.808,3.105,3.519,3.105h31.271c1.714,0,3.297-1.393,3.521-3.105l5.048-38.239h0.807
				c3.335,0,6.039-2.72,6.039-6.083C128,104.216,125.296,101.496,121.961,101.496z"/>
		</g>
	</g>
	<path fill="#B0CB0B" d="M100.242,52.218c-0.462,0.087-0.927,0.159-1.399,0.206c-0.587,0.057-1.18,0.087-1.782,0.087
		c-1.165,0-2.301-0.113-3.407-0.329v23.091c-2.97-1.923-7.686-4.905-11.075-6.731c-0.656-0.35-2.211-1.136-3.608-1.594
		c-1.399-0.458-2.635-0.571-3.297-0.571c-5.899,0-10.669,4.808-10.674,10.731c0,5.933,4.775,10.736,10.674,10.736
		c0.662,0,1.897-0.113,3.297-0.566c1.397-0.452,2.952-1.244,3.608-1.599c3.389-1.825,8.105-4.808,11.075-6.73v22.546h6.588V52.218z"
		/>
</g>
</svg>
