<?xml version="1.0" encoding="utf-8"?>
<!-- Generator: Adobe Illustrator 19.2.1, SVG Export Plug-In . SVG Version: 6.00 Build 0)  -->
<svg version="1.1" id="Lager_1" xmlns="http://www.w3.org/2000/svg" xmlns:xlink="http://www.w3.org/1999/xlink" x="0px" y="0px"
	 viewBox="0 0 1280 800" style="enable-background:new 0 0 1280 800;" xml:space="preserve">
<style type="text/css">
	.st0{fill:#FFFFFF;}
	.st1{fill:#7DC8F0;}
	.st2{fill:#994916;}
	.st3{fill:#1E6E32;}
	.st4{fill:#FFE57E;}
	.st5{fill:#B0CB0B;}
</style>
<path class="st0" d="M809.4,67.9c-0.1-1-0.1-1.9-0.1-2.9c0-24.1,19.5-43.6,43.6-43.6c7.1,0,13.5,2.1,19.6,4.7
	c5.9,2.5,8.8,0,10.3-1.7c12.4-14.1,30.5-23,50.7-23c37.3,0,67.5,30.2,67.5,67.5c0,3-0.2,5.9-0.6,8.8c-0.9,7.4,3.3,8.5,5.5,9.5
	c21.5,9.5,36.6,31,36.6,56c0,33.8-27.4,61.2-61.2,61.2c-33.8,0-109.7,0-146.6,0c-36.9,0-66.9-29.9-66.9-66.9
	c0-25.6,14.4-47.9,35.6-59.1C805.8,77.2,810.5,75.6,809.4,67.9z"/>
<path class="st1" d="M1280,513.3l-26.1-30.1c-6-6.5-16.2-6.5-22.2,0l-76.7,83.4L997.7,395.6c-6-6.5-16.2-6.5-22.2,0L723.8,669.2
	l-98.5-107c-6-6.5-16.2-6.5-22.2,0L384.4,800H1280L1280,513.3z"/>
<g>
	<path class="st2" d="M166.6,571c-7.3,0-9.5,16.2-14.2,30.1c-1.8,5.5-4.3,9.5-7.1,13.1c-5.6,7.2-12.2,12.2-16.5,22.1
		c-3.6,8.1-4.4,17.2-4.4,25.5c0,13.3,5.4,20.9,20.8,20.9c9,0,13.2,0.1,18.8,0.1c17.4,0,18.8,6.8,18.8,11.9c0,6-4.6,7-11.4,6.9
		c-1.8,0-10.7-0.1-12.4-0.1c-8.4,0-14.3,3.7-14.3,12.1c0,7.2,6.3,10.9,12.8,10.9c2,0,20.5-0.1,22.7-0.1c10.3-0.1,15.8,4.6,15.8,14.4
		c0,11.8,0,11.8,0,19.4c0,7.6-2.6,11.8-13.6,11.8c-1.5,0-14,0-17.9,0c-11.3,0-18.7,5.5-18.7,14.9c0,8.5,6.3,14.8,17.1,14.8
		c18.6,0,58.4,0,87.9,0c29.5,0,90.5-5.5,90.5-72.9c0-52.7-40.8-77.8-45.3-108.5c-0.2-1.7,0.8-4,3-2.5c4.8,3.3,14.8,8.4,29.6,8.4
		c23.5,0,41.6-17.9,41.6-48.6c0-36.1-32.3-60.6-70.6-60.6c-45,0-77.8,30.6-77.8,76.3c0,21.3,7.1,33.7,16.4,47.6
		c12,17.9,31,31.8,41.1,45.1c12.6,16.5,15.5,29,15.5,45.3c0,6.2-5,6.9-6.1,0.8c-1.9-11-4.1-24.5-16-42.7
		c-12.2-18.6-35.3-33.5-61-50.4c-16.1-10.6-23.7-22.8-29.7-37.1C175.9,585.8,172.6,571,166.6,571z"/>
	<g>
		<path class="st3" d="M144.7,713.8c0-8.4,5.9-12.1,14.3-12.1c1,0,4.8,0,7.9,0c-1.5-1.8-3.3-3.3-5.2-4.6c-6.8-4.4-5.6-9-9.3-9
			s-2.5,4.7-9.3,9c-5.6,3.6-9.9,9.6-9.9,18.3c0,4,1.4,7.6,4,10.3c3.1,3.3,7.9,5.4,14,5.4h2.5c6.1,0,10.9-2.1,14-5.4
			c0.3-0.4,0.6-0.7,0.9-1.1c-5.1,0-10,0-11,0C151,724.7,144.7,721,144.7,713.8z"/>
	</g>
	<path class="st4" d="M159.4,646.5c0,4.8-3.9,8.6-8.6,8.6c-4.8,0-8.6-3.9-8.6-8.6c0-4.8,3.9-8.6,8.6-8.6
		C155.5,637.9,159.4,641.8,159.4,646.5z"/>
</g>
<g>
	<path class="st2" d="M788.1,792.8c0,3.9,3.2,7.2,7.2,7.2h22c3.9,0,7.2-3.2,7.2-7.2v-69.1h-36.3L788.1,792.8L788.1,792.8z"/>
	<path class="st5" d="M937.7,717.4l-75.3-150.6c-1.8-3.5,0-6.4,4-6.4h44.9c3.9,0,5.7-2.9,4-6.4L809.5,342.3c-1.8-3.5-4.6-3.5-6.4,0
		L697.3,554c-1.8,3.5,0,6.4,4,6.4h44.9c3.9,0,5.7,2.9,4,6.4l-75.3,150.6c-1.8,3.5,0,6.4,4,6.4h77.5h24.7h50.6h41.1h61
		C937.7,723.7,939.5,720.9,937.7,717.4z"/>
</g>
<g>
	<path class="st2" d="M1068.9,792.8c0,3.9,3.2,7.2,7.2,7.2h22.1c3.9,0,7.2-3.2,7.2-7.2v-69.3h-36.4L1068.9,792.8L1068.9,792.8z"/>
	<g>
		<path class="st5" d="M1219.7,716.8l-130.3-375.2c-1.3-3.7-3.4-3.7-4.7,0L954.5,716.8c-1.3,3.7,0.9,6.8,4.8,6.8h66.5h35.9h50.7h30
			h72.4C1218.9,723.6,1221,720.5,1219.7,716.8z"/>
	</g>
</g>
</svg>
