<?xml version="1.0" encoding="utf-8"?>
<!-- Generator: Adobe Illustrator 19.2.1, SVG Export Plug-In . SVG Version: 6.00 Build 0)  -->
<svg version="1.1" id="Lager_1" xmlns="http://www.w3.org/2000/svg" xmlns:xlink="http://www.w3.org/1999/xlink" x="0px" y="0px"
	 viewBox="0 0 1280 800" style="enable-background:new 0 0 1280 800;" xml:space="preserve">
<style type="text/css">
	.st0{fill:#FFFFFF;}
	.st1{fill:#7DC8F0;}
	.st2{fill:#E6007E;}
	.st3{fill:#B0CB0B;}
	.st4{fill:#994916;}
	.st5{fill:#1E6E32;}
</style>
<path class="st0" d="M695.2,117.8c32.4,17.2,54.5,51.2,54.5,90.4c0,56.5-45.8,102.3-102.3,102.3c-56.5,0-172.6,0-224.3,0
	c-51.7,0-93.6-41.9-93.6-93.6c0-38.3,23-71.2,56-85.7c3.4-1.5,9.7-3.1,8.4-14.5c-0.5-4.4-0.9-8.9-0.9-13.5
	C392.9,46.2,439.1,0,496.1,0c30.9,0,58.7,13.6,77.6,35.2c2.3,2.6,6.7,6.5,15.8,2.7c9.3-3.9,19.2-7.2,30.1-7.2
	c36.9,0,66.8,29.9,66.8,66.8c0,1.5,0,3-0.2,4.5C684.6,113.5,691.7,116,695.2,117.8z"/>
<path class="st1" d="M1280,482.6l-32.9-33.4c-7.5-7.2-20.4-7.2-27.9,0l-96.5,92.3L924.8,352.3c-7.5-7.2-20.4-7.2-27.9,0L580.1,655.2
	L456.2,536.7c-7.5-7.2-20.4-7.2-27.9,0L152.9,800H1280L1280,482.6z"/>
<g>
	<path class="st2" d="M788.5,770.4c0,16.4-13.3,29.6-29.6,29.6c-16.4,0-29.7-13.3-29.7-29.6c0-16.4,13.3-29.6,29.7-29.6
		C775.2,740.7,788.5,754,788.5,770.4z"/>
	<path class="st3" d="M1141.4,334.8c13.4-20.8,20.7-45.8,20.7-72.4c0-75.6-61.3-136.8-136.8-136.8c-18.6,0-36.3,3.8-52.5,10.5
		c-7,2.9-11.6-0.9-13.4-3.1c-32.5-41.8-83.3-68.7-140.4-68.7c-98.2,0-177.9,79.6-177.9,177.9c0,31.9,8.4,61.8,23.1,87.6
		c1.2,2,3.1,6.8-1.7,11.9c-24.8,26.9-38,64.1-38.1,103.6c0,88.4,71.7,160.1,160.1,160.1c41.8,0,79.6-16.2,108.3-42.2
		c5.6-5.1,10.6-1.5,13,0.6c28.4,25.8,66.2,41.6,107.6,41.6c88.4,0,160.1-71.7,160.1-160.1c0-36-11.9-69.2-32-96
		C1139.8,346.9,1137,341.7,1141.4,334.8z"/>
	<path class="st2" d="M1102.8,515c0,16.4-13.3,29.6-29.7,29.6c-16.4,0-29.6-13.3-29.6-29.6c0-16.4,13.3-29.6,29.6-29.6
		C1089.5,485.3,1102.8,498.6,1102.8,515z"/>
	<path class="st2" d="M770.1,498.5c0,16.4-13.3,29.7-29.6,29.7c-16.4,0-29.7-13.3-29.7-29.7c0-16.4,13.3-29.6,29.7-29.6
		C756.8,468.8,770.1,482.1,770.1,498.5z"/>
	<path class="st2" d="M758.7,259.3c0,16.4-13.3,29.7-29.6,29.7c-16.4,0-29.7-13.3-29.7-29.7c0-16.4,13.3-29.6,29.7-29.6
		C745.4,229.7,758.7,242.9,758.7,259.3z"/>
	<path class="st2" d="M941.9,292.7c0,16.4-13.3,29.6-29.6,29.6c-16.4,0-29.7-13.3-29.7-29.6c0-16.4,13.3-29.6,29.7-29.6
		C928.7,263.1,941.9,276.3,941.9,292.7z"/>
	<ellipse class="st2" cx="1051.4" cy="225" rx="29.6" ry="29.6"/>
	<path class="st2" d="M853.8,155.3c0,16.4-13.3,29.6-29.6,29.6c-16.4,0-29.7-13.3-29.7-29.6c0-16.4,13.3-29.7,29.7-29.7
		C840.6,125.6,853.8,138.9,853.8,155.3z"/>
	<path class="st2" d="M825.1,380.1c0,16.4-13.3,29.6-29.6,29.6c-16.4,0-29.6-13.3-29.6-29.6c0-16.4,13.3-29.6,29.6-29.6
		C811.8,350.5,825.1,363.7,825.1,380.1z"/>
	<ellipse class="st2" cx="1031.8" cy="382.5" rx="29.6" ry="29.7"/>
	<path class="st2" d="M955.4,469.5c0,16.4-13.3,29.6-29.7,29.6c-16.4,0-29.6-13.3-29.6-29.6c0-16.4,13.3-29.6,29.6-29.6
		C942.1,439.8,955.4,453.1,955.4,469.5z"/>
	<g>
		<path class="st4" d="M892.9,563.1c-9.9,9-20.9,16.7-32.8,23.1c0,19.8,0,38.5,0,41c0,5.6-4.3,5.8-8.2,1.9
			c-9.9-9.9-19.5-19.6-28.3-28.7c-8.8,2.2-17.9,3.7-27.2,4.4c15.1,15.5,32.1,32.9,49.5,50.2c12.2,12.2,14.3,23.6,14.3,44.6
			c0,0,0,92.6,0,95.9c0,3.2,1.8,4.6,4.8,4.6c3,0,78.8,0,83.2,0c4.4,0,4.8-2.7,4.8-5.1c0-2.4,0-47.7,0-47.7c0-20.9,2.1-28,14.3-40.3
			c15.9-16.1,27.3-27,32.2-31.7c1.7-1.6,1.9-3.4,0.6-4.6c-3.6-3.6-10.6-10.7-11.5-11.8c-1.3-1.5-3-1.3-4.5,0.1
			c-4.4,4.3-14.4,13.9-23,22.2c-4,3.9-8.2,3.7-8.2-1.9c0-3.1,0-47.3,0-85.7c-17.5-7.1-33.4-17.2-47.1-29.7
			C903.5,561.5,898.6,557.9,892.9,563.1z"/>
	</g>
</g>
<g>
	<g>
		<path class="st5" d="M189.1,610.4c-0.5,1.3-0.6,1.9-0.6,1.9c-0.6,2.2-2.3,4.5-3.8,5.2c-1.5,0.7-4.3,2.1-6.4,3.1l-16.3,7.9
			c-2,1-2,2.6,0,3.6l20.7,9.9c2,1,3.8,3.5,4.2,5.6c-0.8-5.7-1.3-11.5-1.3-17.4C185.7,623.3,186.9,616.6,189.1,610.4z"/>
		<path class="st5" d="M306.2,751.6c-5.8-0.1-11.5-0.5-17.1-1.3c0.5,0.1,0.7,0.1,0.7,0.1c2.2,0.3,3.4,2.2,2.5,4.3l-17.2,41.5
			c-0.9,2.1,0.3,3.8,2.5,3.8h4.3c2.3,0,4.8-1.7,5.7-3.8l16.9-40.8C305.5,753.3,306.2,751.6,306.2,751.6
			C306.2,751.6,306.2,751.6,306.2,751.6C306.2,751.6,306.2,751.6,306.2,751.6z"/>
		<path class="st5" d="M321.1,755.7v40.2c0,2.3,1.8,4.1,4.1,4.1h3.4c2.3,0,4.1-1.8,4.1-4.1v-40.2c0-2.3,1.9-4.1,4.1-4.1H317
			C319.2,751.6,321.1,753.4,321.1,755.7z"/>
	</g>
	<g>
		<path class="st3" d="M445.5,748.7l-43.2-43.2l-45-45L327,630.2c0,0-33.2-35.5-47-46.3c-9.6-7.5-22.8-12.2-35.8-12.2
			c-32.3,0-58.5,26.2-58.5,58.5c0,67,54.3,121.4,121.4,121.4h72.7h64.5C446.5,751.6,447.1,750.3,445.5,748.7z"/>
	</g>
	<ellipse class="st5" cx="234.4" cy="621.5" rx="14.6" ry="14.6"/>
	<g>
		<path class="st5" d="M298.7,643.3c-10.5,9.7-17,23.6-17,39.1c0,29.5,23.9,53.4,53.4,53.4c0.1,0,0.1,0,0.1,0c0.2,0,2.2,0,4.4,0
			h64.5c2.3,0,2.8-1.3,1.2-2.9c0,0-79.5-79.5-88.2-88.2C308.5,635.9,301.7,640.5,298.7,643.3z"/>
	</g>
	<path class="st5" d="M180,487.2c-0.5-1.9-2.5-3-4.3-2.5l-12.4,3.3c-1.9,0.5-5,1.3-6.9,1.8L156,490c-1.9,0.5-3,2.5-2.5,4.3l3.4,12.8
		c0.5,1.9,1.3,5,1.8,6.9l6.6,24.5c0.5,1.9-0.6,3.1-2.5,2.7c0,0-3.9-0.9-7.8,0.2c-9.7,2.6-15.5,12.6-12.9,22.3
		c2.6,9.7,12.6,15.5,22.3,12.9c7.2-1.9,12.2-7.9,13.3-14.8c0.3-2.1,0.2-2.8,0.2-2.8c-0.2-1.9-0.4-3.5-0.4-3.5c0,0-0.4-1.6-0.9-3.4
		l-11-41.2c-0.5-1.9,0.6-3.8,2.5-4.3l12.4-3.3c1.9-0.5,3-2.5,2.5-4.3L180,487.2z"/>
</g>
</svg>
