<?xml version="1.0" encoding="utf-8"?>
<!-- Generator: Adobe Illustrator 16.0.0, SVG Export Plug-In . SVG Version: 6.00 Build 0)  -->
<!DOCTYPE svg PUBLIC "-//W3C//DTD SVG 1.1//EN" "http://www.w3.org/Graphics/SVG/1.1/DTD/svg11.dtd">
<svg version="1.1" xmlns="http://www.w3.org/2000/svg" xmlns:xlink="http://www.w3.org/1999/xlink" x="0px" y="0px" width="1012px"
	 height="588px" viewBox="0 0 1012 588" enable-background="new 0 0 1012 588" xml:space="preserve">
<g id="Lager_2" display="none">
	<rect display="inline" fill="#009FE4" width="1012" height="588"/>
</g>
<g id="Lager_1" display="none">
	<rect x="368.143" y="430.763" display="inline" fill="#FFFFFF" width="333.743" height="108.979"/>
	<g display="inline">
		<g>
			<path fill="#994A17" d="M887.774,373.399c-7.692,7.767-18.325,18.462-32.996,33.13c-3.224,3.226-6.703,2.116-6.703-2.441
				c0-3.688,0-112.165,0-153.086c-7.95-3.807-16.251-9.418-16.251-9.418c-1.818-1.229-4.245-0.702-5.41,1.15
				c0,0-5.94,9.585-11.145,15.109c-0.638,0.663-1.291,1.302-1.93,1.947c0,14.057,0,29.956,0,31.28c0,3.673-3.05,4.814-6.163,1.717
				c-6.192-6.201-11.7-11.733-16.648-16.689c-6.18,3.017-12.771,5.34-19.667,6.8c6.833,6.864,14.957,15.021,24.615,24.672
				c10.009,10.034,11.717,19.37,11.717,36.522c0,0,0,237.284,0,239.48c0,2.195,0.687,4.43,4.071,4.43c3.367,0,34.08,0,36.777,0
				s3.944-1.74,3.944-4.43c0-2.705,0-122.9,0-122.9c0-17.138,1.692-26.484,11.7-36.507c17.001-16.994,29.276-29.333,37.978-38.081
				C896.492,382.481,891.814,378.213,887.774,373.399z"/>
		</g>
		<path fill="#AEC912" d="M1012,328.279c0,38.831-31.479,70.301-70.318,70.301c-38.821,0-70.3-31.47-70.3-70.301
			c0-38.83,31.479-70.318,70.3-70.318C980.521,257.961,1012,289.449,1012,328.279z"/>
		<path fill="#AEC912" d="M899.206,89.288c-2.124-0.559-4.088-2.794-4.375-4.974c0,0-2.459-18.469-6.784-28.455
			c-13.791-31.814-45.463-54.066-82.354-54.066c-49.549,0-89.728,40.163-89.728,89.728c0,10.033,3.735,24.807,3.735,24.807
			c0.526,2.131-0.623,4.693-2.57,5.715c0,0-14.879,7.766-22.381,14.765c-16.736,15.596-27.201,37.825-27.201,62.503
			c0,47.196,38.265,85.459,85.467,85.459c24.551,0,46.66-10.36,62.255-26.93c5.204-5.523,11.145-15.109,11.145-15.109
			c1.165-1.852,3.592-2.379,5.41-1.15c0,0,12.292,8.317,21.263,11.55c9.02,3.232,18.742,5.003,28.861,5.003
			c47.22,0,85.484-38.264,85.484-85.458c0-30.674-16.172-57.564-40.436-72.641C917.531,94.156,899.206,89.288,899.206,89.288z"/>
	</g>
	<g display="inline">
		<g>
			<path fill="#D1DE83" d="M546.539,432.718c-9.37-4.677-15.739-13.648-16.435-30.513c-0.047-0.958-0.063-1.988-0.063-3.097
				c0,0-16.521,3.2-28.925-9.211c-10.313-10.313-8.876-18.533-13.825-29.691c-6.106-13.736-18.933-17.921-28.749-17.8
				c0,0,0.909-10.982-4.008-20.083c-6.041-11.172-17.719-11.396-21.502-11.396s-14.623,1.316-21.494,12.435
				c-5.443,8.787-4.006,19.044-4.006,19.044c-9.811-0.121-22.644,4.063-28.75,17.8c-4.957,11.158-3.521,19.379-13.816,29.691
				c-12.428,12.411-28.941,9.211-28.941,9.211c0,16.146-4.806,25.579-12.404,31.078v7.313v143.079c0,5.402,2.491,7.422,7.487,7.422
				h215.742V432.861L546.539,432.718z M426.839,522.75c0,1.013-0.829,1.861-1.851,1.861H401.25c-1.006,0-1.836-0.849-1.836-1.861
				v-23.736c0-1.006,0.83-1.861,1.836-1.861h23.738c1.021,0,1.851,0.855,1.851,1.861V522.75z M426.839,482.938
				c0,1.014-0.829,1.829-1.851,1.829H401.25c-1.006,0-1.836-0.815-1.836-1.829v-23.737c0-1.021,0.83-1.853,1.836-1.853h23.738
				c1.021,0,1.851,0.831,1.851,1.853V482.938z M466.652,522.75c0,1.013-0.832,1.861-1.853,1.861h-23.722
				c-1.014,0-1.852-0.849-1.852-1.861v-23.736c0-1.006,0.838-1.861,1.852-1.861H464.8c1.021,0,1.853,0.855,1.853,1.861V522.75z
				 M466.652,482.938c0,1.014-0.832,1.829-1.853,1.829h-23.722c-1.014,0-1.852-0.815-1.852-1.829v-23.737
				c0-1.021,0.838-1.853,1.852-1.853H464.8c1.021,0,1.853,0.831,1.853,1.853V482.938z"/>
		</g>
		<g>
			<path fill="#206F33" d="M783.36,397.336c-0.016-0.04-0.047-0.089-0.079-0.113c-0.112-0.205-0.287-0.396-0.416-0.598
				c-0.415-0.606-0.845-1.172-1.276-1.7l-123.875-145.52c-4.692-5.499-14.462-10.032-21.702-10.032c0,0-38.934,0-48.056,0
				c-7.766,0-9.482-4.51-9.482-10.728c0-2.745,0-13.537,0-24.75c0-0.43,0.127-1.31,1.213-1.31c1.094,0,4.406,0,4.406,0
				c3.191,0,5.803-2.609,5.803-5.802V173.78c0-3.194-2.611-5.803-5.803-5.803h-73.638c-3.193,0-5.812,2.609-5.812,5.803v23.003
				c0,3.192,2.618,5.802,5.812,5.802c0,0,3.855,0,4.709,0c0.86,0,1.189,0.934,1.189,1.389c0,11.542,0,22.716,0,25.494
				c0,6.217-1.333,9.905-10.449,9.905c-9.114,0-59.381,0-59.381,0c-3.354,0-7.257,1.021-10.952,2.602l137.188,161.171
				c0.974,0.982,2.107,1.813,4.718,1.813h206.985c0.256-0.83,0.447-1.708,0.447-2.635
				C784.909,400.512,784.319,398.893,783.36,397.336z"/>
		</g>
		<g>
			<path fill="#AEC912" d="M577.477,404.959c-2.626,0-3.76-0.848-4.741-1.828c-1.008-1.006-137.164-161.156-137.164-161.156
				c-4.246,1.844-8.221,4.468-10.728,7.414l-61.937,72.777l-61.81,72.632h0.008c-1.62,2.043-2.675,4.149-2.675,6.608
				c0,2.194,0.814,4.183,2.139,5.73l23.051,23.05c7.598-5.499,12.404-14.933,12.404-31.078c0,0,16.514,3.2,28.941-9.211
				c10.295-10.313,8.859-18.533,13.816-29.691c6.107-13.736,18.94-17.921,28.75-17.8c0,0-1.438-10.257,4.006-19.044
				c6.871-11.118,17.711-12.435,21.494-12.435s15.461,0.224,21.502,11.396c4.917,9.101,4.008,20.083,4.008,20.083
				c9.816-0.121,22.643,4.063,28.749,17.8c4.949,11.158,3.512,19.379,13.825,29.691c12.403,12.411,28.925,9.211,28.925,9.211
				c0,18.899,6.562,28.669,16.497,33.609l0.312,0.144V588h207.25c4.117,0,6.768-2.459,6.768-7.599c0,0,0-147.453,0-148.952
				c0-1.493,0.894-2.33,0.894-2.33l20.721-20.721c0.911-0.98,1.58-2.14,1.979-3.439
				C784.462,404.959,580.103,404.959,577.477,404.959z M648.296,522.75c0,1.013-0.83,1.861-1.835,1.861h-23.745
				c-1.013,0-1.845-0.849-1.845-1.861v-23.736c0-1.006,0.832-1.861,1.845-1.861h23.745c1.005,0,1.835,0.855,1.835,1.861V522.75z
				 M648.296,482.938c0,1.014-0.83,1.829-1.835,1.829h-23.745c-1.013,0-1.845-0.815-1.845-1.829v-23.737
				c0-1.021,0.832-1.853,1.845-1.853h23.745c1.005,0,1.835,0.831,1.835,1.853V482.938z M688.11,522.75
				c0,1.013-0.833,1.861-1.838,1.861h-23.728c-1.016,0-1.846-0.849-1.846-1.861v-23.736c0-1.006,0.83-1.861,1.846-1.861h23.728
				c1.005,0,1.838,0.855,1.838,1.861V522.75z M688.11,482.938c0,1.014-0.833,1.829-1.838,1.829h-23.728
				c-1.016,0-1.846-0.815-1.846-1.829v-23.737c0-1.021,0.83-1.853,1.846-1.853h23.728c1.005,0,1.838,0.831,1.838,1.853V482.938z"/>
		</g>
	</g>
	<path display="inline" fill="#FFFFFF" d="M213.473,170.393c-8.076-26.694-32.852-46.134-62.181-46.134
		c-33.309,0-60.75,25.069-64.523,57.362c-0.275,2.367-1.431,7.088-6.179,8.547c-24.483,7.547-42.649,29.729-42.649,56.633
		c0,32.537,26.377,58.914,58.924,58.914c24.528,0,86.879,0,112.386,0c35.556,0,64.378-28.821,64.378-64.377
		c0-30.816-21.693-56.393-50.57-62.885C215.269,176.703,214.148,172.621,213.473,170.393z"/>
	<path display="inline" fill="#FFFFFF" d="M430.596,47.184C424.61,27.404,406.252,13,384.519,13
		c-24.681,0-45.014,18.576-47.811,42.504c-0.203,1.754-1.06,5.253-4.578,6.333c-18.141,5.593-31.603,22.029-31.603,41.965
		c0,24.109,19.545,43.654,43.662,43.654c18.174,0,64.377,0,83.277,0c26.347,0,47.703-21.356,47.703-47.703
		c0-22.834-16.074-41.786-37.473-46.597C431.926,51.86,431.097,48.836,430.596,47.184z"/>
</g>
<g id="Lager_3">
	<path fill="#FFFFFF" d="M797.984,85.108c-5.86-19.371-23.84-33.478-45.123-33.478c-24.171,0-44.084,18.191-46.822,41.625
		c-0.2,1.718-1.039,5.144-4.484,6.201c-17.767,5.478-30.949,21.574-30.949,41.097c0,23.612,19.141,42.754,42.76,42.754
		c17.799,0,63.045,0,81.556,0c25.802,0,46.717-20.915,46.717-46.717c0-22.363-15.741-40.924-36.697-45.633
		C799.288,89.688,798.475,86.726,797.984,85.108z"/>
	<g>
		<g>
			<path fill="#FDCA09" d="M597.277,530.609c-0.158,0-0.251,0.012-0.251,0.012L597.277,530.609z"/>
			<g>
				<path fill="#994A17" d="M723.111,503.695c-65.772,0-148.328,0-171.636,0c-13.251,0-18.392,3.759-24.49,11.239l-10.208,12.456
					c70.286-3.173,177.484-8.185,245.627-11.392C751.259,508.249,737.721,503.695,723.111,503.695z"/>
			</g>
		</g>
		<path fill="#FDF5B3" d="M447.574,472.686l152.354-368.887c0,0,3.044-7.375,5.538-13.381c2.071-4.969,5.753-4.271,8.499-3.604
			c3.897,0.954,9.705,4.098,18.801,10.337c32.063,21.984,105.065,69.899,157.241,172.309
			c36.479,71.574,42.525,143.628,34.277,195.956c-1.369,8.733-7.937,12.995-16.159,12.995c-8.225,0-172.275,0-172.275,0
			c-6.889,0-8.762-4.403-7.17-11.191c5.666-24.163,26.363-120.789,16.853-207.5c-8.587-78.381-24.187-130.077-33.254-154.362
			c-0.58-1.568-0.936-2.306-1.44-3.653c-0.884-2.387-3.792-2.293-3.792,1.358c0,41.559,0,369.05,0,369.05
			c0,3.465-2.828,6.299-6.286,6.299H451.244C447.79,478.41,446.134,475.834,447.574,472.686z"/>
		<path fill="#FAB70F" d="M450.366,530.246l-10.367,0.363c-0.156,0-0.256,0.012-0.256,0.012c-5.825,0.187-9.606,5.022-8.39,10.723
			c0,0,2.084,10.419,3.999,20.065c3.699,18.742,12.531,25.017,38.836,25.017h257.989c37.89,0,56.473-5.057,78.728-27.1
			c13.844-13.72,21.821-29.243,24.25-34.874c2.44-5.631,2.909-12.081-8.669-11.497C814.914,513.541,489.612,528.888,450.366,530.246
			z"/>
	</g>
	<path fill="#FFFFFF" d="M414.175,77.345c0.102-0.739,0.081-1.499,0.081-2.261c0-18.715-15.183-33.894-33.907-33.894
		c-5.496,0-10.519,1.666-15.263,3.658c-4.608,1.93-6.825-0.005-8.002-1.347c-9.603-10.944-23.688-17.858-39.393-17.858
		c-28.946,0-52.415,23.471-52.415,52.42c0,2.316,0.191,4.593,0.455,6.838c0.681,5.762-2.548,6.603-4.253,7.355
		c-16.728,7.362-28.414,24.082-28.414,43.533c0,26.247,21.278,47.52,47.535,47.52c26.252,0,85.184,0,113.866,0
		c28.69,0,51.939-23.257,51.939-51.932c0-19.91-11.211-37.202-27.662-45.917C416.986,84.53,413.357,83.287,414.175,77.345z"/>
	<path fill="#C8E6FA" d="M1000.938,588c0,0-11-0.063-40.938-20.5c-35.929-24.527-66.5-27.5-103,0s-69.5,23.785-97.5,1.019
		s-67.647-26.912-102.5,0c-33,25.481-65,26.019-94.5,0s-74.5-24.481-104,0s-67.5,22.767-96,0s-77.5-22.481-104.5,0
		s-70.5,25.519-97.5,0s-75.074-23.314-103.5,0C31.417,589.501,0,588,0,588l16.208,0.042l975.667-0.104l9.422,0.031"/>
</g>
<g id="Lager_4" display="none">
	<g display="inline">
		<g>
			<path fill="#994916" d="M574.146,461.312c6.436-28.339-11.733-44.997-7.826-81.171c0-33.379,37.315-49.542,67.966-49.542
				c18.964,0,53.782,7.948,71.235,7.948c11.929,0,33.7,2.634,53.722-8.186c1.704-0.915,3.303-1.975,4.885-3.099
				c0.07,0.142,0.132,0.22,0.132,0.22s1.573-1.802,11.921-1.802c10.356,0,22.366-3.055,30.138-14.714
				c7.354-11.011,15.766-14.035,29.8-14.467c9.912-0.306,17.498-1.295,24.915-4.805c10.438-4.937,13.057-6.074,26.114-4.95
				c13.048,1.124,16.876-1.353,22.054-6.755c3.688-3.844,10.1-4.947,13.493-5.27c0.612-0.04,1.234-0.075,1.848-0.122
				c0.266-0.009,0.417-0.009,0.417-0.009c-0.019-0.006-0.036-0.013-0.053-0.021c2.45-0.185,4.885-0.398,7.38-0.638
				c9.816-0.948,15.349-2.779,15.768,1.526c0.417,4.307-5.419,7.001-10.038,10.497c-0.497,0.375-0.969,0.737-1.43,1.094
				c-0.009-0.002-0.009-0.013-0.009-0.013c-0.125,0.113-0.267,0.224-0.417,0.337c-0.037,0.026-0.063,0.055-0.107,0.087
				c-2.575,1.991-7.595,4.486-7.238,12.255c0.541,11.847,1.34,18.382,1.988,21.49c0.463,2.203,1.813,3.889,3.546,4.852
				c0.408,3.273,0.799,6.449,1.171,9.278c1.421,9.672,2.212,16.271,3.5,25.498c1.884,13.525-1.944,17.995-11.654,23.496
				c-6.448,3.657-12.372,1.261-15.773-1.01c-4.69-3.136-6.733-7.008-5.997-11.27c0.729-4.264-1.073-7.544-6.545-13.819
				c-4.867-5.598-9.149-8.073-14.745-15.041c-6.289-7.86-13.67-10.145-22.002-2.182c-9.166,8.896-13.004,21.253-18.457,48.765
				c-4.485,22.674-11.841,40.877-24.914,54.739c-1.324,1.407-1.191,2.793-1.094,3.513c1.333,9.423,3.349,20.918,6.201,30.733
				c6.075,20.864,15.526,49.819,25.802,65.24c11.21,16.822,14.808,25.429,18.2,36.034c1.759,5.48,0.87,7.969-4.441,7.969
				c-5.302,0-12.239,0-18.306,0c-6.076,0-9.104-0.383-10.242-6.831c-1.146-6.449,1.511-7.208,1.893-11.379
				c0.373-4.175-0.382-6.447-5.312-9.858c-4.931-3.415-6.946-6.821-10.748-15.923c-3.792-9.099-7.869-23.666-14.158-36.043
				c-2.691-5.299-8.188-15.975-13.323-25.918c-0.764-1.471-1.466-2.958-2.257-4.356c-0.719-1.29-1.261-0.473-1.518,0
				c-5.517,9.805-10.188,21.006-13.981,32.553c-7.968,24.274-9.113,30.102-3.028,39.823c4.111,6.583,8.171,12.44,12.204,24.076
				c3.659,10.548,3.643,13.856-1.599,13.856c-10.241,0-14.781,0-18.965,0c-4.165,0-6.82-0.766-8.713-6.07
				c-1.9-5.309,0-8.729,1.138-12.898c1.137-4.17-1.138-7.208-6.449-10.619c-5.313-3.415-8.146-8.389-6.556-16.582
				c2.034-10.508,5.801-20.209,9.584-35.006c3.793-14.789,7.612-32.358,10.056-43.958c2.469-11.716-3.599-11.788-10.056-11.788
				c-6.439,0-21.858,0.831-34.25,0.064c-18.884-1.174-29.772-4.758-44.216-7.765c-6.271-1.306-11.662-2.567-16.229-0.632
				c-4.672,1.99-9.726,10.198-13.376,16.149c-7.204,11.769-12.116,19.105-12.116,28.587c0,9.482,3.225,15.118,12.879,26.643
				c11.388,13.591,15.244,19.688,18.37,28.272c1.287,3.482,2.238,7.595,2.238,14.452c0,5.693-1.51,16.112-4.921,21.797
				c-3.411,5.689-7.391,13.573-13.893,6.418c-6.839-7.533-7.141-9.171-10.925-14.482c-3.801-5.313-2.887-9.158,1.209-12.801
				c5.15-4.592,7.887-10.44,0.443-18.51c-6.432-6.964-21.149-23.946-29.427-32.843c-5.091-5.476-8.729-9.943-9.436-15.361
				c-0.071-0.507-0.133-1.484-1.483-0.373c-2.212,1.838-4.104,3.441-5.596,4.521c-11.015,7.967-18.441,12.293-18.441,27.376
				c0,5.787,0,12.062,0,15.92c0,8.719,0.792,16.148,6.827,22.939c6.133,6.875,7.968,12.511,9.859,18.581
				c1.9,6.067,0.765,7.969-4.166,7.969c-4.929,0-10.907,0-18.483,0c-7.586,0-8.426-5.761-8.78-14.799
				c-0.443-11.271-7.586-11.572-7.586-30.155c0-18.59,0-32.048,0-46.081C551.766,482.93,570.18,478.774,574.146,461.312z"/>
		</g>
		<g>
			<path fill="#FFE57E" d="M557.819,349.131c4.956,0,7.479-0.096,12.268-0.096c8.108,0,13.842-2.947,18.053-5.761
				c0.089-0.058,0.194-0.113,0.279-0.166c-11.135,7.054-19.447,17.139-21.563,30.321c-1.883-0.026-3.438-0.058-4.383-0.058
				c-9.037,0-16.298,4.543-16.298,20.061c0,18.21,12.815,30.973,12.815,55.63c0,22.02-14.858,35.729-36.607,35.729
				c-6.808,0-9.594-2.723-9.594-9.57c0-18.157,0-51.403,0-69.233C512.79,368.467,531.479,349.131,557.819,349.131z"/>
		</g>
		<path fill="#FFE57E" d="M936.576,287.035c-2.346,2.087-8.137,4.354-7.763,12.679c0.541,11.847,1.34,18.382,1.988,21.49
			c0.951,4.543,5.677,6.91,9.78,5.203c4.005-1.673,6.689-6.604,4.139-14.196C941.781,303.504,936.576,287.035,936.576,287.035z"/>
		<path fill="#FFE57E" d="M924.958,274.59c0,0-10.579,0-15.758,5.4c-5.178,5.403-9.006,7.879-22.054,6.755
			c-13.058-1.124-15.677,0.013-26.114,4.95c-7.417,3.51-15.003,4.499-24.915,4.805c-14.034,0.432-22.445,3.456-29.8,14.467
			c-7.771,11.659-19.781,14.714-30.138,14.714c-10.348,0-11.921,1.802-11.921,1.802s-1.802-2.25,1.352-6.979
			c3.144-4.723,12.373-13.149,18.901-19.899c6.527-6.753,16.005-15.615,29.577-23.966c11.236-6.913,25.351-11.833,39.305-12.959
			c13.954-1.128,28.468-0.748,40.166,1.727C905.266,267.881,918.66,272.112,924.958,274.59z"/>
		<path fill="#FFE57E" d="M912.362,321.439c0.382,3.973,3.918,6.88,7.88,6.496c3.969-0.381,6.875-3.913,6.492-7.882
			s-3.909-6.875-7.878-6.49C914.886,313.945,911.981,317.476,912.362,321.439z"/>
	</g>
	<g display="inline">
		<g>
			<rect x="199.72" y="472.101" fill="#FFE57E" width="95.653" height="19.321"/>
			<rect x="199.72" y="414.144" fill="#FFE57E" width="95.653" height="19.324"/>
			<path fill="#FFE57E" d="M107.571,530.055c-1.321,0-2.408-1.087-2.408-2.416v-1.455v-30.172v-2.183
				c0-1.329,1.087-2.407,2.408-2.407h37.023v-19.321h-37.023c-1.321,0-2.408-1.087-2.408-2.407V452.6v-16.726
				c0-1.32,1.087-2.406,2.408-2.406h37.023v-19.324h-37.023c-1.321,0-2.408-1.081-2.408-2.402v-80.359
				c0-1.657-1.356-3.016-3.009-3.016H88.861c-1.653,0-3.009,1.358-3.009,3.016v234.289c0,1.661-1.356,3.019-3.018,3.019h-9.404
				c-1.653,0-3.009,1.347-3.009,3.018v13.284c0,1.661,1.356,3.009,3.009,3.009h44.157c1.652,0,3.009-1.348,3.009-3.009v-13.284
				c0-1.671-1.357-3.018-3.009-3.018h-9.405c-1.662,0-3.018-1.357-3.018-3.019v-13.888c0-1.329,1.087-2.416,2.408-2.416h37.023
				v-19.313H107.571z"/>
			<rect x="199.72" y="530.055" fill="#FFE57E" width="95.653" height="19.313"/>
			<path fill="#FFE57E" d="M421.656,568.689h-9.405c-1.652,0-3.009-1.357-3.009-3.019V331.382c0-1.657-1.356-3.016-3.018-3.016
				h-13.285c-1.652,0-3.018,1.358-3.018,3.016v80.359c0,1.321-1.078,2.402-2.399,2.402h-37.033v19.324h37.033
				c1.321,0,2.399,1.086,2.399,2.406V452.6v17.094c0,1.32-1.078,2.407-2.399,2.407h-37.033v19.321h37.033
				c1.321,0,2.399,1.078,2.399,2.407v2.183v30.172v1.455c0,1.329-1.078,2.416-2.399,2.416h-37.033v19.313h37.033
				c1.321,0,2.399,1.087,2.399,2.416v13.888c0,1.661-1.347,3.019-3.009,3.019h-9.404c-1.653,0-3.009,1.347-3.009,3.018v13.284
				c0,1.661,1.356,3.009,3.009,3.009h44.148c1.653,0,3.018-1.348,3.018-3.009v-13.284
				C424.674,570.036,423.31,568.689,421.656,568.689z"/>
		</g>
		<g>
			<rect x="144.594" y="530.055" fill="#994916" width="55.125" height="19.313"/>
			<rect x="295.373" y="530.055" fill="#994916" width="55.117" height="19.313"/>
		</g>
		<g>
			<rect x="144.594" y="472.101" fill="#994916" width="55.125" height="19.321"/>
			<rect x="295.373" y="472.101" fill="#994916" width="55.117" height="19.321"/>
		</g>
		<g>
			<rect x="144.594" y="414.144" fill="#994916" width="55.125" height="19.324"/>
			<rect x="295.373" y="414.144" fill="#994916" width="55.117" height="19.324"/>
		</g>
	</g>
	<path display="inline" fill="#FFFFFF" d="M737.987,59.466c-5.86-19.371-23.84-33.478-45.123-33.478
		c-24.171,0-44.084,18.191-46.822,41.625c-0.2,1.718-1.039,5.144-4.484,6.201c-17.767,5.478-30.949,21.574-30.949,41.097
		c0,23.612,19.141,42.754,42.76,42.754c17.799,0,63.045,0,81.556,0c25.802,0,46.717-20.915,46.717-46.717
		c0-22.363-15.741-40.924-36.697-45.633C739.291,64.045,738.478,61.083,737.987,59.466z"/>
	<path display="inline" fill="#FFFFFF" d="M429.382,52.702c0.102-0.739,0.082-1.499,0.082-2.261
		c0-18.715-15.184-33.894-33.908-33.894c-5.496,0-10.518,1.666-15.262,3.658c-4.609,1.93-6.826-0.005-8.002-1.347
		C362.688,7.914,348.603,1,332.899,1c-28.947,0-52.416,23.471-52.416,52.42c0,2.316,0.19,4.593,0.454,6.838
		c0.682,5.762-2.548,6.603-4.252,7.355c-16.729,7.362-28.414,24.082-28.414,43.533c0,26.247,21.278,47.52,47.536,47.52
		c26.252,0,85.184,0,113.865,0c28.691,0,51.939-23.257,51.939-51.932c0-19.91-11.211-37.202-27.662-45.917
		C432.194,59.887,428.565,58.645,429.382,52.702z"/>
</g>
<g id="Lager_5" display="none">
	<path display="inline" fill="#7DC7EF" d="M476.256,588V472.382l-39.602-43.15c-2.983-3.25-8.11-3.25-11.094,0l-38.329,41.766
		l-78.609-85.654c-2.984-3.252-8.11-3.252-11.094,0L171.69,522.462l-49.224-53.639c-2.982-3.248-8.109-3.248-11.094,0L2,588H476.256
		z"/>
	<path display="inline" fill="#FFFFFF" d="M470.473,207.885c-8.076-26.694-32.852-46.133-62.181-46.133
		c-33.309,0-60.75,25.069-64.523,57.362c-0.275,2.368-1.431,7.089-6.179,8.547c-24.483,7.547-42.649,29.729-42.649,56.633
		c0,32.537,26.377,58.914,58.924,58.914c24.528,0,86.879,0,112.386,0c35.556,0,64.378-28.82,64.378-64.376
		c0-30.817-21.693-56.393-50.57-62.885C472.27,214.195,471.148,210.114,470.473,207.885z"/>
	<path display="inline" fill="#FFFFFF" d="M687.596,84.677c-5.985-19.78-24.344-34.184-46.077-34.184
		c-24.681,0-45.014,18.576-47.811,42.504c-0.203,1.754-1.06,5.253-4.578,6.333c-18.141,5.593-31.603,22.029-31.603,41.965
		c0,24.109,19.545,43.654,43.662,43.654c18.174,0,64.377,0,83.277,0c26.347,0,47.703-21.356,47.703-47.703
		c0-22.834-16.074-41.787-37.473-46.597C688.926,89.353,688.097,86.329,687.596,84.677z"/>
	<g display="inline">
		<g>
			<path fill="#FAB714" d="M564.146,209.931c-1.207,0.604-2.302,1.442-2.977,2.381l-69.648,97.979l-69.648,97.984
				c-1.286,1.805-2.335,5.084-2.335,7.303v169.195c0,2.201,1.811,4.012,4.027,4.012h279.897c1.109,0,2.565,0,4.021,0V411.557
				L564.146,209.931z"/>
			<path fill="#FFFFFF" d="M498.859,528.006c0,0.984-0.793,1.77-1.765,1.77h-22.8c-0.971,0-1.77-0.785-1.77-1.77v-22.801
				c0-0.957,0.799-1.771,1.77-1.771h22.8c0.972,0,1.765,0.814,1.765,1.771V528.006z"/>
			<path fill="#FFFFFF" d="M498.859,489.764c0,0.984-0.793,1.771-1.765,1.771h-22.8c-0.971,0-1.77-0.787-1.77-1.771v-22.787
				c0-0.984,0.799-1.771,1.77-1.771h22.8c0.972,0,1.765,0.787,1.765,1.771V489.764z"/>
			<path fill="#FFFFFF" d="M537.096,528.006c0,0.984-0.801,1.77-1.772,1.77h-22.787c-0.977,0-1.771-0.785-1.771-1.77v-22.801
				c0-0.957,0.795-1.771,1.771-1.771h22.787c0.972,0,1.772,0.814,1.772,1.771V528.006z"/>
			<path fill="#FFFFFF" d="M537.096,489.764c0,0.984-0.801,1.771-1.772,1.771h-22.787c-0.977,0-1.771-0.787-1.771-1.771v-22.787
				c0-0.984,0.795-1.771,1.771-1.771h22.787c0.972,0,1.772,0.787,1.772,1.771V489.764z"/>
			<path fill="#FFFFFF" d="M557.561,412.717c0,0.971-0.799,1.771-1.771,1.771h-22.787c-0.983,0-1.777-0.801-1.777-1.771V389.91
				c0-0.971,0.794-1.766,1.777-1.766h22.787c0.973,0,1.771,0.795,1.771,1.766V412.717z"/>
			<path fill="#FFFFFF" d="M557.561,374.469c0,0.982-0.799,1.777-1.771,1.777h-22.787c-0.983,0-1.777-0.795-1.777-1.777v-22.787
				c0-0.979,0.794-1.771,1.777-1.771h22.787c0.973,0,1.771,0.793,1.771,1.771V374.469z"/>
			<path fill="#FFFFFF" d="M569.459,351.682c0-0.979,0.801-1.771,1.771-1.771h22.793c0.979,0,1.778,0.793,1.778,1.771v22.787
				c0,0.982-0.8,1.777-1.778,1.777H571.23c-0.971,0-1.771-0.795-1.771-1.777V351.682z"/>
			<path fill="#FFFFFF" d="M569.459,412.717V389.91c0-0.971,0.801-1.766,1.771-1.766h22.793c0.979,0,1.778,0.795,1.778,1.766v22.807
				c0,0.971-0.8,1.771-1.778,1.771H571.23C570.26,414.488,569.459,413.688,569.459,412.717z"/>
			<path fill="#FFFFFF" d="M616.268,528.006c0,0.984-0.801,1.77-1.771,1.77h-22.8c-0.972,0-1.771-0.785-1.771-1.77v-22.801
				c0-0.957,0.8-1.771,1.771-1.771h22.8c0.97,0,1.771,0.814,1.771,1.771V528.006z"/>
			<path fill="#FFFFFF" d="M616.268,489.764c0,0.984-0.801,1.771-1.771,1.771h-22.8c-0.972,0-1.771-0.787-1.771-1.771v-22.787
				c0-0.984,0.8-1.771,1.771-1.771h22.8c0.97,0,1.771,0.787,1.771,1.771V489.764z"/>
			<path fill="#FFFFFF" d="M654.497,528.006c0,0.984-0.795,1.77-1.771,1.77h-22.788c-0.97,0-1.771-0.785-1.771-1.77v-22.801
				c0-0.957,0.802-1.771,1.771-1.771h22.788c0.976,0,1.771,0.814,1.771,1.771V528.006z"/>
			<path fill="#FFFFFF" d="M654.497,489.764c0,0.984-0.795,1.771-1.771,1.771h-22.788c-0.97,0-1.771-0.787-1.771-1.771v-22.787
				c0-0.984,0.802-1.771,1.771-1.771h22.788c0.976,0,1.771,0.787,1.771,1.771V489.764z"/>
		</g>
		<g>
			<path fill="#994A17" d="M783.731,411.557c2.216,0,5.075-1.477,6.362-3.281l67.313-94.705c1.286-1.811,3.384-1.811,4.671,0
				l67.325,94.705c1.287,1.805,4.146,3.281,6.351,3.281h30.214h45.26c-0.42-1.248-0.958-2.434-1.563-3.281l-69.661-97.984
				l-69.662-97.979c-1.284-1.804-4.144-3.286-6.361-3.286H567.531c-1.063,0-2.271,0.354-3.386,0.905l143.337,201.625h49.904H783.731
				z"/>
		</g>
		<g>
			<path fill="#FFE580" d="M1011.227,411.557h-45.26h-30.214c-2.204,0-5.063-1.477-6.351-3.281l-67.325-94.705
				c-1.287-1.811-3.385-1.811-4.671,0l-67.313,94.705c-1.287,1.805-4.146,3.281-6.362,3.281h-26.345h-49.904v177.229
				c1.465,0,2.927,0,4.029,0h296.461c2.217,0,4.027-1.811,4.027-4.012V415.578C1012,414.396,1011.699,412.939,1011.227,411.557z"/>
			<path fill="#FFFFFF" d="M795.08,528.006c0,0.984-0.789,1.77-1.76,1.77h-22.8c-0.972,0-1.771-0.785-1.771-1.77v-22.801
				c0-0.957,0.8-1.771,1.771-1.771h22.8c0.971,0,1.76,0.814,1.76,1.771V528.006z"/>
			<path fill="#FFFFFF" d="M795.08,489.764c0,0.984-0.789,1.771-1.76,1.771h-22.8c-0.972,0-1.771-0.787-1.771-1.771v-22.787
				c0-0.984,0.8-1.771,1.771-1.771h22.8c0.971,0,1.76,0.787,1.76,1.771V489.764z"/>
			<path fill="#FFFFFF" d="M833.319,528.006c0,0.984-0.786,1.77-1.771,1.77h-22.787c-0.971,0-1.771-0.785-1.771-1.77v-22.801
				c0-0.957,0.801-1.771,1.771-1.771h22.787c0.984,0,1.771,0.814,1.771,1.771V528.006z"/>
			<path fill="#FFFFFF" d="M833.319,489.764c0,0.984-0.786,1.771-1.771,1.771h-22.787c-0.971,0-1.771-0.787-1.771-1.771v-22.787
				c0-0.984,0.801-1.771,1.771-1.771h22.787c0.984,0,1.771,0.787,1.771,1.771V489.764z"/>
			<path fill="#FFFFFF" d="M912.492,528.006c0,0.984-0.799,1.77-1.77,1.77h-22.801c-0.972,0-1.759-0.785-1.759-1.77v-22.801
				c0-0.957,0.787-1.771,1.759-1.771h22.801c0.971,0,1.77,0.814,1.77,1.771V528.006z"/>
			<path fill="#FFFFFF" d="M912.492,489.764c0,0.984-0.799,1.771-1.77,1.771h-22.801c-0.972,0-1.759-0.787-1.759-1.771v-22.787
				c0-0.984,0.787-1.771,1.759-1.771h22.801c0.971,0,1.77,0.787,1.77,1.771V489.764z"/>
			<path fill="#FFFFFF" d="M950.734,528.006c0,0.984-0.801,1.77-1.771,1.77h-22.802c-0.97,0-1.771-0.785-1.771-1.77v-22.801
				c0-0.957,0.802-1.771,1.771-1.771h22.802c0.97,0,1.771,0.814,1.771,1.771V528.006z"/>
			<path fill="#FFFFFF" d="M950.734,489.764c0,0.984-0.801,1.771-1.771,1.771h-22.802c-0.97,0-1.771-0.787-1.771-1.771v-22.787
				c0-0.984,0.802-1.771,1.771-1.771h22.802c0.97,0,1.771,0.787,1.771,1.771V489.764z"/>
		</g>
	</g>
</g>
<g id="Lager_6" display="none">
	<path display="inline" fill="#7DC7EF" d="M4.416,588l240.757-276.79c3.87-4.44,10.519-4.44,14.388,0l163.207,187.278l63.841-73.261
		c3.867-4.436,10.516-4.436,14.386,0L642.846,588H4.416z"/>
	<path display="inline" fill="#FFFFFF" d="M565.295,62.006c-8.068-26.664-32.815-46.082-62.113-46.082
		c-33.27,0-60.68,25.041-64.45,57.297c-0.273,2.365-1.429,7.081-6.172,8.538c-24.454,7.54-42.601,29.695-42.601,56.57
		c0,32.5,26.347,58.848,58.858,58.848c24.499,0,86.782,0,112.262,0c35.516,0,64.305-28.79,64.305-64.305
		c0-30.782-21.668-56.33-50.515-62.815C567.089,68.31,565.971,64.233,565.295,62.006z"/>
	<g display="inline">
		<path fill-rule="evenodd" clip-rule="evenodd" fill="#0A4682" d="M599.817,498.266c24.778,0,44.872,20.085,44.872,44.867
			c0,24.783-20.094,44.867-44.872,44.867c-24.776,0-44.861-20.084-44.861-44.867C554.956,518.351,575.041,498.266,599.817,498.266z"
			/>
		<path fill-rule="evenodd" clip-rule="evenodd" fill="#FFFFFF" d="M577.388,543.133c0,12.392,10.042,22.438,22.43,22.438
			c12.39,0,22.435-10.047,22.435-22.438s-10.045-22.43-22.435-22.43C587.43,520.703,577.388,530.741,577.388,543.133z"/>
		<path fill-rule="evenodd" clip-rule="evenodd" fill="#0A4682" d="M919.938,498.266c24.777,0,44.871,20.085,44.871,44.867
			c0,24.783-20.094,44.867-44.871,44.867c-24.773,0-44.864-20.084-44.864-44.867C875.074,518.351,895.165,498.266,919.938,498.266z"
			/>
		<path fill-rule="evenodd" clip-rule="evenodd" fill="#FFFFFF" d="M897.509,543.133c0,12.392,10.042,22.438,22.43,22.438
			c12.391,0,22.437-10.047,22.437-22.438s-10.046-22.43-22.437-22.43C907.551,520.703,897.509,530.741,897.509,543.133z"/>
		<g>
			<path fill="#FFB900" d="M533.464,453.312c15.31-18.275,24.143-27.837,45.437-50.022c36.756-38.292,45.972-51.771,101.82-51.771
				c53.932,0,65.934,0,78.344,0c37.229,0,55.152,13.79,73.769,32.406c12.067,12.061,19.653,19.646,29.646,29.646
				c10.005,9.988,15.884,12.614,38.904,14.473c44.013,3.56,66.393,13.83,79.823,34.616c-6.053,4.22-10.021,11.241-10.021,19.188
				c0,12.372,9.595,22.478,21.753,23.344c0.02,8.325-0.963,16.855-3.343,24.052c-2.017,6.1-5.645,9.426-5.645,9.426
				c-4.678,4.484-9.659,1.73-9.854-2.977c0,0,0,0-0.723-3.55c-5.088-24.851-27.079-43.545-53.437-43.545
				c-30.118,0-54.536,24.413-54.536,54.535c0,6.605-2.976,9.017-10.262,9.017H664.618c-6.054,0-9.498-1.419-9.989-9.288
				c0,0-0.618-6.857-1.284-10.263c-4.911-25.083-27.009-44.001-53.527-44.001c-26.053,0-47.848,18.267-53.258,42.698
				c-0.835,3.813-1.082,7.996-1.082,7.996c-0.526,5.924-4.955,7.78-10.385,5.864c0,0-9.142-2.461-16.592-9.746
				c-8.116-7.937-10.83-18.937-10.83-29.946C507.671,481.255,519.078,470.518,533.464,453.312z"/>
			<path fill="#FFE57E" d="M971.186,481.848c0-7.947,3.969-14.969,10.021-19.188c2.657,4.104,4.978,8.615,7.03,13.587
				c2.805,6.779,4.667,17.682,4.701,28.945C980.78,504.325,971.186,494.22,971.186,481.848z"/>
		</g>
		<path fill="#FFFFFF" d="M722.261,386.561c0-6.051,4.954-11.012,11.011-11.012l40.096,0.079c13.281,0,23.85,5.396,31.509,13.062
			c0,0,20.289,22.049,27.516,30.308c7.222,8.257,5.086,19.22-6.701,19.22c-14.44,0-92.419,0-92.419,0
			c-6.057,0-11.011-4.95-11.011-11.011V386.561z"/>
		<path fill="#FFFFFF" d="M700.023,388.729c0-6.061-4.899-11.789-10.88-12.732c0,0-21.599-3.432-45.237,7.635
			c-28.645,13.423-33.958,43.712-33.958,43.712c-1.334,5.912,2.531,10.756,8.592,10.756l70.473,0.096
			c6.06,0.012,11.011-4.929,11.011-10.989V388.729z"/>
	</g>
</g>
<g id="Lager_7" display="none">
	<path display="inline" fill="#7DC7EF" d="M4.416,588.489l240.757-276.79c3.87-4.44,10.519-4.44,14.388,0l163.207,187.278
		l63.841-73.261c3.867-4.436,10.516-4.436,14.386,0l141.851,162.772H4.416z"/>
	<path display="inline" fill="#FFFFFF" d="M602.461,51.006c-8.068-26.664-32.814-46.082-62.113-46.082
		c-33.27,0-60.679,25.041-64.45,57.297c-0.273,2.365-1.429,7.081-6.172,8.538c-24.454,7.54-42.601,29.695-42.601,56.57
		c0,32.5,26.347,58.848,58.858,58.848c24.5,0,86.783,0,112.261,0c35.516,0,64.305-28.79,64.305-64.305
		c0-30.782-21.668-56.33-50.514-62.815C604.256,57.31,603.137,53.233,602.461,51.006z"/>
	<g display="inline">
		<path fill="#E6007E" d="M703.085,567.747c0,11.197-9.063,20.267-20.254,20.267c-11.191,0-20.281-9.069-20.281-20.267
			c0-11.191,9.09-20.269,20.281-20.269C694.021,547.479,703.085,556.556,703.085,567.747z"/>
		<path fill="#B0CB0B" d="M944.365,269.986c9.146-14.231,14.177-31.293,14.177-49.467c0-51.662-41.891-93.541-93.546-93.541
			c-12.724,0-24.813,2.622-35.894,7.153c-4.766,1.95-7.93-0.608-9.125-2.152c-22.256-28.582-56.962-46.98-95.977-46.98
			c-67.157,0-121.604,54.44-121.604,121.602c0,21.787,5.747,42.234,15.792,59.918c0.786,1.388,2.086,4.634-1.133,8.129
			c-16.993,18.403-26.016,43.789-26.016,70.799c0,60.43,49.005,109.426,109.433,109.426c28.558,0,54.406-11.086,74.011-28.848
			c3.868-3.502,7.267-1.028,8.87,0.421c19.424,17.658,45.224,28.427,73.546,28.427c60.43,0,109.434-48.996,109.434-109.426
			c0-24.619-8.137-47.333-21.855-65.61C943.303,278.276,941.327,274.724,944.365,269.986z"/>
		<path fill="#E6007E" d="M917.966,393.159c0,11.204-9.077,20.267-20.283,20.267c-11.189,0-20.267-9.063-20.267-20.267
			c0-11.191,9.077-20.269,20.267-20.269C908.889,372.891,917.966,381.968,917.966,393.159z"/>
		<path fill="#E6007E" d="M690.54,381.886c0,11.198-9.063,20.273-20.254,20.273c-11.204,0-20.281-9.075-20.281-20.273
			c0-11.19,9.077-20.268,20.281-20.268C681.478,361.618,690.54,370.695,690.54,381.886z"/>
		<path fill="#E6007E" d="M682.734,218.381c0,11.194-9.077,20.271-20.269,20.271c-11.19,0-20.267-9.077-20.267-20.271
			c0-11.191,9.076-20.267,20.267-20.267C673.657,198.114,682.734,207.19,682.734,218.381z"/>
		<path fill="#E6007E" d="M807.999,241.223c0,11.189-9.063,20.267-20.252,20.267c-11.206,0-20.281-9.077-20.281-20.267
			c0-11.206,9.075-20.271,20.281-20.271C798.937,220.951,807.999,230.017,807.999,241.223z"/>
		<path fill="#E6007E" d="M903.085,194.936c0,11.195-9.077,20.264-20.267,20.264c-11.191,0-20.269-9.069-20.269-20.264
			c0-11.197,9.077-20.267,20.269-20.267C894.008,174.669,903.085,183.739,903.085,194.936z"/>
		<path fill="#E6007E" d="M747.777,147.259c0,11.194-9.075,20.269-20.267,20.269c-11.204,0-20.281-9.074-20.281-20.269
			c0-11.197,9.077-20.271,20.281-20.271C738.702,126.987,747.777,136.062,747.777,147.259z"/>
		<path fill="#E6007E" d="M728.146,300.954c0,11.197-9.075,20.267-20.267,20.267s-20.267-9.069-20.267-20.267
			c0-11.191,9.075-20.269,20.267-20.269S728.146,289.763,728.146,300.954z"/>
		<path fill="#E6007E" d="M889.739,302.591c0,11.19-9.076,20.268-20.267,20.268c-11.191,0-20.267-9.077-20.267-20.268
			c0-11.19,9.075-20.267,20.267-20.267C880.663,282.324,889.739,291.401,889.739,302.591z"/>
		<path fill="#E6007E" d="M817.215,362.06c0,11.197-9.077,20.269-20.281,20.269c-11.191,0-20.254-9.071-20.254-20.269
			c0-11.189,9.063-20.267,20.254-20.267C808.138,341.793,817.215,350.87,817.215,362.06z"/>
		<g>
			<path fill="#994916" d="M886.286,450.846v104.867h-25.891V454.776c-1.16,0.041-2.322,0.097-3.496,0.097
				c-0.303,0-0.593-0.021-0.897-0.027v100.867h-3.675c-2.417,0-4.379,1.962-4.379,4.379c0,2.426,1.962,4.381,4.379,4.381h41.102
				c2.417,0,4.38-1.955,4.38-4.381c0-2.417-1.963-4.379-4.38-4.379h-2.75V449.527C889.229,449.995,887.765,450.438,886.286,450.846z
				"/>
			<path fill="#994916" d="M774.483,426.025c-6.757,6.129-14.285,11.439-22.395,15.792c0,13.539,0,26.339,0,28.052
				c0,3.801-2.916,3.952-5.596,1.266c-6.798-6.798-13.306-13.389-19.369-19.591c-6.023,1.526-12.241,2.527-18.61,2.997
				c10.335,10.625,21.968,22.492,33.807,34.325c8.358,8.365,9.769,16.158,9.769,30.471c0,0,0,63.316,0,65.527
				c0,2.218,1.229,3.149,3.303,3.149c2.071,0,53.865,0,56.864,0c3.012,0,3.314-1.838,3.314-3.496c0-1.664,0-32.632,0-32.632
				c0-14.307,1.437-19.121,9.761-27.521c10.887-11.011,18.678-18.492,22.035-21.677c1.176-1.119,1.271-2.308,0.43-3.164
				c-2.432-2.458-7.24-7.329-7.889-8.082c-0.871-1.016-2.072-0.904-3.053,0.042c-3.04,2.929-9.853,9.499-15.696,15.149
				c-2.729,2.646-5.588,2.527-5.588-1.271c0-2.12,0-32.335,0-58.599c-11.936-4.877-22.823-11.785-32.217-20.317
				C781.75,424.997,778.352,422.523,774.483,426.025z"/>
		</g>
	</g>
</g>
</svg>
