<svg xmlns="http://www.w3.org/2000/svg" preserveAspectRatio="xMaxYMax" viewBox="0 0 119.12 113.76" enable-background="new 0 0 119.12 113.76"><path fill="#FBD7E6" d="M111.04 24.585c0 21.875-19.854 39.61-39.554 39.61H42.922C19.217 64.194 0 83.437 0 107.176c0 2.24.172 4.437.5 6.583h118.62V0h-16.634c5.35 6.755 8.553 15.293 8.553 24.585z"/><path fill="#fff" d="M79.304 56.766c1.905 0 3.448-1.573 3.448-3.513 0-1.453-.878-2.67-2.1-3.234-.232-.108-.21-.302-.212-.353-.08-1.716-1.47-3.083-3.173-3.083-1.235 0-2.306.72-2.83 1.77-.048.093-.134.25-.38.152-.286-.114-.588-.2-.913-.2-1.232 0-2.23 1.017-2.23 2.272v.076c.003.272-.127.323-.203.35-1.14.4-1.96 1.503-1.96 2.8 0 1.636 1.3 2.962 2.906 2.962h7.648z"/><path fill="#E5087E" d="M104.98 80.737H92.84c-.28 0-.508-.228-.508-.508v-2.885c0-.28-.018-.737-.04-1.017 0 0-.024-.29-.14-.66-.392-1.25-1.402-2.23-2.67-2.58-.332-.093-.533-.107-.533-.107-.28-.017-.737-.034-1.018-.034h-8.14c-.28 0-.737.02-1.017.04 0 0-.29.023-.657.138-1.392.438-2.45 1.64-2.68 3.11l-.03.196c-.01.223-.016.635-.016.916v2.884c0 .28-.23.508-.508.508H62.732c-1.122 0-1.698.5-1.698 1.77v29.65c0 .998.6 1.603 1.578 1.603h42.515c1.02 0 1.56-.625 1.56-1.65V82.48c.002-1.147-.538-1.74-1.708-1.74zm-26.896-3.78c0-.836.506-1.318 1.368-1.318h8.724c.943 0 1.463.492 1.463 1.376v3.213c0 .28-.23.507-.51.507H78.593c-.28 0-.51-.228-.51-.508v-3.274z"/><path fill="#FDB813" d="M106.69 88.027H99.54v-1.112c0-1.315-1.067-2.38-2.383-2.38-1.315 0-2.38 1.065-2.38 2.38v1.112H72.943v-1.112c0-1.315-1.066-2.38-2.38-2.38-1.315 0-2.382 1.065-2.382 2.38v1.112h-7.147v1.24h7.147v1.11c0 1.318 1.067 2.383 2.38 2.383 1.316 0 2.382-1.065 2.382-2.382v-1.112H94.78v1.112c0 1.317 1.066 2.382 2.38 2.382 1.315 0 2.383-1.065 2.383-2.382v-1.112h7.147v-1.24z"/><path fill="#fff" d="M86.696 97.13c-.25 0-.453-.202-.453-.453v-3.853c0-.25-.204-.453-.453-.453h-3.855c-.25 0-.454.204-.454.454v3.853c0 .25-.203.454-.452.454h-3.855c-.25 0-.453.205-.453.455v3.855c0 .248.204.453.453.453h3.855c.248 0 .453.204.453.454v3.853c0 .25.205.454.455.454h3.855c.25 0 .453-.203.453-.454v-3.853c0-.25.204-.454.453-.454h3.854c.25 0 .453-.204.453-.453v-3.855c0-.25-.203-.454-.453-.454h-3.854z"/><path fill="#AFCB36" d="M30.052 92.227l1.575 4.756c-.653-.168-1.685-.422-2.408-.547-.14-.023-.47-.07-.75-.07s-.512.056-.63.095c-1.07.355-1.647 1.507-1.295 2.573.354 1.067 1.505 1.646 2.573 1.292.12-.04.338-.135.563-.3.228-.165.462-.4.56-.504.505-.53 1.182-1.35 1.605-1.875l2.67 8.063 1.194-.395-4.466-13.48-1.192.394zM41.497 92.227l-1.575 4.756c.653-.168 1.685-.422 2.408-.547.14-.023.47-.07.75-.07s.51.056.63.095c1.068.355 1.646 1.507 1.294 2.573-.353 1.067-1.505 1.646-2.573 1.292-.118-.04-.337-.135-.563-.3-.227-.165-.46-.4-.558-.504-.507-.53-1.183-1.35-1.607-1.875l-2.67 8.063-1.193-.395 4.464-13.48 1.193.394z"/><path fill="#EFA5C3" d="M28.694 89.902l.532-2.236 1.757 1.478.543-2.24c.024.02.046.042.07.06-1.04-1.074-3.385-2.883-3.598-3.006 0 0-.73 2.7-1.1 4.6l.028-.13 1.768 1.474z"/><path fill="#E5087E" d="M32.805 88.24c-.212-.29-.492-.587-.688-.784-.164-.174-.34-.338-.52-.49-.025-.02-.047-.042-.07-.06l-.544 2.238-1.757-1.48-.532 2.238-1.768-1.474-.03.13c-.048.21-.088.424-.113.638-.042.275-.09.696-.088 1.067.004.47.093.856.16 1.054.59 1.785 2.513 2.752 4.295 2.16.11-.035.215-.077.317-.123 1.576-.7 2.393-2.498 1.838-4.174-.064-.198-.222-.562-.5-.94"/><path fill="#AFCB36" d="M36.4 94.466V85.58h-1.257v25.38H36.4V95.162z"/><path fill="#E5087E" d="M34.152 81.622l1.597-2.596 1.605 2.596 1.614-2.595c.737 1.15 1.19 2.553 1.19 3.72 0 2.434-1.975 4.41-4.41 4.41-2.436 0-4.41-1.975-4.41-4.41 0-1.167.453-2.57 1.19-3.72l1.622 2.595z"/><path fill="#239DD8" d="M42.946 87.436c-.246.124-.516.392-.777.712-.02-.413-.078-.788-.202-1.035-.47-.93-1.607-1.307-2.54-.838-.93.47-1.306 1.608-.837 2.538.125.246.392.516.713.778-.413.02-.788.078-1.034.202-.932.47-1.308 1.608-.84 2.54.47.93 1.608 1.306 2.54.837.246-.125.515-.393.777-.713.02.413.077.788.2 1.034.47.932 1.608 1.31 2.54.84.93-.47 1.307-1.61.838-2.54-.124-.246-.39-.516-.712-.777.413-.02.788-.077 1.035-.2.93-.47 1.307-1.61.838-2.54-.47-.93-1.61-1.306-2.54-.837z"/><circle fill="#FDB813" cx="41.457" cy="90.303" r="1.634"/><path fill="#239DD8" d="M38.858 103.69c-.134-.096-.202-.302-.15-.458l.9-2.72c.052-.157-.04-.285-.204-.285h-7.26c-.163 0-.256.128-.204.284l.893 2.698c.052.156-.014.364-.146.462 0 0-.94.696-1.376 1.284-.68.918-1.082 2.054-1.082 3.284 0 3.05 2.472 5.522 5.522 5.522 3.05 0 5.522-2.473 5.522-5.522 0-1.453-.562-2.776-1.48-3.76-.346-.373-.934-.79-.934-.79z"/></svg>