<svg xmlns="http://www.w3.org/2000/svg" preserveAspectRatio="xMaxYMax" viewBox="0 0 141.514 80.396"><path fill="#E1ECB6" d="M141.514 80.396V25.03L119.412.94c-1.15-1.254-3.127-1.254-4.277 0L66.617 53.82 47.64 33.135c-1.15-1.254-3.128-1.254-4.278 0L0 80.395h141.514z"/><path fill="#FDB813" d="M84.052 40.952c-.126.063-.24.15-.31.248L76.49 51.4l-7.252 10.203c-.133.188-.243.53-.243.76v17.615c0 .23.188.418.42.418H98.974V61.944L84.05 40.952z"/><path fill="#fff" d="M77.254 74.068c0 .102-.083.184-.184.184h-2.374c-.1 0-.184-.082-.184-.184v-2.374c0-.1.083-.184.184-.184h2.374c.1 0 .184.085.184.184v2.374zM77.254 70.086c0 .102-.083.184-.184.184h-2.374c-.1 0-.184-.082-.184-.184v-2.372c0-.102.083-.184.184-.184h2.374c.1 0 .184.082.184.184v2.372zM81.235 74.068c0 .102-.083.184-.184.184H78.68c-.1 0-.184-.082-.184-.184v-2.374c0-.1.083-.184.184-.184h2.373c.102 0 .185.085.185.184v2.374zM81.235 70.086c0 .102-.083.184-.184.184H78.68c-.1 0-.184-.082-.184-.184v-2.372c0-.102.083-.184.184-.184h2.373c.102 0 .185.082.185.184v2.372zM83.366 62.065c0 .1-.083.184-.185.184H80.81c-.102 0-.185-.084-.185-.185V59.69c0-.1.083-.183.185-.183h2.373c.102 0 .186.083.186.184v2.375zM83.366 58.083c0 .102-.083.185-.185.185H80.81c-.102 0-.185-.083-.185-.185V55.71c0-.102.083-.185.185-.185h2.373c.102 0 .186.083.186.185v2.373zM84.605 55.71c0-.102.083-.185.184-.185h2.372c.1 0 .185.083.185.185v2.373c0 .102-.083.185-.185.185H84.79c-.102 0-.185-.083-.185-.185V55.71zM84.605 62.065V59.69c0-.1.083-.183.184-.183h2.372c.1 0 .185.083.185.184v2.375c0 .1-.083.184-.185.184H84.79c-.102 0-.185-.084-.185-.185zM89.478 74.068c0 .102-.083.184-.184.184H86.92c-.1 0-.184-.082-.184-.184v-2.374c0-.1.083-.184.184-.184h2.373c.1 0 .184.085.184.184v2.374zM89.478 70.086c0 .102-.083.184-.184.184H86.92c-.1 0-.184-.082-.184-.184v-2.372c0-.102.083-.184.184-.184h2.373c.1 0 .184.082.184.184v2.372zM93.458 74.068c0 .102-.083.184-.184.184H90.9c-.1 0-.184-.082-.184-.184v-2.374c0-.1.083-.184.185-.184h2.374c.1 0 .184.085.184.184v2.374zM93.458 70.086c0 .102-.083.184-.184.184H90.9c-.1 0-.184-.082-.184-.184v-2.372c0-.102.083-.184.185-.184h2.374c.1 0 .184.082.184.184v2.372z"/><path fill="#994B22" d="M106.913 61.944c.23 0 .53-.153.662-.34l7.008-9.86c.134-.19.352-.19.486 0l7.01 9.86c.133.187.43.34.66.34h7.858c-.044-.13-.1-.253-.163-.34L123.182 51.4l-7.252-10.2c-.134-.188-.432-.342-.662-.342H84.403c-.11 0-.236.037-.352.094l14.924 20.99H106.912z"/><path fill="#FEE57F" d="M130.598 61.944h-7.858c-.23 0-.527-.153-.66-.34l-7.01-9.86c-.135-.19-.353-.19-.487 0l-7.008 9.86c-.134.187-.432.34-.662.34H98.975v18.452H130.26c.23 0 .418-.188.418-.418V62.362c0-.122-.03-.274-.08-.418z"/><path fill="#fff" d="M108.094 74.068c0 .102-.082.184-.183.184h-2.373c-.1 0-.184-.082-.184-.184v-2.374c0-.1.083-.184.184-.184h2.374c.102 0 .184.085.184.184v2.374zM108.094 70.086c0 .102-.082.184-.183.184h-2.373c-.1 0-.184-.082-.184-.184v-2.372c0-.102.083-.184.184-.184h2.374c.102 0 .184.082.184.184v2.372zM112.076 74.068c0 .102-.082.184-.184.184h-2.372c-.1 0-.184-.082-.184-.184v-2.374c0-.1.083-.184.184-.184h2.372c.102 0 .184.085.184.184v2.374zM112.076 70.086c0 .102-.082.184-.184.184h-2.372c-.1 0-.184-.082-.184-.184v-2.372c0-.102.083-.184.184-.184h2.372c.102 0 .184.082.184.184v2.372zM120.32 74.068c0 .102-.084.184-.185.184h-2.374c-.1 0-.182-.082-.182-.184v-2.374c0-.1.082-.184.183-.184h2.375c.1 0 .184.085.184.184v2.374zM120.32 70.086c0 .102-.084.184-.185.184h-2.374c-.1 0-.182-.082-.182-.184v-2.372c0-.102.082-.184.183-.184h2.375c.1 0 .184.082.184.184v2.372zM124.3 74.068c0 .102-.083.184-.184.184h-2.374c-.1 0-.184-.082-.184-.184v-2.374c0-.1.083-.184.184-.184h2.374c.1 0 .184.085.184.184v2.374zM124.3 70.086c0 .102-.083.184-.184.184h-2.374c-.1 0-.184-.082-.184-.184v-2.372c0-.102.083-.184.184-.184h2.374c.1 0 .184.082.184.184v2.372z"/><path fill="#994B22" d="M20.982 79.925c0 .26.212.47.472.47h1.45c.26 0 .472-.21.472-.47v-4.552h-2.393v4.552z"/><path fill="#AFCB36" d="M30.837 74.952l-4.96-9.92c-.114-.23.002-.42.262-.42h2.96c.258 0 .375-.19.26-.42l-6.97-13.94c-.117-.233-.306-.233-.422 0l-6.97 13.94c-.116.23 0 .42.26.42h2.96c.26 0 .376.19.26.42l-4.96 9.92c-.114.23.003.42.262.42h16.795c.26 0 .378-.19.262-.42z"/><path fill="#994B22" d="M44.14 79.925c0 .26.21.47.47.47h1.45c.26 0 .472-.21.472-.47v-4.552H44.14v4.552z"/><path fill="#AFCB36" d="M54.05 74.928l-8.56-24.654c-.085-.245-.224-.245-.31 0l-8.56 24.654c-.085.245.058.444.317.444h16.797c.258 0 .4-.2.316-.444z"/><path fill="#fff" d="M114.183 26.708c.008-.082.02-.165.02-.25 0-.842-.685-1.525-1.53-1.525-.284 0-.543.087-.776.21-.07.036-.14.022-.142-.08 0-.018-.01-.122-.015-.155-.136-.994-.992-1.76-2.028-1.76-.575 0-1.106.226-1.466.617-.076.083-.17.126-.27.036-.515-.462-1.187-.76-1.935-.76-1.563 0-2.83 1.26-2.83 2.818 0 .295.045.58.13.846.004.016.01.03.015.047.015.046.026.106-.07.13-.763.188-1.332.864-1.332 1.678 0 .953.776 1.726 1.734 1.726h10.3c.96 0 1.735-.773 1.735-1.726 0-.86-.634-1.56-1.458-1.704-.088-.016-.09-.05-.08-.146z"/></svg>