<svg xmlns="http://www.w3.org/2000/svg" preserveAspectRatio="xMaxYMax" viewBox="0 0 108.258 113.76" enable-background="new 0 0 108.258 113.76"><path fill="#F7ECCE" d="M34.468 59.578h32.298c19.454 0 35.922 12.795 41.49 30.443V0H10.74C4.13 6.293 0 15.18 0 25.04c0 19.074 15.432 34.538 34.468 34.538z"/><path fill="#239DD8" d="M94.586 87.75l-.007-.06c-.083-.676-.62-1.213-1.296-1.296l-.06-.007c-.066 0-.337-.003-.602-.003h-1.706c-1.65 0-2.275-1.63-2.59-2.262-.307-.613-1.476-2.592-1.694-2.947-.885-1.438-1.62-2.43-1.165-4.047.49-1.74 1.865-2.993 3.5-3.41.286-.07.396-.083.396-.083.264-.03.387-.25.274-.49 0 0-.08-.166-.25-.45-.927-1.542-2.42-2.746-4.287-3.272-3.45-.97-7.016.702-8.543 3.804-.137.28-.19.42-.19.42-.095.248-.378.387-.63.308 0 0-.118-.036-.41-.118-1.807-.504-3.717-.8-5.695-.856-.23-.005-.464-.01-.697-.01-7.124 0-13.426 3.103-17.267 7.86-.247.305-1.033 1.46-1.318 1.665-.308.223-.557.272-.828.27-.204 0-.407-.028-.61-.07-.116-.024-.108-.207.007-.277 1.194-.742 1.935-2.125 1.825-3.542-.16-2.048-1.863-3.53-3.88-3.374-1.023.08-1.935.553-2.566 1.333-.498.614-.785 1.386-.84 2.232-.01.137-.107.342-.285.075-.206-.31-.436-.666-.623-1.09-.37-.842-.96-1.273-1.615-1.07-.828.256-.73 1.44-.5 2.085.832 2.316 2.356 3.246 4.043 3.8.172.057.298.163.342.216.19.23.394.444.614.64.632.56 1.615 1.173 3.03 1.42.185.033.557.08.348.657-.672 1.85-1.063 3.815-1.063 5.863 0 5.952 3.065 10.447 6.45 13.496l.477.418c.167.137.22.43.082.783l-1.134 2.714c-.438 1.058.07 2.28 1.127 2.72l4.268 1.767c1.058.44 2.282-.067 2.72-1.125 0 0 .767-1.82 1.005-2.404.1-.24.25-.31.464-.263l.162.036c1.325.285 3.535.516 5.11.544l.455.004c1.276 0 3.176-.115 4.268-.287l.187-.03c.27-.054.424.06.488.214l.934 2.23c.437 1.058 1.66 1.565 2.718 1.127l4.27-1.768c1.056-.438 1.563-1.662 1.125-2.72 0 0-.763-1.802-.942-2.253-.092-.234.034-.42.147-.5v-.003l.134-.1c.93-.705 2.286-1.88 3.263-2.96.225-.25.43-.495.606-.727C87.806 100.36 88.6 98 90.923 98h1.7c.264 0 .565-.005.668-.01l.09-.017c.592-.11 1.06-.573 1.18-1.16l.02-.097c.005-.11.01-.26.01-.333v-8.027c0-.268-.002-.54-.004-.606zm-47.218-7.32c-.72.378-1.3-.03-1.433-.58-.185-.756.158-1.64.943-1.856.73-.2 1.43.314 1.395 1.074-.028.636-.458 1.126-.905 1.36z"/><circle fill="#7FC8EF" cx="83.814" cy="85.63" r="1.493"/><path fill="#164882" d="M59.956 77.266c-.093-.278.05-.604.32-.72 0 0 .26-.115.644-.263 2.537-.98 5.296-1.496 8.067-1.496.222 0 .442.004.663.01.73.02 1.46.077 2.18.167.302.037.372.048.372.048.29.046.51.288.486.54l-.088.942c-.025.267-.283.452-.575.412 0 0-1.435-.194-2.43-.223-.2-.006-.404-.01-.607-.01-2.535 0-5.056.47-7.373 1.364-.415.16-.737.304-.737.304-.27.12-.565-.01-.658-.288l-.264-.786z"/><path fill="#FDB813" d="M68.25 65.58c-3.286-1.36-7.05.2-8.412 3.484-1.038 2.507-.374 5.293 1.458 7.078.565.55 1.242 1.006 2.015 1.328 1.83-.523 3.75-.796 5.677-.796.204 0 .406.003.608.01h.043c.64-.476 1.196-1.076 1.63-1.784.175-.286.33-.588.463-.908 1.363-3.286-.196-7.05-3.48-8.41z"/><path fill="#FEE57F" d="M67.906 66.41c-.678-.28-1.39-.423-2.12-.423-2.25 0-4.258 1.344-5.12 3.42-.566 1.368-.566 2.873 0 4.24.356.857.906 1.594 1.602 2.165.417.34.886.622 1.397.834.483.2.984.33 1.495.387.844-.16 1.703-.263 2.566-.315 1-.374 1.873-1.03 2.512-1.897.263-.356.49-.748.664-1.17 1.17-2.824-.175-6.07-2.996-7.24zm2.212 6.913c-.23.557-.56 1.05-.96 1.466-.866.898-2.073 1.43-3.376 1.43-.615 0-1.218-.12-1.792-.358-.236-.098-.46-.218-.674-.35-.83-.514-1.482-1.268-1.865-2.188-.478-1.158-.478-2.432 0-3.59.73-1.76 2.432-2.896 4.335-2.896.616 0 1.22.12 1.794.358 2.39.99 3.527 3.738 2.538 6.127zM64.1 72.037c-.215.647.053 1.313.736 1.596.62.256 1.293.045 1.565-.61.303-.73-.084-1.316-.684-1.565-.42-.173-.846-.147-1.153.003l-.874-.8 1.96-2.674 3.233 1.34-.396.955-2.494-1.033-.982 1.342c.365-.16.88-.116 1.3.057 1.173.486 1.72 1.565 1.205 2.804-.46 1.112-1.7 1.686-3.066 1.12-1.275-.528-1.8-1.737-1.487-2.696l1.137.163z"/><path fill="#FDB813" d="M14.568 85.777c-.835 1.466-.452 3.355.945 4.37 1.397 1.015 3.312.796 4.45-.45 1.136 1.246 3.05 1.465 4.448.45 1.396-1.014 1.78-2.904.946-4.37 1.536-.695 2.338-2.45 1.804-4.09-.534-1.643-2.212-2.59-3.864-2.25-.187-1.676-1.608-2.98-3.334-2.98s-3.148 1.304-3.334 2.98c-1.65-.34-3.33.607-3.865 2.25-.533 1.64.268 3.395 1.805 4.09z"/><circle fill="#FEE57F" cx="19.961" cy="84.276" r="2.481"/><path fill="#994B22" d="M26.23 100.438H13.69c-.835 0-1.513.677-1.513 1.513 0 .838.68 1.516 1.513 1.516h.202l1.266 9.52c.056.427.453.774.883.774h7.84c.43 0 .826-.347.882-.773l1.265-9.52h.202c.835 0 1.513-.678 1.513-1.516.002-.835-.677-1.512-1.513-1.512z"/><path fill="#AFCB36" d="M20.787 95.65c.746.48 1.928 1.22 2.777 1.676.165.088.554.285.904.398.35.113.662.14.827.14 1.48 0 2.676-1.195 2.676-2.672 0-1.473-1.196-2.672-2.675-2.672-.165 0-.476.028-.827.142-.35.114-.74.31-.904.397-.85.454-2.03 1.196-2.777 1.675v-4.38c-.303-.17-.583-.39-.826-.66-.242.27-.523.49-.825.66v4.38c-.745-.48-1.927-1.22-2.777-1.676-.164-.088-.553-.284-.904-.398-.35-.114-.662-.142-.827-.142-1.477 0-2.674 1.198-2.674 2.672 0 1.477 1.197 2.673 2.674 2.673.165 0 .478-.028.827-.14.35-.114.74-.31.904-.4.85-.453 2.032-1.196 2.777-1.675v4.788h1.65V95.65z"/><path fill="#fff" d="M48.27 48.667c.012-.122.03-.244.03-.37 0-1.247-1.01-2.257-2.255-2.257-.417 0-.798.128-1.14.31-.105.054-.206.033-.21-.117-.002-.028-.016-.18-.023-.23-.2-1.472-1.46-2.605-2.986-2.605-.847 0-1.63.334-2.16.913-.112.124-.25.188-.398.055-.758-.686-1.747-1.128-2.85-1.128-2.303 0-4.17 1.868-4.17 4.172 0 .436.067.856.192 1.25l.023.07c.022.068.038.156-.105.19-1.122.278-1.96 1.28-1.96 2.486 0 1.41 1.143 2.555 2.554 2.555h15.17c1.41 0 2.555-1.143 2.555-2.554 0-1.273-.934-2.308-2.147-2.523-.13-.023-.134-.07-.12-.216z"/></svg>