<?xml version="1.0" encoding="utf-8"?>
<!-- Generator: Adobe Illustrator 18.0.0, SVG Export Plug-In . SVG Version: 6.00 Build 0)  -->
<!DOCTYPE svg PUBLIC "-//W3C//DTD SVG 1.1//EN" "http://www.w3.org/Graphics/SVG/1.1/DTD/svg11.dtd">
<svg version="1.1" id="Layer_1" xmlns="http://www.w3.org/2000/svg" xmlns:xlink="http://www.w3.org/1999/xlink" x="0px" y="0px"
	 viewBox="0 0 153 277" enable-background="new 0 0 153 277" xml:space="preserve">
<g>
	<path fill="#8C005A" d="M126.309,0H26.688C12.012,0,0,12.012,0,26.694v223.611C0,264.993,12.012,277,26.688,277h99.621
		C140.986,277,153,264.993,153,250.306V26.694C153,12.012,140.986,0,126.309,0z"/>
	<path fill="#E6007E" d="M56.679,17.619h39.64c2.277,0,4.119,1.844,4.119,4.12c0,2.276-1.842,4.119-4.119,4.119h-39.64
		c-2.278,0-4.119-1.844-4.119-4.119C52.559,19.463,54.401,17.619,56.679,17.619z"/>
	<path fill="#E6007E" d="M76.499,266.001c-6.771,0-12.259-5.487-12.259-12.255c0-6.776,5.489-12.263,12.259-12.263
		c6.771,0,12.256,5.488,12.256,12.263C88.754,260.513,83.27,266.001,76.499,266.001z"/>
	<path fill="#E6007E" d="M138.215,223.579c0,3.672-2.999,6.68-6.674,6.68H21.454c-3.669,0-6.673-3.008-6.673-6.68V53.417
		c0-3.668,3.003-6.672,6.673-6.672H131.54c3.675,0,6.674,3.004,6.674,6.672V223.579z"/>
	<path fill="#F0A5C3" d="M116.875,121.9c0-0.008,0-0.016-0.004-0.024c-0.012-0.04-0.02-0.076-0.032-0.112
		c-2.191-9.503-9.686-16.587-19.534-17.015c-0.642-0.06-1.292-0.096-1.954-0.096c-7.528,0-14.159,3.872-18.172,9.779
		c-0.144,0.208-0.364,0.5-0.68,0.472c-0.326,0.028-0.546-0.264-0.688-0.472c-4.011-5.908-10.646-9.779-18.175-9.779
		c-0.658,0-1.308,0.036-1.956,0.096c-9.84,0.428-17.34,7.512-19.534,17.015c-0.01,0.036-0.018,0.072-0.028,0.112
		c0,0.008,0,0.016-0.002,0.024c-0.444,1.804-0.684,3.692-0.684,5.64c0,6.896,1.83,13.551,5.537,19.781
		c5.349,8.991,14.575,16.959,23.981,24.062c5.469,4.136,8.998,6.248,11.548,6.248c2.652,0,5.915-2.112,11.54-6.248
		c9.496-6.975,18.63-15.071,23.981-24.062c3.707-6.23,5.539-12.885,5.539-19.781C117.559,125.592,117.319,123.704,116.875,121.9z"/>
</g>
</svg>
