<?xml version="1.0" encoding="utf-8"?>
<!-- Generator: Adobe Illustrator 18.0.0, SVG Export Plug-In . SVG Version: 6.00 Build 0)  -->
<!DOCTYPE svg PUBLIC "-//W3C//DTD SVG 1.1//EN" "http://www.w3.org/Graphics/SVG/1.1/DTD/svg11.dtd">
<svg version="1.1" id="Layer_1" xmlns="http://www.w3.org/2000/svg" xmlns:xlink="http://www.w3.org/1999/xlink" x="0px" y="0px"
	 viewBox="0 0 912 521" enable-background="new 0 0 912 521" xml:space="preserve">
<path fill="#F1AF1D" d="M734.475,339.578c-5.418-5.905-14.731-5.905-20.149,0l-69.621,75.883l-142.78-155.622
	c-5.418-5.907-14.731-5.907-20.149,0L253.213,508.962l-89.407-97.451c-5.418-5.905-14.731-5.905-20.149,0L43.254,520.946h752.41
	L912,521L734.475,339.578z"/>
<g>
	<g>
		<path fill="#206F38" d="M38.244,368.957c-0.369,1.014-0.508,1.497-0.508,1.497c-0.493,1.741-1.861,3.636-3.039,4.201
			c-1.177,0.574-3.48,1.671-5.113,2.46l-13.093,6.299c-1.635,0.79-1.635,2.077,0,2.86l16.632,7.978
			c1.588,0.763,3.066,2.769,3.366,4.531c-0.651-4.552-1.007-9.201-1.007-13.933C35.478,379.271,36.457,373.921,38.244,368.957z"/>
		<path fill="#206F38" d="M132.111,482.184c-4.645-0.041-9.211-0.383-13.678-1.049c0.377,0.056,0.58,0.077,0.58,0.077
			c1.803,0.224,2.705,1.776,2.013,3.453l-13.788,33.286c-0.692,1.677,0.22,3.049,2.035,3.049h3.474c1.818,0,3.87-1.37,4.558-3.049
			l13.556-32.72C131.556,483.546,132.121,482.184,132.111,482.184c0,0-0.004,0-0.01,0
			C132.111,482.184,132.111,482.184,132.111,482.184z"/>
		<path fill="#206F38" d="M144.073,485.496v32.208c0,1.812,1.482,3.294,3.296,3.294h2.713c1.809,0,3.294-1.482,3.294-3.294v-32.208
			c0-1.818,1.486-3.294,3.3-3.294h-15.902C142.589,482.205,144.073,483.678,144.073,485.496z"/>
	</g>
	<g>
		<path fill="#AFCB36" d="M243.837,479.869l-34.664-34.664l-36.076-36.076l-24.282-24.282c0,0-26.661-28.492-37.701-37.162
			c-7.679-6.03-18.273-9.785-28.693-9.785c-25.928,0-46.945,21.022-46.945,46.945c0,53.764,43.585,97.356,97.352,97.356h58.271
			h51.764C244.683,482.205,245.116,481.148,243.837,479.869z"/>
	</g>
	<circle fill="#206F38" cx="74.568" cy="377.831" r="11.738"/>
	<g>
		<path fill="#206F38" d="M126.138,395.316c-8.397,7.802-13.653,18.953-13.653,31.321c0,23.637,19.16,42.802,42.798,42.802
			c0.116,0,0.116,0,0.116,0c0.133,0.006,1.733,0.006,3.544,0.006h51.771c1.812,0,2.247-1.049,0.964-2.328
			c0,0-63.755-63.755-70.736-70.732C133.96,389.4,128.536,393.086,126.138,395.316z"/>
	</g>
	<path fill="#206F38" d="M30.883,270.136c-0.404-1.513-1.975-2.419-3.488-2.013l-9.966,2.672c-1.515,0.406-3.99,1.07-5.503,1.476
		l-0.292,0.075c-1.511,0.406-2.421,1.975-2.013,3.488l2.761,10.306c0.408,1.513,1.067,3.992,1.476,5.503l5.265,19.645
		c0.408,1.517-0.512,2.475-2.04,2.133c0,0-3.151-0.692-6.258,0.141c-7.789,2.083-12.411,10.092-10.324,17.877
		c2.089,7.796,10.096,12.409,17.881,10.326c5.76-1.546,9.785-6.328,10.646-11.864c0.261-1.654,0.195-2.272,0.195-2.272
		c-0.17-1.557-0.301-2.831-0.292-2.831c0.012-0.004-0.315-1.244-0.719-2.755l-8.848-33.031c-0.406-1.509,0.5-3.082,2.013-3.488
		l9.97-2.672c1.513-0.404,2.419-1.979,2.013-3.488L30.883,270.136z"/>
</g>
<path fill="#FFFFFF" d="M491.624,44.068c0.102-0.987,0.253-1.982,0.253-3.008c0-10.115-8.2-18.313-18.315-18.313
	c-3.381,0-6.477,1.036-9.265,2.51c-0.842,0.446-1.669,0.274-1.704-0.943c-0.004-0.22-0.124-1.465-0.18-1.865
	c-1.623-11.939-11.858-21.14-24.241-21.14c-6.879,0-13.23,2.711-17.533,7.412c-0.91,0.995-2.035,1.515-3.231,0.433
	C411.256,3.59,403.22,0,394.268,0c-18.698,0-33.856,15.158-33.856,33.856c0,3.542,0.547,6.952,1.559,10.161
	c0.06,0.187,0.122,0.375,0.187,0.564c0.18,0.539,0.307,1.256-0.854,1.544c-9.108,2.251-15.914,10.372-15.914,20.161
	c0,11.452,9.282,20.733,20.731,20.733h123.164c11.452,0,20.734-9.28,20.734-20.733c0-10.326-7.58-18.723-17.432-20.468
	C491.545,45.631,491.503,45.243,491.624,44.068z"/>
<path fill="#FFFFFF" d="M116.122,192.224c0.054-0.535,0.137-1.076,0.137-1.631c0-5.491-4.45-9.941-9.941-9.941
	c-1.834,0-3.515,0.564-5.028,1.362c-0.456,0.243-0.906,0.149-0.924-0.512c-0.002-0.12-0.068-0.796-0.097-1.014
	c-0.881-6.481-6.436-11.475-13.158-11.475c-3.733,0-7.18,1.472-9.516,4.023c-0.493,0.541-1.105,0.823-1.754,0.234
	c-3.339-3.022-7.7-4.968-12.561-4.968c-10.15,0-18.377,8.227-18.377,18.377c0,1.923,0.296,3.774,0.846,5.516
	c0.033,0.102,0.066,0.203,0.102,0.305c0.097,0.292,0.166,0.682-0.464,0.839c-4.943,1.223-8.639,5.63-8.639,10.944
	c0,6.216,5.039,11.255,11.253,11.255h66.854c6.216,0,11.255-5.037,11.255-11.255c0-5.605-4.114-10.163-9.462-11.11
	C116.081,193.072,116.058,192.862,116.122,192.224z"/>
</svg>
