<?xml version="1.0" encoding="utf-8"?>
<!-- Generator: Adobe Illustrator 18.0.0, SVG Export Plug-In . SVG Version: 6.00 Build 0)  -->
<!DOCTYPE svg PUBLIC "-//W3C//DTD SVG 1.1//EN" "http://www.w3.org/Graphics/SVG/1.1/DTD/svg11.dtd">
<svg version="1.1" id="Layer_1" xmlns="http://www.w3.org/2000/svg" xmlns:xlink="http://www.w3.org/1999/xlink" x="0px" y="0px"
	 viewBox="0 0 449 305" enable-background="new 0 0 449 305" xml:space="preserve">
<g>
	<path fill="#D5EDF8" d="M422.968,150.361c-2.903-3.165-7.891-3.165-10.794,0l-37.296,40.665l-76.487-83.399
		c-2.903-3.165-7.891-3.165-10.794,0L165.157,241.133l-47.895-52.224c-2.903-3.164-7.891-3.164-10.794,0L0,305h449V178.745
		L422.968,150.361z"/>
	<g>
		<polyline fill="#994B22" points="367.349,305 367.349,283.46 356.033,283.46 356.033,305 		"/>
		<path fill="#AFCB36" d="M402.634,283.411l-23.451-46.937c-0.545-1.099,0.004-1.997,1.234-1.997h13.997
			c1.226,0,1.779-0.894,1.236-1.989l-32.963-65.964c-0.547-1.097-1.445-1.097-1.991,0l-32.959,65.964
			c-0.549,1.095,0.006,1.989,1.23,1.989h13.999c1.224,0,1.779,0.898,1.23,1.997l-23.451,46.937
			c-0.545,1.095,0.008,1.989,1.234,1.989h24.146h7.679h15.772h12.816h19.015C402.63,285.4,403.183,284.505,402.634,283.411z"/>
	</g>
	<path fill="#FFFFFF" d="M409.582,44.806c0.045-0.444,0.114-0.891,0.114-1.351c0-4.546-3.682-8.23-8.225-8.23
		c-1.519,0-2.91,0.466-4.161,1.128c-0.378,0.2-0.749,0.123-0.765-0.424c-0.002-0.099-0.056-0.659-0.081-0.839
		c-0.729-5.366-5.325-9.501-10.887-9.501c-3.089,0-5.941,1.218-7.874,3.331c-0.409,0.447-0.914,0.681-1.451,0.194
		C373.489,26.613,369.88,25,365.859,25c-8.398,0-15.205,6.812-15.205,15.215c0,1.591,0.246,3.124,0.7,4.566
		c0.027,0.084,0.055,0.168,0.084,0.253c0.081,0.242,0.138,0.565-0.384,0.694c-4.091,1.012-7.148,4.661-7.148,9.061
		c0,5.147,4.169,9.318,9.311,9.318h55.315c5.143,0,9.312-4.171,9.312-9.318c0-4.64-3.404-8.414-7.829-9.199
		C409.548,45.509,409.529,45.333,409.582,44.806z"/>
</g>
</svg>
