<?xml version="1.0" encoding="utf-8"?>
<!-- Generator: Adobe Illustrator 18.0.0, SVG Export Plug-In . SVG Version: 6.00 Build 0)  -->
<!DOCTYPE svg PUBLIC "-//W3C//DTD SVG 1.1//EN" "http://www.w3.org/Graphics/SVG/1.1/DTD/svg11.dtd">
<svg version="1.1" id="Layer_1" xmlns="http://www.w3.org/2000/svg" xmlns:xlink="http://www.w3.org/1999/xlink" x="0px" y="0px"
	 viewBox="0 0 912 513" enable-background="new 0 0 912 513" xml:space="preserve">
<path fill="#FFFFFF" d="M886.8,40.5c0.1-0.6,0.1-1.2,0.1-1.8c0-14.7-11.9-26.5-26.6-26.5c-4.3,0-8.2,1.3-12,2.9
	c-3.6,1.5-5.3,0-6.3-1.1c-7.5-8.6-18.6-14-30.8-14c-22.7,0-41,18.4-41,41.1c0,1.8,0.1,3.6,0.4,5.4c0.5,4.5-2,5.2-3.3,5.8
	c-13.1,5.8-22.3,18.9-22.3,34.1c0,20.6,16.7,37.2,37.2,37.2c20.6,0,66.7,0,89.2,0c22.5,0,40.7-18.2,40.7-40.7
	c0-15.6-8.8-29.1-21.7-36C889,46.1,886.1,45.1,886.8,40.5z"/>
<path fill="#E2F2FC" d="M912,513H256.9c9.7-14.9,102-156.6,158.8-244.4c23-35.7,40.3-62.4,43.6-68.2c12.1-20.6,26.7-38.3,47.4-38.3
	c20.6,0,35.1,19.5,46.7,37.7c9,14.1,24.9,38.9,44.2,68.6c11.1,17.2,24.6,38,39.2,60.4c1.7-2.6,3.4-5.2,5-7.7
	c18.5-28.6,32.2-50,34.9-54.6c9.7-16.5,21.4-30.6,37.9-30.6c16.5,0,28.1,15.6,37.3,30.2c0.5,0.8,17.7,27.2,40.6,62.6
	C836.1,396.1,900.8,495.8,912,513z"/>
<g>
	<path id="XMLID_121_" fill="#FFFFFF" d="M111.3,238.1C111.3,238.1,111.3,238.1,111.3,238.1c0-0.1,0-0.1,0-0.2
		c-3-13-13.2-22.7-26.7-23.2c-0.9-0.1-1.8-0.1-2.7-0.1c-10.3,0-19.3,5.3-24.8,13.4c-0.2,0.3-0.5,0.7-0.9,0.6c-0.4,0-0.7-0.4-0.9-0.6
		c-5.5-8.1-14.5-13.4-24.8-13.4c-0.9,0-1.8,0-2.7,0.1C14.2,215.3,4,224.9,1,237.9c0,0.1,0,0.1,0,0.2c0,0,0,0,0,0
		c-0.6,2.5-0.9,5-0.9,7.7c0,9.4,2.5,18.5,7.6,27c7.3,12.3,19.9,23.2,32.8,32.9c7.5,5.6,12.3,8.5,15.8,8.5c3.6,0,8.1-2.9,15.8-8.5
		c13-9.5,25.5-20.6,32.8-32.9c5.1-8.5,7.6-17.6,7.6-27C112.2,243.2,111.9,240.6,111.3,238.1z"/>
	<g id="XMLID_136_">
		<g id="XMLID_148_">
			<g>
				<path id="XMLID_28_" fill="#0A4682" d="M205.3,300.4c-0.5,1.4-0.7,2.1-0.7,2.1c-0.7,2.4-2.6,5.1-4.2,5.9
					c-1.6,0.8-4.9,2.3-7.1,3.4l-18.3,8.8c-2.3,1.1-2.3,2.9,0,4l23.2,11.1c2.2,1.1,4.3,3.9,4.7,6.3c-0.9-6.4-1.4-12.9-1.4-19.5
					C201.4,314.8,202.8,307.4,205.3,300.4z"/>
				<path id="XMLID_27_" fill="#009FE4" d="M336.5,458.7c-6.5,0-12.9-0.5-19.1-1.5c0.5,0.1,0.8,0.1,0.8,0.1c2.5,0.3,3.8,2.5,2.8,4.8
					l-19.3,46.5c-1,2.3,0.3,4.3,2.8,4.3h4.9c2.5,0,5.4-1.9,6.4-4.3l19-45.8C335.7,460.6,336.5,458.7,336.5,458.7
					C336.5,458.7,336.5,458.7,336.5,458.7C336.5,458.7,336.5,458.7,336.5,458.7z"/>
				<path id="XMLID_26_" fill="#009FE4" d="M353.2,463.4v45c0,2.5,2.1,4.6,4.6,4.6h3.8c2.5,0,4.6-2.1,4.6-4.6v-45
					c0-2.5,2.1-4.6,4.6-4.6h-22.2C351.1,458.8,353.2,460.8,353.2,463.4z"/>
			</g>
		</g>
		<g id="XMLID_146_">
			<path id="XMLID_147_" fill="#009FE4" d="M492.7,455.5L444.2,407l-50.4-50.4l-33.9-33.9c0,0-37.3-39.8-52.7-52
				c-10.7-8.4-25.5-13.7-40.1-13.7c-36.3,0-65.6,29.4-65.6,65.6c0,75.2,60.9,136.1,136.1,136.1H419h72.4
				C493.9,458.8,494.5,457.3,492.7,455.5z"/>
		</g>
		<circle id="XMLID_143_" fill="#0A4682" cx="256" cy="312.8" r="16.4"/>
		<g id="XMLID_138_">
			<g>
				<path id="XMLID_10_" fill="#0A4682" d="M328.1,337.3c-11.7,10.9-19.1,26.5-19.1,43.8c0,33,26.8,59.8,59.8,59.8
					c0.2,0,0.2,0,0.2,0c0.2,0,2.4,0,5,0h72.4c2.5,0,3.1-1.5,1.4-3.3c0,0-89.1-89.1-98.9-98.9C339.1,329,331.5,334.2,328.1,337.3z"/>
			</g>
		</g>
		<path id="XMLID_137_" fill="#009FE4" d="M195,162.3c-0.6-2.1-2.8-3.4-4.9-2.8l-13.9,3.7c-2.1,0.6-5.6,1.5-7.7,2.1l-0.4,0.1
			c-2.1,0.6-3.4,2.8-2.8,4.9l3.9,14.4c0.6,2.1,1.5,5.6,2.1,7.7l7.4,27.5c0.6,2.1-0.7,3.5-2.9,3c0,0-4.4-1-8.7,0.2
			c-10.9,2.9-17.4,14.1-14.4,25c2.9,10.9,14.1,17.4,25,14.4c8.1-2.2,13.7-8.8,14.9-16.6c0.4-2.3,0.3-3.2,0.3-3.2
			c-0.2-2.2-0.4-4-0.4-4c0,0-0.4-1.7-1-3.9l-12.4-46.2c-0.6-2.1,0.7-4.3,2.8-4.9l13.9-3.7c2.1-0.6,3.4-2.8,2.8-4.9L195,162.3z"/>
	</g>
</g>
</svg>
