<?xml version="1.0" encoding="utf-8"?>
<!-- Generator: Adobe Illustrator 18.0.0, SVG Export Plug-In . SVG Version: 6.00 Build 0)  -->
<!DOCTYPE svg PUBLIC "-//W3C//DTD SVG 1.1//EN" "http://www.w3.org/Graphics/SVG/1.1/DTD/svg11.dtd">
<svg version="1.1" id="Layer_1" xmlns="http://www.w3.org/2000/svg" xmlns:xlink="http://www.w3.org/1999/xlink" x="0px" y="0px"
	 viewBox="0 0 912 513" enable-background="new 0 0 912 513" xml:space="preserve">
<path fill="#FFFFFF" d="M870.3,99.8c0.2-2.2,0.6-4.5,0.6-6.8c0-22.9-18.6-41.5-41.5-41.5c-7.7,0-14.7,2.4-21,5.7
	c-1.9,1-3.8,0.6-3.9-2.1c0-0.5-0.3-3.3-0.4-4.2C800.5,23.8,777.3,3,749.2,3c-15.6,0-30,6.1-39.7,16.8c-2.1,2.3-4.6,3.4-7.3,1
	C688.3,8.1,670,0,649.8,0c-42.4,0-76.7,34.3-76.7,76.7c0,8,1.2,15.7,3.5,23c0.1,0.4,0.3,0.8,0.4,1.3c0.4,1.2,0.7,2.8-1.9,3.5
	c-20.6,5.1-36.1,23.5-36.1,45.7c0,25.9,21,47,47,47h279c25.9,0,47-21,47-47c0-23.4-17.2-42.4-39.5-46.4
	C870.1,103.4,870.1,102.5,870.3,99.8z"/>
<g>
	<g>
		<path fill="#009FE4" d="M620.7,149.7h-10.1v12.7c2.9,1.4,4.9,4.3,4.9,7.7c0,4.7-3.8,8.6-8.6,8.6s-8.6-3.8-8.6-8.6
			c0-3.4,2-6.3,4.9-7.7v-12.7h-19.5v12.7c2.9,1.4,4.9,4.3,4.9,7.7c0,4.7-3.8,8.6-8.6,8.6s-8.6-3.8-8.6-8.6c0-3.4,2-6.3,4.9-7.7
			v-12.7h-19.5v12.7c2.9,1.4,4.9,4.3,4.9,7.7c0,4.7-3.8,8.6-8.6,8.6c-4.7,0-8.6-3.8-8.6-8.6c0-3.4,2-6.3,4.9-7.7v-12.7h-19.5v12.7
			c2.9,1.4,4.9,4.3,4.9,7.7c0,4.7-3.8,8.6-8.6,8.6c-4.7,0-8.6-3.8-8.6-8.6c0-3.4,2-6.3,4.9-7.7v-12.7h-19.5v12.7
			c2.9,1.4,4.9,4.3,4.9,7.7c0,4.7-3.8,8.6-8.6,8.6c-4.7,0-8.6-3.8-8.6-8.6c0-3.4,2-6.3,4.9-7.7v-12.7h-19.5v12.7
			c2.9,1.4,4.9,4.3,4.9,7.7c0,4.7-3.8,8.6-8.6,8.6c-4.7,0-8.6-3.8-8.6-8.6c0-3.4,2-6.3,4.9-7.7v-12.7h-19.5v12.7
			c2.9,1.4,4.9,4.3,4.9,7.7c0,4.7-3.8,8.6-8.6,8.6c-4.7,0-8.6-3.8-8.6-8.6c0-3.4,2-6.3,4.9-7.7v-12.7h-19.5v12.7
			c2.9,1.4,4.9,4.3,4.9,7.7c0,4.7-3.8,8.6-8.6,8.6c-4.7,0-8.6-3.8-8.6-8.6c0-3.4,2-6.3,4.9-7.7v-12.7h-19.5v12.7
			c2.9,1.4,4.9,4.3,4.9,7.7c0,4.7-3.8,8.6-8.6,8.6c-4.7,0-8.6-3.8-8.6-8.6c0-3.4,2-6.3,4.9-7.7v-12.7h-10.3c-3.9,0-7,3.2-7,7v14V492
			c0,11.6,9.5,21,21,21h215.5c11.6,0,21-9.5,21-21V170.7v-14C627.8,152.8,624.6,149.7,620.7,149.7z"/>
	</g>
	<g>
		<path fill="#C8E6FA" d="M554.7,313.8C554.7,313.8,554.7,313.8,554.7,313.8c0-0.1,0-0.1-0.1-0.2c-3-13.1-13.3-22.8-26.9-23.4
			c-0.9-0.1-1.8-0.1-2.7-0.1c-10.4,0-19.5,5.3-25,13.5c-0.2,0.3-0.5,0.7-0.9,0.6c-0.4,0-0.7-0.4-0.9-0.6c-5.5-8.1-14.7-13.5-25-13.5
			c-0.9,0-1.8,0-2.7,0.1c-13.6,0.6-23.9,10.3-26.9,23.4c0,0.1,0,0.1,0,0.2c0,0,0,0,0,0c-0.6,2.5-0.9,5.1-0.9,7.8
			c0,9.5,2.5,18.7,7.6,27.2c7.4,12.4,20.1,23.3,33,33.1c7.5,5.7,12.4,8.6,15.9,8.6c3.6,0,8.1-2.9,15.9-8.6
			c13.1-9.6,25.7-20.8,33-33.1c5.1-8.6,7.6-17.7,7.6-27.2C555.6,318.9,555.3,316.3,554.7,313.8z"/>
	</g>
	<g>
		<path fill="#C8E6FA" d="M394.9,162.4v-28.3c0-2.1-1.7-3.7-3.7-3.7c-2,0-3.7,1.7-3.7,3.7v28.3c-2.9,1.4-4.9,4.3-4.9,7.7
			c0,4.7,3.8,8.6,8.6,8.6c4.7,0,8.6-3.8,8.6-8.6C399.8,166.7,397.8,163.8,394.9,162.4z"/>
		<path fill="#C8E6FA" d="M421.9,162.4v-28.3c0-2.1-1.7-3.7-3.7-3.7c-2,0-3.7,1.7-3.7,3.7v28.3c-2.9,1.4-4.9,4.3-4.9,7.7
			c0,4.7,3.8,8.6,8.6,8.6c4.7,0,8.6-3.8,8.6-8.6C426.8,166.7,424.8,163.8,421.9,162.4z"/>
		<path fill="#C8E6FA" d="M448.9,162.4v-28.3c0-2.1-1.7-3.7-3.7-3.7c-2,0-3.7,1.7-3.7,3.7v28.3c-2.9,1.4-4.9,4.3-4.9,7.7
			c0,4.7,3.8,8.6,8.6,8.6c4.7,0,8.6-3.8,8.6-8.6C453.7,166.7,451.7,163.8,448.9,162.4z"/>
		<path fill="#C8E6FA" d="M475.8,162.4v-28.3c0-2.1-1.7-3.7-3.7-3.7c-2,0-3.7,1.7-3.7,3.7v28.3c-2.9,1.4-4.9,4.3-4.9,7.7
			c0,4.7,3.8,8.6,8.6,8.6c4.7,0,8.6-3.8,8.6-8.6C480.7,166.7,478.7,163.8,475.8,162.4z"/>
		<path fill="#C8E6FA" d="M502.8,162.4v-28.3c0-2.1-1.7-3.7-3.7-3.7c-2,0-3.7,1.7-3.7,3.7v28.3c-2.9,1.4-4.9,4.3-4.9,7.7
			c0,4.7,3.8,8.6,8.6,8.6c4.7,0,8.6-3.8,8.6-8.6C507.7,166.7,505.7,163.8,502.8,162.4z"/>
		<path fill="#C8E6FA" d="M529.8,162.4v-28.3c0-2.1-1.7-3.7-3.7-3.7c-2,0-3.7,1.7-3.7,3.7v28.3c-2.9,1.4-4.9,4.3-4.9,7.7
			c0,4.7,3.8,8.6,8.6,8.6c4.7,0,8.6-3.8,8.6-8.6C534.6,166.7,532.6,163.8,529.8,162.4z"/>
		<path fill="#C8E6FA" d="M556.7,162.4v-28.3c0-2.1-1.7-3.7-3.7-3.7c-2,0-3.7,1.7-3.7,3.7v28.3c-2.9,1.4-4.9,4.3-4.9,7.7
			c0,4.7,3.8,8.6,8.6,8.6c4.7,0,8.6-3.8,8.6-8.6C561.6,166.7,559.6,163.8,556.7,162.4z"/>
		<path fill="#C8E6FA" d="M583.7,162.4v-28.3c0-2.1-1.7-3.7-3.7-3.7c-2,0-3.7,1.7-3.7,3.7v28.3c-2.9,1.4-4.9,4.3-4.9,7.7
			c0,4.7,3.8,8.6,8.6,8.6s8.6-3.8,8.6-8.6C588.6,166.7,586.6,163.8,583.7,162.4z"/>
		<path fill="#C8E6FA" d="M610.7,162.4v-28.3c0-2.1-1.7-3.7-3.7-3.7c-2,0-3.7,1.7-3.7,3.7v28.3c-2.9,1.4-4.9,4.3-4.9,7.7
			c0,4.7,3.8,8.6,8.6,8.6s8.6-3.8,8.6-8.6C615.5,166.7,613.5,163.8,610.7,162.4z"/>
	</g>
	<path fill="#F0A5C3" d="M309.6,470.9h-14h-14v14v14c0,7.7,6.3,14,14,14h14c7.7,0,14-6.3,14-14v-14v-14H309.6z"/>
	<polygon fill="#FFB900" points="295,175 310.2,175 302.6,149.7 	"/>
	<g>
		<path fill="#FFB900" d="M323.6,219.7c0,3.9-3.1,7-7,7c-3.9,0-7-3.1-7-7c0,3.9-3.1,7-7,7c-3.9,0-7-3.1-7-7c0,3.9-3.1,7-7,7
			c-3.9,0-7-3.1-7-7v229.6h42.1L323.6,219.7L323.6,219.7z"/>
	</g>
	<rect x="281.5" y="449.4" fill="#FFE57E" width="42.1" height="21.6"/>
	<g>
		<path fill="#FFE57E" d="M323.6,219.7l-1.1-3.8L310.2,175H295l-12.3,40.9l-1.2,3.8c0,3.9,3.1,7,7,7c3.9,0,7-3.1,7-7
			c0,3.9,3.1,7,7,7c3.9,0,7-3.1,7-7c0,3.9,3.1,7,7,7C320.5,226.7,323.6,223.6,323.6,219.7L323.6,219.7L323.6,219.7z"/>
	</g>
</g>
</svg>
