<?xml version="1.0" encoding="utf-8"?>
<!-- Generator: Adobe Illustrator 18.0.0, SVG Export Plug-In . SVG Version: 6.00 Build 0)  -->
<!DOCTYPE svg PUBLIC "-//W3C//DTD SVG 1.1//EN" "http://www.w3.org/Graphics/SVG/1.1/DTD/svg11.dtd">
<svg version="1.1" id="Layer_1" xmlns="http://www.w3.org/2000/svg" xmlns:xlink="http://www.w3.org/1999/xlink" x="0px" y="0px"
	 viewBox="0 0 912 513" enable-background="new 0 0 912 513" xml:space="preserve">
<g>
	<g>
		<g>
			<path fill="#994916" d="M480.5,355.9c5.6,5.7,13.4,13.5,24.2,24.3c2.4,2.4,4.9,1.5,4.9-1.8c0-2.7,0-82.1,0-112.1
				c5.8-2.8,11.9-6.9,11.9-6.9c1.3-0.9,3.1-0.5,4,0.8c0,0,4.3,7,8.2,11.1c0.5,0.5,0.9,1,1.4,1.4c0,10.3,0,21.9,0,22.9
				c0,2.7,2.2,3.5,4.5,1.3c4.5-4.5,8.6-8.6,12.2-12.2c4.5,2.2,9.3,3.9,14.4,5c-5,5-11,11-18,18.1c-7.3,7.3-8.6,14.2-8.6,26.7
				c0,0,0,173.7,0,175.3c0,1.6-0.5,3.2-3,3.2s-25,0-26.9,0c-2,0-2.9-1.3-2.9-3.2c0-2,0-90,0-90c0-12.5-1.2-19.4-8.6-26.7
				c-12.4-12.4-21.4-21.5-27.8-27.9C474.2,362.5,477.6,359.4,480.5,355.9z"/>
		</g>
		<path fill="#B0CB0B" d="M389.6,322.9c0,28.4,23,51.5,51.5,51.5c28.4,0,51.5-23,51.5-51.5c0-28.4-23-51.5-51.5-51.5
			C412.6,271.4,389.6,294.4,389.6,322.9z"/>
		<path fill="#B0CB0B" d="M472.2,147.9c1.5-0.4,3-2.1,3.2-3.6c0,0,1.8-13.5,5-20.8c10.1-23.3,33.3-39.6,60.3-39.6
			c36.3,0,65.7,29.4,65.7,65.7c0,7.3-2.7,18.2-2.7,18.2c-0.4,1.6,0.5,3.4,1.9,4.2c0,0,10.9,5.7,16.4,10.8
			c12.3,11.4,19.9,27.7,19.9,45.8c0,34.6-28,62.6-62.6,62.6c-18,0-34.2-7.6-45.6-19.7c-3.8-4-8.2-11.1-8.2-11.1
			c-0.9-1.4-2.6-1.7-4-0.8c0,0-9,6.1-15.6,8.5c-6.6,2.4-13.7,3.7-21.1,3.7c-34.6,0-62.6-28-62.6-62.6c0-22.5,11.8-42.1,29.6-53.2
			C458.7,151.4,472.2,147.9,472.2,147.9z"/>
	</g>
	<g>
		<g>
			<path fill="#FFB900" d="M730.1,399.4V513h157.9c3.7,0,5.5-1.5,5.5-5.4V402.8v-5.4c-5.6-4-9.1-10.9-9.1-22.8
				c0,0-12.1,2.3-21.2-6.7c-7.5-7.5-6.5-13.6-10.1-21.7c-4.5-10.1-13.9-13.1-21-13c0,0,1.1-7.5-2.9-13.9c-5-8.1-13-9.1-15.7-9.1
				s-11.3,0.2-15.7,8.3c-3.6,6.7-2.9,14.7-2.9,14.7c-7.2-0.1-16.6,3-21,13c-3.6,8.2-2.6,14.2-10.1,21.7c-9.1,9.1-21.2,6.7-21.2,6.7
				c0,0.8,0,1.6,0,2.3c-0.5,12.3-5.2,18.9-12,22.3L730.1,399.4z M818,447.9c0-0.7,0.6-1.4,1.4-1.4h17.4c0.7,0,1.3,0.6,1.3,1.4v17.4
				c0,0.7-0.6,1.4-1.3,1.4h-17.4c-0.7,0-1.4-0.6-1.4-1.4V447.9z M818,418.7c0-0.7,0.6-1.4,1.4-1.4h17.4c0.7,0,1.3,0.6,1.3,1.4v17.4
				c0,0.7-0.6,1.3-1.3,1.3h-17.4c-0.7,0-1.4-0.6-1.4-1.3V418.7z M788.8,447.9c0-0.7,0.6-1.4,1.3-1.4h17.4c0.7,0,1.3,0.6,1.3,1.4
				v17.4c0,0.7-0.6,1.4-1.3,1.4h-17.4c-0.7,0-1.3-0.6-1.3-1.4V447.9z M788.8,418.7c0-0.7,0.6-1.4,1.3-1.4h17.4
				c0.7,0,1.3,0.6,1.3,1.4v17.4c0,0.7-0.6,1.3-1.3,1.3h-17.4c-0.7,0-1.3-0.6-1.3-1.3V418.7z"/>
		</g>
		<g>
			<path fill="#1E6E32" d="M557,373.4C557,373.4,557,373.3,557,373.4c0.1-0.2,0.3-0.4,0.4-0.5c0.3-0.4,0.6-0.9,0.9-1.2L649,265.1
				c3.4-4,10.6-7.3,15.9-7.3c0,0,28.5,0,35.2,0c5.7,0,6.9-3.3,6.9-7.9c0-2,0-9.9,0-18.1c0-0.3-0.1-1-0.9-1c-0.8,0-3.2,0-3.2,0
				c-2.3,0-4.3-1.9-4.3-4.2v-16.8c0-2.3,1.9-4.2,4.3-4.2h53.9c2.3,0,4.3,1.9,4.3,4.2v16.8c0,2.3-1.9,4.2-4.3,4.2c0,0-2.8,0-3.5,0
				c-0.6,0-0.9,0.7-0.9,1c0,8.4,0,16.6,0,18.7c0,4.6,1,7.3,7.7,7.3c6.7,0,43.5,0,43.5,0c2.5,0,5.3,0.7,8,1.9l-100.4,118
				c-0.7,0.7-1.5,1.3-3.5,1.3H556.2c-0.2-0.6-0.3-1.3-0.3-1.9C555.8,375.7,556.3,374.6,557,373.4z"/>
		</g>
		<g>
			<path fill="#B0CB0B" d="M556.2,379c0.3,1,0.8,1.8,1.4,2.5l15.2,15.2c0,0,0.7,0.6,0.7,1.7c0,1.1,0,109.1,0,109.1
				c0,3.8,1.9,5.6,5,5.6h151.7V399.4l0.2-0.1c7.3-3.6,12.1-10.8,12.1-24.6c0,0,12.1,2.3,21.2-6.7c7.5-7.5,6.5-13.6,10.1-21.7
				c4.5-10.1,13.9-13.1,21-13c0,0-0.7-8,2.9-14.7c4.4-8.2,13-8.3,15.7-8.3s10.7,1,15.7,9.1c4,6.4,2.9,13.9,2.9,13.9
				c7.2-0.1,16.6,3,21,13c3.6,8.2,2.6,14.2,10.1,21.7c9.1,9.1,21.2,6.7,21.2,6.7c0,11.8,3.5,18.7,9.1,22.8l16.9-16.9
				c1-1.1,1.6-2.6,1.6-4.2c0-1.8-0.8-3.3-2-4.8h0l-45.2-53.2l-45.3-53.3c-1.8-2.2-4.7-4.1-7.9-5.4c0,0-99.7,117.2-100.4,118
				c-0.7,0.7-1.6,1.3-3.5,1.3S556.2,379,556.2,379z M655.9,447.9c0-0.7,0.6-1.4,1.3-1.4h17.4c0.7,0,1.3,0.6,1.3,1.4v17.4
				c0,0.7-0.6,1.4-1.3,1.4h-17.4c-0.7,0-1.3-0.6-1.3-1.4V447.9z M655.9,418.7c0-0.7,0.6-1.4,1.3-1.4h17.4c0.7,0,1.3,0.6,1.3,1.4
				v17.4c0,0.7-0.6,1.3-1.3,1.3h-17.4c-0.7,0-1.3-0.6-1.3-1.3V418.7z M626.7,447.9c0-0.7,0.6-1.4,1.3-1.4h17.4
				c0.7,0,1.4,0.6,1.4,1.4v17.4c0,0.7-0.6,1.4-1.4,1.4h-17.4c-0.7,0-1.3-0.6-1.3-1.4V447.9z M626.7,418.7c0-0.7,0.6-1.4,1.3-1.4
				h17.4c0.7,0,1.4,0.6,1.4,1.4v17.4c0,0.7-0.6,1.3-1.4,1.3h-17.4c-0.7,0-1.3-0.6-1.3-1.3V418.7z"/>
		</g>
	</g>
</g>
<g>
	<g id="XMLID_478_">
		<path id="XMLID_489_" fill="#994916" d="M165.9,510.2c0,1.6,1.3,2.8,2.9,2.8h8.8c1.6,0,2.9-1.3,2.9-2.8v-27.5h-14.5V510.2z"/>
		<path id="XMLID_488_" fill="#1E6E32" d="M225.6,480.1l-30-60c-0.7-1.4,0-2.6,1.6-2.6h17.9c1.6,0,2.3-1.1,1.6-2.5l-42.2-84.4
			c-0.7-1.4-1.8-1.4-2.6,0l-42.2,84.4c-0.7,1.4,0,2.5,1.6,2.5h17.9c1.6,0,2.3,1.1,1.6,2.6l-30,60c-0.7,1.4,0,2.6,1.6,2.6h30.9h9.8
			h20.2h16.4H224C225.6,482.6,226.3,481.5,225.6,480.1z"/>
	</g>
	<g id="XMLID_490_">
		<path id="XMLID_493_" fill="#994916" d="M45,510.2c0,1.5,1.3,2.8,2.8,2.8h8.7c1.5,0,2.8-1.3,2.8-2.8V483H45V510.2z"/>
		<g id="XMLID_491_">
			<path id="XMLID_492_" fill="#1E6E32" d="M104.1,480.4L53.1,333.3c-0.5-1.5-1.3-1.5-1.8,0L0.1,480.4c-0.5,1.5,0.3,2.7,1.9,2.7
				h26.1h14.1h19.9h11.8h28.4C103.8,483,104.6,481.8,104.1,480.4z"/>
		</g>
	</g>
</g>
<path fill="#FFFFFF" d="M294.9,34.5c-6-20-24.6-34.5-46.5-34.5c-24.9,0-45.5,18.8-48.3,42.9c-0.2,1.8-1.1,5.3-4.6,6.4
	c-18.3,5.6-31.9,22.2-31.9,42.4c0,24.4,19.7,44.1,44.1,44.1c18.4,0,65,0,84.1,0c26.6,0,48.2-21.6,48.2-48.2
	c0-23.1-16.2-42.2-37.8-47.1C296.2,39.2,295.4,36.2,294.9,34.5z"/>
</svg>
