<?xml version="1.0" encoding="utf-8"?>
<!-- Generator: Adobe Illustrator 18.0.0, SVG Export Plug-In . SVG Version: 6.00 Build 0)  -->
<!DOCTYPE svg PUBLIC "-//W3C//DTD SVG 1.1//EN" "http://www.w3.org/Graphics/SVG/1.1/DTD/svg11.dtd">
<svg version="1.1" id="Layer_1" xmlns="http://www.w3.org/2000/svg" xmlns:xlink="http://www.w3.org/1999/xlink" x="0px" y="0px"
	 viewBox="0 0 912 513" enable-background="new 0 0 912 513" xml:space="preserve">
<path fill="#FFFFFF" d="M886.25,96.206c0.143-1.408,0.36-2.825,0.36-4.284c0-14.412-11.682-26.094-26.094-26.094
	c-4.817,0-9.23,1.48-13.2,3.578c-1.2,0.634-2.375,0.389-2.427-1.345c-0.007-0.315-0.178-2.088-0.256-2.659
	c-2.312-17.012-16.894-30.12-34.538-30.12c-9.801,0-18.849,3.863-24.981,10.56c-1.297,1.417-2.898,2.157-4.605,0.614
	c-8.766-7.93-20.214-13.041-32.97-13.041c-26.642,0-48.239,21.595-48.239,48.238c0,5.046,0.78,9.905,2.22,14.476
	c0.085,0.268,0.175,0.534,0.265,0.804c0.256,0.768,0.437,1.789-1.217,2.2c-12.976,3.208-22.675,14.777-22.675,28.727
	c0,16.316,13.225,29.539,29.539,29.539H882.92c16.316,0,29.541-13.223,29.541-29.539c0-14.713-10.8-26.677-24.837-29.165
	C886.14,98.433,886.08,97.878,886.25,96.206z"/>
<g>
	<path fill="#E6007E" d="M378.508,184.908c-21.122-2.922-35.832,9.867-44.828,38.961c-19.214,2.91-36.514,15.451-44.479,34.682
		c-9.5,22.948-2.91,48.569,14.514,64.38c1.28,1.168,2.572,4.155,0.427,6.561c-1.826,2.039-3.502,4.522-4.813,7.651
		c-1.878,4.54-2.596,8.475-2.892,11.915c-0.32,3.734-3.313,4.326-5.074,4.232c-23.57-1.245-46.464,12.232-56.006,35.239
		c-8.392,20.269-4.237,42.636,8.854,58.495c-13.417,26.172-11.812,45.172,4.895,57.819c14.758,11.19,35.69,10.822,49.76-0.841
		c0.817-0.688,1.41-1.541,1.801-2.454c0.865-2.098,0.581-4.6-0.984-6.46c-2.222-2.691-6.211-3.058-8.896-0.83
		c-9.601,7.953-23.914,8.167-34.048,0.498c-4.902-3.71-15.557-11.841-2.963-38.618c3.817,2.88,8.001,5.393,12.624,7.302
		c29.206,12.102,62.815-1.825,74.912-31.02c9.483-22.912,2.951-48.467-14.378-64.291c-1.612-1.458-3.349-2.809-5.132-4.137
		c-5.074-3.781-9.684-6.898-11.201-10.027c-1.464-3.011-2.022-6.247,0-11.11c1.535-3.71,4.22-6.122,6.543-7.111
		c3.799-1.624,8.451-0.385,10.389,0.13c27.31,7.236,56.51-6.631,67.622-33.437c12.102-29.224-1.826-62.828-31.038-74.93
		c-5.559-2.299-11.272-3.645-16.979-4.137c10.045-28.584,23.493-26.788,29.639-25.929c12.599,1.73,22.568,12.007,23.718,24.423
		c0.326,3.473,3.414,6.039,6.886,5.713c2.418-0.219,4.392-1.784,5.263-3.882c0.379-0.919,0.546-1.938,0.45-3.005
		C411.413,202.504,396.869,187.45,378.508,184.908z M247.057,393.378c7.562-18.277,25.922-28.838,44.657-27.44
		c-20.293,34.753-33.657,57.44-40.687,69.08C243.181,423.058,241.184,407.542,247.057,393.378z M260.451,443.872
		c4.481-7.372,12.315-20.577,23.671-39.921c-5.749,21.905-10.312,39.447-12.529,47.935c-0.118-0.048-0.237-0.083-0.356-0.13
		c-4.22-1.742-8.036-4.078-11.379-6.863C260.066,444.548,260.232,444.228,260.451,443.872z M329.626,427.574
		c-7.716,18.622-26.652,29.254-45.741,27.345c3.39-13.062,12.244-46.974,22.379-85.343
		C328.453,379.308,338.93,405.101,329.626,427.574z M300.893,263.393c5.429-13.121,16.44-22.243,29.13-25.852
		c-3.408,13.708-9.898,38.73-19.339,74.634C298.238,299.764,293.764,280.61,300.893,263.393z M383.463,297.595
		c-8.937,21.573-32.922,32.412-54.78,25.467c19.706-33.859,37.225-63.515,44.106-75.072
		C385.881,260.353,390.753,279.982,383.463,297.595z M359.282,239.201c1.067,0.445,2.098,0.961,3.118,1.482
		c-5.512,9.299-19.368,32.703-35.856,60.925c8.558-32.638,14.224-54.649,16.879-65.566c0.012-0.065,0.035-0.118,0.035-0.178
		C348.769,236.013,354.102,237.055,359.282,239.201z"/>
	<g>
		<path fill="#E6007E" d="M513.329,502.368c0,5.583,4.564,10.146,10.146,10.146h90.511c5.583,0,10.147-4.564,10.147-10.146V269.172
			H513.329V502.368z"/>
		<path fill="#E6007E" d="M624.132,214.114c0-5.583-4.564-10.146-10.147-10.146h-90.511c-5.583,0-10.146,4.563-10.146,10.146v34.753
			h110.804V214.114z"/>
		<rect x="513.329" y="248.867" fill="#8C005A" width="110.804" height="20.304"/>
	</g>
	<g>
		<path fill="#8C005A" d="M493.38,164.681c0-5.583-4.563-10.146-10.146-10.146h-59.826c-5.583,0-10.146,4.563-10.146,10.146v35.103
			h80.118V164.681z"/>
		<path fill="#8C005A" d="M413.262,502.368c0,5.583,4.563,10.146,10.146,10.146h59.826c5.583,0,10.146-4.564,10.146-10.146v-35.109
			h-80.118V502.368z"/>
		<rect x="413.262" y="220.088" fill="#8C005A" width="80.118" height="226.878"/>
		<rect x="413.262" y="199.783" fill="#E6007E" width="80.118" height="20.304"/>
		<rect x="413.262" y="446.966" fill="#E6007E" width="80.118" height="20.293"/>
	</g>
	<path fill="#8C005A" d="M608.912,461.759c0,2.798-2.287,5.085-5.084,5.085h-70.195c-2.797,0-5.084-2.287-5.084-5.085v-32.264
		c0-2.786,2.287-5.073,5.084-5.073h70.195c2.797,0,5.084,2.287,5.084,5.073V461.759z"/>
</g>
</svg>
