<svg version="1.1" xmlns="http://www.w3.org/2000/svg" xmlns:xlink="http://www.w3.org/1999/xlink" x="0px" y="0px"
	 viewBox="0 0 614 570" enable-background="new 0 0 614 570" xml:space="preserve" preserveAspectRatio="xMaxYMax">
<g id="Layer_2">
</g>
<g id="Layer_3">
</g>
<g id="Layer_4">
	<g>
		<path fill="#CCEBFA" d="M545.788,382.777l-51.576,56.168L388.437,323.752c-4.014-4.373-10.913-4.373-14.927,0L204.185,508.154
			l-66.234-72.133c-4.014-4.37-10.912-4.37-14.927,0L0,570h614V440.807l-53.286-58.03
			C556.7,378.405,549.802,378.405,545.788,382.777z"/>
		<g>
			<g>
				<path fill="#994B22" d="M518.513,487.999h-76.576c-5.101,0-9.245,4.133-9.245,9.236c0,5.11,4.144,9.244,9.245,9.244h1.235
					l7.728,58.111c0.344,2.602,2.771,4.719,5.39,4.719h47.868c2.627,0,5.051-2.118,5.395-4.719l7.724-58.111h1.235
					c5.105,0,9.249-4.133,9.249-9.244C527.761,492.132,523.618,487.999,518.513,487.999z"/>
			</g>
			<path fill="#E5087E" d="M506.035,286.799c-0.141,0.203-0.446,0.713-0.446,0.713l-5.871,9.39l-5.871,9.392l0,0
				c-0.344,0.553-0.907,0.553-1.251-0.002l-5.785-9.392l-5.786-9.392v-0.002c-0.344-0.555-0.907-0.557-1.251,0l-5.809,9.394
				l-5.809,9.392c-0.344,0.555-0.915,0.555-1.259,0.002l-5.838-9.392c0,0-5.985-9.626-6.188-9.941
				c-0.203-0.313-0.469-0.172-0.563-0.026c-5.758,9.127-9.272,20.179-9.272,29.374c0,19.525,15.832,35.349,35.371,35.349
				c19.53,0,35.369-15.824,35.369-35.349c0-9.226-3.549-20.324-9.335-29.469C506.363,286.729,506.175,286.594,506.035,286.799z"/>
			<path fill="#AFCB36" d="M502.227,404.884c1.001,0.539,3.385,1.743,5.52,2.422c2.142,0.695,4.042,0.867,5.05,0.867
				c9.03,0,16.34-7.298,16.34-16.317c-0.008-9.001-7.31-16.307-16.34-16.307c-1.008,0-2.908,0.172-5.05,0.867
				c-2.134,0.695-4.519,1.891-5.52,2.422c-5.183,2.778-12.407,7.31-16.957,10.232v-37.752c-1.587,0.217-3.213,0.34-4.863,0.34
				c-1.774,0-3.518-0.135-5.222-0.385v37.793c-4.55-2.922-11.768-7.45-16.956-10.228c-1.005-0.531-3.381-1.727-5.524-2.422
				c-2.138-0.695-4.034-0.867-5.046-0.867c-9.03,0-16.332,7.306-16.34,16.307c0,9.019,7.31,16.317,16.34,16.317
				c1.012,0,2.908-0.172,5.046-0.867c2.142-0.68,4.519-1.883,5.524-2.422c5.187-2.774,12.405-7.306,16.956-10.23v52.026
				c-4.55-2.922-11.768-7.454-16.956-10.236c-1.005-0.531-3.381-1.727-5.524-2.422c-2.138-0.687-4.034-0.859-5.046-0.859
				c-9.03,0-16.332,7.306-16.34,16.307c0,9.017,7.31,16.315,16.34,16.315c1.012,0,2.908-0.18,5.046-0.867
				c2.142-0.68,4.519-1.883,5.524-2.43c5.187-2.766,12.405-7.306,16.956-10.22v35.732h10.085v-35.732
				c4.55,2.914,11.774,7.454,16.957,10.22c1.001,0.547,3.385,1.75,5.52,2.43c2.142,0.688,4.042,0.867,5.05,0.867
				c9.03,0,16.34-7.298,16.34-16.315c-0.008-9.001-7.31-16.307-16.34-16.307c-1.008,0-2.908,0.172-5.05,0.859
				c-2.134,0.696-4.519,1.891-5.52,2.422c-5.183,2.782-12.407,7.314-16.957,10.236v-52.026
				C489.82,397.578,497.044,402.11,502.227,404.884z"/>
		</g>
		<path fill="#FFFFFF" d="M510.164,109.392c0.09-0.882,0.226-1.77,0.226-2.688c0-9.041-7.333-16.369-16.38-16.369
			c-3.024,0-5.794,0.927-8.286,2.244c-0.753,0.398-1.491,0.245-1.523-0.844c-0.005-0.197-0.112-1.309-0.161-1.668
			c-1.451-10.673-10.605-18.896-21.68-18.896c-6.152,0-11.832,2.424-15.68,6.625c-0.814,0.889-1.82,1.355-2.89,0.386
			C438.288,73.208,431.102,70,423.095,70c-16.723,0-30.28,13.549-30.28,30.263c0,3.166,0.49,6.215,1.394,9.082
			c0.054,0.168,0.11,0.335,0.166,0.503c0.161,0.482,0.275,1.124-0.763,1.381c-8.146,2.012-14.233,9.272-14.233,18.022
			c0,10.237,8.301,18.533,18.542,18.533h110.153c10.242,0,18.544-8.296,18.544-18.533c0-9.23-6.779-16.735-15.591-18.296
			C510.095,110.791,510.057,110.444,510.164,109.392z"/>
	</g>
</g>
</svg>
