<?xml version="1.0" encoding="utf-8"?>
<!-- Generator: Adobe Illustrator 18.0.0, SVG Export Plug-In . SVG Version: 6.00 Build 0)  -->
<!DOCTYPE svg PUBLIC "-//W3C//DTD SVG 1.1//EN" "http://www.w3.org/Graphics/SVG/1.1/DTD/svg11.dtd">
<svg version="1.1" id="Layer_1" xmlns="http://www.w3.org/2000/svg" xmlns:xlink="http://www.w3.org/1999/xlink" x="0px" y="0px"
	 viewBox="0 0 153 277" enable-background="new 0 0 153 277" xml:space="preserve">
<g>
	<path fill="#0A4682" d="M126.308,0H26.689C12.012,0,0,12.012,0,26.694v223.611C0,264.993,12.012,277,26.689,277h99.619
		C140.99,277,153,264.993,153,250.306V26.694C153,12.012,140.99,0,126.308,0z"/>
	<path fill="#009FE4" d="M56.68,17.619h39.643c2.277,0,4.117,1.844,4.117,4.12c0,2.276-1.84,4.119-4.117,4.119H56.68
		c-2.276,0-4.119-1.844-4.119-4.119C52.561,19.463,54.405,17.619,56.68,17.619z"/>
	<path fill="#009FE4" d="M76.501,266.001c-6.771,0-12.258-5.487-12.258-12.255c0-6.776,5.487-12.263,12.258-12.263
		c6.769,0,12.256,5.488,12.256,12.263C88.757,260.513,83.27,266.001,76.501,266.001z"/>
	<path fill="#009FE4" d="M138.218,223.579c0,3.672-2.999,6.68-6.671,6.68H21.454c-3.669,0-6.673-3.008-6.673-6.68V53.417
		c0-3.668,3.004-6.672,6.673-6.672h110.093c3.671,0,6.671,3.004,6.671,6.672V223.579z"/>
	<path fill="#7DC8F0" d="M116.878,121.9c0-0.008,0-0.016-0.008-0.024c-0.008-0.04-0.016-0.076-0.024-0.112
		c-2.2-9.503-9.694-16.587-19.539-17.015c-0.644-0.06-1.294-0.096-1.956-0.096c-7.527,0-14.16,3.872-18.171,9.779
		c-0.144,0.208-0.366,0.5-0.68,0.472c-0.326,0.028-0.546-0.264-0.688-0.472c-4.011-5.908-10.646-9.779-18.175-9.779
		c-0.658,0-1.308,0.036-1.956,0.096c-9.84,0.428-17.341,7.512-19.535,17.015c-0.01,0.036-0.018,0.072-0.028,0.112
		c0,0.008,0,0.016-0.002,0.024c-0.446,1.804-0.684,3.692-0.684,5.64c0,6.896,1.83,13.551,5.537,19.781
		c5.349,8.991,14.573,16.959,23.98,24.062c5.471,4.136,8.999,6.248,11.55,6.248c2.65,0,5.915-2.112,11.538-6.248
		c9.499-6.975,18.633-15.071,23.984-24.062c3.711-6.23,5.539-12.885,5.539-19.781C117.562,125.592,117.322,123.704,116.878,121.9z"
		/>
</g>
</svg>
