<?xml version="1.0" encoding="utf-8"?>
<!-- Generator: Adobe Illustrator 18.0.0, SVG Export Plug-In . SVG Version: 6.00 Build 0)  -->
<!DOCTYPE svg PUBLIC "-//W3C//DTD SVG 1.1//EN" "http://www.w3.org/Graphics/SVG/1.1/DTD/svg11.dtd">
<svg version="1.1" id="Layer_1" xmlns="http://www.w3.org/2000/svg" xmlns:xlink="http://www.w3.org/1999/xlink" x="0px" y="0px"
	 viewBox="0 0 912 513" enable-background="new 0 0 912 513" xml:space="preserve">
<g>
	<g>
		<path fill="#FFE57E" d="M754.574,333.245c0,0,0,0-0.047-0.403c-0.566-4.688-4.281-8.412-8.969-8.982
			c-0.412-0.052-0.412-0.052-0.412-0.052c-0.462-0.008-2.344-0.021-4.178-0.021h-11.819c-11.42,0-15.757-11.297-17.943-15.672
			c-2.125-4.247-10.221-17.956-11.733-20.411c-6.132-9.963-11.214-16.841-8.069-28.03c3.394-12.059,12.92-20.732,24.25-23.612
			c1.971-0.497,2.738-0.583,2.738-0.583c1.83-0.21,2.679-1.731,1.899-3.394c0,0-0.549-1.148-1.732-3.124
			c-6.419-10.675-16.755-19.014-29.697-22.657c-23.891-6.719-48.596,4.859-59.177,26.346c-0.951,1.933-1.324,2.914-1.324,2.914
			c-0.651,1.714-2.614,2.674-4.362,2.125c0,0-0.81-0.248-2.837-0.814c-12.509-3.488-25.738-5.537-39.442-5.931
			c-1.603-0.043-3.214-0.068-4.83-0.068c-49.346,0-93,21.487-119.604,54.428c-1.71,2.117-7.152,10.113-9.132,11.541
			c-2.134,1.543-3.861,1.886-5.738,1.877c-1.41-0.004-2.82-0.201-4.221-0.488c-0.81-0.163-0.754-1.431,0.039-1.92
			c8.275-5.143,13.409-14.72,12.646-24.538c-1.105-14.189-12.907-24.452-26.869-23.372c-7.092,0.557-13.413,3.831-17.784,9.234
			c-3.445,4.251-5.434,9.599-5.819,15.462c-0.065,0.947-0.737,2.37-1.967,0.518c-1.427-2.151-3.021-4.615-4.315-7.546
			c-2.571-5.841-6.659-8.828-11.185-7.418c-5.734,1.774-5.061,9.985-3.458,14.442c5.759,16.045,16.314,22.481,27.996,26.329
			c1.191,0.39,2.066,1.123,2.37,1.487c1.307,1.59,2.73,3.073,4.256,4.427c4.375,3.882,11.185,8.134,20.998,9.848
			c1.277,0.223,3.848,0.557,2.404,4.543c-4.654,12.813-7.366,26.425-7.366,40.61c0,41.225,21.221,72.362,44.679,93.48
			c0.754,0.677,3.296,2.905,3.296,2.905c1.157,0.951,1.53,2.983,0.57,5.425c-0.334,0.84-7.851,18.796-7.851,18.796
			c-3.034,7.328,0.48,15.796,7.804,18.839l29.565,12.239c7.324,3.034,15.8-0.472,18.834-7.8c0,0,5.31-12.616,6.964-16.653
			c0.686-1.671,1.732-2.151,3.214-1.825c0,0,0,0,1.131,0.248c9.179,1.971,24.486,3.574,35.397,3.771
			c1.046,0.017,3.149,0.026,3.149,0.026c8.841,0,21.997-0.806,29.565-1.997c1.298-0.206,1.298-0.206,1.298-0.206
			c1.877-0.377,2.94,0.412,3.381,1.483c0.441,1.063,6.471,15.453,6.471,15.453c3.03,7.319,11.506,10.833,18.83,7.799l29.569-12.247
			c7.319-3.034,10.833-11.51,7.799-18.839c0,0-5.284-12.479-6.522-15.607c-0.634-1.62,0.236-2.905,1.02-3.471c0,0,0,0,0.009-0.017
			c0.047-0.034,0.222-0.163,0.921-0.694c6.437-4.885,15.834-13.028,22.605-20.51c1.568-1.722,2.991-3.42,4.204-5.031
			c11.57-15.324,17.068-31.686,33.16-31.686h11.768c1.834,0,3.921-0.026,4.637-0.06c0,0,0,0,0.621-0.12
			c4.097-0.771,7.332-3.968,8.164-8.039c0.141-0.668,0.141-0.668,0.141-0.668c0.034-0.771,0.068-1.808,0.068-2.306
			c0-0.497,0-2.409,0-4.242v-51.366C754.6,335.581,754.587,333.708,754.574,333.245z M427.504,282.541
			c-4.98,2.627-8.995-0.205-9.929-4.002c-1.281-5.241,1.097-11.373,6.531-12.864c5.048-1.38,9.899,2.177,9.663,7.439
			C433.576,277.514,430.598,280.913,427.504,282.541z"/>
		<path fill="#994916" d="M669.613,318.568c0,5.713,4.628,10.341,10.345,10.341c5.708,0,10.336-4.628,10.336-10.341
			c0-5.712-4.628-10.332-10.336-10.332C674.241,308.236,669.613,312.856,669.613,318.568z"/>
		<g>
			<path fill="#994916" d="M514.698,260.626c-0.643-1.928,0.352-4.182,2.22-4.997c0,0,1.8-0.789,4.461-1.817
				c17.574-6.797,36.687-10.362,55.881-10.362c1.539,0,3.064,0.026,4.59,0.069c5.048,0.146,10.105,0.531,15.102,1.157
				c2.091,0.257,2.58,0.334,2.58,0.334c2.014,0.317,3.527,1.997,3.364,3.741c-0.167,1.744-0.441,4.68-0.613,6.527
				c-0.176,1.847-1.963,3.132-3.985,2.854c0,0-9.942-1.345-16.824-1.542c-1.401-0.039-2.803-0.06-4.213-0.06
				c-17.557,0-35.024,3.244-51.072,9.441c-2.876,1.11-5.104,2.104-5.104,2.104c-1.86,0.831-3.917-0.069-4.56-2.001L514.698,260.626z
				"/>
		</g>
		<g>
			<path fill="#FFB900" d="M572.143,179.692c-22.751-9.423-48.836,1.38-58.259,24.127c-7.191,17.364-2.589,36.661,10.1,49.024
				c3.917,3.814,8.601,6.968,13.957,9.196c12.663-3.621,25.961-5.511,39.318-5.511c1.41,0,2.812,0.022,4.213,0.06
				c0.099,0.004,0.201,0.008,0.3,0.013c4.431-3.304,8.287-7.461,11.292-12.363c1.213-1.98,2.293-4.075,3.21-6.291
				C605.697,215.192,594.894,189.116,572.143,179.692z"/>
		</g>
		<g>
			<path fill="#FFE57E" d="M569.764,185.439c-4.697-1.95-9.633-2.935-14.682-2.935c-15.577,0-29.496,9.308-35.457,23.698
				c-3.925,9.466-3.925,19.896,0,29.367c2.46,5.927,6.27,11.035,11.091,14.986c2.888,2.357,6.136,4.311,9.676,5.777
				c3.347,1.388,6.814,2.28,10.357,2.682c5.849-1.105,11.793-1.821,17.771-2.185c6.929-2.589,12.976-7.135,17.403-13.139
				c1.822-2.472,3.385-5.185,4.603-8.121C598.626,216.024,589.306,193.534,569.764,185.439z M585.089,233.315
				c-1.594,3.857-3.869,7.277-6.642,10.152c-6.003,6.226-14.364,9.916-23.389,9.916c-4.26,0-8.434-0.84-12.411-2.485
				c-1.637-0.677-3.184-1.508-4.671-2.425c-5.759-3.557-10.268-8.781-12.916-15.157c-3.317-8.018-3.317-16.846,0-24.86
				c5.048-12.192,16.837-20.064,30.023-20.064c4.268,0,8.451,0.831,12.428,2.481C584.06,197.725,591.937,216.77,585.089,233.315z"/>
		</g>
		<g>
			<g>
				<path fill="#FFE57E" d="M543.401,224.406c-1.491,4.483,0.369,9.094,5.1,11.056c4.285,1.774,8.956,0.308,10.842-4.234
					c2.091-5.048-0.587-9.106-4.748-10.834c-2.901-1.2-5.858-1.02-7.988,0.021l-6.055-5.541l13.589-18.53l22.386,9.274l-2.743,6.625
					l-17.279-7.165l-6.805,9.299c2.52-1.097,6.094-0.797,8.991,0.403c8.133,3.368,11.913,10.842,8.356,19.421
					c-3.184,7.696-11.776,11.673-21.238,7.752c-8.828-3.655-12.453-12.029-10.293-18.671L543.401,224.406z"/>
			</g>
		</g>
	</g>
	<path fill="#FFFFFF" d="M886.25,96.206c0.143-1.408,0.36-2.825,0.36-4.284c0-14.412-11.682-26.094-26.094-26.094
		c-4.817,0-9.23,1.48-13.2,3.578c-1.2,0.634-2.375,0.389-2.427-1.345c-0.007-0.315-0.178-2.088-0.256-2.659
		c-2.312-17.012-16.894-30.12-34.538-30.12c-9.801,0-18.849,3.863-24.981,10.56c-1.297,1.417-2.898,2.157-4.605,0.614
		c-8.766-7.93-20.214-13.041-32.97-13.041c-26.642,0-48.239,21.595-48.239,48.238c0,5.046,0.78,9.905,2.22,14.476
		c0.085,0.268,0.175,0.534,0.265,0.804c0.256,0.768,0.437,1.789-1.217,2.2c-12.976,3.208-22.675,14.777-22.675,28.727
		c0,16.316,13.225,29.539,29.539,29.539H882.92c16.316,0,29.541-13.223,29.541-29.539c0-14.713-10.8-26.677-24.837-29.165
		C886.14,98.433,886.08,97.878,886.25,96.206z"/>
</g>
</svg>
