<?xml version="1.0" encoding="utf-8"?>
<!-- Generator: Adobe Illustrator 18.0.0, SVG Export Plug-In . SVG Version: 6.00 Build 0)  -->
<!DOCTYPE svg PUBLIC "-//W3C//DTD SVG 1.1//EN" "http://www.w3.org/Graphics/SVG/1.1/DTD/svg11.dtd">
<svg version="1.1" id="Layer_1" xmlns="http://www.w3.org/2000/svg" xmlns:xlink="http://www.w3.org/1999/xlink" x="0px" y="0px"
	 viewBox="0 0 912 513" enable-background="new 0 0 912 513" xml:space="preserve">
<g>
	<path fill="#2DA9E1" d="M391.3,375.9l-32.6,35.6l-66.9-73c-2.5-2.8-6.9-2.8-9.4,0L175.1,455.4l-41.9-45.7c-2.5-2.8-6.9-2.8-9.4,0
		L29.1,513h405.4V412.7l-33.7-36.8C398.2,373.2,393.8,373.2,391.3,375.9z"/>
	<path fill="#FFFFFF" d="M602,29.2C596.9,12.3,581.3,0,562.7,0c-21,0-38.4,15.9-40.8,36.3c-0.2,1.5-0.9,4.5-3.9,5.4
		c-15.5,4.8-26.9,18.8-26.9,35.8c0,20.6,16.7,37.3,37.2,37.3c15.5,0,54.9,0,71,0c22.5,0,40.7-18.2,40.7-40.7
		c0-19.5-13.7-35.7-31.9-39.8C603.1,33.2,602.4,30.6,602,29.2z"/>
	<path fill="#FFFFFF" d="M439.9,181.2c-7.1-23.4-28.8-40.5-54.5-40.5c-29.2,0-53.3,22-56.6,50.4c-0.2,2.1-1.3,6.2-5.4,7.5
		c-21.5,6.6-37.4,26.1-37.4,49.7c0,28.6,23.1,51.7,51.7,51.7c21.5,0,76.2,0,98.6,0c31.2,0,56.5-25.3,56.5-56.5
		c0-27.1-19-49.5-44.4-55.2C441.5,186.8,440.5,183.2,439.9,181.2z"/>
	<g>
		<g>
			<path fill="#FDB813" d="M520.3,181.3c-1.1,0.5-2,1.3-2.6,2.1l-60.9,85.8L395.8,355c-1.1,1.6-2,4.5-2,6.4v148.1
				c0,1.9,1.6,3.5,3.5,3.5h244.8c1,0,2.2,0,3.5,0V357.8L520.3,181.3z"/>
			<path fill="#FFFFFF" d="M463.2,459.8c0,0.9-0.7,1.6-1.5,1.6h-19.9c-0.8,0-1.5-0.7-1.5-1.6v-20c0-0.8,0.7-1.6,1.5-1.6h19.9
				c0.8,0,1.5,0.7,1.5,1.6C463.2,439.8,463.2,459.8,463.2,459.8z"/>
			<path fill="#FFFFFF" d="M463.2,426.3c0,0.9-0.7,1.5-1.5,1.5h-19.9c-0.8,0-1.5-0.7-1.5-1.5v-20c0-0.9,0.7-1.6,1.5-1.6h19.9
				c0.8,0,1.5,0.7,1.5,1.6C463.2,406.4,463.2,426.3,463.2,426.3z"/>
			<path fill="#FFFFFF" d="M496.6,459.8c0,0.9-0.7,1.6-1.5,1.6h-19.9c-0.9,0-1.5-0.7-1.5-1.6v-20c0-0.8,0.7-1.6,1.5-1.6h19.9
				c0.9,0,1.5,0.7,1.5,1.6V459.8z"/>
			<path fill="#FFFFFF" d="M496.6,426.3c0,0.9-0.7,1.5-1.5,1.5h-19.9c-0.9,0-1.5-0.7-1.5-1.5v-20c0-0.9,0.7-1.6,1.5-1.6h19.9
				c0.9,0,1.5,0.7,1.5,1.6V426.3z"/>
			<path fill="#FFFFFF" d="M514.5,358.8c0,0.8-0.7,1.5-1.6,1.5H493c-0.9,0-1.6-0.7-1.6-1.5v-20c0-0.8,0.7-1.5,1.6-1.5H513
				c0.9,0,1.6,0.7,1.6,1.5V358.8z"/>
			<path fill="#FFFFFF" d="M514.5,325.4c0,0.9-0.7,1.6-1.6,1.6H493c-0.9,0-1.6-0.7-1.6-1.6v-20c0-0.9,0.7-1.6,1.6-1.6H513
				c0.9,0,1.6,0.7,1.6,1.6V325.4z"/>
			<path fill="#FFFFFF" d="M524.9,305.4c0-0.9,0.7-1.6,1.5-1.6h19.9c0.9,0,1.6,0.7,1.6,1.6v20c0,0.9-0.7,1.6-1.6,1.6h-19.9
				c-0.8,0-1.5-0.7-1.5-1.6V305.4z"/>
			<path fill="#FFFFFF" d="M524.9,358.8v-20c0-0.8,0.7-1.5,1.5-1.5h19.9c0.9,0,1.6,0.7,1.6,1.5v20c0,0.8-0.7,1.5-1.6,1.5h-19.9
				C525.6,360.4,524.9,359.7,524.9,358.8z"/>
			<path fill="#FFFFFF" d="M565.9,459.8c0,0.9-0.7,1.6-1.5,1.6h-19.9c-0.8,0-1.5-0.7-1.5-1.6v-20c0-0.8,0.7-1.6,1.5-1.6h19.9
				c0.9,0,1.5,0.7,1.5,1.6V459.8z"/>
			<path fill="#FFFFFF" d="M565.9,426.3c0,0.9-0.7,1.5-1.5,1.5h-19.9c-0.8,0-1.5-0.7-1.5-1.5v-20c0-0.9,0.7-1.6,1.5-1.6h19.9
				c0.9,0,1.5,0.7,1.5,1.6V426.3z"/>
			<path fill="#FFFFFF" d="M599.3,459.8c0,0.9-0.7,1.6-1.5,1.6h-19.9c-0.9,0-1.6-0.7-1.6-1.6v-20c0-0.8,0.7-1.6,1.6-1.6h19.9
				c0.9,0,1.5,0.7,1.5,1.6V459.8z"/>
			<path fill="#FFFFFF" d="M599.3,426.3c0,0.9-0.7,1.5-1.5,1.5h-19.9c-0.9,0-1.6-0.7-1.6-1.5v-20c0-0.9,0.7-1.6,1.6-1.6h19.9
				c0.9,0,1.5,0.7,1.5,1.6V426.3z"/>
		</g>
		<g>
			<path fill="#994B22" d="M712.3,357.8c1.9,0,4.4-1.3,5.6-2.9l58.9-82.9c1.1-1.6,3-1.6,4.1,0l58.9,82.9c1.1,1.6,3.6,2.9,5.6,2.9
				h26.4h39.6c-0.4-1.1-0.8-2.1-1.4-2.9L849,269.2l-60.9-85.8c-1.1-1.6-3.6-2.9-5.6-2.9H523.2c-0.9,0-2,0.3-3,0.8l125.4,176.5h43.6
				H712.3z"/>
		</g>
		<g>
			<path fill="#FEE57F" d="M911.3,357.8h-39.6h-26.4c-1.9,0-4.4-1.3-5.6-2.9L780.9,272c-1.1-1.6-3-1.6-4.1,0L717.9,355
				c-1.1,1.6-3.6,2.9-5.6,2.9h-23h-43.6V513c1.3,0,2.6,0,3.5,0h259.3c1.9,0,3.5-1.6,3.5-3.5V361.3C912,360.3,911.7,359,911.3,357.8z
				"/>
			<path fill="#FFFFFF" d="M722.3,459.8c0,0.9-0.7,1.6-1.5,1.6h-19.9c-0.8,0-1.5-0.7-1.5-1.6v-20c0-0.8,0.7-1.6,1.5-1.6h19.9
				c0.8,0,1.5,0.7,1.5,1.6V459.8z"/>
			<path fill="#FFFFFF" d="M722.3,426.3c0,0.9-0.7,1.5-1.5,1.5h-19.9c-0.8,0-1.5-0.7-1.5-1.5v-20c0-0.9,0.7-1.6,1.5-1.6h19.9
				c0.8,0,1.5,0.7,1.5,1.6V426.3z"/>
			<path fill="#FFFFFF" d="M755.7,459.8c0,0.9-0.7,1.6-1.5,1.6h-19.9c-0.8,0-1.5-0.7-1.5-1.6v-20c0-0.8,0.7-1.6,1.5-1.6h19.9
				c0.9,0,1.5,0.7,1.5,1.6V459.8z"/>
			<path fill="#FFFFFF" d="M755.7,426.3c0,0.9-0.7,1.5-1.5,1.5h-19.9c-0.8,0-1.5-0.7-1.5-1.5v-20c0-0.9,0.7-1.6,1.5-1.6h19.9
				c0.9,0,1.5,0.7,1.5,1.6V426.3z"/>
			<path fill="#FFFFFF" d="M825,459.8c0,0.9-0.7,1.6-1.5,1.6h-19.9c-0.8,0-1.5-0.7-1.5-1.6v-20c0-0.8,0.7-1.6,1.5-1.6h19.9
				c0.8,0,1.5,0.7,1.5,1.6V459.8z"/>
			<path fill="#FFFFFF" d="M825,426.3c0,0.9-0.7,1.5-1.5,1.5h-19.9c-0.8,0-1.5-0.7-1.5-1.5v-20c0-0.9,0.7-1.6,1.5-1.6h19.9
				c0.8,0,1.5,0.7,1.5,1.6V426.3z"/>
			<path fill="#FFFFFF" d="M858.4,459.8c0,0.9-0.7,1.6-1.5,1.6h-19.9c-0.8,0-1.5-0.7-1.5-1.6v-20c0-0.8,0.7-1.6,1.5-1.6h19.9
				c0.8,0,1.5,0.7,1.5,1.6V459.8z"/>
			<path fill="#FFFFFF" d="M858.4,426.3c0,0.9-0.7,1.5-1.5,1.5h-19.9c-0.8,0-1.5-0.7-1.5-1.5v-20c0-0.9,0.7-1.6,1.5-1.6h19.9
				c0.8,0,1.5,0.7,1.5,1.6V426.3z"/>
		</g>
	</g>
</g>
</svg>
