<?xml version="1.0" encoding="utf-8"?>
<svg id="svg" version="1.1" xmlns="http://www.w3.org/2000/svg" xmlns:xlink="http://www.w3.org/1999/xlink" viewBox="0 240 595.3 361.8">
<defs>
    <style type="text/css">
        @media screen and (max-width: 420px) {
            #tree,
            #cloud {

            }
        }
    </style>
</defs>
<g id="cloud">
	<path fill="#FFFFFF" d="M529.4,270.5c-0.5,0-0.5-0.3-0.5-1.1c0-0.5,0.3-1.1,0.3-1.6c0-5.9-4.8-10.4-10.4-10.4
		c-1.9,0-3.7,0.5-5.3,1.3c-0.5,0.3-1.1,0.3-1.1-0.5c0,0,0-0.8,0-1.1c-0.8-6.9-6.9-12.3-13.9-12.3c-4,0-7.7,1.6-10.1,4.3
		c-0.5,0.5-1.1,0.8-1.9,0.3c-3.5-3.2-8.3-5.3-13.3-5.3c-10.7,0-19.5,8.8-19.5,19.5c0,2.1,0.3,4,0.8,5.9v0.3c0,0.3,0.3,0.8-0.5,0.8
		c-5.3,1.3-9.1,5.9-9.1,11.5c0,6.7,5.3,12,12,12h71c6.7,0,12-5.3,12-12C539.5,276.3,535,271.5,529.4,270.5z"/>
</g>
<g id="mountains">
	<path fill="#CFEAF8" d="M545.9,403.3c-3.7-4-10.1-4-13.9,0l-47.8,52l-97.9-106.7c-3.7-4-10.1-4-13.9,0L215.6,519.4l-61.4-67
		c-3.7-4-10.1-4-13.9,0L0,605.9h595.3V457L545.9,403.3z"/>
</g>
<g id="tree">
	<path fill="#994916" d="M507,600.2c0,0.8,0.8,1.6,1.6,1.6h5.1c0.8,0,1.6-0.8,1.6-1.6V584H507V600.2z"/>
	<path fill="#B0CB0B" d="M541.9,582.6l-17.6-35.2c-0.5-0.8,0-1.6,0.8-1.6h10.4c0.8,0,1.3-0.8,0.8-1.6l-24.5-49.4
		c-0.5-0.8-1.1-0.8-1.6,0l-24.8,49.4c-0.5,0.8,0,1.6,0.8,1.6h10.4c0.8,0,1.3,0.8,0.8,1.6l-17.6,35.2c-0.5,0.8,0,1.6,0.8,1.6h18.1
		h5.9h11.7h9.6H540C541.9,584,542.2,583.4,541.9,582.6z"/>
</g>
</svg>
