<?xml version="1.0" encoding="utf-8"?>
<!-- Generator: Adobe Illustrator 18.0.0, SVG Export Plug-In . SVG Version: 6.00 Build 0)  -->
<!DOCTYPE svg PUBLIC "-//W3C//DTD SVG 1.1//EN" "http://www.w3.org/Graphics/SVG/1.1/DTD/svg11.dtd">
<svg version="1.1" id="Layer_1" xmlns="http://www.w3.org/2000/svg" xmlns:xlink="http://www.w3.org/1999/xlink" x="0px" y="0px"
	 viewBox="0 0 137.998 76" enable-background="new 0 0 137.998 76" xml:space="preserve">
<g>
	<path fill="#FFFFFF" d="M128.191,43.758c0.031-0.225,0.025-0.456,0.025-0.688c0-5.694-4.619-10.313-10.317-10.313
		c-1.673,0-3.2,0.507-4.644,1.113c-1.402,0.587-2.077-0.002-2.435-0.41c-2.921-3.33-7.208-5.434-11.986-5.434
		c-8.808,0-15.949,7.142-15.949,15.95c0,0.705,0.058,1.397,0.138,2.081c0.207,1.753-0.775,2.009-1.294,2.238
		c-5.09,2.24-8.646,7.328-8.646,13.246C73.083,69.527,79.558,76,87.547,76c7.988,0,25.919,0,34.647,0
		c8.729,0,15.804-7.077,15.804-15.802c0-6.058-3.412-11.32-8.417-13.971C129.047,45.944,127.942,45.566,128.191,43.758z"/>
	<g>
		<path fill="#E5087E" d="M29.308,10.811c-4.197-0.581-7.12,1.961-8.907,7.741c-3.818,0.578-7.255,3.07-8.838,6.891
			c-1.888,4.56-0.578,9.65,2.884,12.792c0.254,0.232,0.511,0.826,0.085,1.304c-0.363,0.405-0.696,0.898-0.956,1.52
			c-0.373,0.902-0.516,1.684-0.575,2.368c-0.064,0.742-0.658,0.86-1.008,0.841c-4.683-0.247-9.232,2.43-11.128,7.002
			c-1.667,4.027-0.842,8.471,1.759,11.623c-2.666,5.2-2.347,8.975,0.973,11.488c2.932,2.223,7.091,2.15,9.887-0.167
			c0.162-0.137,0.28-0.306,0.358-0.488c0.172-0.417,0.115-0.914-0.195-1.284c-0.442-0.535-1.234-0.608-1.768-0.165
			c-1.908,1.58-4.751,1.623-6.765,0.099c-0.974-0.737-3.091-2.353-0.589-7.673c0.758,0.572,1.59,1.072,2.508,1.451
			c5.803,2.405,12.481-0.363,14.884-6.163c1.884-4.552,0.586-9.63-2.857-12.774c-0.32-0.29-0.665-0.558-1.02-0.822
			c-1.008-0.751-1.924-1.371-2.226-1.992c-0.291-0.598-0.402-1.241,0-2.207c0.305-0.737,0.838-1.216,1.3-1.413
			c0.755-0.323,1.679-0.077,2.064,0.026c5.426,1.438,11.228-1.318,13.436-6.644c2.405-5.807-0.363-12.483-6.167-14.888
			c-1.105-0.457-2.24-0.724-3.374-0.822c1.996-5.679,4.668-5.323,5.889-5.152c2.503,0.344,4.484,2.386,4.713,4.853
			c0.065,0.69,0.678,1.2,1.368,1.135c0.481-0.044,0.873-0.354,1.046-0.771c0.075-0.183,0.108-0.385,0.089-0.597
			C35.846,14.307,32.957,11.316,29.308,10.811z M3.19,52.232c1.502-3.632,5.151-5.73,8.873-5.452
			c-4.032,6.905-6.687,11.413-8.084,13.726C2.42,58.129,2.023,55.046,3.19,52.232z M5.851,62.265
			c0.89-1.465,2.447-4.088,4.703-7.932c-1.142,4.352-2.049,7.838-2.489,9.524c-0.024-0.01-0.047-0.017-0.071-0.026
			c-0.838-0.346-1.597-0.81-2.261-1.364C5.775,62.399,5.808,62.335,5.851,62.265z M19.596,59.027
			c-1.533,3.7-5.296,5.812-9.088,5.433c0.674-2.595,2.433-9.333,4.446-16.957C19.363,49.436,21.445,54.561,19.596,59.027z
			 M13.887,26.405c1.079-2.607,3.267-4.419,5.788-5.137c-0.677,2.724-1.967,7.695-3.842,14.829
			C13.359,33.632,12.47,29.826,13.887,26.405z M30.293,33.201c-1.776,4.286-6.541,6.44-10.884,5.06
			c3.915-6.727,7.396-12.62,8.763-14.916C30.773,25.801,31.741,29.701,30.293,33.201z M25.488,21.598
			c0.212,0.088,0.417,0.191,0.619,0.294c-1.095,1.848-3.848,6.498-7.124,12.105c1.7-6.485,2.826-10.858,3.354-13.028
			c0.002-0.013,0.007-0.024,0.007-0.035C23.399,20.965,24.459,21.172,25.488,21.598z"/>
		<g>
			<path fill="#E5087E" d="M56.096,73.887c0,1.109,0.907,2.016,2.016,2.016h17.984c1.109,0,2.016-0.907,2.016-2.016V27.553H56.096
				V73.887z"/>
			<path fill="#E5087E" d="M78.112,16.614c0-1.109-0.907-2.016-2.016-2.016H58.112c-1.109,0-2.016,0.907-2.016,2.016v6.905h22.016
				V16.614z"/>
			<rect x="56.096" y="23.519" fill="#8C1E5D" width="22.016" height="4.034"/>
		</g>
		<g>
			<path fill="#8C1E5D" d="M52.133,6.791c0-1.109-0.907-2.016-2.016-2.016H38.23c-1.109,0-2.016,0.907-2.016,2.016v6.975h15.919
				V6.791z"/>
			<path fill="#8C1E5D" d="M36.214,73.887c0,1.109,0.907,2.016,2.016,2.016h11.887c1.109,0,2.016-0.907,2.016-2.016v-6.976H36.214
				V73.887z"/>
			<rect x="36.214" y="17.8" fill="#8C1E5D" width="15.919" height="45.079"/>
			<rect x="36.214" y="13.766" fill="#E5087E" width="15.919" height="4.034"/>
			<rect x="36.214" y="62.88" fill="#E5087E" width="15.919" height="4.032"/>
		</g>
		<path fill="#8C1E5D" d="M75.088,65.819c0,0.556-0.454,1.01-1.01,1.01H60.131c-0.556,0-1.01-0.454-1.01-1.01v-6.411
			c0-0.553,0.454-1.008,1.01-1.008h13.947c0.556,0,1.01,0.454,1.01,1.008V65.819z"/>
	</g>
</g>
</svg>
