<?xml version="1.0" encoding="utf-8"?>
<!-- Generator: Adobe Illustrator 18.0.0, SVG Export Plug-In . SVG Version: 6.00 Build 0)  -->
<!DOCTYPE svg PUBLIC "-//W3C//DTD SVG 1.1//EN" "http://www.w3.org/Graphics/SVG/1.1/DTD/svg11.dtd">
<svg version="1.1" id="Layer_1" xmlns="http://www.w3.org/2000/svg" xmlns:xlink="http://www.w3.org/1999/xlink" x="0px" y="0px"
	 viewBox="0 0 136.23 76" enable-background="new 0 0 136.23 76" xml:space="preserve">
<path fill-rule="evenodd" clip-rule="evenodd" fill="#FFFFFF" d="M24.963,31.607c-5.15,0-10.301,0.013-15.451-0.009
	c-1.327-0.005-2.655-0.11-3.917-0.595c-1.41-0.542-2.614-1.372-3.59-2.536c-1.018-1.217-1.68-2.598-1.903-4.168
	c-0.357-2.527,0.211-4.811,1.845-6.809c0.756-0.924,1.673-1.641,2.711-2.213c0.721-0.399,0.908-0.771,0.776-1.593
	c-0.339-2.093-0.16-4.138,0.623-6.112c0.965-2.433,2.604-4.3,4.85-5.631c1.392-0.826,2.898-1.286,4.509-1.445
	c2.07-0.204,4.051,0.107,5.936,0.978c1.051,0.486,2.011,1.123,2.853,1.927c0.318,0.303,0.623,0.619,0.933,0.93
	c0.639,0.639,0.925,0.658,1.651,0.132c1.235-0.894,2.585-1.532,4.096-1.797c2.986-0.522,5.692,0.148,8.014,2.081
	c2.006,1.671,3.228,3.825,3.475,6.472c0.017,0.175,0.055,0.35,0.055,0.523c-0.001,0.677,0.317,1.12,0.949,1.347
	c0.893,0.32,1.751,0.707,2.527,1.262c2.155,1.541,3.544,3.593,3.956,6.217c0.53,3.368-0.486,6.261-2.979,8.579
	c-1.577,1.465-3.492,2.235-5.649,2.406c-0.727,0.058-1.448,0.051-2.171,0.052C34.365,31.609,29.664,31.607,24.963,31.607z"/>
<g>
	<circle fill-rule="evenodd" clip-rule="evenodd" fill="#FFC929" cx="28.054" cy="63.654" r="12.346"/>
	<circle fill-rule="evenodd" clip-rule="evenodd" fill="#FFFFFF" cx="28.054" cy="63.654" r="6.173"/>
	<circle fill-rule="evenodd" clip-rule="evenodd" fill="#FFC929" cx="116.143" cy="63.654" r="12.346"/>
	<circle fill-rule="evenodd" clip-rule="evenodd" fill="#FFFFFF" cx="116.143" cy="63.654" r="6.174"/>
	<g>
		<path fill="#E81F89" d="M9.796,38.938c4.211-5.031,6.641-7.661,12.503-13.766c10.114-10.536,12.649-14.246,28.017-14.246
			c14.841,0,18.144,0,21.559,0c10.245,0,15.177,3.794,20.3,8.916c3.32,3.321,5.407,5.408,8.158,8.159
			c2.751,2.75,4.371,3.472,10.705,3.983c12.111,0.98,18.269,3.805,21.965,9.524c-1.665,1.165-2.757,3.095-2.757,5.282
			c0,3.405,2.641,6.186,5.985,6.423c0.005,2.292-0.265,4.638-0.919,6.62c-0.554,1.678-1.553,2.593-1.553,2.593
			c-1.288,1.232-2.658,0.475-2.711-0.82c0,0,0,0-0.2-0.976c-1.4-6.839-7.452-11.982-14.704-11.982
			c-8.288,0-15.008,6.718-15.008,15.006c0,1.817-0.818,2.479-2.823,2.479H45.885c-1.667,0-2.613-0.389-2.748-2.554
			c0,0-0.17-1.886-0.353-2.823c-1.351-6.902-7.432-12.108-14.729-12.108c-7.17,0-13.167,5.027-14.654,11.751
			c-0.232,1.048-0.3,2.198-0.3,2.198c-0.145,1.631-1.365,2.141-2.858,1.615c0,0-2.516-0.676-4.565-2.682
			c-2.234-2.186-2.981-5.211-2.981-8.239C2.697,46.626,5.836,43.67,9.796,38.938z"/>
		<path fill="#FFC929" d="M130.245,46.789c0-2.187,1.092-4.117,2.757-5.282c0.731,1.131,1.368,2.374,1.934,3.741
			c0.772,1.866,1.286,4.865,1.294,7.964C132.886,52.975,130.245,50.193,130.245,46.789z"/>
	</g>
	<path fill="#FFFFFF" d="M61.746,20.569c0-1.666,1.364-3.03,3.031-3.03L75.81,17.56c3.654,0,6.563,1.485,8.672,3.594
		c0,0,5.582,6.069,7.57,8.34c1.988,2.272,1.4,5.288-1.843,5.288c-3.975,0-25.431,0-25.431,0c-1.667,0-3.031-1.364-3.031-3.03V20.569
		z"/>
	<path fill="#FFFFFF" d="M55.627,21.165c0-1.667-1.347-3.244-2.993-3.505c0,0-5.945-0.944-12.449,2.103
		c-7.881,3.692-9.344,12.029-9.344,12.029c-0.367,1.626,0.697,2.958,2.363,2.96l19.392,0.026c1.667,0.002,3.031-1.359,3.031-3.025
		V21.165z"/>
</g>
</svg>
