<?xml version="1.0" encoding="utf-8"?>
<!-- Generator: Adobe Illustrator 18.0.0, SVG Export Plug-In . SVG Version: 6.00 Build 0)  -->
<!DOCTYPE svg PUBLIC "-//W3C//DTD SVG 1.1//EN" "http://www.w3.org/Graphics/SVG/1.1/DTD/svg11.dtd">
<svg version="1.1" id="Layer_1" xmlns="http://www.w3.org/2000/svg" xmlns:xlink="http://www.w3.org/1999/xlink" x="0px" y="0px"
	 viewBox="0 0 120.72 76" enable-background="new 0 0 120.72 76" xml:space="preserve">
<path fill="#FFFFFF" d="M120.297,11.987c-0.001-0.005-0.002-0.01-0.004-0.016c-0.005-0.024-0.012-0.046-0.017-0.07
	c-1.363-5.899-6.018-10.296-12.127-10.562c-0.401-0.036-0.805-0.058-1.215-0.058c-4.672,0-8.79,2.404-11.28,6.07
	c-0.089,0.131-0.226,0.311-0.425,0.292c-0.199,0.018-0.336-0.161-0.425-0.292c-2.49-3.666-6.609-6.07-11.281-6.07
	c-0.409,0-0.814,0.022-1.214,0.058c-6.109,0.266-10.764,4.663-12.127,10.562c-0.006,0.024-0.012,0.047-0.017,0.07
	c-0.001,0.005-0.002,0.01-0.003,0.016c-0.275,1.119-0.422,2.291-0.422,3.498c0,4.28,1.136,8.411,3.437,12.28
	c3.321,5.582,9.047,10.525,14.887,14.936c3.395,2.565,5.585,3.875,7.165,3.875c1.646,0,3.674-1.311,7.166-3.875
	c5.896-4.331,11.566-9.354,14.886-14.936c2.302-3.869,3.437-8,3.437-12.28C120.72,14.278,120.573,13.106,120.297,11.987z"/>
<g>
	<path fill="#FDB62C" d="M81.562,15.536c-0.372-0.035-1.097-0.064-1.61-0.064H58.299c-0.513,0-0.933-0.42-0.933-0.932V9.255
		c0-0.513-0.033-1.351-0.073-1.863c0,0-0.042-0.533-0.254-1.208c-0.722-2.291-2.571-4.087-4.895-4.733
		c-0.608-0.169-0.978-0.195-0.978-0.195c-0.512-0.036-1.35-0.065-1.864-0.065H34.38c-0.513,0-1.351,0.033-1.862,0.073
		c0,0-0.529,0.041-1.203,0.253c-2.552,0.802-4.491,3.003-4.912,5.7c-0.057,0.36-0.057,0.36-0.057,0.36
		c-0.016,0.41-0.029,1.165-0.029,1.678v5.285c0,0.513-0.42,0.932-0.932,0.932H3.731c-0.513,0-1.346,0.054-1.852,0.119
		c0,0,0,0-0.391,0.209c-0.564,0.302-1.015,0.791-1.267,1.384c-0.142,0.334-0.142,0.334-0.142,0.334C0.035,17.932,0,18.69,0,19.203
		v53.067c0,0.513,0.026,1.221,0.057,1.573c0,0,0,0,0.104,0.292c0.251,0.703,0.776,1.279,1.445,1.597
		c0.362,0.172,0.362,0.172,0.362,0.172C2.425,75.957,3.218,76,3.731,76h76.221c0.513,0,1.321-0.047,1.795-0.104c0,0,0,0,0.373-0.185
		c0.593-0.294,1.068-0.792,1.332-1.401c0.148-0.34,0.148-0.34,0.148-0.34c0.045-0.422,0.082-1.187,0.082-1.7V19.203
		c0-0.513-0.042-1.302-0.094-1.753c0,0,0,0-0.168-0.359c-0.309-0.659-0.868-1.179-1.552-1.438
		C81.562,15.536,81.562,15.536,81.562,15.536z M31.252,9.255c0-0.513,0.087-1.343,0.195-1.845c0,0,0.051-0.242,0.449-0.64
		c0.397-0.397,0.639-0.449,0.639-0.449c0.502-0.107,1.332-0.194,1.845-0.194h14.922c0.513,0,1.343,0.087,1.845,0.194
		c0,0,0.242,0.052,0.64,0.449c0.397,0.397,0.449,0.64,0.449,0.64c0.107,0.502,0.194,1.332,0.194,1.845v5.285
		c0,0.513-0.42,0.932-0.933,0.932H32.184c-0.513,0-0.932-0.42-0.932-0.932V9.255z"/>
	<path fill="#EA1E89" d="M83.682,28.833h-13.1v-2.039c0-2.411-1.954-4.365-4.365-4.365c-2.41,0-4.365,1.954-4.365,4.365v2.039
		H21.831v-2.039c0-2.411-1.954-4.365-4.365-4.365c-2.41,0-4.365,1.954-4.365,4.365v2.039H0v2.27h13.101v2.039
		c0,2.411,1.954,4.365,4.365,4.365c2.411,0,4.365-1.954,4.365-4.365v-2.039h40.021v2.039c0,2.411,1.955,4.365,4.365,4.365
		c2.411,0,4.365-1.954,4.365-4.365v-2.039h13.1V28.833z"/>
	<path fill="#FFFFFF" d="M47.035,45.52c-0.457,0-0.831-0.374-0.831-0.831v-7.064c0-0.457-0.374-0.831-0.831-0.831h-7.064
		c-0.457,0-0.831,0.374-0.831,0.831v7.064c0,0.457-0.374,0.831-0.831,0.831h-7.064c-0.457,0-0.831,0.374-0.831,0.831v7.065
		c0,0.457,0.374,0.831,0.831,0.831h7.064c0.457,0,0.831,0.374,0.831,0.831v7.064c0,0.458,0.374,0.831,0.831,0.831h7.064
		c0.457,0,0.831-0.373,0.831-0.831v-7.064c0-0.457,0.374-0.831,0.831-0.831H54.1c0.457,0,0.831-0.374,0.831-0.831v-7.065
		c0-0.457-0.374-0.831-0.831-0.831H47.035z"/>
</g>
</svg>
