<?xml version="1.0" encoding="utf-8"?>
<!-- Generator: Adobe Illustrator 18.0.0, SVG Export Plug-In . SVG Version: 6.00 Build 0)  -->
<!DOCTYPE svg PUBLIC "-//W3C//DTD SVG 1.1//EN" "http://www.w3.org/Graphics/SVG/1.1/DTD/svg11.dtd">
<svg version="1.1" id="Layer_1" xmlns="http://www.w3.org/2000/svg" xmlns:xlink="http://www.w3.org/1999/xlink" x="0px" y="0px"
	 viewBox="0 0 155.439 76" enable-background="new 0 0 155.439 76" xml:space="preserve">
<path fill-rule="evenodd" clip-rule="evenodd" fill="#FFFFFF" d="M119.068,48.919c-7.481,0-14.964,0.019-22.447-0.013
	c-1.927-0.008-3.857-0.16-5.69-0.865c-2.048-0.787-3.797-1.993-5.215-3.684c-1.479-1.768-2.441-3.774-2.765-6.055
	c-0.519-3.671,0.307-6.989,2.681-9.891c1.098-1.342,2.43-2.384,3.939-3.215c1.048-0.58,1.319-1.12,1.128-2.314
	c-0.493-3.041-0.232-6.012,0.905-8.879c1.402-3.534,3.782-6.247,7.045-8.18c2.022-1.2,4.211-1.868,6.551-2.1
	c3.008-0.296,5.885,0.156,8.624,1.42c1.527,0.707,2.922,1.631,4.145,2.799c0.462,0.44,0.905,0.9,1.356,1.352
	c0.928,0.928,1.344,0.955,2.398,0.192c1.794-1.299,3.755-2.225,5.951-2.61c4.338-0.758,8.269,0.216,11.642,3.024
	c2.914,2.427,4.69,5.556,5.049,9.402c0.025,0.254,0.08,0.508,0.08,0.759c-0.001,0.984,0.461,1.627,1.379,1.956
	c1.297,0.465,2.543,1.028,3.671,1.834c3.131,2.238,5.148,5.219,5.747,9.032c0.77,4.892-0.707,9.096-4.327,12.462
	c-2.29,2.128-5.072,3.247-8.206,3.496c-1.056,0.084-2.104,0.074-3.154,0.075C132.726,48.922,125.897,48.919,119.068,48.919z"/>
<g>
	<g>
		<path fill="#A5CC3A" d="M25.465,9.288c-0.213,0.106-0.406,0.252-0.525,0.418L12.676,26.959L0.411,44.212
			C0.185,44.53,0,45.109,0,45.499v29.793C0,75.681,0.319,76,0.709,76h49.287c0.195,0,0.452,0,0.709,0V44.79L25.465,9.288z"/>
		<path fill="#FFFFFF" d="M13.968,65.298c0,0.171-0.14,0.312-0.312,0.312H9.642c-0.171,0-0.312-0.14-0.312-0.312v-4.015
			c0-0.17,0.14-0.312,0.312-0.312h4.014c0.171,0,0.312,0.141,0.312,0.312V65.298z"/>
		<path fill="#FFFFFF" d="M13.968,58.563c0,0.172-0.14,0.312-0.312,0.312H9.642c-0.171,0-0.312-0.139-0.312-0.312v-4.014
			c0-0.171,0.14-0.312,0.312-0.312h4.014c0.171,0,0.312,0.14,0.312,0.312V58.563z"/>
		<path fill="#FFFFFF" d="M20.701,65.298c0,0.171-0.14,0.312-0.312,0.312h-4.014c-0.171,0-0.312-0.14-0.312-0.312v-4.015
			c0-0.17,0.14-0.312,0.312-0.312h4.014c0.171,0,0.312,0.141,0.312,0.312V65.298z"/>
		<path fill="#FFFFFF" d="M20.701,58.563c0,0.172-0.14,0.312-0.312,0.312h-4.014c-0.171,0-0.312-0.139-0.312-0.312v-4.014
			c0-0.171,0.14-0.312,0.312-0.312h4.014c0.171,0,0.312,0.14,0.312,0.312V58.563z"/>
		<path fill="#FFFFFF" d="M24.305,44.996c0,0.17-0.141,0.312-0.312,0.312h-4.014c-0.172,0-0.312-0.141-0.312-0.312V40.98
			c0-0.171,0.14-0.312,0.312-0.312h4.014c0.171,0,0.312,0.14,0.312,0.312V44.996z"/>
		<path fill="#FFFFFF" d="M24.305,38.26c0,0.172-0.141,0.312-0.312,0.312h-4.014c-0.172,0-0.312-0.14-0.312-0.312v-4.014
			c0-0.172,0.14-0.312,0.312-0.312h4.014c0.171,0,0.312,0.14,0.312,0.312V38.26z"/>
		<path fill="#FFFFFF" d="M26.4,34.247c0-0.172,0.141-0.312,0.312-0.312h4.013c0.171,0,0.312,0.14,0.312,0.312v4.014
			c0,0.172-0.141,0.312-0.312,0.312h-4.013c-0.17,0-0.312-0.14-0.312-0.312V34.247z"/>
		<path fill="#FFFFFF" d="M26.4,44.996V40.98c0-0.171,0.141-0.312,0.312-0.312h4.013c0.171,0,0.312,0.14,0.312,0.312v4.016
			c0,0.17-0.141,0.312-0.312,0.312h-4.013C26.542,45.307,26.4,45.166,26.4,44.996z"/>
		<path fill="#FFFFFF" d="M34.641,65.298c0,0.171-0.14,0.312-0.312,0.312h-4.014c-0.171,0-0.312-0.14-0.312-0.312v-4.015
			c0-0.17,0.14-0.312,0.312-0.312h4.014c0.171,0,0.312,0.141,0.312,0.312V65.298z"/>
		<path fill="#FFFFFF" d="M34.641,58.563c0,0.172-0.14,0.312-0.312,0.312h-4.014c-0.171,0-0.312-0.139-0.312-0.312v-4.014
			c0-0.171,0.14-0.312,0.312-0.312h4.014c0.171,0,0.312,0.14,0.312,0.312V58.563z"/>
		<path fill="#FFFFFF" d="M41.374,65.298c0,0.171-0.14,0.312-0.312,0.312h-4.014c-0.171,0-0.312-0.14-0.312-0.312v-4.015
			c0-0.17,0.141-0.312,0.312-0.312h4.014c0.171,0,0.312,0.141,0.312,0.312V65.298z"/>
		<path fill="#FFFFFF" d="M41.374,58.563c0,0.172-0.14,0.312-0.312,0.312h-4.014c-0.171,0-0.312-0.139-0.312-0.312v-4.014
			c0-0.171,0.141-0.312,0.312-0.312h4.014c0.171,0,0.312,0.14,0.312,0.312V58.563z"/>
	</g>
	<g>
		<path fill="#378540" d="M64.13,44.79c0.39,0,0.894-0.26,1.12-0.578l11.854-16.676c0.226-0.318,0.596-0.318,0.821,0l11.856,16.676
			c0.226,0.318,0.73,0.578,1.12,0.578h5.319h7.97c-0.073-0.219-0.169-0.428-0.274-0.578L91.648,26.959L79.381,9.706
			c-0.226-0.318-0.73-0.578-1.119-0.578H26.06c-0.187,0-0.399,0.062-0.595,0.159l25.24,35.502h8.786H64.13z"/>
	</g>
	<g>
		<path fill="#FDB62C" d="M104.189,44.79h-7.97H90.9c-0.39,0-0.894-0.26-1.12-0.578L77.925,27.536c-0.225-0.318-0.595-0.318-0.821,0
			L65.25,44.212c-0.227,0.318-0.731,0.578-1.12,0.578h-4.639h-8.786V76c0.257,0,0.514,0,0.709,0h52.202
			c0.391,0,0.709-0.319,0.709-0.709V45.499C104.324,45.292,104.272,45.035,104.189,44.79z"/>
		<path fill="#FFFFFF" d="M66.129,65.298c0,0.171-0.14,0.312-0.312,0.312h-4.014c-0.171,0-0.312-0.14-0.312-0.312v-4.015
			c0-0.17,0.14-0.312,0.312-0.312h4.014c0.171,0,0.312,0.141,0.312,0.312V65.298z"/>
		<path fill="#FFFFFF" d="M66.129,58.563c0,0.172-0.14,0.312-0.312,0.312h-4.014c-0.171,0-0.312-0.139-0.312-0.312v-4.014
			c0-0.171,0.14-0.312,0.312-0.312h4.014c0.171,0,0.312,0.14,0.312,0.312V58.563z"/>
		<path fill="#FFFFFF" d="M72.863,65.298c0,0.171-0.139,0.312-0.312,0.312h-4.014c-0.171,0-0.312-0.14-0.312-0.312v-4.015
			c0-0.17,0.14-0.312,0.312-0.312h4.014c0.172,0,0.312,0.141,0.312,0.312V65.298z"/>
		<path fill="#FFFFFF" d="M72.863,58.563c0,0.172-0.139,0.312-0.312,0.312h-4.014c-0.171,0-0.312-0.139-0.312-0.312v-4.014
			c0-0.171,0.14-0.312,0.312-0.312h4.014c0.172,0,0.312,0.14,0.312,0.312V58.563z"/>
		<path fill="#FFFFFF" d="M86.803,65.298c0,0.171-0.14,0.312-0.312,0.312h-4.014c-0.171,0-0.312-0.14-0.312-0.312v-4.015
			c0-0.17,0.14-0.312,0.312-0.312h4.014c0.171,0,0.312,0.141,0.312,0.312V65.298z"/>
		<path fill="#FFFFFF" d="M86.803,58.563c0,0.172-0.14,0.312-0.312,0.312h-4.014c-0.171,0-0.312-0.139-0.312-0.312v-4.014
			c0-0.171,0.14-0.312,0.312-0.312h4.014c0.171,0,0.312,0.14,0.312,0.312V58.563z"/>
		<path fill="#FFFFFF" d="M93.536,65.298c0,0.171-0.14,0.312-0.312,0.312H89.21c-0.171,0-0.312-0.14-0.312-0.312v-4.015
			c0-0.17,0.14-0.312,0.312-0.312h4.014c0.171,0,0.312,0.141,0.312,0.312V65.298z"/>
		<path fill="#FFFFFF" d="M93.536,58.563c0,0.172-0.14,0.312-0.312,0.312H89.21c-0.171,0-0.312-0.139-0.312-0.312v-4.014
			c0-0.171,0.14-0.312,0.312-0.312h4.014c0.171,0,0.312,0.14,0.312,0.312V58.563z"/>
	</g>
</g>
</svg>
