<?xml version="1.0" encoding="utf-8"?>
<!-- Generator: Adobe Illustrator 18.0.0, SVG Export Plug-In . SVG Version: 6.00 Build 0)  -->
<!DOCTYPE svg PUBLIC "-//W3C//DTD SVG 1.1//EN" "http://www.w3.org/Graphics/SVG/1.1/DTD/svg11.dtd">
<svg version="1.1" id="Layer_1" xmlns="http://www.w3.org/2000/svg" xmlns:xlink="http://www.w3.org/1999/xlink" x="0px" y="0px"
	 viewBox="0 0 126.326 76" enable-background="new 0 0 126.326 76" xml:space="preserve">
<g>
	<path fill="#FFFFFF" d="M117.566,30.378c0.028-0.201,0.022-0.407,0.022-0.615c0-5.087-4.126-9.212-9.216-9.212
		c-1.494,0-2.859,0.453-4.148,0.994c-1.252,0.524-1.855-0.001-2.175-0.366c-2.61-2.975-6.438-4.854-10.706-4.854
		c-7.868,0-14.246,6.38-14.246,14.248c0,0.629,0.051,1.248,0.123,1.858c0.185,1.566-0.693,1.795-1.156,1.999
		c-4.547,2.001-7.723,6.546-7.723,11.832c0,7.134,5.783,12.916,12.92,12.916c7.136,0,23.153,0,30.949,0
		c7.798,0,14.117-6.321,14.117-14.116c0-5.412-3.048-10.111-7.518-12.48C118.33,32.331,117.344,31.993,117.566,30.378z"/>
	<g>
		<g>
			<path fill="#AFCB36" d="M78.073,38.751L10.836,23.846c-0.52-0.117-1.041,0.215-1.155,0.736l-1.39,6.266l-1.598,7.214H5.721H0.971
				C0.436,38.062,0,38.497,0,39.032v35.996C0,75.561,0.436,76,0.971,76h68.867c0.534,0,1.065-0.428,1.179-0.949l7.792-35.142
				C78.925,39.387,78.592,38.865,78.073,38.751z"/>
		</g>
		<g>
			<polygon fill="#D2E183" points="74.844,41.809 70.808,40.903 70.808,60.01 			"/>
			<g>
				<polygon fill="#D2E183" points="67.347,72.548 29.711,72.641 29.701,41.652 67.347,41.747 				"/>
			</g>
			<g>
				<path fill="#D2E183" d="M5.228,47.769c0.04,0.794,0.648,1.442,1.561,1.442c0.82,0,1.479-0.542,1.479-1.402
					c0-0.978-0.727-1.44-1.518-1.44c-0.582,0-1.044,0.265-1.322,0.581c-0.173-0.066-1.481-0.515-1.665-0.569l1.017-4.402h4.837
					v1.572H6.022l-0.424,1.893c0.37-0.345,0.978-0.53,1.547-0.53c1.717,0,2.934,1.03,2.934,2.867c0,1.599-1.229,2.987-3.291,2.987
					c-1.864,0-3.159-1.268-3.265-2.617L5.228,47.769z"/>
				<path fill="#D2E183" d="M11.427,43.222c0.568-0.846,1.492-1.442,2.829-1.442c1.333,0,2.26,0.596,2.814,1.442
					c0.581,0.885,0.767,1.957,0.767,3.053c0,1.098-0.186,2.168-0.767,3.053c-0.554,0.846-1.481,1.44-2.814,1.44
					c-1.336,0-2.261-0.594-2.829-1.44c-0.582-0.885-0.754-1.955-0.754-3.053C10.674,45.179,10.845,44.108,11.427,43.222z
					 M12.96,48.456c0.264,0.424,0.673,0.701,1.296,0.701c0.634,0,1.017-0.277,1.28-0.701c0.344-0.515,0.476-1.28,0.476-2.18
					c0-0.898-0.131-1.667-0.476-2.182c-0.264-0.422-0.646-0.699-1.28-0.699c-0.623,0-1.032,0.277-1.296,0.699
					c-0.331,0.515-0.463,1.285-0.463,2.182C12.497,47.175,12.629,47.941,12.96,48.456z"/>
				<path fill="#D2E183" d="M19.232,43.222c0.568-0.846,1.492-1.442,2.828-1.442c1.335,0,2.261,0.596,2.816,1.442
					c0.581,0.885,0.766,1.957,0.766,3.053c0,1.098-0.185,2.168-0.766,3.053c-0.555,0.846-1.481,1.44-2.816,1.44
					c-1.335,0-2.26-0.594-2.828-1.44c-0.581-0.885-0.754-1.955-0.754-3.053C18.478,45.179,18.651,44.108,19.232,43.222z
					 M20.765,48.456c0.265,0.424,0.674,0.701,1.295,0.701c0.634,0,1.019-0.277,1.282-0.701c0.344-0.515,0.475-1.28,0.475-2.18
					c0-0.898-0.13-1.667-0.475-2.182c-0.264-0.422-0.648-0.699-1.282-0.699c-0.621,0-1.03,0.277-1.295,0.699
					c-0.33,0.515-0.462,1.285-0.462,2.182C20.302,47.175,20.435,47.941,20.765,48.456z"/>
			</g>
			<g>
				<polygon fill="#D2E183" points="38.108,33.571 37.113,38.062 58.132,38.062 				"/>
			</g>
			<g>
				<path fill="#D2E183" d="M13.767,37.511c2.013,0.446,3.512-0.642,3.86-2.203c0.397-1.795-0.567-3.063-2.245-3.436
					c-0.553-0.123-1.187-0.074-1.624,0.181l0.823-1.753l3.509,0.777l0.34-1.535l-4.722-1.048l-1.945,4.077
					c0.168,0.093,1.348,0.815,1.502,0.916c0.34-0.25,0.849-0.408,1.417-0.282c0.774,0.172,1.384,0.781,1.172,1.736
					c-0.186,0.839-0.949,1.225-1.749,1.048c-0.89-0.198-1.344-0.962-1.211-1.745l-1.747,0.005
					C10.957,35.588,11.948,37.107,13.767,37.511z"/>
				<path fill="#D2E183" d="M25.526,35.515c0.239-1.071,0.288-2.157-0.087-3.147c-0.359-0.945-1.134-1.727-2.436-2.017
					c-1.305-0.288-2.336,0.092-3.074,0.794c-0.759,0.74-1.159,1.747-1.396,2.818c-0.239,1.071-0.302,2.153,0.074,3.144
					c0.128,0.328,0.308,0.633,0.539,0.907l5.249,0.013C24.98,37.33,25.32,36.447,25.526,35.515z M22.808,37.147
					c-0.349,0.356-0.783,0.543-1.403,0.407c-0.606-0.135-0.946-0.495-1.112-0.966c-0.212-0.575-0.175-1.351,0.02-2.229
					c0.194-0.877,0.49-1.598,0.925-2.029c0.349-0.355,0.809-0.538,1.416-0.404c0.619,0.139,0.934,0.491,1.099,0.962
					c0.225,0.577,0.186,1.355-0.007,2.233C23.551,35.997,23.255,36.717,22.808,37.147z"/>
				<path fill="#D2E183" d="M27.932,36.049c0.194-0.878,0.49-1.599,0.925-2.03c0.349-0.356,0.809-0.538,1.416-0.403
					c0.62,0.139,0.934,0.491,1.099,0.961c0.225,0.577,0.188,1.356-0.007,2.233c-0.102,0.463-0.234,0.88-0.401,1.237l1.948,0.004
					c0.092-0.274,0.171-0.558,0.234-0.847c0.239-1.071,0.29-2.155-0.087-3.146c-0.359-0.946-1.133-1.727-2.437-2.016
					c-1.303-0.288-2.335,0.091-3.073,0.794c-0.759,0.74-1.159,1.747-1.396,2.818c-0.179,0.802-0.259,1.608-0.129,2.379l1.818,0.005
					C27.714,37.494,27.765,36.809,27.932,36.049z"/>
			</g>
		</g>
		<g>
			<circle fill="#FDB813" cx="53.565" cy="12.975" r="12.972"/>
		</g>
		<g>
			<path fill="#FEE57F" d="M53.561,24.14c-1.467,0-2.902-0.286-4.267-0.852c-2.753-1.141-4.9-3.285-6.041-6.042
				c-1.142-2.755-1.142-5.789-0.002-8.543c1.736-4.187,5.786-6.893,10.318-6.893c1.467,0,2.902,0.288,4.267,0.853
				c5.686,2.355,8.396,8.897,6.04,14.584C62.143,21.435,58.093,24.14,53.561,24.14z M53.569,3.522c-3.837,0-7.269,2.291-8.735,5.836
				c-0.967,2.332-0.967,4.9,0,7.234c0.966,2.332,2.782,4.148,5.115,5.115c1.156,0.478,2.371,0.721,3.612,0.721
				c3.837,0,7.265-2.291,8.735-5.836c1.994-4.814-0.3-10.353-5.115-12.347C56.024,3.765,54.808,3.522,53.569,3.522z"/>
		</g>
		<g>
			<g>
				<path fill="#FEE57F" d="M50.168,13.998c-0.432,1.305,0.108,2.646,1.483,3.217c1.247,0.515,2.606,0.09,3.154-1.23
					c0.608-1.469-0.172-2.65-1.382-3.152c-0.844-0.349-1.704-0.297-2.323,0.005l-1.762-1.61l3.953-5.392l6.514,2.698l-0.798,1.927
					l-5.029-2.084l-1.98,2.705c0.734-0.319,1.773-0.232,2.617,0.118c2.368,0.98,3.467,3.155,2.432,5.649
					c-0.927,2.239-3.428,3.396-6.179,2.256c-2.569-1.063-3.624-3.499-2.995-5.431L50.168,13.998z"/>
			</g>
		</g>
		<g>
			<circle fill="#FDB813" cx="26.873" cy="12.24" r="9.729"/>
		</g>
		<g>
			<path fill="#FEE57F" d="M26.873,20.107c-4.338,0-7.869-3.528-7.869-7.867c0-4.338,3.531-7.867,7.869-7.867
				s7.866,3.529,7.866,7.867C34.739,16.578,31.211,20.107,26.873,20.107z M26.873,6.085c-3.394,0-6.158,2.761-6.158,6.155
				c0,3.394,2.764,6.156,6.158,6.156c3.392,0,6.154-2.761,6.154-6.156C33.027,8.846,30.266,6.085,26.873,6.085z"/>
		</g>
		<g>
			<g>
				<path fill="#FEE57F" d="M23.571,15.342v-4.146h-1.522v-1.032c0.954-0.01,1.631-0.551,1.74-1.199h1.326v6.377H23.571z"/>
			</g>
			<g>
				<path fill="#FEE57F" d="M26.49,9.908c0.422-0.638,1.129-1.09,2.162-1.09c1.04,0,1.748,0.452,2.172,1.09
					c0.442,0.669,0.56,1.463,0.56,2.251c0,0.787-0.118,1.582-0.56,2.25c-0.424,0.629-1.132,1.09-2.172,1.09
					c-1.032,0-1.74-0.461-2.162-1.09c-0.444-0.668-0.561-1.463-0.561-2.25C25.93,11.372,26.047,10.577,26.49,9.908z M27.719,13.544
					c0.176,0.354,0.461,0.591,0.933,0.591c0.482,0,0.756-0.237,0.933-0.591c0.187-0.372,0.246-0.874,0.246-1.385
					c0-0.511-0.059-1.012-0.246-1.386c-0.177-0.353-0.451-0.589-0.933-0.589c-0.472,0-0.757,0.236-0.933,0.589
					c-0.178,0.374-0.237,0.874-0.237,1.386C27.482,12.67,27.541,13.172,27.719,13.544z"/>
			</g>
		</g>
	</g>
</g>
</svg>
