<?xml version="1.0" encoding="utf-8"?>
<!-- Generator: Adobe Illustrator 18.0.0, SVG Export Plug-In . SVG Version: 6.00 Build 0)  -->
<!DOCTYPE svg PUBLIC "-//W3C//DTD SVG 1.1//EN" "http://www.w3.org/Graphics/SVG/1.1/DTD/svg11.dtd">
<svg version="1.1" id="Layer_3" xmlns="http://www.w3.org/2000/svg" xmlns:xlink="http://www.w3.org/1999/xlink" x="0px" y="0px"
	 viewBox="0 0 138.377 76" enable-background="new 0 0 138.377 76" xml:space="preserve">
<g id="Layer_2">
</g>
<g>
	<path fill="#FFFFFF" d="M137.942,22.328c-0.001-0.005-0.002-0.011-0.003-0.016c-0.006-0.024-0.012-0.047-0.018-0.071
		c-1.4-6.064-6.185-10.583-12.463-10.856c-0.412-0.036-0.827-0.059-1.249-0.059c-4.802,0-9.035,2.471-11.594,6.238
		c-0.092,0.135-0.232,0.32-0.436,0.301c-0.204,0.019-0.345-0.165-0.437-0.301c-2.56-3.767-6.792-6.238-11.594-6.238
		c-0.421,0-0.837,0.023-1.249,0.059c-6.279,0.273-11.063,4.793-12.464,10.856c-0.005,0.024-0.012,0.047-0.017,0.071
		c-0.002,0.005-0.002,0.011-0.004,0.016c-0.282,1.151-0.434,2.355-0.434,3.596c0,4.4,1.167,8.645,3.533,12.622
		c3.414,5.738,9.299,10.818,15.301,15.352c3.49,2.636,5.74,3.984,7.365,3.984c1.692,0,3.776-1.347,7.365-3.984
		c6.06-4.451,11.888-9.614,15.301-15.352c2.366-3.977,3.534-8.222,3.534-12.622C138.377,24.683,138.225,23.479,137.942,22.328z"/>
	<g>
		<g>
			<path fill="#164882" d="M94.22,69.058H58.422v0.34c0,0.866-0.707,1.573-1.573,1.573H39.394c-0.865,0-1.573-0.707-1.573-1.573
				v-0.34H2.023C0.911,69.058,0,69.969,0,71.081v0.873C0,74.179,1.822,76,4.046,76h88.15c2.225,0,4.046-1.821,4.046-4.046v-0.873
				C96.243,69.969,95.332,69.058,94.22,69.058z"/>
			<path fill="#164882" d="M9.346,67.067h77.551c2.226,0,4.046-1.821,4.046-4.046V11.046c0-2.225-1.82-4.046-4.046-4.046H9.346
				C7.12,7,5.299,8.821,5.299,11.046V63.02C5.299,65.245,7.12,67.067,9.346,67.067z M48.121,7.928c0.589,0,1.067,0.478,1.067,1.067
				c0,0.59-0.478,1.068-1.067,1.068c-0.59,0-1.068-0.478-1.068-1.068C47.053,8.405,47.531,7.928,48.121,7.928z M9.346,13.07
				c0-1.113,0.911-2.023,2.023-2.023h73.505c1.113,0,2.023,0.911,2.023,2.023v47.927c0,1.112-0.911,2.023-2.023,2.023H11.369
				c-1.112,0-2.023-0.912-2.023-2.023V13.07z"/>
			<path fill="#239DD8" d="M11.369,63.02h73.505c1.113,0,2.023-0.912,2.023-2.023V13.07c0-1.113-0.911-2.023-2.023-2.023H11.369
				c-1.112,0-2.023,0.911-2.023,2.023v47.927C9.346,62.109,10.257,63.02,11.369,63.02z"/>
			<circle fill="#7FC8EF" cx="48.121" cy="8.995" r="1.067"/>
		</g>
		<path fill="#7FC8EF" d="M60.046,52.534c6.361,0,11.517-5.156,11.517-11.518c0-4.762-2.933-8.751-7.014-10.601
			c-0.777-0.353-0.703-0.987-0.712-1.154c-0.262-5.626-4.908-10.108-10.598-10.108c-4.127,0-7.702,2.357-9.456,5.799
			c-0.157,0.309-0.444,0.827-1.269,0.503c-0.95-0.372-1.959-0.657-3.046-0.657c-4.115,0-7.45,3.336-7.45,7.451
			c0,0.083,0.004,0.165,0.005,0.248c0.007,0.893-0.427,1.06-0.68,1.147c-3.811,1.31-6.549,4.926-6.549,9.18
			c0,5.362,4.346,9.709,9.707,9.709H60.046z"/>
	</g>
</g>
</svg>
