<?xml version="1.0" encoding="utf-8"?>
<!-- Generator: Adobe Illustrator 18.0.0, SVG Export Plug-In . SVG Version: 6.00 Build 0)  -->
<!DOCTYPE svg PUBLIC "-//W3C//DTD SVG 1.1//EN" "http://www.w3.org/Graphics/SVG/1.1/DTD/svg11.dtd">
<svg version="1.1" id="Layer_1" xmlns="http://www.w3.org/2000/svg" xmlns:xlink="http://www.w3.org/1999/xlink" x="0px" y="0px"
	 viewBox="0 0 868 574" enable-background="new 0 0 868 574" xml:space="preserve">
<path fill="#009FE4" d="M862.667,488.923c-10.036-63.709-43.754-113.548-96.077-150.984c-5.187-3.721-10.375-7.273-15.957-10.205
	c-14.509-8.006-18.438-12.243-18.419-31.329c0.15-144.124-109.537-246.957-236.907-253.384
	c-74.613-3.765-148.606,8.342-200.986,59.985c-11.756,8.448-19.227,4.567-32.195-8.401c-7.555-7.555-14.942-15.222-22.666-22.608
	c-20.467-19.507-43.754-34.955-69.295-46.795C124.382,4.06,76.23-3.495,25.936,1.467C17.141,2.312,8.514,3.609,0,5.188V574h861.821
	C867.065,547.276,867.404,518.861,862.667,488.923z"/>
</svg>
