<svg viewBox="0 0 326 183" xmlns="http://www.w3.org/2000/svg" fill-rule="evenodd" clip-rule="evenodd" stroke-linejoin="round" stroke-miterlimit="1.41"><g fill-rule="nonzero"><path d="M211.77 102.28c-1.74.92-3.14-.07-3.46-1.4-.44-1.82.4-3.96 2.3-4.48 1.75-.48 3.44.76 3.36 2.6-.06 1.53-1.1 2.72-2.2 3.28zM326 119.98l-.03-.15c-.2-1.64-1.5-2.93-3.13-3.13l-.14-.02h-5.59c-3.98 0-5.5-3.95-6.25-5.48-.75-1.48-3.57-6.26-4.1-7.12-2.14-3.47-3.92-5.87-2.82-9.77 1.2-4.2 4.5-7.22 8.47-8.23.7-.17.96-.2.96-.2.63-.07.93-.6.66-1.18 0-.02-.2-.42-.6-1.1-2.25-3.73-5.86-6.64-10.38-7.9-8.34-2.35-16.97 1.7-20.66 9.18-.33.68-.46 1.02-.46 1.02-.23.6-.92.93-1.53.74l-1-.3c-4.37-1.2-9-1.92-13.77-2.05-.56-.03-1.12-.04-1.7-.04-17.22 0-32.47 7.5-41.76 19-.6.73-2.5 3.5-3.18 4-.76.55-1.36.67-2.02.67-.5 0-.98-.07-1.47-.17-.27-.06-.26-.5.02-.67 2.9-1.8 4.68-5.15 4.42-8.57-.4-4.95-4.5-8.53-9.4-8.15-2.46.2-4.67 1.33-6.2 3.22-1.2 1.48-1.9 3.34-2.03 5.4 0 .32-.25.82-.68.17-.5-.75-1.05-1.6-1.5-2.63-.9-2.04-2.33-3.08-3.9-2.6-2 .63-1.77 3.5-1.22 5.05 2 5.6 5.7 7.83 9.78 9.17.42.14.72.4.83.52.46.54.96 1.06 1.5 1.53 1.52 1.36 3.9 2.84 7.33 3.44.44.08 1.34.2.84 1.58-1.63 4.47-2.58 9.22-2.58 14.17 0 14.38 7.4 25.24 15.6 32.6l1.15 1.02c.4.33.53 1.04.2 1.9l-2.75 6.55c-1.06 2.54.17 5.5 2.73 6.56l10.32 4.27c2.56 1.05 5.52-.17 6.58-2.72l2.43-5.8c.24-.6.6-.75 1.13-.64l.38.1c3.2.68 8.55 1.23 12.36 1.3h1.1c3.1 0 7.68-.27 10.33-.68l.45-.08c.65-.13 1.03.15 1.18.52l2.26 5.4c1.06 2.54 4.02 3.77 6.58 2.7l10.32-4.26c2.56-1.06 3.78-4.02 2.73-6.57 0 0-1.86-4.36-2.3-5.46-.2-.56.1-1 .36-1.2.02-.03.1-.07.33-.25 2.24-1.72 5.52-4.56 7.88-7.17.55-.6 1.05-1.2 1.47-1.75 4.04-5.35 5.96-11.05 11.58-11.05h4.1c.65 0 1.38 0 1.63-.03l.22-.04c1.43-.27 2.56-1.38 2.85-2.8l.05-.24.02-.8v-19.38-1.47z" fill="#0f9ed9"/><path d="M296.32 114.85c0 2 1.62 3.6 3.6 3.6 2 0 3.62-1.6 3.62-3.6s-1.6-3.6-3.6-3.6-3.62 1.6-3.62 3.6z" fill="#6ac5ef"/><path d="M242.22 94.64c-.22-.67.13-1.46.78-1.74 0 0 .63-.28 1.56-.64 6.13-2.37 12.8-3.6 19.5-3.6h1.6c1.78.06 3.54.2 5.3.42l.9.1c.7.12 1.22.7 1.16 1.32l-.2 2.27c-.07.65-.7 1.1-1.4 1 0 0-3.47-.47-5.88-.54l-1.47-.02c-6.13 0-12.23 1.14-17.83 3.3-1 .4-1.8.74-1.8.74-.64.3-1.36-.03-1.58-.7l-.64-1.9z" fill="#024f88"/></g><g fill-rule="nonzero"><path d="M50.16 76.07c.42.17.82.37 1.22.57-2.16 3.64-7.57 12.78-14.02 23.8 3.35-12.75 5.56-21.34 6.6-25.6v-.08c2.1.06 4.18.47 6.2 1.3zm9.46 22.8c-3.5 8.43-12.88 12.66-21.42 9.95 7.7-13.22 14.55-24.8 17.24-29.32 5.12 4.83 7.03 12.5 4.18 19.37zM27.32 85.5c2.13-5.1 6.44-8.67 11.4-10.08-1.33 5.35-3.87 15.12-7.56 29.15-4.87-4.85-6.62-12.33-3.83-19.05zm11.24 64.14c-3 7.27-10.42 11.42-17.88 10.68 1.32-5.1 4.8-18.35 8.75-33.33 8.68 3.8 12.77 13.86 9.13 22.64zM11.5 156c1.77-2.88 4.83-8.03 9.27-15.6l-4.9 18.73-.14-.05c-1.65-.68-3.14-1.6-4.45-2.68.1-.13.15-.26.24-.4zM6.3 136.28c2.95-7.14 10.13-11.26 17.46-10.72-7.93 13.58-13.16 22.44-15.9 26.98-3.08-4.67-3.86-10.73-1.56-16.26zm51.4-81.42c-8.26-1.14-14 3.85-17.53 15.22-7.52 1.13-14.28 6.03-17.4 13.54-3.7 8.96-1.13 18.97 5.68 25.15.5.45 1 1.62.17 2.56-.7.8-1.37 1.77-1.88 3-.74 1.76-1.02 3.3-1.13 4.64-.14 1.46-1.3 1.7-2 1.65-9.2-.48-18.17 4.78-21.9 13.77-3.28 7.9-1.65 16.64 3.46 22.83-5.24 10.23-4.6 17.65 1.92 22.6 5.77 4.35 13.95 4.2 19.46-.34.32-.28.55-.62.7-.97.34-.82.23-1.8-.38-2.53-.87-1.05-2.43-1.2-3.48-.32-3.76 3.1-9.35 3.2-13.32.2-1.9-1.45-6.08-4.63-1.16-15.1 1.5 1.14 3.13 2.12 4.94 2.87 11.42 4.72 24.56-.72 29.3-12.12 3.7-8.95 1.15-18.93-5.63-25.1-.62-.58-1.3-1.1-2-1.62-1.98-1.47-3.78-2.7-4.37-3.9-.58-1.2-.8-2.45 0-4.35.6-1.45 1.64-2.4 2.55-2.78 1.5-.63 3.3-.15 4.07.05 10.67 2.83 22.1-2.6 26.44-13.06 4.72-11.4-.73-24.53-12.15-29.26-2.17-.9-4.4-1.43-6.64-1.62 3.94-11.16 9.2-10.46 11.6-10.12 4.93.67 8.83 4.7 9.28 9.53.12 1.35 1.33 2.35 2.7 2.23.93-.1 1.7-.7 2.05-1.52.15-.35.2-.75.17-1.16-.66-7.1-6.34-13-13.52-13.98zM110.4 178.85c0 2.18 1.78 3.96 3.96 3.96h35.4c2.18 0 3.96-1.77 3.96-3.95V87.77H110.4v91.08zM153.72 66.27c0-2.18-1.78-3.96-3.97-3.96h-35.4c-2.17 0-3.95 1.8-3.95 3.97v13.57h43.32V66.27z" fill="#eb158a"/><path fill="#861862" d="M110.4 79.84h43.33v7.93H110.4zM102.6 46.96c0-2.18-1.8-3.96-3.97-3.96h-23.4c-2.18 0-3.96 1.78-3.96 3.96v13.7h31.33v-13.7zM71.27 178.85c0 2.18 1.78 3.96 3.97 3.96h23.4c2.17 0 3.96-1.77 3.96-3.95v-13.7H71.27v13.7zM71.27 68.6h31.33v88.6H71.27z"/><path fill="#eb158a" d="M71.27 60.67h31.33v7.93H71.27zM71.27 157.2h31.33v7.93H71.27z"/><path d="M147.77 163c0 1.08-.9 1.97-2 1.97h-27.44c-1.1 0-1.98-.9-1.98-1.98v-12.6c0-1.1.9-2 1.98-2h27.45c1.1 0 2 .9 2 2V163z" fill="#861862"/></g></svg>