<svg viewBox="0 0 326 183" xmlns="http://www.w3.org/2000/svg" fill-rule="evenodd" clip-rule="evenodd" stroke-linejoin="round" stroke-miterlimit="1.41"><g fill-rule="nonzero"><path d="M47 59.9c-.4.2-.76.46-.98.77L23.4 92.5.75 124.34c-.42.6-.76 1.66-.76 2.38v54.98c0 .7.6 1.3 1.3 1.3h92.27v-57.6L47 59.9z" fill="#fdb62b"/><path d="M25.77 163.25c0 .32-.26.58-.57.58h-7.4c-.32 0-.58-.26-.58-.58v-7.4c0-.32.26-.58.57-.58h7.4c.3 0 .57.26.57.57v7.4zM25.77 150.82c0 .32-.26.58-.57.58h-7.4c-.32 0-.58-.26-.58-.58v-7.4c0-.32.26-.58.57-.58h7.4c.3 0 .57.26.57.58v7.4zM38.2 163.25c0 .32-.26.58-.58.58h-7.4c-.32 0-.58-.26-.58-.58v-7.4c0-.32.26-.58.58-.58h7.4c.32 0 .58.26.58.57v7.4zM38.2 150.82c0 .32-.26.58-.58.58h-7.4c-.32 0-.58-.26-.58-.58v-7.4c0-.32.26-.58.58-.58h7.4c.32 0 .58.26.58.58v7.4zM44.85 125.8c0 .3-.26.56-.58.56h-7.4c-.32 0-.58-.26-.58-.57v-7.42c0-.32.25-.58.57-.58h7.4c.32 0 .58.26.58.58v7.4zM44.85 113.36c0 .32-.26.58-.58.58h-7.4c-.32 0-.58-.26-.58-.58v-7.4c0-.32.25-.58.57-.58h7.4c.32 0 .58.26.58.58v7.4zM48.72 105.95c0-.3.26-.57.57-.57h7.4c.3 0 .57.26.57.58v7.4c0 .32-.26.58-.57.58h-7.4c-.32 0-.58-.26-.58-.58v-7.4zM48.72 125.8v-7.42c0-.32.26-.58.57-.58h7.4c.3 0 .57.26.57.58v7.4c0 .32-.26.58-.57.58h-7.4c-.32 0-.58-.26-.58-.57zM63.93 163.25c0 .32-.26.58-.58.58h-7.4c-.32 0-.58-.26-.58-.58v-7.4c0-.32.26-.58.57-.58h7.4c.33 0 .6.26.6.57v7.4zM63.93 150.82c0 .32-.26.58-.58.58h-7.4c-.32 0-.58-.26-.58-.58v-7.4c0-.32.26-.58.57-.58h7.4c.33 0 .6.26.6.58v7.4zM76.35 163.25c0 .32-.26.58-.57.58h-7.4c-.33 0-.6-.26-.6-.58v-7.4c0-.32.27-.58.6-.58h7.4c.3 0 .57.26.57.57v7.4zM76.35 150.82c0 .32-.26.58-.57.58h-7.4c-.33 0-.6-.26-.6-.58v-7.4c0-.32.27-.58.6-.58h7.4c.3 0 .57.26.57.58v7.4z" fill="#fff"/><path d="M118.34 125.4c.72 0 1.65-.47 2.07-1.06l21.88-30.77c.42-.6 1.1-.6 1.52 0l21.88 30.77c.42.6 1.35 1.07 2.06 1.07h24.53c-.14-.4-.3-.78-.5-1.06L169.1 92.5 146.5 60.67c-.43-.6-1.36-1.07-2.08-1.07H48.1c-.35 0-.75.1-1.1.3l46.57 65.5h24.77z" fill="#944c20"/><path d="M192.27 125.4h-24.53c-.7 0-1.64-.47-2.06-1.06L143.8 93.57c-.42-.6-1.1-.6-1.52 0l-21.87 30.77c-.4.6-1.34 1.07-2.06 1.07H93.58V183h97.63c.73 0 1.32-.6 1.32-1.3v-54.98c0-.4-.1-.86-.25-1.3z" fill="#fce481"/><path d="M122.03 163.25c0 .32-.25.58-.57.58h-7.4c-.32 0-.58-.26-.58-.58v-7.4c0-.32.26-.58.57-.58h7.4c.33 0 .58.26.58.57v7.4zM122.03 150.82c0 .32-.25.58-.57.58h-7.4c-.32 0-.58-.26-.58-.58v-7.4c0-.32.26-.58.57-.58h7.4c.33 0 .58.26.58.58v7.4zM134.46 163.25c0 .32-.26.58-.58.58h-7.4c-.32 0-.58-.26-.58-.58v-7.4c0-.32.26-.58.58-.58h7.4c.32 0 .58.26.58.57v7.4zM134.46 150.82c0 .32-.26.58-.58.58h-7.4c-.32 0-.58-.26-.58-.58v-7.4c0-.32.26-.58.58-.58h7.4c.32 0 .58.26.58.58v7.4zM160.2 163.25c0 .32-.27.58-.6.58h-7.4c-.32 0-.57-.26-.57-.58v-7.4c0-.32.25-.58.57-.58h7.4c.32 0 .58.26.58.57v7.4zM160.2 150.82c0 .32-.27.58-.6.58h-7.4c-.32 0-.57-.26-.57-.58v-7.4c0-.32.25-.58.57-.58h7.4c.32 0 .58.26.58.58v7.4zM172.6 163.25c0 .32-.25.58-.56.58h-7.4c-.33 0-.6-.26-.6-.58v-7.4c0-.32.27-.58.6-.58h7.4c.3 0 .57.26.57.57v7.4zM172.6 150.82c0 .32-.25.58-.56.58h-7.4c-.33 0-.6-.26-.6-.58v-7.4c0-.32.27-.58.6-.58h7.4c.3 0 .57.26.57.58v7.4z" fill="#fff"/></g><g fill-rule="nonzero"><path d="M254.67 177.37c0 3.04-2.46 5.5-5.5 5.5-3.02 0-5.48-2.46-5.48-5.5 0-3.03 2.45-5.5 5.48-5.5 3.03 0 5.5 2.47 5.5 5.5z" fill="#eb158a"/><path d="M320.05 96.7c2.48-3.87 3.84-8.5 3.84-13.4 0-14-11.36-25.36-25.36-25.36-3.45 0-6.72.7-9.72 1.94-1.3.53-2.15-.17-2.48-.6-6.03-7.73-15.43-12.7-26-12.7-18.2 0-32.95 14.74-32.95 32.94 0 5.9 1.54 11.44 4.26 16.23.22.38.57 1.26-.3 2.2-4.6 5-7.05 11.87-7.05 19.2 0 16.36 13.3 29.64 29.66 29.64 7.74 0 14.75-3.02 20.06-7.83 1.04-.95 1.96-.28 2.4.12 5.26 4.77 12.25 7.7 19.93 7.7 16.37 0 29.65-13.3 29.65-29.66 0-6.67-2.2-12.83-5.92-17.78-.32-.42-.86-1.38-.03-2.67z" fill="#a6ce3a"/><path d="M312.9 130.07c0 3.03-2.46 5.5-5.5 5.5-3.03 0-5.5-2.47-5.5-5.5 0-3.04 2.47-5.5 5.5-5.5 3.04 0 5.5 2.46 5.5 5.5zM251.27 127c0 3.04-2.46 5.5-5.5 5.5-3.02 0-5.48-2.46-5.48-5.5 0-3.02 2.45-5.48 5.48-5.48 3.03 0 5.5 2.46 5.5 5.5zM249.15 82.7c0 3.04-2.45 5.5-5.5 5.5-3.02 0-5.48-2.46-5.48-5.5 0-3.03 2.46-5.48 5.5-5.48 3.03 0 5.48 2.45 5.48 5.5zM283.1 88.9c0 3.03-2.46 5.5-5.5 5.5-3.03 0-5.5-2.47-5.5-5.5 0-3.04 2.47-5.5 5.5-5.5 3.04 0 5.5 2.46 5.5 5.5zM308.86 76.36c0 3.03-2.46 5.5-5.5 5.5-3.02-.02-5.48-2.47-5.48-5.5 0-3.04 2.46-5.5 5.5-5.5 3.02 0 5.48 2.46 5.48 5.5zM266.78 63.44c0 3.03-2.46 5.5-5.5 5.5-3.03 0-5.5-2.47-5.5-5.5 0-3.04 2.47-5.5 5.5-5.5 3.04 0 5.5 2.46 5.5 5.5zM261.46 105.08c0 3.04-2.46 5.5-5.5 5.5-3.03 0-5.48-2.47-5.48-5.5s2.46-5.5 5.5-5.5c3.02 0 5.48 2.47 5.48 5.5zM305.25 105.53c0 3.03-2.47 5.5-5.5 5.5s-5.5-2.47-5.5-5.5c0-3.04 2.47-5.5 5.5-5.5s5.5 2.46 5.5 5.5zM285.6 121.64c0 3.03-2.47 5.5-5.5 5.5s-5.5-2.47-5.5-5.5 2.47-5.5 5.5-5.5 5.5 2.47 5.5 5.5z" fill="#eb158a"/><path d="M304.3 145.7v28.4h-7v-27.34c-.32 0-.63.03-.95.03l-.25-.02v27.33h-1c-.65 0-1.18.54-1.18 1.2 0 .65.53 1.18 1.2 1.18h11.13c.65 0 1.18-.52 1.18-1.18 0-.66-.53-1.2-1.18-1.2h-.75v-28.76l-1.2.36zM274.02 138.97c-1.84 1.66-3.87 3.1-6.07 4.28v7.6c0 1.03-.8 1.07-1.52.34-1.84-1.85-3.6-3.64-5.25-5.32-1.63.42-3.3.7-5.04.82 2.8 2.88 5.95 6.1 9.16 9.3 2.27 2.26 2.65 4.38 2.65 8.25V182c0 .6.33.86.9.86h15.4c.82 0 .9-.5.9-.94v-8.85c0-3.87.4-5.18 2.64-7.45 2.94-3 5.05-5 5.96-5.88.32-.3.35-.62.12-.85-.66-.68-1.96-2-2.14-2.2-.23-.28-.56-.25-.82 0l-4.26 4.1c-.74.73-1.5.7-1.5-.33V144.6c-3.25-1.33-6.2-3.2-8.74-5.5-.44-.4-1.36-1.08-2.4-.13z" fill="#944c20"/></g></svg>