<?xml version="1.0" encoding="utf-8"?>
<svg version="1.1" xmlns="http://www.w3.org/2000/svg" viewBox="0 0 223.137 115.217">
<defs>
    <style type="text/css">
        @media screen and (max-width: 439px) {
            #cloud {
            	-webkit-transform: scale(1.5) translate(40px, 0px);
            	-ms-transform: scale(1.5) translate(40px, 0px);
            	transform: scale(1.5) translate(40px, 0px);
            }
            #background {
            	-webkit-transform: scale(2) translate(0, -50px);
            	-ms-transform: scale(2) translate(0, -50px);
            	transform: scale(2) translate(0, -50px);
            }
        }
    </style>
</defs>
<g id="background">
	<path fill="#CFEAF8" d="M204.641,39.283c-1.393-1.518-3.788-1.518-5.181,0L181.557,58.79l-36.715-40.006
		c-1.393-1.519-3.788-1.519-5.181,0L80.888,82.826l-22.99-25.052c-1.393-1.518-3.788-1.518-5.181,0L0,115.217l223.137,0V59.436
		L204.641,39.283z"/>
</g>
<g id="flower">
	<g>
		<g>
			<path fill="#FFB900" d="M84.375,89.891c-0.758,1.331-0.41,3.046,0.858,3.968c1.268,0.92,3.007,0.722,4.039-0.41
				c1.032,1.132,2.771,1.331,4.039,0.41c1.267-0.922,1.615-2.637,0.858-3.968c1.395-0.631,2.122-2.224,1.637-3.713
				c-0.485-1.491-2.008-2.353-3.507-2.043c-0.17-1.522-1.46-2.706-3.026-2.706c-1.567,0-2.858,1.184-3.026,2.706
				c-1.499-0.31-3.024,0.551-3.509,2.043C82.253,87.667,82.98,89.26,84.375,89.891z"/>
		</g>
		<g>
			<circle fill="#FFE57E" cx="89.271" cy="88.529" r="2.252"/>
		</g>
		<g>
			<path fill="#994916" d="M94.962,103.201H83.579c-0.758,0-1.374,0.615-1.374,1.374c0,0.76,0.616,1.375,1.374,1.375h0.184
				l1.149,8.643c0.051,0.387,0.411,0.702,0.802,0.702h7.115c0.39,0,0.751-0.315,0.802-0.702l1.148-8.643h0.184
				c0.759,0,1.375-0.615,1.375-1.375C96.337,103.815,95.721,103.201,94.962,103.201z"/>
		</g>
	</g>
	<path fill="#B0CB0B" d="M90.02,98.854c0.678,0.435,1.75,1.109,2.521,1.521c0.15,0.08,0.503,0.259,0.82,0.361
		c0.318,0.102,0.601,0.128,0.751,0.128c1.342,0,2.429-1.085,2.429-2.427c-0.001-1.338-1.087-2.425-2.429-2.425
		c-0.15,0-0.432,0.026-0.751,0.129c-0.317,0.103-0.671,0.281-0.82,0.36c-0.771,0.413-1.843,1.087-2.521,1.521v-3.977
		c-0.275-0.155-0.529-0.354-0.75-0.597c-0.221,0.243-0.475,0.443-0.75,0.597v3.977c-0.676-0.435-1.749-1.109-2.521-1.521
		c-0.149-0.079-0.502-0.257-0.821-0.36c-0.317-0.103-0.601-0.129-0.751-0.129c-1.341,0-2.428,1.088-2.428,2.425
		c0,1.341,1.087,2.427,2.428,2.427c0.15,0,0.433-0.026,0.751-0.128c0.318-0.102,0.672-0.281,0.821-0.361
		c0.772-0.413,1.844-1.087,2.521-1.521v4.347h1.499V98.854z"/>
</g>
<g id="cloud">
	<path fill="#FFFFFF" d="M88.486,6.743c-0.153-0.027-0.159-0.084-0.142-0.257c0.015-0.145,0.037-0.292,0.037-0.443
		c0-1.489-1.207-2.695-2.695-2.695c-0.498,0-0.953,0.153-1.363,0.37c-0.124,0.065-0.245,0.04-0.251-0.139
		c-0.001-0.032-0.018-0.216-0.026-0.275c-0.239-1.757-1.745-3.111-3.568-3.111c-1.012,0-1.947,0.399-2.58,1.091
		c-0.134,0.146-0.299,0.223-0.476,0.064C76.516,0.528,75.334,0,74.016,0c-2.752,0-4.983,2.231-4.983,4.983
		c0,0.521,0.081,1.023,0.229,1.495c0.009,0.028,0.018,0.055,0.027,0.083c0.026,0.079,0.045,0.185-0.126,0.227
		c-1.34,0.331-2.342,1.526-2.342,2.967c0,1.686,1.366,3.052,3.051,3.052H88c1.685,0,3.051-1.366,3.051-3.052
		C91.052,8.236,89.936,7,88.486,6.743z"/>
</g>
<g id="house">
	<g>
		<path fill="#E6007E" d="M137.932,49.825c-0.209,0.104-0.398,0.247-0.514,0.409l-12.007,16.891l-12.008,16.892
			c-0.221,0.311-0.403,0.877-0.403,1.259v29.169c0,0.38,0.313,0.692,0.694,0.692h48.255c0.191,0,0.442,0,0.694,0V84.583
			L137.932,49.825z"/>
		<path fill="#FFFFFF" d="M126.677,104.662c0,0.167-0.137,0.303-0.305,0.303h-3.93c-0.167,0-0.305-0.136-0.305-0.303v-3.933
			c0-0.165,0.137-0.305,0.305-0.305h3.93c0.168,0,0.305,0.14,0.305,0.305V104.662z"/>
		<path fill="#FFFFFF" d="M126.677,98.067c0,0.17-0.137,0.305-0.305,0.305h-3.93c-0.167,0-0.305-0.136-0.305-0.305v-3.929
			c0-0.17,0.137-0.305,0.305-0.305h3.93c0.168,0,0.305,0.136,0.305,0.305V98.067z"/>
		<path fill="#FFFFFF" d="M133.268,104.662c0,0.167-0.137,0.303-0.305,0.303h-3.929c-0.168,0-0.305-0.136-0.305-0.303v-3.933
			c0-0.165,0.137-0.305,0.305-0.305h3.929c0.168,0,0.305,0.14,0.305,0.305V104.662z"/>
		<path fill="#FFFFFF" d="M133.268,98.067c0,0.17-0.137,0.305-0.305,0.305h-3.929c-0.168,0-0.305-0.136-0.305-0.305v-3.929
			c0-0.17,0.137-0.305,0.305-0.305h3.929c0.168,0,0.305,0.136,0.305,0.305V98.067z"/>
		<path fill="#FFFFFF" d="M136.797,84.784c0,0.167-0.138,0.305-0.306,0.305h-3.93c-0.168,0-0.306-0.138-0.306-0.305v-3.931
			c0-0.167,0.137-0.305,0.306-0.305h3.93c0.167,0,0.306,0.137,0.306,0.305V84.784z"/>
		<path fill="#FFFFFF" d="M136.797,78.191c0,0.168-0.138,0.306-0.306,0.306h-3.93c-0.168,0-0.306-0.137-0.306-0.306v-3.93
			c0-0.169,0.137-0.306,0.306-0.306h3.93c0.167,0,0.306,0.137,0.306,0.306V78.191z"/>
		<path fill="#FFFFFF" d="M138.848,74.261c0-0.169,0.138-0.306,0.305-0.306h3.93c0.167,0,0.306,0.137,0.306,0.306v3.93
			c0,0.168-0.138,0.306-0.306,0.306h-3.93c-0.167,0-0.305-0.137-0.305-0.306V74.261z"/>
		<path fill="#FFFFFF" d="M138.848,84.784v-3.931c0-0.167,0.138-0.305,0.305-0.305h3.93c0.167,0,0.306,0.137,0.306,0.305v3.931
			c0,0.167-0.138,0.305-0.306,0.305h-3.93C138.986,85.089,138.848,84.951,138.848,84.784z"/>
		<path fill="#FFFFFF" d="M146.917,104.662c0,0.167-0.137,0.303-0.305,0.303h-3.93c-0.168,0-0.305-0.136-0.305-0.303v-3.933
			c0-0.165,0.137-0.305,0.305-0.305h3.93c0.168,0,0.305,0.14,0.305,0.305V104.662z"/>
		<path fill="#FFFFFF" d="M146.917,98.067c0,0.17-0.137,0.305-0.305,0.305h-3.93c-0.168,0-0.305-0.136-0.305-0.305v-3.929
			c0-0.17,0.137-0.305,0.305-0.305h3.93c0.168,0,0.305,0.136,0.305,0.305V98.067z"/>
		<path fill="#FFFFFF" d="M153.508,104.662c0,0.167-0.137,0.303-0.305,0.303h-3.93c-0.167,0-0.306-0.136-0.306-0.303v-3.933
			c0-0.165,0.138-0.305,0.306-0.305h3.93c0.167,0,0.305,0.14,0.305,0.305V104.662z"/>
		<path fill="#FFFFFF" d="M153.508,98.067c0,0.17-0.137,0.305-0.305,0.305h-3.93c-0.167,0-0.306-0.136-0.306-0.305v-3.929
			c0-0.17,0.138-0.305,0.306-0.305h3.93c0.167,0,0.305,0.136,0.305,0.305V98.067z"/>
	</g>
	<g>
		<g>
			<path fill="#8C005A" d="M175.787,84.583c0.382,0,0.875-0.254,1.097-0.565l11.605-16.327c0.222-0.311,0.583-0.311,0.805,0
				l11.607,16.327c0.219,0.311,0.715,0.565,1.095,0.565h5.209h7.803c-0.072-0.214-0.165-0.419-0.269-0.565l-12.009-16.892
				l-12.01-16.891c-0.222-0.311-0.715-0.565-1.097-0.565h-51.107c-0.183,0-0.391,0.061-0.582,0.156l24.711,34.759h8.602H175.787z"
				/>
		</g>
	</g>
	<g>
		<path fill="#F0A5C3" d="M215.007,84.583h-7.803h-5.209c-0.38,0-0.875-0.254-1.095-0.565l-11.607-16.327
			c-0.222-0.311-0.584-0.311-0.805,0l-11.605,16.327c-0.222,0.311-0.715,0.565-1.097,0.565h-4.541h-8.602v30.555
			c0.252,0,0.503,0,0.694,0h51.109c0.382,0,0.692-0.312,0.692-0.692V85.277C215.138,85.073,215.088,84.822,215.007,84.583z"/>
		<path fill="#FFFFFF" d="M177.743,104.662c0,0.167-0.136,0.303-0.303,0.303h-3.931c-0.167,0-0.305-0.136-0.305-0.303v-3.933
			c0-0.165,0.138-0.305,0.305-0.305h3.931c0.167,0,0.303,0.14,0.303,0.305V104.662z"/>
		<path fill="#FFFFFF" d="M177.743,98.067c0,0.17-0.136,0.305-0.303,0.305h-3.931c-0.167,0-0.305-0.136-0.305-0.305v-3.929
			c0-0.17,0.138-0.305,0.305-0.305h3.931c0.167,0,0.303,0.136,0.303,0.305V98.067z"/>
		<path fill="#FFFFFF" d="M184.336,104.662c0,0.167-0.136,0.303-0.305,0.303h-3.928c-0.17,0-0.305-0.136-0.305-0.303v-3.933
			c0-0.165,0.136-0.305,0.305-0.305h3.928c0.17,0,0.305,0.14,0.305,0.305V104.662z"/>
		<path fill="#FFFFFF" d="M184.336,98.067c0,0.17-0.136,0.305-0.305,0.305h-3.928c-0.17,0-0.305-0.136-0.305-0.305v-3.929
			c0-0.17,0.136-0.305,0.305-0.305h3.928c0.17,0,0.305,0.136,0.305,0.305V98.067z"/>
		<path fill="#FFFFFF" d="M197.985,104.662c0,0.167-0.138,0.303-0.305,0.303h-3.931c-0.167,0-0.305-0.136-0.305-0.303v-3.933
			c0-0.165,0.138-0.305,0.305-0.305h3.931c0.167,0,0.305,0.14,0.305,0.305V104.662z"/>
		<path fill="#FFFFFF" d="M197.985,98.067c0,0.17-0.138,0.305-0.305,0.305h-3.931c-0.167,0-0.305-0.136-0.305-0.305v-3.929
			c0-0.17,0.138-0.305,0.305-0.305h3.931c0.167,0,0.305,0.136,0.305,0.305V98.067z"/>
		<path fill="#FFFFFF" d="M204.576,104.662c0,0.167-0.136,0.303-0.303,0.303h-3.931c-0.167,0-0.305-0.136-0.305-0.303v-3.933
			c0-0.165,0.138-0.305,0.305-0.305h3.931c0.167,0,0.303,0.14,0.303,0.305V104.662z"/>
		<path fill="#FFFFFF" d="M204.576,98.067c0,0.17-0.136,0.305-0.303,0.305h-3.931c-0.167,0-0.305-0.136-0.305-0.305v-3.929
			c0-0.17,0.138-0.305,0.305-0.305h3.931c0.167,0,0.303,0.136,0.303,0.305V98.067z"/>
	</g>
</g>
</svg>
