<?xml version="1.0" encoding="utf-8"?>
<!-- Generator: Adobe Illustrator 18.0.0, SVG Export Plug-In . SVG Version: 6.00 Build 0)  -->
<!DOCTYPE svg PUBLIC "-//W3C//DTD SVG 1.1//EN" "http://www.w3.org/Graphics/SVG/1.1/DTD/svg11.dtd">
<svg version="1.1" xmlns="http://www.w3.org/2000/svg" xmlns:xlink="http://www.w3.org/1999/xlink" x="0px" y="0px"
	 viewBox="0 0 214 122" enable-background="new 0 0 214 122" xml:space="preserve">
<g id="Layer_3" display="none">
	<g display="inline">
		<circle fill-rule="evenodd" clip-rule="evenodd" fill="#E6007E" cx="177.466" cy="104.211" r="17.789"/>
		<circle fill-rule="evenodd" clip-rule="evenodd" fill="#FFFFFF" cx="177.465" cy="104.211" r="8.893"/>
		<path fill-rule="evenodd" clip-rule="evenodd" fill="#E6007E" d="M50.546,86.422c-9.824,0-17.791,7.963-17.791,17.789
			S40.723,122,50.546,122c9.822,0,17.787-7.963,17.787-17.789S60.368,86.422,50.546,86.422z"/>
		<circle fill-rule="evenodd" clip-rule="evenodd" fill="#FFFFFF" cx="50.544" cy="104.211" r="8.894"/>
		<g>
			<path fill="#FFB900" d="M203.773,68.599c-6.07-7.246-9.571-11.037-18.014-19.833C171.186,33.584,167.532,28.24,145.39,28.24
				c-21.383,0-26.141,0-31.062,0c-14.76,0-21.867,5.468-29.247,12.849c-4.784,4.782-7.792,7.79-11.754,11.754
				c-3.966,3.96-6.297,5.002-15.425,5.738c-17.449,1.411-26.323,5.483-31.648,13.724c2.401,1.674,3.974,4.458,3.974,7.608
				c0,4.905-3.804,8.912-8.624,9.255c-0.008,3.301,0.382,6.683,1.325,9.536c0.8,2.418,2.239,3.737,2.239,3.737
				c1.855,1.778,3.829,0.686,3.906-1.18c0,0,0,0,0.287-1.408c2.017-9.853,10.736-17.264,21.186-17.264
				c11.941,0,21.622,9.679,21.622,21.622c0,2.618,1.18,3.575,4.068,3.575h75.538c2.4,0,3.766-0.563,3.96-3.683
				c0,0,0.245-2.719,0.509-4.068c1.948-9.945,10.709-17.446,21.223-17.446c10.329,0,18.971,7.242,21.115,16.929
				c0.332,1.512,0.43,3.17,0.43,3.17c0.208,2.349,1.965,3.085,4.116,2.325c0,0,3.625-0.976,6.579-3.864
				c3.218-3.147,4.294-7.508,4.294-11.873C214,79.678,209.476,75.421,203.773,68.599z"/>
			<path fill="#FFE57E" d="M30.228,79.913c0-3.151-1.573-5.935-3.974-7.608c-1.053,1.627-1.972,3.417-2.786,5.387
				c-1.113,2.688-1.851,7.01-1.864,11.476C26.424,88.825,30.228,84.818,30.228,79.913z"/>
		</g>
		<path fill="#FFFFFF" d="M128.92,42.134c0-2.399-1.965-4.365-4.365-4.365l-15.897,0.031c-5.266,0-9.456,2.14-12.492,5.179
			c0,0-8.044,8.742-10.909,12.016c-2.863,3.274-2.017,7.62,2.657,7.62c5.725,0,36.642,0,36.642,0c2.4,0,4.365-1.963,4.365-4.365
			V42.134z"/>
		<path fill="#FFFFFF" d="M137.737,42.994c0-2.402,1.942-4.674,4.313-5.048c0,0,8.563-1.361,17.935,3.027
			c11.357,5.322,13.464,17.33,13.464,17.33c0.528,2.345-1.005,4.265-3.407,4.265l-27.94,0.039c-2.402,0.004-4.365-1.955-4.365-4.357
			V42.994z"/>
	</g>
</g>
<g id="Layer_5">
	<g>
		<path fill="#E6007E" d="M209.431,33.775H177c-0.746,0-1.356-0.61-1.356-1.358v-7.705c0-0.75-0.049-1.97-0.109-2.716
			c0,0-0.06-0.776-0.369-1.761c-1.051-3.339-3.748-5.957-7.134-6.897c-0.889-0.249-1.428-0.286-1.428-0.286
			c-0.746-0.049-1.966-0.094-2.716-0.094h-21.748c-0.75,0-1.97,0.051-2.716,0.107c0,0-0.772,0.062-1.755,0.367
			c-3.72,1.171-6.546,4.379-7.16,8.309c-0.081,0.523-0.081,0.523-0.081,0.523c-0.024,0.597-0.043,1.697-0.043,2.447v7.705
			c0,0.748-0.612,1.358-1.358,1.358H96.565c-2.996,0-4.537,1.337-4.537,4.731v79.212c0,2.667,1.601,4.283,4.217,4.283H209.83
			c2.727,0,4.17-1.672,4.17-4.407V38.425C214,35.361,212.557,33.775,209.431,33.775z M137.579,23.673
			c0-2.232,1.352-3.518,3.654-3.518h23.307c2.52,0,3.91,1.318,3.91,3.678v8.584c0,0.748-0.614,1.358-1.36,1.358h-28.151
			c-0.748,0-1.36-0.61-1.36-1.358V23.673z"/>
		<path fill="#FFB900" d="M214,53.25h-19.093v-2.972c0-3.514-2.851-6.362-6.366-6.362c-3.51,0-6.358,2.848-6.358,6.362v2.972
			h-58.337v-2.972c0-3.514-2.847-6.362-6.362-6.362c-3.511,0-6.362,2.848-6.362,6.362v2.972H92.028v3.309h19.095v2.97
			c0,3.518,2.851,6.364,6.362,6.364c3.514,0,6.362-2.846,6.362-6.364v-2.97h58.337v2.97c0,3.518,2.847,6.364,6.358,6.364
			c3.514,0,6.366-2.846,6.366-6.364v-2.97H214V53.25z"/>
		<path fill="#FFFFFF" d="M160.586,77.572c-0.667,0-1.211-0.542-1.211-1.213V66.066c0-0.667-0.544-1.209-1.211-1.209h-10.298
			c-0.667,0-1.213,0.542-1.213,1.209V76.36c0,0.67-0.546,1.213-1.209,1.213h-10.298c-0.667,0-1.211,0.546-1.211,1.213v10.298
			c0,0.663,0.544,1.209,1.211,1.209h10.298c0.663,0,1.209,0.546,1.209,1.213V101.8c0,0.67,0.546,1.213,1.213,1.213h10.298
			c0.667,0,1.211-0.542,1.211-1.213V91.505c0-0.667,0.544-1.213,1.211-1.213h10.297c0.667,0,1.209-0.546,1.209-1.209V78.785
			c0-0.667-0.542-1.213-1.209-1.213H160.586z"/>
	</g>
	<g>
		<path fill="#B0CB0B" d="M9.587,64.818l4.183,12.629c-1.734-0.445-4.475-1.12-6.394-1.453c-0.372-0.062-1.244-0.19-1.989-0.186
			c-0.743,0.003-1.359,0.148-1.677,0.253c-2.837,0.941-4.372,3.998-3.436,6.829c0.939,2.834,3.997,4.37,6.834,3.43
			c0.318-0.106,0.897-0.359,1.496-0.798c0.603-0.438,1.225-1.062,1.483-1.338c1.343-1.412,3.141-3.59,4.266-4.982l7.091,21.413
			l3.17-1.05L12.757,63.769L9.587,64.818z"/>
		<path fill="#B0CB0B" d="M39.98,64.818l-4.183,12.629c1.734-0.445,4.475-1.12,6.394-1.453c0.372-0.062,1.244-0.19,1.989-0.186
			c0.745,0.003,1.359,0.148,1.677,0.253c2.837,0.941,4.371,3.998,3.436,6.829c-0.938,2.834-3.996,4.37-6.833,3.43
			c-0.317-0.106-0.898-0.359-1.497-0.798c-0.602-0.438-1.224-1.062-1.482-1.338c-1.343-1.412-3.14-3.59-4.266-4.982l-7.091,21.413
			l-3.169-1.05L36.81,63.769L39.98,64.818z"/>
		<path fill="#F0A5C3" d="M5.981,58.644l1.414-5.939l4.665,3.926l1.443-5.947c0.063,0.051,0.122,0.108,0.185,0.16
			c-2.763-2.854-8.99-7.658-9.554-7.985c0,0-1.942,7.169-2.921,12.217c0.026-0.116,0.047-0.231,0.075-0.347L5.981,58.644z"/>
		<path fill="#E6007E" d="M16.899,54.23c-0.563-0.769-1.306-1.56-1.826-2.083c-0.436-0.462-0.899-0.898-1.384-1.304
			c-0.063-0.052-0.123-0.108-0.185-0.159l-1.443,5.947l-4.665-3.927l-1.413,5.94l-4.694-3.915c-0.028,0.115-0.049,0.231-0.076,0.347
			c-0.129,0.557-0.235,1.122-0.302,1.691c-0.111,0.731-0.243,1.849-0.235,2.834c0.01,1.245,0.248,2.272,0.422,2.8
			c1.57,4.74,6.676,7.307,11.41,5.739c0.29-0.096,0.57-0.207,0.841-0.329c4.185-1.861,6.355-6.634,4.882-11.085
			C18.055,56.2,17.636,55.233,16.899,54.23"/>
		<polygon fill="#B0CB0B" points="26.447,70.763 26.447,47.163 23.106,47.163 23.106,70.764 23.106,72.613 23.106,114.564 
			26.447,114.564 26.447,72.613 		"/>
		<path fill="#E6007E" d="M20.476,36.654l4.242-6.894l4.264,6.894l4.285-6.892c1.96,3.051,3.164,6.779,3.164,9.875
			c0,6.468-5.245,11.71-11.712,11.71c-6.468,0-11.711-5.242-11.711-11.71c0-3.096,1.202-6.824,3.163-9.875L20.476,36.654z"/>
		<path fill="#009FE4" d="M43.828,52.094c-0.653,0.329-1.371,1.04-2.064,1.891c-0.052-1.096-0.205-2.093-0.534-2.748
			c-1.245-2.472-4.269-3.47-6.742-2.224c-2.472,1.245-3.47,4.269-2.225,6.741c0.33,0.654,1.039,1.371,1.89,2.065
			c-1.096,0.052-2.093,0.205-2.746,0.534c-2.472,1.245-3.47,4.269-2.224,6.742c1.245,2.472,4.269,3.47,6.742,2.225
			c0.652-0.329,1.368-1.041,2.064-1.891c0.052,1.097,0.204,2.093,0.534,2.746c1.244,2.473,4.269,3.472,6.742,2.227
			c2.472-1.245,3.47-4.27,2.224-6.743c-0.33-0.654-1.039-1.369-1.89-2.063c1.096-0.052,2.094-0.205,2.748-0.534
			c2.472-1.246,3.471-4.269,2.224-6.742C49.325,51.847,46.301,50.848,43.828,52.094z"/>
		<circle fill="#FFB900" cx="39.876" cy="59.707" r="4.34"/>
		<path fill="#009FE4" d="M32.971,95.256c-0.357-0.253-0.536-0.799-0.398-1.214l2.394-7.225c0.137-0.415-0.109-0.754-0.545-0.754
			H15.146c-0.436,0-0.682,0.339-0.544,0.754l2.372,7.162c0.137,0.415-0.038,0.966-0.389,1.227c0,0-2.497,1.849-3.654,3.41
			c-1.808,2.437-2.876,5.453-2.877,8.721c0,8.097,6.566,14.664,14.664,14.664c8.099,0,14.664-6.566,14.664-14.664
			c0-3.859-1.492-7.372-3.93-9.989C34.534,96.361,32.971,95.256,32.971,95.256z"/>
	</g>
</g>
<g id="Layer_6" display="none">
	<g display="inline">
		<g>
			<path fill="#B0CB0B" d="M208.367,23.348c-2.461-0.016-5.741-0.037-6.796-0.043c-3.532-0.022-5.597,0.502-8.288,3.949
				c-2.352,3.017-4.824,6.672-6.67,8.808c-3.614,4.183-6.722,4.258-13.628,4.224c-24.233-0.121-61.438-1.802-96.066-2.286
				c-17.342-0.243-26.824,4.457-33.132,11.373c-5.335,5.847-6.097,6.211-9.594,10.374c-7.28,8.668-5.138,18.153,6.87,18.227
				c16.496,0.105,35.077,0.078,53.383-0.004c-2.42-3.63-3.988-5.986-3.988-5.986c-3.715-5.696-1.734-9.161,4.457-9.161
				c6.19,0.001,19.679,0,27.849,0.001c8.171,0,10.153,2.722,11.636,6.685c0.401,1.071,1.418,4.144,2.723,8.2
				c10.305-0.074,19.743-0.144,27.709-0.191c22.401-0.132,28.829-4.199,35.695-18.832c4.604-9.812,9.01-19.365,12.827-28.414
				C214.961,26.474,213.664,23.381,208.367,23.348z"/>
			<path fill="#D2E182" d="M148.024,112.656c-1.692-5.83-7.371-24.001-10.899-34.948c-1.305-4.056-2.321-7.129-2.723-8.2
				c-1.484-3.963-3.465-6.685-11.636-6.685c-8.17-0.001-21.66,0-27.849-0.001c-6.191,0-8.171,3.465-4.457,9.161
				c0,0,1.569,2.356,3.988,5.986c7.491,11.246,23.146,34.745,25.722,38.581c3.654,5.447,7.18,5.449,13.866,5.447
				c4.422,0.002,5.811,0,9.082,0.002C148.565,122,149.846,118.937,148.024,112.656z"/>
		</g>
		<path fill="#D2E182" d="M148.228,8.11c1.418-5.062,0.339-7.832-5.108-7.832c-3.272,0-4.66,0-9.083,0
			c-6.685,0-10.211,0-13.866,5.445c-2.182,3.254-13.765,20.633-21.807,32.702c13.849,0.339,27.6,0.777,40.3,1.144
			C142.207,28.253,146.803,13.202,148.228,8.11z"/>
		<path fill="#1E6E32" d="M92.627,51.799c-0.014,2.22-1.825,4.007-4.044,3.993l-1.777-0.011c-2.219-0.015-4.007-1.825-3.992-4.045
			l0,0c0.014-2.219,1.823-4.006,4.044-3.992l1.777,0.011C90.855,47.77,92.641,49.58,92.627,51.799L92.627,51.799z"/>
		<path fill="#1E6E32" d="M109.401,51.905c-0.014,2.219-1.823,4.007-4.042,3.993l-1.779-0.012c-2.219-0.014-4.007-1.824-3.992-4.043
			l0,0c0.014-2.22,1.824-4.007,4.044-3.993l1.778,0.011C107.628,47.875,109.416,49.686,109.401,51.905L109.401,51.905z"/>
		<path fill="#1E6E32" d="M75.853,51.694c-0.014,2.219-1.824,4.006-4.043,3.992l-1.777-0.011c-2.221-0.014-4.007-1.825-3.993-4.044
			l0,0c0.014-2.219,1.824-4.007,4.044-3.993l1.777,0.012C74.08,47.664,75.867,49.474,75.853,51.694L75.853,51.694z"/>
		<path fill="#1E6E32" d="M126.176,52.011c-0.014,2.219-1.825,4.007-4.044,3.992l-1.778-0.011c-2.219-0.015-4.007-1.825-3.993-4.044
			l0,0c0.015-2.219,1.825-4.007,4.044-3.992l1.778,0.011C124.402,47.981,126.191,49.792,126.176,52.011L126.176,52.011z"/>
		<path fill="#1E6E32" d="M142.951,52.116c-0.016,2.219-1.827,4.007-4.045,3.993l-1.778-0.012c-2.22-0.014-4.006-1.824-3.992-4.043
			l0,0c0.016-2.219,1.823-4.007,4.043-3.993l1.78,0.012C141.175,48.087,142.964,49.897,142.951,52.116L142.951,52.116z"/>
		<path fill="#1E6E32" d="M159.723,52.223c-0.014,2.219-1.825,4.007-4.043,3.992l-1.778-0.011c-2.22-0.015-4.008-1.825-3.992-4.044
			l0,0c0.014-2.219,1.823-4.007,4.043-3.992l1.778,0.011C157.949,48.193,159.737,50.004,159.723,52.223L159.723,52.223z"/>
		<path fill="#1E6E32" d="M176.496,52.328c-0.014,2.22-1.823,4.007-4.043,3.993l-1.776-0.012c-2.22-0.013-4.008-1.824-3.994-4.043
			l0,0c0.014-2.219,1.825-4.007,4.045-3.993l1.776,0.012C174.724,48.299,176.512,50.109,176.496,52.328L176.496,52.328z"/>
		<g>
			<path fill="#1E6E32" d="M59.079,51.588c0.011-1.664-0.992-3.098-2.43-3.718c-0.108-0.047-4.922-1.534-8.346-2.592
				c-1.68,1.246-3.17,2.619-4.515,4.095c-2.857,3.131-4.401,4.689-5.757,6.101l17.006,0.106
				C57.254,55.594,59.065,53.807,59.079,51.588z"/>
		</g>
	</g>
</g>
<g id="Layer_7" display="none">
	<g display="inline">
		<g>
			<g>
				<path fill="#FFB900" d="M6.301,54.554c-2.012,3.533-1.089,8.088,2.277,10.534c3.367,2.444,7.983,1.916,10.723-1.089
					c2.74,3.005,7.356,3.533,10.723,1.089c3.363-2.447,4.289-7.001,2.277-10.534c3.703-1.676,5.634-5.904,4.348-9.858
					c-1.287-3.96-5.332-6.246-9.312-5.424c-0.451-4.04-3.876-7.183-8.035-7.183c-4.159,0-7.588,3.144-8.035,7.183
					c-3.98-0.822-8.029,1.464-9.316,5.424C0.666,48.649,2.598,52.878,6.301,54.554z"/>
			</g>
			<g>
				<circle fill="#FFE57E" cx="19.301" cy="50.935" r="5.98"/>
			</g>
			<g>
				<path fill="#994916" d="M34.411,89.891H4.187c-2.012,0-3.647,1.632-3.647,3.647c0,2.018,1.635,3.65,3.647,3.65h0.488
					l3.052,22.948C7.862,121.164,8.819,122,9.855,122h18.89c1.037,0,1.993-0.836,2.129-1.864l3.049-22.948h0.488
					c2.015,0,3.65-1.632,3.65-3.65C38.061,91.523,36.426,89.891,34.411,89.891z"/>
			</g>
		</g>
		<path fill="#B0CB0B" d="M21.291,78.35c1.799,1.154,4.647,2.944,6.693,4.039c0.398,0.213,1.336,0.688,2.178,0.96
			c0.846,0.272,1.595,0.339,1.993,0.339c3.564,0,6.449-2.882,6.449-6.443c-0.003-3.552-2.885-6.44-6.449-6.44
			c-0.398,0-1.148,0.068-1.993,0.343c-0.842,0.275-1.78,0.747-2.178,0.957c-2.046,1.095-4.894,2.885-6.693,4.039V65.585
			c-0.731-0.41-1.404-0.941-1.99-1.586c-0.586,0.645-1.262,1.176-1.99,1.586v10.559c-1.796-1.154-4.644-2.944-6.693-4.039
			c-0.395-0.21-1.333-0.682-2.179-0.957c-0.842-0.275-1.595-0.343-1.993-0.343C2.885,70.806,0,73.694,0,77.246
			c0,3.561,2.885,6.443,6.446,6.443c0.398,0,1.151-0.068,1.993-0.339c0.846-0.272,1.784-0.747,2.179-0.96
			c2.049-1.095,4.897-2.885,6.693-4.039v11.54h3.98V78.35z"/>
	</g>
	<g display="inline">
		<path fill="#009FE4" d="M213.991,58.229c0,0,0,0-0.017-0.143c-0.2-1.659-1.515-2.977-3.175-3.179
			c-0.146-0.018-0.146-0.018-0.146-0.018c-0.164-0.003-0.83-0.007-1.479-0.007h-4.183c-4.042,0-5.577-3.998-6.351-5.547
			c-0.752-1.503-3.618-6.355-4.153-7.225c-2.17-3.527-3.969-5.961-2.856-9.921c1.201-4.268,4.573-7.338,8.583-8.357
			c0.698-0.176,0.969-0.206,0.969-0.206c0.648-0.074,0.948-0.613,0.672-1.201c0,0-0.194-0.406-0.613-1.106
			c-2.272-3.778-5.931-6.73-10.511-8.019c-8.456-2.378-17.201,1.72-20.945,9.325c-0.337,0.684-0.469,1.031-0.469,1.031
			c-0.23,0.607-0.925,0.946-1.544,0.752c0,0-0.287-0.088-1.004-0.288c-4.428-1.235-9.11-1.96-13.961-2.099
			c-0.567-0.015-1.138-0.024-1.709-0.024c-17.466,0-32.917,7.605-42.334,19.265c-0.605,0.749-2.532,3.58-3.232,4.085
			c-0.755,0.546-1.367,0.667-2.031,0.664c-0.499-0.001-0.998-0.071-1.494-0.173c-0.287-0.058-0.267-0.507,0.014-0.68
			c2.929-1.82,4.746-5.21,4.476-8.685c-0.391-5.022-4.569-8.655-9.51-8.272c-2.51,0.197-4.748,1.356-6.295,3.269
			c-1.219,1.505-1.923,3.398-2.06,5.473c-0.023,0.335-0.261,0.839-0.696,0.183c-0.505-0.761-1.069-1.633-1.527-2.671
			c-0.91-2.067-2.357-3.125-3.959-2.626c-2.029,0.628-1.791,3.534-1.224,5.112c2.039,5.679,5.774,7.957,9.909,9.319
			c0.422,0.138,0.731,0.397,0.839,0.526c0.463,0.563,0.966,1.088,1.506,1.567c1.549,1.374,3.959,2.879,7.432,3.486
			c0.452,0.079,1.362,0.197,0.851,1.608c-1.647,4.535-2.607,9.353-2.607,14.374c0,14.592,7.511,25.613,15.814,33.087
			c0.267,0.24,1.166,1.028,1.166,1.028c0.41,0.337,0.541,1.056,0.202,1.92c-0.118,0.297-2.779,6.653-2.779,6.653
			c-1.074,2.594,0.17,5.591,2.762,6.668l10.464,4.332c2.592,1.074,5.592-0.167,6.666-2.761c0,0,1.879-4.465,2.465-5.894
			c0.243-0.592,0.613-0.761,1.138-0.646c0,0,0,0,0.4,0.088c3.249,0.698,8.667,1.265,12.529,1.335
			c0.37,0.006,1.115,0.009,1.115,0.009c3.129,0,7.786-0.285,10.465-0.707c0.46-0.073,0.46-0.073,0.46-0.073
			c0.664-0.133,1.04,0.146,1.197,0.525c0.156,0.376,2.29,5.47,2.29,5.47c1.072,2.591,4.072,3.834,6.665,2.76l10.466-4.335
			c2.591-1.074,3.834-4.074,2.76-6.668c0,0-1.87-4.417-2.309-5.524c-0.224-0.573,0.083-1.028,0.361-1.229c0,0,0,0,0.003-0.006
			c0.017-0.012,0.079-0.058,0.326-0.246c2.278-1.729,5.605-4.611,8.001-7.259c0.555-0.61,1.059-1.21,1.488-1.781
			c4.095-5.424,6.041-11.215,11.737-11.215h4.165c0.649,0,1.388-0.009,1.641-0.021c0,0,0,0,0.22-0.043
			c1.45-0.273,2.595-1.405,2.89-2.845c0.05-0.237,0.05-0.237,0.05-0.237c0.012-0.273,0.024-0.64,0.024-0.816s0-0.853,0-1.502V59.707
			C214,59.056,213.995,58.393,213.991,58.229z M98.225,40.282c-1.763,0.93-3.184-0.073-3.514-1.417
			c-0.454-1.855,0.388-4.026,2.312-4.553c1.787-0.488,3.504,0.771,3.42,2.633C100.374,38.503,99.32,39.706,98.225,40.282z"/>
		<circle fill="#7DC8F0" cx="187.579" cy="53.034" r="3.66"/>
		<g>
			<path fill="#0A4682" d="M129.087,32.526c-0.228-0.682,0.124-1.48,0.786-1.769c0,0,0.637-0.279,1.579-0.643
				c6.22-2.406,12.985-3.668,19.779-3.668c0.545,0,1.085,0.009,1.624,0.024c1.787,0.052,3.577,0.188,5.345,0.409
				c0.74,0.091,0.913,0.118,0.913,0.118c0.713,0.112,1.248,0.707,1.191,1.324c-0.059,0.617-0.156,1.656-0.217,2.31
				c-0.062,0.654-0.695,1.109-1.411,1.01c0,0-3.519-0.476-5.955-0.546c-0.496-0.014-0.992-0.021-1.491-0.021
				c-6.214,0-12.397,1.148-18.077,3.342c-1.018,0.393-1.807,0.745-1.807,0.745c-0.658,0.294-1.386-0.024-1.614-0.708L129.087,32.526
				z"/>
		</g>
		<g>
			<path fill="#FFB900" d="M149.419,3.879c-8.053-3.335-17.285,0.488-20.621,8.54c-2.545,6.146-0.916,12.976,3.575,17.352
				c1.386,1.35,3.044,2.466,4.94,3.255c4.482-1.282,9.189-1.951,13.917-1.951c0.499,0,0.995,0.008,1.491,0.021
				c0.035,0.002,0.071,0.003,0.106,0.005c1.568-1.169,2.933-2.641,3.997-4.376c0.429-0.701,0.812-1.442,1.136-2.227
				C161.296,16.445,157.472,7.215,149.419,3.879z"/>
		</g>
		<g>
			<path fill="#FFE57E" d="M148.578,5.913c-1.662-0.69-3.41-1.039-5.197-1.039c-5.514,0-10.44,3.294-12.55,8.388
				c-1.389,3.351-1.389,7.042,0,10.394c0.871,2.098,2.219,3.906,3.926,5.304c1.022,0.834,2.172,1.526,3.425,2.045
				c1.185,0.491,2.412,0.807,3.666,0.949c2.07-0.391,4.174-0.645,6.29-0.773c2.453-0.916,4.593-2.525,6.16-4.651
				c0.645-0.875,1.198-1.835,1.629-2.874C158.793,16.739,155.494,8.779,148.578,5.913z M154.002,22.859
				c-0.564,1.365-1.37,2.576-2.351,3.593c-2.125,2.204-5.084,3.51-8.279,3.51c-1.508,0-2.985-0.297-4.393-0.88
				c-0.579-0.24-1.127-0.534-1.653-0.858c-2.039-1.259-3.634-3.108-4.572-5.365c-1.174-2.838-1.174-5.963,0-8.799
				c1.787-4.315,5.959-7.102,10.627-7.102c1.511,0,2.991,0.294,4.399,0.878C153.638,10.262,156.426,17.003,154.002,22.859z"/>
		</g>
		<g>
			<g>
				<path fill="#FFE57E" d="M139.246,19.706c-0.528,1.587,0.13,3.219,1.805,3.913c1.517,0.628,3.17,0.109,3.837-1.499
					c0.74-1.787-0.208-3.223-1.681-3.835c-1.027-0.425-2.074-0.361-2.827,0.008l-2.143-1.961l4.81-6.559l7.924,3.282L150,15.401
					l-6.116-2.536l-2.409,3.291c0.892-0.388,2.157-0.282,3.182,0.143c2.879,1.192,4.217,3.837,2.958,6.874
					c-1.127,2.724-4.168,4.132-7.517,2.744c-3.125-1.294-4.408-4.258-3.643-6.609L139.246,19.706z"/>
			</g>
		</g>
	</g>
</g>
<g id="Layer_5_copy" display="none">
	<g display="inline">
		<path fill="#FFB900" d="M209.431,33.775H177c-0.746,0-1.356-0.61-1.356-1.358v-7.705c0-0.75-0.049-1.97-0.109-2.716
			c0,0-0.06-0.776-0.369-1.761c-1.051-3.339-3.748-5.957-7.134-6.897c-0.889-0.249-1.428-0.286-1.428-0.286
			c-0.746-0.049-1.966-0.094-2.716-0.094h-21.748c-0.75,0-1.97,0.051-2.716,0.107c0,0-0.772,0.062-1.755,0.367
			c-3.72,1.171-6.546,4.379-7.16,8.309c-0.081,0.523-0.081,0.523-0.081,0.523c-0.024,0.597-0.043,1.697-0.043,2.447v7.705
			c0,0.748-0.612,1.358-1.358,1.358H96.565c-2.996,0-4.537,1.337-4.537,4.731v79.212c0,2.667,1.601,4.283,4.217,4.283H209.83
			c2.727,0,4.17-1.672,4.17-4.407V38.425C214,35.361,212.557,33.775,209.431,33.775z M137.579,23.673
			c0-2.232,1.352-3.518,3.654-3.518h23.307c2.52,0,3.91,1.318,3.91,3.678v8.584c0,0.748-0.614,1.358-1.36,1.358h-28.151
			c-0.748,0-1.36-0.61-1.36-1.358V23.673z"/>
		<path fill="#E6007E" d="M214,53.25h-19.093v-2.972c0-3.514-2.851-6.362-6.366-6.362c-3.51,0-6.358,2.848-6.358,6.362v2.972
			h-58.337v-2.972c0-3.514-2.847-6.362-6.362-6.362c-3.511,0-6.362,2.848-6.362,6.362v2.972H92.028v3.309h19.095v2.97
			c0,3.518,2.851,6.364,6.362,6.364c3.514,0,6.362-2.846,6.362-6.364v-2.97h58.337v2.97c0,3.518,2.847,6.364,6.358,6.364
			c3.514,0,6.366-2.846,6.366-6.364v-2.97H214V53.25z"/>
		<path fill="#FFFFFF" d="M160.586,77.572c-0.667,0-1.211-0.542-1.211-1.213V66.066c0-0.667-0.544-1.209-1.211-1.209h-10.298
			c-0.667,0-1.213,0.542-1.213,1.209V76.36c0,0.67-0.546,1.213-1.209,1.213h-10.298c-0.667,0-1.211,0.546-1.211,1.213v10.298
			c0,0.663,0.544,1.209,1.211,1.209h10.298c0.663,0,1.209,0.546,1.209,1.213V101.8c0,0.67,0.546,1.213,1.213,1.213h10.298
			c0.667,0,1.211-0.542,1.211-1.213V91.505c0-0.667,0.544-1.213,1.211-1.213h10.297c0.667,0,1.209-0.546,1.209-1.209V78.785
			c0-0.667-0.542-1.213-1.209-1.213H160.586z"/>
	</g>
	<g display="inline">
		<path fill="#B0CB0B" d="M9.587,64.818l4.183,12.629c-1.734-0.445-4.475-1.12-6.394-1.453c-0.372-0.062-1.244-0.19-1.989-0.186
			c-0.743,0.003-1.359,0.148-1.677,0.253c-2.837,0.941-4.372,3.998-3.436,6.829c0.939,2.834,3.997,4.37,6.834,3.43
			c0.318-0.106,0.897-0.359,1.496-0.798c0.603-0.438,1.225-1.062,1.483-1.338c1.343-1.412,3.141-3.59,4.266-4.982l7.091,21.413
			l3.17-1.05L12.757,63.769L9.587,64.818z"/>
		<path fill="#B0CB0B" d="M39.98,64.818l-4.183,12.629c1.734-0.445,4.475-1.12,6.394-1.453c0.372-0.062,1.244-0.19,1.989-0.186
			c0.745,0.003,1.359,0.148,1.677,0.253c2.837,0.941,4.371,3.998,3.436,6.829c-0.938,2.834-3.996,4.37-6.833,3.43
			c-0.317-0.106-0.898-0.359-1.497-0.798c-0.602-0.438-1.224-1.062-1.482-1.338c-1.343-1.412-3.14-3.59-4.266-4.982l-7.091,21.413
			l-3.169-1.05L36.81,63.769L39.98,64.818z"/>
		<path fill="#F0A5C3" d="M5.981,58.644l1.414-5.939l4.665,3.926l1.443-5.947c0.063,0.051,0.122,0.108,0.185,0.16
			c-2.763-2.854-8.99-7.658-9.554-7.985c0,0-1.942,7.169-2.921,12.217c0.026-0.116,0.047-0.231,0.075-0.347L5.981,58.644z"/>
		<path fill="#E6007E" d="M16.899,54.23c-0.563-0.769-1.306-1.56-1.826-2.083c-0.436-0.462-0.899-0.898-1.384-1.304
			c-0.063-0.052-0.123-0.108-0.185-0.159l-1.443,5.947l-4.665-3.927l-1.413,5.94l-4.694-3.915c-0.028,0.115-0.049,0.231-0.076,0.347
			c-0.129,0.557-0.235,1.122-0.302,1.691c-0.111,0.731-0.243,1.849-0.235,2.834c0.01,1.245,0.248,2.272,0.422,2.8
			c1.57,4.74,6.676,7.307,11.41,5.739c0.29-0.096,0.57-0.207,0.841-0.329c4.185-1.861,6.355-6.634,4.882-11.085
			C18.055,56.2,17.636,55.233,16.899,54.23"/>
		<polygon fill="#B0CB0B" points="26.447,70.763 26.447,47.163 23.106,47.163 23.106,70.764 23.106,72.613 23.106,114.564 
			26.447,114.564 26.447,72.613 		"/>
		<path fill="#E6007E" d="M20.476,36.654l4.242-6.894l4.264,6.894l4.285-6.892c1.96,3.051,3.164,6.779,3.164,9.875
			c0,6.468-5.245,11.71-11.712,11.71c-6.468,0-11.711-5.242-11.711-11.71c0-3.096,1.202-6.824,3.163-9.875L20.476,36.654z"/>
		<path fill="#F0A5C3" d="M43.828,52.094c-0.653,0.329-1.371,1.04-2.064,1.891c-0.052-1.096-0.205-2.093-0.534-2.748
			c-1.245-2.472-4.269-3.47-6.742-2.224c-2.472,1.245-3.47,4.269-2.225,6.741c0.33,0.654,1.039,1.371,1.89,2.065
			c-1.096,0.052-2.093,0.205-2.746,0.534c-2.472,1.245-3.47,4.269-2.224,6.742c1.245,2.472,4.269,3.47,6.742,2.225
			c0.652-0.329,1.368-1.041,2.064-1.891c0.052,1.097,0.204,2.093,0.534,2.746c1.244,2.473,4.269,3.472,6.742,2.227
			c2.472-1.245,3.47-4.27,2.224-6.743c-0.33-0.654-1.039-1.369-1.89-2.063c1.096-0.052,2.094-0.205,2.748-0.534
			c2.472-1.246,3.471-4.269,2.224-6.742C49.325,51.847,46.301,50.848,43.828,52.094z"/>
		<circle fill="#E6007E" cx="39.876" cy="59.707" r="4.34"/>
		<path fill="#FFB900" d="M32.971,95.256c-0.357-0.253-0.536-0.799-0.398-1.214l2.394-7.225c0.137-0.415-0.109-0.754-0.545-0.754
			H15.146c-0.436,0-0.682,0.339-0.544,0.754l2.372,7.162c0.137,0.415-0.038,0.966-0.389,1.227c0,0-2.497,1.849-3.654,3.41
			c-1.808,2.437-2.876,5.453-2.877,8.721c0,8.097,6.566,14.664,14.664,14.664c8.099,0,14.664-6.566,14.664-14.664
			c0-3.859-1.492-7.372-3.93-9.989C34.534,96.361,32.971,95.256,32.971,95.256z"/>
	</g>
</g>
</svg>
