<?xml version="1.0" encoding="utf-8"?>
<!-- Generator: Adobe Illustrator 18.0.0, SVG Export Plug-In . SVG Version: 6.00 Build 0)  -->
<!DOCTYPE svg PUBLIC "-//W3C//DTD SVG 1.1//EN" "http://www.w3.org/Graphics/SVG/1.1/DTD/svg11.dtd">
<svg version="1.1" xmlns="http://www.w3.org/2000/svg" xmlns:xlink="http://www.w3.org/1999/xlink" x="0px" y="0px"
	 viewBox="0 0 912 513" enable-background="new 0 0 912 513" xml:space="preserve">
<g id="Layer_1" display="none">
	<path display="inline" fill="#FFFFFF" d="M173.129,52.175c0.119-1.17,0.299-2.347,0.299-3.56c0-11.976-9.707-21.683-21.683-21.683
		c-4.002,0-7.669,1.23-10.968,2.973c-0.997,0.527-1.974,0.323-2.016-1.117c-0.006-0.262-0.148-1.735-0.213-2.209
		C136.627,12.443,124.51,1.551,109.85,1.551c-8.144,0-15.662,3.21-20.757,8.775c-1.078,1.177-2.408,1.793-3.826,0.51
		C77.983,4.247,68.47,0,57.871,0C35.733,0,17.788,17.944,17.788,40.082c0,4.193,0.648,8.23,1.845,12.028
		c0.071,0.223,0.145,0.444,0.22,0.668c0.213,0.638,0.363,1.487-1.011,1.828C8.059,57.273,0,66.886,0,78.478
		c0,13.558,10.989,24.545,24.545,24.545h145.816c13.558,0,24.547-10.988,24.547-24.545c0-12.226-8.974-22.167-20.638-24.234
		C173.037,54.026,172.987,53.565,173.129,52.175z"/>
	<g display="inline">
		<path id="XMLID_376_" fill="#F2A4C3" d="M824.471,513L664.852,172.674c-11.461-24.386-46.154-24.386-57.637,0l-69.286,147.759
			L628.261,513H824.471z"/>
		<path id="XMLID_132_" fill="#8C005A" d="M537.928,320.433l-29.014-61.847c-8.933-19.079-36.11-19.079-45.043,0L344.542,513
			h103.087h180.632L537.928,320.433z"/>
		<path id="XMLID_42_" fill="#FFFFFF" d="M416.881,225.343c0-1.455-0.432-2.415-0.895-3.044c-1.012-1.596-2.782-2.663-4.812-2.663
			h-4.045H395.11c-2.226,0-2.757-1.287-1.185-2.86l2.878-2.88l5.739-5.738c1.437-1.435,1.933-3.44,1.52-5.287
			c-0.117-0.77-0.49-1.754-1.518-2.784c-1.031-1.029-2.014-1.403-2.788-1.521c-1.844-0.411-3.848,0.087-5.283,1.521l-2.856,2.857
			c-0.001,0.001-0.003,0.001-0.004,0.004l-6.915,6.914l-6.918,6.915c-1.573,1.572-4.679,2.858-6.902,2.858h-15.158
			c-2.223,0-3.132-1.575-2.023-3.499l3.791-6.567l3.789-6.564c1.112-1.926,3.777-3.971,5.927-4.55l9.446-2.53l9.443-2.53
			c0.003,0,0.003,0,0.003,0l3.904-1.047c1.962-0.525,3.394-2.014,3.959-3.818c0.284-0.727,0.456-1.766,0.076-3.171
			c-0.378-1.41-1.042-2.225-1.655-2.712c-1.389-1.278-3.374-1.849-5.332-1.324l-3.905,1.047c-0.003,0-0.003,0-0.003,0l-3.933,1.054
			l-3.931,1.054c-2.148,0.576-2.997-0.528-1.886-2.451l3.005-5.207l3.003-5.206c0.003-0.001,0.004-0.004,0.004-0.007l2.019-3.495
			c1.015-1.759,0.976-3.827,0.099-5.504c-0.314-0.714-0.928-1.567-2.188-2.293c-1.259-0.727-2.307-0.832-3.083-0.747
			c-1.889,0.079-3.698,1.079-4.713,2.837l-5.026,8.706l-3.005,5.205c-1.111,1.924-2.487,1.744-3.067-0.395l-1.056-3.943
			l-1.054-3.932c-0.001-0.005-0.005-0.013-0.005-0.019l-1.041-3.888c-0.527-1.963-2.019-3.398-3.824-3.96
			c-0.727-0.282-1.763-0.452-3.165-0.077c-1.406,0.376-2.221,1.043-2.708,1.653c-1.279,1.389-1.852,3.376-1.326,5.336l1.043,3.894
			c0.002,0.004,0.002,0.009,0.003,0.013l3.072,11.461l1.992,7.435c0.573,2.146,0.134,5.473-0.976,7.399l-3.79,6.567l-3.791,6.566
			c-1.109,1.924-2.927,1.926-4.04,0.005l-3.794-6.571l-3.791-6.567c-1.114-1.926-1.553-5.258-0.976-7.407l2.251-8.403l3.857-14.391
			c0.527-1.962-0.048-3.949-1.329-5.338c-0.487-0.611-1.302-1.277-2.706-1.653c-1.411-0.375-2.45-0.206-3.177,0.078
			c-1.802,0.564-3.288,1.998-3.812,3.956l-1.855,6.925l-1.3,4.851c-0.576,2.147-1.953,2.33-3.066,0.411l-8.038-13.92
			c-1.015-1.756-2.821-2.756-4.707-2.835c-0.777-0.087-1.826,0.017-3.089,0.747c-1.26,0.728-1.874,1.58-2.188,2.295
			c-0.878,1.675-0.916,3.742,0.099,5.501l2.014,3.491c0.004,0.004,0.005,0.008,0.006,0.011l6.012,10.409
			c1.113,1.927,0.265,3.032-1.885,2.455l-3.933-1.054l-7.84-2.1c-1.962-0.527-3.947,0.047-5.338,1.326
			c-0.611,0.488-1.274,1.303-1.651,2.709c-0.377,1.406-0.208,2.444,0.077,3.171c0.564,1.803,1.998,3.292,3.958,3.818l3.902,1.047
			c0.003,0,0.003,0,0.005,0l9.447,2.532l9.45,2.533c2.148,0.575,4.815,2.622,5.926,4.547l3.792,6.563l3.794,6.57
			c1.106,1.923,0.196,3.497-2.026,3.497h-15.166c-2.224,0-5.33-1.286-6.904-2.858l-6.915-6.915l-6.915-6.914
			c-0.002-0.003-0.003-0.003-0.005-0.004l-2.856-2.857c-1.435-1.435-3.443-1.932-5.287-1.517c-0.772,0.116-1.754,0.489-2.783,1.517
			c-1.03,1.031-1.402,2.014-1.518,2.784c-0.415,1.846,0.085,3.851,1.52,5.287l2.847,2.849c0.004,0.004,0.009,0.008,0.011,0.011
			l2.88,2.88l2.885,2.884c1.564,1.57,1.032,2.854-1.191,2.854h-12.017h-4.045c-2.028,0-3.799,1.068-4.814,2.665
			c-0.46,0.628-0.894,1.587-0.894,3.042c0,1.454,0.433,2.412,0.894,3.042c1.015,1.596,2.785,2.663,4.814,2.663h4.045h12.018
			c2.227,0,2.757,1.287,1.185,2.861l-5.759,5.761c-0.003,0.001-0.003,0.004-0.007,0.005l-2.851,2.853
			c-1.435,1.435-1.934,3.442-1.52,5.287c0.117,0.773,0.489,1.755,1.52,2.786c1.114,1.111,2.574,1.669,4.034,1.669
			c1.461,0,1.461,0,1.461,0c0.17-0.107,0.355-0.238,0.551-0.376c0.737-0.278,1.43-0.7,2.023-1.293l9.776-9.777l6.915-6.917
			c1.572-1.571,4.679-2.858,6.904-2.858h15.166c2.221,0,3.132,1.574,2.026,3.498l-5.311,9.197l-2.275,3.94
			c-1.111,1.926-3.777,3.97-5.923,4.549l-9.454,2.532l-9.447,2.532c-0.003,0-0.005,0.001-0.008,0.001l-3.898,1.045
			c-1.96,0.523-3.394,2.013-3.958,3.816c-0.284,0.727-0.453,1.764-0.077,3.171c0.378,1.412,1.047,2.229,1.66,2.717
			c1.388,1.273,3.372,1.84,5.329,1.318l3.899-1.046c0.002,0,0.004,0,0.008,0l3.934-1.055l3.937-1.054
			c2.146-0.574,2.993,0.531,1.881,2.456l-6.012,10.409c0,0-0.002,0.005-0.006,0.011l-2.014,3.491
			c-1.016,1.756-0.977,3.824-0.099,5.5c0.312,0.714,0.928,1.568,2.188,2.294c0.899,0.52,1.879,0.766,2.847,0.766
			c1.973,0,2.029-0.055,2.029-0.055c0.185-0.176,0.38-0.375,0.58-0.585c0.943-0.484,1.769-1.227,2.34-2.215l4.127-7.148l3.907-6.766
			c1.111-1.927,2.493-1.746,3.067,0.404l1.056,3.935l2.1,7.841c0.363,1.356,1.194,2.456,2.266,3.2
			c0.023,0.032,0.046,0.071,0.068,0.105c0,0,0.654,0.926,3.173,0.926c0.491,0,0.987-0.063,1.483-0.193
			c1.404-0.378,2.219-1.043,2.706-1.653c1.282-1.391,1.853-3.378,1.329-5.338l-1.044-3.894c-0.001-0.004-0.001-0.009-0.003-0.012
			l-2.532-9.446l-2.532-9.454c-0.574-2.145-0.136-5.468,0.973-7.394l7.591-13.148c1.113-1.92,2.931-1.919,4.04,0.007l3.791,6.564
			l3.79,6.567c1.113,1.926,1.551,5.26,0.976,7.407l-2.532,9.447l-2.53,9.448v0.001l-1.047,3.904
			c-0.525,1.961,0.047,3.948,1.329,5.339c0.485,0.609,1.301,1.275,2.706,1.652c0.495,0.132,0.992,0.195,1.481,0.195
			c2.52,0,3.174-0.926,3.174-0.926c0.023-0.034,0.046-0.074,0.069-0.105c1.07-0.743,1.901-1.844,2.265-3.202l1.424-5.317l1.73-6.454
			c0.575-2.149,1.955-2.33,3.068-0.405l3.005,5.205l5.026,8.708c0.57,0.988,1.394,1.731,2.337,2.213
			c0.2,0.21,0.395,0.409,0.581,0.586c0,0,0.056,0.055,2.03,0.055c0.968,0,1.949-0.246,2.848-0.765
			c1.26-0.727,1.875-1.582,2.188-2.294c0.877-1.677,0.915-3.742-0.099-5.502l-2.019-3.497c0-0.001-0.001-0.004-0.004-0.005
			l-3.003-5.206l-3.005-5.207c-1.111-1.926-0.261-3.028,1.886-2.452l3.931,1.054l7.84,2.1c1.956,0.521,3.939-0.046,5.329-1.321
			c0.611-0.485,1.28-1.302,1.658-2.714c0.38-1.407,0.208-2.444-0.076-3.171c-0.564-1.803-1.997-3.294-3.959-3.816l-3.902-1.047
			c0,0-0.002,0-0.005,0l-18.887-5.062c-2.148-0.576-4.817-2.624-5.929-4.55l-3.79-6.566l-3.79-6.567
			c-1.113-1.927-0.201-3.502,2.022-3.502h15.159c2.222,0,5.322,1.285,6.898,2.854l6.921,6.921l6.915,6.917
			c0.01,0.009,0.021,0.02,0.03,0.03l2.83,2.831c0.591,0.593,1.286,1.015,2.022,1.293c0.197,0.138,0.382,0.269,0.552,0.379
			c0,0,0,0,1.46,0c1.461,0,2.921-0.556,4.035-1.67c1.029-1.032,1.403-2.014,1.52-2.787c0.413-1.845-0.085-3.85-1.52-5.285
			l-5.739-5.742l-2.881-2.881c-1.573-1.571-1.04-2.858,1.185-2.858h12.022h4.045c2.03,0,3.8-1.067,4.812-2.663
			C416.449,227.755,416.881,226.797,416.881,225.343z"/>
		<path id="XMLID_267_" fill="#FFFFFF" d="M838.557,322.726c0-1.455-0.432-2.415-0.895-3.044c-1.012-1.596-2.782-2.663-4.812-2.663
			h-4.045h-12.018c-2.226,0-2.758-1.287-1.185-2.86l2.878-2.88l5.739-5.738c1.437-1.435,1.933-3.44,1.52-5.287
			c-0.117-0.77-0.49-1.754-1.518-2.784c-1.031-1.029-2.014-1.403-2.788-1.521c-1.844-0.411-3.848,0.087-5.283,1.521l-2.856,2.857
			c-0.001,0.001-0.003,0.001-0.004,0.004l-6.915,6.914l-6.918,6.915c-1.573,1.572-4.679,2.858-6.902,2.858h-15.158
			c-2.223,0-3.132-1.575-2.023-3.499l3.791-6.567l3.789-6.564c1.112-1.926,3.777-3.971,5.927-4.55l9.446-2.53l9.443-2.53
			c0.003,0,0.003,0,0.003,0l3.904-1.047c1.962-0.525,3.394-2.014,3.959-3.818c0.284-0.727,0.456-1.766,0.076-3.171
			c-0.378-1.41-1.042-2.225-1.655-2.712c-1.389-1.278-3.374-1.849-5.332-1.324l-3.905,1.047c-0.003,0-0.003,0-0.003,0l-3.933,1.054
			l-3.931,1.053c-2.148,0.577-2.997-0.528-1.886-2.451l3.005-5.207l3.003-5.206c0.003-0.001,0.004-0.004,0.004-0.007l2.019-3.495
			c1.015-1.759,0.976-3.827,0.099-5.504c-0.314-0.714-0.928-1.567-2.188-2.293c-1.259-0.727-2.307-0.832-3.083-0.747
			c-1.889,0.079-3.698,1.079-4.713,2.837l-5.026,8.706l-3.005,5.204c-1.111,1.924-2.487,1.744-3.067-0.395l-1.056-3.943
			l-1.054-3.932c-0.001-0.005-0.005-0.013-0.005-0.019l-1.041-3.888c-0.527-1.963-2.019-3.398-3.824-3.96
			c-0.727-0.282-1.763-0.452-3.165-0.077c-1.406,0.376-2.221,1.043-2.708,1.653c-1.279,1.389-1.852,3.376-1.326,5.336l1.043,3.894
			c0.002,0.004,0.002,0.009,0.003,0.013l3.072,11.461l1.992,7.435c0.573,2.146,0.134,5.473-0.976,7.399l-3.79,6.567l-3.791,6.566
			c-1.109,1.924-2.927,1.926-4.04,0.005l-3.794-6.571l-3.791-6.567c-1.114-1.926-1.553-5.258-0.976-7.407l2.251-8.403l3.857-14.391
			c0.527-1.962-0.048-3.949-1.329-5.338c-0.487-0.611-1.302-1.277-2.706-1.653c-1.411-0.375-2.45-0.206-3.177,0.078
			c-1.802,0.564-3.288,1.998-3.812,3.956l-1.855,6.925l-1.3,4.851c-0.576,2.147-1.953,2.33-3.066,0.411l-8.038-13.92
			c-1.015-1.756-2.821-2.756-4.707-2.835c-0.777-0.087-1.826,0.017-3.089,0.747c-1.26,0.728-1.874,1.58-2.188,2.295
			c-0.878,1.675-0.916,3.742,0.099,5.501l2.014,3.491c0.004,0.004,0.005,0.008,0.006,0.011l6.011,10.409
			c1.113,1.927,0.265,3.032-1.885,2.455l-3.933-1.053l-7.84-2.1c-1.962-0.527-3.947,0.047-5.338,1.326
			c-0.611,0.488-1.274,1.303-1.651,2.709c-0.377,1.406-0.208,2.444,0.077,3.171c0.564,1.803,1.998,3.292,3.958,3.818l3.902,1.047
			c0.003,0,0.003,0,0.005,0l9.447,2.532l9.45,2.533c2.148,0.575,4.815,2.622,5.926,4.547l3.792,6.563l3.794,6.57
			c1.106,1.923,0.196,3.497-2.026,3.497h-15.166c-2.224,0-5.33-1.286-6.904-2.858l-6.915-6.915l-6.915-6.914
			c-0.002-0.003-0.003-0.003-0.005-0.004l-2.856-2.857c-1.435-1.435-3.443-1.932-5.287-1.517c-0.772,0.116-1.754,0.489-2.783,1.517
			c-1.03,1.031-1.402,2.014-1.518,2.784c-0.415,1.846,0.085,3.851,1.52,5.287l2.847,2.849c0.004,0.004,0.009,0.008,0.011,0.011
			l2.88,2.88l2.885,2.884c1.564,1.57,1.032,2.854-1.191,2.854h-12.017h-4.045c-2.028,0-3.799,1.068-4.813,2.665
			c-0.46,0.628-0.894,1.587-0.894,3.042c0,1.454,0.433,2.412,0.894,3.042c1.015,1.596,2.785,2.663,4.813,2.663h4.045h12.018
			c2.227,0,2.758,1.287,1.185,2.861l-5.759,5.761c-0.003,0.001-0.003,0.004-0.007,0.005l-2.851,2.853
			c-1.435,1.435-1.935,3.441-1.52,5.287c0.117,0.773,0.489,1.755,1.52,2.786c1.114,1.111,2.574,1.669,4.034,1.669
			c1.461,0,1.461,0,1.461,0c0.17-0.107,0.355-0.238,0.551-0.376c0.737-0.278,1.43-0.7,2.023-1.293l9.776-9.777l6.915-6.917
			c1.572-1.571,4.679-2.858,6.904-2.858h15.166c2.221,0,3.132,1.574,2.026,3.498l-5.311,9.197l-2.275,3.94
			c-1.111,1.926-3.777,3.97-5.923,4.549l-9.454,2.532l-9.447,2.532c-0.003,0-0.005,0.001-0.008,0.001l-3.898,1.045
			c-1.96,0.523-3.394,2.013-3.958,3.816c-0.284,0.727-0.453,1.764-0.077,3.171c0.378,1.412,1.047,2.229,1.66,2.717
			c1.388,1.273,3.372,1.84,5.329,1.318l3.899-1.046c0.002,0,0.004,0,0.008,0l3.934-1.055l3.937-1.053
			c2.146-0.574,2.993,0.531,1.881,2.456l-6.011,10.409c0,0-0.002,0.005-0.006,0.011l-2.014,3.491
			c-1.016,1.756-0.977,3.824-0.099,5.5c0.312,0.714,0.928,1.568,2.188,2.294c0.899,0.52,1.879,0.766,2.847,0.766
			c1.973,0,2.029-0.055,2.029-0.055c0.185-0.176,0.38-0.375,0.58-0.585c0.943-0.484,1.769-1.227,2.34-2.215l4.127-7.148l3.907-6.766
			c1.111-1.927,2.493-1.746,3.067,0.404l1.056,3.935l2.1,7.841c0.363,1.356,1.194,2.456,2.266,3.2
			c0.023,0.032,0.046,0.071,0.068,0.105c0,0,0.654,0.926,3.173,0.926c0.49,0,0.987-0.063,1.483-0.193
			c1.404-0.378,2.219-1.043,2.706-1.653c1.282-1.391,1.853-3.378,1.329-5.338l-1.044-3.894c-0.001-0.004-0.001-0.009-0.003-0.012
			l-2.532-9.446l-2.532-9.454c-0.574-2.145-0.136-5.468,0.973-7.394l7.591-13.148c1.113-1.92,2.931-1.919,4.04,0.007l3.791,6.564
			l3.79,6.567c1.113,1.926,1.551,5.26,0.976,7.407l-2.532,9.447l-2.53,9.448v0.001l-1.047,3.904
			c-0.525,1.961,0.047,3.948,1.329,5.339c0.485,0.609,1.301,1.275,2.706,1.652c0.495,0.132,0.992,0.195,1.481,0.195
			c2.52,0,3.174-0.926,3.174-0.926c0.023-0.034,0.046-0.074,0.069-0.105c1.07-0.743,1.901-1.844,2.265-3.202l1.424-5.317l1.73-6.454
			c0.575-2.149,1.955-2.33,3.068-0.404l3.005,5.205l5.026,8.708c0.57,0.988,1.394,1.731,2.338,2.213
			c0.2,0.21,0.395,0.409,0.581,0.586c0,0,0.056,0.055,2.03,0.055c0.968,0,1.949-0.246,2.848-0.765
			c1.26-0.727,1.875-1.582,2.188-2.294c0.877-1.677,0.915-3.742-0.099-5.502l-2.019-3.497c0-0.001-0.001-0.004-0.004-0.005
			l-3.003-5.206l-3.005-5.207c-1.111-1.926-0.261-3.028,1.886-2.452l3.931,1.053l7.841,2.1c1.956,0.521,3.939-0.046,5.329-1.321
			c0.611-0.485,1.28-1.302,1.658-2.714c0.38-1.407,0.208-2.444-0.076-3.171c-0.564-1.803-1.997-3.294-3.959-3.816l-3.902-1.047
			c0,0-0.002,0-0.005,0l-18.887-5.062c-2.148-0.576-4.817-2.624-5.929-4.55l-3.79-6.566l-3.79-6.567
			c-1.113-1.927-0.201-3.502,2.022-3.502h15.159c2.222,0,5.322,1.285,6.898,2.854l6.921,6.921l6.915,6.917
			c0.01,0.009,0.021,0.02,0.03,0.03l2.83,2.831c0.591,0.593,1.286,1.015,2.022,1.293c0.197,0.138,0.382,0.269,0.552,0.379
			c0,0,0,0,1.46,0c1.461,0,2.921-0.556,4.035-1.67c1.029-1.032,1.403-2.014,1.52-2.787c0.413-1.845-0.085-3.85-1.52-5.285
			l-5.739-5.742l-2.881-2.881c-1.573-1.571-1.04-2.858,1.185-2.858h12.022h4.045c2.03,0,3.8-1.067,4.812-2.663
			C838.125,325.138,838.557,324.18,838.557,322.726z"/>
	</g>
</g>
<g id="Layer_2" display="none">
	<g display="inline">
		<g>
			<g>
				<g>
					<path fill="#994916" d="M613.042,399.875H506.663c-7.019,0-12.812,5.588-12.812,12.607c0,7.155,5.793,12.607,12.812,12.607
						h1.704l10.699,81.096c0.477,3.68,3.816,6.815,7.496,6.815h66.444c3.68,0,7.019-3.203,7.496-6.815l10.699-81.096h1.704
						c7.156,0,12.812-5.588,12.812-12.607C625.853,405.327,620.061,399.875,613.042,399.875z"/>
				</g>
				<path fill="#E6007E" d="M595.664,120.198c-0.136,0.273-0.613,1.09-0.613,1.09l-8.11,13.084l-8.11,13.084l0,0
					c-0.477,0.75-1.227,0.75-1.704,0l-7.973-13.084l-8.11-13.084l0,0c-0.477-0.75-1.227-0.75-1.704,0l-8.11,13.084l-7.973,13.152
					c-0.477,0.75-1.227,0.75-1.704,0l-8.11-13.084c0,0-8.382-13.425-8.518-13.902c-0.273-0.477-0.613-0.273-0.75,0
					c-7.905,12.675-12.812,28.077-12.812,40.82c0,27.123,21.944,49.066,49.066,49.066c27.123,0,49.066-21.943,49.066-49.066
					c0-12.812-4.907-28.213-12.948-41.025C596.141,120.062,595.8,119.925,595.664,120.198z"/>
				<path fill="#B0CB0B" d="M590.485,284.229c1.363,0.75,4.634,2.453,7.564,3.339c3.067,0.886,5.588,1.227,6.951,1.227
					c12.471,0,22.693-10.222,22.693-22.693c0-12.471-10.222-22.693-22.693-22.693c-1.363,0-3.953,0.273-7.019,1.227
					c-2.862,0.886-6.133,2.59-7.496,3.339c-7.155,3.816-17.241,10.222-23.375,14.175v-52.406c-2.044,0.273-4.566,0.477-6.883,0.477
					c-2.453,0-4.702-0.136-7.428-0.613v52.61c-6.133-4.089-16.287-10.358-23.443-14.175c-1.363-0.75-4.702-2.453-7.633-3.339
					c-2.862-0.886-5.656-1.227-7.019-1.227c-12.471,0-22.693,10.222-22.693,22.693c0,12.471,10.222,22.693,22.693,22.693
					c1.363,0,3.953-0.273,7.019-1.227c3.067-0.886,6.201-2.59,7.564-3.339c7.155-3.816,17.309-10.222,23.443-14.175v72.236
					c-6.133-4.089-16.287-10.358-23.443-14.175c-1.363-0.75-4.702-2.453-7.633-3.339c-2.862-0.886-5.656-1.227-7.019-1.227
					c-12.471,0-22.693,10.222-22.693,22.693s10.222,22.693,22.693,22.693c1.363,0,3.953-0.273,7.019-1.227
					c3.067-0.886,6.201-2.59,7.564-3.339c7.155-3.816,17.31-10.222,23.443-14.175v49.611h14.311v-49.611
					c6.133,4.089,16.219,10.358,23.375,14.175c1.363,0.75,4.634,2.453,7.564,3.339c3.067,0.886,5.588,1.227,6.951,1.227
					c12.471,0,22.693-10.222,22.693-22.693s-10.222-22.693-22.693-22.693c-1.363,0-3.953,0.273-7.019,1.227
					c-2.862,0.886-6.133,2.59-7.496,3.339c-7.155,3.816-17.241,10.222-23.375,14.175v-72.236
					C573.243,274.007,583.329,280.413,590.485,284.229z"/>
			</g>
			<g>
				<g>
					<g>
						<path fill="#FFB900" d="M711.515,275.438c-7.019,12.471-3.816,28.486,8.11,37.072c11.858,8.518,28.077,6.678,37.822-3.816
							c9.609,10.495,25.896,12.471,37.822,3.816c11.858-8.518,15.061-24.669,8.11-37.072c12.948-5.929,19.831-20.717,15.265-34.755
							c-4.566-13.902-18.741-21.943-32.779-19.081c-1.499-14.175-13.561-25.283-28.213-25.283
							c-14.652,0-26.646,11.108-28.213,25.283c-14.038-2.862-28.213,5.179-32.779,19.081
							C691.684,254.653,698.567,269.441,711.515,275.438z"/>
					</g>
					<g>
						<path fill="#FFE57E" d="M778.299,262.626c0,11.585-9.473,21.058-21.058,21.058s-21.058-9.473-21.058-21.058
							c0-11.585,9.473-21.058,21.058-21.058S778.299,251.041,778.299,262.626z"/>
					</g>
					<g>
						<path fill="#994916" d="M810.465,399.875H704.087c-7.019,0-12.812,5.588-12.812,12.607c0,7.155,5.793,12.607,12.812,12.607
							h1.704l10.699,81.096c0.477,3.68,3.816,6.815,7.496,6.815h66.444c3.68,0,7.019-3.203,7.496-6.815l10.699-81.096h1.704
							c7.155,0,12.812-5.588,12.812-12.607C823.277,405.327,817.484,399.875,810.465,399.875z"/>
					</g>
				</g>
				<path fill="#B0CB0B" d="M764.193,359.123c6.406,4.089,16.355,10.358,23.511,14.175c1.363,0.75,4.77,2.453,7.633,3.339
					c3.067,0.886,5.656,1.227,7.019,1.227c12.471,0,22.693-10.222,22.693-22.693c0-12.471-10.222-22.693-22.693-22.693
					c-1.363,0-3.953,0.273-7.019,1.227c-2.862,0.886-6.338,2.59-7.701,3.339c-7.155,3.816-17.446,10.222-23.579,14.175v-37.209
					c-2.044-1.363-4.702-3.339-6.815-5.656c-2.113,2.317-4.089,4.089-6.815,5.656v37.209c-6.133-4.089-16.424-10.358-23.579-14.175
					c-1.363-0.75-4.77-2.453-7.701-3.339c-2.862-0.886-5.656-1.227-7.019-1.227c-12.471,0-22.693,10.222-22.693,22.693
					c0,12.471,10.222,22.693,22.693,22.693c1.363,0,4.089-0.273,7.019-1.227c3.067-0.886,6.338-2.59,7.701-3.339
					c7.156-3.816,17.446-10.222,23.579-14.175v40.752h13.63v-40.752L764.193,359.123L764.193,359.123z"/>
			</g>
			<g>
				<g>
					<path fill="none" d="M336.976,228.143c-0.136,0.273-0.273,0.613-0.477,0.75l0,0
						C336.703,228.757,336.84,228.484,336.976,228.143L336.976,228.143z"/>
					<polygon fill="#E690B4" points="376.638,248.451 376.638,248.451 370.709,238.979 					"/>
					<path fill="#E690B4" d="M336.567,228.893L336.567,228.893L336.567,228.893L336.567,228.893z"/>
					<path fill="#E690B4" d="M336.567,228.893c0.136-0.136,0.886-0.136,1.363,0.613l-0.886-1.363
						C336.84,228.484,336.703,228.757,336.567,228.893z"/>
					<polygon fill="#E690B4" points="349.651,248.451 349.651,248.451 343.859,238.979 					"/>
					<path fill="#E690B4" d="M378.342,248.451L378.342,248.451l11.858-18.877c0.477-0.75,0.886-1.227,1.09-1.09
						c0,0-0.136-0.136-0.136-0.273L378.342,248.451z"/>
					<path fill="#E690B4" d="M357.284,238.979l5.793-9.473c0.477-0.75,1.227-0.75,1.704,0l-0.886-1.363L357.284,238.979z"/>
					<path fill="#E690B4" d="M391.29,228.484L391.29,228.484L391.29,228.484z"/>
					<path fill="#E690B4" d="M337.93,229.506l5.929,9.473L337.93,229.506z"/>
					<path fill="#E690B4" d="M376.638,248.451l0.886,1.363l0.886-1.363C377.865,249.201,377.115,249.201,376.638,248.451z"/>
					<path fill="#E690B4" d="M364.917,229.506l5.793,9.473L364.917,229.506z"/>
					<path fill="#E690B4" d="M349.651,248.451l0.886,1.363l6.678-10.835l-5.793,9.473
						C351.014,249.201,350.265,249.201,349.651,248.451z"/>
					<path fill="#F0A5C3" d="M365.053,186.096L365.053,186.096c-0.136-0.136-0.136-0.136-0.136-0.136c-0.477-0.75-1.227-0.75-1.84,0
						l0,0l-0.136,0.136c-3.816,5.793-17.65,27.123-26.646,43.274c0.136-0.136,0.136-0.273,0.273-0.477l0,0l0,0
						c0.136-0.273,0.273-0.613,0.477-0.75l0,0l0.886,1.363l5.929,9.473l5.929,9.473c0.477,0.75,1.227,0.75,1.704,0l5.793-9.473
						l6.678-10.835l0.886,1.363l0,0l5.793,9.473l5.793,9.473c0.477,0.75,1.227,0.75,1.704,0l12.675-20.444l0,0
						c0.136,0.273,0.273,0.613,0.477,0.886C382.43,212.878,368.869,191.889,365.053,186.096z"/>
					<path fill="#E690B4" d="M336.567,228.893C336.567,229.098,336.567,229.098,336.567,228.893L336.567,228.893L336.567,228.893z"
						/>
				</g>
				<g>
					<path fill="#E6007E" d="M399.944,246.748c-1.227-3.816-3.203-7.905-4.566-10.699c-1.09-2.453-2.453-4.702-3.816-7.019
						c-0.136-0.273-0.273-0.613-0.477-0.886l-13.561,21.807l-13.425-21.807l-13.425,21.807l-13.561-21.807
						c-0.273,0.477-0.477,0.886-0.75,1.227c-1.227,1.976-2.453,4.089-3.475,6.406c-1.363,2.726-3.339,7.019-4.702,10.972
						c-1.704,5.043-1.976,9.268-1.976,11.721c0,20.853,16.901,37.958,37.822,37.958c1.227,0,2.59,0,3.816-0.136
						c19.081-1.84,34.006-17.991,34.006-37.617C401.921,256.016,401.512,251.654,399.944,246.748z"/>
				</g>
				<g>
					<g>
						<path fill="#994916" d="M417.049,399.875H310.603c-7.019,0-12.812,5.588-12.812,12.607c0,7.155,5.793,12.607,12.812,12.607
							h1.704l10.699,81.096c0.477,3.68,3.816,6.815,7.496,6.815h66.444c3.68,0,7.019-3.203,7.496-6.815l10.699-81.096h1.704
							c7.156,0,12.812-5.588,12.812-12.607C429.861,405.327,424.069,399.875,417.049,399.875z"/>
					</g>
				</g>
				<path fill="#B0CB0B" d="M370.845,295.609c-0.886,0-1.976,0.341-3.067,0.477c-1.227,0.136-2.521,0.136-3.884,0.136
					c-2.453,0-4.634-0.273-7.36-0.75v48.794c-6.133-4.089-16.219-10.358-23.375-14.175c-1.363-0.75-4.702-2.453-7.564-3.339
					c-3.067-0.886-5.656-1.227-7.019-1.227c-12.471,0-22.693,10.222-22.693,22.693c0,12.471,10.222,22.693,22.693,22.693
					c1.363,0,3.953-0.273,7.019-1.227c2.862-0.886,6.201-2.59,7.564-3.339c7.155-3.816,17.309-10.222,23.443-14.175v47.635h14.311
					L370.845,295.609L370.845,295.609z"/>
			</g>
		</g>
		<path id="XMLID_41_" fill="#FFFFFF" d="M127.354,147.729c-24.397,0-48.93,0-73.327,0c-6.27,0-12.675-0.341-18.604-2.794
			c-6.678-2.59-12.335-6.474-17.105-11.994c-4.907-5.793-7.905-12.335-8.995-19.763c-1.704-12.062,1.09-22.829,8.859-32.302
			c3.68-4.43,7.905-7.769,12.812-10.495c3.339-1.84,4.293-3.68,3.68-7.633c-1.704-9.881-0.75-19.695,2.862-28.963
			C42.102,22.202,49.871,13.342,60.57,7.141c6.542-3.953,13.698-6.065,21.466-6.883c9.881-0.886,19.218,0.477,28.213,4.566
			c5.043,2.317,9.609,5.315,13.561,9.132c1.499,1.363,2.862,2.862,4.43,4.43c3.067,3.067,4.43,3.067,7.769,0.613
			c5.793-4.293,12.335-7.292,19.49-8.518c14.175-2.453,26.986,0.75,38.094,9.881c9.609,7.905,15.401,18.127,16.492,30.803
			c0.136,0.75,0.273,1.704,0.273,2.453c0,3.203,1.499,5.315,4.566,6.406c4.293,1.499,8.382,3.339,12.062,5.929
			c10.222,7.292,16.764,17.105,18.741,29.576c2.59,16.015-2.317,29.712-14.175,40.684c-7.496,7.019-16.628,10.563-26.85,11.312
			c-3.476,0.273-6.883,0.204-10.358,0.204C172.059,147.729,149.775,147.729,127.354,147.729z"/>
	</g>
</g>
<g id="Layer_3" display="none">
	<g display="inline">
		<g>
			<path fill-rule="evenodd" clip-rule="evenodd" fill="#FFFFFF" d="M820.129,208.6c0,115.204-93.389,208.598-208.577,208.598
				c-115.234,0-208.605-93.394-208.605-208.598C402.947,93.397,496.318,0,611.552,0C726.739,0,820.129,93.397,820.129,208.6z"/>
		</g>
		<g>
			<g>
				<path fill-rule="evenodd" clip-rule="evenodd" fill="#FFFFFF" d="M810.258,208.649c0,109.761-88.981,198.742-198.727,198.742
					c-109.788,0-198.754-88.981-198.754-198.742S501.743,9.905,611.531,9.905C721.277,9.905,810.258,98.888,810.258,208.649z"/>
				<path fill="#00AB67" d="M611.531,409.046c-110.507,0-200.408-89.898-200.408-200.397c0-110.501,89.902-200.399,200.408-200.399
					c110.491,0,200.382,89.898,200.382,200.399C811.913,319.148,722.023,409.046,611.531,409.046z M611.531,11.56
					c-108.681,0-197.099,88.414-197.099,197.09c0,108.673,88.418,197.088,197.099,197.088c108.666,0,197.072-88.414,197.072-197.088
					C808.604,99.974,720.197,11.56,611.531,11.56z"/>
			</g>
			<path fill-rule="evenodd" clip-rule="evenodd" fill="#00AB67" d="M682.475,96.625L682.475,96.625 M705.012,205.53
				c4.565-5.5,24.048-3.659,24.048-3.659c11.518,0,11.985-8.064,9.547-13.838c-2.582-5.793-9.547-17.356-22.362-28.616
				c-14.758-13.252-32.396-24.184-45.496-30.905c-13.222-6.664-31.807-16.101-46.706-22.659
				c-14.595-6.543-38.186-16.432-51.587-20.837c-13.678-4.416-15.968-5.337-17.49-5.474c-1.248-0.164-2.267,0.757-1.248,1.658
				c2.153,1.678,26.348,21.605,34.854,28.601c8.517,6.862,17.653,16.299,24.07,22.975c5.006,5.504,9.893,10.358,10.331,12.168
				c0,0.194-0.152,0.936-0.593,1.221c-4.412,2.294-20.848,11.879-20.848,11.879c-3.838,2.305-24.032-3.964-39.118-8.216
				c-15.033-4.405-53.222-17.969-59.042-19.464c-4.565-1.221-8.844-2.579-15.207,6.211c-6.39,8.684-4.854,13.115-0.784,16.158
				c2.936,2.279,13.089,8.958,28.011,18.395c15.238,9.437,31.179,20.563,38.969,26.322c3.633,2.579,13.059,9.589,13.253,13.705
				c0.118,7.748,0.118,17.338,0.118,19.943c0,2.29-0.312,4.389-0.601,5.473c-0.464,1.647-2.126,1.647-2.278,1.647
				c-26.322,0-49.761-4.831-66.197-8.068c-16.592-3.169-40.449-9.711-41.982-9.875c-1.662-0.179-2.746,0.753-1.373,1.974
				c4.858,4.595,27.539,25.12,66.661,48.228c63.732,38.053,102.081,42.454,116.045,43.39c10.069,0.738,25.447-1.057,32.891-3.5
				c8.208-2.754,13.401-7.915,14.926-10.042c1.51-2.153,2.263-5.348,1.662-9.433c-0.62-4.115-3.476-5.751-7.604-10.662
				c-3.827-4.732-5.006-11.864-5.295-14.907c10.936-2.457,26.448-3.64,35.284-4.405c9.133-0.768,14.302,1.37,16.265,2.594
				c0.605,0.453,2.126,1.339,2.126,1.339s1.236,0.909,1.415-0.449c0.263-1.826-0.179-4.72-0.179-4.72s1.373,0,2.879,0.164
				c1.978,0.305,5.478,1.837,5.478,1.837c0.338-1.259,0.434-3.382,0.338-5.063c-0.19-3.028-2.031-5.922-3.69-7.866
				c0.152-5.325-1.537-10.658-5.318-15.09c-4.572-5.626-17.041-15.063-26.151-22.663
				C703.034,209.167,703.449,207.341,705.012,205.53L705.012,205.53z"/>
		</g>
	</g>
</g>
<g id="Layer_4">
	<path id="XMLID_311_" fill="#E6007E" d="M662.418,513H125.892c10.39-16,109.481-168.07,170.446-262.324
		c24.729-38.268,43.219-67.005,46.797-73.187c13.023-22.097,28.708-41.073,50.891-41.073c22.154,0,37.696,20.923,50.089,40.443
		c9.617,15.141,26.762,41.76,47.427,73.674c11.907,18.461,26.361,40.758,42.103,64.858c2.003,3.091,4.465,6.869,7.299,11.249
		c1.031,1.546,2.061,3.12,3.091,4.723c4.493,6.898,9.731,14.941,15.484,23.785c2.147,3.292,4.379,6.726,6.669,10.247
		c0.257,0.372,0.515,0.773,0.744,1.174c1.688,2.547,3.377,5.152,5.095,7.785c1.259,1.889,2.49,3.835,3.749,5.753
		c1.431,2.147,2.834,4.322,4.265,6.526c1.832,2.805,3.664,5.61,5.496,8.444c3.892,5.953,7.842,12.021,11.792,18.089
		c2.662,4.064,5.324,8.129,7.957,12.193c3.978,6.097,7.957,12.164,11.849,18.147c0,0.028,0,0.028,0,0.028
		c3.091,4.723,6.126,9.388,9.102,13.968c2.061,3.149,4.093,6.268,6.096,9.331c3.005,4.608,5.925,9.073,8.73,13.395
		c1.804,2.805,3.606,5.553,5.381,8.272c0.944,1.431,1.86,2.834,2.748,4.207c0.4,0.572,0.773,1.145,1.116,1.689
		c1.46,2.261,2.891,4.436,4.236,6.526c0.315,0.429,0.572,0.859,0.859,1.288c1.345,2.118,2.719,4.179,4.064,6.24
		c0.973,1.488,1.89,2.891,2.777,4.265C662.304,512.828,662.39,512.914,662.418,513z"/>
	<path id="XMLID_305_" fill="#8C005A" d="M829.029,513H662.418c-0.029-0.086-0.115-0.172-0.171-0.286
		c-0.887-1.374-1.804-2.776-2.777-4.265c-1.288-2.003-2.662-4.064-4.064-6.24c-0.286-0.429-0.544-0.859-0.859-1.288
		c-1.345-2.09-2.776-4.265-4.236-6.526c-0.343-0.544-0.716-1.116-1.116-1.689c-0.887-1.374-1.804-2.776-2.748-4.207
		c-1.746-2.691-3.521-5.438-5.381-8.272c-2.805-4.322-5.724-8.787-8.73-13.395c-2.003-3.063-4.036-6.182-6.096-9.331
		c-2.977-4.579-6.011-9.245-9.102-13.968c0,0,0,0,0-0.028c-3.892-5.982-7.871-12.05-11.849-18.147
		c-2.633-4.064-5.295-8.129-7.957-12.193c-3.95-6.068-7.9-12.136-11.792-18.089c-1.832-2.834-3.664-5.639-5.496-8.444
		c-1.431-2.204-2.834-4.379-4.265-6.526c-1.259-1.918-2.49-3.864-3.749-5.753c-1.718-2.633-3.407-5.238-5.095-7.785
		c-0.229-0.401-0.487-0.802-0.744-1.174c-2.29-3.52-4.523-6.955-6.669-10.247c-5.753-8.844-10.991-16.887-15.484-23.785
		c-1.031-1.603-2.061-3.177-3.091-4.723c-2.834-4.379-5.295-8.157-7.299-11.249c1.832-2.834,3.635-5.553,5.381-8.243
		c19.806-30.683,34.547-53.667,37.438-58.59c10.419-17.717,22.927-32.887,40.672-32.887c17.746,0,30.111,16.744,40.014,32.372
		c0.573,0.887,18.977,29.223,43.564,67.177C747.57,387.491,817.008,494.539,829.029,513z"/>
</g>
</svg>
