<?xml version="1.0" encoding="utf-8"?>
<!-- Generator: Adobe Illustrator 18.0.0, SVG Export Plug-In . SVG Version: 6.00 Build 0)  -->
<!DOCTYPE svg PUBLIC "-//W3C//DTD SVG 1.1//EN" "http://www.w3.org/Graphics/SVG/1.1/DTD/svg11.dtd">
<svg version="1.1" id="Layer_1" xmlns="http://www.w3.org/2000/svg" xmlns:xlink="http://www.w3.org/1999/xlink" x="0px" y="0px"
	 viewBox="0 0 912 513" enable-background="new 0 0 912 513" xml:space="preserve">
<g display="none">
	<path display="inline" fill="#FFE57E" d="M693.484,238.84c0,0,0,0-0.072-0.613c-0.861-7.133-6.514-12.801-13.648-13.667
		c-0.626-0.079-0.626-0.079-0.626-0.079c-0.704-0.013-3.567-0.032-6.358-0.032h-17.985c-17.378,0-23.977-17.19-27.303-23.847
		c-3.234-6.462-15.552-27.323-17.854-31.059c-9.331-15.161-17.065-25.627-12.278-42.653c5.164-18.35,19.66-31.548,36.901-35.93
		c3-0.757,4.167-0.887,4.167-0.887c2.784-0.319,4.076-2.634,2.889-5.164c0,0-0.835-1.747-2.635-4.754
		c-9.768-16.243-25.496-28.933-45.189-34.476c-36.355-10.224-73.948,7.395-90.048,40.091c-1.448,2.941-2.015,4.434-2.015,4.434
		c-0.991,2.608-3.978,4.069-6.638,3.234c0,0-1.233-0.378-4.317-1.239c-19.035-5.308-39.164-8.425-60.019-9.025
		c-2.439-0.065-4.891-0.104-7.349-0.104c-75.088,0-141.517,32.696-181.998,82.822c-2.602,3.222-10.884,15.389-13.896,17.561
		c-3.247,2.348-5.875,2.869-8.731,2.856c-2.145-0.006-4.291-0.306-6.423-0.743c-1.233-0.248-1.148-2.178,0.059-2.921
		c12.592-7.825,20.404-22.399,19.243-37.339c-1.682-21.591-19.641-37.208-40.886-35.565c-10.792,0.847-20.411,5.829-27.062,14.052
		c-5.242,6.469-8.268,14.607-8.855,23.528c-0.098,1.441-1.122,3.606-2.993,0.789c-2.171-3.273-4.597-7.023-6.567-11.483
		c-3.912-8.888-10.133-13.433-17.019-11.288c-8.725,2.7-7.701,15.194-5.262,21.975c8.764,24.415,24.825,34.209,42.601,40.065
		c1.813,0.594,3.143,1.709,3.606,2.263c1.989,2.419,4.154,4.676,6.476,6.736c6.657,5.908,17.019,12.377,31.952,14.985
		c1.943,0.339,5.856,0.848,3.659,6.912c-7.082,19.497-11.209,40.211-11.209,61.796c0,62.731,32.291,110.112,67.987,142.247
		c1.148,1.03,5.015,4.421,5.015,4.421c1.761,1.448,2.328,4.539,0.867,8.255c-0.509,1.278-11.947,28.601-11.947,28.601
		c-4.617,11.151,0.73,24.036,11.875,28.666l44.988,18.624c11.145,4.617,24.043-0.718,28.659-11.868c0,0,8.08-19.198,10.596-25.34
		c1.044-2.543,2.635-3.273,4.891-2.778c0,0,0,0,1.721,0.378c13.968,2.999,37.26,5.439,53.863,5.739
		c1.591,0.026,4.792,0.039,4.792,0.039c13.453,0,33.472-1.226,44.989-3.039c1.976-0.313,1.976-0.313,1.976-0.313
		c2.856-0.574,4.473,0.626,5.145,2.256c0.671,1.617,9.847,23.515,9.847,23.515c4.61,11.137,17.508,16.485,28.653,11.868
		l44.994-18.637c11.137-4.617,16.485-17.515,11.868-28.666c0,0-8.04-18.989-9.925-23.749c-0.965-2.465,0.359-4.421,1.552-5.282
		c0,0,0,0,0.013-0.026c0.071-0.052,0.339-0.248,1.402-1.056c9.794-7.434,24.095-19.824,34.398-31.21
		c2.386-2.621,4.551-5.204,6.397-7.655c17.606-23.319,25.972-48.216,50.459-48.216h17.907c2.79,0,5.966-0.039,7.055-0.091
		c0,0,0,0,0.946-0.183c6.234-1.173,11.157-6.038,12.423-12.233c0.215-1.017,0.215-1.017,0.215-1.017
		c0.052-1.174,0.104-2.752,0.104-3.508c0-0.757,0-3.665,0-6.456v-78.163C693.523,242.394,693.503,239.544,693.484,238.84z
		 M195.788,161.684c-7.578,3.998-13.687-0.312-15.109-6.09c-1.95-7.975,1.669-17.307,9.938-19.576
		c7.682-2.1,15.063,3.313,14.704,11.32C205.028,154.035,200.496,159.207,195.788,161.684z"/>
	<path display="inline" fill="#994916" d="M564.2,216.506c0,8.693,7.043,15.735,15.742,15.735c8.685,0,15.728-7.043,15.728-15.735
		c0-8.692-7.043-15.722-15.728-15.722C571.242,200.784,564.2,207.814,564.2,216.506z"/>
	<g display="inline">
		<path fill="#994916" d="M328.469,128.337c-0.978-2.934,0.535-6.364,3.378-7.604c0,0,2.738-1.2,6.788-2.764
			c26.742-10.343,55.825-15.768,85.032-15.768c2.341,0,4.663,0.039,6.984,0.105c7.682,0.222,15.377,0.809,22.98,1.76
			c3.182,0.391,3.926,0.509,3.926,0.509c3.065,0.483,5.367,3.039,5.119,5.693c-0.254,2.654-0.672,7.121-0.932,9.931
			c-0.268,2.811-2.987,4.766-6.064,4.342c0,0-15.128-2.047-25.601-2.347c-2.132-0.059-4.265-0.091-6.41-0.091
			c-26.716,0-53.295,4.937-77.716,14.366c-4.376,1.689-7.767,3.202-7.767,3.202c-2.831,1.265-5.96-0.105-6.939-3.046
			L328.469,128.337z"/>
	</g>
	<g display="inline">
		<path fill="#FFB900" d="M415.881,5.182c-34.62-14.339-74.312,2.1-88.651,36.713c-10.942,26.423-3.939,55.787,15.369,74.6
			c5.96,5.803,13.088,10.603,21.239,13.994c19.269-5.51,39.504-8.386,59.829-8.386c2.145,0,4.278,0.033,6.41,0.091
			c0.15,0.007,0.306,0.013,0.457,0.019c6.742-5.027,12.611-11.353,17.182-18.813c1.846-3.012,3.489-6.201,4.884-9.573
			C466.94,59.202,450.501,19.522,415.881,5.182z"/>
	</g>
	<g display="inline">
		<path fill="#FFE57E" d="M412.262,13.927c-7.147-2.967-14.659-4.467-22.341-4.467c-23.704,0-44.884,14.163-53.954,36.061
			c-5.973,14.405-5.973,30.276,0,44.687c3.743,9.019,9.541,16.792,16.876,22.804c4.395,3.586,9.338,6.56,14.724,8.79
			c5.093,2.113,10.368,3.469,15.761,4.082c8.901-1.682,17.946-2.771,27.042-3.325c10.544-3.939,19.746-10.857,26.481-19.994
			c2.772-3.762,5.152-7.89,7.004-12.357C456.181,60.467,441.998,26.245,412.262,13.927z M435.581,86.779
			c-2.426,5.869-5.888,11.073-10.108,15.448c-9.135,9.475-21.858,15.089-35.591,15.089c-6.482,0-12.833-1.278-18.885-3.782
			c-2.491-1.03-4.844-2.295-7.107-3.691c-8.764-5.413-15.625-13.362-19.654-23.064c-5.047-12.201-5.047-25.634,0-37.828
			c7.682-18.552,25.621-30.531,45.686-30.531c6.495,0,12.859,1.265,18.911,3.775C434.016,32.622,446.002,61.602,435.581,86.779z"/>
	</g>
	<g display="inline">
		<g>
			<path fill="#FFE57E" d="M372.146,73.222c-2.269,6.821,0.561,13.838,7.76,16.824c6.521,2.7,13.629,0.469,16.498-6.442
				c3.182-7.682-0.893-13.857-7.225-16.485c-4.414-1.826-8.914-1.552-12.155,0.033l-9.214-8.432l20.678-28.196l34.065,14.111
				l-4.173,10.081l-26.292-10.903l-10.355,14.15c3.834-1.669,9.272-1.213,13.681,0.613c12.377,5.126,18.128,16.498,12.716,29.553
				c-4.845,11.712-17.92,17.763-32.318,11.796c-13.433-5.562-18.949-18.304-15.663-28.412L372.146,73.222z"/>
		</g>
	</g>
</g>
<g>
	<g>
		<path fill="#FFB900" d="M287.715,148.121v9.54c0,6.931-3.591,15.007-7.645,18.66c-10.633,9.606-19.566,6.049-31.729,18.227
			c-13.407,13.421-13.657,27.159-23.179,36.688c-3.76,3.757-10.824,6.093-16.526,6.093h-10.125v186.461h10.125
			c5.702,0,12.766,2.34,16.526,6.093c9.522,9.522,9.772,23.281,23.179,36.703c12.163,12.17,21.096,8.609,31.729,18.219
			c4.054,3.649,7.645,11.729,7.645,18.66V513h-52.597c-20.132,0-36.607-16.482-36.607-36.6l0,0c0,20.132,16.476,36.6,36.607,36.6
			h70.264V148.121H287.715z"/>
		<path fill="#FFB900" d="M648.103,231.235c-9.522-9.529-9.772-23.267-23.179-36.688c-12.156-12.178-21.103-8.621-31.728-18.227
			c-4.047-3.653-7.638-11.729-7.638-18.66v-9.54h-21.559V513h74.156c20.132,0,36.6-16.467,36.6-36.6l0,0
			c0,20.117-16.467,36.6-36.6,36.6h-52.597v-9.536c0-6.931,3.591-15.011,7.638-18.66c10.625-9.61,19.572-6.049,31.728-18.219
			c13.407-13.422,13.657-27.181,23.179-36.703c3.767-3.753,10.831-6.093,16.527-6.093h10.125V237.328H664.63
			C658.934,237.328,651.87,234.992,648.103,231.235z"/>
		<path fill="#FFE57E" d="M225.163,231.235c9.522-9.529,9.772-23.267,23.179-36.688c12.163-12.178,21.096-8.621,31.729-18.227
			c4.054-3.653,7.645-11.729,7.645-18.66v-9.54h-52.597c-20.132,0-36.607,16.471-36.607,36.61v52.597h10.125
			C214.339,237.328,221.403,234.992,225.163,231.235z"/>
		<path fill="#FFE57E" d="M235.118,513h52.597v-9.536c0-6.931-3.591-15.011-7.645-18.66c-10.633-9.61-19.566-6.049-31.729-18.219
			c-13.407-13.422-13.657-27.181-23.179-36.703c-3.76-3.753-10.824-6.093-16.526-6.093h-10.125V476.4
			C198.511,496.518,214.987,513,235.118,513z"/>
		<path fill="#FFE57E" d="M638.154,148.121h-52.597v9.54c0,6.931,3.591,15.007,7.638,18.66c10.625,9.606,19.572,6.049,31.728,18.227
			c13.407,13.421,13.657,27.159,23.179,36.688c3.767,3.757,10.831,6.093,16.527,6.093h10.125v-52.597
			C674.754,164.592,658.287,148.121,638.154,148.121z"/>
		<path fill="#FFE57E" d="M648.103,429.882c-9.522,9.522-9.772,23.281-23.179,36.703c-12.156,12.17-21.103,8.609-31.728,18.219
			c-4.047,3.649-7.638,11.729-7.638,18.66V513h52.597c20.132,0,36.6-16.482,36.6-36.6v-52.611H664.63
			C658.934,423.789,651.87,426.129,648.103,429.882z"/>
		<path fill="#FFB900" d="M389.303,118.875c0-5.169,4.371-9.544,9.536-9.544h71.699c5.176,0,9.547,4.375,9.547,9.544v29.246H513.3
			v-29.246c0-23.576-19.19-42.751-42.762-42.751h-71.699c-23.568,0-42.751,19.175-42.751,42.751v29.246h33.215V118.875z"/>
		<rect x="305.382" y="148.121" fill="#FFE57E" width="33.208" height="364.879"/>
		<rect x="530.783" y="148.121" fill="#FFE57E" width="33.215" height="364.879"/>
		<path fill="#FFE57E" d="M573.858,135.188c2.428-0.055,5.401-1.39,7.152-3.119c26.622-26.376,53.082-52.917,80.057-79.892
			C643.261,34.363,626.234,17.335,608.898,0c-26.975,26.971-53.494,53.454-79.926,80.021c-1.413,1.423-3.002,3.535-3.016,5.353
			c-0.25,16.479-0.148,32.972-0.162,50.238C542.556,135.512,558.2,135.557,573.858,135.188z M544.352,95.966
			c5.445-5.522,15.217-5.585,20.75-0.115c5.518,5.445,5.577,15.217,0.118,20.747c-5.445,5.529-15.217,5.581-20.75,0.118
			C538.936,111.27,538.892,101.506,544.352,95.966z"/>
	</g>
	<path fill="#FFB900" d="M559.436,101.083c-3.238-3.241-8.506-3.241-11.744,0l-47.034,47.038h-20.573h-90.783h-33.215H338.59V513
		h192.193V148.121h-6.637l35.29-35.294C562.674,109.582,562.674,104.325,559.436,101.083z"/>
</g>
</svg>
