<?xml version="1.0" encoding="utf-8"?>
<!-- Generator: Adobe Illustrator 18.0.0, SVG Export Plug-In . SVG Version: 6.00 Build 0)  -->
<!DOCTYPE svg PUBLIC "-//W3C//DTD SVG 1.1//EN" "http://www.w3.org/Graphics/SVG/1.1/DTD/svg11.dtd">
<svg version="1.1" id="Layer_1" xmlns="http://www.w3.org/2000/svg" xmlns:xlink="http://www.w3.org/1999/xlink" x="0px" y="0px"
	 viewBox="0 0 912 513" enable-background="new 0 0 912 513" xml:space="preserve">
<g>
	<g>
		<g>
			<path fill="#E6007E" d="M249.583,245.692h-7.421v9.341c2.11,1.022,3.572,3.165,3.572,5.663c0,3.484-2.822,6.306-6.301,6.306
				c-3.479,0-6.306-2.822-6.306-6.306c0-2.498,1.466-4.64,3.576-5.663v-9.341h-14.379v9.341c2.105,1.022,3.572,3.165,3.572,5.663
				c0,3.484-2.822,6.306-6.301,6.306s-6.311-2.822-6.311-6.306c0-2.498,1.471-4.64,3.581-5.663v-9.341h-14.379v9.341
				c2.11,1.022,3.572,3.165,3.572,5.663c0,3.484-2.822,6.306-6.301,6.306s-6.311-2.822-6.311-6.306c0-2.498,1.467-4.64,3.576-5.663
				v-9.341h-14.375v9.341c2.105,1.022,3.572,3.165,3.572,5.663c0,3.484-2.822,6.306-6.301,6.306c-3.488,0-6.306-2.822-6.306-6.306
				c0-2.498,1.466-4.64,3.572-5.663v-9.341h-14.375v9.341c2.105,1.022,3.572,3.165,3.572,5.663c0,3.484-2.822,6.306-6.306,6.306
				c-3.484,0-6.306-2.822-6.306-6.306c0-2.498,1.471-4.64,3.576-5.663v-9.341h-14.377v9.341c2.107,1.022,3.572,3.165,3.572,5.663
				c0,3.484-2.822,6.306-6.302,6.306c-3.484,0-6.306-2.822-6.306-6.306c0-2.498,1.466-4.64,3.572-5.663v-9.341h-14.375v9.341
				c2.11,1.022,3.574,3.165,3.574,5.663c0,3.484-2.827,6.306-6.306,6.306c-3.479,0-6.301-2.822-6.301-6.306
				c0-2.498,1.464-4.64,3.572-5.663v-9.341h-14.38v9.341c2.107,1.022,3.574,3.165,3.574,5.663c0,3.484-2.825,6.306-6.304,6.306
				c-3.479,0-6.306-2.822-6.306-6.306c0-2.498,1.469-4.64,3.576-5.663v-9.341h-14.38v9.341c2.11,1.022,3.574,3.165,3.574,5.663
				c0,3.484-2.825,6.306-6.304,6.306c-3.484,0-6.303-2.822-6.303-6.306c0-2.498,1.462-4.64,3.572-5.663v-9.341H70.4
				c-2.836,0-5.159,2.322-5.159,5.164v10.317v236.346c0,8.513,6.968,15.481,15.481,15.481h158.539
				c8.517,0,15.485-6.968,15.485-15.481V261.173v-10.317C254.746,248.015,252.424,245.692,249.583,245.692z"/>
		</g>
		<g>
			<path fill="#F0A5C3" d="M200.986,366.465c-0.009-0.009-0.014-0.018-0.014-0.028c-0.004-0.037-0.018-0.079-0.027-0.116
				c-2.225-9.628-9.818-16.799-19.792-17.234c-0.657-0.064-1.309-0.097-1.985-0.097c-7.62,0-14.342,3.924-18.405,9.91
				c-0.148,0.213-0.37,0.5-0.689,0.477c-0.328,0.028-0.551-0.264-0.698-0.477c-4.062-5.991-10.785-9.91-18.412-9.91
				c-0.666,0-1.325,0.033-1.98,0.097c-9.97,0.435-17.569,7.606-19.79,17.234c-0.011,0.037-0.023,0.079-0.032,0.116
				c-0.002,0.009,0,0.018-0.002,0.028c-0.449,1.823-0.689,3.734-0.689,5.709c0,6.988,1.848,13.725,5.61,20.044
				c5.42,9.105,14.761,17.174,24.292,24.373c5.545,4.182,9.121,6.329,11.703,6.329c2.683,0,5.992-2.147,11.691-6.329
				c9.614-7.069,18.877-15.268,24.299-24.373c3.757-6.319,5.607-13.056,5.607-20.044C201.67,370.198,201.43,368.288,200.986,366.465
				z"/>
		</g>
		<g>
			<g>
				<path fill="#8C005A" d="M83.447,255.034v-20.801c0-1.513-1.224-2.735-2.73-2.735c-1.508,0-2.732,1.221-2.732,2.735v20.801
					c-2.11,1.022-3.572,3.165-3.572,5.663c0,3.484,2.82,6.306,6.303,6.306c3.479,0,6.304-2.822,6.304-6.306
					C87.021,258.198,85.557,256.056,83.447,255.034z"/>
				<path fill="#8C005A" d="M103.286,255.034v-20.801c0-1.513-1.221-2.735-2.73-2.735c-1.508,0-2.729,1.221-2.729,2.735v20.801
					c-2.108,1.022-3.576,3.165-3.576,5.663c0,3.484,2.827,6.306,6.306,6.306c3.479,0,6.304-2.822,6.304-6.306
					C106.86,258.198,105.393,256.056,103.286,255.034z"/>
				<path fill="#8C005A" d="M123.127,255.034v-20.801c0-1.513-1.224-2.735-2.732-2.735c-1.508,0-2.729,1.221-2.729,2.735v20.801
					c-2.108,1.022-3.572,3.165-3.572,5.663c0,3.484,2.822,6.306,6.301,6.306c3.479,0,6.306-2.822,6.306-6.306
					C126.701,258.198,125.237,256.056,123.127,255.034z"/>
				<path fill="#8C005A" d="M142.966,255.034v-20.801c0-1.513-1.224-2.735-2.73-2.735c-1.506,0-2.734,1.221-2.734,2.735v20.801
					c-2.105,1.022-3.572,3.165-3.572,5.663c0,3.484,2.822,6.306,6.306,6.306c3.479,0,6.302-2.822,6.302-6.306
					C146.538,258.198,145.073,256.056,142.966,255.034z"/>
				<path fill="#8C005A" d="M162.807,255.034v-20.801c0-1.513-1.221-2.735-2.735-2.735c-1.508,0-2.729,1.221-2.729,2.735v20.801
					c-2.105,1.022-3.576,3.165-3.576,5.663c0,3.484,2.822,6.306,6.306,6.306c3.484,0,6.306-2.822,6.306-6.306
					C166.379,258.198,164.912,256.056,162.807,255.034z"/>
				<path fill="#8C005A" d="M182.646,255.034v-20.801c0-1.513-1.226-2.735-2.73-2.735c-1.508,0-2.734,1.221-2.734,2.735v20.801
					c-2.105,1.022-3.572,3.165-3.572,5.663c0,3.484,2.817,6.306,6.306,6.306c3.479,0,6.301-2.822,6.301-6.306
					C186.218,258.198,184.751,256.056,182.646,255.034z"/>
				<path fill="#8C005A" d="M202.485,255.034v-20.801c0-1.513-1.226-2.735-2.73-2.735c-1.508,0-2.734,1.221-2.734,2.735v20.801
					c-2.11,1.022-3.576,3.165-3.576,5.663c0,3.484,2.831,6.306,6.311,6.306s6.301-2.822,6.301-6.306
					C206.056,258.198,204.594,256.056,202.485,255.034z"/>
				<path fill="#8C005A" d="M222.324,255.034v-20.801c0-1.513-1.221-2.735-2.73-2.735c-1.508,0-2.73,1.221-2.73,2.735v20.801
					c-2.11,1.022-3.581,3.165-3.581,5.663c0,3.484,2.831,6.306,6.311,6.306s6.301-2.822,6.301-6.306
					C225.895,258.198,224.428,256.056,222.324,255.034z"/>
				<path fill="#8C005A" d="M242.162,255.034v-20.801c0-1.513-1.221-2.735-2.73-2.735c-1.508,0-2.73,1.221-2.73,2.735v20.801
					c-2.11,1.022-3.576,3.165-3.576,5.663c0,3.484,2.826,6.306,6.306,6.306c3.479,0,6.301-2.822,6.301-6.306
					C245.734,258.198,244.272,256.056,242.162,255.034z"/>
			</g>
		</g>
		<path fill="#F0A5C3" d="M20.644,482.039H10.32H0v10.318v10.326C0,508.355,4.645,513,10.32,513h10.324
			c5.677,0,10.319-4.645,10.319-10.318v-10.326v-10.318H20.644z"/>
		<polygon fill="#8C005A" points="9.894,264.305 21.072,264.305 15.483,245.692 		"/>
		<g>
			<path fill="#FFB900" d="M30.961,297.237c0,2.85-2.309,5.163-5.161,5.163c-2.847,0-5.158-2.313-5.158-5.163
				c0,2.85-2.309,5.163-5.161,5.163c-2.85,0-5.161-2.313-5.161-5.163c0,2.85-2.309,5.163-5.159,5.163
				C2.309,302.4,0,300.087,0,297.237v168.942h30.964V297.237H30.961z"/>
		</g>
		<rect y="466.179" fill="#FFE57E" width="30.964" height="15.86"/>
		<g>
			<path fill="#FFE57E" d="M30.961,297.228l-0.844-2.813l-9.045-30.11H9.894L0.851,294.41L0,297.237c0,2.85,2.309,5.163,5.161,5.163
				c2.85,0,5.159-2.313,5.159-5.163c0,2.85,2.311,5.163,5.161,5.163c2.853,0,5.161-2.313,5.161-5.163
				c0,2.85,2.311,5.163,5.158,5.163c2.853,0,5.161-2.313,5.161-5.163h0.002L30.961,297.228z"/>
		</g>
	</g>
	<g>
		<g>
			<path fill="#009FE4" d="M601.351,236.48h-63.752c-22.746,0-41.237-18.498-41.237-41.244v-63.744
				c0-22.743,18.49-41.252,41.237-41.252h63.752c22.75,0,41.263,18.508,41.263,41.252v63.744
				C642.614,217.982,624.102,236.48,601.351,236.48z M537.599,117.881c-7.487,0-13.595,6.108-13.595,13.61v63.744
				c0,7.502,6.108,13.61,13.595,13.61h63.752c7.51,0,13.607-6.108,13.607-13.61v-63.744c0-7.502-6.097-13.61-13.607-13.61H537.599z"
				/>
		</g>
		<polygon fill="#AEC90B" points="827.992,501.443 797.848,338.189 827.992,501.443 		"/>
		<path fill="#009FE4" d="M784.372,466.007L739.793,513c4.272,0,8.529,0,11.752,0h21.076c6.475,0,17.059,0,23.518,0h22.245
			c3.088,0,5.696-1.2,7.435-3.148L784.372,466.007z"/>
		<g>
			<path fill="#009FE4" d="M343.512,297.436h423.592l16.309-128.837c-2.683-3.141-6.7-5.232-10.792-5.232H366.326
				c-6.461,0-12.703,5.209-13.881,11.557l-14.54,117.752c0.105,1.079,0.465,2.061,1.109,2.848
				C340.034,296.754,341.638,297.436,343.512,297.436z"/>
			<path fill="#009FE4" d="M336.512,303.964l-24.374,197.479c-1.184,6.356,3.141,11.557,9.616,11.557h85.652
				c6.461,0,17.036,0,23.511,0h297.124c3.238,0,7.495,0,11.752,0l26.247-207.275H343.512
				C340.987,305.725,338.588,305.103,336.512,303.964z"/>
		</g>
		<path fill="#0A4682" d="M825.819,509.852c1.904-2.114,2.804-5.096,2.173-8.409l-41.477-326.518
			c-0.434-2.339-1.543-4.504-3.103-6.326L739.793,513l44.579-46.993L825.819,509.852z"/>
		<g>
			<path fill="#FFFFFF" d="M441.425,259.774l-0.539,0.007c-14.473,0.292-27.904,12.884-29.92,28.083l-3.147,23.714
				c-1.049,7.843,0.982,15.128,5.711,20.525c4.377,5.006,10.583,7.749,17.471,7.749l0.517-0.015
				c14.488-0.285,27.911-12.891,29.927-28.08l3.163-23.714c1.035-7.839-0.989-15.132-5.718-20.528
				C454.519,262.517,448.313,259.774,441.425,259.774z"/>
			<path fill="#FFFFFF" d="M683.461,267.516c-4.362-4.999-10.567-7.742-17.463-7.742l-0.524,0.007
				c-14.481,0.292-27.912,12.884-29.92,28.083l-3.147,23.714c-1.05,7.843,0.989,15.128,5.711,20.525
				c4.362,5.006,10.568,7.749,17.463,7.749l0.525-0.015c14.48-0.285,27.911-12.891,29.919-28.08l3.163-23.714
				C690.237,280.205,688.198,272.913,683.461,267.516z"/>
		</g>
	</g>
</g>
</svg>
