<?xml version="1.0" encoding="utf-8"?>
<!-- Generator: Adobe Illustrator 18.0.0, SVG Export Plug-In . SVG Version: 6.00 Build 0)  -->
<!DOCTYPE svg PUBLIC "-//W3C//DTD SVG 1.1//EN" "http://www.w3.org/Graphics/SVG/1.1/DTD/svg11.dtd">
<svg version="1.1" id="Layer_1" xmlns="http://www.w3.org/2000/svg" xmlns:xlink="http://www.w3.org/1999/xlink" x="0px" y="0px"
	 viewBox="0 0 912 513" enable-background="new 0 0 912 513" xml:space="preserve">
<path fill="#FFFFFF" d="M173.129,52.175c0.119-1.17,0.299-2.347,0.299-3.56c0-11.976-9.707-21.683-21.683-21.683
	c-4.002,0-7.669,1.23-10.968,2.973c-0.997,0.527-1.974,0.323-2.016-1.117c-0.006-0.262-0.148-1.735-0.213-2.209
	C136.627,12.443,124.51,1.551,109.85,1.551c-8.144,0-15.662,3.21-20.757,8.775c-1.078,1.177-2.408,1.793-3.826,0.51
	C77.983,4.247,68.47,0,57.871,0C35.733,0,17.788,17.944,17.788,40.082c0,4.193,0.648,8.23,1.845,12.028
	c0.071,0.223,0.145,0.444,0.22,0.668c0.213,0.638,0.363,1.487-1.011,1.828C8.059,57.273,0,66.886,0,78.478
	c0,13.558,10.989,24.545,24.545,24.545h145.816c13.558,0,24.547-10.988,24.547-24.545c0-12.226-8.974-22.167-20.638-24.234
	C173.037,54.026,172.987,53.565,173.129,52.175z"/>
<g>
	<path id="XMLID_376_" fill="#F2A4C3" d="M824.471,513L664.852,172.674c-11.461-24.386-46.154-24.386-57.637,0l-69.286,147.759
		L628.261,513H824.471z"/>
	<path id="XMLID_132_" fill="#8C005A" d="M537.928,320.433l-29.014-61.847c-8.933-19.079-36.11-19.079-45.043,0L344.542,513h103.087
		h180.632L537.928,320.433z"/>
	<path id="XMLID_42_" fill="#FFFFFF" d="M416.881,225.343c0-1.455-0.432-2.415-0.895-3.044c-1.012-1.596-2.782-2.663-4.812-2.663
		h-4.045H395.11c-2.226,0-2.757-1.287-1.185-2.86l2.878-2.88l5.739-5.738c1.437-1.435,1.933-3.44,1.52-5.287
		c-0.117-0.77-0.49-1.754-1.518-2.784c-1.031-1.029-2.014-1.403-2.788-1.521c-1.844-0.411-3.848,0.087-5.283,1.521l-2.856,2.857
		c-0.001,0.001-0.003,0.001-0.004,0.004l-6.915,6.914l-6.918,6.915c-1.573,1.572-4.679,2.858-6.902,2.858h-15.158
		c-2.223,0-3.132-1.575-2.023-3.499l3.791-6.567l3.789-6.564c1.112-1.926,3.777-3.971,5.927-4.55l9.446-2.53l9.443-2.53
		c0.003,0,0.003,0,0.003,0l3.904-1.047c1.962-0.525,3.394-2.014,3.959-3.818c0.284-0.727,0.456-1.766,0.076-3.171
		c-0.378-1.41-1.042-2.225-1.655-2.712c-1.389-1.278-3.374-1.849-5.332-1.324l-3.905,1.047c-0.003,0-0.003,0-0.003,0l-3.933,1.054
		l-3.931,1.054c-2.148,0.576-2.997-0.528-1.886-2.451l3.005-5.207l3.003-5.206c0.003-0.001,0.004-0.004,0.004-0.007l2.019-3.495
		c1.015-1.759,0.976-3.827,0.099-5.504c-0.314-0.714-0.928-1.567-2.188-2.293c-1.259-0.727-2.307-0.832-3.083-0.747
		c-1.889,0.079-3.698,1.079-4.713,2.837l-5.026,8.706l-3.005,5.205c-1.111,1.924-2.487,1.744-3.067-0.395l-1.056-3.943l-1.054-3.932
		c-0.001-0.005-0.005-0.013-0.005-0.019l-1.041-3.888c-0.527-1.963-2.019-3.398-3.824-3.96c-0.727-0.282-1.763-0.452-3.165-0.077
		c-1.406,0.376-2.221,1.043-2.708,1.653c-1.279,1.389-1.852,3.376-1.326,5.336l1.043,3.894c0.002,0.004,0.002,0.009,0.003,0.013
		l3.072,11.461l1.992,7.435c0.573,2.146,0.134,5.473-0.976,7.399l-3.79,6.567l-3.791,6.566c-1.109,1.924-2.927,1.926-4.04,0.005
		l-3.794-6.571l-3.791-6.567c-1.114-1.926-1.553-5.258-0.976-7.407l2.251-8.403l3.857-14.391c0.527-1.962-0.048-3.949-1.329-5.338
		c-0.487-0.611-1.302-1.277-2.706-1.653c-1.411-0.375-2.45-0.206-3.177,0.078c-1.802,0.564-3.288,1.998-3.812,3.956l-1.855,6.925
		l-1.3,4.851c-0.576,2.147-1.953,2.33-3.066,0.411l-8.038-13.92c-1.015-1.756-2.821-2.756-4.707-2.835
		c-0.777-0.087-1.826,0.017-3.089,0.747c-1.26,0.728-1.874,1.58-2.188,2.295c-0.878,1.675-0.916,3.742,0.099,5.501l2.014,3.491
		c0.004,0.004,0.005,0.008,0.006,0.011l6.012,10.409c1.113,1.927,0.265,3.032-1.885,2.455l-3.933-1.054l-7.84-2.1
		c-1.962-0.527-3.947,0.047-5.338,1.326c-0.611,0.488-1.274,1.303-1.651,2.709c-0.377,1.406-0.208,2.444,0.077,3.171
		c0.564,1.803,1.998,3.292,3.958,3.818l3.902,1.047c0.003,0,0.003,0,0.005,0l9.447,2.532l9.45,2.533
		c2.148,0.575,4.815,2.622,5.926,4.547l3.792,6.563l3.794,6.57c1.106,1.923,0.196,3.497-2.026,3.497h-15.166
		c-2.224,0-5.33-1.286-6.904-2.858l-6.915-6.915l-6.915-6.914c-0.002-0.003-0.003-0.003-0.005-0.004l-2.856-2.857
		c-1.435-1.435-3.443-1.932-5.287-1.517c-0.772,0.116-1.754,0.489-2.783,1.517c-1.03,1.031-1.402,2.014-1.518,2.784
		c-0.415,1.846,0.085,3.851,1.52,5.287l2.847,2.849c0.004,0.004,0.009,0.008,0.011,0.011l2.88,2.88l2.885,2.884
		c1.564,1.57,1.032,2.854-1.191,2.854h-12.017h-4.045c-2.028,0-3.799,1.068-4.814,2.665c-0.46,0.628-0.894,1.587-0.894,3.042
		c0,1.454,0.433,2.412,0.894,3.042c1.015,1.596,2.785,2.663,4.814,2.663h4.045h12.018c2.227,0,2.757,1.287,1.185,2.861l-5.759,5.761
		c-0.003,0.001-0.003,0.004-0.007,0.005l-2.851,2.853c-1.435,1.435-1.934,3.442-1.52,5.287c0.117,0.773,0.489,1.755,1.52,2.786
		c1.114,1.111,2.574,1.669,4.034,1.669c1.461,0,1.461,0,1.461,0c0.17-0.107,0.355-0.238,0.551-0.376
		c0.737-0.278,1.43-0.7,2.023-1.293l9.776-9.777l6.915-6.917c1.572-1.571,4.679-2.858,6.904-2.858h15.166
		c2.221,0,3.132,1.574,2.026,3.498l-5.311,9.197l-2.275,3.94c-1.111,1.926-3.777,3.97-5.923,4.549l-9.454,2.532l-9.447,2.532
		c-0.003,0-0.005,0.001-0.008,0.001l-3.898,1.045c-1.96,0.523-3.394,2.013-3.958,3.816c-0.284,0.727-0.453,1.764-0.077,3.171
		c0.378,1.412,1.047,2.229,1.66,2.717c1.388,1.273,3.372,1.84,5.329,1.318l3.899-1.046c0.002,0,0.004,0,0.008,0l3.934-1.055
		l3.937-1.054c2.146-0.574,2.993,0.531,1.881,2.456l-6.012,10.409c0,0-0.002,0.005-0.006,0.011l-2.014,3.491
		c-1.016,1.756-0.977,3.824-0.099,5.5c0.312,0.714,0.928,1.568,2.188,2.294c0.899,0.52,1.879,0.766,2.847,0.766
		c1.973,0,2.029-0.055,2.029-0.055c0.185-0.176,0.38-0.375,0.58-0.585c0.943-0.484,1.769-1.227,2.34-2.215l4.127-7.148l3.907-6.766
		c1.111-1.927,2.493-1.746,3.067,0.404l1.056,3.935l2.1,7.841c0.363,1.356,1.194,2.456,2.266,3.2
		c0.023,0.032,0.046,0.071,0.068,0.105c0,0,0.654,0.926,3.173,0.926c0.491,0,0.987-0.063,1.483-0.193
		c1.404-0.378,2.219-1.043,2.706-1.653c1.282-1.391,1.853-3.378,1.329-5.338l-1.044-3.894c-0.001-0.004-0.001-0.009-0.003-0.012
		l-2.532-9.446l-2.532-9.454c-0.574-2.145-0.136-5.468,0.973-7.394l7.591-13.148c1.113-1.92,2.931-1.919,4.04,0.007l3.791,6.564
		l3.79,6.567c1.113,1.926,1.551,5.26,0.976,7.407l-2.532,9.447l-2.53,9.448v0.001l-1.047,3.904
		c-0.525,1.961,0.047,3.948,1.329,5.339c0.485,0.609,1.301,1.275,2.706,1.652c0.495,0.132,0.992,0.195,1.481,0.195
		c2.52,0,3.174-0.926,3.174-0.926c0.023-0.034,0.046-0.074,0.069-0.105c1.07-0.743,1.901-1.844,2.265-3.202l1.424-5.317l1.73-6.454
		c0.575-2.149,1.955-2.33,3.068-0.405l3.005,5.205l5.026,8.708c0.57,0.988,1.394,1.731,2.337,2.213
		c0.2,0.21,0.395,0.409,0.581,0.586c0,0,0.056,0.055,2.03,0.055c0.968,0,1.949-0.246,2.848-0.765
		c1.26-0.727,1.875-1.582,2.188-2.294c0.877-1.677,0.915-3.742-0.099-5.502l-2.019-3.497c0-0.001-0.001-0.004-0.004-0.005
		l-3.003-5.206l-3.005-5.207c-1.111-1.926-0.261-3.028,1.886-2.452l3.931,1.054l7.84,2.1c1.956,0.521,3.939-0.046,5.329-1.321
		c0.611-0.485,1.28-1.302,1.658-2.714c0.38-1.407,0.208-2.444-0.076-3.171c-0.564-1.803-1.997-3.294-3.959-3.816l-3.902-1.047
		c0,0-0.002,0-0.005,0l-18.887-5.062c-2.148-0.576-4.817-2.624-5.929-4.55l-3.79-6.566l-3.79-6.567
		c-1.113-1.927-0.201-3.502,2.022-3.502h15.159c2.222,0,5.322,1.285,6.898,2.854l6.921,6.921l6.915,6.917
		c0.01,0.009,0.021,0.02,0.03,0.03l2.83,2.831c0.591,0.593,1.286,1.015,2.022,1.293c0.197,0.138,0.382,0.269,0.552,0.379
		c0,0,0,0,1.46,0c1.461,0,2.921-0.556,4.035-1.67c1.029-1.032,1.403-2.014,1.52-2.787c0.413-1.845-0.085-3.85-1.52-5.285
		l-5.739-5.742l-2.881-2.881c-1.573-1.571-1.04-2.858,1.185-2.858h12.022h4.045c2.03,0,3.8-1.067,4.812-2.663
		C416.449,227.755,416.881,226.797,416.881,225.343z"/>
	<path id="XMLID_267_" fill="#FFFFFF" d="M838.557,322.726c0-1.455-0.432-2.415-0.895-3.044c-1.012-1.596-2.782-2.663-4.812-2.663
		h-4.045h-12.018c-2.226,0-2.758-1.287-1.185-2.86l2.878-2.88l5.739-5.738c1.437-1.435,1.933-3.44,1.52-5.287
		c-0.117-0.77-0.49-1.754-1.518-2.784c-1.031-1.029-2.014-1.403-2.788-1.521c-1.844-0.411-3.848,0.087-5.283,1.521l-2.856,2.857
		c-0.001,0.001-0.003,0.001-0.004,0.004l-6.915,6.914l-6.918,6.915c-1.573,1.572-4.679,2.858-6.902,2.858h-15.158
		c-2.223,0-3.132-1.575-2.023-3.499l3.791-6.567l3.789-6.564c1.112-1.926,3.777-3.971,5.927-4.55l9.446-2.53l9.443-2.53
		c0.003,0,0.003,0,0.003,0l3.904-1.047c1.962-0.525,3.394-2.014,3.959-3.818c0.284-0.727,0.456-1.766,0.076-3.171
		c-0.378-1.41-1.042-2.225-1.655-2.712c-1.389-1.278-3.374-1.849-5.332-1.324l-3.905,1.047c-0.003,0-0.003,0-0.003,0l-3.933,1.054
		l-3.931,1.053c-2.148,0.577-2.997-0.528-1.886-2.451l3.005-5.207l3.003-5.206c0.003-0.001,0.004-0.004,0.004-0.007l2.019-3.495
		c1.015-1.759,0.976-3.827,0.099-5.504c-0.314-0.714-0.928-1.567-2.188-2.293c-1.259-0.727-2.307-0.832-3.083-0.747
		c-1.889,0.079-3.698,1.079-4.713,2.837l-5.026,8.706l-3.005,5.204c-1.111,1.924-2.487,1.744-3.067-0.395l-1.056-3.943l-1.054-3.932
		c-0.001-0.005-0.005-0.013-0.005-0.019l-1.041-3.888c-0.527-1.963-2.019-3.398-3.824-3.96c-0.727-0.282-1.763-0.452-3.165-0.077
		c-1.406,0.376-2.221,1.043-2.708,1.653c-1.279,1.389-1.852,3.376-1.326,5.336l1.043,3.894c0.002,0.004,0.002,0.009,0.003,0.013
		l3.072,11.461l1.992,7.435c0.573,2.146,0.134,5.473-0.976,7.399l-3.79,6.567l-3.791,6.566c-1.109,1.924-2.927,1.926-4.04,0.005
		l-3.794-6.571l-3.791-6.567c-1.114-1.926-1.553-5.258-0.976-7.407l2.251-8.403l3.857-14.391c0.527-1.962-0.048-3.949-1.329-5.338
		c-0.487-0.611-1.302-1.277-2.706-1.653c-1.411-0.375-2.45-0.206-3.177,0.078c-1.802,0.564-3.288,1.998-3.812,3.956l-1.855,6.925
		l-1.3,4.851c-0.576,2.147-1.953,2.33-3.066,0.411l-8.038-13.92c-1.015-1.756-2.821-2.756-4.707-2.835
		c-0.777-0.087-1.826,0.017-3.089,0.747c-1.26,0.728-1.874,1.58-2.188,2.295c-0.878,1.675-0.916,3.742,0.099,5.501l2.014,3.491
		c0.004,0.004,0.005,0.008,0.006,0.011l6.011,10.409c1.113,1.927,0.265,3.032-1.885,2.455l-3.933-1.053l-7.84-2.1
		c-1.962-0.527-3.947,0.047-5.338,1.326c-0.611,0.488-1.274,1.303-1.651,2.709c-0.377,1.406-0.208,2.444,0.077,3.171
		c0.564,1.803,1.998,3.292,3.958,3.818l3.902,1.047c0.003,0,0.003,0,0.005,0l9.447,2.532l9.45,2.533
		c2.148,0.575,4.815,2.622,5.926,4.547l3.792,6.563l3.794,6.57c1.106,1.923,0.196,3.497-2.026,3.497h-15.166
		c-2.224,0-5.33-1.286-6.904-2.858l-6.915-6.915l-6.915-6.914c-0.002-0.003-0.003-0.003-0.005-0.004l-2.856-2.857
		c-1.435-1.435-3.443-1.932-5.287-1.517c-0.772,0.116-1.754,0.489-2.783,1.517c-1.03,1.031-1.402,2.014-1.518,2.784
		c-0.415,1.846,0.085,3.851,1.52,5.287l2.847,2.849c0.004,0.004,0.009,0.008,0.011,0.011l2.88,2.88l2.885,2.884
		c1.564,1.57,1.032,2.854-1.191,2.854h-12.017h-4.045c-2.028,0-3.799,1.068-4.813,2.665c-0.46,0.628-0.894,1.587-0.894,3.042
		c0,1.454,0.433,2.412,0.894,3.042c1.015,1.596,2.785,2.663,4.813,2.663h4.045h12.018c2.227,0,2.758,1.287,1.185,2.861l-5.759,5.761
		c-0.003,0.001-0.003,0.004-0.007,0.005l-2.851,2.853c-1.435,1.435-1.935,3.441-1.52,5.287c0.117,0.773,0.489,1.755,1.52,2.786
		c1.114,1.111,2.574,1.669,4.034,1.669c1.461,0,1.461,0,1.461,0c0.17-0.107,0.355-0.238,0.551-0.376
		c0.737-0.278,1.43-0.7,2.023-1.293l9.776-9.777l6.915-6.917c1.572-1.571,4.679-2.858,6.904-2.858h15.166
		c2.221,0,3.132,1.574,2.026,3.498l-5.311,9.197l-2.275,3.94c-1.111,1.926-3.777,3.97-5.923,4.549l-9.454,2.532l-9.447,2.532
		c-0.003,0-0.005,0.001-0.008,0.001l-3.898,1.045c-1.96,0.523-3.394,2.013-3.958,3.816c-0.284,0.727-0.453,1.764-0.077,3.171
		c0.378,1.412,1.047,2.229,1.66,2.717c1.388,1.273,3.372,1.84,5.329,1.318l3.899-1.046c0.002,0,0.004,0,0.008,0l3.934-1.055
		l3.937-1.053c2.146-0.574,2.993,0.531,1.881,2.456l-6.011,10.409c0,0-0.002,0.005-0.006,0.011l-2.014,3.491
		c-1.016,1.756-0.977,3.824-0.099,5.5c0.312,0.714,0.928,1.568,2.188,2.294c0.899,0.52,1.879,0.766,2.847,0.766
		c1.973,0,2.029-0.055,2.029-0.055c0.185-0.176,0.38-0.375,0.58-0.585c0.943-0.484,1.769-1.227,2.34-2.215l4.127-7.148l3.907-6.766
		c1.111-1.927,2.493-1.746,3.067,0.404l1.056,3.935l2.1,7.841c0.363,1.356,1.194,2.456,2.266,3.2
		c0.023,0.032,0.046,0.071,0.068,0.105c0,0,0.654,0.926,3.173,0.926c0.49,0,0.987-0.063,1.483-0.193
		c1.404-0.378,2.219-1.043,2.706-1.653c1.282-1.391,1.853-3.378,1.329-5.338l-1.044-3.894c-0.001-0.004-0.001-0.009-0.003-0.012
		l-2.532-9.446l-2.532-9.454c-0.574-2.145-0.136-5.468,0.973-7.394l7.591-13.148c1.113-1.92,2.931-1.919,4.04,0.007l3.791,6.564
		l3.79,6.567c1.113,1.926,1.551,5.26,0.976,7.407l-2.532,9.447l-2.53,9.448v0.001l-1.047,3.904
		c-0.525,1.961,0.047,3.948,1.329,5.339c0.485,0.609,1.301,1.275,2.706,1.652c0.495,0.132,0.992,0.195,1.481,0.195
		c2.52,0,3.174-0.926,3.174-0.926c0.023-0.034,0.046-0.074,0.069-0.105c1.07-0.743,1.901-1.844,2.265-3.202l1.424-5.317l1.73-6.454
		c0.575-2.149,1.955-2.33,3.068-0.404l3.005,5.205l5.026,8.708c0.57,0.988,1.394,1.731,2.338,2.213
		c0.2,0.21,0.395,0.409,0.581,0.586c0,0,0.056,0.055,2.03,0.055c0.968,0,1.949-0.246,2.848-0.765
		c1.26-0.727,1.875-1.582,2.188-2.294c0.877-1.677,0.915-3.742-0.099-5.502l-2.019-3.497c0-0.001-0.001-0.004-0.004-0.005
		l-3.003-5.206l-3.005-5.207c-1.111-1.926-0.261-3.028,1.886-2.452l3.931,1.053l7.841,2.1c1.956,0.521,3.939-0.046,5.329-1.321
		c0.611-0.485,1.28-1.302,1.658-2.714c0.38-1.407,0.208-2.444-0.076-3.171c-0.564-1.803-1.997-3.294-3.959-3.816l-3.902-1.047
		c0,0-0.002,0-0.005,0l-18.887-5.062c-2.148-0.576-4.817-2.624-5.929-4.55l-3.79-6.566l-3.79-6.567
		c-1.113-1.927-0.201-3.502,2.022-3.502h15.159c2.222,0,5.322,1.285,6.898,2.854l6.921,6.921l6.915,6.917
		c0.01,0.009,0.021,0.02,0.03,0.03l2.83,2.831c0.591,0.593,1.286,1.015,2.022,1.293c0.197,0.138,0.382,0.269,0.552,0.379
		c0,0,0,0,1.46,0c1.461,0,2.921-0.556,4.035-1.67c1.029-1.032,1.403-2.014,1.52-2.787c0.413-1.845-0.085-3.85-1.52-5.285
		l-5.739-5.742l-2.881-2.881c-1.573-1.571-1.04-2.858,1.185-2.858h12.022h4.045c2.03,0,3.8-1.067,4.812-2.663
		C838.125,325.138,838.557,324.18,838.557,322.726z"/>
</g>
</svg>
