<?xml version="1.0" standalone="no"?>
<!DOCTYPE svg PUBLIC "-//W3C//DTD SVG 20010904//EN"
 "http://www.w3.org/TR/2001/REC-SVG-20010904/DTD/svg10.dtd">
<svg version="1.0" xmlns="http://www.w3.org/2000/svg"
 width="260.000000pt" height="260.000000pt" viewBox="0 0 260.000000 260.000000"
 preserveAspectRatio="xMidYMid meet">
<metadata>
Created by potrace 1.11, written by Peter Selinger 2001-2013
</metadata>
<g transform="translate(0.000000,260.000000) scale(0.100000,-0.100000)"
fill="#000000" stroke="none">
<path d="M0 1300 l0 -1300 1300 0 1300 0 0 139 0 138 -97 5 c-273 15 -485 188
-564 460 -26 92 -36 275 -20 378 51 324 280 533 588 534 l93 1 0 473 0 472
-1300 0 -1300 0 0 -1300z m1930 740 c0 -210 -3 -260 -13 -260 -9 0 -20 28 -31
79 -33 155 -99 245 -220 302 -86 40 -161 49 -398 49 l-208 0 0 -440 0 -440 48
0 c238 0 390 126 425 350 10 68 12 70 39 70 l28 0 0 -460 0 -460 -28 0 c-27 0
-28 3 -44 84 -29 155 -92 253 -198 306 -61 31 -146 50 -222 50 l-49 0 3 -382
c3 -374 4 -384 25 -425 33 -61 72 -84 164 -97 l79 -10 0 -33 0 -33 -460 0
-460 0 0 34 0 33 69 7 c98 10 150 39 181 101 l25 50 0 785 0 785 -25 50 c-32
65 -81 92 -178 101 -71 7 -72 7 -72 35 l0 29 760 0 760 0 0 -260z"/>
<path d="M2445 1576 c-39 -17 -92 -77 -116 -132 -82 -193 -75 -757 13 -964 41
-97 135 -154 219 -133 l34 9 3 609 c2 480 0 610 -10 617 -20 12 -110 9 -143
-6z"/>
</g>
</svg>
